<?xml version="1.0" encoding="UTF-8"?>
<svg id="Calque_1" data-name="Calque 1" xmlns="http://www.w3.org/2000/svg" xmlns:xlink="http://www.w3.org/1999/xlink" viewBox="0 0 195.59 269.29">
  <defs>
    <style>
      .cls-1 {
        fill: #1d1d1b;
      }

      .cls-2 {
        fill: none;
      }

      .cls-3 {
        clip-path: url(#clippath-1);
      }

      .cls-4 {
        fill: #507cbe;
      }

      .cls-5 {
        clip-path: url(#clippath);
      }
    </style>
    <clipPath id="clippath">
      <rect class="cls-2" width="195.59" height="269.29"/>
    </clipPath>
    <clipPath id="clippath-1">
      <rect class="cls-2" width="195.59" height="269.29"/>
    </clipPath>
  </defs>
  <g class="cls-5">
    <g class="cls-3">
      <path class="cls-1" d="M75.52,40.4l-3.47-13.99h2.34l1.37,6.17c.42,1.89.86,4.09,1.03,5.51h.04c.17-1.35.74-3.6,1.16-5.47l1.36-6.21h2.27l-3.55,13.99h-2.55ZM82.22,33.39c0-1.73,0-2.84-.02-3.6h2.05c.02.21.06.67.06,1.8.42-1.23,1.38-1.96,2.79-1.97v2.39c-1.77,0-2.73.72-2.73,2.71v5.69h-2.14v-7.01ZM94.9,38.23c0,.57.05,1.73.08,2.16h-1.95c-.05-.22-.1-.72-.1-1.06-.4.74-1.13,1.25-2.43,1.25-2.04,0-2.81-1.61-2.81-3.12,0-2.1,1.43-3.46,4.15-3.46.4,0,.69,0,.95.03v-1.24c0-.69-.11-1.52-1.29-1.52s-1.31.82-1.37,1.52h-2.04c.04-1.55.77-3.18,3.49-3.18,2.21,0,3.32,1.02,3.32,3.02v5.6ZM92.84,35.62c-.25-.04-.5-.05-.88-.05-1.56,0-2.16.73-2.16,1.71,0,.76.38,1.55,1.36,1.55,1.35,0,1.67-.99,1.67-2.79v-.42ZM99.34,29.79v10.61h-2.14v-10.61h2.14ZM99.36,25.72v2.34h-2.14v-2.34h2.14ZM101.04,40.81l4.02-14.49h1.64l-4,14.49h-1.66ZM108.55,26.41h6.94v1.91h-4.77v3.96h4.49v1.88h-4.49v6.23h-2.16v-13.99ZM123.3,38.23c0,.57.05,1.73.08,2.16h-1.95c-.05-.22-.1-.72-.1-1.06-.4.74-1.13,1.25-2.43,1.25-2.04,0-2.81-1.61-2.81-3.12,0-2.1,1.43-3.46,4.15-3.46.4,0,.69,0,.95.03v-1.24c0-.69-.11-1.52-1.29-1.52s-1.31.82-1.37,1.52h-2.04c.04-1.55.77-3.18,3.49-3.18,2.21,0,3.32,1.02,3.32,3.02v5.6ZM121.24,35.62c-.25-.04-.5-.05-.88-.05-1.56,0-2.16.73-2.16,1.71,0,.76.38,1.55,1.36,1.55,1.35,0,1.67-.99,1.67-2.79v-.42ZM132.69,40.4h-2.04c-.06-.32-.08-.78-.09-1.24-.44,1-1.24,1.43-2.42,1.43-1.42,0-2.65-.66-2.65-3.18v-7.62h2.15v7.13c0,1.15.27,1.82,1.27,1.82s1.62-.57,1.62-2.46v-6.49h2.15v7.57c0,1.47,0,2.51.02,3.05ZM136.21,29.79c.9,1.96,1.37,2.94,1.63,3.51h.02c.31-.72.91-1.92,1.65-3.51h2.27l-2.74,5.02,2.75,5.59h-2.38c-.87-1.98-1.37-3.08-1.63-3.68h-.02c-.25.56-.92,2.04-1.68,3.68h-2.28l2.71-5.3-2.65-5.32h2.35Z"/>
      <path class="cls-4" d="M179.38,248.54c0,2.5-2.03,4.53-4.54,4.53H21.6c-2.5,0-4.53-2.03-4.53-4.53V21.6c0-2.5,2.03-4.54,4.53-4.54h153.24c2.5,0,4.54,2.03,4.54,4.54v226.94ZM0,269.29h195.59V0H0v269.29Z"/>
      <path class="cls-4" d="M28.7,32.03s-.03,0-.05-.01c-.23-.08-.57-.09-.91.09-.1-.17-.2-.39-.28-.6-.07-.18-.12-.36-.15-.51,0-.01,0-.02,0-.04l-.5-3.1-.12-.75c.25-.08.48-.2.69-.35.22-.16.42-.35.58-.57,0,0,0,0,0,0l.67.37,2.76,1.53s.02.01.03.02c.13.07.28.19.42.31.18.15.35.32.47.47-.3.26-.42.6-.42.85h0s9.59,13.65,9.59,13.65l-.68.48-9.59-13.65s0,0,0-.01c-.39-.12-.87-.04-1.23.22h0c-.36.25-.61.68-.62,1.09,0,0,0,0,0,.01l9.59,13.65-.68.48-9.57-13.62ZM43.12,42.79l-10.03-14.27c-.28-.4-.87-.93-1.3-1.17l-5.71-3.15s0,0,0,0c-.43-.24-.72-.03-.64.45h0s1.03,6.44,1.03,6.44c.08.49.37,1.21.66,1.62l9.51,13.54c.33.47.51.73.51.73.06.09.15.14.25.16.1.02.2,0,.29-.06l5.34-3.75c.09-.06.14-.15.16-.25.02-.1,0-.2-.06-.29"/>
      <path class="cls-4" d="M43.93,43.98l-.28-.39c-.06-.08-.17-.1-.25-.04l-5.65,3.97c-.08.06-.1.17-.04.25l.27.39c.06.08.17.1.25.04l5.65-3.97c.08-.06.1-.17.04-.25"/>
      <path class="cls-4" d="M45.76,46.61l-1.5-2.13-5.92,4.16,1.5,2.13c.57.81,1.68,1,2.49.43l2.99-2.1c.81-.57,1-1.69.44-2.5"/>
      <path class="cls-4" d="M29.94,21.16c.05-.03.09-.09.1-.15l.24-1.33c.02-.13-.06-.26-.19-.28-.13-.02-.26.06-.28.19l-.24,1.33c-.02.13.06.26.19.28.07.01.13,0,.18-.04"/>
      <path class="cls-4" d="M21.62,26.9c.05-.03.09-.09.1-.15.02-.13-.06-.26-.19-.28l-1.33-.24c-.13-.02-.26.06-.28.2-.02.13.06.26.19.28l1.33.24c.07.01.13,0,.18-.04"/>
      <path class="cls-4" d="M34.54,24.13l1.11-.77c.11-.08.14-.23.06-.34s-.23-.14-.34-.06l-1.11.77c-.11.08-.14.23-.06.34s.23.14.34.06"/>
      <path class="cls-4" d="M21.66,33.02l1.11-.77c.11-.08.14-.23.06-.34s-.23-.14-.34-.06l-1.11.77c-.11.08-.14.23-.06.34s.23.14.34.06"/>
      <path class="cls-4" d="M24.63,22.28c.11-.08.14-.23.06-.34l-.77-1.11c-.08-.11-.23-.14-.34-.06-.11.08-.14.23-.06.34l.77,1.11c.08.11.23.14.34.06"/>
      <path class="cls-4" d="M27.15,21.2c.08-.05.12-.15.1-.25l-.15-.69c-.03-.13-.16-.21-.29-.19-.13.03-.21.16-.19.29l.15.69c.03.13.16.21.29.18.03,0,.06-.02.09-.04"/>
      <path class="cls-4" d="M32.54,22.18s.05-.04.07-.07l.38-.59c.07-.11.04-.26-.07-.33-.11-.07-.26-.04-.33.07l-.38.59c-.07.11-.04.26.07.33.08.05.19.05.27,0"/>
      <path class="cls-4" d="M21.66,29.69c.08-.05.12-.15.1-.25-.03-.13-.16-.21-.29-.18l-.69.15c-.13.03-.21.16-.19.29.03.13.16.21.29.19l.69-.15s.06-.02.09-.04"/>
      <path class="cls-4" d="M22.65,24.31s.05-.04.07-.07c.07-.11.04-.26-.07-.33l-.59-.38c-.11-.07-.26-.04-.33.07-.07.11-.04.26.07.33l.59.38c.09.05.19.05.27,0"/>
    </g>
    <path class="cls-1" d="M26.68,58.58h1.66c1.72,0,2.5,1.2,2.5,3.54,0,2.54-.7,3.93-2.62,3.93h-1.54v-7.47ZM27.5,65.35h.68c1.37,0,1.8-1.08,1.8-3.2,0-1.98-.51-2.86-1.79-2.86h-.7v6.06ZM35.16,65.07c0,.35.03.81.04.99h-.74c-.03-.12-.06-.42-.06-.63-.21.45-.63.73-1.32.73-1.07,0-1.46-.84-1.46-1.61,0-1.02.69-1.79,2.15-1.79.26,0,.42,0,.58.02v-.74c0-.44-.08-.99-.84-.99-.82,0-.87.59-.9.96h-.78c.02-.8.4-1.62,1.71-1.62,1.08,0,1.6.53,1.6,1.55v3.13ZM34.39,63.41c-.14-.02-.29-.03-.55-.03-.99,0-1.4.48-1.4,1.1,0,.51.27.99.87.99.82,0,1.08-.58,1.08-1.75v-.3ZM36.49,60.47h.78c.01.14.03.36.03.73.19-.44.57-.83,1.32-.83.81,0,1.43.46,1.43,1.7v3.97h-.81v-3.82c0-.68-.22-1.14-.86-1.14-.75,0-1.07.49-1.07,1.64v3.32h-.81v-3.85c0-1.14,0-1.47-.01-1.73ZM42.75,65.49c.61,0,.9-.37.9-.88,0-.58-.3-.84-1.03-1.13-1.15-.44-1.49-.86-1.49-1.63s.46-1.47,1.6-1.47c1.25,0,1.6.85,1.61,1.59h-.79c-.01-.27-.07-.93-.85-.93-.53,0-.77.33-.77.77s.19.67.97.96c1.08.42,1.56.81,1.56,1.77,0,1.02-.64,1.62-1.75,1.62s-1.72-.69-1.75-1.71h.8c.04.6.35,1.05.99,1.05ZM47.56,62.15c0-.99,0-1.41-.01-1.67h.77c.02.16.03.46.03.71.22-.49.61-.81,1.25-.81.58,0,.99.25,1.16.83.2-.45.62-.83,1.35-.83s1.35.34,1.35,1.62v4.05h-.8v-3.91c0-.56-.16-1.05-.79-1.05-.71,0-.95.63-.95,1.38v3.58h-.8v-3.89c0-.69-.23-1.06-.77-1.06-.67,0-.98.61-.98,1.45v3.5h-.8v-3.91ZM58.33,63.2c0,1.96-.66,2.96-1.92,2.96s-1.92-.96-1.92-2.94.76-2.83,1.95-2.83,1.89.94,1.89,2.82ZM55.32,63.22c0,1.52.38,2.24,1.1,2.24s1.09-.73,1.09-2.24c0-1.43-.35-2.13-1.09-2.13s-1.1.63-1.1,2.14ZM59.37,60.47h.78c.01.14.03.36.03.73.19-.44.57-.83,1.32-.83.81,0,1.43.46,1.43,1.7v3.97h-.81v-3.82c0-.68-.22-1.14-.86-1.14-.75,0-1.07.49-1.07,1.64v3.32h-.81v-3.85c0-1.14,0-1.47-.01-1.73ZM65.61,60.47h.79v-1.49h.8v1.49h.97v.69h-.97v3.66c0,.38.08.62.5.62.13,0,.29,0,.39-.03v.62c-.19.07-.47.09-.66.09-.66,0-1.04-.27-1.04-1.15v-3.82h-.79v-.69ZM68.91,60.47h.77c.01.14.03.4.03,1,.24-.67.78-1.07,1.47-1.08v.89c-.96.03-1.46.63-1.46,1.66v3.12h-.8v-3.68c0-.89,0-1.5-.01-1.9ZM75.06,65.07c0,.35.03.81.04.99h-.74c-.03-.12-.06-.42-.06-.63-.21.45-.63.73-1.32.73-1.07,0-1.46-.84-1.46-1.61,0-1.02.69-1.79,2.15-1.79.26,0,.42,0,.58.02v-.74c0-.44-.08-.99-.84-.99-.82,0-.87.59-.9.96h-.78c.02-.8.4-1.62,1.71-1.62,1.08,0,1.6.53,1.6,1.55v3.13ZM74.29,63.41c-.14-.02-.29-.03-.55-.03-.99,0-1.4.48-1.4,1.1,0,.51.27.99.87.99.82,0,1.08-.58,1.08-1.75v-.3ZM76.55,60.47c.46,1.81,1.01,3.99,1.12,4.67h.01c.07-.62.91-3.53,1.18-4.67h.81l-1.6,5.58h-.87l-1.51-5.58h.85ZM83.52,65.07c0,.35.03.81.04.99h-.74c-.03-.12-.06-.42-.06-.63-.21.45-.63.73-1.32.73-1.07,0-1.46-.84-1.46-1.61,0-1.02.69-1.79,2.15-1.79.26,0,.42,0,.58.02v-.74c0-.44-.08-.99-.84-.99-.82,0-.87.59-.9.96h-.78c.02-.8.4-1.62,1.71-1.62,1.08,0,1.6.53,1.6,1.55v3.13ZM82.75,63.41c-.14-.02-.29-.03-.55-.03-.99,0-1.4.48-1.4,1.1,0,.51.27.99.87.99.82,0,1.08-.58,1.08-1.75v-.3ZM84.85,60.47h.8v5.58h-.8v-5.58ZM84.86,58.22h.8v1.15h-.8v-1.15ZM87.01,66.05v-7.83h.8v7.83h-.8ZM94.73,58.22v6.4c0,.54,0,1.1.01,1.43h-.78c-.01-.14-.03-.51-.03-.75-.17.48-.53.85-1.31.85-1.16,0-1.65-.99-1.65-2.95,0-1.78.66-2.82,1.83-2.82.72,0,1,.31,1.13.58v-2.74h.8ZM91.79,63.21c0,1.61.37,2.22,1.05,2.22.87,0,1.1-.74,1.1-2.25,0-1.63-.23-2.09-1.03-2.09-.66,0-1.11.58-1.11,2.12ZM96.57,63.41c0,1.09.19,2.05,1.07,2.05s.99-.83,1.02-1h.79c-.01.14-.17,1.69-1.81,1.69s-1.87-1.51-1.87-2.89c0-1.77.6-2.88,1.92-2.88,1.47,0,1.81,1.21,1.81,2.6,0,.11,0,.29-.01.43h-2.91ZM98.69,62.78c0-.96-.2-1.71-1.02-1.71-1.02,0-1.07,1.33-1.09,1.71h2.1ZM98.69,62.78h0ZM102.69,58.58h1.95c1.12,0,1.8.67,1.8,1.82,0,1-.48,1.44-.92,1.59.57.2,1.16.72,1.16,1.88,0,1.34-.81,2.19-2.11,2.19h-1.89v-7.47ZM104.36,61.7c.94,0,1.28-.42,1.28-1.22,0-.75-.39-1.21-1.18-1.21h-.96v2.43h.86ZM103.5,65.38h1c.88,0,1.36-.53,1.36-1.51s-.51-1.5-1.51-1.5h-.85v3.01ZM111.03,65.07c0,.35.03.81.04.99h-.74c-.03-.12-.06-.42-.06-.63-.21.45-.63.73-1.32.73-1.07,0-1.46-.84-1.46-1.61,0-1.02.69-1.79,2.15-1.79.26,0,.42,0,.58.02v-.74c0-.44-.08-.99-.84-.99-.82,0-.87.59-.9.96h-.78c.02-.8.4-1.62,1.71-1.62,1.08,0,1.6.53,1.6,1.55v3.13ZM110.26,63.41c-.14-.02-.29-.03-.55-.03-.99,0-1.4.48-1.4,1.1,0,.51.27.99.87.99.82,0,1.08-.58,1.08-1.75v-.3ZM115.71,64.35c-.02.3-.14,1.8-1.77,1.8-1.46,0-1.85-1.29-1.85-2.91s.51-2.87,1.93-2.87c1.62,0,1.7,1.5,1.7,1.76h-.82c-.01-.23-.09-1.07-.88-1.07s-1.1.88-1.1,2.17c0,1.39.3,2.22,1.06,2.22.81,0,.9-.81.94-1.11h.8ZM117.48,58.22v2.93c.19-.45.63-.78,1.34-.78.82,0,1.41.51,1.41,1.71v3.97h-.81v-3.8c0-.68-.2-1.16-.88-1.16-.77,0-1.05.63-1.05,1.6v3.35h-.81v-7.83h.81ZM122.07,63.41c0,1.09.19,2.05,1.07,2.05s.99-.83,1.02-1h.79c-.01.14-.17,1.69-1.81,1.69s-1.87-1.51-1.87-2.89c0-1.77.6-2.88,1.92-2.88,1.47,0,1.81,1.21,1.81,2.6,0,.11,0,.29-.01.43h-2.91ZM124.19,62.78c0-.96-.2-1.71-1.02-1.71-1.02,0-1.07,1.33-1.09,1.71h2.1ZM124.19,62.78h0ZM126.01,66.05v-7.83h.8v7.83h-.8ZM131.71,63.2c0,1.96-.66,2.96-1.92,2.96s-1.92-.96-1.92-2.94.76-2.83,1.95-2.83,1.89.94,1.89,2.82ZM128.7,63.22c0,1.52.38,2.24,1.1,2.24s1.09-.73,1.09-2.24c0-1.43-.35-2.13-1.09-2.13s-1.1.63-1.1,2.14ZM132.75,60.47h.77c.01.14.03.4.03,1,.24-.67.78-1.07,1.47-1.08v.89c-.96.03-1.46.63-1.46,1.66v3.12h-.8v-3.68c0-.89,0-1.5-.01-1.9ZM134.72,67.3c.34-.87.56-1.86.6-2.65h.78c-.07,1.02-.39,2.07-.72,2.65h-.66ZM139.91,60.47v5.93c0,1.02-.13,1.78-1.21,1.78-.1,0-.22,0-.35-.03v-.71c.1.01.19.01.25.01.43,0,.5-.27.5-.88v-6.11h.8ZM139.12,59.37v-1.15h.8v1.15h-.8ZM141.78,63.41c0,1.09.19,2.05,1.07,2.05s.99-.83,1.02-1h.79c-.01.14-.17,1.69-1.81,1.69s-1.87-1.51-1.87-2.89c0-1.77.6-2.88,1.92-2.88,1.47,0,1.81,1.21,1.81,2.6,0,.11,0,.29-.01.43h-2.91ZM143.9,62.78c0-.96-.2-1.71-1.02-1.71-1.02,0-1.07,1.33-1.09,1.71h2.1ZM143.9,62.78h0ZM148.63,65.48v2.62h-.8v-6c0-.76,0-1.28-.01-1.63h.78c.01.1.03.47.03.75.2-.48.59-.84,1.33-.84,1.06,0,1.63.94,1.63,2.8,0,2.01-.7,2.97-1.79,2.97-.67,0-1-.32-1.16-.67ZM150.76,63.22c0-1.4-.32-2.13-1.06-2.13-.86,0-1.1.82-1.1,2.14s.13,2.21,1.05,2.21c.73,0,1.1-.85,1.1-2.22ZM153.19,63.41c0,1.09.19,2.05,1.07,2.05s.99-.83,1.02-1h.79c-.01.14-.17,1.69-1.81,1.69s-1.87-1.51-1.87-2.89c0-1.77.6-2.88,1.92-2.88,1.47,0,1.81,1.21,1.81,2.6,0,.11,0,.29-.01.43h-2.91ZM155.31,62.78c0-.96-.2-1.71-1.02-1.71-1.02,0-1.07,1.33-1.09,1.71h2.1ZM155.31,62.78h0ZM160.64,64.53c0,.7,0,1.26.01,1.53h-.77c-.03-.16-.04-.38-.04-.74-.2.55-.67.84-1.33.84s-1.39-.27-1.39-1.67v-4.01h.81v3.82c0,.71.2,1.15.84,1.15s1.06-.38,1.06-1.58v-3.39h.81v4.05ZM162.21,60.47c.58,1.21.88,1.76,1.02,2.07h.01c.18-.38.56-1.11,1.05-2.07h.86l-1.47,2.66,1.48,2.92h-.9c-.55-1.15-.89-1.83-1.05-2.17h-.01c-.14.3-.55,1.13-1.07,2.17h-.86l1.47-2.8-1.43-2.78h.89Z"/>
    <path class="cls-1" d="M29.84,78.27c0,.35.03.81.04.99h-.74c-.03-.12-.06-.42-.06-.63-.21.45-.63.73-1.32.73-1.07,0-1.46-.84-1.46-1.61,0-1.02.69-1.79,2.15-1.79.26,0,.42,0,.58.02v-.74c0-.44-.08-.99-.84-.99-.82,0-.87.59-.9.96h-.78c.02-.8.4-1.62,1.71-1.62,1.08,0,1.6.53,1.6,1.55v3.13ZM29.07,76.61c-.14-.02-.29-.03-.55-.03-.99,0-1.4.48-1.4,1.1,0,.51.27.99.87.99.82,0,1.08-.58,1.08-1.75v-.3ZM31.99,73.67v5.93c0,1.02-.13,1.78-1.21,1.78-.1,0-.22,0-.35-.03v-.71c.1.01.19.01.25.01.43,0,.5-.27.5-.88v-6.11h.8ZM31.2,72.57v-1.15h.8v1.15h-.8ZM36.89,76.4c0,1.96-.66,2.96-1.92,2.96s-1.92-.96-1.92-2.94.76-2.83,1.95-2.83,1.89.94,1.89,2.82ZM33.88,76.42c0,1.52.38,2.24,1.1,2.24s1.09-.73,1.09-2.24c0-1.43-.35-2.13-1.09-2.13s-1.1.63-1.1,2.14ZM41.45,77.73c0,.7,0,1.26.01,1.53h-.77c-.03-.16-.04-.38-.04-.74-.2.55-.67.84-1.33.84s-1.39-.27-1.39-1.67v-4.01h.81v3.82c0,.71.2,1.15.84,1.15s1.06-.38,1.06-1.58v-3.39h.81v4.05ZM42.19,73.67h.79v-1.49h.8v1.49h.97v.69h-.97v3.66c0,.38.08.62.5.62.13,0,.29,0,.39-.03v.62c-.19.07-.47.09-.66.09-.66,0-1.04-.27-1.04-1.15v-3.82h-.79v-.69ZM45.99,76.61c0,1.09.19,2.05,1.07,2.05s.99-.83,1.02-1h.79c-.01.14-.17,1.69-1.81,1.69s-1.87-1.51-1.87-2.89c0-1.77.6-2.88,1.92-2.88,1.47,0,1.81,1.21,1.81,2.6,0,.11,0,.29-.01.43h-2.91ZM48.1,75.98c0-.96-.2-1.71-1.02-1.71-1.02,0-1.07,1.33-1.09,1.71h2.1ZM48.1,75.98h0ZM49.92,73.67h.77c.01.14.03.4.03,1,.24-.67.78-1.07,1.47-1.08v.89c-.96.03-1.46.63-1.46,1.66v3.12h-.8v-3.68c0-.89,0-1.5-.01-1.9ZM58.57,77.73c0,.7,0,1.26.01,1.53h-.77c-.03-.16-.04-.38-.04-.74-.2.55-.67.84-1.33.84s-1.39-.27-1.39-1.67v-4.01h.81v3.82c0,.71.2,1.15.84,1.15s1.06-.38,1.06-1.58v-3.39h.81v4.05ZM59.82,73.67h.78c.01.14.03.36.03.73.19-.44.57-.83,1.32-.83.81,0,1.43.46,1.43,1.7v3.97h-.81v-3.82c0-.68-.22-1.14-.86-1.14-.75,0-1.07.49-1.07,1.64v3.32h-.81v-3.85c0-1.14,0-1.47-.01-1.73ZM65.24,76.61c0,1.09.19,2.05,1.07,2.05s.99-.83,1.02-1h.79c-.01.14-.17,1.69-1.81,1.69s-1.87-1.51-1.87-2.89c0-1.77.6-2.88,1.92-2.88,1.47,0,1.81,1.21,1.81,2.6,0,.11,0,.29-.01.43h-2.91ZM67.35,75.98c0-.96-.2-1.71-1.02-1.71-1.02,0-1.07,1.33-1.09,1.71h2.1ZM67.35,75.98h0ZM71.28,73.67h.8v5.58h-.8v-5.58ZM71.28,71.42h.8v1.15h-.8v-1.15ZM73.42,75.35c0-.99,0-1.41-.01-1.67h.77c.02.16.03.46.03.71.22-.49.61-.81,1.25-.81.58,0,.99.25,1.16.83.2-.45.62-.83,1.35-.83s1.35.34,1.35,1.62v4.05h-.8v-3.91c0-.56-.16-1.05-.79-1.05-.71,0-.95.63-.95,1.38v3.58h-.8v-3.89c0-.69-.23-1.06-.77-1.06-.67,0-.98.61-.98,1.45v3.5h-.8v-3.91ZM83.78,78.27c0,.35.03.81.04.99h-.74c-.03-.12-.06-.42-.06-.63-.21.45-.63.73-1.32.73-1.07,0-1.46-.84-1.46-1.61,0-1.02.69-1.79,2.15-1.79.26,0,.42,0,.58.02v-.74c0-.44-.08-.99-.84-.99-.82,0-.87.59-.9.96h-.78c.02-.8.4-1.62,1.71-1.62,1.08,0,1.6.53,1.6,1.55v3.13ZM83.01,76.61c-.14-.02-.29-.03-.55-.03-.99,0-1.4.48-1.4,1.1,0,.51.27.99.87.99.82,0,1.08-.58,1.08-1.75v-.3ZM88.61,78.9c0,1.47-.35,2.49-1.95,2.49-1.44,0-1.75-.94-1.78-1.54h.82c.02.31.2.85.99.85.94,0,1.13-.68,1.13-1.81v-.51c-.2.57-.67.85-1.3.85-1.13,0-1.68-.95-1.68-2.71,0-2.01.74-2.95,1.8-2.95.76,0,1.08.37,1.18.73,0-.25.03-.52.04-.64h.77c-.01.29-.01.86-.01,1.61v3.61ZM85.67,76.51c0,1.35.37,2.01,1.06,2.01.86,0,1.1-.85,1.1-2.15s-.18-2.08-1.03-2.08c-.74,0-1.13.77-1.13,2.22ZM90.48,76.61c0,1.09.19,2.05,1.07,2.05s.99-.83,1.02-1h.79c-.01.14-.17,1.69-1.81,1.69s-1.87-1.51-1.87-2.89c0-1.77.6-2.88,1.92-2.88,1.47,0,1.81,1.21,1.81,2.6,0,.11,0,.29-.01.43h-2.91ZM92.6,75.98c0-.96-.2-1.71-1.02-1.71-1.02,0-1.07,1.33-1.09,1.71h2.1ZM92.6,75.98h0ZM94.24,77.75h.82v1.51h-.82v-1.51ZM95.86,77.75h.82v1.51h-.82v-1.51ZM97.49,77.75h.82v1.51h-.82v-1.51Z"/>
    <path class="cls-1" d="M29.84,94.31c0,.35.03.81.04.99h-.74c-.03-.12-.06-.42-.06-.63-.21.45-.63.73-1.32.73-1.07,0-1.46-.84-1.46-1.61,0-1.02.69-1.79,2.15-1.79.26,0,.42,0,.58.02v-.74c0-.44-.08-.99-.84-.99-.82,0-.87.59-.9.96h-.78c.02-.8.4-1.62,1.71-1.62,1.08,0,1.6.53,1.6,1.55v3.13ZM29.07,92.65c-.14-.02-.29-.03-.55-.03-.99,0-1.4.48-1.4,1.1,0,.51.27.99.87.99.82,0,1.08-.58,1.08-1.75v-.3ZM30.92,93.78h.82v1.51h-.82v-1.51Z"/>
    <path class="cls-1" d="M39.79,91.49c0,1.54-.22,2.64-.75,3.28l1.3.96-.49.59-1.44-1.07c-.24.11-.52.16-.84.16-1.54,0-2.18-1.32-2.18-3.9s.75-3.79,2.21-3.79c1.55,0,2.19,1.25,2.19,3.78ZM37.59,94.69c.96,0,1.35-1.04,1.35-3.19s-.43-3.07-1.36-3.07-1.35,1.02-1.35,3.06.43,3.2,1.36,3.2ZM44.38,93.76c0,.7,0,1.26.01,1.53h-.77c-.03-.16-.04-.38-.04-.74-.2.55-.67.84-1.33.84s-1.39-.27-1.39-1.67v-4.01h.81v3.82c0,.71.2,1.15.84,1.15s1.06-.38,1.06-1.58v-3.39h.81v4.05ZM48.93,94.31c0,.35.03.81.04.99h-.74c-.03-.12-.06-.42-.06-.63-.21.45-.63.73-1.32.73-1.07,0-1.46-.84-1.46-1.61,0-1.02.69-1.79,2.15-1.79.26,0,.42,0,.58.02v-.74c0-.44-.08-.99-.84-.99-.82,0-.87.59-.9.96h-.78c.02-.8.4-1.62,1.71-1.62,1.08,0,1.6.53,1.6,1.55v3.13ZM48.16,92.65c-.14-.02-.29-.03-.55-.03-.99,0-1.4.48-1.4,1.1,0,.51.27.99.87.99.82,0,1.08-.58,1.08-1.75v-.3ZM50.26,89.71h.78c.01.14.03.36.03.73.19-.44.57-.83,1.32-.83.81,0,1.43.46,1.43,1.7v3.97h-.81v-3.82c0-.68-.22-1.14-.86-1.14-.75,0-1.07.49-1.07,1.64v3.32h-.81v-3.85c0-1.14,0-1.47-.01-1.73ZM58.63,87.46v6.4c0,.54,0,1.1.01,1.43h-.78c-.01-.14-.03-.51-.03-.75-.17.48-.53.85-1.31.85-1.16,0-1.65-.99-1.65-2.95,0-1.78.66-2.82,1.83-2.82.72,0,1,.31,1.13.58v-2.74h.8ZM55.69,92.45c0,1.61.37,2.22,1.05,2.22.87,0,1.1-.74,1.1-2.25,0-1.63-.23-2.09-1.03-2.09-.66,0-1.11.58-1.11,2.12ZM62.04,95.29v-7.83h.8v7.83h-.8ZM63.75,89.97c.2-.76.38-1.68.38-2.54h.78c-.01.94-.3,2.07-.51,2.54h-.65ZM65.91,89.71h.8v5.58h-.8v-5.58ZM65.91,87.46h.8v1.15h-.8v-1.15ZM68.05,91.39c0-.99,0-1.41-.01-1.67h.77c.02.16.03.46.03.71.22-.49.61-.81,1.25-.81.58,0,.99.25,1.16.83.2-.45.62-.83,1.35-.83s1.35.34,1.35,1.62v4.05h-.8v-3.91c0-.56-.16-1.05-.79-1.05-.71,0-.95.63-.95,1.38v3.58h-.8v-3.89c0-.69-.23-1.06-.77-1.06-.67,0-.98.61-.98,1.45v3.5h-.8v-3.91ZM78.41,94.31c0,.35.03.81.04.99h-.74c-.03-.12-.06-.42-.06-.63-.21.45-.63.73-1.32.73-1.07,0-1.46-.84-1.46-1.61,0-1.02.69-1.79,2.15-1.79.26,0,.42,0,.58.02v-.74c0-.44-.08-.99-.84-.99-.82,0-.87.59-.9.96h-.78c.02-.8.4-1.62,1.71-1.62,1.08,0,1.6.53,1.6,1.55v3.13ZM77.64,92.65c-.14-.02-.29-.03-.55-.03-.99,0-1.4.48-1.4,1.1,0,.51.27.99.87.99.82,0,1.08-.58,1.08-1.75v-.3ZM83.24,94.93c0,1.47-.35,2.49-1.95,2.49-1.44,0-1.75-.94-1.78-1.54h.82c.02.31.2.85.99.85.94,0,1.13-.68,1.13-1.81v-.51c-.2.57-.67.85-1.3.85-1.13,0-1.68-.95-1.68-2.71,0-2.01.74-2.95,1.8-2.95.76,0,1.08.37,1.18.73,0-.25.03-.52.04-.64h.77c-.01.29-.01.86-.01,1.61v3.61ZM80.3,92.55c0,1.35.37,2.01,1.06,2.01.86,0,1.1-.85,1.1-2.15s-.18-2.08-1.03-2.08c-.74,0-1.13.77-1.13,2.22ZM85.11,92.65c0,1.09.19,2.05,1.07,2.05s.99-.83,1.02-1h.79c-.01.14-.17,1.69-1.81,1.69s-1.87-1.51-1.87-2.89c0-1.77.6-2.88,1.92-2.88,1.47,0,1.81,1.21,1.81,2.6,0,.11,0,.29-.01.43h-2.91ZM87.23,92.02c0-.96-.2-1.71-1.02-1.71-1.02,0-1.07,1.33-1.09,1.71h2.1ZM87.23,92.02h0ZM91.69,92.65c0,1.09.19,2.05,1.07,2.05s.99-.83,1.02-1h.79c-.01.14-.17,1.69-1.81,1.69s-1.87-1.51-1.87-2.89c0-1.77.6-2.88,1.92-2.88,1.47,0,1.81,1.21,1.81,2.6,0,.11,0,.29-.01.43h-2.91ZM93.81,92.02c0-.96-.2-1.71-1.02-1.71-1.02,0-1.07,1.33-1.09,1.71h2.1ZM93.81,92.02h0ZM97.08,94.73c.61,0,.9-.37.9-.88,0-.58-.3-.84-1.03-1.13-1.15-.44-1.49-.86-1.49-1.63s.46-1.47,1.6-1.47c1.25,0,1.6.85,1.61,1.59h-.79c-.01-.27-.07-.93-.85-.93-.53,0-.77.33-.77.77s.19.67.97.96c1.08.42,1.56.81,1.56,1.77,0,1.02-.64,1.62-1.75,1.62s-1.72-.69-1.75-1.71h.8c.04.6.35,1.05.99,1.05ZM99.18,89.71h.79v-1.49h.8v1.49h.97v.69h-.97v3.66c0,.38.08.62.5.62.13,0,.29,0,.39-.03v.62c-.19.07-.47.09-.66.09-.66,0-1.04-.27-1.04-1.15v-3.82h-.79v-.69ZM104.6,95.29v-7.83h.8v7.83h-.8ZM106.73,89.71h.8v5.58h-.8v-5.58ZM106.73,87.46h.8v1.15h-.8v-1.15ZM108.89,87.46h.8v2.99c.18-.43.57-.83,1.33-.83,1.07,0,1.63.89,1.63,2.74,0,1.72-.46,3.02-1.78,3.02-.71,0-1.03-.36-1.2-.75,0,.18-.01.44-.03.66h-.76c.01-.3.01-.85.01-1.53v-6.3ZM111.84,92.38c0-1.4-.33-2.04-1.03-2.04-.86,0-1.14.77-1.14,2.18,0,1.34.22,2.16,1.06,2.16.74,0,1.1-.72,1.1-2.3ZM113.67,89.71h.77c.01.14.03.4.03,1,.24-.67.78-1.07,1.47-1.08v.89c-.96.03-1.46.63-1.46,1.66v3.12h-.8v-3.68c0-.89,0-1.5-.01-1.9ZM117.19,92.65c0,1.09.19,2.05,1.07,2.05s.99-.83,1.02-1h.79c-.01.14-.17,1.69-1.81,1.69s-1.87-1.51-1.87-2.89c0-1.77.6-2.88,1.92-2.88,1.47,0,1.81,1.21,1.81,2.6,0,.11,0,.29-.01.43h-2.91ZM119.3,92.02c0-.96-.2-1.71-1.02-1.71-1.02,0-1.07,1.33-1.09,1.71h2.1ZM119.3,92.02h0ZM126.71,87.46v6.4c0,.54,0,1.1.01,1.43h-.78c-.01-.14-.03-.51-.03-.75-.17.48-.53.85-1.31.85-1.16,0-1.65-.99-1.65-2.95,0-1.78.66-2.82,1.83-2.82.72,0,1,.31,1.13.58v-2.74h.8ZM123.78,92.45c0,1.61.37,2.22,1.05,2.22.87,0,1.1-.74,1.1-2.25,0-1.63-.23-2.09-1.03-2.09-.66,0-1.11.58-1.11,2.12ZM128.56,92.65c0,1.09.19,2.05,1.07,2.05s.99-.83,1.02-1h.79c-.01.14-.17,1.69-1.81,1.69s-1.87-1.51-1.87-2.89c0-1.77.6-2.88,1.92-2.88,1.47,0,1.81,1.21,1.81,2.6,0,.11,0,.29-.01.43h-2.91ZM130.68,92.02c0-.96-.2-1.71-1.02-1.71-1.02,0-1.07,1.33-1.09,1.71h2.1ZM130.68,92.02h0ZM138.09,87.46v6.4c0,.54,0,1.1.01,1.43h-.78c-.01-.14-.03-.51-.03-.75-.17.48-.53.85-1.31.85-1.16,0-1.65-.99-1.65-2.95,0-1.78.66-2.82,1.83-2.82.72,0,1,.31,1.13.58v-2.74h.8ZM135.15,92.45c0,1.61.37,2.22,1.05,2.22.87,0,1.1-.74,1.1-2.25,0-1.63-.23-2.09-1.03-2.09-.66,0-1.11.58-1.11,2.12ZM139.39,89.71h.77c.01.14.03.4.03,1,.24-.67.78-1.07,1.47-1.08v.89c-.96.03-1.46.63-1.46,1.66v3.12h-.8v-3.68c0-.89,0-1.5-.01-1.9ZM145.93,92.44c0,1.96-.66,2.96-1.92,2.96s-1.92-.96-1.92-2.94.76-2.83,1.95-2.83,1.89.94,1.89,2.82ZM142.92,92.46c0,1.52.38,2.24,1.1,2.24s1.09-.73,1.09-2.24c0-1.43-.35-2.13-1.09-2.13s-1.1.63-1.1,2.14ZM146.98,89.71h.8v5.58h-.8v-5.58ZM146.98,87.46h.8v1.15h-.8v-1.15ZM148.53,89.71h.79v-1.49h.8v1.49h.97v.69h-.97v3.66c0,.38.08.62.5.62.13,0,.29,0,.39-.03v.62c-.19.07-.47.09-.66.09-.66,0-1.04-.27-1.04-1.15v-3.82h-.79v-.69ZM153.37,94.73c.61,0,.9-.37.9-.88,0-.58-.3-.84-1.03-1.13-1.15-.44-1.49-.86-1.49-1.63s.46-1.47,1.6-1.47c1.25,0,1.6.85,1.61,1.59h-.79c-.01-.27-.07-.93-.85-.93-.53,0-.77.33-.77.77s.19.67.97.96c1.08.42,1.56.81,1.56,1.77,0,1.02-.64,1.62-1.75,1.62s-1.72-.69-1.75-1.71h.8c.04.6.35,1.05.99,1.05Z"/>
    <path class="cls-1" d="M26.6,103.5h.8v2.99c.18-.43.57-.83,1.33-.83,1.07,0,1.63.89,1.63,2.74,0,1.72-.46,3.02-1.78,3.02-.71,0-1.03-.36-1.2-.75,0,.18-.01.44-.03.66h-.76c.01-.3.01-.85.01-1.53v-6.3ZM29.55,108.41c0-1.4-.33-2.04-1.03-2.04-.86,0-1.14.77-1.14,2.18,0,1.34.22,2.16,1.06,2.16.74,0,1.1-.72,1.1-2.3ZM31.12,109.82h.82v1.51h-.82v-1.51Z"/>
    <path class="cls-1" d="M39.79,107.53c0,1.54-.22,2.64-.75,3.28l1.3.96-.49.59-1.44-1.07c-.24.11-.52.16-.84.16-1.54,0-2.18-1.32-2.18-3.9s.75-3.79,2.21-3.79c1.55,0,2.19,1.25,2.19,3.78ZM37.59,110.73c.96,0,1.35-1.04,1.35-3.19s-.43-3.07-1.36-3.07-1.35,1.02-1.35,3.06.43,3.2,1.36,3.2ZM44.38,109.8c0,.7,0,1.26.01,1.53h-.77c-.03-.16-.04-.38-.04-.74-.2.55-.67.84-1.33.84s-1.39-.27-1.39-1.67v-4.01h.81v3.82c0,.71.2,1.15.84,1.15s1.06-.38,1.06-1.58v-3.39h.81v4.05ZM48.93,110.34c0,.35.03.81.04.99h-.74c-.03-.12-.06-.42-.06-.63-.21.45-.63.73-1.32.73-1.07,0-1.46-.84-1.46-1.61,0-1.02.69-1.79,2.15-1.79.26,0,.42,0,.58.02v-.74c0-.44-.08-.99-.84-.99-.82,0-.87.59-.9.96h-.78c.02-.8.4-1.62,1.71-1.62,1.08,0,1.6.53,1.6,1.55v3.13ZM48.16,108.69c-.14-.02-.29-.03-.55-.03-.99,0-1.4.48-1.4,1.1,0,.51.27.99.87.99.82,0,1.08-.58,1.08-1.75v-.3ZM50.26,105.75h.78c.01.14.03.36.03.73.19-.44.57-.83,1.32-.83.81,0,1.43.46,1.43,1.7v3.97h-.81v-3.82c0-.68-.22-1.14-.86-1.14-.75,0-1.07.49-1.07,1.64v3.32h-.81v-3.85c0-1.14,0-1.47-.01-1.73ZM58.63,103.5v6.4c0,.54,0,1.1.01,1.43h-.78c-.01-.14-.03-.51-.03-.75-.17.48-.53.85-1.31.85-1.16,0-1.65-.99-1.65-2.95,0-1.78.66-2.82,1.83-2.82.72,0,1,.31,1.13.58v-2.74h.8ZM55.69,108.49c0,1.61.37,2.22,1.05,2.22.87,0,1.1-.74,1.1-2.25,0-1.63-.23-2.09-1.03-2.09-.66,0-1.11.58-1.11,2.12ZM62.04,111.33v-7.83h.8v7.83h-.8ZM63.75,106.01c.2-.76.38-1.68.38-2.54h.78c-.01.94-.3,2.07-.51,2.54h-.65ZM65.91,105.75h.8v5.58h-.8v-5.58ZM65.91,103.5h.8v1.15h-.8v-1.15ZM68.05,107.42c0-.99,0-1.41-.01-1.67h.77c.02.16.03.46.03.71.22-.49.61-.81,1.25-.81.58,0,.99.25,1.16.83.2-.45.62-.83,1.35-.83s1.35.34,1.35,1.62v4.05h-.8v-3.91c0-.56-.16-1.05-.79-1.05-.71,0-.95.63-.95,1.38v3.58h-.8v-3.89c0-.69-.23-1.06-.77-1.06-.67,0-.98.61-.98,1.45v3.5h-.8v-3.91ZM78.41,110.34c0,.35.03.81.04.99h-.74c-.03-.12-.06-.42-.06-.63-.21.45-.63.73-1.32.73-1.07,0-1.46-.84-1.46-1.61,0-1.02.69-1.79,2.15-1.79.26,0,.42,0,.58.02v-.74c0-.44-.08-.99-.84-.99-.82,0-.87.59-.9.96h-.78c.02-.8.4-1.62,1.71-1.62,1.08,0,1.6.53,1.6,1.55v3.13ZM77.64,108.69c-.14-.02-.29-.03-.55-.03-.99,0-1.4.48-1.4,1.1,0,.51.27.99.87.99.82,0,1.08-.58,1.08-1.75v-.3ZM83.24,110.97c0,1.47-.35,2.49-1.95,2.49-1.44,0-1.75-.94-1.78-1.54h.82c.02.31.2.85.99.85.94,0,1.13-.68,1.13-1.81v-.51c-.2.57-.67.85-1.3.85-1.13,0-1.68-.95-1.68-2.71,0-2.01.74-2.95,1.8-2.95.76,0,1.08.37,1.18.73,0-.25.03-.52.04-.64h.77c-.01.29-.01.86-.01,1.61v3.61ZM80.3,108.59c0,1.35.37,2.01,1.06,2.01.86,0,1.1-.85,1.1-2.15s-.18-2.08-1.03-2.08c-.74,0-1.13.77-1.13,2.22ZM85.11,108.69c0,1.09.19,2.05,1.07,2.05s.99-.83,1.02-1h.79c-.01.14-.17,1.69-1.81,1.69s-1.87-1.51-1.87-2.89c0-1.77.6-2.88,1.92-2.88,1.47,0,1.81,1.21,1.81,2.6,0,.11,0,.29-.01.43h-2.91ZM87.23,108.06c0-.96-.2-1.71-1.02-1.71-1.02,0-1.07,1.33-1.09,1.71h2.1ZM87.23,108.06h0ZM94.39,110.34c0,.35.03.81.04.99h-.74c-.03-.12-.06-.42-.06-.63-.21.45-.63.73-1.32.73-1.07,0-1.46-.84-1.46-1.61,0-1.02.69-1.79,2.15-1.79.26,0,.42,0,.58.02v-.74c0-.44-.08-.99-.84-.99-.82,0-.87.59-.9.96h-.78c.02-.8.4-1.62,1.71-1.62,1.08,0,1.6.53,1.6,1.55v3.13ZM93.62,108.69c-.14-.02-.29-.03-.55-.03-.99,0-1.4.48-1.4,1.1,0,.51.27.99.87.99.82,0,1.08-.58,1.08-1.75v-.3ZM101.34,109.8c0,.7,0,1.26.01,1.53h-.77c-.03-.16-.04-.38-.04-.74-.2.55-.67.84-1.33.84s-1.39-.27-1.39-1.67v-4.01h.81v3.82c0,.71.2,1.15.84,1.15s1.06-.38,1.06-1.58v-3.39h.81v4.05ZM102.58,105.75h.78c.01.14.03.36.03.73.19-.44.57-.83,1.32-.83.81,0,1.43.46,1.43,1.7v3.97h-.81v-3.82c0-.68-.22-1.14-.86-1.14-.75,0-1.07.49-1.07,1.64v3.32h-.81v-3.85c0-1.14,0-1.47-.01-1.73ZM108,108.69c0,1.09.19,2.05,1.07,2.05s.99-.83,1.02-1h.79c-.01.14-.17,1.69-1.81,1.69s-1.87-1.51-1.87-2.89c0-1.77.6-2.88,1.92-2.88,1.47,0,1.81,1.21,1.81,2.6,0,.11,0,.29-.01.43h-2.91ZM110.12,108.06c0-.96-.2-1.71-1.02-1.71-1.02,0-1.07,1.33-1.09,1.71h2.1ZM110.12,108.06h0ZM114.14,111.33v-4.89h-.73v-.69h.73v-.77c0-.82.3-1.55,1.31-1.55.15,0,.35.03.45.06v.71c-.1-.02-.23-.05-.37-.05-.44,0-.59.28-.59.84v.75h.88v.69h-.88v4.89h-.8ZM119.99,108.47c0,1.96-.66,2.96-1.92,2.96s-1.92-.96-1.92-2.94.76-2.83,1.95-2.83,1.89.94,1.89,2.82ZM116.97,108.5c0,1.52.38,2.24,1.1,2.24s1.09-.73,1.09-2.24c0-1.43-.35-2.13-1.09-2.13s-1.1.63-1.1,2.14ZM121.02,105.75h.78c.01.14.03.36.03.73.19-.44.57-.83,1.32-.83.81,0,1.43.46,1.43,1.7v3.97h-.81v-3.82c0-.68-.22-1.14-.86-1.14-.75,0-1.07.49-1.07,1.64v3.32h-.81v-3.85c0-1.14,0-1.47-.01-1.73ZM129.25,109.63c-.02.3-.14,1.8-1.77,1.8-1.46,0-1.85-1.29-1.85-2.91s.51-2.87,1.93-2.87c1.62,0,1.7,1.5,1.7,1.76h-.82c-.01-.23-.09-1.07-.88-1.07s-1.1.88-1.1,2.17c0,1.39.3,2.22,1.06,2.22.81,0,.9-.81.94-1.11h.8ZM129.75,105.75h.79v-1.49h.8v1.49h.97v.69h-.97v3.66c0,.38.08.62.5.62.13,0,.29,0,.39-.03v.62c-.19.07-.47.09-.66.09-.66,0-1.04-.27-1.04-1.15v-3.82h-.79v-.69ZM133.1,105.75h.8v5.58h-.8v-5.58ZM133.1,103.5h.8v1.15h-.8v-1.15ZM138.8,108.47c0,1.96-.66,2.96-1.92,2.96s-1.92-.96-1.92-2.94.76-2.83,1.95-2.83,1.89.94,1.89,2.82ZM135.78,108.5c0,1.52.38,2.24,1.1,2.24s1.09-.73,1.09-2.24c0-1.43-.35-2.13-1.09-2.13s-1.1.63-1.1,2.14ZM139.83,105.75h.78c.01.14.03.36.03.73.19-.44.57-.83,1.32-.83.81,0,1.43.46,1.43,1.7v3.97h-.81v-3.82c0-.68-.22-1.14-.86-1.14-.75,0-1.07.49-1.07,1.64v3.32h-.81v-3.85c0-1.14,0-1.47-.01-1.73ZM150.24,103.5v6.4c0,.54,0,1.1.01,1.43h-.78c-.01-.14-.03-.51-.03-.75-.17.48-.53.85-1.31.85-1.16,0-1.65-.99-1.65-2.95,0-1.78.66-2.82,1.83-2.82.72,0,1,.31,1.13.58v-2.74h.8ZM147.31,108.49c0,1.61.37,2.22,1.05,2.22.87,0,1.1-.74,1.1-2.25,0-1.63-.23-2.09-1.03-2.09-.66,0-1.11.58-1.11,2.12ZM152.09,108.69c0,1.09.19,2.05,1.07,2.05s.99-.83,1.02-1h.79c-.01.14-.17,1.69-1.81,1.69s-1.87-1.51-1.87-2.89c0-1.77.6-2.88,1.92-2.88,1.47,0,1.81,1.21,1.81,2.6,0,.11,0,.29-.01.43h-2.91ZM154.21,108.06c0-.96-.2-1.71-1.02-1.71-1.02,0-1.07,1.33-1.09,1.71h2.1ZM154.21,108.06h0Z"/>
    <path class="cls-1" d="M38.95,122.83c-.02.3-.14,1.8-1.77,1.8-1.46,0-1.85-1.29-1.85-2.91s.51-2.87,1.93-2.87c1.62,0,1.7,1.5,1.7,1.76h-.82c-.01-.23-.09-1.07-.88-1.07s-1.1.88-1.1,2.17c0,1.39.3,2.22,1.06,2.22.81,0,.9-.81.94-1.11h.8ZM43.53,121.67c0,1.96-.66,2.96-1.92,2.96s-1.92-.96-1.92-2.94.76-2.83,1.95-2.83,1.89.94,1.89,2.82ZM40.51,121.7c0,1.52.38,2.24,1.1,2.24s1.09-.73,1.09-2.24c0-1.43-.35-2.13-1.09-2.13s-1.1.63-1.1,2.14ZM44.58,120.62c0-.99,0-1.41-.01-1.67h.77c.02.16.03.46.03.71.22-.49.61-.81,1.25-.81.58,0,.99.25,1.16.83.2-.45.62-.83,1.35-.83s1.35.34,1.35,1.62v4.05h-.8v-3.91c0-.56-.16-1.05-.79-1.05-.71,0-.95.63-.95,1.38v3.58h-.8v-3.89c0-.69-.23-1.06-.77-1.06-.67,0-.98.61-.98,1.45v3.5h-.8v-3.91ZM51.79,120.62c0-.99,0-1.41-.01-1.67h.77c.02.16.03.46.03.71.22-.49.61-.81,1.25-.81.58,0,.99.25,1.16.83.2-.45.62-.83,1.35-.83s1.35.34,1.35,1.62v4.05h-.8v-3.91c0-.56-.16-1.05-.79-1.05-.71,0-.95.63-.95,1.38v3.58h-.8v-3.89c0-.69-.23-1.06-.77-1.06-.67,0-.98.61-.98,1.45v3.5h-.8v-3.91ZM59.54,121.89c0,1.09.19,2.05,1.07,2.05s.99-.83,1.02-1h.79c-.01.14-.17,1.69-1.81,1.69s-1.87-1.51-1.87-2.89c0-1.77.6-2.88,1.92-2.88,1.47,0,1.81,1.21,1.81,2.6,0,.11,0,.29-.01.43h-2.91ZM61.65,121.26c0-.96-.2-1.71-1.02-1.71-1.02,0-1.07,1.33-1.09,1.71h2.1ZM61.65,121.26h0ZM63.47,118.95h.78c.01.14.03.36.03.73.19-.44.57-.83,1.32-.83.81,0,1.43.46,1.43,1.7v3.97h-.81v-3.82c0-.68-.22-1.14-.86-1.14-.75,0-1.07.49-1.07,1.64v3.32h-.81v-3.85c0-1.14,0-1.47-.01-1.73ZM67.66,118.95h.79v-1.49h.8v1.49h.97v.69h-.97v3.66c0,.38.08.62.5.62.13,0,.29,0,.39-.03v.62c-.19.07-.47.09-.66.09-.66,0-1.04-.27-1.04-1.15v-3.82h-.79v-.69ZM74.25,123.54c0,.35.03.81.04.99h-.74c-.03-.12-.06-.42-.06-.63-.21.45-.63.73-1.32.73-1.07,0-1.46-.84-1.46-1.61,0-1.02.69-1.79,2.15-1.79.26,0,.42,0,.58.02v-.74c0-.44-.08-.99-.84-.99-.82,0-.87.59-.9.96h-.78c.02-.8.4-1.62,1.71-1.62,1.08,0,1.6.53,1.6,1.55v3.13ZM73.47,121.89c-.14-.02-.29-.03-.55-.03-.99,0-1.4.48-1.4,1.1,0,.51.27.99.87.99.82,0,1.08-.58,1.08-1.75v-.3ZM75.58,118.95h.8v5.58h-.8v-5.58ZM75.59,116.7h.8v1.15h-.8v-1.15ZM77.7,118.95h.77c.01.14.03.4.03,1,.24-.67.78-1.07,1.47-1.08v.89c-.96.03-1.46.63-1.46,1.66v3.12h-.8v-3.68c0-.89,0-1.5-.01-1.9ZM81.22,121.89c0,1.09.19,2.05,1.07,2.05s.99-.83,1.02-1h.79c-.01.14-.17,1.69-1.81,1.69s-1.87-1.51-1.87-2.89c0-1.77.6-2.88,1.92-2.88,1.47,0,1.81,1.21,1.81,2.6,0,.11,0,.29-.01.43h-2.91ZM83.34,121.26c0-.96-.2-1.71-1.02-1.71-1.02,0-1.07,1.33-1.09,1.71h2.1ZM83.34,121.26h0ZM90.83,121.67c0,1.96-.66,2.96-1.92,2.96s-1.92-.96-1.92-2.94.76-2.83,1.95-2.83,1.89.94,1.89,2.82ZM87.81,121.7c0,1.52.38,2.24,1.1,2.24s1.09-.73,1.09-2.24c0-1.43-.35-2.13-1.09-2.13s-1.1.63-1.1,2.14ZM95.38,123c0,.7,0,1.26.01,1.53h-.77c-.03-.16-.04-.38-.04-.74-.2.55-.67.84-1.33.84s-1.39-.27-1.39-1.67v-4.01h.81v3.82c0,.71.2,1.15.84,1.15s1.06-.38,1.06-1.58v-3.39h.81v4.05ZM102.28,116.7v6.4c0,.54,0,1.1.01,1.43h-.78c-.01-.14-.03-.51-.03-.75-.17.48-.53.85-1.31.85-1.16,0-1.65-.99-1.65-2.95,0-1.78.66-2.82,1.83-2.82.72,0,1,.31,1.13.58v-2.74h.8ZM99.34,121.69c0,1.61.37,2.22,1.05,2.22.87,0,1.1-.74,1.1-2.25,0-1.63-.23-2.09-1.03-2.09-.66,0-1.11.58-1.11,2.12ZM104.12,121.89c0,1.09.19,2.05,1.07,2.05s.99-.83,1.02-1h.79c-.01.14-.17,1.69-1.81,1.69s-1.87-1.51-1.87-2.89c0-1.77.6-2.88,1.92-2.88,1.47,0,1.81,1.21,1.81,2.6,0,.11,0,.29-.01.43h-2.91ZM106.24,121.26c0-.96-.2-1.71-1.02-1.71-1.02,0-1.07,1.33-1.09,1.71h2.1ZM106.24,121.26h0ZM110.15,118.95h.77c.01.14.03.4.03,1,.24-.67.78-1.07,1.47-1.08v.89c-.96.03-1.46.63-1.46,1.66v3.12h-.8v-3.68c0-.89,0-1.5-.01-1.9ZM113.67,121.89c0,1.09.19,2.05,1.07,2.05s.99-.83,1.02-1h.79c-.01.14-.17,1.69-1.81,1.69s-1.87-1.51-1.87-2.89c0-1.77.6-2.88,1.92-2.88,1.47,0,1.81,1.21,1.81,2.6,0,.11,0,.29-.01.43h-2.91ZM115.79,121.26c0-.96-.2-1.71-1.02-1.71-1.02,0-1.07,1.33-1.09,1.71h2.1ZM116.31,116.57l-1.38,1.53h-.75l1.18-1.53h.95ZM115.79,121.26h0ZM117.8,124.53v-4.89h-.73v-.69h.73v-.77c0-.82.3-1.55,1.31-1.55.15,0,.35.03.45.06v.71c-.1-.02-.23-.05-.37-.05-.44,0-.59.28-.59.84v.75h.88v.69h-.88v4.89h-.8ZM120.62,121.89c0,1.09.19,2.05,1.07,2.05s.99-.83,1.02-1h.79c-.01.14-.17,1.69-1.81,1.69s-1.87-1.51-1.87-2.89c0-1.77.6-2.88,1.92-2.88,1.47,0,1.81,1.21,1.81,2.6,0,.11,0,.29-.01.43h-2.91ZM122.74,121.26c0-.96-.2-1.71-1.02-1.71-1.02,0-1.07,1.33-1.09,1.71h2.1ZM123.26,116.57l-1.38,1.53h-.75l1.18-1.53h.95ZM122.74,121.26h0ZM124.55,118.95h.77c.01.14.03.4.03,1,.24-.67.78-1.07,1.47-1.08v.89c-.96.03-1.46.63-1.46,1.66v3.12h-.8v-3.68c0-.89,0-1.5-.01-1.9ZM128.07,121.89c0,1.09.19,2.05,1.07,2.05s.99-.83,1.02-1h.79c-.01.14-.17,1.69-1.81,1.69s-1.87-1.51-1.87-2.89c0-1.77.6-2.88,1.92-2.88,1.47,0,1.81,1.21,1.81,2.6,0,.11,0,.29-.01.43h-2.91ZM130.18,121.26c0-.96-.2-1.71-1.02-1.71-1.02,0-1.07,1.33-1.09,1.71h2.1ZM130.18,121.26h0ZM132,118.95h.78c.01.14.03.36.03.73.19-.44.57-.83,1.32-.83.81,0,1.43.46,1.43,1.7v3.97h-.81v-3.82c0-.68-.22-1.14-.86-1.14-.75,0-1.07.49-1.07,1.64v3.32h-.81v-3.85c0-1.14,0-1.47-.01-1.73ZM140.23,122.83c-.02.3-.14,1.8-1.77,1.8-1.46,0-1.85-1.29-1.85-2.91s.51-2.87,1.93-2.87c1.62,0,1.7,1.5,1.7,1.76h-.82c-.01-.23-.09-1.07-.88-1.07s-1.1.88-1.1,2.17c0,1.39.3,2.22,1.06,2.22.81,0,.9-.81.94-1.11h.8ZM141.78,121.89c0,1.09.19,2.05,1.07,2.05s.99-.83,1.02-1h.79c-.01.14-.17,1.69-1.81,1.69s-1.87-1.51-1.87-2.89c0-1.77.6-2.88,1.92-2.88,1.47,0,1.81,1.21,1.81,2.6,0,.11,0,.29-.01.43h-2.91ZM143.9,121.26c0-.96-.2-1.71-1.02-1.71-1.02,0-1.07,1.33-1.09,1.71h2.1ZM143.9,121.26h0Z"/>
    <path class="cls-1" d="M29.95,138.86c-.02.3-.14,1.8-1.77,1.8-1.46,0-1.85-1.29-1.85-2.91s.51-2.87,1.93-2.87c1.62,0,1.7,1.5,1.7,1.76h-.82c-.01-.23-.09-1.07-.88-1.07s-1.1.88-1.1,2.17c0,1.39.3,2.22,1.06,2.22.81,0,.9-.81.94-1.11h.8ZM30.83,139.06h.82v1.51h-.82v-1.51Z"/>
    <path class="cls-1" d="M39.79,136.76c0,1.54-.22,2.64-.75,3.28l1.3.96-.49.59-1.44-1.07c-.24.11-.52.16-.84.16-1.54,0-2.18-1.32-2.18-3.9s.75-3.79,2.21-3.79c1.55,0,2.19,1.25,2.19,3.78ZM37.59,139.96c.96,0,1.35-1.04,1.35-3.19s-.43-3.07-1.36-3.07-1.35,1.02-1.35,3.06.43,3.2,1.36,3.2ZM44.38,139.04c0,.7,0,1.26.01,1.53h-.77c-.03-.16-.04-.38-.04-.74-.2.55-.67.84-1.33.84s-1.39-.27-1.39-1.67v-4.01h.81v3.82c0,.71.2,1.15.84,1.15s1.06-.38,1.06-1.58v-3.39h.81v4.05ZM48.93,139.58c0,.35.03.81.04.99h-.74c-.03-.12-.06-.42-.06-.63-.21.45-.63.73-1.32.73-1.07,0-1.46-.84-1.46-1.61,0-1.02.69-1.79,2.15-1.79.26,0,.42,0,.58.02v-.74c0-.44-.08-.99-.84-.99-.82,0-.87.59-.9.96h-.78c.02-.8.4-1.62,1.71-1.62,1.08,0,1.6.53,1.6,1.55v3.13ZM48.16,137.92c-.14-.02-.29-.03-.55-.03-.99,0-1.4.48-1.4,1.1,0,.51.27.99.87.99.82,0,1.08-.58,1.08-1.75v-.3ZM50.26,134.99h.78c.01.14.03.36.03.73.19-.44.57-.83,1.32-.83.81,0,1.43.46,1.43,1.7v3.97h-.81v-3.82c0-.68-.22-1.14-.86-1.14-.75,0-1.07.49-1.07,1.64v3.32h-.81v-3.85c0-1.14,0-1.47-.01-1.73ZM58.63,132.73v6.4c0,.54,0,1.1.01,1.43h-.78c-.01-.14-.03-.51-.03-.75-.17.48-.53.85-1.31.85-1.16,0-1.65-.99-1.65-2.95,0-1.78.66-2.82,1.83-2.82.72,0,1,.31,1.13.58v-2.74h.8ZM55.69,137.73c0,1.61.37,2.22,1.05,2.22.87,0,1.1-.74,1.1-2.25,0-1.63-.23-2.09-1.03-2.09-.66,0-1.11.58-1.11,2.12ZM62.04,140.57v-7.83h.8v7.83h-.8ZM63.75,135.25c.2-.76.38-1.68.38-2.54h.78c-.01.94-.3,2.07-.51,2.54h-.65ZM68.69,139.58c0,.35.03.81.04.99h-.74c-.03-.12-.06-.42-.06-.63-.21.45-.63.73-1.32.73-1.07,0-1.46-.84-1.46-1.61,0-1.02.69-1.79,2.15-1.79.26,0,.42,0,.58.02v-.74c0-.44-.08-.99-.84-.99-.82,0-.87.59-.9.96h-.78c.02-.8.4-1.62,1.71-1.62,1.08,0,1.6.53,1.6,1.55v3.13ZM67.92,137.92c-.14-.02-.29-.03-.55-.03-.99,0-1.4.48-1.4,1.1,0,.51.27.99.87.99.82,0,1.08-.58,1.08-1.75v-.3ZM73.48,139.04c0,.7,0,1.26.01,1.53h-.77c-.03-.16-.04-.38-.04-.74-.2.55-.67.84-1.33.84s-1.39-.27-1.39-1.67v-4.01h.81v3.82c0,.71.2,1.15.84,1.15s1.06-.38,1.06-1.58v-3.39h.81v4.05ZM74.22,134.99h.79v-1.49h.8v1.49h.97v.69h-.97v3.66c0,.38.08.62.5.62.13,0,.29,0,.39-.03v.62c-.19.07-.47.09-.66.09-.66,0-1.04-.27-1.04-1.15v-3.82h-.79v-.69ZM78.02,137.93c0,1.09.19,2.05,1.07,2.05s.99-.83,1.02-1h.79c-.01.14-.17,1.69-1.81,1.69s-1.87-1.51-1.87-2.89c0-1.77.6-2.88,1.92-2.88,1.47,0,1.81,1.21,1.81,2.6,0,.11,0,.29-.01.43h-2.91ZM80.13,137.3c0-.96-.2-1.71-1.02-1.71-1.02,0-1.07,1.33-1.09,1.71h2.1ZM80.13,137.3h0ZM85.47,139.04c0,.7,0,1.26.01,1.53h-.77c-.03-.16-.04-.38-.04-.74-.2.55-.67.84-1.33.84s-1.39-.27-1.39-1.67v-4.01h.81v3.82c0,.71.2,1.15.84,1.15s1.06-.38,1.06-1.58v-3.39h.81v4.05ZM86.71,134.99h.77c.01.14.03.4.03,1,.24-.67.78-1.07,1.47-1.08v.89c-.96.03-1.46.63-1.46,1.66v3.12h-.8v-3.68c0-.89,0-1.5-.01-1.9ZM91.65,137.36v.72h-2.25v-.72h2.25ZM93.45,137.93c0,1.09.19,2.05,1.07,2.05s.99-.83,1.02-1h.79c-.01.14-.17,1.69-1.81,1.69s-1.87-1.51-1.87-2.89c0-1.77.6-2.88,1.92-2.88,1.47,0,1.81,1.21,1.81,2.6,0,.11,0,.29-.01.43h-2.91ZM95.57,137.3c0-.96-.2-1.71-1.02-1.71-1.02,0-1.07,1.33-1.09,1.71h2.1ZM95.57,137.3h0ZM99.5,136.66c0-.99,0-1.41-.01-1.67h.77c.02.16.03.46.03.71.22-.49.61-.81,1.25-.81.58,0,.99.25,1.16.83.2-.45.62-.83,1.35-.83s1.35.34,1.35,1.62v4.05h-.8v-3.91c0-.56-.16-1.05-.79-1.05-.71,0-.95.63-.95,1.38v3.58h-.8v-3.89c0-.69-.23-1.06-.77-1.06-.67,0-.98.61-.98,1.45v3.5h-.8v-3.91ZM106.14,135.25c.2-.76.38-1.68.38-2.54h.78c-.01.94-.3,2.07-.51,2.54h-.65ZM111.07,139.58c0,.35.03.81.04.99h-.74c-.03-.12-.06-.42-.06-.63-.21.45-.63.73-1.32.73-1.07,0-1.46-.84-1.46-1.61,0-1.02.69-1.79,2.15-1.79.26,0,.42,0,.58.02v-.74c0-.44-.08-.99-.84-.99-.82,0-.87.59-.9.96h-.78c.02-.8.4-1.62,1.71-1.62,1.08,0,1.6.53,1.6,1.55v3.13ZM110.3,137.92c-.14-.02-.29-.03-.55-.03-.99,0-1.4.48-1.4,1.1,0,.51.27.99.87.99.82,0,1.08-.58,1.08-1.75v-.3ZM117.99,132.73v6.4c0,.54,0,1.1.01,1.43h-.78c-.01-.14-.03-.51-.03-.75-.17.48-.53.85-1.31.85-1.16,0-1.65-.99-1.65-2.95,0-1.78.66-2.82,1.83-2.82.72,0,1,.31,1.13.58v-2.74h.8ZM115.06,137.73c0,1.61.37,2.22,1.05,2.22.87,0,1.1-.74,1.1-2.25,0-1.63-.23-2.09-1.03-2.09-.66,0-1.11.58-1.11,2.12ZM122.87,137.71c0,1.96-.66,2.96-1.92,2.96s-1.92-.96-1.92-2.94.76-2.83,1.95-2.83,1.89.94,1.89,2.82ZM119.85,137.73c0,1.52.38,2.24,1.1,2.24s1.09-.73,1.09-2.24c0-1.43-.35-2.13-1.09-2.13s-1.1.63-1.1,2.14ZM123.9,134.99h.78c.01.14.03.36.03.73.19-.44.57-.83,1.32-.83.81,0,1.43.46,1.43,1.7v3.97h-.81v-3.82c0-.68-.22-1.14-.86-1.14-.75,0-1.07.49-1.07,1.64v3.32h-.81v-3.85c0-1.14,0-1.47-.01-1.73ZM128.78,134.99h.78c.01.14.03.36.03.73.19-.44.57-.83,1.32-.83.81,0,1.43.46,1.43,1.7v3.97h-.81v-3.82c0-.68-.22-1.14-.86-1.14-.75,0-1.07.49-1.07,1.64v3.32h-.81v-3.85c0-1.14,0-1.47-.01-1.73ZM134.19,137.93c0,1.09.19,2.05,1.07,2.05s.99-.83,1.02-1h.79c-.01.14-.17,1.69-1.81,1.69s-1.87-1.51-1.87-2.89c0-1.77.6-2.88,1.92-2.88,1.47,0,1.81,1.21,1.81,2.6,0,.11,0,.29-.01.43h-2.91ZM136.31,137.3c0-.96-.2-1.71-1.02-1.71-1.02,0-1.07,1.33-1.09,1.71h2.1ZM136.83,132.61l-1.38,1.53h-.75l1.18-1.53h.95ZM136.31,137.3h0Z"/>
    <path class="cls-1" d="M35.6,153.77v-7.83h.8v7.83h-.8ZM37.31,148.45c.2-.76.38-1.68.38-2.54h.78c-.01.94-.3,2.07-.51,2.54h-.65ZM42.25,152.78c0,.35.03.81.04.99h-.74c-.03-.12-.06-.42-.06-.63-.21.45-.63.73-1.32.73-1.07,0-1.46-.84-1.46-1.61,0-1.02.69-1.79,2.15-1.79.26,0,.42,0,.58.02v-.74c0-.44-.08-.99-.84-.99-.82,0-.87.59-.9.96h-.78c.02-.8.4-1.62,1.71-1.62,1.08,0,1.6.53,1.6,1.55v3.13ZM41.47,151.12c-.14-.02-.29-.03-.55-.03-.99,0-1.4.48-1.4,1.1,0,.51.27.99.87.99.82,0,1.08-.58,1.08-1.75v-.3ZM47.04,152.24c0,.7,0,1.26.01,1.53h-.77c-.03-.16-.04-.38-.04-.74-.2.55-.67.84-1.33.84s-1.39-.27-1.39-1.67v-4.01h.81v3.82c0,.71.2,1.15.84,1.15s1.06-.38,1.06-1.58v-3.39h.81v4.05ZM47.78,148.19h.79v-1.49h.8v1.49h.97v.69h-.97v3.66c0,.38.08.62.5.62.13,0,.29,0,.39-.03v.62c-.19.07-.47.09-.66.09-.66,0-1.04-.27-1.04-1.15v-3.82h-.79v-.69ZM54.6,150.91c0,1.96-.66,2.96-1.92,2.96s-1.92-.96-1.92-2.94.76-2.83,1.95-2.83,1.89.94,1.89,2.82ZM51.59,150.93c0,1.52.38,2.24,1.1,2.24s1.09-.73,1.09-2.24c0-1.43-.35-2.13-1.09-2.13s-1.1.63-1.1,2.14ZM55.64,148.19h.77c.01.14.03.4.03,1,.24-.67.78-1.07,1.47-1.08v.89c-.96.03-1.46.63-1.46,1.66v3.12h-.8v-3.68c0-.89,0-1.5-.01-1.9ZM58.65,148.19h.8v5.58h-.8v-5.58ZM58.66,145.93h.8v1.15h-.8v-1.15ZM62.15,153.21c.61,0,.9-.37.9-.88,0-.58-.3-.84-1.03-1.13-1.15-.44-1.49-.86-1.49-1.63s.46-1.47,1.6-1.47c1.25,0,1.6.85,1.61,1.59h-.79c-.01-.27-.07-.93-.85-.93-.53,0-.77.33-.77.77s.19.67.97.96c1.08.42,1.56.81,1.56,1.77,0,1.02-.64,1.62-1.75,1.62s-1.72-.69-1.75-1.71h.8c.04.6.35,1.05.99,1.05ZM68.07,152.78c0,.35.03.81.04.99h-.74c-.03-.12-.06-.42-.06-.63-.21.45-.63.73-1.32.73-1.07,0-1.46-.84-1.46-1.61,0-1.02.69-1.79,2.15-1.79.26,0,.42,0,.58.02v-.74c0-.44-.08-.99-.84-.99-.82,0-.87.59-.9.96h-.78c.02-.8.4-1.62,1.71-1.62,1.08,0,1.6.53,1.6,1.55v3.13ZM67.3,151.12c-.14-.02-.29-.03-.55-.03-.99,0-1.4.48-1.4,1.1,0,.51.27.99.87.99.82,0,1.08-.58,1.08-1.75v-.3ZM68.72,148.19h.79v-1.49h.8v1.49h.97v.69h-.97v3.66c0,.38.08.62.5.62.13,0,.29,0,.39-.03v.62c-.19.07-.47.09-.66.09-.66,0-1.04-.27-1.04-1.15v-3.82h-.79v-.69ZM72.07,148.19h.8v5.58h-.8v-5.58ZM72.07,145.93h.8v1.15h-.8v-1.15ZM77.77,150.91c0,1.96-.66,2.96-1.92,2.96s-1.92-.96-1.92-2.94.76-2.83,1.95-2.83,1.89.94,1.89,2.82ZM74.75,150.93c0,1.52.38,2.24,1.1,2.24s1.09-.73,1.09-2.24c0-1.43-.35-2.13-1.09-2.13s-1.1.63-1.1,2.14ZM78.8,148.19h.78c.01.14.03.36.03.73.19-.44.57-.83,1.32-.83.81,0,1.43.46,1.43,1.7v3.97h-.81v-3.82c0-.68-.22-1.14-.86-1.14-.75,0-1.07.49-1.07,1.64v3.32h-.81v-3.85c0-1.14,0-1.47-.01-1.73ZM89.22,145.93v6.4c0,.54,0,1.1.01,1.43h-.78c-.01-.14-.03-.51-.03-.75-.17.48-.53.85-1.31.85-1.16,0-1.65-.99-1.65-2.95,0-1.78.66-2.82,1.83-2.82.72,0,1,.31,1.13.58v-2.74h.8ZM86.28,150.93c0,1.61.37,2.22,1.05,2.22.87,0,1.1-.74,1.1-2.25,0-1.63-.23-2.09-1.03-2.09-.66,0-1.11.58-1.11,2.12ZM91.06,151.13c0,1.09.19,2.05,1.07,2.05s.99-.83,1.02-1h.79c-.01.14-.17,1.69-1.81,1.69s-1.87-1.51-1.87-2.89c0-1.77.6-2.88,1.92-2.88,1.47,0,1.81,1.21,1.81,2.6,0,.11,0,.29-.01.43h-2.91ZM93.18,150.5c0-.96-.2-1.71-1.02-1.71-1.02,0-1.07,1.33-1.09,1.71h2.1ZM93.18,150.5h0ZM97.11,153.77v-7.83h.8v7.83h-.8ZM98.82,148.45c.2-.76.38-1.68.38-2.54h.78c-.01.94-.3,2.07-.51,2.54h-.65ZM104.19,152.24c0,.7,0,1.26.01,1.53h-.77c-.03-.16-.04-.38-.04-.74-.2.55-.67.84-1.33.84s-1.39-.27-1.39-1.67v-4.01h.81v3.82c0,.71.2,1.15.84,1.15s1.06-.38,1.06-1.58v-3.39h.81v4.05ZM104.93,148.19h.79v-1.49h.8v1.49h.97v.69h-.97v3.66c0,.38.08.62.5.62.13,0,.29,0,.39-.03v.62c-.19.07-.47.09-.66.09-.66,0-1.04-.27-1.04-1.15v-3.82h-.79v-.69ZM108.28,148.19h.8v5.58h-.8v-5.58ZM108.29,145.93h.8v1.15h-.8v-1.15ZM110.44,153.77v-7.83h.8v7.83h-.8ZM112.57,148.19h.8v5.58h-.8v-5.58ZM112.58,145.93h.8v1.15h-.8v-1.15ZM116.07,153.21c.61,0,.9-.37.9-.88,0-.58-.3-.84-1.03-1.13-1.15-.44-1.49-.86-1.49-1.63s.46-1.47,1.6-1.47c1.25,0,1.6.85,1.61,1.59h-.79c-.01-.27-.07-.93-.85-.93-.53,0-.77.33-.77.77s.19.67.97.96c1.08.42,1.56.81,1.56,1.77,0,1.02-.64,1.62-1.75,1.62s-1.72-.69-1.75-1.71h.8c.04.6.35,1.05.99,1.05ZM119.32,151.13c0,1.09.19,2.05,1.07,2.05s.99-.83,1.02-1h.79c-.01.14-.17,1.69-1.81,1.69s-1.87-1.51-1.87-2.89c0-1.77.6-2.88,1.92-2.88,1.47,0,1.81,1.21,1.81,2.6,0,.11,0,.29-.01.43h-2.91ZM121.44,150.5c0-.96-.2-1.71-1.02-1.71-1.02,0-1.07,1.33-1.09,1.71h2.1ZM121.44,150.5h0ZM123.25,148.19h.77c.01.14.03.4.03,1,.24-.67.78-1.07,1.47-1.08v.89c-.96.03-1.46.63-1.46,1.66v3.12h-.8v-3.68c0-.89,0-1.5-.01-1.9Z"/>
    <path class="cls-1" d="M30.08,161.97v6.4c0,.54,0,1.1.01,1.43h-.78c-.01-.14-.03-.51-.03-.75-.17.48-.53.85-1.31.85-1.16,0-1.65-.99-1.65-2.95,0-1.78.66-2.82,1.83-2.82.72,0,1,.31,1.13.58v-2.74h.8ZM27.15,166.97c0,1.61.37,2.22,1.05,2.22.87,0,1.1-.74,1.1-2.25,0-1.63-.23-2.09-1.03-2.09-.66,0-1.11.58-1.11,2.12ZM31.14,168.3h.82v1.51h-.82v-1.51Z"/>
    <path class="cls-1" d="M35.68,162.33h.82v6.75h2.67l-.12.72h-3.37v-7.47ZM40.42,167.17c0,1.09.19,2.05,1.07,2.05s.99-.83,1.02-1h.79c-.01.14-.17,1.69-1.81,1.69s-1.87-1.51-1.87-2.89c0-1.77.6-2.88,1.92-2.88,1.47,0,1.81,1.21,1.81,2.6,0,.11,0,.29-.01.43h-2.91ZM42.54,166.53c0-.96-.2-1.71-1.02-1.71-1.02,0-1.07,1.33-1.09,1.71h2.1ZM42.54,166.53h0ZM45.81,169.25c.61,0,.9-.37.9-.88,0-.58-.3-.84-1.03-1.13-1.15-.44-1.49-.86-1.49-1.63s.46-1.47,1.6-1.47c1.25,0,1.6.85,1.61,1.59h-.79c-.01-.27-.07-.93-.85-.93-.53,0-.77.33-.77.77s.19.67.97.96c1.08.42,1.56.81,1.56,1.77,0,1.02-.64,1.62-1.75,1.62s-1.72-.69-1.75-1.71h.8c.04.6.35,1.05.99,1.05ZM49.92,164.23h.79v-1.49h.8v1.49h.97v.69h-.97v3.66c0,.38.08.62.5.62.13,0,.29,0,.39-.03v.62c-.19.07-.47.09-.66.09-.66,0-1.04-.27-1.04-1.15v-3.82h-.79v-.69ZM53.23,164.23h.77c.01.14.03.4.03,1,.24-.67.78-1.07,1.47-1.08v.89c-.96.03-1.46.63-1.46,1.66v3.12h-.8v-3.68c0-.89,0-1.5-.01-1.9ZM59.77,166.95c0,1.96-.66,2.96-1.92,2.96s-1.92-.96-1.92-2.94.76-2.83,1.95-2.83,1.89.94,1.89,2.82ZM56.76,166.97c0,1.52.38,2.24,1.1,2.24s1.09-.73,1.09-2.24c0-1.43-.35-2.13-1.09-2.13s-1.1.63-1.1,2.14ZM60.82,164.23h.8v5.58h-.8v-5.58ZM60.82,161.97h.8v1.15h-.8v-1.15ZM64.32,169.25c.61,0,.9-.37.9-.88,0-.58-.3-.84-1.03-1.13-1.15-.44-1.49-.86-1.49-1.63s.46-1.47,1.6-1.47c1.25,0,1.6.85,1.61,1.59h-.79c-.01-.27-.07-.93-.85-.93-.53,0-.77.33-.77.77s.19.67.97.96c1.08.42,1.56.81,1.56,1.77,0,1.02-.64,1.62-1.75,1.62s-1.72-.69-1.75-1.71h.8c.04.6.35,1.05.99,1.05ZM69.93,169.23v2.62h-.8v-6c0-.76,0-1.28-.01-1.63h.78c.01.1.03.47.03.75.2-.48.59-.84,1.33-.84,1.06,0,1.63.94,1.63,2.8,0,2.01-.7,2.97-1.79,2.97-.67,0-1-.32-1.16-.67ZM72.06,166.98c0-1.4-.32-2.13-1.06-2.13-.86,0-1.1.82-1.1,2.14s.13,2.21,1.05,2.21c.73,0,1.1-.85,1.1-2.22ZM73.92,164.23h.77c.01.14.03.4.03,1,.24-.67.78-1.07,1.47-1.08v.89c-.96.03-1.46.63-1.46,1.66v3.12h-.8v-3.68c0-.89,0-1.5-.01-1.9ZM80.46,166.95c0,1.96-.66,2.96-1.92,2.96s-1.92-.96-1.92-2.94.76-2.83,1.95-2.83,1.89.94,1.89,2.82ZM77.45,166.97c0,1.52.38,2.24,1.1,2.24s1.09-.73,1.09-2.24c0-1.43-.35-2.13-1.09-2.13s-1.1.63-1.1,2.14ZM82.31,169.23v2.62h-.8v-6c0-.76,0-1.28-.01-1.63h.78c.01.1.03.47.03.75.2-.48.59-.84,1.33-.84,1.06,0,1.63.94,1.63,2.8,0,2.01-.7,2.97-1.79,2.97-.67,0-1-.32-1.16-.67ZM84.44,166.98c0-1.4-.32-2.13-1.06-2.13-.86,0-1.1.82-1.1,2.14s.13,2.21,1.05,2.21c.73,0,1.1-.85,1.1-2.22ZM89.9,166.95c0,1.96-.66,2.96-1.92,2.96s-1.92-.96-1.92-2.94.76-2.83,1.95-2.83,1.89.94,1.89,2.82ZM86.89,166.97c0,1.52.38,2.24,1.1,2.24s1.09-.73,1.09-2.24c0-1.43-.35-2.13-1.09-2.13s-1.1.63-1.1,2.14ZM92.38,169.25c.61,0,.9-.37.9-.88,0-.58-.3-.84-1.03-1.13-1.15-.44-1.49-.86-1.49-1.63s.46-1.47,1.6-1.47c1.25,0,1.6.85,1.61,1.59h-.79c-.01-.27-.07-.93-.85-.93-.53,0-.77.33-.77.77s.19.67.97.96c1.08.42,1.56.81,1.56,1.77,0,1.02-.64,1.62-1.75,1.62s-1.72-.69-1.75-1.71h.8c.04.6.35,1.05.99,1.05ZM95.06,164.23h.8v5.58h-.8v-5.58ZM95.07,161.97h.8v1.15h-.8v-1.15ZM96.61,164.23h.79v-1.49h.8v1.49h.97v.69h-.97v3.66c0,.38.08.62.5.62.13,0,.29,0,.39-.03v.62c-.19.07-.47.09-.66.09-.66,0-1.04-.27-1.04-1.15v-3.82h-.79v-.69ZM99.97,164.23h.8v5.58h-.8v-5.58ZM99.97,161.97h.8v1.15h-.8v-1.15ZM105.66,166.95c0,1.96-.66,2.96-1.92,2.96s-1.92-.96-1.92-2.94.76-2.83,1.95-2.83,1.89.94,1.89,2.82ZM102.65,166.97c0,1.52.38,2.24,1.1,2.24s1.09-.73,1.09-2.24c0-1.43-.35-2.13-1.09-2.13s-1.1.63-1.1,2.14ZM106.7,164.23h.78c.01.14.03.36.03.73.19-.44.57-.83,1.32-.83.81,0,1.43.46,1.43,1.7v3.97h-.81v-3.82c0-.68-.22-1.14-.86-1.14-.75,0-1.07.49-1.07,1.64v3.32h-.81v-3.85c0-1.14,0-1.47-.01-1.73ZM112.96,169.25c.61,0,.9-.37.9-.88,0-.58-.3-.84-1.03-1.13-1.15-.44-1.49-.86-1.49-1.63s.46-1.47,1.6-1.47c1.25,0,1.6.85,1.61,1.59h-.79c-.01-.27-.07-.93-.85-.93-.53,0-.77.33-.77.77s.19.67.97.96c1.08.42,1.56.81,1.56,1.77,0,1.02-.64,1.62-1.75,1.62s-1.72-.69-1.75-1.71h.8c.04.6.35,1.05.99,1.05ZM121.12,168.1c-.02.3-.14,1.8-1.77,1.8-1.46,0-1.85-1.29-1.85-2.91s.51-2.87,1.93-2.87c1.62,0,1.7,1.5,1.7,1.76h-.82c-.01-.23-.09-1.07-.88-1.07s-1.1.88-1.1,2.17c0,1.39.3,2.22,1.06,2.22.81,0,.9-.81.94-1.11h.8ZM122.08,164.23h.8v5.58h-.8v-5.58ZM122.08,161.97h.8v1.15h-.8v-1.15ZM126.15,166.6v.72h-2.25v-.72h2.25ZM130.91,161.97v6.4c0,.54,0,1.1.01,1.43h-.78c-.01-.14-.03-.51-.03-.75-.17.48-.53.85-1.31.85-1.16,0-1.65-.99-1.65-2.95,0-1.78.66-2.82,1.83-2.82.72,0,1,.31,1.13.58v-2.74h.8ZM127.97,166.97c0,1.61.37,2.22,1.05,2.22.87,0,1.1-.74,1.1-2.25,0-1.63-.23-2.09-1.03-2.09-.66,0-1.11.58-1.11,2.12ZM132.75,167.17c0,1.09.19,2.05,1.07,2.05s.99-.83,1.02-1h.79c-.01.14-.17,1.69-1.81,1.69s-1.87-1.51-1.87-2.89c0-1.77.6-2.88,1.92-2.88,1.47,0,1.81,1.21,1.81,2.6,0,.11,0,.29-.01.43h-2.91ZM134.87,166.53c0-.96-.2-1.71-1.02-1.71-1.02,0-1.07,1.33-1.09,1.71h2.1ZM134.87,166.53h0ZM138.14,169.25c.61,0,.9-.37.9-.88,0-.58-.3-.84-1.03-1.13-1.15-.44-1.49-.86-1.49-1.63s.46-1.47,1.6-1.47c1.25,0,1.6.85,1.61,1.59h-.79c-.01-.27-.07-.93-.85-.93-.53,0-.77.33-.77.77s.19.67.97.96c1.08.42,1.56.81,1.56,1.77,0,1.02-.64,1.62-1.75,1.62s-1.72-.69-1.75-1.71h.8c.04.6.35,1.05.99,1.05ZM142.29,169.25c.61,0,.9-.37.9-.88,0-.58-.3-.84-1.03-1.13-1.15-.44-1.49-.86-1.49-1.63s.46-1.47,1.6-1.47c1.25,0,1.6.85,1.61,1.59h-.79c-.01-.27-.07-.93-.85-.93-.53,0-.77.33-.77.77s.19.67.97.96c1.08.42,1.56.81,1.56,1.77,0,1.02-.64,1.62-1.75,1.62s-1.72-.69-1.75-1.71h.8c.04.6.35,1.05.99,1.05ZM148.43,168.28c0,.7,0,1.26.01,1.53h-.77c-.03-.16-.04-.38-.04-.74-.2.55-.67.84-1.33.84s-1.39-.27-1.39-1.67v-4.01h.81v3.82c0,.71.2,1.15.84,1.15s1.06-.38,1.06-1.58v-3.39h.81v4.05ZM151.12,169.25c.61,0,.9-.37.9-.88,0-.58-.3-.84-1.03-1.13-1.15-.44-1.49-.86-1.49-1.63s.46-1.47,1.6-1.47c1.25,0,1.6.85,1.61,1.59h-.79c-.01-.27-.07-.93-.85-.93-.53,0-.77.33-.77.77s.19.67.97.96c1.08.42,1.56.81,1.56,1.77,0,1.02-.64,1.62-1.75,1.62s-1.72-.69-1.75-1.71h.8c.04.6.35,1.05.99,1.05Z"/>
    <path class="cls-1" d="M27.49,206.58v3.44h-.82v-7.47h1.95c1.25,0,1.91.71,1.91,1.93,0,1.12-.55,1.59-1,1.75.69.25.91.86.91,1.91v.3c0,.7.02,1.19.11,1.59h-.81c-.1-.34-.11-1.01-.11-1.61v-.25c0-1.06-.22-1.57-1.23-1.57h-.91ZM27.49,205.88h.96c.91,0,1.25-.51,1.25-1.38,0-.75-.35-1.26-1.17-1.26h-1.03v2.64ZM32.28,207.38c0,1.09.19,2.05,1.07,2.05s.99-.83,1.02-1h.79c-.01.14-.17,1.69-1.81,1.69s-1.87-1.51-1.87-2.89c0-1.77.6-2.88,1.92-2.88,1.47,0,1.81,1.21,1.81,2.6,0,.11,0,.29-.01.43h-2.91ZM34.4,206.75c0-.96-.2-1.71-1.02-1.71-1.02,0-1.07,1.33-1.09,1.71h2.1ZM34.92,202.07l-1.38,1.53h-.75l1.18-1.53h.95ZM34.4,206.75h0ZM37.03,209.45v2.62h-.8v-6c0-.76,0-1.28-.01-1.63h.78c.01.1.03.47.03.75.2-.48.59-.84,1.33-.84,1.06,0,1.63.94,1.63,2.8,0,2.01-.7,2.97-1.79,2.97-.67,0-1-.32-1.16-.67ZM39.16,207.19c0-1.4-.32-2.13-1.06-2.13-.86,0-1.1.82-1.1,2.14s.13,2.21,1.05,2.21c.73,0,1.1-.85,1.1-2.22ZM44.62,207.17c0,1.96-.66,2.96-1.92,2.96s-1.92-.96-1.92-2.94.76-2.83,1.95-2.83,1.89.94,1.89,2.82ZM41.6,207.19c0,1.52.38,2.24,1.1,2.24s1.09-.73,1.09-2.24c0-1.43-.35-2.13-1.09-2.13s-1.1.63-1.1,2.14ZM45.65,204.44h.78c.01.14.03.36.03.73.19-.44.57-.83,1.32-.83.81,0,1.43.46,1.43,1.7v3.97h-.81v-3.82c0-.68-.22-1.14-.86-1.14-.75,0-1.07.49-1.07,1.64v3.32h-.81v-3.85c0-1.14,0-1.47-.01-1.73ZM51.91,209.46c.61,0,.9-.37.9-.88,0-.58-.3-.84-1.03-1.13-1.15-.44-1.49-.86-1.49-1.63s.46-1.47,1.6-1.47c1.25,0,1.6.85,1.61,1.59h-.79c-.01-.27-.07-.93-.85-.93-.53,0-.77.33-.77.77s.19.67.97.96c1.08.42,1.56.81,1.56,1.77,0,1.02-.64,1.62-1.75,1.62s-1.72-.69-1.75-1.71h.8c.04.6.35,1.05.99,1.05ZM55.16,207.38c0,1.09.19,2.05,1.07,2.05s.99-.83,1.02-1h.79c-.01.14-.17,1.69-1.81,1.69s-1.87-1.51-1.87-2.89c0-1.77.6-2.88,1.92-2.88,1.47,0,1.81,1.21,1.81,2.6,0,.11,0,.29-.01.43h-2.91ZM57.28,206.75c0-.96-.2-1.71-1.02-1.71-1.02,0-1.07,1.33-1.09,1.71h2.1ZM57.28,206.75h0ZM61.26,206.11v-1.51h.78v1.51h-.78ZM61.26,208.51h.78v1.51h-.78v-1.51ZM69,202.19v6.4c0,.54,0,1.1.01,1.43h-.78c-.01-.14-.03-.51-.03-.75-.17.48-.53.85-1.31.85-1.16,0-1.65-.99-1.65-2.95,0-1.78.66-2.82,1.83-2.82.72,0,1,.31,1.13.58v-2.74h.8ZM66.06,207.18c0,1.61.37,2.22,1.05,2.22.87,0,1.1-.74,1.1-2.25,0-1.63-.23-2.09-1.03-2.09-.66,0-1.11.58-1.11,2.12ZM70.06,208.51h.82v1.51h-.82v-1.51Z"/>
    <path class="cls-1" d="M27.5,221.41v7.47h-.82v-7.47h.82ZM28.9,228.89v-7.83h.8v7.83h-.8ZM33.22,228.89v-4.89h-.73v-.69h.73v-.77c0-.82.3-1.55,1.31-1.55.15,0,.35.03.45.06v.71c-.1-.02-.23-.05-.37-.05-.44,0-.59.28-.59.84v.75h.88v.69h-.88v4.89h-.8ZM38.74,227.9c0,.35.03.81.04.99h-.74c-.03-.12-.06-.42-.06-.63-.21.45-.63.73-1.32.73-1.07,0-1.46-.84-1.46-1.61,0-1.02.69-1.79,2.15-1.79.26,0,.42,0,.58.02v-.74c0-.44-.08-.99-.84-.99-.82,0-.87.59-.9.96h-.78c.02-.8.4-1.62,1.71-1.62,1.08,0,1.6.53,1.6,1.55v3.13ZM37.96,226.24c-.14-.02-.29-.03-.55-.03-.99,0-1.4.48-1.4,1.1,0,.51.27.99.87.99.82,0,1.08-.58,1.08-1.75v-.3ZM43.53,227.36c0,.7,0,1.26.01,1.53h-.77c-.03-.16-.04-.38-.04-.74-.2.55-.67.84-1.33.84s-1.39-.27-1.39-1.67v-4.01h.81v3.82c0,.71.2,1.15.84,1.15s1.06-.38,1.06-1.58v-3.39h.81v4.05ZM44.27,223.31h.79v-1.49h.8v1.49h.97v.69h-.97v3.66c0,.38.08.62.5.62.13,0,.29,0,.39-.03v.62c-.19.07-.47.09-.66.09-.66,0-1.04-.27-1.04-1.15v-3.82h-.79v-.69ZM53.17,221.05v6.4c0,.54,0,1.1.01,1.43h-.78c-.01-.14-.03-.51-.03-.75-.17.48-.53.85-1.31.85-1.16,0-1.65-.99-1.65-2.95,0-1.78.66-2.82,1.83-2.82.72,0,1,.31,1.13.58v-2.74h.8ZM50.24,226.05c0,1.61.37,2.22,1.05,2.22.87,0,1.1-.74,1.1-2.25,0-1.63-.23-2.09-1.03-2.09-.66,0-1.11.58-1.11,2.12ZM57.67,227.9c0,.35.03.81.04.99h-.74c-.03-.12-.06-.42-.06-.63-.21.45-.63.73-1.32.73-1.07,0-1.46-.84-1.46-1.61,0-1.02.69-1.79,2.15-1.79.26,0,.42,0,.58.02v-.74c0-.44-.08-.99-.84-.99-.82,0-.87.59-.9.96h-.78c.02-.8.4-1.62,1.71-1.62,1.08,0,1.6.53,1.6,1.55v3.13ZM56.9,226.24c-.14-.02-.29-.03-.55-.03-.99,0-1.4.48-1.4,1.1,0,.51.27.99.87.99.82,0,1.08-.58,1.08-1.75v-.3ZM58.99,223.31h.78c.01.14.03.36.03.73.19-.44.57-.83,1.32-.83.81,0,1.43.46,1.43,1.7v3.97h-.81v-3.82c0-.68-.22-1.14-.86-1.14-.75,0-1.07.49-1.07,1.64v3.32h-.81v-3.85c0-1.14,0-1.47-.01-1.73ZM65.26,228.33c.61,0,.9-.37.9-.88,0-.58-.3-.84-1.03-1.13-1.15-.44-1.49-.86-1.49-1.63s.46-1.47,1.6-1.47c1.25,0,1.6.85,1.61,1.59h-.79c-.01-.27-.07-.93-.85-.93-.53,0-.77.33-.77.77s.19.67.97.96c1.08.42,1.56.81,1.56,1.77,0,1.02-.64,1.62-1.75,1.62s-1.72-.69-1.75-1.71h.8c.04.6.35,1.05.99,1.05ZM69.37,223.31h.79v-1.49h.8v1.49h.97v.69h-.97v3.66c0,.38.08.62.5.62.13,0,.29,0,.39-.03v.62c-.19.07-.47.09-.66.09-.66,0-1.04-.27-1.04-1.15v-3.82h-.79v-.69ZM76.2,226.03c0,1.96-.66,2.96-1.92,2.96s-1.92-.96-1.92-2.94.76-2.83,1.95-2.83,1.89.94,1.89,2.82ZM73.18,226.05c0,1.52.38,2.24,1.1,2.24s1.09-.73,1.09-2.24c0-1.43-.35-2.13-1.09-2.13s-1.1.63-1.1,2.14ZM80.75,227.36c0,.7,0,1.26.01,1.53h-.77c-.03-.16-.04-.38-.04-.74-.2.55-.67.84-1.33.84s-1.39-.27-1.39-1.67v-4.01h.81v3.82c0,.71.2,1.15.84,1.15s1.06-.38,1.06-1.58v-3.39h.81v4.05ZM83.44,228.33c.61,0,.9-.37.9-.88,0-.58-.3-.84-1.03-1.13-1.15-.44-1.49-.86-1.49-1.63s.46-1.47,1.6-1.47c1.25,0,1.6.85,1.61,1.59h-.79c-.01-.27-.07-.93-.85-.93-.53,0-.77.33-.77.77s.19.67.97.96c1.08.42,1.56.81,1.56,1.77,0,1.02-.64,1.62-1.75,1.62s-1.72-.69-1.75-1.71h.8c.04.6.35,1.05.99,1.05ZM88.24,228.89v-7.83h.8v7.83h-.8ZM90.91,226.25c0,1.09.19,2.05,1.07,2.05s.99-.83,1.02-1h.79c-.01.14-.17,1.69-1.81,1.69s-1.87-1.51-1.87-2.89c0-1.77.6-2.88,1.92-2.88,1.47,0,1.81,1.21,1.81,2.6,0,.11,0,.29-.01.43h-2.91ZM93.03,225.61c0-.96-.2-1.71-1.02-1.71-1.02,0-1.07,1.33-1.09,1.71h2.1ZM93.03,225.61h0ZM96.3,228.33c.61,0,.9-.37.9-.88,0-.58-.3-.84-1.03-1.13-1.15-.44-1.49-.86-1.49-1.63s.46-1.47,1.6-1.47c1.25,0,1.6.85,1.61,1.59h-.79c-.01-.27-.07-.93-.85-.93-.53,0-.77.33-.77.77s.19.67.97.96c1.08.42,1.56.81,1.56,1.77,0,1.02-.64,1.62-1.75,1.62s-1.72-.69-1.75-1.71h.8c.04.6.35,1.05.99,1.05ZM104.45,227.18c-.02.3-.14,1.8-1.77,1.8-1.46,0-1.85-1.29-1.85-2.91s.51-2.87,1.93-2.87c1.62,0,1.7,1.5,1.7,1.76h-.82c-.01-.23-.09-1.07-.88-1.07s-1.1.88-1.1,2.17c0,1.39.3,2.22,1.06,2.22.81,0,.9-.81.94-1.11h.8ZM108.66,227.9c0,.35.03.81.04.99h-.74c-.03-.12-.06-.42-.06-.63-.21.45-.63.73-1.32.73-1.07,0-1.46-.84-1.46-1.61,0-1.02.69-1.79,2.15-1.79.26,0,.42,0,.58.02v-.74c0-.44-.08-.99-.84-.99-.82,0-.87.59-.9.96h-.78c.02-.8.4-1.62,1.71-1.62,1.08,0,1.6.53,1.6,1.55v3.13ZM107.89,226.24c-.14-.02-.29-.03-.55-.03-.99,0-1.4.48-1.4,1.1,0,.51.27.99.87.99.82,0,1.08-.58,1.08-1.75v-.3ZM111.31,228.33c.61,0,.9-.37.9-.88,0-.58-.3-.84-1.03-1.13-1.15-.44-1.49-.86-1.49-1.63s.46-1.47,1.6-1.47c1.25,0,1.6.85,1.61,1.59h-.79c-.01-.27-.07-.93-.85-.93-.53,0-.77.33-.77.77s.19.67.97.96c1.08.42,1.56.81,1.56,1.77,0,1.02-.64,1.62-1.75,1.62s-1.72-.69-1.75-1.71h.8c.04.6.35,1.05.99,1.05ZM116.1,223.31h.77c.01.14.03.4.03,1,.24-.67.78-1.07,1.47-1.08v.89c-.96.03-1.46.63-1.46,1.66v3.12h-.8v-3.68c0-.89,0-1.5-.01-1.9ZM119.62,226.25c0,1.09.19,2.05,1.07,2.05s.99-.83,1.02-1h.79c-.01.14-.17,1.69-1.81,1.69s-1.87-1.51-1.87-2.89c0-1.77.6-2.88,1.92-2.88,1.47,0,1.81,1.21,1.81,2.6,0,.11,0,.29-.01.43h-2.91ZM121.74,225.61c0-.96-.2-1.71-1.02-1.71-1.02,0-1.07,1.33-1.09,1.71h2.1ZM122.26,220.93l-1.38,1.53h-.75l1.18-1.53h.95ZM121.74,225.61h0ZM123.75,228.89v-4.89h-.73v-.69h.73v-.77c0-.82.3-1.55,1.31-1.55.15,0,.35.03.45.06v.71c-.1-.02-.23-.05-.37-.05-.44,0-.59.28-.59.84v.75h.88v.69h-.88v4.89h-.8ZM126.57,226.25c0,1.09.19,2.05,1.07,2.05s.99-.83,1.02-1h.79c-.01.14-.17,1.69-1.81,1.69s-1.87-1.51-1.87-2.89c0-1.77.6-2.88,1.92-2.88,1.47,0,1.81,1.21,1.81,2.6,0,.11,0,.29-.01.43h-2.91ZM128.69,225.61c0-.96-.2-1.71-1.02-1.71-1.02,0-1.07,1.33-1.09,1.71h2.1ZM129.21,220.93l-1.38,1.53h-.75l1.18-1.53h.95ZM128.69,225.61h0ZM130.5,223.31h.77c.01.14.03.4.03,1,.24-.67.78-1.07,1.47-1.08v.89c-.96.03-1.46.63-1.46,1.66v3.12h-.8v-3.68c0-.89,0-1.5-.01-1.9ZM134.02,226.25c0,1.09.19,2.05,1.07,2.05s.99-.83,1.02-1h.79c-.01.14-.17,1.69-1.81,1.69s-1.87-1.51-1.87-2.89c0-1.77.6-2.88,1.92-2.88,1.47,0,1.81,1.21,1.81,2.6,0,.11,0,.29-.01.43h-2.91ZM136.13,225.61c0-.96-.2-1.71-1.02-1.71-1.02,0-1.07,1.33-1.09,1.71h2.1ZM136.13,225.61h0ZM137.95,223.31h.78c.01.14.03.36.03.73.19-.44.57-.83,1.32-.83.81,0,1.43.46,1.43,1.7v3.97h-.81v-3.82c0-.68-.22-1.14-.86-1.14-.75,0-1.07.49-1.07,1.64v3.32h-.81v-3.85c0-1.14,0-1.47-.01-1.73ZM146.18,227.18c-.02.3-.14,1.8-1.77,1.8-1.46,0-1.85-1.29-1.85-2.91s.51-2.87,1.93-2.87c1.62,0,1.7,1.5,1.7,1.76h-.82c-.01-.23-.09-1.07-.88-1.07s-1.1.88-1.1,2.17c0,1.39.3,2.22,1.06,2.22.81,0,.9-.81.94-1.11h.8ZM147.73,226.25c0,1.09.19,2.05,1.07,2.05s.99-.83,1.02-1h.79c-.01.14-.17,1.69-1.81,1.69s-1.87-1.51-1.87-2.89c0-1.77.6-2.88,1.92-2.88,1.47,0,1.81,1.21,1.81,2.6,0,.11,0,.29-.01.43h-2.91ZM149.85,225.61c0-.96-.2-1.71-1.02-1.71-1.02,0-1.07,1.33-1.09,1.71h2.1ZM149.85,225.61h0ZM151.67,223.31h.77c.01.14.03.4.03,1,.24-.67.78-1.07,1.47-1.08v.89c-.96.03-1.46.63-1.46,1.66v3.12h-.8v-3.68c0-.89,0-1.5-.01-1.9ZM156.81,228.89v-7.83h.8v7.83h-.8ZM162.13,227.9c0,.35.03.81.04.99h-.74c-.03-.12-.06-.42-.06-.63-.21.45-.63.73-1.32.73-1.07,0-1.46-.84-1.46-1.61,0-1.02.69-1.79,2.15-1.79.26,0,.42,0,.58.02v-.74c0-.44-.08-.99-.84-.99-.82,0-.87.59-.9.96h-.78c.02-.8.4-1.62,1.71-1.62,1.08,0,1.6.53,1.6,1.55v3.13ZM161.36,226.24c-.14-.02-.29-.03-.55-.03-.99,0-1.4.48-1.4,1.1,0,.51.27.99.87.99.82,0,1.08-.58,1.08-1.75v-.3Z"/>
    <path class="cls-1" d="M27.98,241.53c.61,0,.9-.37.9-.88,0-.58-.3-.84-1.03-1.13-1.15-.44-1.49-.86-1.49-1.63s.46-1.47,1.6-1.47c1.25,0,1.6.85,1.61,1.59h-.79c-.01-.27-.07-.93-.85-.93-.53,0-.77.33-.77.77s.19.67.97.96c1.08.42,1.56.81,1.56,1.77,0,1.02-.64,1.62-1.75,1.62s-1.72-.69-1.75-1.71h.8c.04.6.35,1.05.99,1.05ZM34.25,239.23c0,1.96-.66,2.96-1.92,2.96s-1.92-.96-1.92-2.94.76-2.83,1.95-2.83,1.89.94,1.89,2.82ZM31.24,239.25c0,1.52.38,2.24,1.1,2.24s1.09-.73,1.09-2.24c0-1.43-.35-2.13-1.09-2.13s-1.1.63-1.1,2.14ZM38.81,240.56c0,.7,0,1.26.01,1.53h-.77c-.03-.16-.04-.38-.04-.74-.2.55-.67.84-1.33.84s-1.39-.27-1.39-1.67v-4.01h.81v3.82c0,.71.2,1.15.84,1.15s1.06-.38,1.06-1.58v-3.39h.81v4.05ZM40.05,236.51h.77c.01.14.03.4.03,1,.24-.67.78-1.07,1.47-1.08v.89c-.96.03-1.46.63-1.46,1.66v3.12h-.8v-3.68c0-.89,0-1.5-.01-1.9ZM46.38,240.38c-.02.3-.14,1.8-1.77,1.8-1.46,0-1.85-1.29-1.85-2.91s.51-2.87,1.93-2.87c1.62,0,1.7,1.5,1.7,1.76h-.82c-.01-.23-.09-1.07-.88-1.07s-1.1.88-1.1,2.17c0,1.39.3,2.22,1.06,2.22.81,0,.9-.81.94-1.11h.8ZM47.93,239.45c0,1.09.19,2.05,1.07,2.05s.99-.83,1.02-1h.79c-.01.14-.17,1.69-1.81,1.69s-1.87-1.51-1.87-2.89c0-1.77.6-2.88,1.92-2.88,1.47,0,1.81,1.21,1.81,2.6,0,.11,0,.29-.01.43h-2.91ZM50.05,238.81c0-.96-.2-1.71-1.02-1.71-1.02,0-1.07,1.33-1.09,1.71h2.1ZM50.05,238.81h0ZM57.46,234.25v6.4c0,.54,0,1.1.01,1.43h-.78c-.01-.14-.03-.51-.03-.75-.17.48-.53.85-1.31.85-1.16,0-1.65-.99-1.65-2.95,0-1.78.66-2.82,1.83-2.82.72,0,1,.31,1.13.58v-2.74h.8ZM54.52,239.25c0,1.61.37,2.22,1.05,2.22.87,0,1.1-.74,1.1-2.25,0-1.63-.23-2.09-1.03-2.09-.66,0-1.11.58-1.11,2.12ZM59.31,239.45c0,1.09.19,2.05,1.07,2.05s.99-.83,1.02-1h.79c-.01.14-.17,1.69-1.81,1.69s-1.87-1.51-1.87-2.89c0-1.77.6-2.88,1.92-2.88,1.47,0,1.81,1.21,1.81,2.6,0,.11,0,.29-.01.43h-2.91ZM61.42,238.81c0-.96-.2-1.71-1.02-1.71-1.02,0-1.07,1.33-1.09,1.71h2.1ZM61.42,238.81h0ZM65.35,242.09v-7.83h.8v7.83h-.8ZM67.07,236.77c.2-.76.38-1.68.38-2.54h.78c-.01.94-.3,2.07-.51,2.54h-.65ZM69.22,236.51h.8v5.58h-.8v-5.58ZM69.23,234.25h.8v1.15h-.8v-1.15ZM71.36,238.18c0-.99,0-1.41-.01-1.67h.77c.02.16.03.46.03.71.22-.49.61-.81,1.25-.81.58,0,.99.25,1.16.83.2-.45.62-.83,1.35-.83s1.35.34,1.35,1.62v4.05h-.8v-3.91c0-.56-.16-1.05-.79-1.05-.71,0-.95.63-.95,1.38v3.58h-.8v-3.89c0-.69-.23-1.06-.77-1.06-.67,0-.98.61-.98,1.45v3.5h-.8v-3.91ZM81.72,241.1c0,.35.03.81.04.99h-.74c-.03-.12-.06-.42-.06-.63-.21.45-.63.73-1.32.73-1.07,0-1.46-.84-1.46-1.61,0-1.02.69-1.79,2.15-1.79.26,0,.42,0,.58.02v-.74c0-.44-.08-.99-.84-.99-.82,0-.87.59-.9.96h-.78c.02-.8.4-1.62,1.71-1.62,1.08,0,1.6.53,1.6,1.55v3.13ZM80.95,239.44c-.14-.02-.29-.03-.55-.03-.99,0-1.4.48-1.4,1.1,0,.51.27.99.87.99.82,0,1.08-.58,1.08-1.75v-.3ZM86.56,241.73c0,1.47-.35,2.49-1.95,2.49-1.44,0-1.75-.94-1.78-1.54h.82c.02.31.2.85.99.85.94,0,1.13-.68,1.13-1.81v-.51c-.2.57-.67.85-1.3.85-1.13,0-1.68-.95-1.68-2.71,0-2.01.74-2.95,1.8-2.95.76,0,1.08.37,1.18.73,0-.25.03-.52.04-.64h.77c-.01.29-.01.86-.01,1.61v3.61ZM83.61,239.35c0,1.35.37,2.01,1.06,2.01.86,0,1.1-.85,1.1-2.15s-.18-2.08-1.03-2.08c-.74,0-1.13.77-1.13,2.22ZM88.42,239.45c0,1.09.19,2.05,1.07,2.05s.99-.83,1.02-1h.79c-.01.14-.17,1.69-1.81,1.69s-1.87-1.51-1.87-2.89c0-1.77.6-2.88,1.92-2.88,1.47,0,1.81,1.21,1.81,2.6,0,.11,0,.29-.01.43h-2.91ZM90.54,238.81c0-.96-.2-1.71-1.02-1.71-1.02,0-1.07,1.33-1.09,1.71h2.1ZM90.54,238.81h0ZM92.18,240.58h.82v1.51h-.82v-1.51Z"/>
  </g>
</svg>