<?xml version="1.0" encoding="UTF-8"?>
<svg id="Calque_1" data-name="Calque 1" xmlns="http://www.w3.org/2000/svg" xmlns:xlink="http://www.w3.org/1999/xlink" viewBox="0 0 195.59 269.29">
  <defs>
    <style>
      .cls-1, .cls-2 {
        fill: #1d1d1b;
      }

      .cls-3 {
        letter-spacing: -.05em;
      }

      .cls-4 {
        fill: #fff;
      }

      .cls-5 {
        font-size: 34.51px;
      }

      .cls-5, .cls-6 {
        font-family: Socafe, Socafe;
      }

      .cls-5, .cls-6, .cls-7 {
        fill: #ffcb04;
      }

      .cls-8 {
        letter-spacing: .06em;
      }

      .cls-9 {
        letter-spacing: .06em;
      }

      .cls-10, .cls-11 {
        fill: none;
      }

      .cls-12 {
        letter-spacing: -.05em;
      }

      .cls-13 {
        clip-path: url(#clippath-1);
      }

      .cls-14 {
        fill: #f39200;
      }

      .cls-15 {
        fill: #507cbe;
      }

      .cls-16 {
        letter-spacing: -.05em;
      }

      .cls-11 {
        stroke: #ffcb04;
        stroke-linecap: round;
        stroke-width: 3px;
      }

      .cls-17 {
        letter-spacing: -.05em;
      }

      .cls-18 {
        letter-spacing: .08em;
      }

      .cls-2 {
        font-family: ActionMan, 'Action Man';
        font-size: 7.12px;
      }

      .cls-19 {
        letter-spacing: .08em;
      }

      .cls-20 {
        letter-spacing: -.05em;
      }

      .cls-21 {
        fill: #31a852;
      }

      .cls-22 {
        clip-path: url(#clippath-2);
      }

      .cls-23 {
        letter-spacing: .06em;
      }

      .cls-24 {
        letter-spacing: .08em;
      }

      .cls-25 {
        fill: #ffcd02;
      }

      .cls-26 {
        clip-path: url(#clippath);
      }

      .cls-6 {
        font-size: 35.7px;
      }

      .cls-27 {
        letter-spacing: 0em;
      }
    </style>
    <clipPath id="clippath">
      <rect class="cls-10" width="195.59" height="269.29"/>
    </clipPath>
    <clipPath id="clippath-1">
      <rect class="cls-10" width="195.59" height="269.29"/>
    </clipPath>
    <clipPath id="clippath-2">
      <rect class="cls-10" x="16.3" y="217.56" width="179.29" height="35.74"/>
    </clipPath>
  </defs>
  <g class="cls-26">
    <g class="cls-13">
      <text class="cls-6" transform="translate(43.6 45.34) scale(1 1.12)"><tspan x="0" y="0">J</tspan></text>
      <text class="cls-5" transform="translate(65.55 45.34)"><tspan x="0" y="0">OKER</tspan></text>
      <path class="cls-7" d="M78.6,24.09c-.37,0-.77-.05-1.14-.01-.64.06-.69.28-1.2.6-.49.3-1.15.58-1.7.83-.64.3-.87.59-1.35,1.12-.59.65-1.23,1.43-1.49,2.35-.44,1.54-.21,3.36-.21,4.96,0,.75-.14,1.68-.01,2.42.15.87.87,1.42,1.43,1.9.87.76,1.37.41,2.48.55.98.12,1.82.29,2.83.3,1.23.01,2.09.07,2.57-1.28.25-.68.35-1.1.7-1.76.05-.31.16-.59.33-.86.26-.26.5-.54.69-.85.28-.81.03-2.03.03-2.88,0-.95.02-1.91,0-2.86-.02-1.22-1.15-1.77-1.79-2.78-.57-.89-1.04-1.92-2.18-2.04"/>
      <path class="cls-4" d="M72.49,35.62c-.46-.84-.74-1.73-.83-2.61-.09-.88,0-1.75.26-2.55l1.28,1.85,1.28,1.85s.01.02.02.03c0,0,.01.02.02.03l-1.02.7-1.02.7Z"/>
      <path class="cls-4" d="M78.78,25.69c.05-.04.09-.09.11-.16l.26-1.41c.03-.14-.07-.27-.21-.3-.14-.02-.27.07-.3.21l-.26,1.41c-.03.14.07.27.21.3.07.01.14,0,.19-.04"/>
      <path class="cls-4" d="M69.93,31.8c.05-.04.09-.09.11-.16.03-.14-.07-.27-.21-.3l-1.41-.26c-.14-.03-.27.07-.3.21-.03.14.07.27.21.3l1.41.26c.07.01.14,0,.19-.04"/>
      <path class="cls-4" d="M83.66,28.85l1.18-.81c.12-.08.15-.24.07-.36-.08-.12-.24-.15-.36-.07l-1.18.82c-.12.08-.15.24-.06.36.08.12.24.15.36.06"/>
      <path class="cls-4" d="M69.97,38.3l1.18-.81c.12-.08.15-.24.07-.36-.08-.12-.24-.15-.36-.07l-1.18.82c-.12.08-.15.24-.06.36.08.12.24.15.36.07"/>
      <path class="cls-4" d="M73.13,26.88c.12-.08.15-.24.06-.36l-.81-1.18c-.08-.12-.24-.15-.36-.07-.12.08-.15.24-.07.36l.82,1.18c.08.12.24.15.36.06"/>
      <path class="cls-4" d="M75.81,25.73c.08-.06.13-.16.1-.27l-.16-.73c-.03-.14-.17-.23-.31-.2-.14.03-.23.17-.2.3l.16.73c.03.14.17.23.31.2.03,0,.07-.02.09-.04"/>
      <path class="cls-4" d="M81.54,26.78s.05-.04.07-.07l.41-.63c.08-.12.04-.28-.08-.36-.12-.08-.28-.04-.35.08l-.41.63c-.08.12-.04.28.08.36.09.06.2.05.29,0"/>
      <path class="cls-4" d="M69.98,34.76c.08-.06.13-.16.1-.26-.03-.14-.17-.23-.31-.2l-.73.16c-.14.03-.23.17-.2.3.03.14.17.23.31.2l.73-.16s.07-.02.09-.04"/>
      <path class="cls-4" d="M71.02,29.04s.05-.04.07-.07c.08-.12.04-.28-.08-.35l-.63-.41c-.12-.08-.28-.04-.36.08-.08.12-.04.28.08.36l.63.41c.09.06.2.05.29,0"/>
      <path class="cls-4" d="M78.21,33.9c-.17.02-.29.18-.27.35l.21,1.57c.02.17.18.29.35.27.17-.02.29-.18.27-.35l-.21-1.57c-.02-.17-.18-.29-.35-.27"/>
      <path class="cls-4" d="M79.4,33.08c-.17.02-.29.18-.27.35l.21,1.57c.02.17.18.29.35.27.17-.02.29-.18.27-.35l-.21-1.57c-.02-.17-.18-.29-.35-.27"/>
      <path class="cls-4" d="M77.02,34.72c-.17.02-.29.18-.27.35l.21,1.57c.02.17.18.29.35.27.17-.02.29-.18.27-.35l-.21-1.57c-.02-.17-.18-.29-.35-.27"/>
      <path class="cls-4" d="M92.63,56.65c-1.22.83-2.88.53-3.73-.68-.86-1.23-.54-2.93.69-3.77,1.22-.83,2.88-.53,3.73.68.86,1.23.55,2.93-.69,3.77M79.69,35.26c-.17.02-.32-.1-.35-.27l-.21-1.57c-.02-.17.1-.32.26-.35.17-.02.32.1.35.26l.21,1.57c.02.17-.1.32-.27.35M78.5,36.08c-.17.02-.32-.1-.35-.27l-.21-1.57c-.02-.17.1-.32.27-.35.17-.02.33.1.35.27l.21,1.57c.02.17-.1.32-.27.35M77.32,36.9c-.17.02-.32-.1-.35-.26l-.21-1.57c-.02-.17.1-.32.26-.35.17-.02.32.1.35.26l.21,1.57c.02.17-.1.32-.27.35M94.1,52.28l-9.23-10.71c-1.8-2.36-2.6-5.32-2.27-8.26.14-1.26-.15-2.57-.91-3.7-1.17-1.73-3.14-2.58-5.08-2.39l2.32,3.36c.36.51.23,1.22-.29,1.58l-5.78,4c.82,1.02,1.94,1.67,3.15,1.93.9.19,1.69.74,2.19,1.52l9.85,16.87c1.14,1.71,3.46,2.16,5.15.99,1.69-1.17,2.1-3.5.89-5.17"/>
      <line class="cls-11" x1="24.8" y1="20.13" x2="33.9" y2="24.94"/>
      <line class="cls-11" x1="25" y1="20.13" x2="34.1" y2="24.94"/>
      <line class="cls-11" x1="22.48" y1="32.6" x2="31.97" y2="32.6"/>
      <line class="cls-11" x1="25" y1="45.07" x2="34.1" y2="40.25"/>
      <line class="cls-11" x1="170.44" y1="20.13" x2="161.34" y2="24.94"/>
      <line class="cls-11" x1="172.76" y1="32.6" x2="163.27" y2="32.6"/>
      <line class="cls-11" x1="170.24" y1="20.13" x2="161.14" y2="24.94"/>
      <line class="cls-11" x1="170.24" y1="45.07" x2="161.14" y2="40.25"/>
      <g class="cls-22">
        <path class="cls-21" d="M27.32,243.65c-.2-.22-.29-.51-.25-.8l1.62-.43c.16-.04.26-.21.22-.37-.04-.16-.21-.26-.37-.22l-1.37.37c0-.14-.02-.28-.06-.42-.04-.14-.09-.27-.16-.39l1.37-.37c.16-.04.26-.21.22-.37-.04-.16-.21-.26-.37-.22l-1.62.43c-.43-.55-.15-1.35.45-1.51l5.14-1.38c.61-.16,1.25.4,1.15,1.08l-1.73.46c-.16.05-.26.21-.22.38.04.16.21.26.37.22l1.47-.39c0,.14.02.28.06.42.04.14.09.27.16.39l-1.47.39c-.16.04-.26.21-.22.37.04.16.21.26.37.22l1.73-.46c.18.23.25.53.18.82-.08.35-.35.61-.64.69l-5.14,1.38c-.28.08-.65-.01-.9-.28"/>
        <path class="cls-21" d="M29.04,244.35l3.83-1.03c.06.94-.54,1.83-1.49,2.08h-.01c-.94.26-1.91-.21-2.33-1.06"/>
        <path class="cls-25" d="M31.35,225.76c.1-.05.23-.02.28.09.18.33.32.69.42,1.06.03.11-.04.23-.15.26-.11.03-.23-.04-.26-.15-.09-.34-.22-.66-.38-.97-.06-.1-.02-.23.09-.28M30.81,225.01c-.08.08-.22.08-.3,0-.61-.64-1.42-1.11-2.33-1.3-.11-.02-.19-.13-.16-.25.02-.11.14-.18.25-.16.99.22,1.87.72,2.54,1.42.08.08.08.22,0,.3M30.99,222.85c1.34.96,2.3,2.41,2.62,4.24.23,1.34-.02,2.76-.71,3.98-.21.37-.59,1.17-.76,2.36-.18,1.19-.11,2.41.22,3.63.03.11-.04.23-.15.26l-2.42.65c-.11.03-.23-.04-.26-.15l-4.19-15.63c-.03-.11.04-.23.15-.26.61-.16,1.08-.21,1.28-.23,1.38-.14,2.94.25,4.22,1.16"/>
        <path class="cls-14" d="M21.9,226.44c-.19.46.2.85.2.85.07.07.07.19,0,.26-.07.07-.19.07-.27,0-.03-.02-.57-.56-.28-1.24.29-.69,1.06-.68,1.09-.68.1,0,.18.08.18.19,0,.1-.09.18-.2.18-.02,0-.54,0-.73.45M22.84,230.89c.02.1-.05.19-.15.21-.03,0-.81.15-1.23-.44-.43-.6.02-1.22.04-1.25.06-.08.18-.1.26-.05.08.06.1.17.04.25-.01.02-.31.44-.03.83.28.4.83.3.85.3.1-.02.2.04.22.14M26.65,233.32c.09-.05.21-.02.26.06.36.62.02,1.44-.72,1.64-.27.07-.57.05-.82-.07-.09-.05-.13-.15-.08-.24.05-.09.16-.13.26-.08.3.15.68.08.92-.16.24-.24.29-.61.12-.89-.05-.09-.02-.2.07-.25M23.05,227.65c.08-.06.2-.05.27.03.61.75,1.1.19,1.99-.01.34-.08.68-.06.99.09l-1.16-4.33c-.19-.73-.97-1.15-1.72-.95-.76.2-1.21.96-1.02,1.69l.05.2c.24-.03.48-.03.72.01.14-.06.54-.27.61-.77.01-.1.11-.17.21-.16.1.01.18.1.16.2-.06.42-.28.69-.5.86.34.12.65.33.94.54.08.06.1.17.03.26-.07.08-.18.1-.27.04-.16-.11-.32-.22-.47-.31-.93-.55-2.15-.39-2.85.54-.87,1.15-.36,2.72.97,2.95.1.02.17.11.15.21-.02.1-.12.17-.22.15-.3-.05-.57-.16-.81-.32-.16.11-.45.36-.65.77-.56,1.19.31,2.52,1.63,2.66,0,0,.83.07,1.54-.49.71-.56.13-1.1,1.71-1.52.1-.03.2.03.23.13.03.1-.03.2-.14.23-.81.22-.91.42-1.02.7h0c.46-.02.86.19,1.16.54.07.08.05.19-.03.26-.08.06-.2.06-.27-.02-.43-.5-.91-.42-1.06-.38-.41.6-1.47,1.07-2.36.9-.21,1.09.68,2.1,1.85,2.03-.06-.66.2-1.33.71-1.8.08-.07.2-.07.27,0,.07.07.07.19,0,.26-.5.47-.71,1.17-.54,1.81.11.4.35.74.66.97.31.23.54.44.74.81.35.65.67,1.45.87,2.22.03.11.14.18.26.15l2.18-.58c.11-.03.18-.15.15-.26l-1.69-6.32c-.1-.32-.51-.53-.83-.63-.1-.03-.15-.13-.12-.23.03-.1.14-.15.24-.12,0,0,.01,0,.02,0,.2.06.36.14.49.22l-.68-2.54c-.23-.27-.62-.41-1.07-.31-.81.19-1.56.86-2.37-.11-.06-.08-.05-.19.03-.26"/>
        <path class="cls-15" d="M19.21,223.91c-.07.02-.16.01-.23-.03l-1.45-.84c-.14-.08-.19-.27-.11-.41.08-.14.26-.19.41-.11l1.45.84c.14.08.19.26.11.41-.04.07-.11.12-.18.14"/>
        <path class="cls-15" d="M31.31,220.66c-.07.02-.16.01-.23-.03-.14-.08-.19-.27-.11-.41l.84-1.45c.08-.14.26-.19.41-.11.14.08.19.27.11.41l-.83,1.45c-.04.07-.11.12-.18.14"/>
        <path class="cls-15" d="M18.32,230.63l-1.62.43c-.16.04-.32-.05-.37-.21-.04-.16.05-.32.21-.37l1.61-.43c.16-.04.32.05.37.21.04.16-.05.32-.21.37"/>
        <path class="cls-15" d="M37.06,225.61l-1.62.43c-.16.04-.32-.05-.37-.21-.04-.16.05-.32.21-.37l1.61-.43c.16-.04.32.05.37.21.04.16-.05.32-.21.37"/>
        <path class="cls-15" d="M24.53,219.79c-.16.04-.32-.05-.37-.21l-.43-1.61c-.04-.16.05-.32.21-.37.16-.04.32.05.37.21l.43,1.61c.04.16-.05.32-.21.37"/>
        <path class="cls-15" d="M21.49,221.31c-.11.03-.24,0-.32-.11l-.53-.69c-.1-.13-.08-.32.06-.42.13-.1.32-.08.42.06l.53.69c.1.13.08.32-.06.42-.03.02-.07.04-.1.05"/>
        <path class="cls-15" d="M18.1,227.18s-.08.01-.12,0l-.87-.11c-.16-.02-.28-.17-.26-.33.02-.16.17-.28.33-.26l.87.11c.16.02.28.17.26.33-.02.12-.11.22-.22.25"/>
        <path class="cls-15" d="M33.91,222.94c-.11.03-.24,0-.32-.11-.1-.13-.08-.32.06-.42l.69-.53c.13-.1.32-.08.42.06.1.13.08.32-.06.42l-.69.53s-.07.04-.1.05"/>
        <path class="cls-15" d="M28.04,219.55s-.08.01-.12,0c-.16-.02-.28-.17-.26-.34l.11-.87c.02-.16.17-.28.33-.26.16.02.28.17.26.34l-.11.86c-.02.12-.11.22-.22.25"/>
        <path class="cls-25" d="M36.89,221.69c.04.24.06.5.03.75-.02.17-.06.33-.12.48,1.13-.09,2.2.64,2.51,1.78.17.62.08,1.27-.24,1.83-.32.56-.84.96-1.46,1.12l-1.61.43c-.06.02-.12.01-.18.02,0,1.38-.37,2.76-1.07,4-.11.2-.38.74-.52,1.63-.14.9-.08,1.84.17,2.77.01.05.02.11.03.16.74.69,1.1,1.68.95,2.68-.01.07-.03.14-.04.21.05.05.1.11.14.16.58.74.8,1.69.58,2.61-.16.7-.58,1.29-1.13,1.72-.24,1.6-1.39,2.95-3,3.39-.23.06-.46.1-.69.12v5.74h164.35v-31.61H36.89Z"/>
      </g>
      <text class="cls-2" transform="translate(42.39 232.06)"><tspan class="cls-12" x="0" y="0">Si</tspan><tspan class="cls-9" x="4.72" y="0"> </tspan><tspan class="cls-20" x="7.79" y="0">v</tspan><tspan class="cls-12" x="10.64" y="0">o</tspan><tspan class="cls-20" x="14.21" y="0">u</tspan><tspan class="cls-17" x="17.62" y="0">s</tspan><tspan class="cls-9" x="21.05" y="0"> </tspan><tspan class="cls-17" x="24.12" y="0">a</tspan><tspan class="cls-20" x="27.48" y="0">v</tspan><tspan class="cls-17" x="30.32" y="0">e</tspan><tspan class="cls-3" x="33.74" y="0">z</tspan><tspan class="cls-8" x="37.23" y="0"> </tspan><tspan class="cls-12" x="40.31" y="0">r</tspan><tspan class="cls-3" x="44.03" y="0">é</tspan><tspan class="cls-17" x="47.47" y="0">po</tspan><tspan class="cls-3" x="53.87" y="0">ndu</tspan><tspan class="cls-8" x="63.92" y="0"> </tspan><tspan class="cls-16" x="67" y="0">correcte</tspan><tspan class="cls-20" x="94.87" y="0">m</tspan><tspan class="cls-17" x="99.12" y="0">e</tspan><tspan class="cls-3" x="102.54" y="0">n</tspan><tspan class="cls-17" x="105.91" y="0">t,</tspan><tspan class="cls-23" x="110.29" y="0"> </tspan><tspan class="cls-12" x="113.37" y="0">p</tspan><tspan class="cls-3" x="116.2" y="0">l</tspan><tspan class="cls-17" x="118.95" y="0">aceZ</tspan><tspan x="132.4" y="0"> </tspan></text>
      <text class="cls-2" transform="translate(42.39 240.35)"><tspan class="cls-20" x="0" y="0">l</tspan><tspan class="cls-17" x="2.75" y="0">a</tspan><tspan class="cls-19" x="6.11" y="0"> </tspan><tspan class="cls-17" x="9.37" y="0">c</tspan><tspan class="cls-3" x="12.7" y="0">a</tspan><tspan class="cls-12" x="16.06" y="0">rte</tspan><tspan class="cls-18" x="26.53" y="0"> </tspan><tspan class="cls-12" x="29.79" y="0">s</tspan><tspan class="cls-3" x="33.23" y="0">u</tspan><tspan class="cls-12" x="36.63" y="0">r</tspan><tspan class="cls-19" x="40.36" y="0"> </tspan><tspan class="cls-20" x="43.61" y="0">l</tspan><tspan class="cls-12" x="46.36" y="0">’o</tspan><tspan class="cls-3" x="50.98" y="0">bj</tspan><tspan class="cls-17" x="57.93" y="0">e</tspan><tspan class="cls-3" x="61.36" y="0">t</tspan><tspan class="cls-24" x="64.68" y="0"> </tspan><tspan class="cls-3" x="67.93" y="0">d</tspan><tspan class="cls-17" x="71.21" y="0">e</tspan><tspan class="cls-18" x="74.63" y="0"> </tspan><tspan class="cls-20" x="77.89" y="0">v</tspan><tspan class="cls-12" x="80.73" y="0">otre</tspan><tspan class="cls-24" x="94.79" y="0"> </tspan><tspan class="cls-17" x="98.04" y="0">choix.</tspan><tspan class="cls-24" x="114.39" y="0"> </tspan><tspan class="cls-17" x="117.64" y="0">S</tspan><tspan class="cls-3" x="121.09" y="0">i</tspan><tspan class="cls-24" x="122.36" y="0"> </tspan><tspan class="cls-16" x="125.61" y="0">ce</tspan><tspan class="cls-27" x="132.38" y="0"> </tspan></text>
      <text class="cls-2" transform="translate(42.39 248.64)"><tspan class="cls-3" x="0" y="0">n</tspan><tspan class="cls-12" x="3.37" y="0">’est</tspan><tspan class="cls-20" x="14.6" y="0"> </tspan><tspan class="cls-17" x="16.92" y="0">pas </tspan><tspan class="cls-20" x="28.86" y="0">l</tspan><tspan class="cls-17" x="31.61" y="0">e</tspan><tspan class="cls-20" x="35.03" y="0" xml:space="preserve"> ca</tspan><tspan class="cls-12" x="44.03" y="0">s,</tspan><tspan class="cls-20" x="48.51" y="0"> </tspan><tspan class="cls-12" x="50.83" y="0">sorte</tspan><tspan class="cls-20" x="68.31" y="0">z</tspan><tspan class="cls-17" x="71.8" y="0" xml:space="preserve"> cet</tspan><tspan class="cls-20" x="84.21" y="0">t</tspan><tspan class="cls-16" x="87.53" y="0">e</tspan><tspan class="cls-20" x="90.96" y="0"> </tspan><tspan class="cls-17" x="93.27" y="0">car</tspan><tspan class="cls-3" x="103.69" y="0">t</tspan><tspan class="cls-17" x="107.02" y="0">e</tspan><tspan class="cls-20" x="110.44" y="0" xml:space="preserve"> du</tspan><tspan class="cls-17" x="119.43" y="0" xml:space="preserve"> je</tspan><tspan class="cls-20" x="128.51" y="0">u</tspan><tspan class="cls-17" x="131.92" y="0">.</tspan><tspan class="cls-27" x="133.11" y="0"> </tspan></text>
    </g>
    <path class="cls-1" d="M26.6,88.72c-.22,0-.46-.03-.59-.05v-.7c.13.02.29.03.48.03.64,0,.74-.38.74-1.1v-5.75h.82v5.68c0,1.02-.16,1.89-1.45,1.89ZM29.05,83.3c.2-.76.38-1.68.38-2.54h.78c-.01.94-.3,2.07-.51,2.54h-.65ZM33.98,87.63c0,.35.03.81.04.99h-.74c-.03-.12-.06-.42-.06-.63-.21.45-.63.73-1.32.73-1.07,0-1.46-.84-1.46-1.61,0-1.02.69-1.79,2.15-1.79.26,0,.42,0,.58.02v-.74c0-.44-.08-.99-.84-.99-.82,0-.87.59-.9.96h-.78c.02-.8.4-1.62,1.71-1.62,1.08,0,1.6.53,1.6,1.55v3.13ZM33.21,85.98c-.14-.02-.29-.03-.55-.03-.99,0-1.4.48-1.4,1.1,0,.51.27.99.87.99.82,0,1.08-.58,1.08-1.75v-.3ZM35.32,83.04h.8v5.58h-.8v-5.58ZM35.32,80.79h.8v1.15h-.8v-1.15ZM39.56,88.62v-7.83h.8v7.83h-.8ZM42.22,85.98c0,1.09.19,2.05,1.07,2.05s.99-.83,1.02-1h.79c-.01.14-.17,1.69-1.81,1.69s-1.87-1.51-1.87-2.89c0-1.77.6-2.88,1.92-2.88,1.47,0,1.81,1.21,1.81,2.6,0,.11,0,.29-.01.43h-2.91ZM44.34,85.35c0-.96-.2-1.71-1.02-1.71-1.02,0-1.07,1.33-1.09,1.71h2.1ZM44.34,85.35h0ZM51.75,80.79v6.4c0,.54,0,1.1.01,1.43h-.78c-.01-.14-.03-.51-.03-.75-.17.48-.53.85-1.31.85-1.16,0-1.65-.99-1.65-2.95,0-1.78.66-2.82,1.83-2.82.72,0,1,.31,1.13.58v-2.74h.8ZM48.82,85.78c0,1.61.37,2.22,1.05,2.22.87,0,1.1-.74,1.1-2.25,0-1.63-.23-2.09-1.03-2.09-.66,0-1.11.58-1.11,2.12ZM53.05,83.04h.77c.01.14.03.4.03,1,.24-.67.78-1.07,1.47-1.08v.89c-.96.03-1.46.63-1.46,1.66v3.12h-.8v-3.68c0-.89,0-1.5-.01-1.9ZM59.6,85.76c0,1.96-.66,2.96-1.92,2.96s-1.92-.96-1.92-2.94.76-2.83,1.95-2.83,1.89.94,1.89,2.82ZM56.58,85.79c0,1.52.38,2.24,1.1,2.24s1.09-.73,1.09-2.24c0-1.43-.35-2.13-1.09-2.13s-1.1.63-1.1,2.14ZM60.64,83.04h.8v5.58h-.8v-5.58ZM60.65,80.79h.8v1.15h-.8v-1.15ZM62.2,83.04h.79v-1.49h.8v1.49h.97v.69h-.97v3.66c0,.38.08.62.5.62.13,0,.29,0,.39-.03v.62c-.19.07-.47.09-.66.09-.66,0-1.04-.27-1.04-1.15v-3.82h-.79v-.69ZM71.1,80.79v6.4c0,.54,0,1.1.01,1.43h-.78c-.01-.14-.03-.51-.03-.75-.17.48-.53.85-1.31.85-1.16,0-1.65-.99-1.65-2.95,0-1.78.66-2.82,1.83-2.82.72,0,1,.31,1.13.58v-2.74h.8ZM68.17,85.78c0,1.61.37,2.22,1.05,2.22.87,0,1.1-.74,1.1-2.25,0-1.63-.23-2.09-1.03-2.09-.66,0-1.11.58-1.11,2.12ZM71.99,83.3c.2-.76.38-1.68.38-2.54h.78c-.01.94-.3,2.07-.51,2.54h-.65ZM74.06,85.98c0,1.09.19,2.05,1.07,2.05s.99-.83,1.02-1h.79c-.01.14-.17,1.69-1.81,1.69s-1.87-1.51-1.87-2.89c0-1.77.6-2.88,1.92-2.88,1.47,0,1.81,1.21,1.81,2.6,0,.11,0,.29-.01.43h-2.91ZM76.17,85.35c0-.96-.2-1.71-1.02-1.71-1.02,0-1.07,1.33-1.09,1.71h2.1ZM76.17,85.35h0ZM78,84.71c0-.99,0-1.41-.01-1.67h.77c.02.16.03.46.03.71.22-.49.61-.81,1.25-.81.58,0,.99.25,1.16.83.2-.45.62-.83,1.35-.83s1.35.34,1.35,1.62v4.05h-.8v-3.91c0-.56-.16-1.05-.79-1.05-.71,0-.95.63-.95,1.38v3.58h-.8v-3.89c0-.69-.23-1.06-.77-1.06-.67,0-.98.61-.98,1.45v3.5h-.8v-3.91ZM86.02,88.05v2.62h-.8v-6c0-.76,0-1.28-.01-1.63h.78c.01.1.03.47.03.75.2-.48.59-.84,1.33-.84,1.06,0,1.63.94,1.63,2.8,0,2.01-.7,2.97-1.79,2.97-.67,0-1-.32-1.16-.67ZM88.15,85.79c0-1.4-.32-2.13-1.06-2.13-.86,0-1.1.82-1.1,2.14s.13,2.21,1.05,2.21c.73,0,1.1-.85,1.1-2.22ZM90.01,83.04h.77c.01.14.03.4.03,1,.24-.67.78-1.07,1.47-1.08v.89c-.96.03-1.46.63-1.46,1.66v3.12h-.8v-3.68c0-.89,0-1.5-.01-1.9ZM96.54,87.09c0,.7,0,1.26.01,1.53h-.77c-.03-.16-.04-.38-.04-.74-.2.55-.67.84-1.33.84s-1.39-.27-1.39-1.67v-4.01h.81v3.82c0,.71.2,1.15.84,1.15s1.06-.38,1.06-1.58v-3.39h.81v4.05ZM97.78,83.04h.78c.01.14.03.36.03.73.19-.44.57-.83,1.32-.83.81,0,1.43.46,1.43,1.7v3.97h-.81v-3.82c0-.68-.22-1.14-.86-1.14-.75,0-1.07.49-1.07,1.64v3.32h-.81v-3.85c0-1.14,0-1.47-.01-1.73ZM101.97,83.04h.79v-1.49h.8v1.49h.97v.69h-.97v3.66c0,.38.08.62.5.62.13,0,.29,0,.39-.03v.62c-.19.07-.47.09-.66.09-.66,0-1.04-.27-1.04-1.15v-3.82h-.79v-.69ZM105.77,85.98c0,1.09.19,2.05,1.07,2.05s.99-.83,1.02-1h.79c-.01.14-.17,1.69-1.81,1.69s-1.87-1.51-1.87-2.89c0-1.77.6-2.88,1.92-2.88,1.47,0,1.81,1.21,1.81,2.6,0,.11,0,.29-.01.43h-2.91ZM107.89,85.35c0-.96-.2-1.71-1.02-1.71-1.02,0-1.07,1.33-1.09,1.71h2.1ZM107.89,85.35h0ZM109.7,83.04h.77c.01.14.03.4.03,1,.24-.67.78-1.07,1.47-1.08v.89c-.96.03-1.46.63-1.46,1.66v3.12h-.8v-3.68c0-.89,0-1.5-.01-1.9ZM118.34,80.79v6.4c0,.54,0,1.1.01,1.43h-.78c-.01-.14-.03-.51-.03-.75-.17.48-.53.85-1.31.85-1.16,0-1.65-.99-1.65-2.95,0-1.78.66-2.82,1.83-2.82.72,0,1,.31,1.13.58v-2.74h.8ZM115.4,85.78c0,1.61.37,2.22,1.05,2.22.87,0,1.1-.74,1.1-2.25,0-1.63-.23-2.09-1.03-2.09-.66,0-1.11.58-1.11,2.12ZM120.18,85.98c0,1.09.19,2.05,1.07,2.05s.99-.83,1.02-1h.79c-.01.14-.17,1.69-1.81,1.69s-1.87-1.51-1.87-2.89c0-1.77.6-2.88,1.92-2.88,1.47,0,1.81,1.21,1.81,2.6,0,.11,0,.29-.01.43h-2.91ZM122.3,85.35c0-.96-.2-1.71-1.02-1.71-1.02,0-1.07,1.33-1.09,1.71h2.1ZM122.3,85.35h0ZM125.57,88.06c.61,0,.9-.37.9-.88,0-.58-.3-.84-1.03-1.13-1.15-.44-1.49-.86-1.49-1.63s.46-1.47,1.6-1.47c1.25,0,1.6.85,1.61,1.59h-.79c-.01-.27-.07-.93-.85-.93-.53,0-.77.33-.77.77s.19.67.97.96c1.08.42,1.56.81,1.56,1.77,0,1.02-.64,1.62-1.75,1.62s-1.72-.69-1.75-1.71h.8c.04.6.35,1.05.99,1.05ZM130.36,83.04h.77c.01.14.03.4.03,1,.24-.67.78-1.07,1.47-1.08v.89c-.96.03-1.46.63-1.46,1.66v3.12h-.8v-3.68c0-.89,0-1.5-.01-1.9ZM133.88,85.98c0,1.09.19,2.05,1.07,2.05s.99-.83,1.02-1h.79c-.01.14-.17,1.69-1.81,1.69s-1.87-1.51-1.87-2.89c0-1.77.6-2.88,1.92-2.88,1.47,0,1.81,1.21,1.81,2.6,0,.11,0,.29-.01.43h-2.91ZM135.99,85.35c0-.96-.2-1.71-1.02-1.71-1.02,0-1.07,1.33-1.09,1.71h2.1ZM135.99,85.35h0ZM138.15,83.04c.46,1.81,1.01,3.99,1.12,4.67h.01c.07-.62.91-3.53,1.18-4.67h.81l-1.6,5.58h-.87l-1.51-5.58h.85ZM145.48,87.09c0,.7,0,1.26.01,1.53h-.77c-.03-.16-.04-.38-.04-.74-.2.55-.67.84-1.33.84s-1.39-.27-1.39-1.67v-4.01h.81v3.82c0,.71.2,1.15.84,1.15s1.06-.38,1.06-1.58v-3.39h.81v4.05ZM147.33,85.98c0,1.09.19,2.05,1.07,2.05s.99-.83,1.02-1h.79c-.01.14-.17,1.69-1.81,1.69s-1.87-1.51-1.87-2.89c0-1.77.6-2.88,1.92-2.88,1.47,0,1.81,1.21,1.81,2.6,0,.11,0,.29-.01.43h-2.91ZM149.44,85.35c0-.96-.2-1.71-1.02-1.71-1.02,0-1.07,1.33-1.09,1.71h2.1ZM149.44,85.35h0ZM152.72,88.06c.61,0,.9-.37.9-.88,0-.58-.3-.84-1.03-1.13-1.15-.44-1.49-.86-1.49-1.63s.46-1.47,1.6-1.47c1.25,0,1.6.85,1.61,1.59h-.79c-.01-.27-.07-.93-.85-.93-.53,0-.77.33-.77.77s.19.67.97.96c1.08.42,1.56.81,1.56,1.77,0,1.02-.64,1.62-1.75,1.62s-1.72-.69-1.75-1.71h.8c.04.6.35,1.05.99,1.05Z"/>
    <path class="cls-1" d="M27.4,101.25v2.62h-.8v-6c0-.76,0-1.28-.01-1.63h.78c.01.1.03.47.03.75.2-.48.59-.84,1.33-.84,1.06,0,1.63.94,1.63,2.8,0,2.01-.7,2.97-1.79,2.97-.67,0-1-.32-1.16-.67ZM29.53,98.99c0-1.4-.32-2.13-1.06-2.13-.86,0-1.1.82-1.1,2.14s.13,2.21,1.05,2.21c.73,0,1.1-.85,1.1-2.22ZM34.62,100.83c0,.35.03.81.04.99h-.74c-.03-.12-.06-.42-.06-.63-.21.45-.63.73-1.32.73-1.07,0-1.46-.84-1.46-1.61,0-1.02.69-1.79,2.15-1.79.26,0,.42,0,.58.02v-.74c0-.44-.08-.99-.84-.99-.82,0-.87.59-.9.96h-.78c.02-.8.4-1.62,1.71-1.62,1.08,0,1.6.53,1.6,1.55v3.13ZM33.85,99.18c-.14-.02-.29-.03-.55-.03-.99,0-1.4.48-1.4,1.1,0,.51.27.99.87.99.82,0,1.08-.58,1.08-1.75v-.3ZM36.76,101.25v2.62h-.8v-6c0-.76,0-1.28-.01-1.63h.78c.01.1.03.47.03.75.2-.48.59-.84,1.33-.84,1.06,0,1.63.94,1.63,2.8,0,2.01-.7,2.97-1.79,2.97-.67,0-1-.32-1.16-.67ZM38.89,98.99c0-1.4-.32-2.13-1.06-2.13-.86,0-1.1.82-1.1,2.14s.13,2.21,1.05,2.21c.73,0,1.1-.85,1.1-2.22ZM40.77,96.24h.8v5.58h-.8v-5.58ZM40.77,93.99h.8v1.15h-.8v-1.15ZM43.43,99.18c0,1.09.19,2.05,1.07,2.05s.99-.83,1.02-1h.79c-.01.14-.17,1.69-1.81,1.69s-1.87-1.51-1.87-2.89c0-1.77.6-2.88,1.92-2.88,1.47,0,1.81,1.21,1.81,2.6,0,.11,0,.29-.01.43h-2.91ZM45.55,98.55c0-.96-.2-1.71-1.02-1.71-1.02,0-1.07,1.33-1.09,1.71h2.1ZM45.55,98.55h0ZM47.37,96.24h.77c.01.14.03.4.03,1,.24-.67.78-1.07,1.47-1.08v.89c-.96.03-1.46.63-1.46,1.66v3.12h-.8v-3.68c0-.89,0-1.5-.01-1.9ZM53.32,101.25v2.62h-.8v-6c0-.76,0-1.28-.01-1.63h.78c.01.1.03.47.03.75.2-.48.59-.84,1.33-.84,1.06,0,1.63.94,1.63,2.8,0,2.01-.7,2.97-1.79,2.97-.67,0-1-.32-1.16-.67ZM55.45,98.99c0-1.4-.32-2.13-1.06-2.13-.86,0-1.1.82-1.1,2.14s.13,2.21,1.05,2.21c.73,0,1.1-.85,1.1-2.22ZM60.91,98.96c0,1.96-.66,2.96-1.92,2.96s-1.92-.96-1.92-2.94.76-2.83,1.95-2.83,1.89.94,1.89,2.82ZM57.89,98.99c0,1.52.38,2.24,1.1,2.24s1.09-.73,1.09-2.24c0-1.43-.35-2.13-1.09-2.13s-1.1.63-1.1,2.14ZM65.46,100.29c0,.7,0,1.26.01,1.53h-.77c-.03-.16-.04-.38-.04-.74-.2.55-.67.84-1.33.84s-1.39-.27-1.39-1.67v-4.01h.81v3.82c0,.71.2,1.15.84,1.15s1.06-.38,1.06-1.58v-3.39h.81v4.05ZM66.7,96.24h.77c.01.14.03.4.03,1,.24-.67.78-1.07,1.47-1.08v.89c-.96.03-1.46.63-1.46,1.66v3.12h-.8v-3.68c0-.89,0-1.5-.01-1.9ZM75.36,100.29c0,.7,0,1.26.01,1.53h-.77c-.03-.16-.04-.38-.04-.74-.2.55-.67.84-1.33.84s-1.39-.27-1.39-1.67v-4.01h.81v3.82c0,.71.2,1.15.84,1.15s1.06-.38,1.06-1.58v-3.39h.81v4.05ZM76.6,96.24h.78c.01.14.03.36.03.73.19-.44.57-.83,1.32-.83.81,0,1.43.46,1.43,1.7v3.97h-.81v-3.82c0-.68-.22-1.14-.86-1.14-.75,0-1.07.49-1.07,1.64v3.32h-.81v-3.85c0-1.14,0-1.47-.01-1.73ZM82.02,99.18c0,1.09.19,2.05,1.07,2.05s.99-.83,1.02-1h.79c-.01.14-.17,1.69-1.81,1.69s-1.87-1.51-1.87-2.89c0-1.77.6-2.88,1.92-2.88,1.47,0,1.81,1.21,1.81,2.6,0,.11,0,.29-.01.43h-2.91ZM84.14,98.55c0-.96-.2-1.71-1.02-1.71-1.02,0-1.07,1.33-1.09,1.71h2.1ZM84.14,98.55h0ZM91.55,93.99v6.4c0,.54,0,1.1.01,1.43h-.78c-.01-.14-.03-.51-.03-.75-.17.48-.53.85-1.31.85-1.16,0-1.65-.99-1.65-2.95,0-1.78.66-2.82,1.83-2.82.72,0,1,.31,1.13.58v-2.74h.8ZM88.61,98.98c0,1.61.37,2.22,1.05,2.22.87,0,1.1-.74,1.1-2.25,0-1.63-.23-2.09-1.03-2.09-.66,0-1.11.58-1.11,2.12ZM96.37,100.29c0,.7,0,1.26.01,1.53h-.77c-.03-.16-.04-.38-.04-.74-.2.55-.67.84-1.33.84s-1.39-.27-1.39-1.67v-4.01h.81v3.82c0,.71.2,1.15.84,1.15s1.06-.38,1.06-1.58v-3.39h.81v4.05ZM97.61,96.24h.77c.01.14.03.4.03,1,.24-.67.78-1.07,1.47-1.08v.89c-.96.03-1.46.63-1.46,1.66v3.12h-.8v-3.68c0-.89,0-1.5-.01-1.9ZM101.13,99.18c0,1.09.19,2.05,1.07,2.05s.99-.83,1.02-1h.79c-.01.14-.17,1.69-1.81,1.69s-1.87-1.51-1.87-2.89c0-1.77.6-2.88,1.92-2.88,1.47,0,1.81,1.21,1.81,2.6,0,.11,0,.29-.01.43h-2.91ZM103.25,98.55c0-.96-.2-1.71-1.02-1.71-1.02,0-1.07,1.33-1.09,1.71h2.1ZM103.77,93.86l-1.38,1.53h-.75l1.18-1.53h.95ZM103.25,98.55h0ZM105.69,99.18c0,1.09.19,2.05,1.07,2.05s.99-.83,1.02-1h.79c-.01.14-.17,1.69-1.81,1.69s-1.87-1.51-1.87-2.89c0-1.77.6-2.88,1.92-2.88,1.47,0,1.81,1.21,1.81,2.6,0,.11,0,.29-.01.43h-2.91ZM107.81,98.55c0-.96-.2-1.71-1.02-1.71-1.02,0-1.07,1.33-1.09,1.71h2.1ZM107.81,98.55h0ZM115.22,93.99v6.4c0,.54,0,1.1.01,1.43h-.78c-.01-.14-.03-.51-.03-.75-.17.48-.53.85-1.31.85-1.16,0-1.65-.99-1.65-2.95,0-1.78.66-2.82,1.83-2.82.72,0,1,.31,1.13.58v-2.74h.8ZM112.29,98.98c0,1.61.37,2.22,1.05,2.22.87,0,1.1-.74,1.1-2.25,0-1.63-.23-2.09-1.03-2.09-.66,0-1.11.58-1.11,2.12ZM117.07,99.18c0,1.09.19,2.05,1.07,2.05s.99-.83,1.02-1h.79c-.01.14-.17,1.69-1.81,1.69s-1.87-1.51-1.87-2.89c0-1.77.6-2.88,1.92-2.88,1.47,0,1.81,1.21,1.81,2.6,0,.11,0,.29-.01.43h-2.91ZM119.18,98.55c0-.96-.2-1.71-1.02-1.71-1.02,0-1.07,1.33-1.09,1.71h2.1ZM119.18,98.55h0ZM123.6,95.52c-.22.14-.77.29-1.03.31v-.64c.51-.12,1.05-.41,1.29-.65h.55v7.29h-.8v-6.3ZM129.1,95.26h-2.28c-.05.69-.17,1.89-.21,2.29.21-.29.56-.51,1.15-.51,1.17,0,1.68.94,1.68,2.25,0,1.41-.44,2.62-1.94,2.62-1.35,0-1.78-.91-1.83-1.88h.81c.04.5.19,1.2,1.04,1.2s1.07-.81,1.07-1.86c0-.94-.22-1.65-1.01-1.65-.63,0-.9.39-1.06.9l-.75-.13c.11-.83.3-2.86.37-3.94h3.06l-.1.71ZM133.39,96.24v5.93c0,1.02-.13,1.78-1.21,1.78-.1,0-.22,0-.35-.03v-.71c.1.01.19.01.25.01.43,0,.5-.27.5-.88v-6.11h.8ZM132.6,95.14v-1.15h.8v1.15h-.8ZM138.29,98.96c0,1.96-.66,2.96-1.92,2.96s-1.92-.96-1.92-2.94.76-2.83,1.95-2.83,1.89.94,1.89,2.82ZM135.28,98.99c0,1.52.38,2.24,1.1,2.24s1.09-.73,1.09-2.24c0-1.43-.35-2.13-1.09-2.13s-1.1.63-1.1,2.14ZM142.85,100.29c0,.7,0,1.26.01,1.53h-.77c-.03-.16-.04-.38-.04-.74-.2.55-.67.84-1.33.84s-1.39-.27-1.39-1.67v-4.01h.81v3.82c0,.71.2,1.15.84,1.15s1.06-.38,1.06-1.58v-3.39h.81v4.05ZM144.09,96.24h.77c.01.14.03.4.03,1,.24-.67.78-1.07,1.47-1.08v.89c-.96.03-1.46.63-1.46,1.66v3.12h-.8v-3.68c0-.89,0-1.5-.01-1.9ZM148.57,101.26c.61,0,.9-.37.9-.88,0-.58-.3-.84-1.03-1.13-1.15-.44-1.49-.86-1.49-1.63s.46-1.47,1.6-1.47c1.25,0,1.6.85,1.61,1.59h-.79c-.01-.27-.07-.93-.85-.93-.53,0-.77.33-.77.77s.19.67.97.96c1.08.42,1.56.81,1.56,1.77,0,1.02-.64,1.62-1.75,1.62s-1.72-.69-1.75-1.71h.8c.04.6.35,1.05.99,1.05ZM151.18,100.31h.82v1.51h-.82v-1.51Z"/>
    <path class="cls-1" d="M27.35,128.36v3.13h-.74v-6.79h1.77c1.14,0,1.74.65,1.74,1.75,0,1.01-.5,1.45-.91,1.59.63.22.82.78.82,1.73v.27c0,.63.02,1.08.1,1.45h-.74c-.09-.31-.1-.91-.1-1.46v-.23c0-.97-.2-1.43-1.11-1.43h-.82ZM27.35,127.73h.87c.83,0,1.14-.47,1.14-1.26,0-.68-.32-1.14-1.07-1.14h-.94v2.4ZM31.7,129.09c0,.99.17,1.86.97,1.86s.9-.75.92-.91h.72c-.01.13-.16,1.54-1.65,1.54s-1.7-1.37-1.7-2.63c0-1.6.55-2.62,1.74-2.62,1.33,0,1.65,1.1,1.65,2.36,0,.1,0,.27-.01.39h-2.64ZM33.63,128.52c0-.87-.18-1.55-.92-1.55-.93,0-.97,1.21-.99,1.55h1.91ZM34.1,124.26l-1.25,1.39h-.68l1.07-1.39h.87ZM33.63,128.52h0ZM36.02,130.97v2.38h-.73v-5.45c0-.69,0-1.16,0-1.48h.71c.01.09.03.43.03.68.18-.44.53-.77,1.21-.77.96,0,1.48.85,1.48,2.55,0,1.82-.63,2.7-1.63,2.7-.61,0-.91-.29-1.05-.61ZM37.95,128.92c0-1.27-.3-1.93-.96-1.93-.79,0-1,.75-1,1.94s.11,2.01.96,2.01c.66,0,1-.77,1-2.02ZM42.92,128.89c0,1.78-.6,2.69-1.74,2.69s-1.74-.87-1.74-2.67.69-2.58,1.77-2.58,1.71.86,1.71,2.56ZM40.18,128.91c0,1.38.34,2.03,1,2.03s.99-.66.99-2.04c0-1.3-.32-1.93-.99-1.93s-1,.57-1,1.94ZM43.86,126.42h.71c.01.12.03.32.03.66.17-.4.52-.75,1.2-.75.73,0,1.3.42,1.3,1.54v3.61h-.74v-3.47c0-.62-.2-1.04-.78-1.04-.68,0-.97.45-.97,1.49v3.02h-.74v-3.5c0-1.04,0-1.33,0-1.57ZM49.55,130.98c.55,0,.82-.33.82-.8,0-.52-.27-.76-.93-1.02-1.05-.4-1.35-.78-1.35-1.48s.42-1.34,1.45-1.34c1.13,0,1.46.77,1.46,1.44h-.72c-.01-.24-.07-.84-.77-.84-.48,0-.7.3-.7.7s.18.6.88.88c.98.38,1.41.74,1.41,1.6,0,.92-.58,1.47-1.59,1.47s-1.56-.63-1.59-1.55h.73c.03.54.32.95.9.95ZM52.5,129.09c0,.99.17,1.86.97,1.86s.9-.75.92-.91h.72c-.01.13-.16,1.54-1.65,1.54s-1.7-1.37-1.7-2.63c0-1.6.55-2.62,1.74-2.62,1.33,0,1.65,1.1,1.65,2.36,0,.1,0,.27-.01.39h-2.64ZM54.42,128.52c0-.87-.18-1.55-.92-1.55-.93,0-.97,1.21-.99,1.55h1.91ZM54.42,128.52h0ZM58.05,127.94v-1.37h.71v1.37h-.71ZM58.05,130.12h.71v1.38h-.71v-1.38ZM61.99,124.7h3.13v.67h-2.38v2.26h2.24v.66h-2.24v3.2h-.74v-6.79ZM68.65,130.59c0,.32.03.74.04.9h-.67c-.03-.11-.05-.38-.05-.58-.19.41-.57.67-1.2.67-.97,0-1.32-.76-1.32-1.47,0-.93.63-1.62,1.96-1.62.24,0,.38,0,.53.02v-.68c0-.4-.08-.9-.76-.9-.74,0-.79.53-.82.87h-.71c.02-.72.37-1.47,1.55-1.47.98,0,1.46.48,1.46,1.41v2.84ZM67.95,129.09c-.13-.02-.27-.03-.5-.03-.9,0-1.27.43-1.27,1,0,.47.25.9.79.9.74,0,.98-.52.98-1.59v-.28ZM73,130.1c0,.64,0,1.14,0,1.39h-.7c-.02-.15-.03-.35-.04-.68-.18.5-.61.77-1.2.77s-1.27-.24-1.27-1.51v-3.64h.74v3.47c0,.65.18,1.04.76,1.04s.96-.34.96-1.44v-3.08h.74v3.68ZM74.44,126.42c.53,1.1.8,1.6.93,1.88h0c.16-.34.51-1.01.95-1.88h.78l-1.33,2.42,1.35,2.65h-.82c-.5-1.05-.81-1.66-.95-1.97h0c-.13.27-.5,1.03-.97,1.97h-.79l1.33-2.55-1.3-2.52h.81Z"/>
    <path class="cls-1" d="M30.72,140.17h-.02c-.25,1.17-.87,4-1.41,6.14h-.71c-.41-1.87-1.05-4.9-1.3-6.16h-.03c.04.79.07,2.29.07,3.45v2.71h-.7v-6.79h1.11c.55,2.13,1.08,4.72,1.24,5.61h0c.13-.73.79-3.55,1.33-5.61h1.1v6.79h-.73v-2.89c0-1.26.02-2.54.04-3.25ZM35.57,145.42c0,.32.03.74.04.9h-.67c-.03-.11-.05-.38-.05-.58-.19.41-.57.67-1.2.67-.97,0-1.32-.76-1.32-1.47,0-.93.63-1.62,1.96-1.62.24,0,.38,0,.53.02v-.68c0-.4-.08-.9-.76-.9-.74,0-.79.53-.82.87h-.71c.02-.72.37-1.47,1.55-1.47.98,0,1.46.48,1.46,1.41v2.84ZM34.87,143.92c-.13-.02-.27-.03-.5-.03-.9,0-1.27.43-1.27,1,0,.47.25.9.79.9.74,0,.98-.52.98-1.59v-.28ZM36.79,141.25h.73v5.07h-.73v-5.07ZM36.79,139.2h.73v1.05h-.73v-1.05ZM39.97,145.81c.55,0,.82-.33.82-.8,0-.52-.27-.76-.93-1.02-1.05-.4-1.35-.78-1.35-1.48s.42-1.34,1.45-1.34c1.13,0,1.46.77,1.46,1.44h-.72c-.01-.24-.07-.84-.77-.84-.48,0-.7.3-.7.7s.18.6.88.88c.98.38,1.41.74,1.41,1.6,0,.92-.58,1.47-1.59,1.47s-1.56-.63-1.59-1.55h.73c.03.54.32.95.9.95ZM44.61,141.25c.42,1.64.92,3.62,1.02,4.25h0c.07-.56.83-3.21,1.07-4.25h.74l-1.45,5.07h-.79l-1.38-5.07h.78ZM51.35,143.72c0,1.78-.6,2.69-1.74,2.69s-1.74-.87-1.74-2.67.69-2.58,1.77-2.58,1.71.86,1.71,2.56ZM48.61,143.74c0,1.38.34,2.03,1,2.03s.99-.66.99-2.04c0-1.3-.32-1.93-.99-1.93s-1,.57-1,1.94ZM55.49,144.93c0,.64,0,1.14,0,1.39h-.7c-.02-.15-.03-.35-.04-.68-.18.5-.61.77-1.2.77s-1.27-.24-1.27-1.51v-3.64h.74v3.47c0,.65.18,1.04.76,1.04s.96-.34.96-1.44v-3.08h.74v3.68ZM57.93,145.81c.55,0,.82-.33.82-.8,0-.52-.27-.76-.93-1.02-1.05-.4-1.35-.78-1.35-1.48s.42-1.34,1.45-1.34c1.13,0,1.46.77,1.46,1.44h-.72c-.01-.24-.07-.84-.77-.84-.48,0-.7.3-.7.7s.18.6.88.88c.98.38,1.41.74,1.41,1.6,0,.92-.58,1.47-1.59,1.47s-1.56-.63-1.59-1.55h.73c.03.54.32.95.9.95ZM63.03,145.8v2.38h-.73v-5.45c0-.69,0-1.16,0-1.48h.71c.01.09.03.43.03.68.18-.44.53-.77,1.21-.77.96,0,1.48.85,1.48,2.55,0,1.82-.63,2.7-1.63,2.7-.61,0-.91-.29-1.05-.61ZM64.96,143.75c0-1.27-.3-1.93-.96-1.93-.79,0-1,.75-1,1.94s.11,2.01.96,2.01c.66,0,1-.77,1-2.02ZM69.93,143.72c0,1.78-.6,2.69-1.74,2.69s-1.74-.87-1.74-2.67.69-2.58,1.77-2.58,1.71.86,1.71,2.56ZM67.19,143.74c0,1.38.34,2.03,1,2.03s.99-.66.99-2.04c0-1.3-.32-1.93-.99-1.93s-1,.57-1,1.94ZM74.07,144.93c0,.64,0,1.14,0,1.39h-.7c-.02-.15-.03-.35-.04-.68-.18.5-.61.77-1.2.77s-1.27-.24-1.27-1.51v-3.64h.74v3.47c0,.65.18,1.04.76,1.04s.96-.34.96-1.44v-3.08h.74v3.68ZM75.53,141.25c.42,1.64.92,3.62,1.02,4.25h0c.07-.56.83-3.21,1.07-4.25h.74l-1.45,5.07h-.79l-1.38-5.07h.78ZM79.51,143.92c0,.99.17,1.86.97,1.86s.9-.75.92-.91h.72c-.01.13-.16,1.54-1.65,1.54s-1.7-1.37-1.7-2.63c0-1.6.55-2.62,1.74-2.62,1.33,0,1.65,1.1,1.65,2.36,0,.1,0,.27-.01.39h-2.64ZM81.44,143.35c0-.87-.18-1.55-.92-1.55-.93,0-.97,1.21-.99,1.55h1.91ZM81.44,143.35h0ZM82.66,145.78c.52-.89,1.52-2.66,2.22-3.89h-2.07v-.64h2.9v.57c-.5.88-1.55,2.75-2.2,3.86h2.23l-.1.63h-2.99v-.54ZM88.46,146.32v-4.44h-.66v-.63h.66v-.7c0-.75.27-1.41,1.19-1.41.14,0,.32.02.41.05v.65c-.09-.02-.21-.04-.33-.04-.4,0-.54.25-.54.76v.68h.8v.63h-.8v4.44h-.73ZM93.47,145.42c0,.32.03.74.04.9h-.67c-.03-.11-.05-.38-.05-.58-.19.41-.57.67-1.2.67-.97,0-1.32-.76-1.32-1.47,0-.93.63-1.62,1.96-1.62.24,0,.38,0,.53.02v-.68c0-.4-.08-.9-.76-.9-.74,0-.79.53-.82.87h-.71c.02-.72.37-1.47,1.55-1.47.98,0,1.46.48,1.46,1.41v2.84ZM92.77,143.92c-.13-.02-.27-.03-.5-.03-.9,0-1.27.43-1.27,1,0,.47.25.9.79.9.74,0,.98-.52.98-1.59v-.28ZM94.69,141.25h.73v5.07h-.73v-5.07ZM94.69,139.2h.73v1.05h-.73v-1.05ZM96.62,141.25h.7c0,.13.02.37.02.9.22-.61.7-.97,1.34-.98v.81c-.87.03-1.33.58-1.33,1.51v2.83h-.73v-3.34c0-.81,0-1.36,0-1.73ZM99.81,143.92c0,.99.17,1.86.97,1.86s.9-.75.92-.91h.72c-.01.13-.16,1.54-1.65,1.54s-1.7-1.37-1.7-2.63c0-1.6.55-2.62,1.74-2.62,1.33,0,1.65,1.1,1.65,2.36,0,.1,0,.27-.01.39h-2.64ZM101.73,143.35c0-.87-.18-1.55-.92-1.55-.93,0-.97,1.21-.99,1.55h1.91ZM101.73,143.35h0ZM108.47,139.2v5.81c0,.49,0,1,0,1.3h-.71c-.01-.13-.03-.46-.03-.68-.16.44-.48.77-1.19.77-1.05,0-1.5-.9-1.5-2.68,0-1.62.6-2.56,1.66-2.56.66,0,.91.28,1.03.53v-2.49h.73ZM105.8,143.74c0,1.46.33,2.02.95,2.02.79,0,1-.67,1-2.05,0-1.48-.21-1.9-.94-1.9-.6,0-1.01.53-1.01,1.92ZM110.15,143.92c0,.99.17,1.86.97,1.86s.9-.75.92-.91h.72c-.01.13-.16,1.54-1.65,1.54s-1.7-1.37-1.7-2.63c0-1.6.55-2.62,1.74-2.62,1.33,0,1.65,1.1,1.65,2.36,0,.1,0,.27-.01.39h-2.64ZM112.07,143.35c0-.87-.18-1.55-.92-1.55-.93,0-.97,1.21-.99,1.55h1.91ZM112.07,143.35h0ZM115.05,145.81c.55,0,.82-.33.82-.8,0-.52-.27-.76-.93-1.02-1.05-.4-1.35-.78-1.35-1.48s.42-1.34,1.45-1.34c1.13,0,1.46.77,1.46,1.44h-.72c-.01-.24-.07-.84-.77-.84-.48,0-.7.3-.7.7s.18.6.88.88c.98.38,1.41.74,1.41,1.6,0,.92-.58,1.47-1.59,1.47s-1.56-.63-1.59-1.55h.73c.03.54.32.95.9.95ZM120.67,145.81c.55,0,.82-.33.82-.8,0-.52-.27-.76-.93-1.02-1.05-.4-1.35-.78-1.35-1.48s.42-1.34,1.45-1.34c1.13,0,1.46.77,1.46,1.44h-.72c-.01-.24-.07-.84-.77-.84-.48,0-.7.3-.7.7s.18.6.88.88c.98.38,1.41.74,1.41,1.6,0,.92-.58,1.47-1.59,1.47s-1.56-.63-1.59-1.55h.73c.03.54.32.95.9.95ZM126.18,144.77c-.02.27-.13,1.64-1.61,1.64-1.33,0-1.68-1.17-1.68-2.64s.46-2.6,1.75-2.6c1.47,0,1.54,1.36,1.54,1.6h-.75c0-.21-.08-.97-.8-.97s-1,.8-1,1.97c0,1.26.28,2.01.96,2.01.73,0,.82-.74.86-1.01h.73ZM130.01,145.42c0,.32.03.74.04.9h-.67c-.03-.11-.05-.38-.05-.58-.19.41-.57.67-1.2.67-.97,0-1.32-.76-1.32-1.47,0-.93.63-1.62,1.96-1.62.24,0,.38,0,.53.02v-.68c0-.4-.08-.9-.76-.9-.74,0-.79.53-.82.87h-.71c.02-.72.37-1.47,1.55-1.47.98,0,1.46.48,1.46,1.41v2.84ZM129.31,143.92c-.13-.02-.27-.03-.5-.03-.9,0-1.27.43-1.27,1,0,.47.25.9.79.9.74,0,.98-.52.98-1.59v-.28ZM131.22,141.25h.71c.01.12.03.32.03.66.17-.4.52-.75,1.2-.75.73,0,1.3.42,1.3,1.54v3.61h-.74v-3.47c0-.62-.2-1.04-.78-1.04-.68,0-.97.45-.97,1.49v3.02h-.74v-3.5c0-1.04,0-1.33,0-1.57ZM136.91,145.81c.55,0,.82-.33.82-.8,0-.52-.27-.76-.93-1.02-1.05-.4-1.35-.78-1.35-1.48s.42-1.34,1.45-1.34c1.13,0,1.46.77,1.46,1.44h-.72c-.01-.24-.07-.84-.77-.84-.48,0-.7.3-.7.7s.18.6.88.88c.98.38,1.41.74,1.41,1.6,0,.92-.58,1.47-1.59,1.47s-1.56-.63-1.59-1.55h.73c.03.54.32.95.9.95ZM144.51,143.72c0,1.78-.6,2.69-1.74,2.69s-1.74-.87-1.74-2.67.69-2.58,1.77-2.58,1.71.86,1.71,2.56ZM141.77,143.74c0,1.38.34,2.03,1,2.03s.99-.66.99-2.04c0-1.3-.32-1.93-.99-1.93s-1,.57-1,1.94ZM148.65,144.93c0,.64,0,1.14,0,1.39h-.7c-.02-.15-.03-.35-.04-.68-.18.5-.61.77-1.2.77s-1.27-.24-1.27-1.51v-3.64h.74v3.47c0,.65.18,1.04.76,1.04s.96-.34.96-1.44v-3.08h.74v3.68ZM154.92,139.2v5.81c0,.49,0,1,0,1.3h-.71c-.01-.13-.03-.46-.03-.68-.16.44-.48.77-1.19.77-1.05,0-1.5-.9-1.5-2.68,0-1.62.6-2.56,1.66-2.56.66,0,.91.28,1.03.53v-2.49h.73ZM152.25,143.74c0,1.46.33,2.02.95,2.02.79,0,1-.67,1-2.05,0-1.48-.21-1.9-.94-1.9-.6,0-1.01.53-1.01,1.92ZM156.6,143.92c0,.99.17,1.86.97,1.86s.9-.75.92-.91h.72c-.01.13-.16,1.54-1.65,1.54s-1.7-1.37-1.7-2.63c0-1.6.55-2.62,1.74-2.62,1.33,0,1.65,1.1,1.65,2.36,0,.1,0,.27-.01.39h-2.64ZM158.52,143.35c0-.87-.18-1.55-.92-1.55-.93,0-.97,1.21-.99,1.55h1.91ZM158.52,143.35h0ZM161.5,145.81c.55,0,.82-.33.82-.8,0-.52-.27-.76-.93-1.02-1.05-.4-1.35-.78-1.35-1.48s.42-1.34,1.45-1.34c1.13,0,1.46.77,1.46,1.44h-.72c-.01-.24-.07-.84-.77-.84-.48,0-.7.3-.7.7s.18.6.88.88c.98.38,1.41.74,1.41,1.6,0,.92-.58,1.47-1.59,1.47s-1.56-.63-1.59-1.55h.73c.03.54.32.95.9.95Z"/>
    <path class="cls-1" d="M29.58,156.77c-.02.27-.13,1.64-1.61,1.64-1.33,0-1.68-1.17-1.68-2.64s.46-2.6,1.75-2.6c1.47,0,1.54,1.36,1.54,1.6h-.75c0-.21-.08-.97-.8-.97s-1,.8-1,1.97c0,1.26.28,2.01.96,2.01.73,0,.82-.74.86-1.01h.73ZM33.75,155.72c0,1.78-.6,2.69-1.74,2.69s-1.74-.87-1.74-2.67.69-2.58,1.77-2.58,1.71.86,1.71,2.56ZM31.01,155.74c0,1.38.34,2.03,1,2.03s.99-.66.99-2.04c0-1.3-.32-1.93-.99-1.93s-1,.57-1,1.94ZM35.43,157.8v2.38h-.73v-5.45c0-.69,0-1.16,0-1.48h.71c.01.09.03.43.03.68.18-.44.53-.77,1.21-.77.96,0,1.48.85,1.48,2.55,0,1.82-.63,2.7-1.63,2.7-.61,0-.91-.29-1.05-.61ZM37.36,155.75c0-1.27-.3-1.93-.96-1.93-.79,0-1,.75-1,1.94s.11,2.01.96,2.01c.66,0,1-.77,1-2.02ZM39.07,153.25h.73v5.07h-.73v-5.07ZM39.07,151.2h.73v1.05h-.73v-1.05ZM41.49,155.92c0,.99.17,1.86.97,1.86s.9-.75.92-.91h.72c-.01.13-.16,1.54-1.65,1.54s-1.7-1.37-1.7-2.63c0-1.6.55-2.62,1.74-2.62,1.33,0,1.65,1.1,1.65,2.36,0,.1,0,.27-.01.39h-2.64ZM43.42,155.35c0-.87-.18-1.55-.92-1.55-.93,0-.97,1.21-.99,1.55h1.91ZM43.42,155.35h0ZM46.39,157.81c.55,0,.82-.33.82-.8,0-.52-.27-.76-.93-1.02-1.05-.4-1.35-.78-1.35-1.48s.42-1.34,1.45-1.34c1.13,0,1.46.77,1.46,1.44h-.72c-.01-.24-.07-.84-.77-.84-.48,0-.7.3-.7.7s.18.6.88.88c.98.38,1.41.74,1.41,1.6,0,.92-.58,1.47-1.59,1.47s-1.56-.63-1.59-1.55h.73c.03.54.32.95.9.95ZM48.77,156.95h.74v1.38h-.74v-1.38ZM52.59,158.32h-.74s1.64-6.79,1.64-6.79h.97l1.69,6.79h-.79l-.5-2.15h-1.76l-.49,2.15ZM53.27,149.89l1.11,1.18h-.78l-1.29-1.18h.96ZM54.69,155.5c-.39-1.67-.65-2.73-.74-3.27h-.02c-.09.59-.37,1.81-.7,3.27h1.47ZM58.73,153.25h.71c.01.12.03.32.03.66.17-.4.52-.75,1.2-.75.73,0,1.3.42,1.3,1.54v3.61h-.74v-3.47c0-.62-.2-1.04-.78-1.04-.68,0-.97.45-.97,1.49v3.02h-.74v-3.5c0-1.04,0-1.33,0-1.57ZM66.4,155.72c0,1.78-.6,2.69-1.74,2.69s-1.74-.87-1.74-2.67.69-2.58,1.77-2.58,1.71.86,1.71,2.56ZM63.66,155.74c0,1.38.34,2.03,1,2.03s.99-.66.99-2.04c0-1.3-.32-1.93-.99-1.93s-1,.57-1,1.94ZM66.75,153.25h.71v-1.35h.72v1.35h.88v.63h-.88v3.33c0,.35.08.57.46.57.12,0,.26,0,.36-.03v.56c-.17.07-.43.08-.6.08-.6,0-.94-.24-.94-1.04v-3.47h-.71v-.63ZM70.2,155.92c0,.99.17,1.86.97,1.86s.9-.75.92-.91h.72c-.01.13-.16,1.54-1.65,1.54s-1.7-1.37-1.7-2.63c0-1.6.55-2.62,1.74-2.62,1.33,0,1.65,1.1,1.65,2.36,0,.1,0,.27-.01.39h-2.64ZM72.12,155.35c0-.87-.18-1.55-.92-1.55-.93,0-.97,1.21-.99,1.55h1.91ZM72.12,155.35h0ZM73.78,153.25h.7c0,.13.02.37.02.9.22-.61.7-.97,1.34-.98v.81c-.87.03-1.33.58-1.33,1.51v2.83h-.73v-3.34c0-.81,0-1.36,0-1.73ZM80.91,157.68c-.19.44-.54.73-1.19.73-.95,0-1.51-.78-1.51-2.63,0-1.68.64-2.62,1.63-2.62.67,0,.95.32,1.06.64,0-.28.02-.46.03-.55h.71c0,.36,0,.78,0,1.5v5.43h-.72v-2.5ZM78.96,155.79c0,1.21.28,1.98.96,1.98.82,0,.99-.71.99-2.01s-.11-1.95-.94-1.95c-.64,0-1.01.69-1.01,1.98ZM86.02,156.93c0,.64,0,1.14,0,1.39h-.7c-.02-.15-.03-.35-.04-.68-.18.5-.61.77-1.2.77s-1.27-.24-1.27-1.51v-3.64h.74v3.47c0,.65.18,1.04.76,1.04s.96-.34.96-1.44v-3.08h.74v3.68ZM87.7,155.92c0,.99.17,1.86.97,1.86s.9-.75.92-.91h.72c-.01.13-.16,1.54-1.65,1.54s-1.7-1.37-1.7-2.63c0-1.6.55-2.62,1.74-2.62,1.33,0,1.65,1.1,1.65,2.36,0,.1,0,.27-.01.39h-2.64ZM89.62,155.35c0-.87-.18-1.55-.92-1.55-.93,0-.97,1.21-.99,1.55h1.91ZM89.62,155.35h0ZM93.2,158.32v-7.12h.73v7.12h-.73ZM98.03,157.42c0,.32.03.74.04.9h-.67c-.03-.11-.05-.38-.05-.58-.19.41-.57.67-1.2.67-.97,0-1.32-.76-1.32-1.47,0-.93.63-1.62,1.96-1.62.24,0,.38,0,.53.02v-.68c0-.4-.08-.9-.76-.9-.74,0-.79.53-.82.87h-.71c.02-.72.37-1.47,1.55-1.47.98,0,1.46.48,1.46,1.41v2.84ZM97.33,155.92c-.13-.02-.27-.03-.5-.03-.9,0-1.27.43-1.27,1,0,.47.25.9.79.9.74,0,.98-.52.98-1.59v-.28ZM101.16,154.77c0-.9,0-1.28,0-1.52h.7c.02.15.03.41.03.65.2-.44.56-.73,1.13-.73.53,0,.9.23,1.05.75.18-.41.57-.75,1.23-.75s1.23.31,1.23,1.47v3.68h-.72v-3.55c0-.51-.15-.95-.72-.95-.64,0-.87.57-.87,1.25v3.25h-.73v-3.53c0-.63-.21-.97-.7-.97-.6,0-.89.55-.89,1.32v3.18h-.73v-3.55ZM110.58,157.42c0,.32.03.74.04.9h-.67c-.03-.11-.05-.38-.05-.58-.19.41-.57.67-1.2.67-.97,0-1.32-.76-1.32-1.47,0-.93.63-1.62,1.96-1.62.24,0,.38,0,.53.02v-.68c0-.4-.08-.9-.76-.9-.74,0-.79.53-.82.87h-.71c.02-.72.37-1.47,1.55-1.47.98,0,1.46.48,1.46,1.41v2.84ZM109.88,155.92c-.13-.02-.27-.03-.5-.03-.9,0-1.27.43-1.27,1,0,.47.25.9.79.9.74,0,.98-.52.98-1.59v-.28ZM112.54,153.25v5.39c0,.92-.12,1.62-1.1,1.62-.1,0-.2,0-.32-.02v-.64c.09,0,.18,0,.23,0,.39,0,.46-.24.46-.8v-5.55h.73ZM111.82,152.25v-1.05h.73v1.05h-.73ZM116.99,155.72c0,1.78-.6,2.69-1.74,2.69s-1.74-.87-1.74-2.67.69-2.58,1.77-2.58,1.71.86,1.71,2.56ZM114.25,155.74c0,1.38.34,2.03,1,2.03s.99-.66.99-2.04c0-1.3-.32-1.93-.99-1.93s-1,.57-1,1.94ZM117.94,153.25h.7c0,.13.02.37.02.9.22-.61.7-.97,1.34-.98v.81c-.87.03-1.33.58-1.33,1.51v2.83h-.73v-3.34c0-.81,0-1.36,0-1.73ZM120.68,153.25h.73v5.07h-.73v-5.07ZM120.68,151.2h.73v1.05h-.73v-1.05ZM122.09,153.25h.71v-1.35h.72v1.35h.88v.63h-.88v3.33c0,.35.08.57.46.57.12,0,.26,0,.36-.03v.56c-.17.07-.43.08-.6.08-.6,0-.94-.24-.94-1.04v-3.47h-.71v-.63ZM125.54,155.92c0,.99.17,1.86.97,1.86s.9-.75.92-.91h.72c-.01.13-.16,1.54-1.65,1.54s-1.7-1.37-1.7-2.63c0-1.6.55-2.62,1.74-2.62,1.33,0,1.65,1.1,1.65,2.36,0,.1,0,.27-.01.39h-2.64ZM127.46,155.35c0-.87-.18-1.55-.92-1.55-.93,0-.97,1.21-.99,1.55h1.91ZM127.94,151.09l-1.25,1.39h-.68l1.07-1.39h.87ZM127.46,155.35h0ZM134.2,151.2v5.81c0,.49,0,1,0,1.3h-.71c-.01-.13-.03-.46-.03-.68-.16.44-.48.77-1.19.77-1.05,0-1.5-.9-1.5-2.68,0-1.62.6-2.56,1.66-2.56.66,0,.91.28,1.03.53v-2.49h.73ZM131.53,155.74c0,1.46.33,2.02.95,2.02.79,0,1-.67,1-2.05,0-1.48-.21-1.9-.94-1.9-.6,0-1.01.53-1.01,1.92ZM135.88,155.92c0,.99.17,1.86.97,1.86s.9-.75.92-.91h.72c-.01.13-.16,1.54-1.65,1.54s-1.7-1.37-1.7-2.63c0-1.6.55-2.62,1.74-2.62,1.33,0,1.65,1.1,1.65,2.36,0,.1,0,.27-.01.39h-2.64ZM137.8,155.35c0-.87-.18-1.55-.92-1.55-.93,0-.97,1.21-.99,1.55h1.91ZM137.8,155.35h0ZM140.78,157.81c.55,0,.82-.33.82-.8,0-.52-.27-.76-.93-1.02-1.05-.4-1.35-.78-1.35-1.48s.42-1.34,1.45-1.34c1.13,0,1.46.77,1.46,1.44h-.72c-.01-.24-.07-.84-.77-.84-.48,0-.7.3-.7.7s.18.6.88.88c.98.38,1.41.74,1.41,1.6,0,.92-.58,1.47-1.59,1.47s-1.56-.63-1.59-1.55h.73c.03.54.32.95.9.95ZM145.14,153.25h.7c0,.13.02.37.02.9.22-.61.7-.97,1.34-.98v.81c-.87.03-1.33.58-1.33,1.51v2.83h-.73v-3.34c0-.81,0-1.36,0-1.73ZM148.33,155.92c0,.99.17,1.86.97,1.86s.9-.75.92-.91h.72c-.01.13-.16,1.54-1.65,1.54s-1.7-1.37-1.7-2.63c0-1.6.55-2.62,1.74-2.62,1.33,0,1.65,1.1,1.65,2.36,0,.1,0,.27-.01.39h-2.64ZM150.25,155.35c0-.87-.18-1.55-.92-1.55-.93,0-.97,1.21-.99,1.55h1.91ZM150.25,155.35h0ZM152.22,153.25c.42,1.64.92,3.62,1.02,4.25h0c.07-.56.83-3.21,1.07-4.25h.74l-1.45,5.07h-.79l-1.38-5.07h.78ZM158.88,156.93c0,.64,0,1.14,0,1.39h-.7c-.02-.15-.03-.35-.04-.68-.18.5-.61.77-1.2.77s-1.27-.24-1.27-1.51v-3.64h.74v3.47c0,.65.18,1.04.76,1.04s.96-.34.96-1.44v-3.08h.74v3.68ZM160.56,155.92c0,.99.17,1.86.97,1.86s.9-.75.92-.91h.72c-.01.13-.16,1.54-1.65,1.54s-1.7-1.37-1.7-2.63c0-1.6.55-2.62,1.74-2.62,1.33,0,1.65,1.1,1.65,2.36,0,.1,0,.27-.01.39h-2.64ZM162.48,155.35c0-.87-.18-1.55-.92-1.55-.93,0-.97,1.21-.99,1.55h1.91ZM162.48,155.35h0ZM165.46,157.81c.55,0,.82-.33.82-.8,0-.52-.27-.76-.93-1.02-1.05-.4-1.35-.78-1.35-1.48s.42-1.34,1.45-1.34c1.13,0,1.46.77,1.46,1.44h-.72c-.01-.24-.07-.84-.77-.84-.48,0-.7.3-.7.7s.18.6.88.88c.98.38,1.41.74,1.41,1.6,0,.92-.58,1.47-1.59,1.47s-1.56-.63-1.59-1.55h.73c.03.54.32.95.9.95Z"/>
    <path class="cls-1" d="M27.27,169.8v2.38h-.73v-5.45c0-.69,0-1.16,0-1.48h.71c.01.09.03.43.03.68.18-.44.53-.77,1.21-.77.96,0,1.48.85,1.48,2.55,0,1.82-.63,2.7-1.63,2.7-.61,0-.91-.29-1.05-.61ZM29.2,167.75c0-1.27-.3-1.93-.96-1.93-.79,0-1,.75-1,1.94s.11,2.01.96,2.01c.66,0,1-.77,1-2.02ZM33.83,169.42c0,.32.03.74.04.9h-.67c-.03-.11-.05-.38-.05-.58-.19.41-.57.67-1.2.67-.97,0-1.32-.76-1.32-1.47,0-.93.63-1.62,1.96-1.62.24,0,.38,0,.53.02v-.68c0-.4-.08-.9-.76-.9-.74,0-.79.53-.82.87h-.71c.02-.72.37-1.47,1.55-1.47.98,0,1.46.48,1.46,1.41v2.84ZM33.13,167.92c-.13-.02-.27-.03-.5-.03-.9,0-1.27.43-1.27,1,0,.47.25.9.79.9.74,0,.98-.52.98-1.59v-.28ZM35.78,169.8v2.38h-.73v-5.45c0-.69,0-1.16,0-1.48h.71c.01.09.03.43.03.68.18-.44.53-.77,1.21-.77.96,0,1.48.85,1.48,2.55,0,1.82-.63,2.7-1.63,2.7-.61,0-.91-.29-1.05-.61ZM37.71,167.75c0-1.27-.3-1.93-.96-1.93-.79,0-1,.75-1,1.94s.11,2.01.96,2.01c.66,0,1-.77,1-2.02ZM39.42,165.25h.73v5.07h-.73v-5.07ZM39.42,163.2h.73v1.05h-.73v-1.05ZM41.84,167.92c0,.99.17,1.86.97,1.86s.9-.75.92-.91h.72c-.01.13-.16,1.54-1.65,1.54s-1.7-1.37-1.7-2.63c0-1.6.55-2.62,1.74-2.62,1.33,0,1.65,1.1,1.65,2.36,0,.1,0,.27-.01.39h-2.64ZM43.77,167.35c0-.87-.18-1.55-.92-1.55-.93,0-.97,1.21-.99,1.55h1.91ZM43.77,167.35h0ZM45.42,165.25h.7c0,.13.02.37.02.9.22-.61.7-.97,1.34-.98v.81c-.87.03-1.33.58-1.33,1.51v2.83h-.73v-3.34c0-.81,0-1.36,0-1.73ZM53.04,169.42c0,.32.03.74.04.9h-.67c-.03-.11-.05-.38-.05-.58-.19.41-.57.67-1.2.67-.97,0-1.32-.76-1.32-1.47,0-.93.63-1.62,1.96-1.62.24,0,.38,0,.53.02v-.68c0-.4-.08-.9-.76-.9-.74,0-.79.53-.82.87h-.71c.02-.72.37-1.47,1.55-1.47.98,0,1.46.48,1.46,1.41v2.84ZM52.34,167.92c-.13-.02-.27-.03-.5-.03-.9,0-1.27.43-1.27,1,0,.47.25.9.79.9.74,0,.98-.52.98-1.59v-.28ZM57.4,168.93c0,.64,0,1.14,0,1.39h-.7c-.02-.15-.03-.35-.04-.68-.18.5-.61.77-1.2.77s-1.27-.24-1.27-1.51v-3.64h.74v3.47c0,.65.18,1.04.76,1.04s.96-.34.96-1.44v-3.08h.74v3.68ZM58.83,165.25c.53,1.1.8,1.6.93,1.88h0c.16-.34.51-1.01.95-1.88h.78l-1.33,2.42,1.35,2.65h-.82c-.5-1.05-.81-1.66-.95-1.97h0c-.13.27-.5,1.03-.97,1.97h-.79l1.33-2.55-1.3-2.52h.81ZM64.51,169.68c-.19.44-.54.73-1.19.73-.95,0-1.51-.78-1.51-2.63,0-1.68.64-2.62,1.63-2.62.67,0,.95.32,1.06.64,0-.28.02-.46.03-.55h.71c0,.36,0,.78,0,1.5v5.43h-.72v-2.5ZM62.56,167.79c0,1.21.28,1.98.96,1.98.82,0,.99-.71.99-2.01s-.11-1.95-.94-1.95c-.64,0-1.01.69-1.01,1.98ZM69.63,168.93c0,.64,0,1.14,0,1.39h-.7c-.02-.15-.03-.35-.04-.68-.18.5-.61.77-1.2.77s-1.27-.24-1.27-1.51v-3.64h.74v3.47c0,.65.18,1.04.76,1.04s.96-.34.96-1.44v-3.08h.74v3.68ZM71.3,167.92c0,.99.17,1.86.97,1.86s.9-.75.92-.91h.72c-.01.13-.16,1.54-1.65,1.54s-1.7-1.37-1.7-2.63c0-1.6.55-2.62,1.74-2.62,1.33,0,1.65,1.1,1.65,2.36,0,.1,0,.27-.01.39h-2.64ZM73.23,167.35c0-.87-.18-1.55-.92-1.55-.93,0-.97,1.21-.99,1.55h1.91ZM73.23,167.35h0ZM74.89,170.32v-7.12h.73v7.12h-.73ZM76.85,170.32v-7.12h.73v7.12h-.73ZM79.27,167.92c0,.99.17,1.86.97,1.86s.9-.75.92-.91h.72c-.01.13-.16,1.54-1.65,1.54s-1.7-1.37-1.7-2.63c0-1.6.55-2.62,1.74-2.62,1.33,0,1.65,1.1,1.65,2.36,0,.1,0,.27-.01.39h-2.64ZM81.2,167.35c0-.87-.18-1.55-.92-1.55-.93,0-.97,1.21-.99,1.55h1.91ZM81.2,167.35h0ZM84.17,169.81c.55,0,.82-.33.82-.8,0-.52-.27-.76-.93-1.02-1.05-.4-1.35-.78-1.35-1.48s.42-1.34,1.45-1.34c1.13,0,1.46.77,1.46,1.44h-.72c-.01-.24-.07-.84-.77-.84-.48,0-.7.3-.7.7s.18.6.88.88c.98.38,1.41.74,1.41,1.6,0,.92-.58,1.47-1.59,1.47s-1.56-.63-1.59-1.55h.73c.03.54.32.95.9.95ZM88.54,170.32v-7.12h.73v7.12h-.73ZM93.37,169.42c0,.32.03.74.04.9h-.67c-.03-.11-.05-.38-.05-.58-.19.41-.57.67-1.2.67-.97,0-1.32-.76-1.32-1.47,0-.93.63-1.62,1.96-1.62.24,0,.38,0,.53.02v-.68c0-.4-.08-.9-.76-.9-.74,0-.79.53-.82.87h-.71c.02-.72.37-1.47,1.55-1.47.98,0,1.46.48,1.46,1.41v2.84ZM92.67,167.92c-.13-.02-.27-.03-.5-.03-.9,0-1.27.43-1.27,1,0,.47.25.9.79.9.74,0,.98-.52.98-1.59v-.28ZM96.57,163.53h1.77c1.02,0,1.64.61,1.64,1.65,0,.91-.44,1.3-.83,1.44.51.18,1.06.66,1.06,1.7,0,1.22-.74,1.99-1.91,1.99h-1.72v-6.79ZM98.08,166.36c.85,0,1.16-.38,1.16-1.11,0-.68-.36-1.1-1.07-1.1h-.87v2.21h.78ZM97.3,169.7h.91c.8,0,1.23-.48,1.23-1.37s-.46-1.36-1.37-1.36h-.77v2.73ZM101.14,165.25h.73v5.07h-.73v-5.07ZM101.14,163.2h.73v1.05h-.73v-1.05ZM103.1,163.2h.73v2.72c.16-.39.51-.76,1.21-.76.97,0,1.48.81,1.48,2.49,0,1.57-.42,2.74-1.62,2.74-.65,0-.94-.32-1.09-.68,0,.17-.01.4-.03.6h-.69c0-.27,0-.77,0-1.39v-5.72ZM105.78,167.67c0-1.27-.3-1.86-.93-1.86-.78,0-1.04.7-1.04,1.98,0,1.22.2,1.96.97,1.96.68,0,1-.66,1-2.09ZM107.46,170.32v-7.12h.73v7.12h-.73ZM109.4,165.25h.73v5.07h-.73v-5.07ZM109.4,163.2h.73v1.05h-.73v-1.05ZM114.58,167.72c0,1.78-.6,2.69-1.74,2.69s-1.74-.87-1.74-2.67.69-2.58,1.77-2.58,1.71.86,1.71,2.56ZM111.84,167.74c0,1.38.34,2.03,1,2.03s.99-.66.99-2.04c0-1.3-.32-1.93-.99-1.93s-1,.57-1,1.94ZM114.92,165.25h.71v-1.35h.72v1.35h.88v.63h-.88v3.33c0,.35.08.57.46.57.12,0,.26,0,.36-.03v.56c-.17.07-.43.08-.6.08-.6,0-.94-.24-.94-1.04v-3.47h-.71v-.63ZM118.68,163.2v2.67c.18-.41.57-.71,1.21-.71.74,0,1.28.46,1.28,1.55v3.6h-.74v-3.45c0-.62-.18-1.05-.8-1.05-.7,0-.95.57-.95,1.46v3.05h-.74v-7.12h.74ZM122.85,167.92c0,.99.17,1.86.97,1.86s.9-.75.92-.91h.72c-.01.13-.16,1.54-1.65,1.54s-1.7-1.37-1.7-2.63c0-1.6.55-2.62,1.74-2.62,1.33,0,1.65,1.1,1.65,2.36,0,.1,0,.27-.01.39h-2.64ZM123.22,163.1l1.07,1.39h-.69l-1.26-1.39h.88ZM124.78,167.35c0-.87-.18-1.55-.92-1.55-.93,0-.97,1.21-.99,1.55h1.91ZM124.78,167.35h0ZM128.97,169.68c-.19.44-.54.73-1.19.73-.95,0-1.51-.78-1.51-2.63,0-1.68.64-2.62,1.63-2.62.67,0,.95.32,1.06.64,0-.28.02-.46.03-.55h.71c0,.36,0,.78,0,1.5v5.43h-.72v-2.5ZM127.02,167.79c0,1.21.28,1.98.96,1.98.82,0,.99-.71.99-2.01s-.11-1.95-.94-1.95c-.64,0-1.01.69-1.01,1.98ZM134.09,168.93c0,.64,0,1.14,0,1.39h-.7c-.02-.15-.03-.35-.04-.68-.18.5-.61.77-1.2.77s-1.27-.24-1.27-1.51v-3.64h.74v3.47c0,.65.18,1.04.76,1.04s.96-.34.96-1.44v-3.08h.74v3.68ZM135.76,167.92c0,.99.17,1.86.97,1.86s.9-.75.92-.91h.72c-.01.13-.16,1.54-1.65,1.54s-1.7-1.37-1.7-2.63c0-1.6.55-2.62,1.74-2.62,1.33,0,1.65,1.1,1.65,2.36,0,.1,0,.27-.01.39h-2.64ZM137.69,167.35c0-.87-.18-1.55-.92-1.55-.93,0-.97,1.21-.99,1.55h1.91ZM137.69,167.35h0ZM141.74,167.92c0,.99.17,1.86.97,1.86s.9-.75.92-.91h.72c-.01.13-.16,1.54-1.65,1.54s-1.7-1.37-1.7-2.63c0-1.6.55-2.62,1.74-2.62,1.33,0,1.65,1.1,1.65,2.36,0,.1,0,.27-.01.39h-2.64ZM143.67,167.35c0-.87-.18-1.55-.92-1.55-.93,0-.97,1.21-.99,1.55h1.91ZM143.67,167.35h0ZM146.64,169.81c.55,0,.82-.33.82-.8,0-.52-.27-.76-.93-1.02-1.05-.4-1.35-.78-1.35-1.48s.42-1.34,1.45-1.34c1.13,0,1.46.77,1.46,1.44h-.72c-.01-.24-.07-.84-.77-.84-.48,0-.7.3-.7.7s.18.6.88.88c.98.38,1.41.74,1.41,1.6,0,.92-.58,1.47-1.59,1.47s-1.56-.63-1.59-1.55h.73c.03.54.32.95.9.95ZM148.55,165.25h.71v-1.35h.72v1.35h.88v.63h-.88v3.33c0,.35.08.57.46.57.12,0,.26,0,.36-.03v.56c-.17.07-.43.08-.6.08-.6,0-.94-.24-.94-1.04v-3.47h-.71v-.63Z"/>
    <path class="cls-1" d="M29.48,181.42c0,.32.03.74.04.9h-.67c-.03-.11-.05-.38-.05-.58-.19.41-.57.67-1.2.67-.97,0-1.32-.76-1.32-1.47,0-.93.63-1.62,1.96-1.62.24,0,.38,0,.53.02v-.68c0-.4-.08-.9-.76-.9-.74,0-.79.53-.82.87h-.71c.02-.72.37-1.47,1.55-1.47.98,0,1.46.48,1.46,1.41v2.84ZM28.78,179.92c-.13-.02-.27-.03-.5-.03-.9,0-1.27.43-1.27,1,0,.47.25.9.79.9.74,0,.98-.52.98-1.59v-.28ZM30.7,175.2h.73v2.72c.16-.39.51-.76,1.21-.76.97,0,1.48.81,1.48,2.49,0,1.57-.42,2.74-1.62,2.74-.65,0-.94-.32-1.09-.68,0,.17-.01.4-.03.6h-.69c0-.27,0-.77,0-1.39v-5.72ZM33.38,179.67c0-1.27-.3-1.86-.93-1.86-.78,0-1.04.7-1.04,1.98,0,1.22.2,1.96.97,1.96.68,0,1-.66,1-2.09ZM38.32,179.72c0,1.78-.6,2.69-1.74,2.69s-1.74-.87-1.74-2.67.69-2.58,1.77-2.58,1.71.86,1.71,2.56ZM35.58,179.74c0,1.38.34,2.03,1,2.03s.99-.66.99-2.04c0-1.3-.32-1.93-.99-1.93s-1,.57-1,1.94ZM39.26,177.25h.71c.01.12.03.32.03.66.17-.4.52-.75,1.2-.75.73,0,1.3.42,1.3,1.54v3.61h-.74v-3.47c0-.62-.2-1.04-.78-1.04-.68,0-.97.45-.97,1.49v3.02h-.74v-3.5c0-1.04,0-1.33,0-1.57ZM43.69,177.25h.71c.01.12.03.32.03.66.17-.4.52-.75,1.2-.75.73,0,1.3.42,1.3,1.54v3.61h-.74v-3.47c0-.62-.2-1.04-.78-1.04-.68,0-.97.45-.97,1.49v3.02h-.74v-3.5c0-1.04,0-1.33,0-1.57ZM48.61,179.92c0,.99.17,1.86.97,1.86s.9-.75.92-.91h.72c-.01.13-.16,1.54-1.65,1.54s-1.7-1.37-1.7-2.63c0-1.6.55-2.62,1.74-2.62,1.33,0,1.65,1.1,1.65,2.36,0,.1,0,.27-.01.39h-2.64ZM50.54,179.35c0-.87-.18-1.55-.92-1.55-.93,0-.97,1.21-.99,1.55h1.91ZM51.01,175.09l-1.25,1.39h-.68l1.07-1.39h.87ZM50.54,179.35h0ZM52.76,179.92c0,.99.17,1.86.97,1.86s.9-.75.92-.91h.72c-.01.13-.16,1.54-1.65,1.54s-1.7-1.37-1.7-2.63c0-1.6.55-2.62,1.74-2.62,1.33,0,1.65,1.1,1.65,2.36,0,.1,0,.27-.01.39h-2.64ZM54.68,179.35c0-.87-.18-1.55-.92-1.55-.93,0-.97,1.21-.99,1.55h1.91ZM54.68,179.35h0ZM59.51,181.81c.55,0,.82-.33.82-.8,0-.52-.27-.76-.93-1.02-1.05-.4-1.35-.78-1.35-1.48s.42-1.34,1.45-1.34c1.13,0,1.46.77,1.46,1.44h-.72c-.01-.24-.07-.84-.77-.84-.48,0-.7.3-.7.7s.18.6.88.88c.98.38,1.41.74,1.41,1.6,0,.92-.58,1.47-1.59,1.47s-1.56-.63-1.59-1.55h.73c.03.54.32.95.9.95ZM65.21,179.72c0,1.78-.6,2.69-1.74,2.69s-1.74-.87-1.74-2.67.69-2.58,1.77-2.58,1.71.86,1.71,2.56ZM62.47,179.74c0,1.38.34,2.03,1,2.03s.99-.66.99-2.04c0-1.3-.32-1.93-.99-1.93s-1,.57-1,1.94ZM66.16,177.25h.71c.01.12.03.32.03.66.17-.4.52-.75,1.2-.75.73,0,1.3.42,1.3,1.54v3.61h-.74v-3.47c0-.62-.2-1.04-.78-1.04-.68,0-.97.45-.97,1.49v3.02h-.74v-3.5c0-1.04,0-1.33,0-1.57ZM69.97,177.25h.71v-1.35h.72v1.35h.88v.63h-.88v3.33c0,.35.08.57.46.57.12,0,.26,0,.36-.03v.56c-.17.07-.43.08-.6.08-.6,0-.94-.24-.94-1.04v-3.47h-.71v-.63ZM75.38,179.92c0,.99.17,1.86.97,1.86s.9-.75.92-.91h.72c-.01.13-.16,1.54-1.65,1.54s-1.7-1.37-1.7-2.63c0-1.6.55-2.62,1.74-2.62,1.33,0,1.65,1.1,1.65,2.36,0,.1,0,.27-.01.39h-2.64ZM77.3,179.35c0-.87-.18-1.55-.92-1.55-.93,0-.97,1.21-.99,1.55h1.91ZM77.78,175.09l-1.25,1.39h-.68l1.07-1.39h.87ZM77.3,179.35h0ZM82.21,181.99c0,1.33-.32,2.27-1.77,2.27-1.31,0-1.59-.85-1.62-1.4h.74c.02.28.19.77.9.77.85,0,1.03-.62,1.03-1.64v-.46c-.18.52-.61.77-1.18.77-1.02,0-1.53-.87-1.53-2.46,0-1.82.67-2.68,1.64-2.68.69,0,.98.33,1.07.66,0-.22.02-.47.04-.58h.7c0,.27-.01.78-.01,1.46v3.28ZM79.53,179.83c0,1.23.34,1.83.97,1.83.79,0,1-.77,1-1.95s-.16-1.89-.94-1.89c-.67,0-1.03.7-1.03,2.02ZM86.3,181.42c0,.32.03.74.04.9h-.67c-.03-.11-.05-.38-.05-.58-.19.41-.57.67-1.2.67-.97,0-1.32-.76-1.32-1.47,0-.93.63-1.62,1.96-1.62.24,0,.38,0,.53.02v-.68c0-.4-.08-.9-.76-.9-.74,0-.79.53-.82.87h-.71c.02-.72.37-1.47,1.55-1.47.98,0,1.46.48,1.46,1.41v2.84ZM85.6,179.92c-.13-.02-.27-.03-.5-.03-.9,0-1.27.43-1.27,1,0,.47.25.9.79.9.74,0,.98-.52.98-1.59v-.28ZM87.52,182.32v-7.12h.73v7.12h-.73ZM89.94,179.92c0,.99.17,1.86.97,1.86s.9-.75.92-.91h.72c-.01.13-.16,1.54-1.65,1.54s-1.7-1.37-1.7-2.63c0-1.6.55-2.62,1.74-2.62,1.33,0,1.65,1.1,1.65,2.36,0,.1,0,.27-.01.39h-2.64ZM91.86,179.35c0-.87-.18-1.55-.92-1.55-.93,0-.97,1.21-.99,1.55h1.91ZM91.86,179.35h0ZM93.53,178.77c0-.9,0-1.28,0-1.52h.7c.02.15.03.41.03.65.2-.44.56-.73,1.13-.73.53,0,.9.23,1.05.75.18-.41.57-.75,1.23-.75s1.23.31,1.23,1.47v3.68h-.72v-3.55c0-.51-.15-.95-.72-.95-.64,0-.87.57-.87,1.25v3.25h-.73v-3.53c0-.63-.21-.97-.7-.97-.6,0-.89.55-.89,1.32v3.18h-.73v-3.55ZM100.57,179.92c0,.99.17,1.86.97,1.86s.9-.75.92-.91h.72c-.01.13-.16,1.54-1.65,1.54s-1.7-1.37-1.7-2.63c0-1.6.55-2.62,1.74-2.62,1.33,0,1.65,1.1,1.65,2.36,0,.1,0,.27-.01.39h-2.64ZM102.49,179.35c0-.87-.18-1.55-.92-1.55-.93,0-.97,1.21-.99,1.55h1.91ZM102.49,179.35h0ZM104.15,177.25h.71c.01.12.03.32.03.66.17-.4.52-.75,1.2-.75.73,0,1.3.42,1.3,1.54v3.61h-.74v-3.47c0-.62-.2-1.04-.78-1.04-.68,0-.97.45-.97,1.49v3.02h-.74v-3.5c0-1.04,0-1.33,0-1.57ZM107.96,177.25h.71v-1.35h.72v1.35h.88v.63h-.88v3.33c0,.35.08.57.46.57.12,0,.26,0,.36-.03v.56c-.17.07-.43.08-.6.08-.6,0-.94-.24-.94-1.04v-3.47h-.71v-.63ZM115.83,181.42c0,.32.03.74.04.9h-.67c-.03-.11-.05-.38-.05-.58-.19.41-.57.67-1.2.67-.97,0-1.32-.76-1.32-1.47,0-.93.63-1.62,1.96-1.62.24,0,.38,0,.53.02v-.68c0-.4-.08-.9-.76-.9-.74,0-.79.53-.82.87h-.71c.02-.72.37-1.47,1.55-1.47.98,0,1.46.48,1.46,1.41v2.84ZM115.13,179.92c-.13-.02-.27-.03-.5-.03-.9,0-1.27.43-1.27,1,0,.47.25.9.79.9.74,0,.98-.52.98-1.59v-.28ZM120.09,180.77c-.02.27-.13,1.64-1.61,1.64-1.33,0-1.68-1.17-1.68-2.64s.46-2.6,1.75-2.6c1.47,0,1.54,1.36,1.54,1.6h-.75c0-.21-.08-.97-.8-.97s-1,.8-1,1.97c0,1.26.28,2.01.96,2.01.73,0,.82-.74.86-1.01h.73ZM124.06,180.77c-.02.27-.13,1.64-1.61,1.64-1.33,0-1.68-1.17-1.68-2.64s.46-2.6,1.75-2.6c1.47,0,1.54,1.36,1.54,1.6h-.75c0-.21-.08-.97-.8-.97s-1,.8-1,1.97c0,1.26.28,2.01.96,2.01.73,0,.82-.74.86-1.01h.73ZM125.47,179.92c0,.99.17,1.86.97,1.86s.9-.75.92-.91h.72c-.01.13-.16,1.54-1.65,1.54s-1.7-1.37-1.7-2.63c0-1.6.55-2.62,1.74-2.62,1.33,0,1.65,1.1,1.65,2.36,0,.1,0,.27-.01.39h-2.64ZM127.39,179.35c0-.87-.18-1.55-.92-1.55-.93,0-.97,1.21-.99,1.55h1.91ZM127.39,179.35h0ZM130.37,181.81c.55,0,.82-.33.82-.8,0-.52-.27-.76-.93-1.02-1.05-.4-1.35-.78-1.35-1.48s.42-1.34,1.45-1.34c1.13,0,1.46.77,1.46,1.44h-.72c-.01-.24-.07-.84-.77-.84-.48,0-.7.3-.7.7s.18.6.88.88c.98.38,1.41.74,1.41,1.6,0,.92-.58,1.47-1.59,1.47s-1.56-.63-1.59-1.55h.73c.03.54.32.95.9.95ZM134.14,181.81c.55,0,.82-.33.82-.8,0-.52-.27-.76-.93-1.02-1.05-.4-1.35-.78-1.35-1.48s.42-1.34,1.45-1.34c1.13,0,1.46.77,1.46,1.44h-.72c-.01-.24-.07-.84-.77-.84-.48,0-.7.3-.7.7s.18.6.88.88c.98.38,1.41.74,1.41,1.6,0,.92-.58,1.47-1.59,1.47s-1.56-.63-1.59-1.55h.73c.03.54.32.95.9.95ZM136.57,177.25h.73v5.07h-.73v-5.07ZM136.58,175.2h.73v1.05h-.73v-1.05ZM138.54,175.2h.73v2.72c.16-.39.51-.76,1.21-.76.97,0,1.48.81,1.48,2.49,0,1.57-.42,2.74-1.62,2.74-.65,0-.94-.32-1.09-.68,0,.17-.01.4-.03.6h-.69c0-.27,0-.77,0-1.39v-5.72ZM141.22,179.67c0-1.27-.3-1.86-.93-1.86-.78,0-1.04.7-1.04,1.98,0,1.22.2,1.96.97,1.96.68,0,1-.66,1-2.09ZM142.89,182.32v-7.12h.73v7.12h-.73ZM145.32,179.92c0,.99.17,1.86.97,1.86s.9-.75.92-.91h.72c-.01.13-.16,1.54-1.65,1.54s-1.7-1.37-1.7-2.63c0-1.6.55-2.62,1.74-2.62,1.33,0,1.65,1.1,1.65,2.36,0,.1,0,.27-.01.39h-2.64ZM147.24,179.35c0-.87-.18-1.55-.92-1.55-.93,0-.97,1.21-.99,1.55h1.91ZM147.24,179.35h0ZM150.22,181.81c.55,0,.82-.33.82-.8,0-.52-.27-.76-.93-1.02-1.05-.4-1.35-.78-1.35-1.48s.42-1.34,1.45-1.34c1.13,0,1.46.77,1.46,1.44h-.72c-.01-.24-.07-.84-.77-.84-.48,0-.7.3-.7.7s.18.6.88.88c.98.38,1.41.74,1.41,1.6,0,.92-.58,1.47-1.59,1.47s-1.56-.63-1.59-1.55h.73c.03.54.32.95.9.95ZM155.07,179.92c0,.99.17,1.86.97,1.86s.9-.75.92-.91h.72c-.01.13-.16,1.54-1.65,1.54s-1.7-1.37-1.7-2.63c0-1.6.55-2.62,1.74-2.62,1.33,0,1.65,1.1,1.65,2.36,0,.1,0,.27-.01.39h-2.64ZM156.99,179.35c0-.87-.18-1.55-.92-1.55-.93,0-.97,1.21-.99,1.55h1.91ZM156.99,179.35h0ZM158.64,177.25h.71c.01.12.03.32.03.66.17-.4.52-.75,1.2-.75.73,0,1.3.42,1.3,1.54v3.61h-.74v-3.47c0-.62-.2-1.04-.78-1.04-.68,0-.97.45-.97,1.49v3.02h-.74v-3.5c0-1.04,0-1.33,0-1.57Z"/>
    <path class="cls-1" d="M26.54,194.32v-7.12h.73v7.12h-.73ZM28.48,189.25h.73v5.07h-.73v-5.07ZM28.48,187.2h.73v1.05h-.73v-1.05ZM33.59,193.99c0,1.33-.32,2.27-1.77,2.27-1.31,0-1.59-.85-1.62-1.4h.74c.02.28.19.77.9.77.85,0,1.03-.62,1.03-1.64v-.46c-.18.52-.61.77-1.18.77-1.02,0-1.53-.87-1.53-2.46,0-1.82.67-2.68,1.64-2.68.69,0,.98.33,1.07.66,0-.22.02-.47.04-.58h.7c0,.27-.01.78-.01,1.46v3.28ZM30.92,191.83c0,1.23.34,1.83.97,1.83.79,0,1-.77,1-1.95s-.16-1.89-.94-1.89c-.67,0-1.03.7-1.03,2.02ZM34.8,189.25h.71c.01.12.03.32.03.66.17-.4.52-.75,1.2-.75.73,0,1.3.42,1.3,1.54v3.61h-.74v-3.47c0-.62-.2-1.04-.78-1.04-.68,0-.97.45-.97,1.49v3.02h-.74v-3.5c0-1.04,0-1.33,0-1.57ZM39.72,191.92c0,.99.17,1.86.97,1.86s.9-.75.92-.91h.72c-.01.13-.16,1.54-1.65,1.54s-1.7-1.37-1.7-2.63c0-1.6.55-2.62,1.74-2.62,1.33,0,1.65,1.1,1.65,2.36,0,.1,0,.27-.01.39h-2.64ZM41.65,191.35c0-.87-.18-1.55-.92-1.55-.93,0-.97,1.21-.99,1.55h1.91ZM41.65,191.35h0ZM43.14,192.95h.74v1.38h-.74v-1.38Z"/>
    <path class="cls-1" d="M66.52,72.19l-3.47-13.99h2.34l1.37,6.17c.42,1.89.86,4.09,1.03,5.51h.04c.17-1.35.74-3.6,1.16-5.47l1.36-6.21h2.27l-3.55,13.99h-2.55ZM73.22,65.18c0-1.73,0-2.84-.02-3.6h2.05c.02.21.06.67.06,1.8.42-1.23,1.38-1.96,2.79-1.97v2.39c-1.77,0-2.73.72-2.73,2.71v5.69h-2.14v-7.01ZM85.9,70.02c0,.57.05,1.73.08,2.16h-1.95c-.05-.22-.1-.72-.1-1.06-.4.74-1.13,1.25-2.43,1.25-2.04,0-2.81-1.61-2.81-3.12,0-2.1,1.43-3.46,4.15-3.46.4,0,.69,0,.95.03v-1.24c0-.69-.11-1.52-1.29-1.52s-1.31.82-1.37,1.52h-2.04c.04-1.55.77-3.18,3.49-3.18,2.21,0,3.32,1.02,3.32,3.02v5.6ZM83.84,67.41c-.25-.04-.5-.05-.88-.05-1.56,0-2.16.73-2.16,1.71,0,.76.38,1.55,1.36,1.55,1.35,0,1.67-.99,1.67-2.79v-.42ZM90.34,61.57v10.61h-2.14v-10.61h2.14ZM90.36,57.51v2.34h-2.14v-2.34h2.14ZM92.04,72.6l4.02-14.49h1.64l-4,14.49h-1.66ZM99.55,58.2h6.94v1.91h-4.77v3.96h4.49v1.88h-4.49v6.23h-2.16v-13.99ZM114.3,70.02c0,.57.05,1.73.08,2.16h-1.95c-.05-.22-.1-.72-.1-1.06-.4.74-1.13,1.25-2.43,1.25-2.04,0-2.81-1.61-2.81-3.12,0-2.1,1.43-3.46,4.15-3.46.4,0,.69,0,.95.03v-1.24c0-.69-.11-1.52-1.29-1.52s-1.31.82-1.37,1.52h-2.04c.04-1.55.77-3.18,3.49-3.18,2.21,0,3.32,1.02,3.32,3.02v5.6ZM112.24,67.41c-.25-.04-.5-.05-.88-.05-1.56,0-2.16.73-2.16,1.71,0,.76.38,1.55,1.36,1.55,1.35,0,1.67-.99,1.67-2.79v-.42ZM123.69,72.19h-2.04c-.06-.32-.08-.78-.09-1.24-.44,1-1.24,1.43-2.42,1.43-1.42,0-2.65-.66-2.65-3.18v-7.62h2.15v7.13c0,1.15.27,1.82,1.27,1.82s1.62-.57,1.62-2.46v-6.49h2.15v7.57c0,1.47,0,2.51.02,3.05ZM127.21,61.57c.9,1.96,1.37,2.94,1.63,3.51h.02c.31-.72.91-1.92,1.65-3.51h2.27l-2.74,5.02,2.75,5.59h-2.38c-.87-1.98-1.37-3.08-1.63-3.68h-.02c-.25.56-.92,2.04-1.68,3.68h-2.28l2.71-5.3-2.65-5.32h2.35Z"/>
  </g>
</svg>