<?xml version="1.0" encoding="UTF-8"?>
<svg id="Calque_1" data-name="Calque 1" xmlns="http://www.w3.org/2000/svg" xmlns:xlink="http://www.w3.org/1999/xlink" viewBox="0 0 195.59 269.29">
  <defs>
    <style>
      .cls-1 {
        font-size: 34.51px;
      }

      .cls-1, .cls-2 {
        font-family: Socafe, Socafe;
      }

      .cls-1, .cls-2, .cls-3 {
        fill: #f39207;
      }

      .cls-4 {
        letter-spacing: .06em;
      }

      .cls-2 {
        font-size: 35.7px;
      }

      .cls-5, .cls-6 {
        fill: #1d1d1b;
      }

      .cls-7 {
        letter-spacing: .08em;
      }

      .cls-8 {
        fill: #fff;
      }

      .cls-9 {
        letter-spacing: -.05em;
      }

      .cls-10, .cls-11, .cls-12, .cls-13 {
        fill: none;
      }

      .cls-11, .cls-12 {
        stroke-linecap: round;
        stroke-width: 3px;
      }

      .cls-11, .cls-13 {
        stroke: #f39207;
      }

      .cls-14 {
        clip-path: url(#clippath-1);
      }

      .cls-15 {
        fill: #f39200;
      }

      .cls-16 {
        fill: #507cbe;
      }

      .cls-17 {
        letter-spacing: 0em;
      }

      .cls-18 {
        clip-path: url(#clippath-3);
      }

      .cls-12 {
        stroke: #ffcb04;
      }

      .cls-19 {
        letter-spacing: -.05em;
      }

      .cls-20 {
        letter-spacing: -.05em;
      }

      .cls-21 {
        letter-spacing: .08em;
      }

      .cls-6 {
        font-family: ActionMan, 'Action Man';
        font-size: 7.12px;
      }

      .cls-22 {
        letter-spacing: .08em;
      }

      .cls-23 {
        letter-spacing: -.05em;
      }

      .cls-24 {
        fill: #31a852;
      }

      .cls-25 {
        clip-path: url(#clippath-2);
      }

      .cls-26 {
        letter-spacing: .06em;
      }

      .cls-27 {
        fill: #ffcd02;
      }

      .cls-28 {
        clip-path: url(#clippath);
      }
    </style>
    <clipPath id="clippath">
      <rect class="cls-10" width="195.59" height="269.29"/>
    </clipPath>
    <clipPath id="clippath-1">
      <rect class="cls-10" width="195.59" height="269.29"/>
    </clipPath>
    <clipPath id="clippath-2">
      <rect class="cls-10" x="16.3" y="217.56" width="179.29" height="35.74"/>
    </clipPath>
    <clipPath id="clippath-3">
      <rect class="cls-10" width="195.59" height="269.29"/>
    </clipPath>
  </defs>
  <g class="cls-28">
    <g class="cls-14">
      <text class="cls-2" transform="translate(43.6 45.34) scale(1 1.12)"><tspan x="0" y="0">J</tspan></text>
      <text class="cls-1" transform="translate(65.55 45.34)"><tspan x="0" y="0">OKER</tspan></text>
      <path class="cls-3" d="M78.6,24.09c-.37,0-.77-.05-1.14-.01-.64.06-.69.28-1.2.6-.49.3-1.15.58-1.7.83-.64.3-.87.59-1.35,1.12-.59.65-1.23,1.43-1.49,2.35-.44,1.54-.21,3.36-.21,4.96,0,.75-.14,1.68-.01,2.42.15.87.87,1.42,1.43,1.9.87.76,1.37.41,2.48.55.98.12,1.82.29,2.83.3,1.23.01,2.09.07,2.57-1.28.25-.68.35-1.1.7-1.76.05-.31.16-.59.33-.86.26-.26.5-.54.69-.85.28-.81.03-2.03.03-2.88,0-.95.02-1.91,0-2.86-.02-1.22-1.15-1.77-1.79-2.78-.57-.89-1.04-1.92-2.18-2.04"/>
      <path class="cls-13" d="M78.6,24.09c-.37,0-.77-.05-1.14-.01-.64.06-.69.28-1.2.6-.49.3-1.15.58-1.7.83-.64.3-.87.59-1.35,1.12-.59.65-1.23,1.43-1.49,2.35-.44,1.54-.21,3.36-.21,4.96,0,.75-.14,1.68-.01,2.42.15.87.87,1.42,1.43,1.9.87.76,1.37.41,2.48.55.98.12,1.82.29,2.83.3,1.23.01,2.09.07,2.57-1.28.25-.68.35-1.1.7-1.76.05-.31.16-.59.33-.86.26-.26.5-.54.69-.85.28-.81.03-2.03.03-2.88,0-.95.02-1.91,0-2.86-.02-1.22-1.15-1.77-1.79-2.78-.57-.89-1.04-1.92-2.18-2.04"/>
      <line class="cls-12" x1="24.8" y1="20.13" x2="33.9" y2="24.94"/>
      <line class="cls-11" x1="25" y1="20.13" x2="34.1" y2="24.94"/>
      <line class="cls-11" x1="22.48" y1="32.6" x2="31.97" y2="32.6"/>
      <line class="cls-11" x1="25" y1="45.07" x2="34.1" y2="40.25"/>
      <line class="cls-12" x1="170.44" y1="20.13" x2="161.34" y2="24.94"/>
      <line class="cls-11" x1="172.76" y1="32.6" x2="163.27" y2="32.6"/>
      <line class="cls-11" x1="170.24" y1="20.13" x2="161.14" y2="24.94"/>
      <line class="cls-11" x1="170.24" y1="45.07" x2="161.14" y2="40.25"/>
      <g class="cls-25">
        <path class="cls-24" d="M27.32,243.65c-.2-.22-.29-.51-.25-.8l1.62-.43c.16-.04.26-.21.22-.37-.04-.16-.21-.26-.37-.22l-1.37.37c0-.14-.02-.28-.06-.42-.04-.14-.09-.27-.16-.39l1.37-.37c.16-.04.26-.21.22-.37-.04-.16-.21-.26-.37-.22l-1.62.43c-.43-.55-.15-1.35.45-1.51l5.14-1.38c.61-.16,1.25.4,1.15,1.08l-1.73.46c-.16.05-.26.21-.22.38.04.16.21.26.37.22l1.47-.39c0,.14.02.28.06.42.04.14.09.27.16.39l-1.47.39c-.16.04-.26.21-.22.37.04.16.21.26.37.22l1.73-.46c.18.23.25.53.18.82-.08.35-.35.61-.64.69l-5.14,1.38c-.28.08-.65-.01-.9-.28"/>
        <path class="cls-24" d="M29.04,244.35l3.83-1.03c.06.94-.54,1.83-1.49,2.08h-.01c-.94.26-1.91-.21-2.33-1.06"/>
        <path class="cls-27" d="M31.35,225.76c.1-.05.23-.02.28.09.18.33.32.69.42,1.06.03.11-.04.23-.15.26-.11.03-.23-.04-.26-.15-.09-.34-.22-.66-.38-.97-.06-.1-.02-.23.09-.28M30.81,225.01c-.08.08-.22.08-.3,0-.61-.64-1.42-1.11-2.33-1.3-.11-.02-.19-.13-.16-.25.02-.11.14-.18.25-.16.99.22,1.87.72,2.54,1.42.08.08.08.22,0,.3M30.99,222.85c1.34.96,2.3,2.41,2.62,4.24.23,1.34-.02,2.76-.71,3.98-.21.37-.59,1.17-.76,2.36-.18,1.19-.11,2.41.22,3.63.03.11-.04.23-.15.26l-2.42.65c-.11.03-.23-.04-.26-.15l-4.19-15.63c-.03-.11.04-.23.15-.26.61-.16,1.08-.21,1.28-.23,1.38-.14,2.94.25,4.22,1.16"/>
        <path class="cls-15" d="M21.9,226.44c-.19.46.2.85.2.85.07.07.07.19,0,.26-.07.07-.19.07-.27,0-.03-.02-.57-.56-.28-1.24.29-.69,1.06-.68,1.09-.68.1,0,.18.08.18.19,0,.1-.09.18-.2.18-.02,0-.54,0-.73.45M22.84,230.89c.02.1-.05.19-.15.21-.03,0-.81.15-1.23-.44-.43-.6.02-1.22.04-1.25.06-.08.18-.1.26-.05.08.06.1.17.04.25-.01.02-.31.44-.03.83.28.4.83.3.85.3.1-.02.2.04.22.14M26.65,233.32c.09-.05.21-.02.26.06.36.62.02,1.44-.72,1.64-.27.07-.57.05-.82-.07-.09-.05-.13-.15-.08-.24.05-.09.16-.13.26-.08.3.15.68.08.92-.16.24-.24.29-.61.12-.89-.05-.09-.02-.2.07-.25M23.05,227.65c.08-.06.2-.05.27.03.61.75,1.1.19,1.99-.01.34-.08.68-.06.99.09l-1.16-4.33c-.19-.73-.97-1.15-1.72-.95-.76.2-1.21.96-1.02,1.69l.05.2c.24-.03.48-.03.72.01.14-.06.54-.27.61-.77.01-.1.11-.17.21-.16.1.01.18.1.16.2-.06.42-.28.69-.5.86.34.12.65.33.94.54.08.06.1.17.03.26-.07.08-.18.1-.27.04-.16-.11-.32-.22-.47-.31-.93-.55-2.15-.39-2.85.54-.87,1.15-.36,2.72.97,2.95.1.02.17.11.15.21-.02.1-.12.17-.22.15-.3-.05-.57-.16-.81-.32-.16.11-.45.36-.65.77-.56,1.19.31,2.52,1.63,2.66,0,0,.83.07,1.54-.49.71-.56.13-1.1,1.71-1.52.1-.03.2.03.23.13.03.1-.03.2-.14.23-.81.22-.91.42-1.02.7h0c.46-.02.86.19,1.16.54.07.08.05.19-.03.26-.08.06-.2.06-.27-.02-.43-.5-.91-.42-1.06-.38-.41.6-1.47,1.07-2.36.9-.21,1.09.68,2.1,1.85,2.03-.06-.66.2-1.33.71-1.8.08-.07.2-.07.27,0,.07.07.07.19,0,.26-.5.47-.71,1.17-.54,1.81.11.4.35.74.66.97.31.23.54.44.74.81.35.65.67,1.45.87,2.22.03.11.14.18.26.15l2.18-.58c.11-.03.18-.15.15-.26l-1.69-6.32c-.1-.32-.51-.53-.83-.63-.1-.03-.15-.13-.12-.23.03-.1.14-.15.24-.12,0,0,.01,0,.02,0,.2.06.36.14.49.22l-.68-2.54c-.23-.27-.62-.41-1.07-.31-.81.19-1.56.86-2.37-.11-.06-.08-.05-.19.03-.26"/>
        <path class="cls-16" d="M19.21,223.91c-.07.02-.16.01-.23-.03l-1.45-.84c-.14-.08-.19-.27-.11-.41.08-.14.26-.19.41-.11l1.45.84c.14.08.19.26.11.41-.04.07-.11.12-.18.14"/>
        <path class="cls-16" d="M31.31,220.66c-.07.02-.16.01-.23-.03-.14-.08-.19-.27-.11-.41l.84-1.45c.08-.14.26-.19.41-.11.14.08.19.27.11.41l-.83,1.45c-.04.07-.11.12-.18.14"/>
        <path class="cls-16" d="M18.32,230.63l-1.62.43c-.16.04-.32-.05-.37-.21-.04-.16.05-.32.21-.37l1.61-.43c.16-.04.32.05.37.21.04.16-.05.32-.21.37"/>
        <path class="cls-16" d="M37.06,225.61l-1.62.43c-.16.04-.32-.05-.37-.21-.04-.16.05-.32.21-.37l1.61-.43c.16-.04.32.05.37.21.04.16-.05.32-.21.37"/>
        <path class="cls-16" d="M24.53,219.79c-.16.04-.32-.05-.37-.21l-.43-1.61c-.04-.16.05-.32.21-.37.16-.04.32.05.37.21l.43,1.61c.04.16-.05.32-.21.37"/>
        <path class="cls-16" d="M21.49,221.31c-.11.03-.24,0-.32-.11l-.53-.69c-.1-.13-.08-.32.06-.42.13-.1.32-.08.42.06l.53.69c.1.13.08.32-.06.42-.03.02-.07.04-.1.05"/>
        <path class="cls-16" d="M18.1,227.18s-.08.01-.12,0l-.87-.11c-.16-.02-.28-.17-.26-.33.02-.16.17-.28.33-.26l.87.11c.16.02.28.17.26.33-.02.12-.11.22-.22.25"/>
        <path class="cls-16" d="M33.91,222.94c-.11.03-.24,0-.32-.11-.1-.13-.08-.32.06-.42l.69-.53c.13-.1.32-.08.42.06.1.13.08.32-.06.42l-.69.53s-.07.04-.1.05"/>
        <path class="cls-16" d="M28.04,219.55s-.08.01-.12,0c-.16-.02-.28-.17-.26-.34l.11-.87c.02-.16.17-.28.33-.26.16.02.28.17.26.34l-.11.86c-.02.12-.11.22-.22.25"/>
        <path class="cls-15" d="M36.89,221.69c.04.24.06.5.03.75-.02.17-.06.33-.12.48,1.13-.09,2.2.64,2.51,1.78.17.62.08,1.27-.24,1.83-.32.56-.84.96-1.46,1.12l-1.61.43c-.06.02-.12.01-.18.02,0,1.38-.37,2.76-1.07,4-.11.2-.38.74-.52,1.63-.14.9-.08,1.84.17,2.77.01.05.02.11.03.16.74.69,1.1,1.68.95,2.68-.01.07-.03.14-.04.21.05.05.1.11.14.16.58.74.8,1.69.58,2.61-.16.7-.58,1.29-1.13,1.72-.24,1.6-1.39,2.95-3,3.39-.23.06-.46.1-.69.12v5.74h164.35v-31.61H36.89Z"/>
      </g>
      <text class="cls-6" transform="translate(42.39 232.06)"><tspan class="cls-20" x="0" y="0">Si</tspan><tspan class="cls-4" x="4.72" y="0"> </tspan><tspan class="cls-9" x="7.79" y="0">v</tspan><tspan class="cls-20" x="10.64" y="0">o</tspan><tspan class="cls-9" x="14.21" y="0">u</tspan><tspan class="cls-20" x="17.62" y="0">s</tspan><tspan class="cls-4" x="21.05" y="0"> </tspan><tspan class="cls-20" x="24.12" y="0">a</tspan><tspan class="cls-9" x="27.48" y="0">v</tspan><tspan class="cls-20" x="30.32" y="0">e</tspan><tspan class="cls-9" x="33.74" y="0">z</tspan><tspan class="cls-26" x="37.23" y="0"> </tspan><tspan class="cls-19" x="40.31" y="0">r</tspan><tspan class="cls-23" x="44.03" y="0">é</tspan><tspan class="cls-19" x="47.47" y="0">po</tspan><tspan class="cls-9" x="53.87" y="0">ndu</tspan><tspan class="cls-26" x="63.92" y="0"> </tspan><tspan class="cls-20" x="67" y="0">correcte</tspan><tspan class="cls-23" x="94.87" y="0">m</tspan><tspan class="cls-19" x="99.12" y="0">e</tspan><tspan class="cls-9" x="102.54" y="0">n</tspan><tspan class="cls-20" x="105.91" y="0">t,</tspan><tspan class="cls-26" x="110.29" y="0"> </tspan><tspan class="cls-20" x="113.37" y="0">p</tspan><tspan class="cls-23" x="116.2" y="0">l</tspan><tspan class="cls-20" x="118.94" y="0">aceZ</tspan><tspan x="132.4" y="0"> </tspan></text>
      <text class="cls-6" transform="translate(42.39 240.35)"><tspan class="cls-23" x="0" y="0">l</tspan><tspan class="cls-20" x="2.75" y="0">a</tspan><tspan class="cls-7" x="6.11" y="0"> </tspan><tspan class="cls-20" x="9.37" y="0">c</tspan><tspan class="cls-23" x="12.7" y="0">a</tspan><tspan class="cls-19" x="16.06" y="0">rte</tspan><tspan class="cls-21" x="26.53" y="0"> </tspan><tspan class="cls-19" x="29.79" y="0">s</tspan><tspan class="cls-23" x="33.23" y="0">u</tspan><tspan class="cls-19" x="36.63" y="0">r</tspan><tspan class="cls-22" x="40.36" y="0"> </tspan><tspan class="cls-23" x="43.61" y="0">l</tspan><tspan class="cls-20" x="46.36" y="0">’o</tspan><tspan class="cls-9" x="50.98" y="0">bj</tspan><tspan class="cls-20" x="57.93" y="0">e</tspan><tspan class="cls-23" x="61.36" y="0">t</tspan><tspan class="cls-7" x="64.68" y="0"> </tspan><tspan class="cls-23" x="67.94" y="0">d</tspan><tspan class="cls-20" x="71.21" y="0">e</tspan><tspan class="cls-21" x="74.63" y="0"> </tspan><tspan class="cls-9" x="77.89" y="0">v</tspan><tspan class="cls-20" x="80.73" y="0">otre</tspan><tspan class="cls-7" x="94.78" y="0"> </tspan><tspan class="cls-20" x="98.04" y="0">choix.</tspan><tspan class="cls-7" x="114.39" y="0"> </tspan><tspan class="cls-20" x="117.64" y="0">S</tspan><tspan class="cls-23" x="121.09" y="0">i</tspan><tspan class="cls-7" x="122.36" y="0"> </tspan><tspan class="cls-20" x="125.61" y="0">ce</tspan><tspan class="cls-17" x="132.38" y="0"> </tspan></text>
      <text class="cls-6" transform="translate(42.39 248.64)"><tspan class="cls-9" x="0" y="0">n</tspan><tspan class="cls-20" x="3.37" y="0">’est</tspan><tspan class="cls-9" x="14.6" y="0"> </tspan><tspan class="cls-20" x="16.92" y="0">pas </tspan><tspan class="cls-23" x="28.86" y="0">l</tspan><tspan class="cls-20" x="31.61" y="0">e</tspan><tspan class="cls-9" x="35.03" y="0" xml:space="preserve"> ca</tspan><tspan class="cls-19" x="44.03" y="0">s,</tspan><tspan class="cls-9" x="48.51" y="0"> </tspan><tspan class="cls-19" x="50.83" y="0">sorte</tspan><tspan class="cls-9" x="68.31" y="0">z</tspan><tspan class="cls-19" x="71.8" y="0" xml:space="preserve"> cet</tspan><tspan class="cls-9" x="84.21" y="0">t</tspan><tspan class="cls-20" x="87.53" y="0">e</tspan><tspan class="cls-9" x="90.96" y="0"> </tspan><tspan class="cls-20" x="93.27" y="0">car</tspan><tspan class="cls-9" x="103.69" y="0">t</tspan><tspan class="cls-20" x="107.02" y="0">e</tspan><tspan class="cls-9" x="110.44" y="0" xml:space="preserve"> du</tspan><tspan class="cls-20" x="119.43" y="0" xml:space="preserve"> je</tspan><tspan class="cls-23" x="128.51" y="0">u</tspan><tspan class="cls-20" x="131.92" y="0">.</tspan><tspan class="cls-17" x="133.11" y="0"> </tspan></text>
    </g>
    <path class="cls-5" d="M26.6,88.72c-.22,0-.46-.03-.59-.05v-.7c.13.02.29.03.48.03.64,0,.74-.38.74-1.1v-5.75h.82v5.68c0,1.02-.16,1.89-1.45,1.89ZM29.05,83.3c.2-.76.38-1.68.38-2.54h.78c-.01.94-.3,2.07-.51,2.54h-.65ZM33.98,87.63c0,.35.03.81.04.99h-.74c-.03-.12-.06-.42-.06-.63-.21.45-.63.73-1.32.73-1.07,0-1.46-.84-1.46-1.61,0-1.02.69-1.79,2.15-1.79.26,0,.42,0,.58.02v-.74c0-.44-.08-.99-.84-.99-.82,0-.87.59-.9.96h-.78c.02-.8.4-1.62,1.71-1.62,1.08,0,1.6.53,1.6,1.55v3.13ZM33.21,85.98c-.14-.02-.29-.03-.55-.03-.99,0-1.4.48-1.4,1.1,0,.51.27.99.87.99.82,0,1.08-.58,1.08-1.75v-.3ZM35.32,83.04h.8v5.58h-.8v-5.58ZM35.32,80.79h.8v1.15h-.8v-1.15ZM40.09,85.98c0,1.09.19,2.05,1.07,2.05s.99-.83,1.02-1h.79c-.01.14-.17,1.69-1.81,1.69s-1.87-1.51-1.87-2.89c0-1.77.6-2.88,1.92-2.88,1.47,0,1.81,1.21,1.81,2.6,0,.11,0,.29-.01.43h-2.91ZM42.21,85.35c0-.96-.2-1.71-1.02-1.71-1.02,0-1.07,1.33-1.09,1.71h2.1ZM42.21,85.35h0ZM44.02,83.04h.78c.01.14.03.36.03.73.19-.44.57-.83,1.32-.83.81,0,1.43.46,1.43,1.7v3.97h-.81v-3.82c0-.68-.22-1.14-.86-1.14-.75,0-1.07.49-1.07,1.64v3.32h-.81v-3.85c0-1.14,0-1.47-.01-1.73ZM48.22,83.04h.79v-1.49h.8v1.49h.97v.69h-.97v3.66c0,.38.08.62.5.62.13,0,.29,0,.39-.03v.62c-.19.07-.47.09-.66.09-.66,0-1.04-.27-1.04-1.15v-3.82h-.79v-.69ZM52.01,85.98c0,1.09.19,2.05,1.07,2.05s.99-.83,1.02-1h.79c-.01.14-.17,1.69-1.81,1.69s-1.87-1.51-1.87-2.89c0-1.77.6-2.88,1.92-2.88,1.47,0,1.81,1.21,1.81,2.6,0,.11,0,.29-.01.43h-2.91ZM54.13,85.35c0-.96-.2-1.71-1.02-1.71-1.02,0-1.07,1.33-1.09,1.71h2.1ZM54.13,85.35h0ZM55.95,83.04h.78c.01.14.03.36.03.73.19-.44.57-.83,1.32-.83.81,0,1.43.46,1.43,1.7v3.97h-.81v-3.82c0-.68-.22-1.14-.86-1.14-.75,0-1.07.49-1.07,1.64v3.32h-.81v-3.85c0-1.14,0-1.47-.01-1.73ZM64.31,80.79v6.4c0,.54,0,1.1.01,1.43h-.78c-.01-.14-.03-.51-.03-.75-.17.48-.53.85-1.31.85-1.16,0-1.65-.99-1.65-2.95,0-1.78.66-2.82,1.83-2.82.72,0,1,.31,1.13.58v-2.74h.8ZM61.38,85.78c0,1.61.37,2.22,1.05,2.22.87,0,1.1-.74,1.1-2.25,0-1.63-.23-2.09-1.03-2.09-.66,0-1.11.58-1.11,2.12ZM69.13,87.09c0,.7,0,1.26.01,1.53h-.77c-.03-.16-.04-.38-.04-.74-.2.55-.67.84-1.33.84s-1.39-.27-1.39-1.67v-4.01h.81v3.82c0,.71.2,1.15.84,1.15s1.06-.38,1.06-1.58v-3.39h.81v4.05ZM73.35,88.05v2.62h-.8v-6c0-.76,0-1.28-.01-1.63h.78c.01.1.03.47.03.75.2-.48.59-.84,1.33-.84,1.06,0,1.63.94,1.63,2.8,0,2.01-.7,2.97-1.79,2.97-.67,0-1-.32-1.16-.67ZM75.48,85.79c0-1.4-.32-2.13-1.06-2.13-.86,0-1.1.82-1.1,2.14s.13,2.21,1.05,2.21c.73,0,1.1-.85,1.1-2.22ZM80.57,87.63c0,.35.03.81.04.99h-.74c-.03-.12-.06-.42-.06-.63-.21.45-.63.73-1.32.73-1.07,0-1.46-.84-1.46-1.61,0-1.02.69-1.79,2.15-1.79.26,0,.42,0,.58.02v-.74c0-.44-.08-.99-.84-.99-.82,0-.87.59-.9.96h-.78c.02-.8.4-1.62,1.71-1.62,1.08,0,1.6.53,1.6,1.55v3.13ZM79.8,85.98c-.14-.02-.29-.03-.55-.03-.99,0-1.4.48-1.4,1.1,0,.51.27.99.87.99.82,0,1.08-.58,1.08-1.75v-.3ZM81.89,83.04h.77c.01.14.03.4.03,1,.24-.67.78-1.07,1.47-1.08v.89c-.96.03-1.46.63-1.46,1.66v3.12h-.8v-3.68c0-.89,0-1.5-.01-1.9ZM84.95,88.62v-7.83h.8v7.83h-.8ZM87.62,85.98c0,1.09.19,2.05,1.07,2.05s.99-.83,1.02-1h.79c-.01.14-.17,1.69-1.81,1.69s-1.87-1.51-1.87-2.89c0-1.77.6-2.88,1.92-2.88,1.47,0,1.81,1.21,1.81,2.6,0,.11,0,.29-.01.43h-2.91ZM89.74,85.35c0-.96-.2-1.71-1.02-1.71-1.02,0-1.07,1.33-1.09,1.71h2.1ZM89.74,85.35h0ZM91.55,83.04h.77c.01.14.03.4.03,1,.24-.67.78-1.07,1.47-1.08v.89c-.96.03-1.46.63-1.46,1.66v3.12h-.8v-3.68c0-.89,0-1.5-.01-1.9ZM100.19,80.79v6.4c0,.54,0,1.1.01,1.43h-.78c-.01-.14-.03-.51-.03-.75-.17.48-.53.85-1.31.85-1.16,0-1.65-.99-1.65-2.95,0-1.78.66-2.82,1.83-2.82.72,0,1,.31,1.13.58v-2.74h.8ZM97.25,85.78c0,1.61.37,2.22,1.05,2.22.87,0,1.1-.74,1.1-2.25,0-1.63-.23-2.09-1.03-2.09-.66,0-1.11.58-1.11,2.12ZM101.08,83.3c.2-.76.38-1.68.38-2.54h.78c-.01.94-.3,2.07-.51,2.54h-.65ZM106.45,87.09c0,.7,0,1.26.01,1.53h-.77c-.03-.16-.04-.38-.04-.74-.2.55-.67.84-1.33.84s-1.39-.27-1.39-1.67v-4.01h.81v3.82c0,.71.2,1.15.84,1.15s1.06-.38,1.06-1.58v-3.39h.81v4.05ZM107.69,83.04h.78c.01.14.03.36.03.73.19-.44.57-.83,1.32-.83.81,0,1.43.46,1.43,1.7v3.97h-.81v-3.82c0-.68-.22-1.14-.86-1.14-.75,0-1.07.49-1.07,1.64v3.32h-.81v-3.85c0-1.14,0-1.47-.01-1.73ZM114.62,88.62v-7.83h.8v7.83h-.8ZM116.75,83.04h.8v5.58h-.8v-5.58ZM116.76,80.79h.8v1.15h-.8v-1.15ZM119.18,83.04c.46,1.81,1.01,3.99,1.12,4.67h.01c.07-.62.91-3.53,1.18-4.67h.81l-1.6,5.58h-.87l-1.51-5.58h.85ZM122.99,83.04h.77c.01.14.03.4.03,1,.24-.67.78-1.07,1.47-1.08v.89c-.96.03-1.46.63-1.46,1.66v3.12h-.8v-3.68c0-.89,0-1.5-.01-1.9ZM126.5,85.98c0,1.09.19,2.05,1.07,2.05s.99-.83,1.02-1h.79c-.01.14-.17,1.69-1.81,1.69s-1.87-1.51-1.87-2.89c0-1.77.6-2.88,1.92-2.88,1.47,0,1.81,1.21,1.81,2.6,0,.11,0,.29-.01.43h-2.91ZM128.62,85.35c0-.96-.2-1.71-1.02-1.71-1.02,0-1.07,1.33-1.09,1.71h2.1ZM128.62,85.35h0ZM131.86,83.04h.79v-1.49h.8v1.49h.97v.69h-.97v3.66c0,.38.08.62.5.62.13,0,.29,0,.39-.03v.62c-.19.07-.47.09-.66.09-.66,0-1.04-.27-1.04-1.15v-3.82h-.79v-.69ZM135.17,83.04h.77c.01.14.03.4.03,1,.24-.67.78-1.07,1.47-1.08v.89c-.96.03-1.46.63-1.46,1.66v3.12h-.8v-3.68c0-.89,0-1.5-.01-1.9ZM138.68,85.98c0,1.09.19,2.05,1.07,2.05s.99-.83,1.02-1h.79c-.01.14-.17,1.69-1.81,1.69s-1.87-1.51-1.87-2.89c0-1.77.6-2.88,1.92-2.88,1.47,0,1.81,1.21,1.81,2.6,0,.11,0,.29-.01.43h-2.91ZM139.09,80.67l1.18,1.53h-.76l-1.39-1.53h.97ZM140.8,85.35c0-.96-.2-1.71-1.02-1.71-1.02,0-1.07,1.33-1.09,1.71h2.1ZM140.8,85.35h0ZM144.07,88.06c.61,0,.9-.37.9-.88,0-.58-.3-.84-1.03-1.13-1.15-.44-1.49-.86-1.49-1.63s.46-1.47,1.6-1.47c1.25,0,1.6.85,1.61,1.59h-.79c-.01-.27-.07-.93-.85-.93-.53,0-.77.33-.77.77s.19.67.97.96c1.08.42,1.56.81,1.56,1.77,0,1.02-.64,1.62-1.75,1.62s-1.72-.69-1.75-1.71h.8c.04.6.35,1.05.99,1.05Z"/>
    <path class="cls-5" d="M26.6,96.24h.8v5.58h-.8v-5.58ZM26.6,93.99h.8v1.15h-.8v-1.15ZM28.72,96.24h.78c.01.14.03.36.03.73.19-.44.57-.83,1.32-.83.81,0,1.43.46,1.43,1.7v3.97h-.81v-3.82c0-.68-.22-1.14-.86-1.14-.75,0-1.07.49-1.07,1.64v3.32h-.81v-3.85c0-1.14,0-1.47-.01-1.73ZM32.91,96.24h.79v-1.49h.8v1.49h.97v.69h-.97v3.66c0,.38.08.62.5.62.13,0,.29,0,.39-.03v.62c-.19.07-.47.09-.66.09-.66,0-1.04-.27-1.04-1.15v-3.82h-.79v-.69ZM36.71,99.18c0,1.09.19,2.05,1.07,2.05s.99-.83,1.02-1h.79c-.01.14-.17,1.69-1.81,1.69s-1.87-1.51-1.87-2.89c0-1.77.6-2.88,1.92-2.88,1.47,0,1.81,1.21,1.81,2.6,0,.11,0,.29-.01.43h-2.91ZM38.83,98.55c0-.96-.2-1.71-1.02-1.71-1.02,0-1.07,1.33-1.09,1.71h2.1ZM39.35,93.86l-1.38,1.53h-.75l1.18-1.53h.95ZM38.83,98.55h0ZM40.64,96.24h.77c.01.14.03.4.03,1,.24-.67.78-1.07,1.47-1.08v.89c-.96.03-1.46.63-1.46,1.66v3.12h-.8v-3.68c0-.89,0-1.5-.01-1.9ZM44.16,99.18c0,1.09.19,2.05,1.07,2.05s.99-.83,1.02-1h.79c-.01.14-.17,1.69-1.81,1.69s-1.87-1.51-1.87-2.89c0-1.77.6-2.88,1.92-2.88,1.47,0,1.81,1.21,1.81,2.6,0,.11,0,.29-.01.43h-2.91ZM46.28,98.55c0-.96-.2-1.71-1.02-1.71-1.02,0-1.07,1.33-1.09,1.71h2.1ZM46.28,98.55h0ZM49.55,101.26c.61,0,.9-.37.9-.88,0-.58-.3-.84-1.03-1.13-1.15-.44-1.49-.86-1.49-1.63s.46-1.47,1.6-1.47c1.25,0,1.6.85,1.61,1.59h-.79c-.01-.27-.07-.93-.85-.93-.53,0-.77.33-.77.77s.19.67.97.96c1.08.42,1.56.81,1.56,1.77,0,1.02-.64,1.62-1.75,1.62s-1.72-.69-1.75-1.71h.8c.04.6.35,1.05.99,1.05ZM53.69,101.26c.61,0,.9-.37.9-.88,0-.58-.3-.84-1.03-1.13-1.15-.44-1.49-.86-1.49-1.63s.46-1.47,1.6-1.47c1.25,0,1.6.85,1.61,1.59h-.79c-.01-.27-.07-.93-.85-.93-.53,0-.77.33-.77.77s.19.67.97.96c1.08.42,1.56.81,1.56,1.77,0,1.02-.64,1.62-1.75,1.62s-1.72-.69-1.75-1.71h.8c.04.6.35,1.05.99,1.05ZM59.61,100.83c0,.35.03.81.04.99h-.74c-.03-.12-.06-.42-.06-.63-.21.45-.63.73-1.32.73-1.07,0-1.46-.84-1.46-1.61,0-1.02.69-1.79,2.15-1.79.26,0,.42,0,.58.02v-.74c0-.44-.08-.99-.84-.99-.82,0-.87.59-.9.96h-.78c.02-.8.4-1.62,1.71-1.62,1.08,0,1.6.53,1.6,1.55v3.13ZM58.84,99.18c-.14-.02-.29-.03-.55-.03-.99,0-1.4.48-1.4,1.1,0,.51.27.99.87.99.82,0,1.08-.58,1.08-1.75v-.3ZM60.94,96.24h.78c.01.14.03.36.03.73.19-.44.57-.83,1.32-.83.81,0,1.43.46,1.43,1.7v3.97h-.81v-3.82c0-.68-.22-1.14-.86-1.14-.75,0-1.07.49-1.07,1.64v3.32h-.81v-3.85c0-1.14,0-1.47-.01-1.73ZM65.13,96.24h.79v-1.49h.8v1.49h.97v.69h-.97v3.66c0,.38.08.62.5.62.13,0,.29,0,.39-.03v.62c-.19.07-.47.09-.66.09-.66,0-1.04-.27-1.04-1.15v-3.82h-.79v-.69ZM68.48,100.31h.82v1.51h-.82v-1.51ZM72.42,101.92c-.22,0-.46-.03-.59-.05v-.7c.13.02.29.03.48.03.64,0,.74-.38.74-1.1v-5.75h.82v5.68c0,1.02-.16,1.89-1.45,1.89ZM75.75,99.18c0,1.09.19,2.05,1.07,2.05s.99-.83,1.02-1h.79c-.01.14-.17,1.69-1.81,1.69s-1.87-1.51-1.87-2.89c0-1.77.6-2.88,1.92-2.88,1.47,0,1.81,1.21,1.81,2.6,0,.11,0,.29-.01.43h-2.91ZM77.87,98.55c0-.96-.2-1.71-1.02-1.71-1.02,0-1.07,1.33-1.09,1.71h2.1ZM77.87,98.55h0ZM82.6,101.25v2.62h-.8v-6c0-.76,0-1.28-.01-1.63h.78c.01.1.03.47.03.75.2-.48.59-.84,1.33-.84,1.06,0,1.63.94,1.63,2.8,0,2.01-.7,2.97-1.79,2.97-.67,0-1-.32-1.16-.67ZM84.73,98.99c0-1.4-.32-2.13-1.06-2.13-.86,0-1.1.82-1.1,2.14s.13,2.21,1.05,2.21c.73,0,1.1-.85,1.1-2.22ZM87.16,99.18c0,1.09.19,2.05,1.07,2.05s.99-.83,1.02-1h.79c-.01.14-.17,1.69-1.81,1.69s-1.87-1.51-1.87-2.89c0-1.77.6-2.88,1.92-2.88,1.47,0,1.81,1.21,1.81,2.6,0,.11,0,.29-.01.43h-2.91ZM89.27,98.55c0-.96-.2-1.71-1.02-1.71-1.02,0-1.07,1.33-1.09,1.71h2.1ZM89.27,98.55h0ZM94.61,100.29c0,.7,0,1.26.01,1.53h-.77c-.03-.16-.04-.38-.04-.74-.2.55-.67.84-1.33.84s-1.39-.27-1.39-1.67v-4.01h.81v3.82c0,.71.2,1.15.84,1.15s1.06-.38,1.06-1.58v-3.39h.81v4.05ZM96.18,96.24c.58,1.21.88,1.76,1.02,2.07h.01c.18-.38.56-1.11,1.05-2.07h.86l-1.47,2.66,1.48,2.92h-.9c-.55-1.15-.89-1.83-1.05-2.17h-.01c-.14.3-.55,1.13-1.07,2.17h-.86l1.47-2.8-1.43-2.78h.89ZM105.32,93.99v6.4c0,.54,0,1.1.01,1.43h-.78c-.01-.14-.03-.51-.03-.75-.17.48-.53.85-1.31.85-1.16,0-1.65-.99-1.65-2.95,0-1.78.66-2.82,1.83-2.82.72,0,1,.31,1.13.58v-2.74h.8ZM102.38,98.98c0,1.61.37,2.22,1.05,2.22.87,0,1.1-.74,1.1-2.25,0-1.63-.23-2.09-1.03-2.09-.66,0-1.11.58-1.11,2.12ZM107.17,99.18c0,1.09.19,2.05,1.07,2.05s.99-.83,1.02-1h.79c-.01.14-.17,1.69-1.81,1.69s-1.87-1.51-1.87-2.89c0-1.77.6-2.88,1.92-2.88,1.47,0,1.81,1.21,1.81,2.6,0,.11,0,.29-.01.43h-2.91ZM109.28,98.55c0-.96-.2-1.71-1.02-1.71-1.02,0-1.07,1.33-1.09,1.71h2.1ZM109.28,98.55h0ZM111.11,97.91c0-.99,0-1.41-.01-1.67h.77c.02.16.03.46.03.71.22-.49.61-.81,1.25-.81.58,0,.99.25,1.16.83.2-.45.62-.83,1.35-.83s1.35.34,1.35,1.62v4.05h-.8v-3.91c0-.56-.16-1.05-.79-1.05-.71,0-.95.63-.95,1.38v3.58h-.8v-3.89c0-.69-.23-1.06-.77-1.06-.67,0-.98.61-.98,1.45v3.5h-.8v-3.91ZM121.48,100.83c0,.35.03.81.04.99h-.74c-.03-.12-.06-.42-.06-.63-.21.45-.63.73-1.32.73-1.07,0-1.46-.84-1.46-1.61,0-1.02.69-1.79,2.15-1.79.26,0,.42,0,.58.02v-.74c0-.44-.08-.99-.84-.99-.82,0-.87.59-.9.96h-.78c.02-.8.4-1.62,1.71-1.62,1.08,0,1.6.53,1.6,1.55v3.13ZM120.71,99.18c-.14-.02-.29-.03-.55-.03-.99,0-1.4.48-1.4,1.1,0,.51.27.99.87.99.82,0,1.08-.58,1.08-1.75v-.3ZM122.8,96.24h.78c.01.14.03.36.03.73.19-.44.57-.83,1.32-.83.81,0,1.43.46,1.43,1.7v3.97h-.81v-3.82c0-.68-.22-1.14-.86-1.14-.75,0-1.07.49-1.07,1.64v3.32h-.81v-3.85c0-1.14,0-1.47-.01-1.73ZM131.17,93.99v6.4c0,.54,0,1.1.01,1.43h-.78c-.01-.14-.03-.51-.03-.75-.17.48-.53.85-1.31.85-1.16,0-1.65-.99-1.65-2.95,0-1.78.66-2.82,1.83-2.82.72,0,1,.31,1.13.58v-2.74h.8ZM128.23,98.98c0,1.61.37,2.22,1.05,2.22.87,0,1.1-.74,1.1-2.25,0-1.63-.23-2.09-1.03-2.09-.66,0-1.11.58-1.11,2.12ZM133.02,99.18c0,1.09.19,2.05,1.07,2.05s.99-.83,1.02-1h.79c-.01.14-.17,1.69-1.81,1.69s-1.87-1.51-1.87-2.89c0-1.77.6-2.88,1.92-2.88,1.47,0,1.81,1.21,1.81,2.6,0,.11,0,.29-.01.43h-2.91ZM135.13,98.55c0-.96-.2-1.71-1.02-1.71-1.02,0-1.07,1.33-1.09,1.71h2.1ZM135.13,98.55h0ZM136.95,96.24h.77c.01.14.03.4.03,1,.24-.67.78-1.07,1.47-1.08v.89c-.96.03-1.46.63-1.46,1.66v3.12h-.8v-3.68c0-.89,0-1.5-.01-1.9ZM145.34,100.83c0,.35.03.81.04.99h-.74c-.03-.12-.06-.42-.06-.63-.21.45-.63.73-1.32.73-1.07,0-1.46-.84-1.46-1.61,0-1.02.69-1.79,2.15-1.79.26,0,.42,0,.58.02v-.74c0-.44-.08-.99-.84-.99-.82,0-.87.59-.9.96h-.78c.02-.8.4-1.62,1.71-1.62,1.08,0,1.6.53,1.6,1.55v3.13ZM143.01,93.87l1.18,1.53h-.76l-1.39-1.53h.97ZM144.56,99.18c-.14-.02-.29-.03-.55-.03-.99,0-1.4.48-1.4,1.1,0,.51.27.99.87.99.82,0,1.08-.58,1.08-1.75v-.3ZM148.77,101.82v-7.83h.8v7.83h-.8ZM154.09,100.83c0,.35.03.81.04.99h-.74c-.03-.12-.06-.42-.06-.63-.21.45-.63.73-1.32.73-1.07,0-1.46-.84-1.46-1.61,0-1.02.69-1.79,2.15-1.79.26,0,.42,0,.58.02v-.74c0-.44-.08-.99-.84-.99-.82,0-.87.59-.9.96h-.78c.02-.8.4-1.62,1.71-1.62,1.08,0,1.6.53,1.6,1.55v3.13ZM153.32,99.18c-.14-.02-.29-.03-.55-.03-.99,0-1.4.48-1.4,1.1,0,.51.27.99.87.99.82,0,1.08-.58,1.08-1.75v-.3Z"/>
    <path class="cls-5" d="M26.67,107.55h1.95c1.12,0,1.8.67,1.8,1.82,0,1-.48,1.44-.92,1.59.57.2,1.16.72,1.16,1.88,0,1.34-.81,2.19-2.11,2.19h-1.89v-7.47ZM28.34,110.66c.94,0,1.28-.42,1.28-1.22,0-.75-.39-1.21-1.18-1.21h-.96v2.43h.86ZM27.48,114.34h1c.88,0,1.36-.53,1.36-1.51s-.51-1.5-1.51-1.5h-.85v3.01ZM31.7,109.44h.8v5.58h-.8v-5.58ZM31.71,107.19h.8v1.15h-.8v-1.15ZM33.86,107.19h.8v2.99c.18-.43.57-.83,1.33-.83,1.07,0,1.63.89,1.63,2.74,0,1.72-.46,3.02-1.78,3.02-.71,0-1.03-.36-1.2-.75,0,.18-.01.44-.03.66h-.76c.01-.3.01-.85.01-1.53v-6.3ZM36.81,112.1c0-1.4-.33-2.04-1.03-2.04-.86,0-1.14.77-1.14,2.18,0,1.34.22,2.16,1.06,2.16.74,0,1.1-.72,1.1-2.3ZM38.65,115.02v-7.83h.8v7.83h-.8ZM40.79,109.44h.8v5.58h-.8v-5.58ZM40.79,107.19h.8v1.15h-.8v-1.15ZM46.49,112.16c0,1.96-.66,2.96-1.92,2.96s-1.92-.96-1.92-2.94.76-2.83,1.95-2.83,1.89.94,1.89,2.82ZM43.47,112.19c0,1.52.38,2.24,1.1,2.24s1.09-.73,1.09-2.24c0-1.43-.35-2.13-1.09-2.13s-1.1.63-1.1,2.14ZM46.86,109.44h.79v-1.49h.8v1.49h.97v.69h-.97v3.66c0,.38.08.62.5.62.13,0,.29,0,.39-.03v.62c-.19.07-.47.09-.66.09-.66,0-1.04-.27-1.04-1.15v-3.82h-.79v-.69ZM51,107.19v2.93c.19-.45.63-.78,1.34-.78.82,0,1.41.51,1.41,1.71v3.97h-.81v-3.8c0-.68-.2-1.16-.88-1.16-.77,0-1.05.63-1.05,1.6v3.35h-.81v-7.83h.81ZM55.59,112.38c0,1.09.19,2.05,1.07,2.05s.99-.83,1.02-1h.79c-.01.14-.17,1.69-1.81,1.69s-1.87-1.51-1.87-2.89c0-1.77.6-2.88,1.92-2.88,1.47,0,1.81,1.21,1.81,2.6,0,.11,0,.29-.01.43h-2.91ZM55.99,107.07l1.18,1.53h-.76l-1.39-1.53h.97ZM57.71,111.75c0-.96-.2-1.71-1.02-1.71-1.02,0-1.07,1.33-1.09,1.71h2.1ZM57.71,111.75h0ZM62.32,114.31c-.21.48-.59.8-1.31.8-1.04,0-1.66-.86-1.66-2.89,0-1.85.7-2.88,1.8-2.88.74,0,1.05.35,1.17.7,0-.31.02-.5.03-.6h.78c-.01.4-.01.86-.01,1.65v5.98h-.79v-2.76ZM60.17,112.24c0,1.33.31,2.18,1.06,2.18.9,0,1.09-.78,1.09-2.21s-.12-2.15-1.03-2.15c-.7,0-1.11.76-1.11,2.18ZM67.95,113.49c0,.7,0,1.26.01,1.53h-.77c-.03-.16-.04-.38-.04-.74-.2.55-.67.84-1.33.84s-1.39-.27-1.39-1.67v-4.01h.81v3.82c0,.71.2,1.15.84,1.15s1.06-.38,1.06-1.58v-3.39h.81v4.05ZM69.79,112.38c0,1.09.19,2.05,1.07,2.05s.99-.83,1.02-1h.79c-.01.14-.17,1.69-1.81,1.69s-1.87-1.51-1.87-2.89c0-1.77.6-2.88,1.92-2.88,1.47,0,1.81,1.21,1.81,2.6,0,.11,0,.29-.01.43h-2.91ZM71.91,111.75c0-.96-.2-1.71-1.02-1.71-1.02,0-1.07,1.33-1.09,1.71h2.1ZM71.91,111.75h0ZM79.32,107.19v6.4c0,.54,0,1.1.01,1.43h-.78c-.01-.14-.03-.51-.03-.75-.17.48-.53.85-1.31.85-1.16,0-1.65-.99-1.65-2.95,0-1.78.66-2.82,1.83-2.82.72,0,1,.31,1.13.58v-2.74h.8ZM76.38,112.18c0,1.61.37,2.22,1.05,2.22.87,0,1.1-.74,1.1-2.25,0-1.63-.23-2.09-1.03-2.09-.66,0-1.11.58-1.11,2.12ZM81.16,112.38c0,1.09.19,2.05,1.07,2.05s.99-.83,1.02-1h.79c-.01.14-.17,1.69-1.81,1.69s-1.87-1.51-1.87-2.89c0-1.77.6-2.88,1.92-2.88,1.47,0,1.81,1.21,1.81,2.6,0,.11,0,.29-.01.43h-2.91ZM83.28,111.75c0-.96-.2-1.71-1.02-1.71-1.02,0-1.07,1.33-1.09,1.71h2.1ZM83.28,111.75h0ZM87.21,115.02v-7.83h.8v7.83h-.8ZM88.92,109.7c.2-.76.38-1.68.38-2.54h.78c-.01.94-.3,2.07-.51,2.54h-.65ZM93.86,114.03c0,.35.03.81.04.99h-.74c-.03-.12-.06-.42-.06-.63-.21.45-.63.73-1.32.73-1.07,0-1.46-.84-1.46-1.61,0-1.02.69-1.79,2.15-1.79.26,0,.42,0,.58.02v-.74c0-.44-.08-.99-.84-.99-.82,0-.87.59-.9.96h-.78c.02-.8.4-1.62,1.71-1.62,1.08,0,1.6.53,1.6,1.55v3.13ZM93.08,112.38c-.14-.02-.29-.03-.55-.03-.99,0-1.4.48-1.4,1.1,0,.51.27.99.87.99.82,0,1.08-.58,1.08-1.75v-.3ZM98.54,113.32c-.02.3-.14,1.8-1.77,1.8-1.46,0-1.85-1.29-1.85-2.91s.51-2.87,1.93-2.87c1.62,0,1.7,1.5,1.7,1.76h-.82c-.01-.23-.09-1.07-.88-1.07s-1.1.88-1.1,2.17c0,1.39.3,2.22,1.06,2.22.81,0,.9-.81.94-1.11h.8ZM100.31,107.19v2.93c.19-.45.63-.78,1.34-.78.82,0,1.41.51,1.41,1.71v3.97h-.81v-3.8c0-.68-.2-1.16-.88-1.16-.77,0-1.05.63-1.05,1.6v3.35h-.81v-7.83h.81ZM104.9,112.38c0,1.09.19,2.05,1.07,2.05s.99-.83,1.02-1h.79c-.01.14-.17,1.69-1.81,1.69s-1.87-1.51-1.87-2.89c0-1.77.6-2.88,1.92-2.88,1.47,0,1.81,1.21,1.81,2.6,0,.11,0,.29-.01.43h-2.91ZM107.02,111.75c0-.96-.2-1.71-1.02-1.71-1.02,0-1.07,1.33-1.09,1.71h2.1ZM107.02,111.75h0ZM108.27,109.44h.79v-1.49h.8v1.49h.97v.69h-.97v3.66c0,.38.08.62.5.62.13,0,.29,0,.39-.03v.62c-.19.07-.47.09-.66.09-.66,0-1.04-.27-1.04-1.15v-3.82h-.79v-.69ZM112.07,112.38c0,1.09.19,2.05,1.07,2.05s.99-.83,1.02-1h.79c-.01.14-.17,1.69-1.81,1.69s-1.87-1.51-1.87-2.89c0-1.77.6-2.88,1.92-2.88,1.47,0,1.81,1.21,1.81,2.6,0,.11,0,.29-.01.43h-2.91ZM114.19,111.75c0-.96-.2-1.71-1.02-1.71-1.02,0-1.07,1.33-1.09,1.71h2.1ZM114.19,111.75h0ZM116,109.44h.77c.01.14.03.4.03,1,.24-.67.78-1.07,1.47-1.08v.89c-.96.03-1.46.63-1.46,1.66v3.12h-.8v-3.68c0-.89,0-1.5-.01-1.9ZM118.36,113.51h.82v1.51h-.82v-1.51Z"/>
    <path class="cls-5" d="M27.49,134.41v3.44h-.82v-7.47h1.95c1.25,0,1.91.71,1.91,1.93,0,1.12-.55,1.59-1,1.75.69.25.91.86.91,1.91v.3c0,.7.02,1.19.11,1.59h-.81c-.1-.34-.11-1.01-.11-1.61v-.25c0-1.06-.22-1.57-1.23-1.57h-.91ZM27.49,133.72h.96c.91,0,1.25-.51,1.25-1.38,0-.75-.35-1.26-1.17-1.26h-1.03v2.64ZM32.28,135.22c0,1.09.19,2.05,1.07,2.05s.99-.83,1.02-1h.79c-.01.14-.17,1.69-1.81,1.69s-1.87-1.51-1.87-2.89c0-1.77.6-2.88,1.92-2.88,1.47,0,1.81,1.21,1.81,2.6,0,.11,0,.29-.01.43h-2.91ZM34.4,134.58c0-.96-.2-1.71-1.02-1.71-1.02,0-1.07,1.33-1.09,1.71h2.1ZM34.92,129.9l-1.38,1.53h-.75l1.18-1.53h.95ZM34.4,134.58h0ZM37.03,137.28v2.62h-.8v-6c0-.76,0-1.28-.01-1.63h.78c.01.1.03.47.03.75.2-.48.59-.84,1.33-.84,1.06,0,1.63.94,1.63,2.8,0,2.01-.7,2.97-1.79,2.97-.67,0-1-.32-1.16-.67ZM39.16,135.02c0-1.4-.32-2.13-1.06-2.13-.86,0-1.1.82-1.1,2.14s.13,2.21,1.05,2.21c.73,0,1.1-.85,1.1-2.22ZM44.62,135c0,1.96-.66,2.96-1.92,2.96s-1.92-.96-1.92-2.94.76-2.83,1.95-2.83,1.89.94,1.89,2.82ZM41.6,135.02c0,1.52.38,2.24,1.1,2.24s1.09-.73,1.09-2.24c0-1.43-.35-2.13-1.09-2.13s-1.1.63-1.1,2.14ZM45.65,132.28h.78c.01.14.03.36.03.73.19-.44.57-.83,1.32-.83.81,0,1.43.46,1.43,1.7v3.97h-.81v-3.82c0-.68-.22-1.14-.86-1.14-.75,0-1.07.49-1.07,1.64v3.32h-.81v-3.85c0-1.14,0-1.47-.01-1.73ZM51.91,137.29c.61,0,.9-.37.9-.88,0-.58-.3-.84-1.03-1.13-1.15-.44-1.49-.86-1.49-1.63s.46-1.47,1.6-1.47c1.25,0,1.6.85,1.61,1.59h-.79c-.01-.27-.07-.93-.85-.93-.53,0-.77.33-.77.77s.19.67.97.96c1.08.42,1.56.81,1.56,1.77,0,1.02-.64,1.62-1.75,1.62s-1.72-.69-1.75-1.71h.8c.04.6.35,1.05.99,1.05ZM55.16,135.22c0,1.09.19,2.05,1.07,2.05s.99-.83,1.02-1h.79c-.01.14-.17,1.69-1.81,1.69s-1.87-1.51-1.87-2.89c0-1.77.6-2.88,1.92-2.88,1.47,0,1.81,1.21,1.81,2.6,0,.11,0,.29-.01.43h-2.91ZM57.28,134.58c0-.96-.2-1.71-1.02-1.71-1.02,0-1.07,1.33-1.09,1.71h2.1ZM57.28,134.58h0ZM61.26,133.95v-1.51h.78v1.51h-.78ZM61.26,136.35h.78v1.51h-.78v-1.51ZM67.76,137.85h-.99l-1.85-7.47h.88l.83,3.55c.24,1.04.53,2.35.63,3.06h.02c.1-.65.45-2.01.71-3.06l.85-3.55h.85l-1.93,7.47h0ZM70.07,132.28h.77c.01.14.03.4.03,1,.24-.67.78-1.07,1.47-1.08v.89c-.96.03-1.46.63-1.46,1.66v3.12h-.8v-3.68c0-.89,0-1.5-.01-1.9ZM76.21,136.87c0,.35.03.81.04.99h-.74c-.03-.12-.06-.42-.06-.63-.21.45-.63.73-1.32.73-1.07,0-1.46-.84-1.46-1.61,0-1.02.69-1.79,2.15-1.79.26,0,.42,0,.58.02v-.74c0-.44-.08-.99-.84-.99-.82,0-.87.59-.9.96h-.78c.02-.8.4-1.62,1.71-1.62,1.08,0,1.6.53,1.6,1.55v3.13ZM75.44,135.21c-.14-.02-.29-.03-.55-.03-.99,0-1.4.48-1.4,1.1,0,.51.27.99.87.99.82,0,1.08-.58,1.08-1.75v-.3ZM77.55,132.28h.8v5.58h-.8v-5.58ZM77.55,130.02h.8v1.15h-.8v-1.15Z"/>
    <path class="cls-5" d="M28.85,156.72h-.99l-1.85-7.47h.88l.83,3.55c.24,1.04.53,2.35.63,3.06h.02c.1-.65.45-2.01.71-3.06l.85-3.55h.85l-1.93,7.47h0ZM34.67,153.86c0,1.96-.66,2.96-1.92,2.96s-1.92-.96-1.92-2.94.76-2.83,1.95-2.83,1.89.94,1.89,2.82ZM31.66,153.89c0,1.52.38,2.24,1.1,2.24s1.09-.73,1.09-2.24c0-1.43-.35-2.13-1.09-2.13s-1.1.63-1.1,2.14ZM39.23,155.19c0,.7,0,1.26.01,1.53h-.77c-.03-.16-.04-.38-.04-.74-.2.55-.67.84-1.33.84s-1.39-.27-1.39-1.67v-4.01h.81v3.82c0,.71.2,1.15.84,1.15s1.06-.38,1.06-1.58v-3.39h.81v4.05ZM41.91,156.16c.61,0,.9-.37.9-.88,0-.58-.3-.84-1.03-1.13-1.15-.44-1.49-.86-1.49-1.63s.46-1.47,1.6-1.47c1.25,0,1.6.85,1.61,1.59h-.79c-.01-.27-.07-.93-.85-.93-.53,0-.77.33-.77.77s.19.67.97.96c1.08.42,1.56.81,1.56,1.77,0,1.02-.64,1.62-1.75,1.62s-1.72-.69-1.75-1.71h.8c.04.6.35,1.05.99,1.05ZM47.52,156.15v2.62h-.8v-6c0-.76,0-1.28-.01-1.63h.78c.01.1.03.47.03.75.2-.48.59-.84,1.33-.84,1.06,0,1.63.94,1.63,2.8,0,2.01-.7,2.97-1.79,2.97-.67,0-1-.32-1.16-.67ZM49.65,153.89c0-1.4-.32-2.13-1.06-2.13-.86,0-1.1.82-1.1,2.14s.13,2.21,1.05,2.21c.73,0,1.1-.85,1.1-2.22ZM55.11,153.86c0,1.96-.66,2.96-1.92,2.96s-1.92-.96-1.92-2.94.76-2.83,1.95-2.83,1.89.94,1.89,2.82ZM52.09,153.89c0,1.52.38,2.24,1.1,2.24s1.09-.73,1.09-2.24c0-1.43-.35-2.13-1.09-2.13s-1.1.63-1.1,2.14ZM59.66,155.19c0,.7,0,1.26.01,1.53h-.77c-.03-.16-.04-.38-.04-.74-.2.55-.67.84-1.33.84s-1.39-.27-1.39-1.67v-4.01h.81v3.82c0,.71.2,1.15.84,1.15s1.06-.38,1.06-1.58v-3.39h.81v4.05ZM61.27,151.14c.46,1.81,1.01,3.99,1.12,4.67h.01c.07-.62.91-3.53,1.18-4.67h.81l-1.6,5.58h-.87l-1.51-5.58h.85ZM65.65,154.08c0,1.09.19,2.05,1.07,2.05s.99-.83,1.02-1h.79c-.01.14-.17,1.69-1.81,1.69s-1.87-1.51-1.87-2.89c0-1.77.6-2.88,1.92-2.88,1.47,0,1.81,1.21,1.81,2.6,0,.11,0,.29-.01.43h-2.91ZM67.77,153.45c0-.96-.2-1.71-1.02-1.71-1.02,0-1.07,1.33-1.09,1.71h2.1ZM67.77,153.45h0ZM69.12,156.13c.57-.98,1.68-2.93,2.45-4.29h-2.28v-.7h3.19v.63c-.55.97-1.71,3.03-2.42,4.25h2.46l-.11.7h-3.29v-.59ZM78.76,155.02c-.02.3-.14,1.8-1.77,1.8-1.46,0-1.85-1.29-1.85-2.91s.51-2.87,1.93-2.87c1.62,0,1.7,1.5,1.7,1.76h-.82c-.01-.23-.09-1.07-.88-1.07s-1.1.88-1.1,2.17c0,1.39.3,2.22,1.06,2.22.81,0,.9-.81.94-1.11h.8ZM83.34,153.86c0,1.96-.66,2.96-1.92,2.96s-1.92-.96-1.92-2.94.76-2.83,1.95-2.83,1.89.94,1.89,2.82ZM80.32,153.89c0,1.52.38,2.24,1.1,2.24s1.09-.73,1.09-2.24c0-1.43-.35-2.13-1.09-2.13s-1.1.63-1.1,2.14ZM84.37,151.14h.78c.01.14.03.36.03.73.19-.44.57-.83,1.32-.83.81,0,1.43.46,1.43,1.7v3.97h-.81v-3.82c0-.68-.22-1.14-.86-1.14-.75,0-1.07.49-1.07,1.64v3.32h-.81v-3.85c0-1.14,0-1.47-.01-1.73ZM88.56,151.14h.79v-1.49h.8v1.49h.97v.69h-.97v3.66c0,.38.08.62.5.62.13,0,.29,0,.39-.03v.62c-.19.07-.47.09-.66.09-.66,0-1.04-.27-1.04-1.15v-3.82h-.79v-.69ZM95.14,155.73c0,.35.03.81.04.99h-.74c-.03-.12-.06-.42-.06-.63-.21.45-.63.73-1.32.73-1.07,0-1.46-.84-1.46-1.61,0-1.02.69-1.79,2.15-1.79.26,0,.42,0,.58.02v-.74c0-.44-.08-.99-.84-.99-.82,0-.87.59-.9.96h-.78c.02-.8.4-1.62,1.71-1.62,1.08,0,1.6.53,1.6,1.55v3.13ZM94.37,154.08c-.14-.02-.29-.03-.55-.03-.99,0-1.4.48-1.4,1.1,0,.51.27.99.87.99.82,0,1.08-.58,1.08-1.75v-.3ZM99.83,155.02c-.02.3-.14,1.8-1.77,1.8-1.46,0-1.85-1.29-1.85-2.91s.51-2.87,1.93-2.87c1.62,0,1.7,1.5,1.7,1.76h-.82c-.01-.23-.09-1.07-.88-1.07s-1.1.88-1.1,2.17c0,1.39.3,2.22,1.06,2.22.81,0,.9-.81.94-1.11h.8ZM100.32,151.14h.79v-1.49h.8v1.49h.97v.69h-.97v3.66c0,.38.08.62.5.62.13,0,.29,0,.39-.03v.62c-.19.07-.47.09-.66.09-.66,0-1.04-.27-1.04-1.15v-3.82h-.79v-.69ZM104.12,154.08c0,1.09.19,2.05,1.07,2.05s.99-.83,1.02-1h.79c-.01.14-.17,1.69-1.81,1.69s-1.87-1.51-1.87-2.89c0-1.77.6-2.88,1.92-2.88,1.47,0,1.81,1.21,1.81,2.6,0,.11,0,.29-.01.43h-2.91ZM106.24,153.45c0-.96-.2-1.71-1.02-1.71-1.02,0-1.07,1.33-1.09,1.71h2.1ZM106.24,153.45h0ZM108.05,151.14h.77c.01.14.03.4.03,1,.24-.67.78-1.07,1.47-1.08v.89c-.96.03-1.46.63-1.46,1.66v3.12h-.8v-3.68c0-.89,0-1.5-.01-1.9ZM113.2,156.72v-7.83h.8v7.83h-.8ZM115.87,154.08c0,1.09.19,2.05,1.07,2.05s.99-.83,1.02-1h.79c-.01.14-.17,1.69-1.81,1.69s-1.87-1.51-1.87-2.89c0-1.77.6-2.88,1.92-2.88,1.47,0,1.81,1.21,1.81,2.6,0,.11,0,.29-.01.43h-2.91ZM117.99,153.45c0-.96-.2-1.71-1.02-1.71-1.02,0-1.07,1.33-1.09,1.71h2.1ZM117.99,153.45h0ZM121.26,156.16c.61,0,.9-.37.9-.88,0-.58-.3-.84-1.03-1.13-1.15-.44-1.49-.86-1.49-1.63s.46-1.47,1.6-1.47c1.25,0,1.6.85,1.61,1.59h-.79c-.01-.27-.07-.93-.85-.93-.53,0-.77.33-.77.77s.19.67.97.96c1.08.42,1.56.81,1.56,1.77,0,1.02-.64,1.62-1.75,1.62s-1.72-.69-1.75-1.71h.8c.04.6.35,1.05.99,1.05Z"/>
    <path class="cls-5" d="M26.6,162.09h.8v2.99c.18-.43.57-.83,1.33-.83,1.07,0,1.63.89,1.63,2.74,0,1.72-.46,3.02-1.78,3.02-.71,0-1.03-.36-1.2-.75,0,.18-.01.44-.03.66h-.76c.01-.3.01-.85.01-1.53v-6.3ZM29.55,167.01c0-1.4-.33-2.04-1.03-2.04-.86,0-1.14.77-1.14,2.18,0,1.34.22,2.16,1.06,2.16.74,0,1.1-.72,1.1-2.3ZM31.39,164.34h.8v5.58h-.8v-5.58ZM31.4,162.09h.8v1.15h-.8v-1.15ZM33.56,162.09h.8v2.99c.18-.43.57-.83,1.33-.83,1.07,0,1.63.89,1.63,2.74,0,1.72-.46,3.02-1.78,3.02-.71,0-1.03-.36-1.2-.75,0,.18-.01.44-.03.66h-.76c.01-.3.01-.85.01-1.53v-6.3ZM36.5,167.01c0-1.4-.33-2.04-1.03-2.04-.86,0-1.14.77-1.14,2.18,0,1.34.22,2.16,1.06,2.16.74,0,1.1-.72,1.1-2.3ZM38.35,169.92v-7.83h.8v7.83h-.8ZM40.48,164.34h.8v5.58h-.8v-5.58ZM40.48,162.09h.8v1.15h-.8v-1.15ZM46.18,167.06c0,1.96-.66,2.96-1.92,2.96s-1.92-.96-1.92-2.94.76-2.83,1.95-2.83,1.89.94,1.89,2.82ZM43.16,167.09c0,1.52.38,2.24,1.1,2.24s1.09-.73,1.09-2.24c0-1.43-.35-2.13-1.09-2.13s-1.1.63-1.1,2.14ZM46.55,164.34h.79v-1.49h.8v1.49h.97v.69h-.97v3.66c0,.38.08.62.5.62.13,0,.29,0,.39-.03v.62c-.19.07-.47.09-.66.09-.66,0-1.04-.27-1.04-1.15v-3.82h-.79v-.69ZM50.69,162.09v2.93c.19-.45.63-.78,1.34-.78.82,0,1.41.51,1.41,1.71v3.97h-.81v-3.8c0-.68-.2-1.16-.88-1.16-.77,0-1.05.63-1.05,1.6v3.35h-.81v-7.83h.81ZM55.28,167.28c0,1.09.19,2.05,1.07,2.05s.99-.83,1.02-1h.79c-.01.14-.17,1.69-1.81,1.69s-1.87-1.51-1.87-2.89c0-1.77.6-2.88,1.92-2.88,1.47,0,1.81,1.21,1.81,2.6,0,.11,0,.29-.01.43h-2.91ZM57.4,166.65c0-.96-.2-1.71-1.02-1.71-1.02,0-1.07,1.33-1.09,1.71h2.1ZM57.92,161.96l-1.38,1.53h-.75l1.18-1.53h.95ZM57.4,166.65h0ZM62.66,168.22c-.02.3-.14,1.8-1.77,1.8-1.46,0-1.85-1.29-1.85-2.91s.51-2.87,1.93-2.87c1.62,0,1.7,1.5,1.7,1.76h-.82c-.01-.23-.09-1.07-.88-1.07s-1.1.88-1.1,2.17c0,1.39.3,2.22,1.06,2.22.81,0,.9-.81.94-1.11h.8ZM66.87,168.93c0,.35.03.81.04.99h-.74c-.03-.12-.06-.42-.06-.63-.21.45-.63.73-1.32.73-1.07,0-1.46-.84-1.46-1.61,0-1.02.69-1.79,2.15-1.79.26,0,.42,0,.58.02v-.74c0-.44-.08-.99-.84-.99-.82,0-.87.59-.9.96h-.78c.02-.8.4-1.62,1.71-1.62,1.08,0,1.6.53,1.6,1.55v3.13ZM66.1,167.28c-.14-.02-.29-.03-.55-.03-.99,0-1.4.48-1.4,1.1,0,.51.27.99.87.99.82,0,1.08-.58,1.08-1.75v-.3ZM68.21,164.34h.8v5.58h-.8v-5.58ZM68.21,162.09h.8v1.15h-.8v-1.15ZM70.33,164.34h.77c.01.14.03.4.03,1,.24-.67.78-1.07,1.47-1.08v.89c-.96.03-1.46.63-1.46,1.66v3.12h-.8v-3.68c0-.89,0-1.5-.01-1.9ZM73.85,167.28c0,1.09.19,2.05,1.07,2.05s.99-.83,1.02-1h.79c-.01.14-.17,1.69-1.81,1.69s-1.87-1.51-1.87-2.89c0-1.77.6-2.88,1.92-2.88,1.47,0,1.81,1.21,1.81,2.6,0,.11,0,.29-.01.43h-2.91ZM75.97,166.65c0-.96-.2-1.71-1.02-1.71-1.02,0-1.07,1.33-1.09,1.71h2.1ZM75.97,166.65h0ZM79.24,169.36c.61,0,.9-.37.9-.88,0-.58-.3-.84-1.03-1.13-1.15-.44-1.49-.86-1.49-1.63s.46-1.47,1.6-1.47c1.25,0,1.6.85,1.61,1.59h-.79c-.01-.27-.07-.93-.85-.93-.53,0-.77.33-.77.77s.19.67.97.96c1.08.42,1.56.81,1.56,1.77,0,1.02-.64,1.62-1.75,1.62s-1.72-.69-1.75-1.71h.8c.04.6.35,1.05.99,1.05ZM84.84,169.35v2.62h-.8v-6c0-.76,0-1.28-.01-1.63h.78c.01.1.03.47.03.75.2-.48.59-.84,1.33-.84,1.06,0,1.63.94,1.63,2.8,0,2.01-.7,2.97-1.79,2.97-.67,0-1-.32-1.16-.67ZM86.97,167.09c0-1.4-.32-2.13-1.06-2.13-.86,0-1.1.82-1.1,2.14s.13,2.21,1.05,2.21c.73,0,1.1-.85,1.1-2.22ZM92.43,167.06c0,1.96-.66,2.96-1.92,2.96s-1.92-.96-1.92-2.94.76-2.83,1.95-2.83,1.89.94,1.89,2.82ZM89.42,167.09c0,1.52.38,2.24,1.1,2.24s1.09-.73,1.09-2.24c0-1.43-.35-2.13-1.09-2.13s-1.1.63-1.1,2.14ZM96.99,168.39c0,.7,0,1.26.01,1.53h-.77c-.03-.16-.04-.38-.04-.74-.2.55-.67.84-1.33.84s-1.39-.27-1.39-1.67v-4.01h.81v3.82c0,.71.2,1.15.84,1.15s1.06-.38,1.06-1.58v-3.39h.81v4.05ZM98.23,164.34h.77c.01.14.03.4.03,1,.24-.67.78-1.07,1.47-1.08v.89c-.96.03-1.46.63-1.46,1.66v3.12h-.8v-3.68c0-.89,0-1.5-.01-1.9ZM103.38,169.92v-7.83h.8v7.83h-.8ZM106.04,167.28c0,1.09.19,2.05,1.07,2.05s.99-.83,1.02-1h.79c-.01.14-.17,1.69-1.81,1.69s-1.87-1.51-1.87-2.89c0-1.77.6-2.88,1.92-2.88,1.47,0,1.81,1.21,1.81,2.6,0,.11,0,.29-.01.43h-2.91ZM108.16,166.65c0-.96-.2-1.71-1.02-1.71-1.02,0-1.07,1.33-1.09,1.71h2.1ZM108.16,166.65h0ZM113.5,168.39c0,.7,0,1.26.01,1.53h-.77c-.03-.16-.04-.38-.04-.74-.2.55-.67.84-1.33.84s-1.39-.27-1.39-1.67v-4.01h.81v3.82c0,.71.2,1.15.84,1.15s1.06-.38,1.06-1.58v-3.39h.81v4.05ZM114.74,164.34h.77c.01.14.03.4.03,1,.24-.67.78-1.07,1.47-1.08v.89c-.96.03-1.46.63-1.46,1.66v3.12h-.8v-3.68c0-.89,0-1.5-.01-1.9ZM121.27,169.36c.61,0,.9-.37.9-.88,0-.58-.3-.84-1.03-1.13-1.15-.44-1.49-.86-1.49-1.63s.46-1.47,1.6-1.47c1.25,0,1.6.85,1.61,1.59h-.79c-.01-.27-.07-.93-.85-.93-.53,0-.77.33-.77.77s.19.67.97.96c1.08.42,1.56.81,1.56,1.77,0,1.02-.64,1.62-1.75,1.62s-1.72-.69-1.75-1.71h.8c.04.6.35,1.05.99,1.05ZM127.54,167.06c0,1.96-.66,2.96-1.92,2.96s-1.92-.96-1.92-2.94.76-2.83,1.95-2.83,1.89.94,1.89,2.82ZM124.53,167.09c0,1.52.38,2.24,1.1,2.24s1.09-.73,1.09-2.24c0-1.43-.35-2.13-1.09-2.13s-1.1.63-1.1,2.14ZM132.1,168.39c0,.7,0,1.26.01,1.53h-.77c-.03-.16-.04-.38-.04-.74-.2.55-.67.84-1.33.84s-1.39-.27-1.39-1.67v-4.01h.81v3.82c0,.71.2,1.15.84,1.15s1.06-.38,1.06-1.58v-3.39h.81v4.05ZM133.35,166.01c0-.99,0-1.41-.01-1.67h.77c.02.16.03.46.03.71.22-.49.61-.81,1.25-.81.58,0,.99.25,1.16.83.2-.45.62-.83,1.35-.83s1.35.34,1.35,1.62v4.05h-.8v-3.91c0-.56-.16-1.05-.79-1.05-.71,0-.95.63-.95,1.38v3.58h-.8v-3.89c0-.69-.23-1.06-.77-1.06-.67,0-.98.61-.98,1.45v3.5h-.8v-3.91ZM141.1,167.28c0,1.09.19,2.05,1.07,2.05s.99-.83,1.02-1h.79c-.01.14-.17,1.69-1.81,1.69s-1.87-1.51-1.87-2.89c0-1.77.6-2.88,1.92-2.88,1.47,0,1.81,1.21,1.81,2.6,0,.11,0,.29-.01.43h-2.91ZM143.22,166.65c0-.96-.2-1.71-1.02-1.71-1.02,0-1.07,1.33-1.09,1.71h2.1ZM143.22,166.65h0ZM144.47,164.34h.79v-1.49h.8v1.49h.97v.69h-.97v3.66c0,.38.08.62.5.62.13,0,.29,0,.39-.03v.62c-.19.07-.47.09-.66.09-.66,0-1.04-.27-1.04-1.15v-3.82h-.79v-.69ZM146.96,164.34h.79v-1.49h.8v1.49h.97v.69h-.97v3.66c0,.38.08.62.5.62.13,0,.29,0,.39-.03v.62c-.19.07-.47.09-.66.09-.66,0-1.04-.27-1.04-1.15v-3.82h-.79v-.69ZM150.27,164.34h.77c.01.14.03.4.03,1,.24-.67.78-1.07,1.47-1.08v.89c-.96.03-1.46.63-1.46,1.66v3.12h-.8v-3.68c0-.89,0-1.5-.01-1.9ZM153.78,167.28c0,1.09.19,2.05,1.07,2.05s.99-.83,1.02-1h.79c-.01.14-.17,1.69-1.81,1.69s-1.87-1.51-1.87-2.89c0-1.77.6-2.88,1.92-2.88,1.47,0,1.81,1.21,1.81,2.6,0,.11,0,.29-.01.43h-2.91ZM155.9,166.65c0-.96-.2-1.71-1.02-1.71-1.02,0-1.07,1.33-1.09,1.71h2.1ZM155.9,166.65h0Z"/>
    <path class="cls-5" d="M26.9,177.54c.46,1.81,1.01,3.99,1.12,4.67h.01c.07-.62.91-3.53,1.18-4.67h.81l-1.6,5.58h-.87l-1.51-5.58h.85ZM34.31,180.26c0,1.96-.66,2.96-1.92,2.96s-1.92-.96-1.92-2.94.76-2.83,1.95-2.83,1.89.94,1.89,2.82ZM31.29,180.29c0,1.52.38,2.24,1.1,2.24s1.09-.73,1.09-2.24c0-1.43-.35-2.13-1.09-2.13s-1.1.63-1.1,2.14ZM34.69,177.54h.79v-1.49h.8v1.49h.97v.69h-.97v3.66c0,.38.08.62.5.62.13,0,.29,0,.39-.03v.62c-.19.07-.47.09-.66.09-.66,0-1.04-.27-1.04-1.15v-3.82h-.79v-.69ZM37.99,177.54h.77c.01.14.03.4.03,1,.24-.67.78-1.07,1.47-1.08v.89c-.96.03-1.46.63-1.46,1.66v3.12h-.8v-3.68c0-.89,0-1.5-.01-1.9ZM41.51,180.48c0,1.09.19,2.05,1.07,2.05s.99-.83,1.02-1h.79c-.01.14-.17,1.69-1.81,1.69s-1.87-1.51-1.87-2.89c0-1.77.6-2.88,1.92-2.88,1.47,0,1.81,1.21,1.81,2.6,0,.11,0,.29-.01.43h-2.91ZM43.63,179.85c0-.96-.2-1.71-1.02-1.71-1.02,0-1.07,1.33-1.09,1.71h2.1ZM43.63,179.85h0ZM48.36,182.55v2.62h-.8v-6c0-.76,0-1.28-.01-1.63h.78c.01.1.03.47.03.75.2-.48.59-.84,1.33-.84,1.06,0,1.63.94,1.63,2.8,0,2.01-.7,2.97-1.79,2.97-.67,0-1-.32-1.16-.67ZM50.49,180.29c0-1.4-.32-2.13-1.06-2.13-.86,0-1.1.82-1.1,2.14s.13,2.21,1.05,2.21c.73,0,1.1-.85,1.1-2.22ZM52.35,177.54h.77c.01.14.03.4.03,1,.24-.67.78-1.07,1.47-1.08v.89c-.96.03-1.46.63-1.46,1.66v3.12h-.8v-3.68c0-.89,0-1.5-.01-1.9ZM58.89,180.26c0,1.96-.66,2.96-1.92,2.96s-1.92-.96-1.92-2.94.76-2.83,1.95-2.83,1.89.94,1.89,2.82ZM55.88,180.29c0,1.52.38,2.24,1.1,2.24s1.09-.73,1.09-2.24c0-1.43-.35-2.13-1.09-2.13s-1.1.63-1.1,2.14ZM60.74,182.55v2.62h-.8v-6c0-.76,0-1.28-.01-1.63h.78c.01.1.03.47.03.75.2-.48.59-.84,1.33-.84,1.06,0,1.63.94,1.63,2.8,0,2.01-.7,2.97-1.79,2.97-.67,0-1-.32-1.16-.67ZM62.87,180.29c0-1.4-.32-2.13-1.06-2.13-.86,0-1.1.82-1.1,2.14s.13,2.21,1.05,2.21c.73,0,1.1-.85,1.1-2.22ZM68.33,180.26c0,1.96-.66,2.96-1.92,2.96s-1.92-.96-1.92-2.94.76-2.83,1.95-2.83,1.89.94,1.89,2.82ZM65.32,180.29c0,1.52.38,2.24,1.1,2.24s1.09-.73,1.09-2.24c0-1.43-.35-2.13-1.09-2.13s-1.1.63-1.1,2.14ZM70.81,182.56c.61,0,.9-.37.9-.88,0-.58-.3-.84-1.03-1.13-1.15-.44-1.49-.86-1.49-1.63s.46-1.47,1.6-1.47c1.25,0,1.6.85,1.61,1.59h-.79c-.01-.27-.07-.93-.85-.93-.53,0-.77.33-.77.77s.19.67.97.96c1.08.42,1.56.81,1.56,1.77,0,1.02-.64,1.62-1.75,1.62s-1.72-.69-1.75-1.71h.8c.04.6.35,1.05.99,1.05ZM73.49,177.54h.8v5.58h-.8v-5.58ZM73.49,175.29h.8v1.15h-.8v-1.15ZM75.04,177.54h.79v-1.49h.8v1.49h.97v.69h-.97v3.66c0,.38.08.62.5.62.13,0,.29,0,.39-.03v.62c-.19.07-.47.09-.66.09-.66,0-1.04-.27-1.04-1.15v-3.82h-.79v-.69ZM78.4,177.54h.8v5.58h-.8v-5.58ZM78.4,175.29h.8v1.15h-.8v-1.15ZM84.09,180.26c0,1.96-.66,2.96-1.92,2.96s-1.92-.96-1.92-2.94.76-2.83,1.95-2.83,1.89.94,1.89,2.82ZM81.08,180.29c0,1.52.38,2.24,1.1,2.24s1.09-.73,1.09-2.24c0-1.43-.35-2.13-1.09-2.13s-1.1.63-1.1,2.14ZM85.13,177.54h.78c.01.14.03.36.03.73.19-.44.57-.83,1.32-.83.81,0,1.43.46,1.43,1.7v3.97h-.81v-3.82c0-.68-.22-1.14-.86-1.14-.75,0-1.07.49-1.07,1.64v3.32h-.81v-3.85c0-1.14,0-1.47-.01-1.73ZM95.54,175.29v6.4c0,.54,0,1.1.01,1.43h-.78c-.01-.14-.03-.51-.03-.75-.17.48-.53.85-1.31.85-1.16,0-1.65-.99-1.65-2.95,0-1.78.66-2.82,1.83-2.82.72,0,1,.31,1.13.58v-2.74h.8ZM92.61,180.28c0,1.61.37,2.22,1.05,2.22.87,0,1.1-.74,1.1-2.25,0-1.63-.23-2.09-1.03-2.09-.66,0-1.11.58-1.11,2.12ZM96.44,177.8c.2-.76.38-1.68.38-2.54h.78c-.01.94-.3,2.07-.51,2.54h-.65ZM101.37,182.13c0,.35.03.81.04.99h-.74c-.03-.12-.06-.42-.06-.63-.21.45-.63.73-1.32.73-1.07,0-1.46-.84-1.46-1.61,0-1.02.69-1.79,2.15-1.79.26,0,.42,0,.58.02v-.74c0-.44-.08-.99-.84-.99-.82,0-.87.59-.9.96h-.78c.02-.8.4-1.62,1.71-1.62,1.08,0,1.6.53,1.6,1.55v3.13ZM100.6,180.48c-.14-.02-.29-.03-.55-.03-.99,0-1.4.48-1.4,1.1,0,.51.27.99.87.99.82,0,1.08-.58,1.08-1.75v-.3ZM106.06,181.42c-.02.3-.14,1.8-1.77,1.8-1.46,0-1.85-1.29-1.85-2.91s.51-2.87,1.93-2.87c1.62,0,1.7,1.5,1.7,1.76h-.82c-.01-.23-.09-1.07-.88-1.07s-1.1.88-1.1,2.17c0,1.39.3,2.22,1.06,2.22.81,0,.9-.81.94-1.11h.8ZM107.83,175.29v2.93c.19-.45.63-.78,1.34-.78.82,0,1.41.51,1.41,1.71v3.97h-.81v-3.8c0-.68-.2-1.16-.88-1.16-.77,0-1.05.63-1.05,1.6v3.35h-.81v-7.83h.81ZM115.03,182.13c0,.35.03.81.04.99h-.74c-.03-.12-.06-.42-.06-.63-.21.45-.63.73-1.32.73-1.07,0-1.46-.84-1.46-1.61,0-1.02.69-1.79,2.15-1.79.26,0,.42,0,.58.02v-.74c0-.44-.08-.99-.84-.99-.82,0-.87.59-.9.96h-.78c.02-.8.4-1.62,1.71-1.62,1.08,0,1.6.53,1.6,1.55v3.13ZM114.26,180.48c-.14-.02-.29-.03-.55-.03-.99,0-1.4.48-1.4,1.1,0,.51.27.99.87.99.82,0,1.08-.58,1.08-1.75v-.3ZM115.68,177.54h.79v-1.49h.8v1.49h.97v.69h-.97v3.66c0,.38.08.62.5.62.13,0,.29,0,.39-.03v.62c-.19.07-.47.09-.66.09-.66,0-1.04-.27-1.04-1.15v-3.82h-.79v-.69ZM124.66,180.26c0,1.96-.66,2.96-1.92,2.96s-1.92-.96-1.92-2.94.76-2.83,1.95-2.83,1.89.94,1.89,2.82ZM121.65,180.29c0,1.52.38,2.24,1.1,2.24s1.09-.73,1.09-2.24c0-1.43-.35-2.13-1.09-2.13s-1.1.63-1.1,2.14ZM129.22,181.59c0,.7,0,1.26.01,1.53h-.77c-.03-.16-.04-.38-.04-.74-.2.55-.67.84-1.33.84s-1.39-.27-1.39-1.67v-4.01h.81v3.82c0,.71.2,1.15.84,1.15s1.06-.38,1.06-1.58v-3.39h.81v4.05ZM132.61,177.54h.77c.01.14.03.4.03,1,.24-.67.78-1.07,1.47-1.08v.89c-.96.03-1.46.63-1.46,1.66v3.12h-.8v-3.68c0-.89,0-1.5-.01-1.9ZM136.13,180.48c0,1.09.19,2.05,1.07,2.05s.99-.83,1.02-1h.79c-.01.14-.17,1.69-1.81,1.69s-1.87-1.51-1.87-2.89c0-1.77.6-2.88,1.92-2.88,1.47,0,1.81,1.21,1.81,2.6,0,.11,0,.29-.01.43h-2.91ZM138.25,179.85c0-.96-.2-1.71-1.02-1.71-1.02,0-1.07,1.33-1.09,1.71h2.1ZM138.25,179.85h0ZM140.08,179.21c0-.99,0-1.41-.01-1.67h.77c.02.16.03.46.03.71.22-.49.61-.81,1.25-.81.58,0,.99.25,1.16.83.2-.45.62-.83,1.35-.83s1.35.34,1.35,1.62v4.05h-.8v-3.91c0-.56-.16-1.05-.79-1.05-.71,0-.95.63-.95,1.38v3.58h-.8v-3.89c0-.69-.23-1.06-.77-1.06-.67,0-.98.61-.98,1.45v3.5h-.8v-3.91ZM148.09,182.55v2.62h-.8v-6c0-.76,0-1.28-.01-1.63h.78c.01.1.03.47.03.75.2-.48.59-.84,1.33-.84,1.06,0,1.63.94,1.63,2.8,0,2.01-.7,2.97-1.79,2.97-.67,0-1-.32-1.16-.67ZM150.22,180.29c0-1.4-.32-2.13-1.06-2.13-.86,0-1.1.82-1.1,2.14s.13,2.21,1.05,2.21c.73,0,1.1-.85,1.1-2.22ZM152.09,183.12v-7.83h.8v7.83h-.8ZM154.23,177.54h.8v5.58h-.8v-5.58ZM154.23,175.29h.8v1.15h-.8v-1.15ZM156.35,177.54h.77c.01.14.03.4.03,1,.24-.67.78-1.07,1.47-1.08v.89c-.96.03-1.46.63-1.46,1.66v3.12h-.8v-3.68c0-.89,0-1.5-.01-1.9ZM161.5,183.12v-7.83h.8v7.83h-.8ZM164.17,180.48c0,1.09.19,2.05,1.07,2.05s.99-.83,1.02-1h.79c-.01.14-.17,1.69-1.81,1.69s-1.87-1.51-1.87-2.89c0-1.77.6-2.88,1.92-2.88,1.47,0,1.81,1.21,1.81,2.6,0,.11,0,.29-.01.43h-2.91ZM166.28,179.85c0-.96-.2-1.71-1.02-1.71-1.02,0-1.07,1.33-1.09,1.71h2.1ZM166.28,179.85h0Z"/>
    <path class="cls-5" d="M26.69,196.32v-4.89h-.73v-.69h.73v-.77c0-.82.3-1.55,1.31-1.55.15,0,.35.03.45.06v.71c-.1-.02-.23-.05-.37-.05-.44,0-.59.28-.59.84v.75h.88v.69h-.88v4.89h-.8ZM32.54,193.46c0,1.96-.66,2.96-1.92,2.96s-1.92-.96-1.92-2.94.76-2.83,1.95-2.83,1.89.94,1.89,2.82ZM29.52,193.49c0,1.52.38,2.24,1.1,2.24s1.09-.73,1.09-2.24c0-1.43-.35-2.13-1.09-2.13s-1.1.63-1.1,2.14ZM33.57,190.74h.77c.01.14.03.4.03,1,.24-.67.78-1.07,1.47-1.08v.89c-.96.03-1.46.63-1.46,1.66v3.12h-.8v-3.68c0-.89,0-1.5-.01-1.9ZM36.57,192.41c0-.99,0-1.41-.01-1.67h.77c.02.16.03.46.03.71.22-.49.61-.81,1.25-.81.58,0,.99.25,1.16.83.2-.45.62-.83,1.35-.83s1.35.34,1.35,1.62v4.05h-.8v-3.91c0-.56-.16-1.05-.79-1.05-.71,0-.95.63-.95,1.38v3.58h-.8v-3.89c0-.69-.23-1.06-.77-1.06-.67,0-.98.61-.98,1.45v3.5h-.8v-3.91ZM47.3,194.79c0,.7,0,1.26.01,1.53h-.77c-.03-.16-.04-.38-.04-.74-.2.55-.67.84-1.33.84s-1.39-.27-1.39-1.67v-4.01h.81v3.82c0,.71.2,1.15.84,1.15s1.06-.38,1.06-1.58v-3.39h.81v4.05ZM48.61,196.32v-7.83h.8v7.83h-.8ZM53.93,195.33c0,.35.03.81.04.99h-.74c-.03-.12-.06-.42-.06-.63-.21.45-.63.73-1.32.73-1.07,0-1.46-.84-1.46-1.61,0-1.02.69-1.79,2.15-1.79.26,0,.42,0,.58.02v-.74c0-.44-.08-.99-.84-.99-.82,0-.87.59-.9.96h-.78c.02-.8.4-1.62,1.71-1.62,1.08,0,1.6.53,1.6,1.55v3.13ZM53.15,193.68c-.14-.02-.29-.03-.55-.03-.99,0-1.4.48-1.4,1.1,0,.51.27.99.87.99.82,0,1.08-.58,1.08-1.75v-.3ZM55.26,190.74h.8v5.58h-.8v-5.58ZM55.27,188.49h.8v1.15h-.8v-1.15ZM57.39,190.74h.77c.01.14.03.4.03,1,.24-.67.78-1.07,1.47-1.08v.89c-.96.03-1.46.63-1.46,1.66v3.12h-.8v-3.68c0-.89,0-1.5-.01-1.9ZM60.9,193.68c0,1.09.19,2.05,1.07,2.05s.99-.83,1.02-1h.79c-.01.14-.17,1.69-1.81,1.69s-1.87-1.51-1.87-2.89c0-1.77.6-2.88,1.92-2.88,1.47,0,1.81,1.21,1.81,2.6,0,.11,0,.29-.01.43h-2.91ZM63.02,193.05c0-.96-.2-1.71-1.02-1.71-1.02,0-1.07,1.33-1.09,1.71h2.1ZM63.02,193.05h0ZM67.48,193.68c0,1.09.19,2.05,1.07,2.05s.99-.83,1.02-1h.79c-.01.14-.17,1.69-1.81,1.69s-1.87-1.51-1.87-2.89c0-1.77.6-2.88,1.92-2.88,1.47,0,1.81,1.21,1.81,2.6,0,.11,0,.29-.01.43h-2.91ZM69.6,193.05c0-.96-.2-1.71-1.02-1.71-1.02,0-1.07,1.33-1.09,1.71h2.1ZM69.6,193.05h0ZM71.41,190.74h.78c.01.14.03.36.03.73.19-.44.57-.83,1.32-.83.81,0,1.43.46,1.43,1.7v3.97h-.81v-3.82c0-.68-.22-1.14-.86-1.14-.75,0-1.07.49-1.07,1.64v3.32h-.81v-3.85c0-1.14,0-1.47-.01-1.73ZM78.34,196.32v-7.83h.8v7.83h-.8ZM80.47,190.74h.8v5.58h-.8v-5.58ZM80.48,188.49h.8v1.15h-.8v-1.15ZM86.1,195.96c0,1.47-.35,2.49-1.95,2.49-1.44,0-1.75-.94-1.78-1.54h.82c.02.31.2.85.99.85.94,0,1.13-.68,1.13-1.81v-.51c-.2.57-.67.85-1.3.85-1.13,0-1.68-.95-1.68-2.71,0-2.01.74-2.95,1.8-2.95.76,0,1.08.37,1.18.73,0-.25.03-.52.04-.64h.77c-.01.29-.01.86-.01,1.61v3.61ZM83.16,193.58c0,1.35.37,2.01,1.06,2.01.86,0,1.1-.85,1.1-2.15s-.18-2.08-1.03-2.08c-.74,0-1.13.77-1.13,2.22ZM87.43,190.74h.78c.01.14.03.36.03.73.19-.44.57-.83,1.32-.83.81,0,1.43.46,1.43,1.7v3.97h-.81v-3.82c0-.68-.22-1.14-.86-1.14-.75,0-1.07.49-1.07,1.64v3.32h-.81v-3.85c0-1.14,0-1.47-.01-1.73ZM92.84,193.68c0,1.09.19,2.05,1.07,2.05s.99-.83,1.02-1h.79c-.01.14-.17,1.69-1.81,1.69s-1.87-1.51-1.87-2.89c0-1.77.6-2.88,1.92-2.88,1.47,0,1.81,1.21,1.81,2.6,0,.11,0,.29-.01.43h-2.91ZM94.96,193.05c0-.96-.2-1.71-1.02-1.71-1.02,0-1.07,1.33-1.09,1.71h2.1ZM94.96,193.05h0ZM100.27,195.76c.61,0,.9-.37.9-.88,0-.58-.3-.84-1.03-1.13-1.15-.44-1.49-.86-1.49-1.63s.46-1.47,1.6-1.47c1.25,0,1.6.85,1.61,1.59h-.79c-.01-.27-.07-.93-.85-.93-.53,0-.77.33-.77.77s.19.67.97.96c1.08.42,1.56.81,1.56,1.77,0,1.02-.64,1.62-1.75,1.62s-1.72-.69-1.75-1.71h.8c.04.6.35,1.05.99,1.05ZM106.41,194.79c0,.7,0,1.26.01,1.53h-.77c-.03-.16-.04-.38-.04-.74-.2.55-.67.84-1.33.84s-1.39-.27-1.39-1.67v-4.01h.81v3.82c0,.71.2,1.15.84,1.15s1.06-.38,1.06-1.58v-3.39h.81v4.05ZM107.66,190.74h.77c.01.14.03.4.03,1,.24-.67.78-1.07,1.47-1.08v.89c-.96.03-1.46.63-1.46,1.66v3.12h-.8v-3.68c0-.89,0-1.5-.01-1.9ZM112.8,196.32v-7.83h.8v7.83h-.8ZM115.47,193.68c0,1.09.19,2.05,1.07,2.05s.99-.83,1.02-1h.79c-.01.14-.17,1.69-1.81,1.69s-1.87-1.51-1.87-2.89c0-1.77.6-2.88,1.92-2.88,1.47,0,1.81,1.21,1.81,2.6,0,.11,0,.29-.01.43h-2.91ZM117.59,193.05c0-.96-.2-1.71-1.02-1.71-1.02,0-1.07,1.33-1.09,1.71h2.1ZM117.59,193.05h0ZM120.86,195.76c.61,0,.9-.37.9-.88,0-.58-.3-.84-1.03-1.13-1.15-.44-1.49-.86-1.49-1.63s.46-1.47,1.6-1.47c1.25,0,1.6.85,1.61,1.59h-.79c-.01-.27-.07-.93-.85-.93-.53,0-.77.33-.77.77s.19.67.97.96c1.08.42,1.56.81,1.56,1.77,0,1.02-.64,1.62-1.75,1.62s-1.72-.69-1.75-1.71h.8c.04.6.35,1.05.99,1.05ZM126.47,195.75v2.62h-.8v-6c0-.76,0-1.28-.01-1.63h.78c.01.1.03.47.03.75.2-.48.59-.84,1.33-.84,1.06,0,1.63.94,1.63,2.8,0,2.01-.7,2.97-1.79,2.97-.67,0-1-.32-1.16-.67ZM128.6,193.49c0-1.4-.32-2.13-1.06-2.13-.86,0-1.1.82-1.1,2.14s.13,2.21,1.05,2.21c.73,0,1.1-.85,1.1-2.22ZM133.69,195.33c0,.35.03.81.04.99h-.74c-.03-.12-.06-.42-.06-.63-.21.45-.63.73-1.32.73-1.07,0-1.46-.84-1.46-1.61,0-1.02.69-1.79,2.15-1.79.26,0,.42,0,.58.02v-.74c0-.44-.08-.99-.84-.99-.82,0-.87.59-.9.96h-.78c.02-.8.4-1.62,1.71-1.62,1.08,0,1.6.53,1.6,1.55v3.13ZM132.92,193.68c-.14-.02-.29-.03-.55-.03-.99,0-1.4.48-1.4,1.1,0,.51.27.99.87.99.82,0,1.08-.58,1.08-1.75v-.3ZM138.52,195.96c0,1.47-.35,2.49-1.95,2.49-1.44,0-1.75-.94-1.78-1.54h.82c.02.31.2.85.99.85.94,0,1.13-.68,1.13-1.81v-.51c-.2.57-.67.85-1.3.85-1.13,0-1.68-.95-1.68-2.71,0-2.01.74-2.95,1.8-2.95.76,0,1.08.37,1.18.73,0-.25.03-.52.04-.64h.77c-.01.29-.01.86-.01,1.61v3.61ZM135.57,193.58c0,1.35.37,2.01,1.06,2.01.86,0,1.1-.85,1.1-2.15s-.18-2.08-1.03-2.08c-.74,0-1.13.77-1.13,2.22ZM140.39,193.68c0,1.09.19,2.05,1.07,2.05s.99-.83,1.02-1h.79c-.01.14-.17,1.69-1.81,1.69s-1.87-1.51-1.87-2.89c0-1.77.6-2.88,1.92-2.88,1.47,0,1.81,1.21,1.81,2.6,0,.11,0,.29-.01.43h-2.91ZM142.5,193.05c0-.96-.2-1.71-1.02-1.71-1.02,0-1.07,1.33-1.09,1.71h2.1ZM142.5,193.05h0ZM145.77,195.76c.61,0,.9-.37.9-.88,0-.58-.3-.84-1.03-1.13-1.15-.44-1.49-.86-1.49-1.63s.46-1.47,1.6-1.47c1.25,0,1.6.85,1.61,1.59h-.79c-.01-.27-.07-.93-.85-.93-.53,0-.77.33-.77.77s.19.67.97.96c1.08.42,1.56.81,1.56,1.77,0,1.02-.64,1.62-1.75,1.62s-1.72-.69-1.75-1.71h.8c.04.6.35,1.05.99,1.05ZM150.94,190.74c.54,2.65.8,3.92.9,4.68h.01c.11-.73.34-1.6,1.03-4.68h.77c.66,2.92.9,4.05.98,4.66h.01c.08-.61.29-1.61.94-4.66h.82l-1.37,5.58h-.85c-.4-1.82-.82-3.64-.94-4.5h-.01c-.11.83-.51,2.47-.99,4.5h-.88l-1.28-5.58h.86ZM157.71,193.68c0,1.09.19,2.05,1.07,2.05s.99-.83,1.02-1h.79c-.01.14-.17,1.69-1.81,1.69s-1.87-1.51-1.87-2.89c0-1.77.6-2.88,1.92-2.88,1.47,0,1.81,1.21,1.81,2.6,0,.11,0,.29-.01.43h-2.91ZM159.83,193.05c0-.96-.2-1.71-1.02-1.71-1.02,0-1.07,1.33-1.09,1.71h2.1ZM159.83,193.05h0ZM161.66,188.49h.8v2.99c.18-.43.57-.83,1.33-.83,1.07,0,1.63.89,1.63,2.74,0,1.72-.46,3.02-1.78,3.02-.71,0-1.03-.36-1.2-.75,0,.18-.01.44-.03.66h-.76c.01-.3.01-.85.01-1.53v-6.3ZM164.6,193.41c0-1.4-.33-2.04-1.03-2.04-.86,0-1.14.77-1.14,2.18,0,1.34.22,2.16,1.06,2.16.74,0,1.1-.72,1.1-2.3Z"/>
    <path class="cls-5" d="M30.08,201.69v6.4c0,.54,0,1.1.01,1.43h-.78c-.01-.14-.03-.51-.03-.75-.17.48-.53.85-1.31.85-1.16,0-1.65-.99-1.65-2.95,0-1.78.66-2.82,1.83-2.82.72,0,1,.31,1.13.58v-2.74h.8ZM27.15,206.68c0,1.61.37,2.22,1.05,2.22.87,0,1.1-.74,1.1-2.25,0-1.63-.23-2.09-1.03-2.09-.66,0-1.11.58-1.11,2.12ZM31.93,206.88c0,1.09.19,2.05,1.07,2.05s.99-.83,1.02-1h.79c-.01.14-.17,1.69-1.81,1.69s-1.87-1.51-1.87-2.89c0-1.77.6-2.88,1.92-2.88,1.47,0,1.81,1.21,1.81,2.6,0,.11,0,.29-.01.43h-2.91ZM34.04,206.25c0-.96-.2-1.71-1.02-1.71-1.02,0-1.07,1.33-1.09,1.71h2.1ZM34.04,206.25h0ZM37.97,209.52v-7.83h.8v7.83h-.8ZM43.29,208.53c0,.35.03.81.04.99h-.74c-.03-.12-.06-.42-.06-.63-.21.45-.63.73-1.32.73-1.07,0-1.46-.84-1.46-1.61,0-1.02.69-1.79,2.15-1.79.26,0,.42,0,.58.02v-.74c0-.44-.08-.99-.84-.99-.82,0-.87.59-.9.96h-.78c.02-.8.4-1.62,1.71-1.62,1.08,0,1.6.53,1.6,1.55v3.13ZM42.52,206.88c-.14-.02-.29-.03-.55-.03-.99,0-1.4.48-1.4,1.1,0,.51.27.99.87.99.82,0,1.08-.58,1.08-1.75v-.3ZM46.8,202.05h1.95c1.12,0,1.8.67,1.8,1.82,0,1-.48,1.44-.92,1.59.57.2,1.16.72,1.16,1.88,0,1.34-.81,2.19-2.11,2.19h-1.89v-7.47ZM48.47,205.16c.94,0,1.28-.42,1.28-1.22,0-.75-.39-1.21-1.18-1.21h-.96v2.43h.86ZM47.61,208.84h1c.88,0,1.36-.53,1.36-1.51s-.51-1.5-1.51-1.5h-.85v3.01ZM51.83,203.94h.8v5.58h-.8v-5.58ZM51.84,201.69h.8v1.15h-.8v-1.15ZM53.99,201.69h.8v2.99c.18-.43.57-.83,1.33-.83,1.07,0,1.63.89,1.63,2.74,0,1.72-.46,3.02-1.78,3.02-.71,0-1.03-.36-1.2-.75,0,.18-.01.44-.03.66h-.76c.01-.3.01-.85.01-1.53v-6.3ZM56.94,206.61c0-1.4-.33-2.04-1.03-2.04-.86,0-1.14.77-1.14,2.18,0,1.34.22,2.16,1.06,2.16.74,0,1.1-.72,1.1-2.3ZM58.78,209.52v-7.83h.8v7.83h-.8ZM60.92,203.94h.8v5.58h-.8v-5.58ZM60.92,201.69h.8v1.15h-.8v-1.15ZM66.61,206.66c0,1.96-.66,2.96-1.92,2.96s-1.92-.96-1.92-2.94.76-2.83,1.95-2.83,1.89.94,1.89,2.82ZM63.6,206.69c0,1.52.38,2.24,1.1,2.24s1.09-.73,1.09-2.24c0-1.43-.35-2.13-1.09-2.13s-1.1.63-1.1,2.14ZM66.99,203.94h.79v-1.49h.8v1.49h.97v.69h-.97v3.66c0,.38.08.62.5.62.13,0,.29,0,.39-.03v.62c-.19.07-.47.09-.66.09-.66,0-1.04-.27-1.04-1.15v-3.82h-.79v-.69ZM71.13,201.69v2.93c.19-.45.63-.78,1.34-.78.82,0,1.41.51,1.41,1.71v3.97h-.81v-3.8c0-.68-.2-1.16-.88-1.16-.77,0-1.05.63-1.05,1.6v3.35h-.81v-7.83h.81ZM75.72,206.88c0,1.09.19,2.05,1.07,2.05s.99-.83,1.02-1h.79c-.01.14-.17,1.69-1.81,1.69s-1.87-1.51-1.87-2.89c0-1.77.6-2.88,1.92-2.88,1.47,0,1.81,1.21,1.81,2.6,0,.11,0,.29-.01.43h-2.91ZM76.12,201.57l1.18,1.53h-.76l-1.39-1.53h.97ZM77.83,206.25c0-.96-.2-1.71-1.02-1.71-1.02,0-1.07,1.33-1.09,1.71h2.1ZM77.83,206.25h0ZM82.45,208.81c-.21.48-.59.8-1.31.8-1.04,0-1.66-.86-1.66-2.89,0-1.85.7-2.88,1.8-2.88.74,0,1.05.35,1.17.7,0-.31.02-.5.03-.6h.78c-.01.4-.01.86-.01,1.65v5.98h-.79v-2.76ZM80.3,206.74c0,1.33.31,2.18,1.06,2.18.9,0,1.09-.78,1.09-2.21s-.12-2.15-1.03-2.15c-.7,0-1.11.76-1.11,2.18ZM88.08,207.99c0,.7,0,1.26.01,1.53h-.77c-.03-.16-.04-.38-.04-.74-.2.55-.67.84-1.33.84s-1.39-.27-1.39-1.67v-4.01h.81v3.82c0,.71.2,1.15.84,1.15s1.06-.38,1.06-1.58v-3.39h.81v4.05ZM89.92,206.88c0,1.09.19,2.05,1.07,2.05s.99-.83,1.02-1h.79c-.01.14-.17,1.69-1.81,1.69s-1.87-1.51-1.87-2.89c0-1.77.6-2.88,1.92-2.88,1.47,0,1.81,1.21,1.81,2.6,0,.11,0,.29-.01.43h-2.91ZM92.04,206.25c0-.96-.2-1.71-1.02-1.71-1.02,0-1.07,1.33-1.09,1.71h2.1ZM92.04,206.25h0ZM93.67,208.01h.82v1.51h-.82v-1.51Z"/>
    <path class="cls-5" d="M66.52,72.19l-3.47-13.99h2.34l1.37,6.17c.42,1.89.86,4.09,1.03,5.51h.04c.17-1.35.74-3.6,1.16-5.47l1.36-6.21h2.27l-3.55,13.99h-2.55ZM73.22,65.18c0-1.73,0-2.84-.02-3.6h2.05c.02.21.06.67.06,1.8.42-1.23,1.38-1.96,2.79-1.97v2.39c-1.77,0-2.73.72-2.73,2.71v5.69h-2.14v-7.01ZM85.9,70.02c0,.57.05,1.73.08,2.16h-1.95c-.05-.22-.1-.72-.1-1.06-.4.74-1.13,1.25-2.43,1.25-2.04,0-2.81-1.61-2.81-3.12,0-2.1,1.43-3.46,4.15-3.46.4,0,.69,0,.95.03v-1.24c0-.69-.11-1.52-1.29-1.52s-1.31.82-1.37,1.52h-2.04c.04-1.55.77-3.18,3.49-3.18,2.21,0,3.32,1.02,3.32,3.02v5.6ZM83.84,67.41c-.25-.04-.5-.05-.88-.05-1.56,0-2.16.73-2.16,1.71,0,.76.38,1.55,1.36,1.55,1.35,0,1.67-.99,1.67-2.79v-.42ZM90.34,61.57v10.61h-2.14v-10.61h2.14ZM90.36,57.51v2.34h-2.14v-2.34h2.14ZM92.04,72.6l4.02-14.49h1.64l-4,14.49h-1.66ZM99.55,58.2h6.94v1.91h-4.77v3.96h4.49v1.88h-4.49v6.23h-2.16v-13.99ZM114.3,70.02c0,.57.05,1.73.08,2.16h-1.95c-.05-.22-.1-.72-.1-1.06-.4.74-1.13,1.25-2.43,1.25-2.04,0-2.81-1.61-2.81-3.12,0-2.1,1.43-3.46,4.15-3.46.4,0,.69,0,.95.03v-1.24c0-.69-.11-1.52-1.29-1.52s-1.31.82-1.37,1.52h-2.04c.04-1.55.77-3.18,3.49-3.18,2.21,0,3.32,1.02,3.32,3.02v5.6ZM112.24,67.41c-.25-.04-.5-.05-.88-.05-1.56,0-2.16.73-2.16,1.71,0,.76.38,1.55,1.36,1.55,1.35,0,1.67-.99,1.67-2.79v-.42ZM123.69,72.19h-2.04c-.06-.32-.08-.78-.09-1.24-.44,1-1.24,1.43-2.42,1.43-1.42,0-2.65-.66-2.65-3.18v-7.62h2.15v7.13c0,1.15.27,1.82,1.27,1.82s1.62-.57,1.62-2.46v-6.49h2.15v7.57c0,1.47,0,2.51.02,3.05ZM127.21,61.57c.9,1.96,1.37,2.94,1.63,3.51h.02c.31-.72.91-1.92,1.65-3.51h2.27l-2.74,5.02,2.75,5.59h-2.38c-.87-1.98-1.37-3.08-1.63-3.68h-.02c-.25.56-.92,2.04-1.68,3.68h-2.28l2.71-5.3-2.65-5.32h2.35Z"/>
    <g class="cls-18">
      <path class="cls-8" d="M80.43,26.04c.09.04.19,0,.23-.08l.41-.87c.04-.09,0-.19-.08-.23-.09-.04-.19,0-.23.08l-.41.87c-.04.09,0,.19.08.23"/>
      <path class="cls-8" d="M78.53,25.43s.09,0,.13-.03c.04-.03.06-.06.07-.11l.09-.47s0-.09-.03-.13-.06-.06-.11-.07c-.05,0-.09,0-.13.03-.04.03-.06.06-.07.11l-.09.47s0,.09.03.13c.02.04.06.06.11.07"/>
      <path class="cls-8" d="M74.59,25.72s.08-.05.1-.09c.02-.04.02-.09,0-.13l-.16-.46s-.05-.08-.09-.1c-.04-.02-.09-.02-.13,0-.04.01-.08.05-.1.09-.02.04-.02.09,0,.13l.16.45s.05.08.09.1c.04.02.09.02.13,0"/>
      <path class="cls-8" d="M76.54,25.32c.09,0,.17-.09.16-.18l-.07-.96c0-.09-.09-.17-.18-.16-.1,0-.17.09-.16.18l.07.96c0,.1.09.17.19.16"/>
      <path class="cls-8" d="M74.59,25.72s-.09.01-.13,0c-.04-.02-.07-.05-.09-.1l-.16-.45s-.01-.09,0-.13c.02-.04.05-.07.1-.09.04-.02.09-.01.13,0,.04.02.07.05.09.1l.16.46s.01.09,0,.13c-.02.04-.05.07-.1.09"/>
      <path class="cls-8" d="M82.11,27.12s-.06-.07-.06-.12c0-.04,0-.09.04-.13l.31-.37s.07-.06.12-.06c.04,0,.09,0,.13.04.04.03.06.07.06.12s0,.09-.04.13l-.31.37s-.07.06-.12.06c-.04,0-.09,0-.13-.04"/>
      <path class="cls-8" d="M83.47,28.58c-.06-.08-.04-.18.04-.24l.79-.56c.08-.06.18-.04.24.04s.04.18-.04.24l-.78.56c-.08.06-.19.04-.24-.04"/>
      <path class="cls-8" d="M72.8,26.61c.08-.05.1-.16.05-.24l-.53-.8c-.05-.08-.16-.1-.24-.05-.08.05-.1.16-.05.24l.53.8c.05.08.16.1.24.05"/>
      <path class="cls-8" d="M70.17,29.57c.04-.08,0-.19-.08-.23l-.86-.43c-.08-.04-.19,0-.23.08-.04.08,0,.19.08.23l.86.43c.08.04.19,0,.23-.08"/>
      <path class="cls-8" d="M69.51,31.45s0-.09-.02-.13-.06-.07-.11-.07l-.47-.1s-.09,0-.13.02c-.04.02-.07.06-.08.11,0,.05,0,.09.02.13.02.04.06.07.11.08l.47.1s.09,0,.13-.02c.04-.02.07-.06.08-.11"/>
      <path class="cls-8" d="M69.69,35.41s-.05-.08-.08-.1c-.04-.02-.09-.03-.13-.01l-.46.14s-.08.04-.1.08c-.02.04-.03.09-.01.13.01.04.05.08.08.1.04.02.09.03.13.01l.46-.14s.08-.05.1-.08c.02-.04.03-.09.01-.13"/>
      <path class="cls-8" d="M69.34,33.44c0-.09-.09-.17-.18-.16l-.96.04c-.09,0-.17.09-.16.18,0,.1.08.17.18.16l.96-.04c.1,0,.17-.09.16-.18"/>
      <path class="cls-8" d="M69.69,35.41s0,.09-.01.13c-.02.04-.06.07-.1.08l-.46.14s-.09,0-.13-.01c-.04-.02-.07-.06-.08-.1-.01-.05,0-.09.01-.13.02-.04.06-.07.1-.08l.46-.14s.09,0,.13.01c.04.02.07.06.08.1"/>
      <path class="cls-8" d="M71.29,27.92s-.08.06-.12.06c-.04,0-.09-.01-.12-.04l-.36-.32s-.06-.08-.06-.12c0-.04.01-.09.04-.12.03-.04.07-.06.12-.06.04,0,.09.01.12.04l.36.32s.06.07.06.12c0,.04-.01.09-.04.12"/>
      <path class="cls-8" d="M70.53,37.22c-.05-.08-.16-.1-.24-.05l-.81.51c-.08.05-.11.16-.05.24.05.08.16.1.24.05l.82-.51c.08-.05.1-.16.05-.24"/>
      <path class="cls-8" d="M79.6,38.21s-.07,0-.1.02c-2.61,1.13-5.62.22-7.16-2.18-.83-1.29-1.1-2.82-.77-4.32.33-1.5,1.23-2.77,2.53-3.6,2.68-1.7,6.24-.91,7.95,1.76,1.53,2.4,1.1,5.5-1.04,7.37-.09.08-.11.22-.04.32l1.43,2.24-1.16.73-1.43-2.24c-.05-.07-.13-.11-.21-.11M86.31,43.8l-3.34-3.99-1.48-2.31c1.02-.96,1.68-2.24,1.89-3.63.22-1.48-.11-2.98-.92-4.24-.45-.71-1.03-1.31-1.72-1.78-.67-.46-1.41-.78-2.2-.95-.79-.18-1.6-.2-2.4-.06-.83.14-1.61.44-2.32.89-.71.45-1.32,1.03-1.79,1.72-.46.66-.78,1.4-.96,2.19-.17.79-.19,1.59-.06,2.39.14.82.44,1.6.89,2.31.81,1.26,2.04,2.19,3.48,2.62.57.17,1.16.26,1.75.26.8,0,1.6-.14,2.35-.44l1.82,2.85,2.01,4.07c.44.69,1.42.85,2.18.37l.21-.14c.76-.48,1.03-1.43.59-2.12"/>
      <path class="cls-8" d="M79.27,35.58c-.34.33-.82.52-1.3.51-.03,0-.06,0-.09,0-.14,0-.24-.13-.23-.26,0-.14.13-.24.26-.23.37.02.75-.12,1.01-.37.1-.1.26-.09.35,0s.09.26,0,.35M76.66,35.7c-.03.12-.13.2-.25.2-.02,0-.03,0-.05,0-1.19-.26-2.15-1.33-2.27-2.54-.01-.14.09-.26.22-.27.14-.01.26.09.27.22.1,1,.89,1.89,1.88,2.11.13.03.22.16.19.3M81.08,30.51c-.66-1.03-1.69-1.75-2.89-2.01-1.2-.27-2.43-.05-3.47.61-1.04.66-1.76,1.68-2.02,2.88-.26,1.19-.05,2.42.61,3.45.66,1.03,1.69,1.75,2.89,2.01.32.07.65.11.97.11.88,0,1.74-.24,2.5-.72,1.04-.66,1.76-1.68,2.02-2.88.26-1.2.05-2.42-.61-3.45"/>
    </g>
  </g>
</svg>