<?xml version="1.0" encoding="UTF-8"?>
<svg id="Calque_1" data-name="Calque 1" xmlns="http://www.w3.org/2000/svg" xmlns:xlink="http://www.w3.org/1999/xlink" viewBox="0 0 195.59 269.29">
  <defs>
    <style>
      .cls-1, .cls-2, .cls-3, .cls-4 {
        fill: none;
      }

      .cls-1, .cls-4 {
        stroke: #507cbe;
      }

      .cls-5 {
        font-size: 34.51px;
      }

      .cls-5, .cls-6, .cls-7 {
        fill: #507cbe;
      }

      .cls-5, .cls-7 {
        font-family: Socafe, Socafe;
      }

      .cls-8 {
        fill: #1d1d1b;
      }

      .cls-9 {
        letter-spacing: -.05em;
      }

      .cls-10, .cls-11 {
        fill: #fff;
      }

      .cls-12 {
        letter-spacing: .06em;
      }

      .cls-13 {
        letter-spacing: .06em;
      }

      .cls-14 {
        letter-spacing: -.05em;
      }

      .cls-15 {
        clip-path: url(#clippath-1);
      }

      .cls-16 {
        fill: #f39200;
      }

      .cls-11 {
        font-family: ActionMan, 'Action Man';
        font-size: 7.12px;
      }

      .cls-17 {
        letter-spacing: -.05em;
      }

      .cls-3 {
        stroke: #ffcb04;
      }

      .cls-3, .cls-4 {
        stroke-linecap: round;
        stroke-width: 3px;
      }

      .cls-18 {
        letter-spacing: -.05em;
      }

      .cls-19 {
        letter-spacing: .08em;
      }

      .cls-20 {
        letter-spacing: .08em;
      }

      .cls-21 {
        letter-spacing: -.05em;
      }

      .cls-22 {
        fill: #31a852;
      }

      .cls-23 {
        clip-path: url(#clippath-2);
      }

      .cls-24 {
        letter-spacing: .06em;
      }

      .cls-25 {
        letter-spacing: .08em;
      }

      .cls-26 {
        fill: #ffcd02;
      }

      .cls-27 {
        clip-path: url(#clippath);
      }

      .cls-28 {
        letter-spacing: 0em;
      }

      .cls-7 {
        font-size: 35.7px;
      }
    </style>
    <clipPath id="clippath">
      <rect class="cls-2" width="195.59" height="269.29"/>
    </clipPath>
    <clipPath id="clippath-1">
      <rect class="cls-2" width="195.59" height="269.29"/>
    </clipPath>
    <clipPath id="clippath-2">
      <rect class="cls-2" x="16.3" y="217.56" width="179.29" height="35.74"/>
    </clipPath>
  </defs>
  <g class="cls-27">
    <g class="cls-15">
      <text class="cls-7" transform="translate(43.6 45.34) scale(1 1.12)"><tspan x="0" y="0">J</tspan></text>
      <text class="cls-5" transform="translate(65.55 45.34)"><tspan x="0" y="0">OKER</tspan></text>
      <path class="cls-6" d="M78.6,24.09c-.37,0-.77-.05-1.14-.01-.64.06-.69.28-1.2.6-.49.3-1.15.58-1.7.83-.64.3-.87.59-1.35,1.12-.59.65-1.23,1.43-1.49,2.35-.44,1.54-.21,3.36-.21,4.96,0,.75-.14,1.68-.01,2.42.15.87.87,1.42,1.43,1.9.87.76,1.37.41,2.48.55.98.12,1.82.29,2.83.3,1.23.01,2.09.07,2.57-1.28.25-.68.35-1.1.7-1.76.05-.31.16-.59.33-.86.26-.26.5-.54.69-.85.28-.81.03-2.03.03-2.88,0-.95.02-1.91,0-2.86-.02-1.22-1.15-1.77-1.79-2.78-.57-.89-1.04-1.92-2.18-2.04"/>
      <path class="cls-1" d="M78.6,24.09c-.37,0-.77-.05-1.14-.01-.64.06-.69.28-1.2.6-.49.3-1.15.58-1.7.83-.64.3-.87.59-1.35,1.12-.59.65-1.23,1.43-1.49,2.35-.44,1.54-.21,3.36-.21,4.96,0,.75-.14,1.68-.01,2.42.15.87.87,1.42,1.43,1.9.87.76,1.37.41,2.48.55.98.12,1.82.29,2.83.3,1.23.01,2.09.07,2.57-1.28.25-.68.35-1.1.7-1.76.05-.31.16-.59.33-.86.26-.26.5-.54.69-.85.28-.81.03-2.03.03-2.88,0-.95.02-1.91,0-2.86-.02-1.22-1.15-1.77-1.79-2.78-.57-.89-1.04-1.92-2.18-2.04"/>
      <line class="cls-3" x1="24.8" y1="20.13" x2="33.9" y2="24.94"/>
      <line class="cls-4" x1="25" y1="20.13" x2="34.1" y2="24.94"/>
      <line class="cls-4" x1="22.48" y1="32.6" x2="31.97" y2="32.6"/>
      <line class="cls-4" x1="25" y1="45.07" x2="34.1" y2="40.25"/>
      <line class="cls-3" x1="170.44" y1="20.13" x2="161.34" y2="24.94"/>
      <line class="cls-4" x1="172.76" y1="32.6" x2="163.27" y2="32.6"/>
      <line class="cls-4" x1="170.24" y1="20.13" x2="161.14" y2="24.94"/>
      <line class="cls-4" x1="170.24" y1="45.07" x2="161.14" y2="40.25"/>
      <path class="cls-10" d="M76.69,35.1s-.03,0-.04-.01c-.18-.06-.45-.07-.72.07-.08-.13-.16-.31-.22-.48-.06-.14-.1-.29-.12-.4,0-.01,0-.02,0-.03l-.39-2.46-.1-.6c.2-.06.38-.15.55-.27.18-.12.33-.27.46-.45,0,0,0,0,0,0l.53.29,2.19,1.21s.02,0,.03.01c.1.06.22.15.34.25.14.12.28.25.37.37-.24.21-.33.48-.33.68h0s7.6,10.81,7.6,10.81l-.54.38-7.6-10.81s0,0,0,0c-.31-.1-.69-.03-.98.17h0c-.29.2-.48.54-.49.86,0,0,0,0,0,0l7.6,10.81-.54.38-7.58-10.79ZM88.11,43.62l-7.94-11.3c-.22-.32-.69-.74-1.03-.92l-4.52-2.49s0,0,0,0c-.34-.19-.57-.03-.51.36h0s.82,5.1.82,5.1c.06.38.29.96.52,1.28l7.53,10.72c.26.37.41.58.41.58.05.07.12.11.2.12.08.01.16,0,.23-.05l4.23-2.97c.07-.05.11-.12.12-.2.01-.08,0-.16-.05-.23"/>
      <path class="cls-10" d="M88.76,44.56l-.22-.31c-.04-.06-.13-.08-.19-.04l-4.47,3.14c-.06.04-.08.13-.03.2l.22.31c.04.06.13.08.19.03l4.47-3.14c.06-.05.08-.13.03-.2"/>
      <path class="cls-10" d="M90.2,46.65l-1.19-1.69-4.68,3.29,1.19,1.69c.45.64,1.33.8,1.98.35l2.36-1.66c.64-.45.79-1.34.35-1.98"/>
      <path class="cls-10" d="M77.68,26.49s.07-.07.08-.12l.19-1.05c.02-.1-.05-.2-.15-.22s-.2.05-.22.15l-.19,1.05c-.02.1.05.2.15.22.05,0,.1,0,.14-.03"/>
      <path class="cls-10" d="M71.08,31.04s.07-.07.08-.12c.02-.1-.05-.2-.15-.22l-1.05-.19c-.1-.02-.2.05-.22.15-.02.1.05.2.15.22l1.05.19c.05,0,.1,0,.14-.03"/>
      <path class="cls-10" d="M81.32,28.84l.88-.61c.09-.06.11-.18.05-.27-.06-.09-.18-.11-.27-.05l-.88.61c-.09.06-.11.18-.05.27.06.09.18.11.27.05"/>
      <path class="cls-10" d="M71.11,35.89l.88-.61c.09-.06.11-.18.05-.27-.06-.09-.18-.11-.27-.05l-.88.61c-.09.06-.11.18-.05.27.06.09.18.11.27.05"/>
      <path class="cls-10" d="M73.47,27.38c.09-.06.11-.18.05-.27l-.61-.88c-.06-.09-.18-.11-.27-.05s-.11.18-.05.27l.61.88c.06.09.18.11.27.05"/>
      <path class="cls-10" d="M75.47,26.52c.06-.04.09-.12.08-.2l-.12-.55c-.02-.1-.12-.17-.23-.15-.1.02-.17.12-.15.23l.12.55c.02.1.12.17.23.15.02,0,.05-.02.07-.03"/>
      <path class="cls-10" d="M79.73,27.3s.04-.03.05-.05l.3-.47c.06-.09.03-.21-.06-.26-.09-.06-.21-.03-.26.06l-.3.47c-.06.09-.03.21.06.26.07.04.15.04.21,0"/>
      <path class="cls-10" d="M71.12,33.25c.06-.04.09-.12.08-.2-.02-.1-.12-.17-.23-.15l-.55.12c-.1.02-.17.12-.15.23.02.1.12.17.23.15l.55-.12s.05-.02.07-.03"/>
      <path class="cls-10" d="M71.9,28.98s.04-.03.05-.05c.06-.09.03-.21-.06-.26l-.47-.3c-.09-.06-.21-.03-.26.06-.06.09-.03.21.06.26l.47.3c.07.04.15.04.21,0"/>
      <g class="cls-23">
        <path class="cls-22" d="M27.32,243.65c-.2-.22-.29-.51-.25-.8l1.62-.43c.16-.04.26-.21.22-.37-.04-.16-.21-.26-.37-.22l-1.37.37c0-.14-.02-.28-.06-.42-.04-.14-.09-.27-.16-.39l1.37-.37c.16-.04.26-.21.22-.37-.04-.16-.21-.26-.37-.22l-1.62.43c-.43-.55-.15-1.35.45-1.51l5.14-1.38c.61-.16,1.25.4,1.15,1.08l-1.73.46c-.16.05-.26.21-.22.38.04.16.21.26.37.22l1.47-.39c0,.14.02.28.06.42.04.14.09.27.16.39l-1.47.39c-.16.04-.26.21-.22.37.04.16.21.26.37.22l1.73-.46c.18.23.25.53.18.82-.08.35-.35.61-.64.69l-5.14,1.38c-.28.08-.65-.01-.9-.28"/>
        <path class="cls-22" d="M29.04,244.35l3.83-1.03c.06.94-.54,1.83-1.49,2.08h-.01c-.94.26-1.91-.21-2.33-1.06"/>
        <path class="cls-26" d="M31.35,225.76c.1-.05.23-.02.28.09.18.33.32.69.42,1.06.03.11-.04.23-.15.26-.11.03-.23-.04-.26-.15-.09-.34-.22-.66-.38-.97-.06-.1-.02-.23.09-.28M30.81,225.01c-.08.08-.22.08-.3,0-.61-.64-1.42-1.11-2.33-1.3-.11-.02-.19-.13-.16-.25.02-.11.14-.18.25-.16.99.22,1.87.72,2.54,1.42.08.08.08.22,0,.3M30.99,222.85c1.34.96,2.3,2.41,2.62,4.24.23,1.34-.02,2.76-.71,3.98-.21.37-.59,1.17-.76,2.36-.18,1.19-.11,2.41.22,3.63.03.11-.04.23-.15.26l-2.42.65c-.11.03-.23-.04-.26-.15l-4.19-15.63c-.03-.11.04-.23.15-.26.61-.16,1.08-.21,1.28-.23,1.38-.14,2.94.25,4.22,1.16"/>
        <path class="cls-16" d="M21.9,226.44c-.19.46.2.85.2.85.07.07.07.19,0,.26-.07.07-.19.07-.27,0-.03-.02-.57-.56-.28-1.24.29-.69,1.06-.68,1.09-.68.1,0,.18.08.18.19,0,.1-.09.18-.2.18-.02,0-.54,0-.73.45M22.84,230.89c.02.1-.05.19-.15.21-.03,0-.81.15-1.23-.44-.43-.6.02-1.22.04-1.25.06-.08.18-.1.26-.05.08.06.1.17.04.25-.01.02-.31.44-.03.83.28.4.83.3.85.3.1-.02.2.04.22.14M26.65,233.32c.09-.05.21-.02.26.06.36.62.02,1.44-.72,1.64-.27.07-.57.05-.82-.07-.09-.05-.13-.15-.08-.24.05-.09.16-.13.26-.08.3.15.68.08.92-.16.24-.24.29-.61.12-.89-.05-.09-.02-.2.07-.25M23.05,227.65c.08-.06.2-.05.27.03.61.75,1.1.19,1.99-.01.34-.08.68-.06.99.09l-1.16-4.33c-.19-.73-.97-1.15-1.72-.95-.76.2-1.21.96-1.02,1.69l.05.2c.24-.03.48-.03.72.01.14-.06.54-.27.61-.77.01-.1.11-.17.21-.16.1.01.18.1.16.2-.06.42-.28.69-.5.86.34.12.65.33.94.54.08.06.1.17.03.26-.07.08-.18.1-.27.04-.16-.11-.32-.22-.47-.31-.93-.55-2.15-.39-2.85.54-.87,1.15-.36,2.72.97,2.95.1.02.17.11.15.21-.02.1-.12.17-.22.15-.3-.05-.57-.16-.81-.32-.16.11-.45.36-.65.77-.56,1.19.31,2.52,1.63,2.66,0,0,.83.07,1.54-.49.71-.56.13-1.1,1.71-1.52.1-.03.2.03.23.13.03.1-.03.2-.14.23-.81.22-.91.42-1.02.7h0c.46-.02.86.19,1.16.54.07.08.05.19-.03.26-.08.06-.2.06-.27-.02-.43-.5-.91-.42-1.06-.38-.41.6-1.47,1.07-2.36.9-.21,1.09.68,2.1,1.85,2.03-.06-.66.2-1.33.71-1.8.08-.07.2-.07.27,0,.07.07.07.19,0,.26-.5.47-.71,1.17-.54,1.81.11.4.35.74.66.97.31.23.54.44.74.81.35.65.67,1.45.87,2.22.03.11.14.18.26.15l2.18-.58c.11-.03.18-.15.15-.26l-1.69-6.32c-.1-.32-.51-.53-.83-.63-.1-.03-.15-.13-.12-.23.03-.1.14-.15.24-.12,0,0,.01,0,.02,0,.2.06.36.14.49.22l-.68-2.54c-.23-.27-.62-.41-1.07-.31-.81.19-1.56.86-2.37-.11-.06-.08-.05-.19.03-.26"/>
        <path class="cls-6" d="M19.21,223.91c-.07.02-.16.01-.23-.03l-1.45-.84c-.14-.08-.19-.27-.11-.41.08-.14.26-.19.41-.11l1.45.84c.14.08.19.26.11.41-.04.07-.11.12-.18.14"/>
        <path class="cls-6" d="M31.31,220.66c-.07.02-.16.01-.23-.03-.14-.08-.19-.27-.11-.41l.84-1.45c.08-.14.26-.19.41-.11.14.08.19.27.11.41l-.83,1.45c-.04.07-.11.12-.18.14"/>
        <path class="cls-6" d="M18.32,230.63l-1.62.43c-.16.04-.32-.05-.37-.21-.04-.16.05-.32.21-.37l1.61-.43c.16-.04.32.05.37.21.04.16-.05.32-.21.37"/>
        <path class="cls-6" d="M37.06,225.61l-1.62.43c-.16.04-.32-.05-.37-.21-.04-.16.05-.32.21-.37l1.61-.43c.16-.04.32.05.37.21.04.16-.05.32-.21.37"/>
        <path class="cls-6" d="M24.53,219.79c-.16.04-.32-.05-.37-.21l-.43-1.61c-.04-.16.05-.32.21-.37.16-.04.32.05.37.21l.43,1.61c.04.16-.05.32-.21.37"/>
        <path class="cls-6" d="M21.49,221.31c-.11.03-.24,0-.32-.11l-.53-.69c-.1-.13-.08-.32.06-.42.13-.1.32-.08.42.06l.53.69c.1.13.08.32-.06.42-.03.02-.07.04-.1.05"/>
        <path class="cls-6" d="M18.1,227.18s-.08.01-.12,0l-.87-.11c-.16-.02-.28-.17-.26-.33.02-.16.17-.28.33-.26l.87.11c.16.02.28.17.26.33-.02.12-.11.22-.22.25"/>
        <path class="cls-6" d="M33.91,222.94c-.11.03-.24,0-.32-.11-.1-.13-.08-.32.06-.42l.69-.53c.13-.1.32-.08.42.06.1.13.08.32-.06.42l-.69.53s-.07.04-.1.05"/>
        <path class="cls-6" d="M28.04,219.55s-.08.01-.12,0c-.16-.02-.28-.17-.26-.34l.11-.87c.02-.16.17-.28.33-.26.16.02.28.17.26.34l-.11.86c-.02.12-.11.22-.22.25"/>
        <path class="cls-6" d="M36.89,221.69c.04.24.06.5.03.75-.02.17-.06.33-.12.48,1.13-.09,2.2.64,2.51,1.78.17.62.08,1.27-.24,1.83-.32.56-.84.96-1.46,1.12l-1.61.43c-.06.02-.12.01-.18.02,0,1.38-.37,2.76-1.07,4-.11.2-.38.74-.52,1.63-.14.9-.08,1.84.17,2.77.01.05.02.11.03.16.74.69,1.1,1.68.95,2.68-.01.07-.03.14-.04.21.05.05.1.11.14.16.58.74.8,1.69.58,2.61-.16.7-.58,1.29-1.13,1.72-.24,1.6-1.39,2.95-3,3.39-.23.06-.46.1-.69.12v5.74h164.35v-31.61H36.89Z"/>
      </g>
      <text class="cls-11" transform="translate(42.39 232.06)"><tspan class="cls-14" x="0" y="0">Si</tspan><tspan class="cls-13" x="4.72" y="0"> </tspan><tspan class="cls-21" x="7.79" y="0">v</tspan><tspan class="cls-14" x="10.64" y="0">o</tspan><tspan class="cls-21" x="14.21" y="0">u</tspan><tspan class="cls-18" x="17.62" y="0">s</tspan><tspan class="cls-13" x="21.05" y="0"> </tspan><tspan class="cls-18" x="24.12" y="0">a</tspan><tspan class="cls-21" x="27.48" y="0">v</tspan><tspan class="cls-18" x="30.32" y="0">e</tspan><tspan class="cls-9" x="33.74" y="0">z</tspan><tspan class="cls-12" x="37.23" y="0"> </tspan><tspan class="cls-14" x="40.31" y="0">r</tspan><tspan class="cls-9" x="44.03" y="0">é</tspan><tspan class="cls-18" x="47.47" y="0">po</tspan><tspan class="cls-9" x="53.87" y="0">ndu</tspan><tspan class="cls-12" x="63.92" y="0"> </tspan><tspan class="cls-17" x="67" y="0">correcte</tspan><tspan class="cls-21" x="94.87" y="0">m</tspan><tspan class="cls-18" x="99.12" y="0">e</tspan><tspan class="cls-9" x="102.54" y="0">n</tspan><tspan class="cls-18" x="105.91" y="0">t,</tspan><tspan class="cls-24" x="110.29" y="0"> </tspan><tspan class="cls-14" x="113.37" y="0">p</tspan><tspan class="cls-9" x="116.2" y="0">l</tspan><tspan class="cls-18" x="118.95" y="0">aceZ</tspan><tspan x="132.4" y="0"> </tspan></text>
      <text class="cls-11" transform="translate(42.39 240.35)"><tspan class="cls-21" x="0" y="0">l</tspan><tspan class="cls-18" x="2.75" y="0">a</tspan><tspan class="cls-20" x="6.11" y="0"> </tspan><tspan class="cls-18" x="9.37" y="0">c</tspan><tspan class="cls-9" x="12.7" y="0">a</tspan><tspan class="cls-14" x="16.06" y="0">rte</tspan><tspan class="cls-19" x="26.53" y="0"> </tspan><tspan class="cls-14" x="29.79" y="0">s</tspan><tspan class="cls-9" x="33.23" y="0">u</tspan><tspan class="cls-14" x="36.63" y="0">r</tspan><tspan class="cls-20" x="40.36" y="0"> </tspan><tspan class="cls-21" x="43.61" y="0">l</tspan><tspan class="cls-14" x="46.36" y="0">’o</tspan><tspan class="cls-9" x="50.98" y="0">bj</tspan><tspan class="cls-18" x="57.93" y="0">e</tspan><tspan class="cls-9" x="61.36" y="0">t</tspan><tspan class="cls-25" x="64.68" y="0"> </tspan><tspan class="cls-9" x="67.93" y="0">d</tspan><tspan class="cls-18" x="71.21" y="0">e</tspan><tspan class="cls-19" x="74.63" y="0"> </tspan><tspan class="cls-21" x="77.89" y="0">v</tspan><tspan class="cls-14" x="80.73" y="0">otre</tspan><tspan class="cls-25" x="94.79" y="0"> </tspan><tspan class="cls-18" x="98.04" y="0">choix.</tspan><tspan class="cls-25" x="114.39" y="0"> </tspan><tspan class="cls-18" x="117.64" y="0">S</tspan><tspan class="cls-9" x="121.09" y="0">i</tspan><tspan class="cls-25" x="122.36" y="0"> </tspan><tspan class="cls-18" x="125.61" y="0">ce</tspan><tspan class="cls-28" x="132.38" y="0"> </tspan></text>
      <text class="cls-11" transform="translate(42.39 248.64)"><tspan class="cls-9" x="0" y="0">n</tspan><tspan class="cls-14" x="3.37" y="0">’est</tspan><tspan class="cls-21" x="14.6" y="0"> </tspan><tspan class="cls-18" x="16.92" y="0">pas </tspan><tspan class="cls-21" x="28.86" y="0">l</tspan><tspan class="cls-18" x="31.61" y="0">e</tspan><tspan class="cls-21" x="35.03" y="0" xml:space="preserve"> ca</tspan><tspan class="cls-14" x="44.03" y="0">s,</tspan><tspan class="cls-21" x="48.51" y="0"> </tspan><tspan class="cls-14" x="50.83" y="0">sorte</tspan><tspan class="cls-21" x="68.31" y="0">z</tspan><tspan class="cls-18" x="71.8" y="0" xml:space="preserve"> cet</tspan><tspan class="cls-21" x="84.21" y="0">t</tspan><tspan class="cls-17" x="87.53" y="0">e</tspan><tspan class="cls-21" x="90.96" y="0"> </tspan><tspan class="cls-18" x="93.27" y="0">car</tspan><tspan class="cls-9" x="103.69" y="0">t</tspan><tspan class="cls-18" x="107.02" y="0">e</tspan><tspan class="cls-21" x="110.44" y="0" xml:space="preserve"> du</tspan><tspan class="cls-18" x="119.43" y="0" xml:space="preserve"> je</tspan><tspan class="cls-21" x="128.51" y="0">u</tspan><tspan class="cls-18" x="131.92" y="0">.</tspan><tspan class="cls-28" x="133.11" y="0"> </tspan></text>
    </g>
    <path class="cls-8" d="M26.22,86.66h.82c.06.77.43,1.38,1.25,1.38s1.18-.43,1.18-1.29c0-.79-.32-1.2-1.33-1.69-1.17-.56-1.69-1.08-1.69-2.16,0-1.03.66-1.85,1.88-1.85,1.44,0,1.83,1.03,1.85,1.91h-.81c-.04-.36-.15-1.23-1.08-1.23-.72,0-1.02.49-1.02,1.09,0,.72.32,1.05,1.26,1.5,1.31.62,1.78,1.25,1.78,2.36,0,1.18-.67,2.04-2.04,2.04-1.5,0-1.99-.98-2.05-2.07h0ZM31.33,83.04h.8v5.58h-.8v-5.58ZM31.33,80.79h.8v1.15h-.8v-1.15ZM36.38,83.04v5.93c0,1.02-.13,1.78-1.21,1.78-.1,0-.22,0-.35-.03v-.71c.1.01.19.01.25.01.43,0,.5-.27.5-.88v-6.11h.8ZM35.59,81.94v-1.15h.8v1.15h-.8ZM38.25,85.98c0,1.09.19,2.05,1.07,2.05s.99-.83,1.02-1h.79c-.01.14-.17,1.69-1.81,1.69s-1.87-1.51-1.87-2.89c0-1.77.6-2.88,1.92-2.88,1.47,0,1.81,1.21,1.81,2.6,0,.11,0,.29-.01.43h-2.91ZM40.37,85.35c0-.96-.2-1.71-1.02-1.71-1.02,0-1.07,1.33-1.09,1.71h2.1ZM40.37,85.35h0ZM45.68,88.06c.61,0,.9-.37.9-.88,0-.58-.3-.84-1.03-1.13-1.15-.44-1.49-.86-1.49-1.63s.46-1.47,1.6-1.47c1.25,0,1.6.85,1.61,1.59h-.79c-.01-.27-.07-.93-.85-.93-.53,0-.77.33-.77.77s.19.67.97.96c1.08.42,1.56.81,1.56,1.77,0,1.02-.64,1.62-1.75,1.62s-1.72-.69-1.75-1.71h.8c.04.6.35,1.05.99,1.05ZM51.82,87.09c0,.7,0,1.26.01,1.53h-.77c-.03-.16-.04-.38-.04-.74-.2.55-.67.84-1.33.84s-1.39-.27-1.39-1.67v-4.01h.81v3.82c0,.71.2,1.15.84,1.15s1.06-.38,1.06-1.58v-3.39h.81v4.05ZM53.13,83.04h.8v5.58h-.8v-5.58ZM53.13,80.79h.8v1.15h-.8v-1.15ZM56.63,88.06c.61,0,.9-.37.9-.88,0-.58-.3-.84-1.03-1.13-1.15-.44-1.49-.86-1.49-1.63s.46-1.47,1.6-1.47c1.25,0,1.6.85,1.61,1.59h-.79c-.01-.27-.07-.93-.85-.93-.53,0-.77.33-.77.77s.19.67.97.96c1.08.42,1.56.81,1.56,1.77,0,1.02-.64,1.62-1.75,1.62s-1.72-.69-1.75-1.71h.8c.04.6.35,1.05.99,1.05ZM61.97,85.98c0,1.09.19,2.05,1.07,2.05s.99-.83,1.02-1h.79c-.01.14-.17,1.69-1.81,1.69s-1.87-1.51-1.87-2.89c0-1.77.6-2.88,1.92-2.88,1.47,0,1.81,1.21,1.81,2.6,0,.11,0,.29-.01.43h-2.91ZM64.09,85.35c0-.96-.2-1.71-1.02-1.71-1.02,0-1.07,1.33-1.09,1.71h2.1ZM64.61,80.66l-1.38,1.53h-.75l1.18-1.53h.95ZM64.09,85.35h0ZM65.34,83.04h.79v-1.49h.8v1.49h.97v.69h-.97v3.66c0,.38.08.62.5.62.13,0,.29,0,.39-.03v.62c-.19.07-.47.09-.66.09-.66,0-1.04-.27-1.04-1.15v-3.82h-.79v-.69ZM72.1,87.09c0,.7,0,1.26.01,1.53h-.77c-.03-.16-.04-.38-.04-.74-.2.55-.67.84-1.33.84s-1.39-.27-1.39-1.67v-4.01h.81v3.82c0,.71.2,1.15.84,1.15s1.06-.38,1.06-1.58v-3.39h.81v4.05ZM76.9,80.79v6.4c0,.54,0,1.1.01,1.43h-.78c-.01-.14-.03-.51-.03-.75-.17.48-.53.85-1.31.85-1.16,0-1.65-.99-1.65-2.95,0-1.78.66-2.82,1.83-2.82.72,0,1,.31,1.13.58v-2.74h.8ZM73.96,85.78c0,1.61.37,2.22,1.05,2.22.87,0,1.1-.74,1.1-2.25,0-1.63-.23-2.09-1.03-2.09-.66,0-1.11.58-1.11,2.12ZM78.21,83.04h.8v5.58h-.8v-5.58ZM78.21,80.79h.8v1.15h-.8v-1.15ZM83.53,87.63c0,.35.03.81.04.99h-.74c-.03-.12-.06-.42-.06-.63-.21.45-.63.73-1.32.73-1.07,0-1.46-.84-1.46-1.61,0-1.02.69-1.79,2.15-1.79.26,0,.42,0,.58.02v-.74c0-.44-.08-.99-.84-.99-.82,0-.87.59-.9.96h-.78c.02-.8.4-1.62,1.71-1.62,1.08,0,1.6.53,1.6,1.55v3.13ZM82.76,85.98c-.14-.02-.29-.03-.55-.03-.99,0-1.4.48-1.4,1.1,0,.51.27.99.87.99.82,0,1.08-.58,1.08-1.75v-.3ZM84.85,83.04h.78c.01.14.03.36.03.73.19-.44.57-.83,1.32-.83.81,0,1.43.46,1.43,1.7v3.97h-.81v-3.82c0-.68-.22-1.14-.86-1.14-.75,0-1.07.49-1.07,1.64v3.32h-.81v-3.85c0-1.14,0-1.47-.01-1.73ZM89.05,83.04h.79v-1.49h.8v1.49h.97v.69h-.97v3.66c0,.38.08.62.5.62.13,0,.29,0,.39-.03v.62c-.19.07-.47.09-.66.09-.66,0-1.04-.27-1.04-1.15v-3.82h-.79v-.69ZM94.33,85.41v.72h-2.25v-.72h2.25ZM96.13,85.98c0,1.09.19,2.05,1.07,2.05s.99-.83,1.02-1h.79c-.01.14-.17,1.69-1.81,1.69s-1.87-1.51-1.87-2.89c0-1.77.6-2.88,1.92-2.88,1.47,0,1.81,1.21,1.81,2.6,0,.11,0,.29-.01.43h-2.91ZM98.25,85.35c0-.96-.2-1.71-1.02-1.71-1.02,0-1.07,1.33-1.09,1.71h2.1ZM98.25,85.35h0ZM105.42,87.63c0,.35.03.81.04.99h-.74c-.03-.12-.06-.42-.06-.63-.21.45-.63.73-1.32.73-1.07,0-1.46-.84-1.46-1.61,0-1.02.69-1.79,2.15-1.79.26,0,.42,0,.58.02v-.74c0-.44-.08-.99-.84-.99-.82,0-.87.59-.9.96h-.78c.02-.8.4-1.62,1.71-1.62,1.08,0,1.6.53,1.6,1.55v3.13ZM104.65,85.98c-.14-.02-.29-.03-.55-.03-.99,0-1.4.48-1.4,1.1,0,.51.27.99.87.99.82,0,1.08-.58,1.08-1.75v-.3ZM110.21,87.09c0,.7,0,1.26.01,1.53h-.77c-.03-.16-.04-.38-.04-.74-.2.55-.67.84-1.33.84s-1.39-.27-1.39-1.67v-4.01h.81v3.82c0,.71.2,1.15.84,1.15s1.06-.38,1.06-1.58v-3.39h.81v4.05ZM111.78,83.04c.58,1.21.88,1.76,1.02,2.07h.01c.18-.38.56-1.11,1.05-2.07h.86l-1.47,2.66,1.48,2.92h-.9c-.55-1.15-.89-1.83-1.05-2.17h-.01c-.14.3-.55,1.13-1.07,2.17h-.86l1.47-2.8-1.43-2.78h.89ZM121.4,86.55c-.03.43-.22,2.18-2.03,2.18-1.99,0-2.14-2.1-2.14-3.9,0-2.17.57-3.79,2.23-3.79,1.8,0,1.9,1.69,1.92,2.14h-.83c-.01-.25-.06-1.41-1.11-1.41-1.18,0-1.36,1.61-1.36,3.06,0,1.58.17,3.17,1.3,3.17,1,0,1.15-1.08,1.18-1.46h.83ZM125.7,87.63c0,.35.03.81.04.99h-.74c-.03-.12-.06-.42-.06-.63-.21.45-.63.73-1.32.73-1.07,0-1.46-.84-1.46-1.61,0-1.02.69-1.79,2.15-1.79.26,0,.42,0,.58.02v-.74c0-.44-.08-.99-.84-.99-.82,0-.87.59-.9.96h-.78c.02-.8.4-1.62,1.71-1.62,1.08,0,1.6.53,1.6,1.55v3.13ZM124.93,85.98c-.14-.02-.29-.03-.55-.03-.99,0-1.4.48-1.4,1.1,0,.51.27.99.87.99.82,0,1.08-.58,1.08-1.75v-.3ZM127.03,83.04h.77c.01.14.03.4.03,1,.24-.67.78-1.07,1.47-1.08v.89c-.96.03-1.46.63-1.46,1.66v3.12h-.8v-3.68c0-.89,0-1.5-.01-1.9ZM133.57,85.76c0,1.96-.66,2.96-1.92,2.96s-1.92-.96-1.92-2.94.76-2.83,1.95-2.83,1.89.94,1.89,2.82ZM130.55,85.79c0,1.52.38,2.24,1.1,2.24s1.09-.73,1.09-2.24c0-1.43-.35-2.13-1.09-2.13s-1.1.63-1.1,2.14ZM138.12,87.09c0,.7,0,1.26.01,1.53h-.77c-.03-.16-.04-.38-.04-.74-.2.55-.67.84-1.33.84s-1.39-.27-1.39-1.67v-4.01h.81v3.82c0,.71.2,1.15.84,1.15s1.06-.38,1.06-1.58v-3.39h.81v4.05ZM139.44,80.79h.8v2.99c.18-.43.57-.83,1.33-.83,1.07,0,1.63.89,1.63,2.74,0,1.72-.46,3.02-1.78,3.02-.71,0-1.03-.36-1.2-.75,0,.18-.01.44-.03.66h-.76c.01-.3.01-.85.01-1.53v-6.3ZM142.38,85.7c0-1.4-.33-2.04-1.03-2.04-.86,0-1.14.77-1.14,2.18,0,1.34.22,2.16,1.06,2.16.74,0,1.1-.72,1.1-2.3ZM144.23,83.04h.8v5.58h-.8v-5.58ZM144.23,80.79h.8v1.15h-.8v-1.15ZM146.9,85.98c0,1.09.19,2.05,1.07,2.05s.99-.83,1.02-1h.79c-.01.14-.17,1.69-1.81,1.69s-1.87-1.51-1.87-2.89c0-1.77.6-2.88,1.92-2.88,1.47,0,1.81,1.21,1.81,2.6,0,.11,0,.29-.01.43h-2.91ZM149.01,85.35c0-.96-.2-1.71-1.02-1.71-1.02,0-1.07,1.33-1.09,1.71h2.1ZM149.01,85.35h0ZM150.83,83.04h.77c.01.14.03.4.03,1,.24-.67.78-1.07,1.47-1.08v.89c-.96.03-1.46.63-1.46,1.66v3.12h-.8v-3.68c0-.89,0-1.5-.01-1.9ZM155.31,88.06c.61,0,.9-.37.9-.88,0-.58-.3-.84-1.03-1.13-1.15-.44-1.49-.86-1.49-1.63s.46-1.47,1.6-1.47c1.25,0,1.6.85,1.61,1.59h-.79c-.01-.27-.07-.93-.85-.93-.53,0-.77.33-.77.77s.19.67.97.96c1.08.42,1.56.81,1.56,1.77,0,1.02-.64,1.62-1.75,1.62s-1.72-.69-1.75-1.71h.8c.04.6.35,1.05.99,1.05ZM157.43,89.87c.34-.87.56-1.86.6-2.65h.78c-.07,1.02-.39,2.07-.72,2.65h-.66ZM162.63,83.04v5.93c0,1.02-.13,1.78-1.21,1.78-.1,0-.22,0-.35-.03v-.71c.1.01.19.01.25.01.43,0,.5-.27.5-.88v-6.11h.8ZM161.83,81.94v-1.15h.8v1.15h-.8ZM164.5,85.98c0,1.09.19,2.05,1.07,2.05s.99-.83,1.02-1h.79c-.01.14-.17,1.69-1.81,1.69s-1.87-1.51-1.87-2.89c0-1.77.6-2.88,1.92-2.88,1.47,0,1.81,1.21,1.81,2.6,0,.11,0,.29-.01.43h-2.91ZM166.61,85.35c0-.96-.2-1.71-1.02-1.71-1.02,0-1.07,1.33-1.09,1.71h2.1ZM166.61,85.35h0Z"/>
    <path class="cls-8" d="M26.59,95.04h.78c.01.14.03.36.03.73.19-.44.57-.83,1.32-.83.81,0,1.43.46,1.43,1.7v3.97h-.81v-3.82c0-.68-.22-1.14-.86-1.14-.75,0-1.07.49-1.07,1.64v3.32h-.81v-3.85c0-1.14,0-1.47-.01-1.73ZM32,97.98c0,1.09.19,2.05,1.07,2.05s.99-.83,1.02-1h.79c-.01.14-.17,1.69-1.81,1.69s-1.87-1.51-1.87-2.89c0-1.77.6-2.88,1.92-2.88,1.47,0,1.81,1.21,1.81,2.6,0,.11,0,.29-.01.43h-2.91ZM34.12,97.35c0-.96-.2-1.71-1.02-1.71-1.02,0-1.07,1.33-1.09,1.71h2.1ZM34.12,97.35h0ZM38.85,100.05v2.62h-.8v-6c0-.76,0-1.28-.01-1.63h.78c.01.1.03.47.03.75.2-.48.59-.84,1.33-.84,1.06,0,1.63.94,1.63,2.8,0,2.01-.7,2.97-1.79,2.97-.67,0-1-.32-1.16-.67ZM40.98,97.79c0-1.4-.32-2.13-1.06-2.13-.86,0-1.1.82-1.1,2.14s.13,2.21,1.05,2.21c.73,0,1.1-.85,1.1-2.22ZM43.41,97.98c0,1.09.19,2.05,1.07,2.05s.99-.83,1.02-1h.79c-.01.14-.17,1.69-1.81,1.69s-1.87-1.51-1.87-2.89c0-1.77.6-2.88,1.92-2.88,1.47,0,1.81,1.21,1.81,2.6,0,.11,0,.29-.01.43h-2.91ZM45.53,97.35c0-.96-.2-1.71-1.02-1.71-1.02,0-1.07,1.33-1.09,1.71h2.1ZM45.53,97.35h0ZM50.86,99.09c0,.7,0,1.26.01,1.53h-.77c-.03-.16-.04-.38-.04-.74-.2.55-.67.84-1.33.84s-1.39-.27-1.39-1.67v-4.01h.81v3.82c0,.71.2,1.15.84,1.15s1.06-.38,1.06-1.58v-3.39h.81v4.05ZM52.44,95.04c.58,1.21.88,1.76,1.02,2.07h.01c.18-.38.56-1.11,1.05-2.07h.86l-1.47,2.66,1.48,2.92h-.9c-.55-1.15-.89-1.83-1.05-2.17h-.01c-.14.3-.55,1.13-1.07,2.17h-.86l1.47-2.8-1.43-2.78h.89ZM58.9,100.05v2.62h-.8v-6c0-.76,0-1.28-.01-1.63h.78c.01.1.03.47.03.75.2-.48.59-.84,1.33-.84,1.06,0,1.63.94,1.63,2.8,0,2.01-.7,2.97-1.79,2.97-.67,0-1-.32-1.16-.67ZM61.02,97.79c0-1.4-.32-2.13-1.06-2.13-.86,0-1.1.82-1.1,2.14s.13,2.21,1.05,2.21c.73,0,1.1-.85,1.1-2.22ZM66.11,99.63c0,.35.03.81.04.99h-.74c-.03-.12-.06-.42-.06-.63-.21.45-.63.73-1.32.73-1.07,0-1.46-.84-1.46-1.61,0-1.02.69-1.79,2.15-1.79.26,0,.42,0,.58.02v-.74c0-.44-.08-.99-.84-.99-.82,0-.87.59-.9.96h-.78c.02-.8.4-1.62,1.71-1.62,1.08,0,1.6.53,1.6,1.55v3.13ZM65.34,97.98c-.14-.02-.29-.03-.55-.03-.99,0-1.4.48-1.4,1.1,0,.51.27.99.87.99.82,0,1.08-.58,1.08-1.75v-.3ZM68.76,100.06c.61,0,.9-.37.9-.88,0-.58-.3-.84-1.03-1.13-1.15-.44-1.49-.86-1.49-1.63s.46-1.47,1.6-1.47c1.25,0,1.6.85,1.61,1.59h-.79c-.01-.27-.07-.93-.85-.93-.53,0-.77.33-.77.77s.19.67.97.96c1.08.42,1.56.81,1.56,1.77,0,1.02-.64,1.62-1.75,1.62s-1.72-.69-1.75-1.71h.8c.04.6.35,1.05.99,1.05ZM76.81,99.63c0,.35.03.81.04.99h-.74c-.03-.12-.06-.42-.06-.63-.21.45-.63.73-1.32.73-1.07,0-1.46-.84-1.46-1.61,0-1.02.69-1.79,2.15-1.79.26,0,.42,0,.58.02v-.74c0-.44-.08-.99-.84-.99-.82,0-.87.59-.9.96h-.78c.02-.8.4-1.62,1.71-1.62,1.08,0,1.6.53,1.6,1.55v3.13ZM76.03,97.98c-.14-.02-.29-.03-.55-.03-.99,0-1.4.48-1.4,1.1,0,.51.27.99.87.99.82,0,1.08-.58,1.08-1.75v-.3ZM78.14,100.62v-7.83h.8v7.83h-.8ZM80.3,100.62v-7.83h.8v7.83h-.8ZM82.97,97.98c0,1.09.19,2.05,1.07,2.05s.99-.83,1.02-1h.79c-.01.14-.17,1.69-1.81,1.69s-1.87-1.51-1.87-2.89c0-1.77.6-2.88,1.92-2.88,1.47,0,1.81,1.21,1.81,2.6,0,.11,0,.29-.01.43h-2.91ZM85.08,97.35c0-.96-.2-1.71-1.02-1.71-1.02,0-1.07,1.33-1.09,1.71h2.1ZM85.08,97.35h0ZM86.9,95.04h.77c.01.14.03.4.03,1,.24-.67.78-1.07,1.47-1.08v.89c-.96.03-1.46.63-1.46,1.66v3.12h-.8v-3.68c0-.89,0-1.5-.01-1.9ZM95.29,99.63c0,.35.03.81.04.99h-.74c-.03-.12-.06-.42-.06-.63-.21.45-.63.73-1.32.73-1.07,0-1.46-.84-1.46-1.61,0-1.02.69-1.79,2.15-1.79.26,0,.42,0,.58.02v-.74c0-.44-.08-.99-.84-.99-.82,0-.87.59-.9.96h-.78c.02-.8.4-1.62,1.71-1.62,1.08,0,1.6.53,1.6,1.55v3.13ZM92.96,92.67l1.18,1.53h-.76l-1.39-1.53h.97ZM94.51,97.98c-.14-.02-.29-.03-.55-.03-.99,0-1.4.48-1.4,1.1,0,.51.27.99.87.99.82,0,1.08-.58,1.08-1.75v-.3ZM98.72,100.62v-7.83h.8v7.83h-.8ZM104.04,99.63c0,.35.03.81.04.99h-.74c-.03-.12-.06-.42-.06-.63-.21.45-.63.73-1.32.73-1.07,0-1.46-.84-1.46-1.61,0-1.02.69-1.79,2.15-1.79.26,0,.42,0,.58.02v-.74c0-.44-.08-.99-.84-.99-.82,0-.87.59-.9.96h-.78c.02-.8.4-1.62,1.71-1.62,1.08,0,1.6.53,1.6,1.55v3.13ZM103.27,97.98c-.14-.02-.29-.03-.55-.03-.99,0-1.4.48-1.4,1.1,0,.51.27.99.87.99.82,0,1.08-.58,1.08-1.75v-.3ZM107.56,93.15h1.95c1.12,0,1.8.67,1.8,1.82,0,1-.48,1.44-.92,1.59.57.2,1.16.72,1.16,1.88,0,1.34-.81,2.19-2.11,2.19h-1.89v-7.47ZM109.22,96.26c.94,0,1.28-.42,1.28-1.22,0-.75-.39-1.21-1.18-1.21h-.96v2.43h.86ZM108.36,99.94h1c.88,0,1.36-.53,1.36-1.51s-.51-1.5-1.51-1.5h-.85v3.01ZM112.58,95.04h.8v5.58h-.8v-5.58ZM112.59,92.79h.8v1.15h-.8v-1.15ZM114.75,92.79h.8v2.99c.18-.43.57-.83,1.33-.83,1.07,0,1.63.89,1.63,2.74,0,1.72-.46,3.02-1.78,3.02-.71,0-1.03-.36-1.2-.75,0,.18-.01.44-.03.66h-.76c.01-.3.01-.85.01-1.53v-6.3ZM117.69,97.71c0-1.4-.33-2.04-1.03-2.04-.86,0-1.14.77-1.14,2.18,0,1.34.22,2.16,1.06,2.16.74,0,1.1-.72,1.1-2.3ZM119.54,100.62v-7.83h.8v7.83h-.8ZM121.67,95.04h.8v5.58h-.8v-5.58ZM121.67,92.79h.8v1.15h-.8v-1.15ZM127.37,97.76c0,1.96-.66,2.96-1.92,2.96s-1.92-.96-1.92-2.94.76-2.83,1.95-2.83,1.89.94,1.89,2.82ZM124.35,97.79c0,1.52.38,2.24,1.1,2.24s1.09-.73,1.09-2.24c0-1.43-.35-2.13-1.09-2.13s-1.1.63-1.1,2.14ZM127.74,95.04h.79v-1.49h.8v1.49h.97v.69h-.97v3.66c0,.38.08.62.5.62.13,0,.29,0,.39-.03v.62c-.19.07-.47.09-.66.09-.66,0-1.04-.27-1.04-1.15v-3.82h-.79v-.69ZM131.88,92.79v2.93c.19-.45.63-.78,1.34-.78.82,0,1.41.51,1.41,1.71v3.97h-.81v-3.8c0-.68-.2-1.16-.88-1.16-.77,0-1.05.63-1.05,1.6v3.35h-.81v-7.83h.81ZM136.47,97.98c0,1.09.19,2.05,1.07,2.05s.99-.83,1.02-1h.79c-.01.14-.17,1.69-1.81,1.69s-1.87-1.51-1.87-2.89c0-1.77.6-2.88,1.92-2.88,1.47,0,1.81,1.21,1.81,2.6,0,.11,0,.29-.01.43h-2.91ZM136.87,92.67l1.18,1.53h-.76l-1.39-1.53h.97ZM138.59,97.35c0-.96-.2-1.71-1.02-1.71-1.02,0-1.07,1.33-1.09,1.71h2.1ZM138.59,97.35h0ZM143.2,99.91c-.21.48-.59.8-1.31.8-1.04,0-1.66-.86-1.66-2.89,0-1.85.7-2.88,1.8-2.88.74,0,1.05.35,1.17.7,0-.31.02-.5.03-.6h.78c-.01.4-.01.86-.01,1.65v5.98h-.79v-2.76ZM141.05,97.84c0,1.33.31,2.18,1.06,2.18.9,0,1.09-.78,1.09-2.21s-.12-2.15-1.03-2.15c-.7,0-1.11.76-1.11,2.18ZM148.83,99.09c0,.7,0,1.26.01,1.53h-.77c-.03-.16-.04-.38-.04-.74-.2.55-.67.84-1.33.84s-1.39-.27-1.39-1.67v-4.01h.81v3.82c0,.71.2,1.15.84,1.15s1.06-.38,1.06-1.58v-3.39h.81v4.05ZM150.67,97.98c0,1.09.19,2.05,1.07,2.05s.99-.83,1.02-1h.79c-.01.14-.17,1.69-1.81,1.69s-1.87-1.51-1.87-2.89c0-1.77.6-2.88,1.92-2.88,1.47,0,1.81,1.21,1.81,2.6,0,.11,0,.29-.01.43h-2.91ZM152.79,97.35c0-.96-.2-1.71-1.02-1.71-1.02,0-1.07,1.33-1.09,1.71h2.1ZM152.79,97.35h0ZM158.09,100.06c.61,0,.9-.37.9-.88,0-.58-.3-.84-1.03-1.13-1.15-.44-1.49-.86-1.49-1.63s.46-1.47,1.6-1.47c1.25,0,1.6.85,1.61,1.59h-.79c-.01-.27-.07-.93-.85-.93-.53,0-.77.33-.77.77s.19.67.97.96c1.08.42,1.56.81,1.56,1.77,0,1.02-.64,1.62-1.75,1.62s-1.72-.69-1.75-1.71h.8c.04.6.35,1.05.99,1.05ZM164.24,99.09c0,.7,0,1.26.01,1.53h-.77c-.03-.16-.04-.38-.04-.74-.2.55-.67.84-1.33.84s-1.39-.27-1.39-1.67v-4.01h.81v3.82c0,.71.2,1.15.84,1.15s1.06-.38,1.06-1.58v-3.39h.81v4.05ZM165.48,95.04h.77c.01.14.03.4.03,1,.24-.67.78-1.07,1.47-1.08v.89c-.96.03-1.46.63-1.46,1.66v3.12h-.8v-3.68c0-.89,0-1.5-.01-1.9Z"/>
    <path class="cls-8" d="M26.6,112.62v-7.83h.8v7.83h-.8ZM29.27,109.98c0,1.09.19,2.05,1.07,2.05s.99-.83,1.02-1h.79c-.01.14-.17,1.69-1.81,1.69s-1.87-1.51-1.87-2.89c0-1.77.6-2.88,1.92-2.88,1.47,0,1.81,1.21,1.81,2.6,0,.11,0,.29-.01.43h-2.91ZM31.38,109.35c0-.96-.2-1.71-1.02-1.71-1.02,0-1.07,1.33-1.09,1.71h2.1ZM31.38,109.35h0ZM36.69,112.06c.61,0,.9-.37.9-.88,0-.58-.3-.84-1.03-1.13-1.15-.44-1.49-.86-1.49-1.63s.46-1.47,1.6-1.47c1.25,0,1.6.85,1.61,1.59h-.79c-.01-.27-.07-.93-.85-.93-.53,0-.77.33-.77.77s.19.67.97.96c1.08.42,1.56.81,1.56,1.77,0,1.02-.64,1.62-1.75,1.62s-1.72-.69-1.75-1.71h.8c.04.6.35,1.05.99,1.05ZM39.37,107.04h.8v5.58h-.8v-5.58ZM39.37,104.79h.8v1.15h-.8v-1.15ZM40.92,107.04h.79v-1.49h.8v1.49h.97v.69h-.97v3.66c0,.38.08.62.5.62.13,0,.29,0,.39-.03v.62c-.19.07-.47.09-.66.09-.66,0-1.04-.27-1.04-1.15v-3.82h-.79v-.69ZM44.72,109.98c0,1.09.19,2.05,1.07,2.05s.99-.83,1.02-1h.79c-.01.14-.17,1.69-1.81,1.69s-1.87-1.51-1.87-2.89c0-1.77.6-2.88,1.92-2.88,1.47,0,1.81,1.21,1.81,2.6,0,.11,0,.29-.01.43h-2.91ZM46.84,109.35c0-.96-.2-1.71-1.02-1.71-1.02,0-1.07,1.33-1.09,1.71h2.1ZM46.84,109.35h0ZM54.25,104.79v6.4c0,.54,0,1.1.01,1.43h-.78c-.01-.14-.03-.51-.03-.75-.17.48-.53.85-1.31.85-1.16,0-1.65-.99-1.65-2.95,0-1.78.66-2.82,1.83-2.82.72,0,1,.31,1.13.58v-2.74h.8ZM51.31,109.78c0,1.61.37,2.22,1.05,2.22.87,0,1.1-.74,1.1-2.25,0-1.63-.23-2.09-1.03-2.09-.66,0-1.11.58-1.11,2.12ZM56.09,109.98c0,1.09.19,2.05,1.07,2.05s.99-.83,1.02-1h.79c-.01.14-.17,1.69-1.81,1.69s-1.87-1.51-1.87-2.89c0-1.77.6-2.88,1.92-2.88,1.47,0,1.81,1.21,1.81,2.6,0,.11,0,.29-.01.43h-2.91ZM58.21,109.35c0-.96-.2-1.71-1.02-1.71-1.02,0-1.07,1.33-1.09,1.71h2.1ZM58.21,109.35h0ZM66.1,110.55c-.03.43-.22,2.18-2.03,2.18-1.99,0-2.14-2.1-2.14-3.9,0-2.17.57-3.79,2.23-3.79,1.8,0,1.9,1.69,1.92,2.14h-.83c-.01-.25-.06-1.41-1.11-1.41-1.18,0-1.36,1.61-1.36,3.06,0,1.58.17,3.17,1.3,3.17,1,0,1.15-1.08,1.18-1.46h.83ZM67.96,104.79v2.93c.19-.45.63-.78,1.34-.78.82,0,1.41.51,1.41,1.71v3.97h-.81v-3.8c0-.68-.2-1.16-.88-1.16-.77,0-1.05.63-1.05,1.6v3.35h-.81v-7.83h.81ZM75.17,111.63c0,.35.03.81.04.99h-.74c-.03-.12-.06-.42-.06-.63-.21.45-.63.73-1.32.73-1.07,0-1.46-.84-1.46-1.61,0-1.02.69-1.79,2.15-1.79.26,0,.42,0,.58.02v-.74c0-.44-.08-.99-.84-.99-.82,0-.87.59-.9.96h-.78c.02-.8.4-1.62,1.71-1.62,1.08,0,1.6.53,1.6,1.55v3.13ZM74.4,109.98c-.14-.02-.29-.03-.55-.03-.99,0-1.4.48-1.4,1.1,0,.51.27.99.87.99.82,0,1.08-.58,1.08-1.75v-.3ZM76.51,108.72c0-.99,0-1.41-.01-1.67h.77c.02.16.03.46.03.71.22-.49.61-.81,1.25-.81.58,0,.99.25,1.16.83.2-.45.62-.83,1.35-.83s1.35.34,1.35,1.62v4.05h-.8v-3.91c0-.56-.16-1.05-.79-1.05-.71,0-.95.63-.95,1.38v3.58h-.8v-3.89c0-.69-.23-1.06-.77-1.06-.67,0-.98.61-.98,1.45v3.5h-.8v-3.91ZM84.52,112.05v2.62h-.8v-6c0-.76,0-1.28-.01-1.63h.78c.01.1.03.47.03.75.2-.48.59-.84,1.33-.84,1.06,0,1.63.94,1.63,2.8,0,2.01-.7,2.97-1.79,2.97-.67,0-1-.32-1.16-.67ZM86.65,109.79c0-1.4-.32-2.13-1.06-2.13-.86,0-1.1.82-1.1,2.14s.13,2.21,1.05,2.21c.73,0,1.1-.85,1.1-2.22ZM89.08,109.98c0,1.09.19,2.05,1.07,2.05s.99-.83,1.02-1h.79c-.01.14-.17,1.69-1.81,1.69s-1.87-1.51-1.87-2.89c0-1.77.6-2.88,1.92-2.88,1.47,0,1.81,1.21,1.81,2.6,0,.11,0,.29-.01.43h-2.91ZM91.2,109.35c0-.96-.2-1.71-1.02-1.71-1.02,0-1.07,1.33-1.09,1.71h2.1ZM91.2,109.35h0ZM93.03,112.62v-7.83h.8v7.83h-.8ZM97.79,109.98c0,1.09.19,2.05,1.07,2.05s.99-.83,1.02-1h.79c-.01.14-.17,1.69-1.81,1.69s-1.87-1.51-1.87-2.89c0-1.77.6-2.88,1.92-2.88,1.47,0,1.81,1.21,1.81,2.6,0,.11,0,.29-.01.43h-2.91ZM99.91,109.35c0-.96-.2-1.71-1.02-1.71-1.02,0-1.07,1.33-1.09,1.71h2.1ZM99.91,109.35h0ZM101.17,107.04h.79v-1.49h.8v1.49h.97v.69h-.97v3.66c0,.38.08.62.5.62.13,0,.29,0,.39-.03v.62c-.19.07-.47.09-.66.09-.66,0-1.04-.27-1.04-1.15v-3.82h-.79v-.69ZM106.59,107.04h.8v5.58h-.8v-5.58ZM106.59,104.79h.8v1.15h-.8v-1.15ZM108.71,107.04h.78c.01.14.03.36.03.73.19-.44.57-.83,1.32-.83.81,0,1.43.46,1.43,1.7v3.97h-.81v-3.82c0-.68-.22-1.14-.86-1.14-.75,0-1.07.49-1.07,1.64v3.32h-.81v-3.85c0-1.14,0-1.47-.01-1.73ZM113.79,107.04c.46,1.81,1.01,3.99,1.12,4.67h.01c.07-.62.91-3.53,1.18-4.67h.81l-1.6,5.58h-.87l-1.51-5.58h.85ZM118.18,109.98c0,1.09.19,2.05,1.07,2.05s.99-.83,1.02-1h.79c-.01.14-.17,1.69-1.81,1.69s-1.87-1.51-1.87-2.89c0-1.77.6-2.88,1.92-2.88,1.47,0,1.81,1.21,1.81,2.6,0,.11,0,.29-.01.43h-2.91ZM120.29,109.35c0-.96-.2-1.71-1.02-1.71-1.02,0-1.07,1.33-1.09,1.71h2.1ZM120.29,109.35h0ZM122.11,107.04h.77c.01.14.03.4.03,1,.24-.67.78-1.07,1.47-1.08v.89c-.96.03-1.46.63-1.46,1.66v3.12h-.8v-3.68c0-.89,0-1.5-.01-1.9ZM126.59,112.06c.61,0,.9-.37.9-.88,0-.58-.3-.84-1.03-1.13-1.15-.44-1.49-.86-1.49-1.63s.46-1.47,1.6-1.47c1.25,0,1.6.85,1.61,1.59h-.79c-.01-.27-.07-.93-.85-.93-.53,0-.77.33-.77.77s.19.67.97.96c1.08.42,1.56.81,1.56,1.77,0,1.02-.64,1.62-1.75,1.62s-1.72-.69-1.75-1.71h.8c.04.6.35,1.05.99,1.05ZM129.84,109.98c0,1.09.19,2.05,1.07,2.05s.99-.83,1.02-1h.79c-.01.14-.17,1.69-1.81,1.69s-1.87-1.51-1.87-2.89c0-1.77.6-2.88,1.92-2.88,1.47,0,1.81,1.21,1.81,2.6,0,.11,0,.29-.01.43h-2.91ZM131.95,109.35c0-.96-.2-1.71-1.02-1.71-1.02,0-1.07,1.33-1.09,1.71h2.1ZM131.95,109.35h0ZM133.78,108.72c0-.99,0-1.41-.01-1.67h.77c.02.16.03.46.03.71.22-.49.61-.81,1.25-.81.58,0,.99.25,1.16.83.2-.45.62-.83,1.35-.83s1.35.34,1.35,1.62v4.05h-.8v-3.91c0-.56-.16-1.05-.79-1.05-.71,0-.95.63-.95,1.38v3.58h-.8v-3.89c0-.69-.23-1.06-.77-1.06-.67,0-.98.61-.98,1.45v3.5h-.8v-3.91ZM141.53,109.98c0,1.09.19,2.05,1.07,2.05s.99-.83,1.02-1h.79c-.01.14-.17,1.69-1.81,1.69s-1.87-1.51-1.87-2.89c0-1.77.6-2.88,1.92-2.88,1.47,0,1.81,1.21,1.81,2.6,0,.11,0,.29-.01.43h-2.91ZM143.65,109.35c0-.96-.2-1.71-1.02-1.71-1.02,0-1.07,1.33-1.09,1.71h2.1ZM143.65,109.35h0ZM145.46,107.04h.78c.01.14.03.36.03.73.19-.44.57-.83,1.32-.83.81,0,1.43.46,1.43,1.7v3.97h-.81v-3.82c0-.68-.22-1.14-.86-1.14-.75,0-1.07.49-1.07,1.64v3.32h-.81v-3.85c0-1.14,0-1.47-.01-1.73ZM149.65,107.04h.79v-1.49h.8v1.49h.97v.69h-.97v3.66c0,.38.08.62.5.62.13,0,.29,0,.39-.03v.62c-.19.07-.47.09-.66.09-.66,0-1.04-.27-1.04-1.15v-3.82h-.79v-.69ZM153,111.11h.82v1.51h-.82v-1.51Z"/>
    <path class="cls-8" d="M27.49,138.85v3.44h-.82v-7.47h1.95c1.25,0,1.91.71,1.91,1.93,0,1.12-.55,1.59-1,1.75.69.25.91.86.91,1.91v.3c0,.7.02,1.19.11,1.59h-.81c-.1-.34-.11-1.01-.11-1.61v-.25c0-1.06-.22-1.57-1.23-1.57h-.91ZM27.49,138.15h.96c.91,0,1.25-.51,1.25-1.38,0-.75-.35-1.26-1.17-1.26h-1.03v2.64ZM32.28,139.65c0,1.09.19,2.05,1.07,2.05s.99-.83,1.02-1h.79c-.01.14-.17,1.69-1.81,1.69s-1.87-1.51-1.87-2.89c0-1.77.6-2.88,1.92-2.88,1.47,0,1.81,1.21,1.81,2.6,0,.11,0,.29-.01.43h-2.91ZM34.4,139.02c0-.96-.2-1.71-1.02-1.71-1.02,0-1.07,1.33-1.09,1.71h2.1ZM34.92,134.33l-1.38,1.53h-.75l1.18-1.53h.95ZM34.4,139.02h0ZM37.03,141.72v2.62h-.8v-6c0-.76,0-1.28-.01-1.63h.78c.01.1.03.47.03.75.2-.48.59-.84,1.33-.84,1.06,0,1.63.94,1.63,2.8,0,2.01-.7,2.97-1.79,2.97-.67,0-1-.32-1.16-.67ZM39.16,139.46c0-1.4-.32-2.13-1.06-2.13-.86,0-1.1.82-1.1,2.14s.13,2.21,1.05,2.21c.73,0,1.1-.85,1.1-2.22ZM44.62,139.43c0,1.96-.66,2.96-1.92,2.96s-1.92-.96-1.92-2.94.76-2.83,1.95-2.83,1.89.94,1.89,2.82ZM41.6,139.45c0,1.52.38,2.24,1.1,2.24s1.09-.73,1.09-2.24c0-1.43-.35-2.13-1.09-2.13s-1.1.63-1.1,2.14ZM45.65,136.71h.78c.01.14.03.36.03.73.19-.44.57-.83,1.32-.83.81,0,1.43.46,1.43,1.7v3.97h-.81v-3.82c0-.68-.22-1.14-.86-1.14-.75,0-1.07.49-1.07,1.64v3.32h-.81v-3.85c0-1.14,0-1.47-.01-1.73ZM51.91,141.73c.61,0,.9-.37.9-.88,0-.58-.3-.84-1.03-1.13-1.15-.44-1.49-.86-1.49-1.63s.46-1.47,1.6-1.47c1.25,0,1.6.85,1.61,1.59h-.79c-.01-.27-.07-.93-.85-.93-.53,0-.77.33-.77.77s.19.67.97.96c1.08.42,1.56.81,1.56,1.77,0,1.02-.64,1.62-1.75,1.62s-1.72-.69-1.75-1.71h.8c.04.6.35,1.05.99,1.05ZM55.16,139.65c0,1.09.19,2.05,1.07,2.05s.99-.83,1.02-1h.79c-.01.14-.17,1.69-1.81,1.69s-1.87-1.51-1.87-2.89c0-1.77.6-2.88,1.92-2.88,1.47,0,1.81,1.21,1.81,2.6,0,.11,0,.29-.01.43h-2.91ZM57.28,139.02c0-.96-.2-1.71-1.02-1.71-1.02,0-1.07,1.33-1.09,1.71h2.1ZM57.28,139.02h0ZM61.26,138.38v-1.51h.78v1.51h-.78ZM61.26,140.78h.78v1.51h-.78v-1.51ZM65.59,134.81h3.44v.73h-2.62v2.49h2.46v.72h-2.46v3.52h-.82v-7.47ZM72.92,141.3c0,.35.03.81.04.99h-.74c-.03-.12-.06-.42-.06-.63-.21.45-.63.73-1.32.73-1.07,0-1.46-.84-1.46-1.61,0-1.02.69-1.79,2.15-1.79.26,0,.42,0,.58.02v-.74c0-.44-.08-.99-.84-.99-.82,0-.87.59-.9.96h-.78c.02-.8.4-1.62,1.71-1.62,1.08,0,1.6.53,1.6,1.55v3.13ZM72.15,139.65c-.14-.02-.29-.03-.55-.03-.99,0-1.4.48-1.4,1.1,0,.51.27.99.87.99.82,0,1.08-.58,1.08-1.75v-.3ZM77.71,140.76c0,.7,0,1.26.01,1.53h-.77c-.03-.16-.04-.38-.04-.74-.2.55-.67.84-1.33.84s-1.39-.27-1.39-1.67v-4.01h.81v3.82c0,.71.2,1.15.84,1.15s1.06-.38,1.06-1.58v-3.39h.81v4.05ZM79.29,136.71c.58,1.21.88,1.76,1.02,2.07h.01c.18-.38.56-1.11,1.05-2.07h.86l-1.47,2.66,1.48,2.92h-.9c-.55-1.15-.89-1.83-1.05-2.17h-.01c-.14.3-.55,1.13-1.07,2.17h-.86l1.47-2.8-1.43-2.78h.89Z"/>
    <path class="cls-8" d="M26.68,149.65h.82v6.75h2.67l-.12.72h-3.37v-7.47ZM34.22,156.14c0,.35.03.81.04.99h-.74c-.03-.12-.06-.42-.06-.63-.21.45-.63.73-1.32.73-1.07,0-1.46-.84-1.46-1.61,0-1.02.69-1.79,2.15-1.79.26,0,.42,0,.58.02v-.74c0-.44-.08-.99-.84-.99-.82,0-.87.59-.9.96h-.78c.02-.8.4-1.62,1.71-1.62,1.08,0,1.6.53,1.6,1.55v3.13ZM33.44,154.48c-.14-.02-.29-.03-.55-.03-.99,0-1.4.48-1.4,1.1,0,.51.27.99.87.99.82,0,1.08-.58,1.08-1.75v-.3ZM37.73,149.65h1.95c1.12,0,1.8.67,1.8,1.82,0,1-.48,1.44-.92,1.59.57.2,1.16.72,1.16,1.88,0,1.34-.81,2.19-2.11,2.19h-1.89v-7.47ZM39.39,152.77c.94,0,1.28-.42,1.28-1.22,0-.75-.39-1.21-1.18-1.21h-.96v2.43h.86ZM38.54,156.45h1c.88,0,1.36-.53,1.36-1.51s-.51-1.5-1.51-1.5h-.85v3.01ZM42.76,151.55h.8v5.58h-.8v-5.58ZM42.76,149.29h.8v1.15h-.8v-1.15ZM44.92,149.29h.8v2.99c.18-.43.57-.83,1.33-.83,1.07,0,1.63.89,1.63,2.74,0,1.72-.46,3.02-1.78,3.02-.71,0-1.03-.36-1.2-.75,0,.18-.01.44-.03.66h-.76c.01-.3.01-.85.01-1.53v-6.3ZM47.86,154.21c0-1.4-.33-2.04-1.03-2.04-.86,0-1.14.77-1.14,2.18,0,1.34.22,2.16,1.06,2.16.74,0,1.1-.72,1.1-2.3ZM49.71,157.13v-7.83h.8v7.83h-.8ZM51.84,151.55h.8v5.58h-.8v-5.58ZM51.85,149.29h.8v1.15h-.8v-1.15ZM57.54,154.27c0,1.96-.66,2.96-1.92,2.96s-1.92-.96-1.92-2.94.76-2.83,1.95-2.83,1.89.94,1.89,2.82ZM54.52,154.29c0,1.52.38,2.24,1.1,2.24s1.09-.73,1.09-2.24c0-1.43-.35-2.13-1.09-2.13s-1.1.63-1.1,2.14ZM57.92,151.55h.79v-1.49h.8v1.49h.97v.69h-.97v3.66c0,.38.08.62.5.62.13,0,.29,0,.39-.03v.62c-.19.07-.47.09-.66.09-.66,0-1.04-.27-1.04-1.15v-3.82h-.79v-.69ZM62.05,149.29v2.93c.19-.45.63-.78,1.34-.78.82,0,1.41.51,1.41,1.71v3.97h-.81v-3.8c0-.68-.2-1.16-.88-1.16-.77,0-1.05.63-1.05,1.6v3.35h-.81v-7.83h.81ZM66.64,154.49c0,1.09.19,2.05,1.07,2.05s.99-.83,1.02-1h.79c-.01.14-.17,1.69-1.81,1.69s-1.87-1.51-1.87-2.89c0-1.77.6-2.88,1.92-2.88,1.47,0,1.81,1.21,1.81,2.6,0,.11,0,.29-.01.43h-2.91ZM67.05,149.18l1.18,1.53h-.76l-1.39-1.53h.97ZM68.76,153.86c0-.96-.2-1.71-1.02-1.71-1.02,0-1.07,1.33-1.09,1.71h2.1ZM68.76,153.86h0ZM73.37,156.42c-.21.48-.59.8-1.31.8-1.04,0-1.66-.86-1.66-2.89,0-1.85.7-2.88,1.8-2.88.74,0,1.05.35,1.17.7,0-.31.02-.5.03-.6h.78c-.01.4-.01.86-.01,1.65v5.98h-.79v-2.76ZM71.23,154.35c0,1.33.31,2.18,1.06,2.18.9,0,1.09-.78,1.09-2.21s-.12-2.15-1.03-2.15c-.7,0-1.11.76-1.11,2.18ZM79,155.6c0,.7,0,1.26.01,1.53h-.77c-.03-.16-.04-.38-.04-.74-.2.55-.67.84-1.33.84s-1.39-.27-1.39-1.67v-4.01h.81v3.82c0,.71.2,1.15.84,1.15s1.06-.38,1.06-1.58v-3.39h.81v4.05ZM80.84,154.49c0,1.09.19,2.05,1.07,2.05s.99-.83,1.02-1h.79c-.01.14-.17,1.69-1.81,1.69s-1.87-1.51-1.87-2.89c0-1.77.6-2.88,1.92-2.88,1.47,0,1.81,1.21,1.81,2.6,0,.11,0,.29-.01.43h-2.91ZM82.96,153.86c0-.96-.2-1.71-1.02-1.71-1.02,0-1.07,1.33-1.09,1.71h2.1ZM82.96,153.86h0ZM88.93,149.26c-.74,1.11-1.4,2.55-1.4,4.63,0,1.91.52,3.39,1.4,4.76h-.78c-.68-.98-1.38-2.59-1.38-4.77s.75-3.68,1.38-4.62h.78ZM91.1,156.57c.61,0,.9-.37.9-.88,0-.58-.3-.84-1.03-1.13-1.15-.44-1.49-.86-1.49-1.63s.46-1.47,1.6-1.47c1.25,0,1.6.85,1.61,1.59h-.79c-.01-.27-.07-.93-.85-.93-.53,0-.77.33-.77.77s.19.67.97.96c1.08.42,1.56.81,1.56,1.77,0,1.02-.64,1.62-1.75,1.62s-1.72-.69-1.75-1.71h.8c.04.6.35,1.05.99,1.05ZM93.78,151.55h.8v5.58h-.8v-5.58ZM93.79,149.29h.8v1.15h-.8v-1.15ZM95.34,151.55h.79v-1.49h.8v1.49h.97v.69h-.97v3.66c0,.38.08.62.5.62.13,0,.29,0,.39-.03v.62c-.19.07-.47.09-.66.09-.66,0-1.04-.27-1.04-1.15v-3.82h-.79v-.69ZM99.14,154.49c0,1.09.19,2.05,1.07,2.05s.99-.83,1.02-1h.79c-.01.14-.17,1.69-1.81,1.69s-1.87-1.51-1.87-2.89c0-1.77.6-2.88,1.92-2.88,1.47,0,1.81,1.21,1.81,2.6,0,.11,0,.29-.01.43h-2.91ZM101.25,153.86c0-.96-.2-1.71-1.02-1.71-1.02,0-1.07,1.33-1.09,1.71h2.1ZM101.25,153.86h0ZM104.52,156.57c.61,0,.9-.37.9-.88,0-.58-.3-.84-1.03-1.13-1.15-.44-1.49-.86-1.49-1.63s.46-1.47,1.6-1.47c1.25,0,1.6.85,1.61,1.59h-.79c-.01-.27-.07-.93-.85-.93-.53,0-.77.33-.77.77s.19.67.97.96c1.08.42,1.56.81,1.56,1.77,0,1.02-.64,1.62-1.75,1.62s-1.72-.69-1.75-1.71h.8c.04.6.35,1.05.99,1.05ZM113.29,155.06c-.03.43-.22,2.18-2.03,2.18-1.99,0-2.14-2.1-2.14-3.9,0-2.17.57-3.79,2.23-3.79,1.8,0,1.9,1.69,1.92,2.14h-.83c-.01-.25-.06-1.41-1.11-1.41-1.18,0-1.36,1.61-1.36,3.06,0,1.58.17,3.17,1.3,3.17,1,0,1.15-1.08,1.18-1.46h.83ZM117.59,156.14c0,.35.03.81.04.99h-.74c-.03-.12-.06-.42-.06-.63-.21.45-.63.73-1.32.73-1.07,0-1.46-.84-1.46-1.61,0-1.02.69-1.79,2.15-1.79.26,0,.42,0,.58.02v-.74c0-.44-.08-.99-.84-.99-.82,0-.87.59-.9.96h-.78c.02-.8.4-1.62,1.71-1.62,1.08,0,1.6.53,1.6,1.55v3.13ZM116.82,154.48c-.14-.02-.29-.03-.55-.03-.99,0-1.4.48-1.4,1.1,0,.51.27.99.87.99.82,0,1.08-.58,1.08-1.75v-.3ZM118.92,151.55h.77c.01.14.03.4.03,1,.24-.67.78-1.07,1.47-1.08v.89c-.96.03-1.46.63-1.46,1.66v3.12h-.8v-3.68c0-.89,0-1.5-.01-1.9ZM125.46,154.27c0,1.96-.66,2.96-1.92,2.96s-1.92-.96-1.92-2.94.76-2.83,1.95-2.83,1.89.94,1.89,2.82ZM122.45,154.29c0,1.52.38,2.24,1.1,2.24s1.09-.73,1.09-2.24c0-1.43-.35-2.13-1.09-2.13s-1.1.63-1.1,2.14ZM130.02,155.6c0,.7,0,1.26.01,1.53h-.77c-.03-.16-.04-.38-.04-.74-.2.55-.67.84-1.33.84s-1.39-.27-1.39-1.67v-4.01h.81v3.82c0,.71.2,1.15.84,1.15s1.06-.38,1.06-1.58v-3.39h.81v4.05ZM131.33,149.29h.8v2.99c.18-.43.57-.83,1.33-.83,1.07,0,1.63.89,1.63,2.74,0,1.72-.46,3.02-1.78,3.02-.71,0-1.03-.36-1.2-.75,0,.18-.01.44-.03.66h-.76c.01-.3.01-.85.01-1.53v-6.3ZM134.28,154.21c0-1.4-.33-2.04-1.03-2.04-.86,0-1.14.77-1.14,2.18,0,1.34.22,2.16,1.06,2.16.74,0,1.1-.72,1.1-2.3ZM136.12,151.55h.8v5.58h-.8v-5.58ZM136.13,149.29h.8v1.15h-.8v-1.15ZM138.79,154.49c0,1.09.19,2.05,1.07,2.05s.99-.83,1.02-1h.79c-.01.14-.17,1.69-1.81,1.69s-1.87-1.51-1.87-2.89c0-1.77.6-2.88,1.92-2.88,1.47,0,1.81,1.21,1.81,2.6,0,.11,0,.29-.01.43h-2.91ZM140.91,153.86c0-.96-.2-1.71-1.02-1.71-1.02,0-1.07,1.33-1.09,1.71h2.1ZM140.91,153.86h0ZM142.72,151.55h.77c.01.14.03.4.03,1,.24-.67.78-1.07,1.47-1.08v.89c-.96.03-1.46.63-1.46,1.66v3.12h-.8v-3.68c0-.89,0-1.5-.01-1.9ZM147.2,156.57c.61,0,.9-.37.9-.88,0-.58-.3-.84-1.03-1.13-1.15-.44-1.49-.86-1.49-1.63s.46-1.47,1.6-1.47c1.25,0,1.6.85,1.61,1.59h-.79c-.01-.27-.07-.93-.85-.93-.53,0-.77.33-.77.77s.19.67.97.96c1.08.42,1.56.81,1.56,1.77,0,1.02-.64,1.62-1.75,1.62s-1.72-.69-1.75-1.71h.8c.04.6.35,1.05.99,1.05Z"/>
    <path class="cls-8" d="M31.52,164.59l-1.27,2.65,1.52,1.89h-1.03l-.89-1.12c-.44.77-.9,1.21-1.76,1.21-1.15,0-1.7-.82-1.7-1.99,0-.87.33-1.46,1.18-2.08-.43-.57-.71-1.09-.71-1.87,0-.83.45-1.71,1.53-1.71.99,0,1.49.69,1.49,1.56,0,.96-.42,1.46-1.29,2.05l1.17,1.45.94-2.05h.82ZM27.96,165.63c-.58.48-.75.92-.75,1.54,0,.81.35,1.34.95,1.34.52,0,.83-.32,1.23-1.08l-1.43-1.79ZM29.13,163.17c0-.52-.18-.94-.74-.94-.48,0-.74.4-.74,1.02,0,.51.14.89.57,1.45.72-.53.91-.91.91-1.53ZM38.69,167.06c-.03.43-.22,2.18-2.03,2.18-1.99,0-2.14-2.1-2.14-3.9,0-2.17.57-3.79,2.23-3.79,1.8,0,1.9,1.69,1.92,2.14h-.83c-.01-.25-.06-1.41-1.11-1.41-1.18,0-1.36,1.61-1.36,3.06,0,1.58.17,3.17,1.3,3.17,1,0,1.15-1.08,1.18-1.46h.83ZM40.55,161.29v2.93c.19-.45.63-.78,1.34-.78.82,0,1.41.51,1.41,1.71v3.97h-.81v-3.8c0-.68-.2-1.16-.88-1.16-.77,0-1.05.63-1.05,1.6v3.35h-.81v-7.83h.81ZM47.76,168.14c0,.35.03.81.04.99h-.74c-.03-.12-.06-.42-.06-.63-.21.45-.63.73-1.32.73-1.07,0-1.46-.84-1.46-1.61,0-1.02.69-1.79,2.15-1.79.26,0,.42,0,.58.02v-.74c0-.44-.08-.99-.84-.99-.82,0-.87.59-.9.96h-.78c.02-.8.4-1.62,1.71-1.62,1.08,0,1.6.53,1.6,1.55v3.13ZM46.98,166.49c-.14-.02-.29-.03-.55-.03-.99,0-1.4.48-1.4,1.1,0,.51.27.99.87.99.82,0,1.08-.58,1.08-1.75v-.3ZM49.1,165.22c0-.99,0-1.41-.01-1.67h.77c.02.16.03.46.03.71.22-.49.61-.81,1.25-.81.58,0,.99.25,1.16.83.2-.45.62-.83,1.35-.83s1.35.34,1.35,1.62v4.05h-.8v-3.91c0-.56-.16-1.05-.79-1.05-.71,0-.95.63-.95,1.38v3.58h-.8v-3.89c0-.69-.23-1.06-.77-1.06-.67,0-.98.61-.98,1.45v3.5h-.8v-3.91ZM57.11,168.56v2.62h-.8v-6c0-.76,0-1.28-.01-1.63h.78c.01.1.03.47.03.75.2-.48.59-.84,1.33-.84,1.06,0,1.63.94,1.63,2.8,0,2.01-.7,2.97-1.79,2.97-.67,0-1-.32-1.16-.67ZM59.24,166.3c0-1.4-.32-2.13-1.06-2.13-.86,0-1.1.82-1.1,2.14s.13,2.21,1.05,2.21c.73,0,1.1-.85,1.1-2.22ZM61.67,166.49c0,1.09.19,2.05,1.07,2.05s.99-.83,1.02-1h.79c-.01.14-.17,1.69-1.81,1.69s-1.87-1.51-1.87-2.89c0-1.77.6-2.88,1.92-2.88,1.47,0,1.81,1.21,1.81,2.6,0,.11,0,.29-.01.43h-2.91ZM63.79,165.86c0-.96-.2-1.71-1.02-1.71-1.02,0-1.07,1.33-1.09,1.71h2.1ZM63.79,165.86h0ZM65.61,169.13v-7.83h.8v7.83h-.8ZM67.39,170.64c.74-1.11,1.4-2.55,1.4-4.63,0-1.91-.52-3.39-1.4-4.76h.78c.68.98,1.38,2.59,1.38,4.77s-.75,3.68-1.38,4.62h-.78ZM73.39,166.49c0,1.09.19,2.05,1.07,2.05s.99-.83,1.02-1h.79c-.01.14-.17,1.69-1.81,1.69s-1.87-1.51-1.87-2.89c0-1.77.6-2.88,1.92-2.88,1.47,0,1.81,1.21,1.81,2.6,0,.11,0,.29-.01.43h-2.91ZM75.5,165.86c0-.96-.2-1.71-1.02-1.71-1.02,0-1.07,1.33-1.09,1.71h2.1ZM75.5,165.86h0ZM78.77,168.57c.61,0,.9-.37.9-.88,0-.58-.3-.84-1.03-1.13-1.15-.44-1.49-.86-1.49-1.63s.46-1.47,1.6-1.47c1.25,0,1.6.85,1.61,1.59h-.79c-.01-.27-.07-.93-.85-.93-.53,0-.77.33-.77.77s.19.67.97.96c1.08.42,1.56.81,1.56,1.77,0,1.02-.64,1.62-1.75,1.62s-1.72-.69-1.75-1.71h.8c.04.6.35,1.05.99,1.05ZM80.87,163.55h.79v-1.49h.8v1.49h.97v.69h-.97v3.66c0,.38.08.62.5.62.13,0,.29,0,.39-.03v.62c-.19.07-.47.09-.66.09-.66,0-1.04-.27-1.04-1.15v-3.82h-.79v-.69ZM89.53,168.14c0,.35.03.81.04.99h-.74c-.03-.12-.06-.42-.06-.63-.21.45-.63.73-1.32.73-1.07,0-1.46-.84-1.46-1.61,0-1.02.69-1.79,2.15-1.79.26,0,.42,0,.58.02v-.74c0-.44-.08-.99-.84-.99-.82,0-.87.59-.9.96h-.78c.02-.8.4-1.62,1.71-1.62,1.08,0,1.6.53,1.6,1.55v3.13ZM88.76,166.49c-.14-.02-.29-.03-.55-.03-.99,0-1.4.48-1.4,1.1,0,.51.27.99.87.99.82,0,1.08-.58,1.08-1.75v-.3ZM94.22,167.42c-.02.3-.14,1.8-1.77,1.8-1.46,0-1.85-1.29-1.85-2.91s.51-2.87,1.93-2.87c1.62,0,1.7,1.5,1.7,1.76h-.82c-.01-.23-.09-1.07-.88-1.07s-1.1.88-1.1,2.17c0,1.39.3,2.22,1.06,2.22.81,0,.9-.81.94-1.11h.8ZM98.59,167.42c-.02.3-.14,1.8-1.77,1.8-1.46,0-1.85-1.29-1.85-2.91s.51-2.87,1.93-2.87c1.62,0,1.7,1.5,1.7,1.76h-.82c-.01-.23-.09-1.07-.88-1.07s-1.1.88-1.1,2.17c0,1.39.3,2.22,1.06,2.22.81,0,.9-.81.94-1.11h.8ZM100.14,166.49c0,1.09.19,2.05,1.07,2.05s.99-.83,1.02-1h.79c-.01.14-.17,1.69-1.81,1.69s-1.87-1.51-1.87-2.89c0-1.77.6-2.88,1.92-2.88,1.47,0,1.81,1.21,1.81,2.6,0,.11,0,.29-.01.43h-2.91ZM102.25,165.86c0-.96-.2-1.71-1.02-1.71-1.02,0-1.07,1.33-1.09,1.71h2.1ZM102.25,165.86h0ZM105.53,168.57c.61,0,.9-.37.9-.88,0-.58-.3-.84-1.03-1.13-1.15-.44-1.49-.86-1.49-1.63s.46-1.47,1.6-1.47c1.25,0,1.6.85,1.61,1.59h-.79c-.01-.27-.07-.93-.85-.93-.53,0-.77.33-.77.77s.19.67.97.96c1.08.42,1.56.81,1.56,1.77,0,1.02-.64,1.62-1.75,1.62s-1.72-.69-1.75-1.71h.8c.04.6.35,1.05.99,1.05ZM109.67,168.57c.61,0,.9-.37.9-.88,0-.58-.3-.84-1.03-1.13-1.15-.44-1.49-.86-1.49-1.63s.46-1.47,1.6-1.47c1.25,0,1.6.85,1.61,1.59h-.79c-.01-.27-.07-.93-.85-.93-.53,0-.77.33-.77.77s.19.67.97.96c1.08.42,1.56.81,1.56,1.77,0,1.02-.64,1.62-1.75,1.62s-1.72-.69-1.75-1.71h.8c.04.6.35,1.05.99,1.05ZM112.35,163.55h.8v5.58h-.8v-5.58ZM112.36,161.29h.8v1.15h-.8v-1.15ZM114.52,161.29h.8v2.99c.18-.43.57-.83,1.33-.83,1.07,0,1.63.89,1.63,2.74,0,1.72-.46,3.02-1.78,3.02-.71,0-1.03-.36-1.2-.75,0,.18-.01.44-.03.66h-.76c.01-.3.01-.85.01-1.53v-6.3ZM117.46,166.21c0-1.4-.33-2.04-1.03-2.04-.86,0-1.14.77-1.14,2.18,0,1.34.22,2.16,1.06,2.16.74,0,1.1-.72,1.1-2.3ZM119.3,169.13v-7.83h.8v7.83h-.8ZM121.97,166.49c0,1.09.19,2.05,1.07,2.05s.99-.83,1.02-1h.79c-.01.14-.17,1.69-1.81,1.69s-1.87-1.51-1.87-2.89c0-1.77.6-2.88,1.92-2.88,1.47,0,1.81,1.21,1.81,2.6,0,.11,0,.29-.01.43h-2.91ZM124.09,165.86c0-.96-.2-1.71-1.02-1.71-1.02,0-1.07,1.33-1.09,1.71h2.1ZM124.09,165.86h0ZM131.26,168.14c0,.35.03.81.04.99h-.74c-.03-.12-.06-.42-.06-.63-.21.45-.63.73-1.32.73-1.07,0-1.46-.84-1.46-1.61,0-1.02.69-1.79,2.15-1.79.26,0,.42,0,.58.02v-.74c0-.44-.08-.99-.84-.99-.82,0-.87.59-.9.96h-.78c.02-.8.4-1.62,1.71-1.62,1.08,0,1.6.53,1.6,1.55v3.13ZM128.93,161.18l1.18,1.53h-.76l-1.39-1.53h.97ZM130.48,166.49c-.14-.02-.29-.03-.55-.03-.99,0-1.4.48-1.4,1.1,0,.51.27.99.87.99.82,0,1.08-.58,1.08-1.75v-.3ZM134,163.55h.79v-1.49h.8v1.49h.97v.69h-.97v3.66c0,.38.08.62.5.62.13,0,.29,0,.39-.03v.62c-.19.07-.47.09-.66.09-.66,0-1.04-.27-1.04-1.15v-3.82h-.79v-.69ZM140.83,166.27c0,1.96-.66,2.96-1.92,2.96s-1.92-.96-1.92-2.94.76-2.83,1.95-2.83,1.89.94,1.89,2.82ZM137.82,166.29c0,1.52.38,2.24,1.1,2.24s1.09-.73,1.09-2.24c0-1.43-.35-2.13-1.09-2.13s-1.1.63-1.1,2.14ZM145.39,167.6c0,.7,0,1.26.01,1.53h-.77c-.03-.16-.04-.38-.04-.74-.2.55-.67.84-1.33.84s-1.39-.27-1.39-1.67v-4.01h.81v3.82c0,.71.2,1.15.84,1.15s1.06-.38,1.06-1.58v-3.39h.81v4.05ZM146.13,163.55h.79v-1.49h.8v1.49h.97v.69h-.97v3.66c0,.38.08.62.5.62.13,0,.29,0,.39-.03v.62c-.19.07-.47.09-.66.09-.66,0-1.04-.27-1.04-1.15v-3.82h-.79v-.69ZM149.92,166.49c0,1.09.19,2.05,1.07,2.05s.99-.83,1.02-1h.79c-.01.14-.17,1.69-1.81,1.69s-1.87-1.51-1.87-2.89c0-1.77.6-2.88,1.92-2.88,1.47,0,1.81,1.21,1.81,2.6,0,.11,0,.29-.01.43h-2.91ZM152.04,165.86c0-.96-.2-1.71-1.02-1.71-1.02,0-1.07,1.33-1.09,1.71h2.1ZM152.04,165.86h0Z"/>
    <path class="cls-8" d="M27.4,180.56v2.62h-.8v-6c0-.76,0-1.28-.01-1.63h.78c.01.1.03.47.03.75.2-.48.59-.84,1.33-.84,1.06,0,1.63.94,1.63,2.8,0,2.01-.7,2.97-1.79,2.97-.67,0-1-.32-1.16-.67ZM29.53,178.3c0-1.4-.32-2.13-1.06-2.13-.86,0-1.1.82-1.1,2.14s.13,2.21,1.05,2.21c.73,0,1.1-.85,1.1-2.22ZM31.96,178.49c0,1.09.19,2.05,1.07,2.05s.99-.83,1.02-1h.79c-.01.14-.17,1.69-1.81,1.69s-1.87-1.51-1.87-2.89c0-1.77.6-2.88,1.92-2.88,1.47,0,1.81,1.21,1.81,2.6,0,.11,0,.29-.01.43h-2.91ZM34.08,177.86c0-.96-.2-1.71-1.02-1.71-1.02,0-1.07,1.33-1.09,1.71h2.1ZM34.08,177.86h0ZM35.89,175.55h.77c.01.14.03.4.03,1,.24-.67.78-1.07,1.47-1.08v.89c-.96.03-1.46.63-1.46,1.66v3.12h-.8v-3.68c0-.89,0-1.5-.01-1.9ZM40.37,180.57c.61,0,.9-.37.9-.88,0-.58-.3-.84-1.03-1.13-1.15-.44-1.49-.86-1.49-1.63s.46-1.47,1.6-1.47c1.25,0,1.6.85,1.61,1.59h-.79c-.01-.27-.07-.93-.85-.93-.53,0-.77.33-.77.77s.19.67.97.96c1.08.42,1.56.81,1.56,1.77,0,1.02-.64,1.62-1.75,1.62s-1.72-.69-1.75-1.71h.8c.04.6.35,1.05.99,1.05ZM46.65,178.27c0,1.96-.66,2.96-1.92,2.96s-1.92-.96-1.92-2.94.76-2.83,1.95-2.83,1.89.94,1.89,2.82ZM43.64,178.3c0,1.52.38,2.24,1.1,2.24s1.09-.73,1.09-2.24c0-1.43-.35-2.13-1.09-2.13s-1.1.63-1.1,2.14ZM47.68,175.55h.78c.01.14.03.36.03.73.19-.44.57-.83,1.32-.83.81,0,1.43.46,1.43,1.7v3.97h-.81v-3.82c0-.68-.22-1.14-.86-1.14-.75,0-1.07.49-1.07,1.64v3.32h-.81v-3.85c0-1.14,0-1.47-.01-1.73ZM52.56,175.55h.78c.01.14.03.36.03.73.19-.44.57-.83,1.32-.83.81,0,1.43.46,1.43,1.7v3.97h-.81v-3.82c0-.68-.22-1.14-.86-1.14-.75,0-1.07.49-1.07,1.64v3.32h-.81v-3.85c0-1.14,0-1.47-.01-1.73ZM57.98,178.49c0,1.09.19,2.05,1.07,2.05s.99-.83,1.02-1h.79c-.01.14-.17,1.69-1.81,1.69s-1.87-1.51-1.87-2.89c0-1.77.6-2.88,1.92-2.88,1.47,0,1.81,1.21,1.81,2.6,0,.11,0,.29-.01.43h-2.91ZM60.09,177.86c0-.96-.2-1.71-1.02-1.71-1.02,0-1.07,1.33-1.09,1.71h2.1ZM60.09,177.86h0ZM64.02,175.55h.8v5.58h-.8v-5.58ZM64.02,173.3h.8v1.15h-.8v-1.15ZM66.14,175.55h.78c.01.14.03.36.03.73.19-.44.57-.83,1.32-.83.81,0,1.43.46,1.43,1.7v3.97h-.81v-3.82c0-.68-.22-1.14-.86-1.14-.75,0-1.07.49-1.07,1.64v3.32h-.81v-3.85c0-1.14,0-1.47-.01-1.73ZM70.34,175.55h.79v-1.49h.8v1.49h.97v.69h-.97v3.66c0,.38.08.62.5.62.13,0,.29,0,.39-.03v.62c-.19.07-.47.09-.66.09-.66,0-1.04-.27-1.04-1.15v-3.82h-.79v-.69ZM74.13,178.49c0,1.09.19,2.05,1.07,2.05s.99-.83,1.02-1h.79c-.01.14-.17,1.69-1.81,1.69s-1.87-1.51-1.87-2.89c0-1.77.6-2.88,1.92-2.88,1.47,0,1.81,1.21,1.81,2.6,0,.11,0,.29-.01.43h-2.91ZM76.25,177.86c0-.96-.2-1.71-1.02-1.71-1.02,0-1.07,1.33-1.09,1.71h2.1ZM76.77,173.17l-1.38,1.53h-.75l1.18-1.53h.95ZM76.25,177.86h0ZM78.07,175.55h.77c.01.14.03.4.03,1,.24-.67.78-1.07,1.47-1.08v.89c-.96.03-1.46.63-1.46,1.66v3.12h-.8v-3.68c0-.89,0-1.5-.01-1.9ZM81.58,178.49c0,1.09.19,2.05,1.07,2.05s.99-.83,1.02-1h.79c-.01.14-.17,1.69-1.81,1.69s-1.87-1.51-1.87-2.89c0-1.77.6-2.88,1.92-2.88,1.47,0,1.81,1.21,1.81,2.6,0,.11,0,.29-.01.43h-2.91ZM83.7,177.86c0-.96-.2-1.71-1.02-1.71-1.02,0-1.07,1.33-1.09,1.71h2.1ZM83.7,177.86h0ZM86.97,180.57c.61,0,.9-.37.9-.88,0-.58-.3-.84-1.03-1.13-1.15-.44-1.49-.86-1.49-1.63s.46-1.47,1.6-1.47c1.25,0,1.6.85,1.61,1.59h-.79c-.01-.27-.07-.93-.85-.93-.53,0-.77.33-.77.77s.19.67.97.96c1.08.42,1.56.81,1.56,1.77,0,1.02-.64,1.62-1.75,1.62s-1.72-.69-1.75-1.71h.8c.04.6.35,1.05.99,1.05ZM91.12,180.57c.61,0,.9-.37.9-.88,0-.58-.3-.84-1.03-1.13-1.15-.44-1.49-.86-1.49-1.63s.46-1.47,1.6-1.47c1.25,0,1.6.85,1.61,1.59h-.79c-.01-.27-.07-.93-.85-.93-.53,0-.77.33-.77.77s.19.67.97.96c1.08.42,1.56.81,1.56,1.77,0,1.02-.64,1.62-1.75,1.62s-1.72-.69-1.75-1.71h.8c.04.6.35,1.05.99,1.05ZM94.36,178.49c0,1.09.19,2.05,1.07,2.05s.99-.83,1.02-1h.79c-.01.14-.17,1.69-1.81,1.69s-1.87-1.51-1.87-2.89c0-1.77.6-2.88,1.92-2.88,1.47,0,1.81,1.21,1.81,2.6,0,.11,0,.29-.01.43h-2.91ZM96.48,177.86c0-.96-.2-1.71-1.02-1.71-1.02,0-1.07,1.33-1.09,1.71h2.1ZM97,173.17l-1.38,1.53h-.75l1.18-1.53h.95ZM96.48,177.86h0ZM98.93,178.49c0,1.09.19,2.05,1.07,2.05s.99-.83,1.02-1h.79c-.01.14-.17,1.69-1.81,1.69s-1.87-1.51-1.87-2.89c0-1.77.6-2.88,1.92-2.88,1.47,0,1.81,1.21,1.81,2.6,0,.11,0,.29-.01.43h-2.91ZM101.04,177.86c0-.96-.2-1.71-1.02-1.71-1.02,0-1.07,1.33-1.09,1.71h2.1ZM101.04,177.86h0ZM102.68,179.62h.82v1.51h-.82v-1.51Z"/>
    <path class="cls-8" d="M66.52,72.19l-3.47-13.99h2.34l1.37,6.17c.42,1.89.86,4.09,1.03,5.51h.04c.17-1.35.74-3.6,1.16-5.47l1.36-6.21h2.27l-3.55,13.99h-2.55ZM73.22,65.18c0-1.73,0-2.84-.02-3.6h2.05c.02.21.06.67.06,1.8.42-1.23,1.38-1.96,2.79-1.97v2.39c-1.77,0-2.73.72-2.73,2.71v5.69h-2.14v-7.01ZM85.9,70.02c0,.57.05,1.73.08,2.16h-1.95c-.05-.22-.1-.72-.1-1.06-.4.74-1.13,1.25-2.43,1.25-2.04,0-2.81-1.61-2.81-3.12,0-2.1,1.43-3.46,4.15-3.46.4,0,.69,0,.95.03v-1.24c0-.69-.11-1.52-1.29-1.52s-1.31.82-1.37,1.52h-2.04c.04-1.55.77-3.18,3.49-3.18,2.21,0,3.32,1.02,3.32,3.02v5.6ZM83.84,67.41c-.25-.04-.5-.05-.88-.05-1.56,0-2.16.73-2.16,1.71,0,.76.38,1.55,1.36,1.55,1.35,0,1.67-.99,1.67-2.79v-.42ZM90.34,61.57v10.61h-2.14v-10.61h2.14ZM90.36,57.51v2.34h-2.14v-2.34h2.14ZM92.04,72.6l4.02-14.49h1.64l-4,14.49h-1.66ZM99.55,58.2h6.94v1.91h-4.77v3.96h4.49v1.88h-4.49v6.23h-2.16v-13.99ZM114.3,70.02c0,.57.05,1.73.08,2.16h-1.95c-.05-.22-.1-.72-.1-1.06-.4.74-1.13,1.25-2.43,1.25-2.04,0-2.81-1.61-2.81-3.12,0-2.1,1.43-3.46,4.15-3.46.4,0,.69,0,.95.03v-1.24c0-.69-.11-1.52-1.29-1.52s-1.31.82-1.37,1.52h-2.04c.04-1.55.77-3.18,3.49-3.18,2.21,0,3.32,1.02,3.32,3.02v5.6ZM112.24,67.41c-.25-.04-.5-.05-.88-.05-1.56,0-2.16.73-2.16,1.71,0,.76.38,1.55,1.36,1.55,1.35,0,1.67-.99,1.67-2.79v-.42ZM123.69,72.19h-2.04c-.06-.32-.08-.78-.09-1.24-.44,1-1.24,1.43-2.42,1.43-1.42,0-2.65-.66-2.65-3.18v-7.62h2.15v7.13c0,1.15.27,1.82,1.27,1.82s1.62-.57,1.62-2.46v-6.49h2.15v7.57c0,1.47,0,2.51.02,3.05ZM127.21,61.57c.9,1.96,1.37,2.94,1.63,3.51h.02c.31-.72.91-1.92,1.65-3.51h2.27l-2.74,5.02,2.75,5.59h-2.38c-.87-1.98-1.37-3.08-1.63-3.68h-.02c-.25.56-.92,2.04-1.68,3.68h-2.28l2.71-5.3-2.65-5.32h2.35Z"/>
  </g>
</svg>