<?xml version="1.0" encoding="UTF-8"?>
<svg id="Calque_1" data-name="Calque 1" xmlns="http://www.w3.org/2000/svg" xmlns:xlink="http://www.w3.org/1999/xlink" viewBox="0 0 195.59 269.29">
  <defs>
    <style>
      .cls-1 {
        fill: #1d1d1b;
      }

      .cls-2 {
        fill: none;
      }

      .cls-3 {
        clip-path: url(#clippath-1);
      }

      .cls-4 {
        fill: #ffcd02;
      }

      .cls-5 {
        clip-path: url(#clippath);
      }
    </style>
    <clipPath id="clippath">
      <rect class="cls-2" width="195.59" height="269.29"/>
    </clipPath>
    <clipPath id="clippath-1">
      <rect class="cls-2" width="195.59" height="269.29"/>
    </clipPath>
  </defs>
  <g class="cls-5">
    <g class="cls-3">
      <path class="cls-1" d="M65.48,40.63c-3.89,0-4.29-3.65-4.29-7.27,0-4.37,1.24-7.16,4.44-7.16,3.59,0,3.85,3.17,3.9,4.2h-2.16c-.04-.47-.09-2.34-1.77-2.34-1.79,0-2.16,2.3-2.16,5.33,0,2.75.28,5.39,2.08,5.39,1.62,0,1.8-1.8,1.86-2.4h2.17c-.06.74-.36,4.23-4.07,4.23ZM73.42,25.72v5.18c.38-.74,1.1-1.31,2.44-1.31,1.69,0,2.65,1.09,2.65,3.29v7.52h-2.15v-7.08c0-1.13-.25-1.87-1.38-1.87-1.21,0-1.56.95-1.56,2.5v6.45h-2.15v-14.68h2.15ZM88.04,34.99c0,3.81-1.36,5.61-3.9,5.61s-3.85-1.72-3.85-5.56,1.53-5.43,3.96-5.43,3.79,1.83,3.79,5.38ZM84.19,38.8c1.19,0,1.68-1.28,1.68-3.75s-.48-3.62-1.69-3.62-1.72,1.13-1.72,3.61.49,3.76,1.74,3.76ZM91.96,29.79v10.61h-2.14v-10.61h2.14ZM91.98,25.72v2.34h-2.14v-2.34h2.14ZM95.63,29.79c.9,1.96,1.37,2.94,1.63,3.51h.02c.31-.72.91-1.92,1.65-3.51h2.27l-2.74,5.02,2.75,5.59h-2.38c-.87-1.98-1.37-3.08-1.63-3.68h-.02c-.25.56-.92,2.04-1.68,3.68h-2.28l2.71-5.3-2.65-5.32h2.35ZM106.04,32.97c0-2.03,0-2.71-.02-3.18h2.05c.04.24.07.78.07,1.17.46-.85,1.23-1.35,2.35-1.35s1.84.51,2.17,1.49c.42-.78,1.19-1.49,2.59-1.49s2.65.72,2.65,3.15v7.64h-2.11v-7.31c0-.92-.29-1.64-1.25-1.64-1.11,0-1.48.9-1.48,2.25v6.7h-2.13v-7.27c0-1.09-.37-1.67-1.24-1.67-1.08,0-1.52.84-1.52,2.33v6.61h-2.13v-7.43ZM127.35,40.4h-2.04c-.06-.32-.08-.78-.09-1.24-.44,1-1.24,1.43-2.42,1.43-1.42,0-2.65-.66-2.65-3.18v-7.62h2.15v7.13c0,1.15.27,1.82,1.27,1.82s1.62-.57,1.62-2.46v-6.49h2.15v7.57c0,1.47,0,2.51.02,3.05ZM129.59,40.4v-14.68h2.14v14.68h-2.14ZM133.03,29.79h1.43v-2.71h2.13v2.71h1.71v1.77h-1.71v6.2c0,.65.13,1.04.9,1.04.25,0,.45,0,.65-.05v1.59c-.42.18-1.04.2-1.41.2-1.55,0-2.28-.59-2.28-2.41v-6.57h-1.43v-1.77ZM141.82,29.79v10.61h-2.14v-10.61h2.14ZM141.84,25.72v2.34h-2.14v-2.34h2.14ZM148.34,40.6c-1.16,0-1.78-.5-2.08-1.11v4.76h-2.14v-11.39c0-1.44,0-2.41-.02-3.08h2.06c.04.22.07.81.07,1.25.35-.76,1.01-1.43,2.43-1.43,1.98,0,3.1,1.72,3.1,5.32,0,4.04-1.36,5.67-3.42,5.67h0ZM149.6,35.03c0-2.58-.56-3.58-1.71-3.58-1.37,0-1.69,1.3-1.69,3.52,0,2.46.16,3.79,1.65,3.79,1.18,0,1.76-1.31,1.76-3.74ZM153.55,40.4v-14.68h2.14v14.68h-2.14ZM159.63,35.61c0,1.59.23,3.2,1.7,3.2,1.37,0,1.55-1.22,1.59-1.57h2.06c-.04.31-.29,3.36-3.68,3.36s-3.8-2.88-3.8-5.55c0-3.36,1.23-5.44,3.86-5.44,2.98,0,3.7,2.3,3.7,5.03,0,.31-.01.76-.04.97h-5.4ZM162.94,34.03c0-1.3-.21-2.65-1.59-2.65-1.58,0-1.67,1.9-1.69,2.65h3.28ZM162.94,34.03h0Z"/>
      <path class="cls-4" d="M24.21,31.15c-.44-.79-.69-1.63-.78-2.46-.09-.83,0-1.65.25-2.4l1.2,1.74,1.2,1.74s.01.02.02.03c0,0,.01.02.02.03l-.96.66-.96.66Z"/>
      <path class="cls-4" d="M30.12,21.81c.05-.03.09-.09.1-.15l.24-1.33c.02-.13-.06-.26-.2-.28-.13-.02-.26.06-.28.19l-.24,1.33c-.02.13.06.26.19.28.07.01.13,0,.18-.04"/>
      <path class="cls-4" d="M21.8,27.55c.05-.03.09-.09.1-.15.02-.13-.06-.26-.19-.28l-1.33-.24c-.13-.02-.26.06-.28.2-.02.13.06.26.19.28l1.33.24c.07.01.13,0,.18-.04"/>
      <path class="cls-4" d="M34.72,24.78l1.11-.77c.11-.08.14-.23.06-.34s-.23-.14-.34-.06l-1.11.77c-.11.08-.14.23-.06.34.08.11.23.14.34.06"/>
      <path class="cls-4" d="M21.84,33.67l1.11-.77c.11-.08.14-.23.06-.34s-.23-.14-.34-.06l-1.11.77c-.11.08-.14.23-.06.34.08.11.23.14.34.06"/>
      <path class="cls-4" d="M24.81,22.93c.11-.08.14-.23.06-.34l-.77-1.11c-.08-.11-.23-.14-.34-.06-.11.08-.14.23-.06.34l.77,1.11c.08.11.23.14.34.06"/>
      <path class="cls-4" d="M27.33,21.85c.08-.05.12-.15.1-.25l-.15-.69c-.03-.13-.16-.21-.29-.19-.13.03-.21.16-.19.29l.15.69c.03.13.16.21.29.18.03,0,.06-.02.09-.04"/>
      <path class="cls-4" d="M32.72,22.83s.05-.04.07-.07l.38-.59c.07-.11.04-.26-.07-.33-.11-.07-.26-.04-.33.07l-.38.59c-.07.11-.04.26.07.33.08.05.19.05.27,0"/>
      <path class="cls-4" d="M21.84,30.34c.08-.05.12-.15.1-.25-.03-.13-.16-.21-.29-.18l-.69.15c-.13.03-.21.16-.19.29.03.13.16.21.29.19l.69-.15s.06-.02.09-.04"/>
      <path class="cls-4" d="M22.83,24.96s.05-.04.07-.07c.07-.11.04-.26-.07-.33l-.59-.38c-.11-.07-.26-.04-.33.07-.07.11-.04.26.07.33l.59.38c.09.05.19.05.27,0"/>
      <path class="cls-4" d="M29.59,29.53c-.16.02-.27.17-.25.33l.2,1.47c.02.16.17.27.33.25.16-.02.27-.17.25-.33l-.2-1.47c-.02-.16-.17-.27-.33-.25"/>
      <path class="cls-4" d="M30.71,28.76c-.16.02-.27.17-.25.33l.2,1.47c.02.16.17.27.33.25.16-.02.27-.17.25-.33l-.2-1.47c-.02-.16-.17-.27-.33-.25"/>
      <path class="cls-4" d="M28.47,30.3c-.16.02-.27.17-.25.33l.2,1.47c.02.16.17.27.33.25.16-.02.27-.17.25-.33l-.2-1.47c-.02-.16-.17-.27-.33-.25"/>
      <path class="cls-4" d="M43.16,50.93c-1.15.78-2.71.5-3.51-.64-.81-1.15-.51-2.76.65-3.55,1.15-.78,2.71-.5,3.51.64.81,1.15.51,2.76-.65,3.55M30.98,30.81c-.16.02-.31-.09-.33-.25l-.2-1.47c-.02-.16.09-.31.25-.33.16-.02.31.09.33.25l.2,1.47c.02.16-.09.3-.25.33M29.86,31.58c-.16.02-.31-.09-.33-.25l-.2-1.47c-.02-.16.09-.31.25-.33.16-.02.31.09.33.25l.2,1.47c.02.16-.09.31-.25.33M28.75,32.35c-.16.02-.31-.09-.33-.25l-.2-1.47c-.02-.16.09-.31.25-.33.16-.02.31.09.33.25l.2,1.47c.02.16-.09.31-.25.33M44.54,46.82l-8.68-10.08c-1.69-2.22-2.45-5-2.13-7.77.13-1.18-.14-2.42-.86-3.48-1.1-1.63-2.96-2.43-4.78-2.25l2.18,3.16c.33.48.21,1.15-.27,1.48l-5.44,3.76c.77.96,1.83,1.57,2.96,1.81.85.18,1.59.7,2.06,1.43l9.27,15.88c1.07,1.61,3.25,2.03,4.84.93,1.59-1.1,1.97-3.29.84-4.87"/>
      <path class="cls-4" d="M178.64,247.8c0,2.5-2.03,4.54-4.54,4.54H21.71c-2.5,0-4.54-2.03-4.54-4.54V21.71c0-2.5,2.03-4.54,4.54-4.54h152.39c2.5,0,4.54,2.03,4.54,4.54v226.09ZM.11,269.4h195.59V.11H.11v269.29Z"/>
    </g>
    <path class="cls-1" d="M27.35,178.95v3.13h-.74v-6.79h1.77c1.14,0,1.74.65,1.74,1.75,0,1.01-.5,1.45-.91,1.59.63.22.82.78.82,1.73v.27c0,.63.02,1.08.1,1.45h-.74c-.09-.31-.1-.91-.1-1.46v-.23c0-.97-.2-1.43-1.11-1.43h-.82ZM27.35,178.32h.87c.83,0,1.14-.47,1.14-1.26,0-.68-.32-1.14-1.07-1.14h-.94v2.4ZM31.7,179.68c0,.99.17,1.86.97,1.86s.9-.75.92-.91h.72c-.01.13-.16,1.54-1.65,1.54s-1.7-1.37-1.7-2.63c0-1.6.55-2.62,1.74-2.62,1.33,0,1.65,1.1,1.65,2.36,0,.1,0,.27-.01.39h-2.64ZM33.63,179.11c0-.87-.18-1.55-.92-1.55-.93,0-.97,1.21-.99,1.55h1.91ZM34.1,174.85l-1.25,1.39h-.68l1.07-1.39h.87ZM33.63,179.11h0ZM36.02,181.56v2.38h-.73v-5.45c0-.69,0-1.16,0-1.48h.71c.01.09.03.43.03.68.18-.44.53-.77,1.21-.77.96,0,1.48.85,1.48,2.55,0,1.82-.63,2.7-1.63,2.7-.61,0-.91-.29-1.05-.61ZM37.95,179.51c0-1.27-.3-1.93-.96-1.93-.79,0-1,.75-1,1.94s.11,2.01.96,2.01c.66,0,1-.77,1-2.02ZM42.92,179.49c0,1.78-.6,2.69-1.74,2.69s-1.74-.87-1.74-2.67.69-2.58,1.77-2.58,1.71.86,1.71,2.56ZM40.18,179.51c0,1.38.34,2.03,1,2.03s.99-.66.99-2.04c0-1.3-.32-1.93-.99-1.93s-1,.57-1,1.94ZM43.86,177.01h.71c.01.12.03.32.03.66.17-.4.52-.75,1.2-.75.73,0,1.3.42,1.3,1.54v3.61h-.74v-3.47c0-.62-.2-1.04-.78-1.04-.68,0-.97.45-.97,1.49v3.02h-.74v-3.5c0-1.04,0-1.33,0-1.57ZM49.55,181.57c.55,0,.82-.33.82-.8,0-.52-.27-.76-.93-1.02-1.05-.4-1.35-.78-1.35-1.48s.42-1.34,1.45-1.34c1.13,0,1.46.77,1.46,1.44h-.72c-.01-.24-.07-.84-.77-.84-.48,0-.7.3-.7.7s.18.6.88.88c.98.38,1.41.74,1.41,1.6,0,.92-.58,1.47-1.59,1.47s-1.56-.63-1.59-1.55h.73c.03.54.32.95.9.95ZM52.5,179.68c0,.99.17,1.86.97,1.86s.9-.75.92-.91h.72c-.01.13-.16,1.54-1.65,1.54s-1.7-1.37-1.7-2.63c0-1.6.55-2.62,1.74-2.62,1.33,0,1.65,1.1,1.65,2.36,0,.1,0,.27-.01.39h-2.64ZM54.42,179.11c0-.87-.18-1.55-.92-1.55-.93,0-.97,1.21-.99,1.55h1.91ZM54.42,179.11h0ZM58.05,178.53v-1.37h.71v1.37h-.71ZM58.05,180.71h.71v1.38h-.71v-1.38ZM65.08,174.96v5.81c0,.49,0,1,0,1.3h-.71c-.01-.13-.03-.46-.03-.68-.16.44-.48.77-1.19.77-1.05,0-1.5-.9-1.5-2.68,0-1.62.6-2.56,1.66-2.56.66,0,.91.28,1.03.53v-2.49h.73ZM62.41,179.5c0,1.46.33,2.02.95,2.02.79,0,1-.67,1-2.05,0-1.48-.21-1.9-.94-1.9-.6,0-1.01.53-1.01,1.92ZM66.05,180.71h.74v1.38h-.74v-1.38Z"/>
    <path class="cls-1" d="M26.61,187.29h.92c1.88,4.7,2.14,5.34,2.23,5.63h0c-.05-.91-.06-1.93-.06-3.04v-2.6h.7v6.79h-.88c-1.95-4.94-2.19-5.56-2.27-5.83h0c.05.85.06,1.96.06,3.18v2.65h-.7v-6.79ZM34.92,191.49c0,1.78-.6,2.69-1.74,2.69s-1.74-.87-1.74-2.67.69-2.58,1.77-2.58,1.71.86,1.71,2.56ZM32.18,191.51c0,1.38.34,2.03,1,2.03s.99-.66.99-2.04c0-1.3-.32-1.93-.99-1.93s-1,.57-1,1.94ZM39.06,192.69c0,.64,0,1.14,0,1.39h-.7c-.02-.15-.03-.35-.04-.68-.18.5-.61.77-1.2.77s-1.27-.24-1.27-1.51v-3.64h.74v3.47c0,.65.18,1.04.76,1.04s.96-.34.96-1.44v-3.08h.74v3.68ZM41.5,193.57c.55,0,.82-.33.82-.8,0-.52-.27-.76-.93-1.02-1.05-.4-1.35-.78-1.35-1.48s.42-1.34,1.45-1.34c1.13,0,1.46.77,1.46,1.44h-.72c-.01-.24-.07-.84-.77-.84-.48,0-.7.3-.7.7s.18.6.88.88c.98.38,1.41.74,1.41,1.6,0,.92-.58,1.47-1.59,1.47s-1.56-.63-1.59-1.55h.73c.03.54.32.95.9.95ZM46.14,189.01c.42,1.64.92,3.62,1.02,4.25h0c.07-.56.83-3.21,1.07-4.25h.74l-1.45,5.07h-.79l-1.38-5.07h.78ZM52.88,191.49c0,1.78-.6,2.69-1.74,2.69s-1.74-.87-1.74-2.67.69-2.58,1.77-2.58,1.71.86,1.71,2.56ZM50.14,191.51c0,1.38.34,2.03,1,2.03s.99-.66.99-2.04c0-1.3-.32-1.93-.99-1.93s-1,.57-1,1.94ZM57.02,192.69c0,.64,0,1.14,0,1.39h-.7c-.02-.15-.03-.35-.04-.68-.18.5-.61.77-1.2.77s-1.27-.24-1.27-1.51v-3.64h.74v3.47c0,.65.18,1.04.76,1.04s.96-.34.96-1.44v-3.08h.74v3.68ZM59.46,193.57c.55,0,.82-.33.82-.8,0-.52-.27-.76-.93-1.02-1.05-.4-1.35-.78-1.35-1.48s.42-1.34,1.45-1.34c1.13,0,1.46.77,1.46,1.44h-.72c-.01-.24-.07-.84-.77-.84-.48,0-.7.3-.7.7s.18.6.88.88c.98.38,1.41.74,1.41,1.6,0,.92-.58,1.47-1.59,1.47s-1.56-.63-1.59-1.55h.73c.03.54.32.95.9.95ZM66.87,192.53c-.02.27-.13,1.64-1.61,1.64-1.33,0-1.68-1.17-1.68-2.64s.46-2.6,1.75-2.6c1.47,0,1.54,1.36,1.54,1.6h-.75c0-.21-.08-.97-.8-.97s-1,.8-1,1.97c0,1.26.28,2.01.96,2.01.73,0,.82-.74.86-1.01h.73ZM71.04,191.49c0,1.78-.6,2.69-1.74,2.69s-1.74-.87-1.74-2.67.69-2.58,1.77-2.58,1.71.86,1.71,2.56ZM68.3,191.51c0,1.38.34,2.03,1,2.03s.99-.66.99-2.04c0-1.3-.32-1.93-.99-1.93s-1,.57-1,1.94ZM71.98,189.01h.71c.01.12.03.32.03.66.17-.4.52-.75,1.2-.75.73,0,1.3.42,1.3,1.54v3.61h-.74v-3.47c0-.62-.2-1.04-.78-1.04-.68,0-.97.45-.97,1.49v3.02h-.74v-3.5c0-1.04,0-1.33,0-1.57ZM77.67,193.57c.55,0,.82-.33.82-.8,0-.52-.27-.76-.93-1.02-1.05-.4-1.35-.78-1.35-1.48s.42-1.34,1.45-1.34c1.13,0,1.46.77,1.46,1.44h-.72c-.01-.24-.07-.84-.77-.84-.48,0-.7.3-.7.7s.18.6.88.88c.98.38,1.41.74,1.41,1.6,0,.92-.58,1.47-1.59,1.47s-1.56-.63-1.59-1.55h.73c.03.54.32.95.9.95ZM80.62,191.68c0,.99.17,1.86.97,1.86s.9-.75.92-.91h.72c-.01.13-.16,1.54-1.65,1.54s-1.7-1.37-1.7-2.63c0-1.6.55-2.62,1.74-2.62,1.33,0,1.65,1.1,1.65,2.36,0,.1,0,.27-.01.39h-2.64ZM82.55,191.11c0-.87-.18-1.55-.92-1.55-.93,0-.97,1.21-.99,1.55h1.91ZM82.55,191.11h0ZM84.21,189.01h.73v5.07h-.73v-5.07ZM84.21,186.96h.73v1.05h-.73v-1.05ZM86.17,194.08v-7.12h.73v7.12h-.73ZM88.13,194.08v-7.12h.73v7.12h-.73ZM93.31,191.49c0,1.78-.6,2.69-1.74,2.69s-1.74-.87-1.74-2.67.69-2.58,1.77-2.58,1.71.86,1.71,2.56ZM90.57,191.51c0,1.38.34,2.03,1,2.03s.99-.66.99-2.04c0-1.3-.32-1.93-.99-1.93s-1,.57-1,1.94ZM94.25,189.01h.71c.01.12.03.32.03.66.17-.4.52-.75,1.2-.75.73,0,1.3.42,1.3,1.54v3.61h-.74v-3.47c0-.62-.2-1.04-.78-1.04-.68,0-.97.45-.97,1.49v3.02h-.74v-3.5c0-1.04,0-1.33,0-1.57ZM99.94,193.57c.55,0,.82-.33.82-.8,0-.52-.27-.76-.93-1.02-1.05-.4-1.35-.78-1.35-1.48s.42-1.34,1.45-1.34c1.13,0,1.46.77,1.46,1.44h-.72c-.01-.24-.07-.84-.77-.84-.48,0-.7.3-.7.7s.18.6.88.88c.98.38,1.41.74,1.41,1.6,0,.92-.58,1.47-1.59,1.47s-1.56-.63-1.59-1.55h.73c.03.54.32.95.9.95ZM107.47,186.96v5.81c0,.49,0,1,0,1.3h-.71c-.01-.13-.03-.46-.03-.68-.16.44-.48.77-1.19.77-1.05,0-1.5-.9-1.5-2.68,0-1.62.6-2.56,1.66-2.56.66,0,.91.28,1.03.53v-2.49h.73ZM104.81,191.5c0,1.46.33,2.02.95,2.02.79,0,1-.67,1-2.05,0-1.48-.21-1.9-.94-1.9-.6,0-1.01.53-1.01,1.92ZM109.15,191.68c0,.99.17,1.86.97,1.86s.9-.75.92-.91h.72c-.01.13-.16,1.54-1.65,1.54s-1.7-1.37-1.7-2.63c0-1.6.55-2.62,1.74-2.62,1.33,0,1.65,1.1,1.65,2.36,0,.1,0,.27-.01.39h-2.64ZM111.08,191.11c0-.87-.18-1.55-.92-1.55-.93,0-.97,1.21-.99,1.55h1.91ZM111.08,191.11h0ZM117.69,192.53c-.02.27-.13,1.64-1.61,1.64-1.33,0-1.68-1.17-1.68-2.64s.46-2.6,1.75-2.6c1.47,0,1.54,1.36,1.54,1.6h-.75c0-.21-.08-.97-.8-.97s-1,.8-1,1.97c0,1.26.28,2.01.96,2.01.73,0,.82-.74.86-1.01h.73ZM121.86,191.49c0,1.78-.6,2.69-1.74,2.69s-1.74-.87-1.74-2.67.69-2.58,1.77-2.58,1.71.86,1.71,2.56ZM119.12,191.51c0,1.38.34,2.03,1,2.03s.99-.66.99-2.04c0-1.3-.32-1.93-.99-1.93s-1,.57-1,1.94ZM122.8,189.01h.71c.01.12.03.32.03.66.17-.4.52-.75,1.2-.75.73,0,1.3.42,1.3,1.54v3.61h-.74v-3.47c0-.62-.2-1.04-.78-1.04-.68,0-.97.45-.97,1.49v3.02h-.74v-3.5c0-1.04,0-1.33,0-1.57ZM128.49,193.57c.55,0,.82-.33.82-.8,0-.52-.27-.76-.93-1.02-1.05-.4-1.35-.78-1.35-1.48s.42-1.34,1.45-1.34c1.13,0,1.46.77,1.46,1.44h-.72c-.01-.24-.07-.84-.77-.84-.48,0-.7.3-.7.7s.18.6.88.88c.98.38,1.41.74,1.41,1.6,0,.92-.58,1.47-1.59,1.47s-1.56-.63-1.59-1.55h.73c.03.54.32.95.9.95ZM134.08,192.69c0,.64,0,1.14,0,1.39h-.7c-.02-.15-.03-.35-.04-.68-.18.5-.61.77-1.2.77s-1.27-.24-1.27-1.51v-3.64h.74v3.47c0,.65.18,1.04.76,1.04s.96-.34.96-1.44v-3.08h.74v3.68ZM135.27,194.08v-7.12h.73v7.12h-.73ZM136.68,189.01h.71v-1.35h.72v1.35h.88v.63h-.88v3.33c0,.35.08.57.46.57.12,0,.26,0,.36-.03v.56c-.17.07-.43.08-.6.08-.6,0-.94-.24-.94-1.04v-3.47h-.71v-.63ZM140.13,191.68c0,.99.17,1.86.97,1.86s.9-.75.92-.91h.72c-.01.13-.16,1.54-1.65,1.54s-1.7-1.37-1.7-2.63c0-1.6.55-2.62,1.74-2.62,1.33,0,1.65,1.1,1.65,2.36,0,.1,0,.27-.01.39h-2.64ZM142.06,191.11c0-.87-.18-1.55-.92-1.55-.93,0-.97,1.21-.99,1.55h1.91ZM142.06,191.11h0ZM143.71,189.01h.7c0,.13.02.37.02.9.22-.61.7-.97,1.34-.98v.81c-.87.03-1.33.58-1.33,1.51v2.83h-.73v-3.34c0-.81,0-1.36,0-1.73ZM148.39,194.08v-7.12h.73v7.12h-.73ZM150.81,191.68c0,.99.17,1.86.97,1.86s.9-.75.92-.91h.72c-.01.13-.16,1.54-1.65,1.54s-1.7-1.37-1.7-2.63c0-1.6.55-2.62,1.74-2.62,1.33,0,1.65,1.1,1.65,2.36,0,.1,0,.27-.01.39h-2.64ZM152.74,191.11c0-.87-.18-1.55-.92-1.55-.93,0-.97,1.21-.99,1.55h1.91ZM152.74,191.11h0ZM155.71,193.57c.55,0,.82-.33.82-.8,0-.52-.27-.76-.93-1.02-1.05-.4-1.35-.78-1.35-1.48s.42-1.34,1.45-1.34c1.13,0,1.46.77,1.46,1.44h-.72c-.01-.24-.07-.84-.77-.84-.48,0-.7.3-.7.7s.18.6.88.88c.98.38,1.41.74,1.41,1.6,0,.92-.58,1.47-1.59,1.47s-1.56-.63-1.59-1.55h.73c.03.54.32.95.9.95Z"/>
    <path class="cls-1" d="M27.79,205.57c.55,0,.82-.33.82-.8,0-.52-.27-.76-.93-1.02-1.05-.4-1.35-.78-1.35-1.48s.42-1.34,1.45-1.34c1.13,0,1.46.77,1.46,1.44h-.72c-.01-.24-.07-.84-.77-.84-.48,0-.7.3-.7.7s.18.6.88.88c.98.38,1.41.74,1.41,1.6,0,.92-.58,1.47-1.59,1.47s-1.56-.63-1.59-1.55h.73c.03.54.32.95.9.95ZM30.23,201.01h.73v5.07h-.73v-5.07ZM30.23,198.96h.73v1.05h-.73v-1.05ZM31.64,201.01h.71v-1.35h.72v1.35h.88v.63h-.88v3.33c0,.35.08.57.46.57.12,0,.26,0,.36-.03v.56c-.17.07-.43.08-.6.08-.6,0-.94-.24-.94-1.04v-3.47h-.71v-.63ZM35.09,203.68c0,.99.17,1.86.97,1.86s.9-.75.92-.91h.72c-.01.13-.16,1.54-1.65,1.54s-1.7-1.37-1.7-2.63c0-1.6.55-2.62,1.74-2.62,1.33,0,1.65,1.1,1.65,2.36,0,.1,0,.27-.01.39h-2.64ZM37.02,203.11c0-.87-.18-1.55-.92-1.55-.93,0-.97,1.21-.99,1.55h1.91ZM37.02,203.11h0ZM39.99,205.57c.55,0,.82-.33.82-.8,0-.52-.27-.76-.93-1.02-1.05-.4-1.35-.78-1.35-1.48s.42-1.34,1.45-1.34c1.13,0,1.46.77,1.46,1.44h-.72c-.01-.24-.07-.84-.77-.84-.48,0-.7.3-.7.7s.18.6.88.88c.98.38,1.41.74,1.41,1.6,0,.92-.58,1.47-1.59,1.47s-1.56-.63-1.59-1.55h.73c.03.54.32.95.9.95ZM44.69,201.01c.49,2.4.73,3.56.82,4.25h.01c.1-.66.31-1.45.94-4.25h.7c.6,2.66.82,3.68.89,4.23h0c.08-.55.27-1.46.85-4.23h.75l-1.24,5.07h-.78c-.36-1.66-.74-3.3-.86-4.09h0c-.1.76-.47,2.24-.9,4.09h-.8l-1.16-5.07h.78ZM50.84,203.68c0,.99.17,1.86.97,1.86s.9-.75.92-.91h.72c-.01.13-.16,1.54-1.65,1.54s-1.7-1.37-1.7-2.63c0-1.6.55-2.62,1.74-2.62,1.33,0,1.65,1.1,1.65,2.36,0,.1,0,.27-.01.39h-2.64ZM52.77,203.11c0-.87-.18-1.55-.92-1.55-.93,0-.97,1.21-.99,1.55h1.91ZM52.77,203.11h0ZM54.43,198.96h.73v2.72c.16-.39.51-.76,1.21-.76.97,0,1.48.81,1.48,2.49,0,1.57-.42,2.74-1.62,2.74-.65,0-.94-.32-1.09-.68,0,.17-.01.4-.03.6h-.69c0-.27,0-.77,0-1.39v-5.72ZM57.11,203.43c0-1.27-.3-1.86-.93-1.86-.78,0-1.04.7-1.04,1.98,0,1.22.2,1.96.97,1.96.68,0,1-.66,1-2.09ZM63.93,203.49c0,1.78-.6,2.69-1.74,2.69s-1.74-.87-1.74-2.67.69-2.58,1.77-2.58,1.71.86,1.71,2.56ZM61.19,203.51c0,1.38.34,2.03,1,2.03s.99-.66.99-2.04c0-1.3-.32-1.93-.99-1.93s-1,.57-1,1.94ZM65.73,201.64v4.44h-.73v-4.44h-.66v-.63h.66v-.7c0-.74.23-1.4,1.16-1.4.14,0,.32.02.41.05l-.03.64c-.09-.02-.18-.03-.29-.03-.42,0-.51.28-.51.76v.69h1.34v-.67c0-.74.23-1.44,1.17-1.44.14,0,.31.02.41.06l-.03.63c-.09-.02-.2-.03-.29-.03-.41,0-.52.3-.52.8v.66h.8v.63h-.8v4.44h-.73v-4.44h-1.34ZM69.24,201.01h.73v5.07h-.73v-5.07ZM69.24,198.96h.73v1.05h-.73v-1.05ZM74.22,204.53c-.02.27-.13,1.64-1.61,1.64-1.33,0-1.68-1.17-1.68-2.64s.46-2.6,1.75-2.6c1.47,0,1.54,1.36,1.54,1.6h-.75c0-.21-.08-.97-.8-.97s-1,.8-1,1.97c0,1.26.28,2.01.96,2.01.73,0,.82-.74.86-1.01h.73ZM75.1,201.01h.73v5.07h-.73v-5.07ZM75.1,198.96h.73v1.05h-.73v-1.05ZM77.52,203.68c0,.99.17,1.86.97,1.86s.9-.75.92-.91h.72c-.01.13-.16,1.54-1.65,1.54s-1.7-1.37-1.7-2.63c0-1.6.55-2.62,1.74-2.62,1.33,0,1.65,1.1,1.65,2.36,0,.1,0,.27-.01.39h-2.64ZM79.44,203.11c0-.87-.18-1.55-.92-1.55-.93,0-.97,1.21-.99,1.55h1.91ZM79.44,203.11h0ZM81.11,206.08v-7.12h.73v7.12h-.73ZM84.29,205.57c.55,0,.82-.33.82-.8,0-.52-.27-.76-.93-1.02-1.05-.4-1.35-.78-1.35-1.48s.42-1.34,1.45-1.34c1.13,0,1.46.77,1.46,1.44h-.72c-.01-.24-.07-.84-.77-.84-.48,0-.7.3-.7.7s.18.6.88.88c.98.38,1.41.74,1.41,1.6,0,.92-.58,1.47-1.59,1.47s-1.56-.63-1.59-1.55h.73c.03.54.32.95.9.95ZM90.51,198.93c-.68,1.01-1.27,2.31-1.27,4.2,0,1.73.47,3.08,1.27,4.32h-.7c-.62-.89-1.26-2.35-1.26-4.33s.68-3.34,1.26-4.19h.7ZM95.1,202.62c0,2.31-.55,3.55-2.02,3.55s-1.98-1.2-1.98-3.54.68-3.44,2.01-3.44c1.41,0,1.99,1.13,1.99,3.43ZM93.1,205.53c.87,0,1.23-.95,1.23-2.9s-.39-2.79-1.24-2.79-1.23.93-1.23,2.78.39,2.91,1.23,2.91ZM97.09,201.64v4.44h-.73v-4.44h-.66v-.63h.66v-.7c0-.74.23-1.4,1.16-1.4.14,0,.32.02.41.05l-.03.64c-.09-.02-.18-.03-.29-.03-.42,0-.51.28-.51.76v.69h1.34v-.67c0-.74.23-1.44,1.17-1.44.14,0,.31.02.41.06l-.03.63c-.09-.02-.2-.03-.29-.03-.41,0-.52.3-.52.8v.66h.8v.63h-.8v4.44h-.73v-4.44h-1.34ZM100.6,201.01h.73v5.07h-.73v-5.07ZM100.6,198.96h.73v1.05h-.73v-1.05ZM105.58,204.53c-.02.27-.13,1.64-1.61,1.64-1.33,0-1.68-1.17-1.68-2.64s.46-2.6,1.75-2.6c1.47,0,1.54,1.36,1.54,1.6h-.75c0-.21-.08-.97-.8-.97s-1,.8-1,1.97c0,1.26.28,2.01.96,2.01.73,0,.82-.74.86-1.01h.73ZM106.99,203.68c0,.99.17,1.86.97,1.86s.9-.75.92-.91h.72c-.01.13-.16,1.54-1.65,1.54s-1.7-1.37-1.7-2.63c0-1.6.55-2.62,1.74-2.62,1.33,0,1.65,1.1,1.65,2.36,0,.1,0,.27-.01.39h-2.64ZM108.91,203.11c0-.87-.18-1.55-.92-1.55-.93,0-.97,1.21-.99,1.55h1.91ZM108.91,203.11h0ZM112.57,206.08v-4.44h-.66v-.63h.66v-.7c0-.75.27-1.41,1.19-1.41.14,0,.32.02.41.05v.65c-.09-.02-.21-.04-.33-.04-.4,0-.54.25-.54.76v.68h.8v.63h-.8v4.44h-.73ZM115.13,203.68c0,.99.17,1.86.97,1.86s.9-.75.92-.91h.72c-.01.13-.16,1.54-1.65,1.54s-1.7-1.37-1.7-2.63c0-1.6.55-2.62,1.74-2.62,1.33,0,1.65,1.1,1.65,2.36,0,.1,0,.27-.01.39h-2.64ZM117.05,203.11c0-.87-.18-1.55-.92-1.55-.93,0-.97,1.21-.99,1.55h1.91ZM117.53,198.85l-1.25,1.39h-.68l1.07-1.39h.87ZM117.05,203.11h0ZM121.96,198.96v5.81c0,.49,0,1,0,1.3h-.71c-.01-.13-.03-.46-.03-.68-.16.44-.48.77-1.19.77-1.05,0-1.5-.9-1.5-2.68,0-1.62.6-2.56,1.66-2.56.66,0,.91.28,1.03.53v-2.49h.73ZM119.29,203.5c0,1.46.33,2.02.95,2.02.79,0,1-.67,1-2.05,0-1.48-.21-1.9-.94-1.9-.6,0-1.01.53-1.01,1.92ZM123.64,203.68c0,.99.17,1.86.97,1.86s.9-.75.92-.91h.72c-.01.13-.16,1.54-1.65,1.54s-1.7-1.37-1.7-2.63c0-1.6.55-2.62,1.74-2.62,1.33,0,1.65,1.1,1.65,2.36,0,.1,0,.27-.01.39h-2.64ZM125.56,203.11c0-.87-.18-1.55-.92-1.55-.93,0-.97,1.21-.99,1.55h1.91ZM126.04,198.85l-1.25,1.39h-.68l1.07-1.39h.87ZM125.56,203.11h0ZM127.21,201.01h.7c0,.13.02.37.02.9.22-.61.7-.97,1.34-.98v.81c-.87.03-1.33.58-1.33,1.51v2.83h-.73v-3.34c0-.81,0-1.36,0-1.73ZM132.8,205.18c0,.32.03.74.04.9h-.67c-.03-.11-.05-.38-.05-.58-.19.41-.57.67-1.2.67-.97,0-1.32-.76-1.32-1.47,0-.93.63-1.62,1.96-1.62.24,0,.38,0,.53.02v-.68c0-.4-.08-.9-.76-.9-.74,0-.79.53-.82.87h-.71c.02-.72.37-1.47,1.55-1.47.98,0,1.46.48,1.46,1.41v2.84ZM132.1,203.68c-.13-.02-.27-.03-.5-.03-.9,0-1.27.43-1.27,1,0,.47.25.9.79.9.74,0,.98-.52.98-1.59v-.28ZM134.01,206.08v-7.12h.73v7.12h-.73ZM141.03,198.96v5.81c0,.49,0,1,0,1.3h-.71c-.01-.13-.03-.46-.03-.68-.16.44-.48.77-1.19.77-1.05,0-1.5-.9-1.5-2.68,0-1.62.6-2.56,1.66-2.56.66,0,.91.28,1.03.53v-2.49h.73ZM138.36,203.5c0,1.46.33,2.02.95,2.02.79,0,1-.67,1-2.05,0-1.48-.21-1.9-.94-1.9-.6,0-1.01.53-1.01,1.92ZM142.71,203.68c0,.99.17,1.86.97,1.86s.9-.75.92-.91h.72c-.01.13-.16,1.54-1.65,1.54s-1.7-1.37-1.7-2.63c0-1.6.55-2.62,1.74-2.62,1.33,0,1.65,1.1,1.65,2.36,0,.1,0,.27-.01.39h-2.64ZM144.63,203.11c0-.87-.18-1.55-.92-1.55-.93,0-.97,1.21-.99,1.55h1.91ZM144.63,203.11h0ZM148.2,206.08v-7.12h.73v7.12h-.73ZM153.04,205.18c0,.32.03.74.04.9h-.67c-.03-.11-.05-.38-.05-.58-.19.41-.57.67-1.2.67-.97,0-1.32-.76-1.32-1.47,0-.93.63-1.62,1.96-1.62.24,0,.38,0,.53.02v-.68c0-.4-.08-.9-.76-.9-.74,0-.79.53-.82.87h-.71c.02-.72.37-1.47,1.55-1.47.98,0,1.46.48,1.46,1.41v2.84ZM152.34,203.68c-.13-.02-.27-.03-.5-.03-.9,0-1.27.43-1.27,1,0,.47.25.9.79.9.74,0,.98-.52.98-1.59v-.28Z"/>
    <path class="cls-1" d="M27.79,217.57c.55,0,.82-.33.82-.8,0-.52-.27-.76-.93-1.02-1.05-.4-1.35-.78-1.35-1.48s.42-1.34,1.45-1.34c1.13,0,1.46.77,1.46,1.44h-.72c-.01-.24-.07-.84-.77-.84-.48,0-.7.3-.7.7s.18.6.88.88c.98.38,1.41.74,1.41,1.6,0,.92-.58,1.47-1.59,1.47s-1.56-.63-1.59-1.55h.73c.03.54.32.95.9.95ZM29.7,213.01h.71v-1.35h.72v1.35h.88v.63h-.88v3.33c0,.35.08.57.46.57.12,0,.26,0,.36-.03v.56c-.17.07-.43.08-.6.08-.6,0-.94-.24-.94-1.04v-3.47h-.71v-.63ZM35.68,217.18c0,.32.03.74.04.9h-.67c-.03-.11-.05-.38-.05-.58-.19.41-.57.67-1.2.67-.97,0-1.32-.76-1.32-1.47,0-.93.63-1.62,1.96-1.62.24,0,.38,0,.53.02v-.68c0-.4-.08-.9-.76-.9-.74,0-.79.53-.82.87h-.71c.02-.72.37-1.47,1.55-1.47.98,0,1.46.48,1.46,1.41v2.84ZM34.98,215.68c-.13-.02-.27-.03-.5-.03-.9,0-1.27.43-1.27,1,0,.47.25.9.79.9.74,0,.98-.52.98-1.59v-.28ZM36.27,213.01h.71v-1.35h.72v1.35h.88v.63h-.88v3.33c0,.35.08.57.46.57.12,0,.26,0,.36-.03v.56c-.17.07-.43.08-.6.08-.6,0-.94-.24-.94-1.04v-3.47h-.71v-.63ZM39.32,213.01h.73v5.07h-.73v-5.07ZM39.32,210.96h.73v1.05h-.73v-1.05ZM42.5,217.57c.55,0,.82-.33.82-.8,0-.52-.27-.76-.93-1.02-1.05-.4-1.35-.78-1.35-1.48s.42-1.34,1.45-1.34c1.13,0,1.46.77,1.46,1.44h-.72c-.01-.24-.07-.84-.77-.84-.48,0-.7.3-.7.7s.18.6.88.88c.98.38,1.41.74,1.41,1.6,0,.92-.58,1.47-1.59,1.47s-1.56-.63-1.59-1.55h.73c.03.54.32.95.9.95ZM44.41,213.01h.71v-1.35h.72v1.35h.88v.63h-.88v3.33c0,.35.08.57.46.57.12,0,.26,0,.36-.03v.56c-.17.07-.43.08-.6.08-.6,0-.94-.24-.94-1.04v-3.47h-.71v-.63ZM47.46,213.01h.73v5.07h-.73v-5.07ZM47.46,210.96h.73v1.05h-.73v-1.05ZM51.85,217.44c-.19.44-.54.73-1.19.73-.95,0-1.51-.78-1.51-2.63,0-1.68.64-2.62,1.63-2.62.67,0,.95.32,1.06.64,0-.28.02-.46.03-.55h.71c0,.36,0,.78,0,1.5v5.43h-.72v-2.5ZM49.9,215.55c0,1.21.28,1.98.96,1.98.82,0,.99-.71.99-2.01s-.11-1.95-.94-1.95c-.64,0-1.01.69-1.01,1.98ZM56.96,216.69c0,.64,0,1.14,0,1.39h-.7c-.02-.15-.03-.35-.04-.68-.18.5-.61.77-1.2.77s-1.27-.24-1.27-1.51v-3.64h.74v3.47c0,.65.18,1.04.76,1.04s.96-.34.96-1.44v-3.08h.74v3.68ZM58.64,215.68c0,.99.17,1.86.97,1.86s.9-.75.92-.91h.72c-.01.13-.16,1.54-1.65,1.54s-1.7-1.37-1.7-2.63c0-1.6.55-2.62,1.74-2.62,1.33,0,1.65,1.1,1.65,2.36,0,.1,0,.27-.01.39h-2.64ZM60.56,215.11c0-.87-.18-1.55-.92-1.55-.93,0-.97,1.21-.99,1.55h1.91ZM60.56,215.11h0ZM61.65,219.21c.31-.79.51-1.69.55-2.41h.71c-.07.93-.35,1.88-.65,2.41h-.6ZM69.44,214.62c0,2.31-.55,3.55-2.02,3.55s-1.98-1.2-1.98-3.54.68-3.44,2.01-3.44c1.41,0,1.99,1.13,1.99,3.43ZM67.44,217.53c.87,0,1.23-.95,1.23-2.9s-.39-2.79-1.24-2.79-1.23.93-1.23,2.78.39,2.91,1.23,2.91ZM70.38,213.01h.7c0,.13.02.37.02.9.22-.61.7-.97,1.34-.98v.81c-.87.03-1.33.58-1.33,1.51v2.83h-.73v-3.34c0-.81,0-1.36,0-1.73ZM76.22,217.75c0,1.33-.32,2.27-1.77,2.27-1.31,0-1.59-.85-1.62-1.4h.74c.02.28.19.77.9.77.85,0,1.03-.62,1.03-1.64v-.46c-.18.52-.61.77-1.18.77-1.02,0-1.53-.87-1.53-2.46,0-1.82.67-2.68,1.64-2.68.69,0,.98.33,1.07.66,0-.22.02-.47.04-.58h.7c0,.27-.01.78-.01,1.46v3.28ZM73.55,215.59c0,1.23.34,1.83.97,1.83.79,0,1-.77,1-1.95s-.16-1.89-.94-1.89c-.67,0-1.03.7-1.03,2.02ZM80.31,217.18c0,.32.03.74.04.9h-.67c-.03-.11-.05-.38-.05-.58-.19.41-.57.67-1.2.67-.97,0-1.32-.76-1.32-1.47,0-.93.63-1.62,1.96-1.62.24,0,.38,0,.53.02v-.68c0-.4-.08-.9-.76-.9-.74,0-.79.53-.82.87h-.71c.02-.72.37-1.47,1.55-1.47.98,0,1.46.48,1.46,1.41v2.84ZM79.61,215.68c-.13-.02-.27-.03-.5-.03-.9,0-1.27.43-1.27,1,0,.47.25.9.79.9.74,0,.98-.52.98-1.59v-.28ZM81.52,213.01h.71c.01.12.03.32.03.66.17-.4.52-.75,1.2-.75.73,0,1.3.42,1.3,1.54v3.61h-.74v-3.47c0-.62-.2-1.04-.78-1.04-.68,0-.97.45-.97,1.49v3.02h-.74v-3.5c0-1.04,0-1.33,0-1.57ZM85.96,213.01h.73v5.07h-.73v-5.07ZM85.96,210.96h.73v1.05h-.73v-1.05ZM89.14,217.57c.55,0,.82-.33.82-.8,0-.52-.27-.76-.93-1.02-1.05-.4-1.35-.78-1.35-1.48s.42-1.34,1.45-1.34c1.13,0,1.46.77,1.46,1.44h-.72c-.01-.24-.07-.84-.77-.84-.48,0-.7.3-.7.7s.18.6.88.88c.98.38,1.41.74,1.41,1.6,0,.92-.58,1.47-1.59,1.47s-1.56-.63-1.59-1.55h.73c.03.54.32.95.9.95ZM94.52,217.18c0,.32.03.74.04.9h-.67c-.03-.11-.05-.38-.05-.58-.19.41-.57.67-1.2.67-.97,0-1.32-.76-1.32-1.47,0-.93.63-1.62,1.96-1.62.24,0,.38,0,.53.02v-.68c0-.4-.08-.9-.76-.9-.74,0-.79.53-.82.87h-.71c.02-.72.37-1.47,1.55-1.47.98,0,1.46.48,1.46,1.41v2.84ZM93.82,215.68c-.13-.02-.27-.03-.5-.03-.9,0-1.27.43-1.27,1,0,.47.25.9.79.9.74,0,.98-.52.98-1.59v-.28ZM95.11,213.01h.71v-1.35h.72v1.35h.88v.63h-.88v3.33c0,.35.08.57.46.57.12,0,.26,0,.36-.03v.56c-.17.07-.43.08-.6.08-.6,0-.94-.24-.94-1.04v-3.47h-.71v-.63ZM98.16,213.01h.73v5.07h-.73v-5.07ZM98.16,210.96h.73v1.05h-.73v-1.05ZM103.33,215.49c0,1.78-.6,2.69-1.74,2.69s-1.74-.87-1.74-2.67.69-2.58,1.77-2.58,1.71.86,1.71,2.56ZM100.59,215.51c0,1.38.34,2.03,1,2.03s.99-.66.99-2.04c0-1.3-.32-1.93-.99-1.93s-1,.57-1,1.94ZM104.28,213.01h.71c.01.12.03.32.03.66.17-.4.52-.75,1.2-.75.73,0,1.3.42,1.3,1.54v3.61h-.74v-3.47c0-.62-.2-1.04-.78-1.04-.68,0-.97.45-.97,1.49v3.02h-.74v-3.5c0-1.04,0-1.33,0-1.57ZM110.58,214.53c0-.9,0-1.28,0-1.52h.7c.02.15.03.41.03.65.2-.44.56-.73,1.13-.73.53,0,.9.23,1.05.75.18-.41.57-.75,1.23-.75s1.23.31,1.23,1.47v3.68h-.72v-3.55c0-.51-.15-.95-.72-.95-.64,0-.87.57-.87,1.25v3.25h-.73v-3.53c0-.63-.21-.97-.7-.97-.6,0-.89.55-.89,1.32v3.18h-.73v-3.55ZM120.37,215.49c0,1.78-.6,2.69-1.74,2.69s-1.74-.87-1.74-2.67.69-2.58,1.77-2.58,1.71.86,1.71,2.56ZM117.63,215.51c0,1.38.34,2.03,1,2.03s.99-.66.99-2.04c0-1.3-.32-1.93-.99-1.93s-1,.57-1,1.94ZM121.32,213.01h.71c.01.12.03.32.03.66.17-.4.52-.75,1.2-.75.73,0,1.3.42,1.3,1.54v3.61h-.74v-3.47c0-.62-.2-1.04-.78-1.04-.68,0-.97.45-.97,1.49v3.02h-.74v-3.5c0-1.04,0-1.33,0-1.57ZM128.92,210.96v5.81c0,.49,0,1,0,1.3h-.71c-.01-.13-.03-.46-.03-.68-.16.44-.48.77-1.19.77-1.05,0-1.5-.9-1.5-2.68,0-1.62.6-2.56,1.66-2.56.66,0,.91.28,1.03.53v-2.49h.73ZM126.25,215.5c0,1.46.33,2.02.95,2.02.79,0,1-.67,1-2.05,0-1.48-.21-1.9-.94-1.9-.6,0-1.01.53-1.01,1.92ZM130.12,213.01h.73v5.07h-.73v-5.07ZM130.12,210.96h.73v1.05h-.73v-1.05ZM134.95,217.18c0,.32.03.74.04.9h-.67c-.03-.11-.05-.38-.05-.58-.19.41-.57.67-1.2.67-.97,0-1.32-.76-1.32-1.47,0-.93.63-1.62,1.96-1.62.24,0,.38,0,.53.02v-.68c0-.4-.08-.9-.76-.9-.74,0-.79.53-.82.87h-.71c.02-.72.37-1.47,1.55-1.47.98,0,1.46.48,1.46,1.41v2.84ZM134.25,215.68c-.13-.02-.27-.03-.5-.03-.9,0-1.27.43-1.27,1,0,.47.25.9.79.9.74,0,.98-.52.98-1.59v-.28ZM136.17,218.08v-7.12h.73v7.12h-.73ZM138.59,215.68c0,.99.17,1.86.97,1.86s.9-.75.92-.91h.72c-.01.13-.16,1.54-1.65,1.54s-1.7-1.37-1.7-2.63c0-1.6.55-2.62,1.74-2.62,1.33,0,1.65,1.1,1.65,2.36,0,.1,0,.27-.01.39h-2.64ZM140.51,215.11c0-.87-.18-1.55-.92-1.55-.93,0-.97,1.21-.99,1.55h1.91ZM140.51,215.11h0ZM147.25,210.96v5.81c0,.49,0,1,0,1.3h-.71c-.01-.13-.03-.46-.03-.68-.16.44-.48.77-1.19.77-1.05,0-1.5-.9-1.5-2.68,0-1.62.6-2.56,1.66-2.56.66,0,.91.28,1.03.53v-2.49h.73ZM144.58,215.5c0,1.46.33,2.02.95,2.02.79,0,1-.67,1-2.05,0-1.48-.21-1.9-.94-1.9-.6,0-1.01.53-1.01,1.92ZM148.93,215.68c0,.99.17,1.86.97,1.86s.9-.75.92-.91h.72c-.01.13-.16,1.54-1.65,1.54s-1.7-1.37-1.7-2.63c0-1.6.55-2.62,1.74-2.62,1.33,0,1.65,1.1,1.65,2.36,0,.1,0,.27-.01.39h-2.64ZM150.85,215.11c0-.87-.18-1.55-.92-1.55-.93,0-.97,1.21-.99,1.55h1.91ZM150.85,215.11h0ZM154.43,218.08v-7.12h.73v7.12h-.73ZM159.26,217.18c0,.32.03.74.04.9h-.67c-.03-.11-.05-.38-.05-.58-.19.41-.57.67-1.2.67-.97,0-1.32-.76-1.32-1.47,0-.93.63-1.62,1.96-1.62.24,0,.38,0,.53.02v-.68c0-.4-.08-.9-.76-.9-.74,0-.79.53-.82.87h-.71c.02-.72.37-1.47,1.55-1.47.98,0,1.46.48,1.46,1.41v2.84ZM158.56,215.68c-.13-.02-.27-.03-.5-.03-.9,0-1.27.43-1.27,1,0,.47.25.9.79.9.74,0,.98-.52.98-1.59v-.28Z"/>
    <path class="cls-1" d="M27.79,229.57c.55,0,.82-.33.82-.8,0-.52-.27-.76-.93-1.02-1.05-.4-1.35-.78-1.35-1.48s.42-1.34,1.45-1.34c1.13,0,1.46.77,1.46,1.44h-.72c-.01-.24-.07-.84-.77-.84-.48,0-.7.3-.7.7s.18.6.88.88c.98.38,1.41.74,1.41,1.6,0,.92-.58,1.47-1.59,1.47s-1.56-.63-1.59-1.55h.73c.03.54.32.95.9.95ZM33.17,229.18c0,.32.03.74.04.9h-.67c-.03-.11-.05-.38-.05-.58-.19.41-.57.67-1.2.67-.97,0-1.32-.76-1.32-1.47,0-.93.63-1.62,1.96-1.62.24,0,.38,0,.53.02v-.68c0-.4-.08-.9-.76-.9-.74,0-.79.53-.82.87h-.71c.02-.72.37-1.47,1.55-1.47.98,0,1.46.48,1.46,1.41v2.84ZM32.47,227.68c-.13-.02-.27-.03-.5-.03-.9,0-1.27.43-1.27,1,0,.47.25.9.79.9.74,0,.98-.52.98-1.59v-.28ZM34.38,225.01h.71c.01.12.03.32.03.66.17-.4.52-.75,1.2-.75.73,0,1.3.42,1.3,1.54v3.61h-.74v-3.47c0-.62-.2-1.04-.78-1.04-.68,0-.97.45-.97,1.49v3.02h-.74v-3.5c0-1.04,0-1.33,0-1.57ZM38.19,225.01h.71v-1.35h.72v1.35h.88v.63h-.88v3.33c0,.35.08.57.46.57.12,0,.26,0,.36-.03v.56c-.17.07-.43.08-.6.08-.6,0-.94-.24-.94-1.04v-3.47h-.71v-.63ZM41.64,227.68c0,.99.17,1.86.97,1.86s.9-.75.92-.91h.72c-.01.13-.16,1.54-1.65,1.54s-1.7-1.37-1.7-2.63c0-1.6.55-2.62,1.74-2.62,1.33,0,1.65,1.1,1.65,2.36,0,.1,0,.27-.01.39h-2.64ZM43.57,227.11c0-.87-.18-1.55-.92-1.55-.93,0-.97,1.21-.99,1.55h1.91ZM44.04,222.85l-1.25,1.39h-.68l1.07-1.39h.87ZM43.57,227.11h0ZM44.65,231.21c.31-.79.51-1.69.55-2.41h.71c-.07.93-.35,1.88-.65,2.41h-.6ZM48.4,228.71h.74v1.38h-.74v-1.38ZM49.88,228.71h.74v1.38h-.74v-1.38ZM51.36,228.71h.74v1.38h-.74v-1.38ZM52.74,231.45c.68-1.01,1.27-2.31,1.27-4.2,0-1.73-.47-3.08-1.27-4.32h.7c.62.89,1.26,2.35,1.26,4.33s-.68,3.34-1.26,4.19h-.7ZM60.65,229.18c0,.32.03.74.04.9h-.67c-.03-.11-.05-.38-.05-.58-.19.41-.57.67-1.2.67-.97,0-1.32-.76-1.32-1.47,0-.93.63-1.62,1.96-1.62.24,0,.38,0,.53.02v-.68c0-.4-.08-.9-.76-.9-.74,0-.79.53-.82.87h-.71c.02-.72.37-1.47,1.55-1.47.98,0,1.46.48,1.46,1.41v2.84ZM59.95,227.68c-.13-.02-.27-.03-.5-.03-.9,0-1.27.43-1.27,1,0,.47.25.9.79.9.74,0,.98-.52.98-1.59v-.28ZM61.93,230.08v-4.44h-.66v-.63h.66v-.7c0-.75.27-1.41,1.19-1.41.14,0,.32.02.41.05v.65c-.09-.02-.21-.04-.33-.04-.4,0-.54.25-.54.76v.68h.8v.63h-.8v4.44h-.73ZM64.12,225.01h.73v5.07h-.73v-5.07ZM64.12,222.96h.73v1.05h-.73v-1.05ZM66.05,225.01h.71c.01.12.03.32.03.66.17-.4.52-.75,1.2-.75.73,0,1.3.42,1.3,1.54v3.61h-.74v-3.47c0-.62-.2-1.04-.78-1.04-.68,0-.97.45-.97,1.49v3.02h-.74v-3.5c0-1.04,0-1.33,0-1.57ZM75.51,222.96v5.81c0,.49,0,1,0,1.3h-.71c-.01-.13-.03-.46-.03-.68-.16.44-.48.77-1.19.77-1.05,0-1.5-.9-1.5-2.68,0-1.62.6-2.56,1.66-2.56.66,0,.91.28,1.03.53v-2.49h.73ZM72.84,227.5c0,1.46.33,2.02.95,2.02.79,0,1-.67,1-2.05,0-1.48-.21-1.9-.94-1.9-.6,0-1.01.53-1.01,1.92ZM76.33,225.25c.19-.69.35-1.52.35-2.31h.71c-.01.85-.27,1.88-.47,2.31h-.59ZM80.95,227.49c0,1.78-.6,2.69-1.74,2.69s-1.74-.87-1.74-2.67.69-2.58,1.77-2.58,1.71.86,1.71,2.56ZM78.22,227.51c0,1.38.34,2.03,1,2.03s.99-.66.99-2.04c0-1.3-.32-1.93-.99-1.93s-1,.57-1,1.94ZM81.91,222.96h.73v2.72c.16-.39.51-.76,1.21-.76.97,0,1.48.81,1.48,2.49,0,1.57-.42,2.74-1.62,2.74-.65,0-.94-.32-1.09-.68,0,.17-.01.4-.03.6h-.69c0-.27,0-.77,0-1.39v-5.72ZM84.59,227.43c0-1.27-.3-1.86-.93-1.86-.78,0-1.04.7-1.04,1.98,0,1.22.2,1.96.97,1.96.68,0,1-.66,1-2.09ZM85.66,225.01h.71v-1.35h.72v1.35h.88v.63h-.88v3.33c0,.35.08.57.46.57.12,0,.26,0,.36-.03v.56c-.17.07-.43.08-.6.08-.6,0-.94-.24-.94-1.04v-3.47h-.71v-.63ZM89.11,227.68c0,.99.17,1.86.97,1.86s.9-.75.92-.91h.72c-.01.13-.16,1.54-1.65,1.54s-1.7-1.37-1.7-2.63c0-1.6.55-2.62,1.74-2.62,1.33,0,1.65,1.1,1.65,2.36,0,.1,0,.27-.01.39h-2.64ZM91.03,227.11c0-.87-.18-1.55-.92-1.55-.93,0-.97,1.21-.99,1.55h1.91ZM91.03,227.11h0ZM92.69,225.01h.71c.01.12.03.32.03.66.17-.4.52-.75,1.2-.75.73,0,1.3.42,1.3,1.54v3.61h-.74v-3.47c0-.62-.2-1.04-.78-1.04-.68,0-.97.45-.97,1.49v3.02h-.74v-3.5c0-1.04,0-1.33,0-1.57ZM97.13,225.01h.73v5.07h-.73v-5.07ZM97.13,222.96h.73v1.05h-.73v-1.05ZM99.06,225.01h.7c0,.13.02.37.02.9.22-.61.7-.97,1.34-.98v.81c-.87.03-1.33.58-1.33,1.51v2.83h-.73v-3.34c0-.81,0-1.36,0-1.73ZM103.74,230.08v-7.12h.73v7.12h-.73ZM106.16,227.68c0,.99.17,1.86.97,1.86s.9-.75.92-.91h.72c-.01.13-.16,1.54-1.65,1.54s-1.7-1.37-1.7-2.63c0-1.6.55-2.62,1.74-2.62,1.33,0,1.65,1.1,1.65,2.36,0,.1,0,.27-.01.39h-2.64ZM108.08,227.11c0-.87-.18-1.55-.92-1.55-.93,0-.97,1.21-.99,1.55h1.91ZM108.08,227.11h0ZM111.06,229.57c.55,0,.82-.33.82-.8,0-.52-.27-.76-.93-1.02-1.05-.4-1.35-.78-1.35-1.48s.42-1.34,1.45-1.34c1.13,0,1.46.77,1.46,1.44h-.72c-.01-.24-.07-.84-.77-.84-.48,0-.7.3-.7.7s.18.6.88.88c.98.38,1.41.74,1.41,1.6,0,.92-.58,1.47-1.59,1.47s-1.56-.63-1.59-1.55h.73c.03.54.32.95.9.95ZM118.59,222.96v5.81c0,.49,0,1,0,1.3h-.71c-.01-.13-.03-.46-.03-.68-.16.44-.48.77-1.19.77-1.05,0-1.5-.9-1.5-2.68,0-1.62.6-2.56,1.66-2.56.66,0,.91.28,1.03.53v-2.49h.73ZM115.92,227.5c0,1.46.33,2.02.95,2.02.79,0,1-.67,1-2.05,0-1.48-.21-1.9-.94-1.9-.6,0-1.01.53-1.01,1.92ZM123.02,227.49c0,1.78-.6,2.69-1.74,2.69s-1.74-.87-1.74-2.67.69-2.58,1.77-2.58,1.71.86,1.71,2.56ZM120.28,227.51c0,1.38.34,2.03,1,2.03s.99-.66.99-2.04c0-1.3-.32-1.93-.99-1.93s-1,.57-1,1.94ZM123.97,225.01h.71c.01.12.03.32.03.66.17-.4.52-.75,1.2-.75.73,0,1.3.42,1.3,1.54v3.61h-.74v-3.47c0-.62-.2-1.04-.78-1.04-.68,0-.97.45-.97,1.49v3.02h-.74v-3.5c0-1.04,0-1.33,0-1.57ZM128.4,225.01h.71c.01.12.03.32.03.66.17-.4.52-.75,1.2-.75.73,0,1.3.42,1.3,1.54v3.61h-.74v-3.47c0-.62-.2-1.04-.78-1.04-.68,0-.97.45-.97,1.49v3.02h-.74v-3.5c0-1.04,0-1.33,0-1.57ZM133.32,227.68c0,.99.17,1.86.97,1.86s.9-.75.92-.91h.72c-.01.13-.16,1.54-1.65,1.54s-1.7-1.37-1.7-2.63c0-1.6.55-2.62,1.74-2.62,1.33,0,1.65,1.1,1.65,2.36,0,.1,0,.27-.01.39h-2.64ZM135.24,227.11c0-.87-.18-1.55-.92-1.55-.93,0-.97,1.21-.99,1.55h1.91ZM135.72,222.85l-1.25,1.39h-.68l1.07-1.39h.87ZM135.24,227.11h0ZM137.47,227.68c0,.99.17,1.86.97,1.86s.9-.75.92-.91h.72c-.01.13-.16,1.54-1.65,1.54s-1.7-1.37-1.7-2.63c0-1.6.55-2.62,1.74-2.62,1.33,0,1.65,1.1,1.65,2.36,0,.1,0,.27-.01.39h-2.64ZM139.39,227.11c0-.87-.18-1.55-.92-1.55-.93,0-.97,1.21-.99,1.55h1.91ZM139.39,227.11h0ZM142.37,229.57c.55,0,.82-.33.82-.8,0-.52-.27-.76-.93-1.02-1.05-.4-1.35-.78-1.35-1.48s.42-1.34,1.45-1.34c1.13,0,1.46.77,1.46,1.44h-.72c-.01-.24-.07-.84-.77-.84-.48,0-.7.3-.7.7s.18.6.88.88c.98.38,1.41.74,1.41,1.6,0,.92-.58,1.47-1.59,1.47s-1.56-.63-1.59-1.55h.73c.03.54.32.95.9.95ZM146.74,230.08v-7.12h.73v7.12h-.73ZM149.16,227.68c0,.99.17,1.86.97,1.86s.9-.75.92-.91h.72c-.01.13-.16,1.54-1.65,1.54s-1.7-1.37-1.7-2.63c0-1.6.55-2.62,1.74-2.62,1.33,0,1.65,1.1,1.65,2.36,0,.1,0,.27-.01.39h-2.64ZM151.08,227.11c0-.87-.18-1.55-.92-1.55-.93,0-.97,1.21-.99,1.55h1.91ZM151.08,227.11h0ZM154.06,229.57c.55,0,.82-.33.82-.8,0-.52-.27-.76-.93-1.02-1.05-.4-1.35-.78-1.35-1.48s.42-1.34,1.45-1.34c1.13,0,1.46.77,1.46,1.44h-.72c-.01-.24-.07-.84-.77-.84-.48,0-.7.3-.7.7s.18.6.88.88c.98.38,1.41.74,1.41,1.6,0,.92-.58,1.47-1.59,1.47s-1.56-.63-1.59-1.55h.73c.03.54.32.95.9.95Z"/>
    <path class="cls-1" d="M27.27,241.56v2.38h-.73v-5.45c0-.69,0-1.16,0-1.48h.71c.01.09.03.43.03.68.18-.44.53-.77,1.21-.77.96,0,1.48.85,1.48,2.55,0,1.82-.63,2.7-1.63,2.7-.61,0-.91-.29-1.05-.61ZM29.2,239.51c0-1.27-.3-1.93-.96-1.93-.79,0-1,.75-1,1.94s.11,2.01.96,2.01c.66,0,1-.77,1-2.02ZM30.91,242.08v-7.12h.73v7.12h-.73ZM36.04,240.69c0,.64,0,1.14,0,1.39h-.7c-.02-.15-.03-.35-.04-.68-.18.5-.61.77-1.2.77s-1.27-.24-1.27-1.51v-3.64h.74v3.47c0,.65.18,1.04.76,1.04s.96-.34.96-1.44v-3.08h.74v3.68ZM38.48,241.57c.55,0,.82-.33.82-.8,0-.52-.27-.76-.93-1.02-1.05-.4-1.35-.78-1.35-1.48s.42-1.34,1.45-1.34c1.13,0,1.46.77,1.46,1.44h-.72c-.01-.24-.07-.84-.77-.84-.48,0-.7.3-.7.7s.18.6.88.88c.98.38,1.41.74,1.41,1.6,0,.92-.58,1.47-1.59,1.47s-1.56-.63-1.59-1.55h.73c.03.54.32.95.9.95ZM45.79,241.18c0,.32.03.74.04.9h-.67c-.03-.11-.05-.38-.05-.58-.19.41-.57.67-1.2.67-.97,0-1.32-.76-1.32-1.47,0-.93.63-1.62,1.96-1.62.24,0,.38,0,.53.02v-.68c0-.4-.08-.9-.76-.9-.74,0-.79.53-.82.87h-.71c.02-.72.37-1.47,1.55-1.47.98,0,1.46.48,1.46,1.41v2.84ZM43.67,234.86l1.07,1.39h-.69l-1.26-1.39h.88ZM45.09,239.68c-.13-.02-.27-.03-.5-.03-.9,0-1.27.43-1.27,1,0,.47.25.9.79.9.74,0,.98-.52.98-1.59v-.28ZM49.66,237.01v5.39c0,.92-.12,1.62-1.1,1.62-.1,0-.2,0-.32-.02v-.64c.09,0,.18,0,.23,0,.39,0,.46-.24.46-.8v-5.55h.73ZM48.94,236.01v-1.05h.73v1.05h-.73ZM54.12,239.49c0,1.78-.6,2.69-1.74,2.69s-1.74-.87-1.74-2.67.69-2.58,1.77-2.58,1.71.86,1.71,2.56ZM51.38,239.51c0,1.38.34,2.03,1,2.03s.99-.66.99-2.04c0-1.3-.32-1.93-.99-1.93s-1,.57-1,1.94ZM58.26,240.69c0,.64,0,1.14,0,1.39h-.7c-.02-.15-.03-.35-.04-.68-.18.5-.61.77-1.2.77s-1.27-.24-1.27-1.51v-3.64h.74v3.47c0,.65.18,1.04.76,1.04s.96-.34.96-1.44v-3.08h.74v3.68ZM59.39,237.01h.7c0,.13.02.37.02.9.22-.61.7-.97,1.34-.98v.81c-.87.03-1.33.58-1.33,1.51v2.83h-.73v-3.34c0-.81,0-1.36,0-1.73ZM61.53,240.71h.74v1.38h-.74v-1.38Z"/>
    <path class="cls-1" d="M30.79,62.25c0,1.54-.22,2.64-.75,3.28l1.3.96-.49.59-1.44-1.07c-.24.11-.52.16-.84.16-1.54,0-2.18-1.32-2.18-3.9s.75-3.79,2.21-3.79c1.55,0,2.19,1.25,2.19,3.78ZM28.59,65.45c.96,0,1.35-1.04,1.35-3.19s-.43-3.07-1.36-3.07-1.35,1.02-1.35,3.06.43,3.2,1.36,3.2ZM35.39,64.53c0,.7,0,1.26.01,1.53h-.77c-.03-.16-.04-.38-.04-.74-.2.55-.67.84-1.33.84s-1.39-.27-1.39-1.67v-4.01h.81v3.82c0,.71.2,1.15.84,1.15s1.06-.38,1.06-1.58v-3.39h.81v4.05ZM37.23,63.41c0,1.09.19,2.05,1.07,2.05s.99-.83,1.02-1h.79c-.01.14-.17,1.69-1.81,1.69s-1.87-1.51-1.87-2.89c0-1.77.6-2.88,1.92-2.88,1.47,0,1.81,1.21,1.81,2.6,0,.11,0,.29-.01.43h-2.91ZM39.35,62.78c0-.96-.2-1.71-1.02-1.71-1.02,0-1.07,1.33-1.09,1.71h2.1ZM39.35,62.78h0ZM41.17,66.05v-7.83h.8v7.83h-.8ZM45.94,63.41c0,1.09.19,2.05,1.07,2.05s.99-.83,1.02-1h.79c-.01.14-.17,1.69-1.81,1.69s-1.87-1.51-1.87-2.89c0-1.77.6-2.88,1.92-2.88,1.47,0,1.81,1.21,1.81,2.6,0,.11,0,.29-.01.43h-2.91ZM48.06,62.78c0-.96-.2-1.71-1.02-1.71-1.02,0-1.07,1.33-1.09,1.71h2.1ZM48.06,62.78h0ZM51.33,65.49c.61,0,.9-.37.9-.88,0-.58-.3-.84-1.03-1.13-1.15-.44-1.49-.86-1.49-1.63s.46-1.47,1.6-1.47c1.25,0,1.6.85,1.61,1.59h-.79c-.01-.27-.07-.93-.85-.93-.53,0-.77.33-.77.77s.19.67.97.96c1.08.42,1.56.81,1.56,1.77,0,1.02-.64,1.62-1.75,1.62s-1.72-.69-1.75-1.71h.8c.04.6.35,1.05.99,1.05ZM53.43,60.47h.79v-1.49h.8v1.49h.97v.69h-.97v3.66c0,.38.08.62.5.62.13,0,.29,0,.39-.03v.62c-.19.07-.47.09-.66.09-.66,0-1.04-.27-1.04-1.15v-3.82h-.79v-.69ZM58.85,66.05v-7.83h.8v7.83h-.8ZM61.52,63.41c0,1.09.19,2.05,1.07,2.05s.99-.83,1.02-1h.79c-.01.14-.17,1.69-1.81,1.69s-1.87-1.51-1.87-2.89c0-1.77.6-2.88,1.92-2.88,1.47,0,1.81,1.21,1.81,2.6,0,.11,0,.29-.01.43h-2.91ZM63.63,62.78c0-.96-.2-1.71-1.02-1.71-1.02,0-1.07,1.33-1.09,1.71h2.1ZM63.63,62.78h0ZM67.56,62.15c0-.99,0-1.41-.01-1.67h.77c.02.16.03.46.03.71.22-.49.61-.81,1.25-.81.58,0,.99.25,1.16.83.2-.45.62-.83,1.35-.83s1.35.34,1.35,1.62v4.05h-.8v-3.91c0-.56-.16-1.05-.79-1.05-.71,0-.95.63-.95,1.38v3.58h-.8v-3.89c0-.69-.23-1.06-.77-1.06-.67,0-.98.61-.98,1.45v3.5h-.8v-3.91ZM75.31,63.41c0,1.09.19,2.05,1.07,2.05s.99-.83,1.02-1h.79c-.01.14-.17,1.69-1.81,1.69s-1.87-1.51-1.87-2.89c0-1.77.6-2.88,1.92-2.88,1.47,0,1.81,1.21,1.81,2.6,0,.11,0,.29-.01.43h-2.91ZM77.43,62.78c0-.96-.2-1.71-1.02-1.71-1.02,0-1.07,1.33-1.09,1.71h2.1ZM77.43,62.78h0ZM79.25,60.47h.8v5.58h-.8v-5.58ZM79.26,58.22h.8v1.15h-.8v-1.15ZM81.41,66.05v-7.83h.8v7.83h-.8ZM83.57,66.05v-7.83h.8v7.83h-.8ZM86.23,63.41c0,1.09.19,2.05,1.07,2.05s.99-.83,1.02-1h.79c-.01.14-.17,1.69-1.81,1.69s-1.87-1.51-1.87-2.89c0-1.77.6-2.88,1.92-2.88,1.47,0,1.81,1.21,1.81,2.6,0,.11,0,.29-.01.43h-2.91ZM88.35,62.78c0-.96-.2-1.71-1.02-1.71-1.02,0-1.07,1.33-1.09,1.71h2.1ZM88.35,62.78h0ZM93.69,64.53c0,.7,0,1.26.01,1.53h-.77c-.03-.16-.04-.38-.04-.74-.2.55-.67.84-1.33.84s-1.39-.27-1.39-1.67v-4.01h.81v3.82c0,.71.2,1.15.84,1.15s1.06-.38,1.06-1.58v-3.39h.81v4.05ZM94.93,60.47h.77c.01.14.03.4.03,1,.24-.67.78-1.07,1.47-1.08v.89c-.96.03-1.46.63-1.46,1.66v3.12h-.8v-3.68c0-.89,0-1.5-.01-1.9ZM100.08,62.15c0-.99,0-1.41-.01-1.67h.77c.02.16.03.46.03.71.22-.49.61-.81,1.25-.81.58,0,.99.25,1.16.83.2-.45.62-.83,1.35-.83s1.35.34,1.35,1.62v4.05h-.8v-3.91c0-.56-.16-1.05-.79-1.05-.71,0-.95.63-.95,1.38v3.58h-.8v-3.89c0-.69-.23-1.06-.77-1.06-.67,0-.98.61-.98,1.45v3.5h-.8v-3.91ZM110.86,63.2c0,1.96-.66,2.96-1.92,2.96s-1.92-.96-1.92-2.94.76-2.83,1.95-2.83,1.89.94,1.89,2.82ZM107.84,63.22c0,1.52.38,2.24,1.1,2.24s1.09-.73,1.09-2.24c0-1.43-.35-2.13-1.09-2.13s-1.1.63-1.1,2.14ZM113.39,65.08h.01c.11-.64.61-2.55,1.14-4.6h.83l-1.63,5.86c-.45,1.63-.89,1.85-1.68,1.85-.12,0-.29-.01-.4-.04v-.72c.08.02.24.03.37.03.58,0,.75-.4.97-1.29l-1.63-5.69h.88c.6,2.33,1.06,4.01,1.14,4.6ZM116.67,63.41c0,1.09.19,2.05,1.07,2.05s.99-.83,1.02-1h.79c-.01.14-.17,1.69-1.81,1.69s-1.87-1.51-1.87-2.89c0-1.77.6-2.88,1.92-2.88,1.47,0,1.81,1.21,1.81,2.6,0,.11,0,.29-.01.43h-2.91ZM118.79,62.78c0-.96-.2-1.71-1.02-1.71-1.02,0-1.07,1.33-1.09,1.71h2.1ZM118.79,62.78h0ZM120.6,60.47h.78c.01.14.03.36.03.73.19-.44.57-.83,1.32-.83.81,0,1.43.46,1.43,1.7v3.97h-.81v-3.82c0-.68-.22-1.14-.86-1.14-.75,0-1.07.49-1.07,1.64v3.32h-.81v-3.85c0-1.14,0-1.47-.01-1.73ZM131.02,58.22v6.4c0,.54,0,1.1.01,1.43h-.78c-.01-.14-.03-.51-.03-.75-.17.48-.53.85-1.31.85-1.16,0-1.65-.99-1.65-2.95,0-1.78.66-2.82,1.83-2.82.72,0,1,.31,1.13.58v-2.74h.8ZM128.08,63.21c0,1.61.37,2.22,1.05,2.22.87,0,1.1-.74,1.1-2.25,0-1.63-.23-2.09-1.03-2.09-.66,0-1.11.58-1.11,2.12ZM132.86,63.41c0,1.09.19,2.05,1.07,2.05s.99-.83,1.02-1h.79c-.01.14-.17,1.69-1.81,1.69s-1.87-1.51-1.87-2.89c0-1.77.6-2.88,1.92-2.88,1.47,0,1.81,1.21,1.81,2.6,0,.11,0,.29-.01.43h-2.91ZM134.98,62.78c0-.96-.2-1.71-1.02-1.71-1.02,0-1.07,1.33-1.09,1.71h2.1ZM134.98,62.78h0ZM138.21,60.47h.79v-1.49h.8v1.49h.97v.69h-.97v3.66c0,.38.08.62.5.62.13,0,.29,0,.39-.03v.62c-.19.07-.47.09-.66.09-.66,0-1.04-.27-1.04-1.15v-3.82h-.79v-.69ZM141.52,60.47h.77c.01.14.03.4.03,1,.24-.67.78-1.07,1.47-1.08v.89c-.96.03-1.46.63-1.46,1.66v3.12h-.8v-3.68c0-.89,0-1.5-.01-1.9ZM148.07,63.2c0,1.96-.66,2.96-1.92,2.96s-1.92-.96-1.92-2.94.76-2.83,1.95-2.83,1.89.94,1.89,2.82ZM145.05,63.22c0,1.52.38,2.24,1.1,2.24s1.09-.73,1.09-2.24c0-1.43-.35-2.13-1.09-2.13s-1.1.63-1.1,2.14ZM152.62,64.53c0,.7,0,1.26.01,1.53h-.77c-.03-.16-.04-.38-.04-.74-.2.55-.67.84-1.33.84s-1.39-.27-1.39-1.67v-4.01h.81v3.82c0,.71.2,1.15.84,1.15s1.06-.38,1.06-1.58v-3.39h.81v4.05ZM154.23,60.47c.46,1.81,1.01,3.99,1.12,4.67h.01c.07-.62.91-3.53,1.18-4.67h.81l-1.6,5.58h-.87l-1.51-5.58h.85ZM158.61,63.41c0,1.09.19,2.05,1.07,2.05s.99-.83,1.02-1h.79c-.01.14-.17,1.69-1.81,1.69s-1.87-1.51-1.87-2.89c0-1.77.6-2.88,1.92-2.88,1.47,0,1.81,1.21,1.81,2.6,0,.11,0,.29-.01.43h-2.91ZM160.73,62.78c0-.96-.2-1.71-1.02-1.71-1.02,0-1.07,1.33-1.09,1.71h2.1ZM160.73,62.78h0ZM162.54,60.47h.77c.01.14.03.4.03,1,.24-.67.78-1.07,1.47-1.08v.89c-.96.03-1.46.63-1.46,1.66v3.12h-.8v-3.68c0-.89,0-1.5-.01-1.9Z"/>
    <path class="cls-1" d="M30.08,71.42v6.4c0,.54,0,1.1.01,1.43h-.78c-.01-.14-.03-.51-.03-.75-.17.48-.53.85-1.31.85-1.16,0-1.65-.99-1.65-2.95,0-1.78.66-2.82,1.83-2.82.72,0,1,.31,1.13.58v-2.74h.8ZM27.15,76.41c0,1.61.37,2.22,1.05,2.22.87,0,1.1-.74,1.1-2.25,0-1.63-.23-2.09-1.03-2.09-.66,0-1.11.58-1.11,2.12ZM31.93,76.61c0,1.09.19,2.05,1.07,2.05s.99-.83,1.02-1h.79c-.01.14-.17,1.69-1.81,1.69s-1.87-1.51-1.87-2.89c0-1.77.6-2.88,1.92-2.88,1.47,0,1.81,1.21,1.81,2.6,0,.11,0,.29-.01.43h-2.91ZM34.04,75.98c0-.96-.2-1.71-1.02-1.71-1.02,0-1.07,1.33-1.09,1.71h2.1ZM34.04,75.98h0ZM37.32,78.69c.61,0,.9-.37.9-.88,0-.58-.3-.84-1.03-1.13-1.15-.44-1.49-.86-1.49-1.63s.46-1.47,1.6-1.47c1.25,0,1.6.85,1.61,1.59h-.79c-.01-.27-.07-.93-.85-.93-.53,0-.77.33-.77.77s.19.67.97.96c1.08.42,1.56.81,1.56,1.77,0,1.02-.64,1.62-1.75,1.62s-1.72-.69-1.75-1.71h.8c.04.6.35,1.05.99,1.05ZM45.6,71.42v6.4c0,.54,0,1.1.01,1.43h-.78c-.01-.14-.03-.51-.03-.75-.17.48-.53.85-1.31.85-1.16,0-1.65-.99-1.65-2.95,0-1.78.66-2.82,1.83-2.82.72,0,1,.31,1.13.58v-2.74h.8ZM42.67,76.41c0,1.61.37,2.22,1.05,2.22.87,0,1.1-.74,1.1-2.25,0-1.63-.23-2.09-1.03-2.09-.66,0-1.11.58-1.11,2.12ZM50.48,76.4c0,1.96-.66,2.96-1.92,2.96s-1.92-.96-1.92-2.94.76-2.83,1.95-2.83,1.89.94,1.89,2.82ZM47.46,76.42c0,1.52.38,2.24,1.1,2.24s1.09-.73,1.09-2.24c0-1.43-.35-2.13-1.09-2.13s-1.1.63-1.1,2.14ZM51.51,73.67h.78c.01.14.03.36.03.73.19-.44.57-.83,1.32-.83.81,0,1.43.46,1.43,1.7v3.97h-.81v-3.82c0-.68-.22-1.14-.86-1.14-.75,0-1.07.49-1.07,1.64v3.32h-.81v-3.85c0-1.14,0-1.47-.01-1.73ZM56.39,73.67h.78c.01.14.03.36.03.73.19-.44.57-.83,1.32-.83.81,0,1.43.46,1.43,1.7v3.97h-.81v-3.82c0-.68-.22-1.14-.86-1.14-.75,0-1.07.49-1.07,1.64v3.32h-.81v-3.85c0-1.14,0-1.47-.01-1.73ZM61.8,76.61c0,1.09.19,2.05,1.07,2.05s.99-.83,1.02-1h.79c-.01.14-.17,1.69-1.81,1.69s-1.87-1.51-1.87-2.89c0-1.77.6-2.88,1.92-2.88,1.47,0,1.81,1.21,1.81,2.6,0,.11,0,.29-.01.43h-2.91ZM63.92,75.98c0-.96-.2-1.71-1.02-1.71-1.02,0-1.07,1.33-1.09,1.71h2.1ZM64.44,71.3l-1.38,1.53h-.75l1.18-1.53h.95ZM63.92,75.98h0ZM66.37,76.61c0,1.09.19,2.05,1.07,2.05s.99-.83,1.02-1h.79c-.01.14-.17,1.69-1.81,1.69s-1.87-1.51-1.87-2.89c0-1.77.6-2.88,1.92-2.88,1.47,0,1.81,1.21,1.81,2.6,0,.11,0,.29-.01.43h-2.91ZM68.49,75.98c0-.96-.2-1.71-1.02-1.71-1.02,0-1.07,1.33-1.09,1.71h2.1ZM68.49,75.98h0ZM71.76,78.69c.61,0,.9-.37.9-.88,0-.58-.3-.84-1.03-1.13-1.15-.44-1.49-.86-1.49-1.63s.46-1.47,1.6-1.47c1.25,0,1.6.85,1.61,1.59h-.79c-.01-.27-.07-.93-.85-.93-.53,0-.77.33-.77.77s.19.67.97.96c1.08.42,1.56.81,1.56,1.77,0,1.02-.64,1.62-1.75,1.62s-1.72-.69-1.75-1.71h.8c.04.6.35,1.05.99,1.05ZM77.94,78.69c.61,0,.9-.37.9-.88,0-.58-.3-.84-1.03-1.13-1.15-.44-1.49-.86-1.49-1.63s.46-1.47,1.6-1.47c1.25,0,1.6.85,1.61,1.59h-.79c-.01-.27-.07-.93-.85-.93-.53,0-.77.33-.77.77s.19.67.97.96c1.08.42,1.56.81,1.56,1.77,0,1.02-.64,1.62-1.75,1.62s-1.72-.69-1.75-1.71h.8c.04.6.35,1.05.99,1.05ZM80.04,73.67h.79v-1.49h.8v1.49h.97v.69h-.97v3.66c0,.38.08.62.5.62.13,0,.29,0,.39-.03v.62c-.19.07-.47.09-.66.09-.66,0-1.04-.27-1.04-1.15v-3.82h-.79v-.69ZM86.62,78.27c0,.35.03.81.04.99h-.74c-.03-.12-.06-.42-.06-.63-.21.45-.63.73-1.32.73-1.07,0-1.46-.84-1.46-1.61,0-1.02.69-1.79,2.15-1.79.26,0,.42,0,.58.02v-.74c0-.44-.08-.99-.84-.99-.82,0-.87.59-.9.96h-.78c.02-.8.4-1.62,1.71-1.62,1.08,0,1.6.53,1.6,1.55v3.13ZM85.85,76.61c-.14-.02-.29-.03-.55-.03-.99,0-1.4.48-1.4,1.1,0,.51.27.99.87.99.82,0,1.08-.58,1.08-1.75v-.3ZM87.27,73.67h.79v-1.49h.8v1.49h.97v.69h-.97v3.66c0,.38.08.62.5.62.13,0,.29,0,.39-.03v.62c-.19.07-.47.09-.66.09-.66,0-1.04-.27-1.04-1.15v-3.82h-.79v-.69ZM90.62,73.67h.8v5.58h-.8v-5.58ZM90.62,71.42h.8v1.15h-.8v-1.15ZM94.12,78.69c.61,0,.9-.37.9-.88,0-.58-.3-.84-1.03-1.13-1.15-.44-1.49-.86-1.49-1.63s.46-1.47,1.6-1.47c1.25,0,1.6.85,1.61,1.59h-.79c-.01-.27-.07-.93-.85-.93-.53,0-.77.33-.77.77s.19.67.97.96c1.08.42,1.56.81,1.56,1.77,0,1.02-.64,1.62-1.75,1.62s-1.72-.69-1.75-1.71h.8c.04.6.35,1.05.99,1.05ZM96.22,73.67h.79v-1.49h.8v1.49h.97v.69h-.97v3.66c0,.38.08.62.5.62.13,0,.29,0,.39-.03v.62c-.19.07-.47.09-.66.09-.66,0-1.04-.27-1.04-1.15v-3.82h-.79v-.69ZM99.57,73.67h.8v5.58h-.8v-5.58ZM99.57,71.42h.8v1.15h-.8v-1.15ZM104.4,78.55c-.21.48-.59.8-1.31.8-1.04,0-1.66-.86-1.66-2.89,0-1.85.7-2.88,1.8-2.88.74,0,1.05.35,1.17.7,0-.31.02-.5.03-.6h.78c-.01.4-.01.86-.01,1.65v5.98h-.79v-2.76ZM102.26,76.47c0,1.33.31,2.18,1.06,2.18.9,0,1.09-.78,1.09-2.21s-.12-2.15-1.03-2.15c-.7,0-1.11.76-1.11,2.18ZM110.03,77.73c0,.7,0,1.26.01,1.53h-.77c-.03-.16-.04-.38-.04-.74-.2.55-.67.84-1.33.84s-1.39-.27-1.39-1.67v-4.01h.81v3.82c0,.71.2,1.15.84,1.15s1.06-.38,1.06-1.58v-3.39h.81v4.05ZM111.87,76.61c0,1.09.19,2.05,1.07,2.05s.99-.83,1.02-1h.79c-.01.14-.17,1.69-1.81,1.69s-1.87-1.51-1.87-2.89c0-1.77.6-2.88,1.92-2.88,1.47,0,1.81,1.21,1.81,2.6,0,.11,0,.29-.01.43h-2.91ZM113.99,75.98c0-.96-.2-1.71-1.02-1.71-1.02,0-1.07,1.33-1.09,1.71h2.1ZM113.99,75.98h0ZM117.26,78.69c.61,0,.9-.37.9-.88,0-.58-.3-.84-1.03-1.13-1.15-.44-1.49-.86-1.49-1.63s.46-1.47,1.6-1.47c1.25,0,1.6.85,1.61,1.59h-.79c-.01-.27-.07-.93-.85-.93-.53,0-.77.33-.77.77s.19.67.97.96c1.08.42,1.56.81,1.56,1.77,0,1.02-.64,1.62-1.75,1.62s-1.72-.69-1.75-1.71h.8c.04.6.35,1.05.99,1.05ZM123.44,78.69c.61,0,.9-.37.9-.88,0-.58-.3-.84-1.03-1.13-1.15-.44-1.49-.86-1.49-1.63s.46-1.47,1.6-1.47c1.25,0,1.6.85,1.61,1.59h-.79c-.01-.27-.07-.93-.85-.93-.53,0-.77.33-.77.77s.19.67.97.96c1.08.42,1.56.81,1.56,1.77,0,1.02-.64,1.62-1.75,1.62s-1.72-.69-1.75-1.71h.8c.04.6.35,1.05.99,1.05ZM129.59,77.73c0,.7,0,1.26.01,1.53h-.77c-.03-.16-.04-.38-.04-.74-.2.55-.67.84-1.33.84s-1.39-.27-1.39-1.67v-4.01h.81v3.82c0,.71.2,1.15.84,1.15s1.06-.38,1.06-1.58v-3.39h.81v4.05ZM130.83,73.67h.77c.01.14.03.4.03,1,.24-.67.78-1.07,1.47-1.08v.89c-.96.03-1.46.63-1.46,1.66v3.12h-.8v-3.68c0-.89,0-1.5-.01-1.9ZM139.49,77.73c0,.7,0,1.26.01,1.53h-.77c-.03-.16-.04-.38-.04-.74-.2.55-.67.84-1.33.84s-1.39-.27-1.39-1.67v-4.01h.81v3.82c0,.71.2,1.15.84,1.15s1.06-.38,1.06-1.58v-3.39h.81v4.05ZM140.73,73.67h.78c.01.14.03.36.03.73.19-.44.57-.83,1.32-.83.81,0,1.43.46,1.43,1.7v3.97h-.81v-3.82c0-.68-.22-1.14-.86-1.14-.75,0-1.07.49-1.07,1.64v3.32h-.81v-3.85c0-1.14,0-1.47-.01-1.73ZM146.15,76.61c0,1.09.19,2.05,1.07,2.05s.99-.83,1.02-1h.79c-.01.14-.17,1.69-1.81,1.69s-1.87-1.51-1.87-2.89c0-1.77.6-2.88,1.92-2.88,1.47,0,1.81,1.21,1.81,2.6,0,.11,0,.29-.01.43h-2.91ZM148.27,75.98c0-.96-.2-1.71-1.02-1.71-1.02,0-1.07,1.33-1.09,1.71h2.1ZM148.27,75.98h0Z"/>
    <path class="cls-1" d="M27.4,91.88v2.62h-.8v-6c0-.76,0-1.28-.01-1.63h.78c.01.1.03.47.03.75.2-.48.59-.84,1.33-.84,1.06,0,1.63.94,1.63,2.8,0,2.01-.7,2.97-1.79,2.97-.67,0-1-.32-1.16-.67ZM29.53,89.62c0-1.4-.32-2.13-1.06-2.13-.86,0-1.1.82-1.1,2.14s.13,2.21,1.05,2.21c.73,0,1.1-.85,1.1-2.22ZM34.62,91.47c0,.35.03.81.04.99h-.74c-.03-.12-.06-.42-.06-.63-.21.45-.63.73-1.32.73-1.07,0-1.46-.84-1.46-1.61,0-1.02.69-1.79,2.15-1.79.26,0,.42,0,.58.02v-.74c0-.44-.08-.99-.84-.99-.82,0-.87.59-.9.96h-.78c.02-.8.4-1.62,1.71-1.62,1.08,0,1.6.53,1.6,1.55v3.13ZM33.85,89.81c-.14-.02-.29-.03-.55-.03-.99,0-1.4.48-1.4,1.1,0,.51.27.99.87.99.82,0,1.08-.58,1.08-1.75v-.3ZM35.27,86.87h.79v-1.49h.8v1.49h.97v.69h-.97v3.66c0,.38.08.62.5.62.13,0,.29,0,.39-.03v.62c-.19.07-.47.09-.66.09-.66,0-1.04-.27-1.04-1.15v-3.82h-.79v-.69ZM39.41,84.62v2.93c.19-.45.63-.78,1.34-.78.82,0,1.41.51,1.41,1.71v3.97h-.81v-3.8c0-.68-.2-1.16-.88-1.16-.77,0-1.05.63-1.05,1.6v3.35h-.81v-7.83h.81ZM47.02,89.6c0,1.96-.66,2.96-1.92,2.96s-1.92-.96-1.92-2.94.76-2.83,1.95-2.83,1.89.94,1.89,2.82ZM44.01,89.62c0,1.52.38,2.24,1.1,2.24s1.09-.73,1.09-2.24c0-1.43-.35-2.13-1.09-2.13s-1.1.63-1.1,2.14ZM48.07,92.45v-7.83h.8v7.83h-.8ZM53.77,89.6c0,1.96-.66,2.96-1.92,2.96s-1.92-.96-1.92-2.94.76-2.83,1.95-2.83,1.89.94,1.89,2.82ZM50.75,89.62c0,1.52.38,2.24,1.1,2.24s1.09-.73,1.09-2.24c0-1.43-.35-2.13-1.09-2.13s-1.1.63-1.1,2.14ZM58.33,92.1c0,1.47-.35,2.49-1.95,2.49-1.44,0-1.75-.94-1.78-1.54h.82c.02.31.2.85.99.85.94,0,1.13-.68,1.13-1.81v-.51c-.2.57-.67.85-1.3.85-1.13,0-1.68-.95-1.68-2.71,0-2.01.74-2.95,1.8-2.95.76,0,1.08.37,1.18.73,0-.25.03-.52.04-.64h.77c-.01.29-.01.86-.01,1.61v3.61ZM55.38,89.71c0,1.35.37,2.01,1.06,2.01.86,0,1.1-.85,1.1-2.15s-.18-2.08-1.03-2.08c-.74,0-1.13.77-1.13,2.22ZM59.66,86.87h.8v5.58h-.8v-5.58ZM59.67,84.62h.8v1.15h-.8v-1.15ZM62.33,89.81c0,1.09.19,2.05,1.07,2.05s.99-.83,1.02-1h.79c-.01.14-.17,1.69-1.81,1.69s-1.87-1.51-1.87-2.89c0-1.77.6-2.88,1.92-2.88,1.47,0,1.81,1.21,1.81,2.6,0,.11,0,.29-.01.43h-2.91ZM64.45,89.18c0-.96-.2-1.71-1.02-1.71-1.02,0-1.07,1.33-1.09,1.71h2.1ZM64.45,89.18h0ZM69.37,90.21v-.15c0-.57.14-1.07.74-1.87.45-.61.6-1.01.6-1.52,0-.61-.23-1.11-.88-1.11-.6,0-.89.5-.92,1.3h-.76c.02-.87.36-1.97,1.72-1.97,1.22,0,1.65.79,1.65,1.78,0,.79-.25,1.26-.84,2.04-.39.53-.51.96-.51,1.41v.08h-.81ZM69.36,92.46v-1.38h.81v1.38h-.81Z"/>
    <path class="cls-1" d="M29.84,107.51c0,.35.03.81.04.99h-.74c-.03-.12-.06-.42-.06-.63-.21.45-.63.73-1.32.73-1.07,0-1.46-.84-1.46-1.61,0-1.02.69-1.79,2.15-1.79.26,0,.42,0,.58.02v-.74c0-.44-.08-.99-.84-.99-.82,0-.87.59-.9.96h-.78c.02-.8.4-1.62,1.71-1.62,1.08,0,1.6.53,1.6,1.55v3.13ZM29.07,105.85c-.14-.02-.29-.03-.55-.03-.99,0-1.4.48-1.4,1.1,0,.51.27.99.87.99.82,0,1.08-.58,1.08-1.75v-.3ZM30.92,106.98h.82v1.51h-.82v-1.51ZM34.94,101.02h1.66c1.72,0,2.5,1.2,2.5,3.54,0,2.54-.7,3.93-2.62,3.93h-1.54v-7.47ZM35.76,107.79h.68c1.37,0,1.8-1.08,1.8-3.2,0-1.98-.51-2.86-1.79-2.86h-.7v6.06ZM43.42,107.51c0,.35.03.81.04.99h-.74c-.03-.12-.06-.42-.06-.63-.21.45-.63.73-1.32.73-1.07,0-1.46-.84-1.46-1.61,0-1.02.69-1.79,2.15-1.79.26,0,.42,0,.58.02v-.74c0-.44-.08-.99-.84-.99-.82,0-.87.59-.9.96h-.78c.02-.8.4-1.62,1.71-1.62,1.08,0,1.6.53,1.6,1.55v3.13ZM42.65,105.85c-.14-.02-.29-.03-.55-.03-.99,0-1.4.48-1.4,1.1,0,.51.27.99.87.99.82,0,1.08-.58,1.08-1.75v-.3ZM44.75,102.91h.78c.01.14.03.36.03.73.19-.44.57-.83,1.32-.83.81,0,1.43.46,1.43,1.7v3.97h-.81v-3.82c0-.68-.22-1.14-.86-1.14-.75,0-1.07.49-1.07,1.64v3.32h-.81v-3.85c0-1.14,0-1.47-.01-1.73ZM51.01,107.93c.61,0,.9-.37.9-.88,0-.58-.3-.84-1.03-1.13-1.15-.44-1.49-.86-1.49-1.63s.46-1.47,1.6-1.47c1.25,0,1.6.85,1.61,1.59h-.79c-.01-.27-.07-.93-.85-.93-.53,0-.77.33-.77.77s.19.67.97.96c1.08.42,1.56.81,1.56,1.77,0,1.02-.64,1.62-1.75,1.62s-1.72-.69-1.75-1.71h.8c.04.6.35,1.05.99,1.05ZM55.81,108.49v-7.83h.8v7.83h-.8ZM58.48,105.85c0,1.09.19,2.05,1.07,2.05s.99-.83,1.02-1h.79c-.01.14-.17,1.69-1.81,1.69s-1.87-1.51-1.87-2.89c0-1.77.6-2.88,1.92-2.88,1.47,0,1.81,1.21,1.81,2.6,0,.11,0,.29-.01.43h-2.91ZM60.6,105.22c0-.96-.2-1.71-1.02-1.71-1.02,0-1.07,1.33-1.09,1.71h2.1ZM60.6,105.22h0ZM63.87,107.93c.61,0,.9-.37.9-.88,0-.58-.3-.84-1.03-1.13-1.15-.44-1.49-.86-1.49-1.63s.46-1.47,1.6-1.47c1.25,0,1.6.85,1.61,1.59h-.79c-.01-.27-.07-.93-.85-.93-.53,0-.77.33-.77.77s.19.67.97.96c1.08.42,1.56.81,1.56,1.77,0,1.02-.64,1.62-1.75,1.62s-1.72-.69-1.75-1.71h.8c.04.6.35,1.05.99,1.05ZM68.67,108.49v-7.83h.8v7.83h-.8ZM70.81,102.91h.8v5.58h-.8v-5.58ZM70.81,100.66h.8v1.15h-.8v-1.15ZM73.24,102.91c.46,1.81,1.01,3.99,1.12,4.67h.01c.07-.62.91-3.53,1.18-4.67h.81l-1.6,5.58h-.87l-1.51-5.58h.85ZM77.04,102.91h.77c.01.14.03.4.03,1,.24-.67.78-1.07,1.47-1.08v.89c-.96.03-1.46.63-1.46,1.66v3.12h-.8v-3.68c0-.89,0-1.5-.01-1.9ZM80.56,105.85c0,1.09.19,2.05,1.07,2.05s.99-.83,1.02-1h.79c-.01.14-.17,1.69-1.81,1.69s-1.87-1.51-1.87-2.89c0-1.77.6-2.88,1.92-2.88,1.47,0,1.81,1.21,1.81,2.6,0,.11,0,.29-.01.43h-2.91ZM82.67,105.22c0-.96-.2-1.71-1.02-1.71-1.02,0-1.07,1.33-1.09,1.71h2.1ZM82.67,105.22h0ZM85.95,107.93c.61,0,.9-.37.9-.88,0-.58-.3-.84-1.03-1.13-1.15-.44-1.49-.86-1.49-1.63s.46-1.47,1.6-1.47c1.25,0,1.6.85,1.61,1.59h-.79c-.01-.27-.07-.93-.85-.93-.53,0-.77.33-.77.77s.19.67.97.96c1.08.42,1.56.81,1.56,1.77,0,1.02-.64,1.62-1.75,1.62s-1.72-.69-1.75-1.71h.8c.04.6.35,1.05.99,1.05Z"/>
    <path class="cls-1" d="M26.6,116.7h.8v2.99c.18-.43.57-.83,1.33-.83,1.07,0,1.63.89,1.63,2.74,0,1.72-.46,3.02-1.78,3.02-.71,0-1.03-.36-1.2-.75,0,.18-.01.44-.03.66h-.76c.01-.3.01-.85.01-1.53v-6.3ZM29.55,121.61c0-1.4-.33-2.04-1.03-2.04-.86,0-1.14.77-1.14,2.18,0,1.34.22,2.16,1.06,2.16.74,0,1.1-.72,1.1-2.3ZM31.12,123.02h.82v1.51h-.82v-1.51ZM34.68,122.57h.82c.06.77.43,1.38,1.25,1.38s1.18-.43,1.18-1.29c0-.79-.32-1.2-1.33-1.69-1.17-.56-1.69-1.08-1.69-2.16,0-1.03.66-1.85,1.88-1.85,1.44,0,1.83,1.03,1.85,1.91h-.81c-.04-.36-.15-1.23-1.08-1.23-.72,0-1.02.49-1.02,1.09,0,.72.32,1.05,1.26,1.5,1.31.62,1.78,1.25,1.78,2.36,0,1.18-.67,2.04-2.04,2.04-1.5,0-1.99-.98-2.05-2.07h0ZM43.19,123c0,.7,0,1.26.01,1.53h-.77c-.03-.16-.04-.38-.04-.74-.2.55-.67.84-1.33.84s-1.39-.27-1.39-1.67v-4.01h.81v3.82c0,.71.2,1.15.84,1.15s1.06-.38,1.06-1.58v-3.39h.81v4.05ZM44.43,118.95h.77c.01.14.03.4.03,1,.24-.67.78-1.07,1.47-1.08v.89c-.96.03-1.46.63-1.46,1.66v3.12h-.8v-3.68c0-.89,0-1.5-.01-1.9ZM54.18,117.77h-.02c-.27,1.29-.95,4.4-1.55,6.76h-.79c-.45-2.05-1.16-5.4-1.43-6.78h-.03c.04.87.08,2.52.08,3.8v2.98h-.77v-7.47h1.22c.6,2.35,1.19,5.19,1.37,6.17h.01c.14-.81.87-3.91,1.46-6.17h1.21v7.47h-.8v-3.18c0-1.39.02-2.79.04-3.58ZM56.79,121.89c0,1.09.19,2.05,1.07,2.05s.99-.83,1.02-1h.79c-.01.14-.17,1.69-1.81,1.69s-1.87-1.51-1.87-2.89c0-1.77.6-2.88,1.92-2.88,1.47,0,1.81,1.21,1.81,2.6,0,.11,0,.29-.01.43h-2.91ZM58.9,121.26c0-.96-.2-1.71-1.02-1.71-1.02,0-1.07,1.33-1.09,1.71h2.1ZM58.9,121.26h0ZM64.3,116.7v6.4c0,.54,0,1.1.01,1.43h-.78c-.01-.14-.03-.51-.03-.75-.17.48-.53.85-1.31.85-1.16,0-1.65-.99-1.65-2.95,0-1.78.66-2.82,1.83-2.82.72,0,1,.31,1.13.58v-2.74h.8ZM61.37,121.69c0,1.61.37,2.22,1.05,2.22.87,0,1.1-.74,1.1-2.25,0-1.63-.23-2.09-1.03-2.09-.66,0-1.11.58-1.11,2.12ZM65.64,124.53v-7.83h.8v7.83h-.8ZM67.77,118.95h.8v5.58h-.8v-5.58ZM67.77,116.7h.8v1.15h-.8v-1.15ZM69.89,118.95h.78c.01.14.03.36.03.73.19-.44.57-.83,1.32-.83.81,0,1.43.46,1.43,1.7v3.97h-.81v-3.82c0-.68-.22-1.14-.86-1.14-.75,0-1.07.49-1.07,1.64v3.32h-.81v-3.85c0-1.14,0-1.47-.01-1.73ZM75.31,121.89c0,1.09.19,2.05,1.07,2.05s.99-.83,1.02-1h.79c-.01.14-.17,1.69-1.81,1.69s-1.87-1.51-1.87-2.89c0-1.77.6-2.88,1.92-2.88,1.47,0,1.81,1.21,1.81,2.6,0,.11,0,.29-.01.43h-2.91ZM77.43,121.26c0-.96-.2-1.71-1.02-1.71-1.02,0-1.07,1.33-1.09,1.71h2.1ZM77.43,121.26h0ZM81.65,118.95c.46,1.81,1.01,3.99,1.12,4.67h.01c.07-.62.91-3.53,1.18-4.67h.81l-1.6,5.58h-.87l-1.51-5.58h.85ZM85.53,118.95h.8v5.58h-.8v-5.58ZM85.54,116.7h.8v1.15h-.8v-1.15ZM90.85,123.54c0,.35.03.81.04.99h-.74c-.03-.12-.06-.42-.06-.63-.21.45-.63.73-1.32.73-1.07,0-1.46-.84-1.46-1.61,0-1.02.69-1.79,2.15-1.79.26,0,.42,0,.58.02v-.74c0-.44-.08-.99-.84-.99-.82,0-.87.59-.9.96h-.78c.02-.8.4-1.62,1.71-1.62,1.08,0,1.6.53,1.6,1.55v3.13ZM90.08,121.89c-.14-.02-.29-.03-.55-.03-.99,0-1.4.48-1.4,1.1,0,.51.27.99.87.99.82,0,1.08-.58,1.08-1.75v-.3ZM94.37,117.06h1.93c1.17,0,1.98.74,1.98,2.08s-.73,2.16-2.1,2.16h-.99v3.23h-.82v-7.47ZM95.19,120.61h.9c.9,0,1.36-.48,1.36-1.48,0-.83-.43-1.38-1.26-1.38h-.99v2.85ZM102.67,123c0,.7,0,1.26.01,1.53h-.77c-.03-.16-.04-.38-.04-.74-.2.55-.67.84-1.33.84s-1.39-.27-1.39-1.67v-4.01h.81v3.82c0,.71.2,1.15.84,1.15s1.06-.38,1.06-1.58v-3.39h.81v4.05ZM103.99,116.7h.8v2.99c.18-.43.57-.83,1.33-.83,1.07,0,1.63.89,1.63,2.74,0,1.72-.46,3.02-1.78,3.02-.71,0-1.03-.36-1.2-.75,0,.18-.01.44-.03.66h-.76c.01-.3.01-.85.01-1.53v-6.3ZM106.93,121.61c0-1.4-.33-2.04-1.03-2.04-.86,0-1.14.77-1.14,2.18,0,1.34.22,2.16,1.06,2.16.74,0,1.1-.72,1.1-2.3ZM113.32,117.77h-.02c-.27,1.29-.95,4.4-1.55,6.76h-.79c-.45-2.05-1.16-5.4-1.43-6.78h-.03c.04.87.08,2.52.08,3.8v2.98h-.77v-7.47h1.22c.6,2.35,1.19,5.19,1.37,6.17h.01c.14-.81.87-3.91,1.46-6.17h1.21v7.47h-.8v-3.18c0-1.39.02-2.79.04-3.58ZM115.93,121.89c0,1.09.19,2.05,1.07,2.05s.99-.83,1.02-1h.79c-.01.14-.17,1.69-1.81,1.69s-1.87-1.51-1.87-2.89c0-1.77.6-2.88,1.92-2.88,1.47,0,1.81,1.21,1.81,2.6,0,.11,0,.29-.01.43h-2.91ZM118.05,121.26c0-.96-.2-1.71-1.02-1.71-1.02,0-1.07,1.33-1.09,1.71h2.1ZM118.05,121.26h0ZM123.45,116.7v6.4c0,.54,0,1.1.01,1.43h-.78c-.01-.14-.03-.51-.03-.75-.17.48-.53.85-1.31.85-1.16,0-1.65-.99-1.65-2.95,0-1.78.66-2.82,1.83-2.82.72,0,1,.31,1.13.58v-2.74h.8ZM120.51,121.69c0,1.61.37,2.22,1.05,2.22.87,0,1.1-.74,1.1-2.25,0-1.63-.23-2.09-1.03-2.09-.66,0-1.11.58-1.11,2.12Z"/>
    <path class="cls-1" d="M29.95,138.86c-.02.3-.14,1.8-1.77,1.8-1.46,0-1.85-1.29-1.85-2.91s.51-2.87,1.93-2.87c1.62,0,1.7,1.5,1.7,1.76h-.82c-.01-.23-.09-1.07-.88-1.07s-1.1.88-1.1,2.17c0,1.39.3,2.22,1.06,2.22.81,0,.9-.81.94-1.11h.8ZM30.83,139.06h.82v1.51h-.82v-1.51ZM34.39,138.6h.82c.06.77.43,1.38,1.25,1.38s1.18-.43,1.18-1.29c0-.79-.32-1.2-1.33-1.69-1.17-.56-1.69-1.08-1.69-2.16,0-1.03.66-1.85,1.88-1.85,1.44,0,1.83,1.03,1.85,1.91h-.81c-.04-.36-.15-1.23-1.08-1.23-.72,0-1.02.49-1.02,1.09,0,.72.32,1.05,1.26,1.5,1.31.62,1.78,1.25,1.78,2.36,0,1.18-.67,2.04-2.04,2.04-1.5,0-1.99-.98-2.05-2.07h0ZM42.9,139.04c0,.7,0,1.26.01,1.53h-.77c-.03-.16-.04-.38-.04-.74-.2.55-.67.84-1.33.84s-1.39-.27-1.39-1.67v-4.01h.81v3.82c0,.71.2,1.15.84,1.15s1.06-.38,1.06-1.58v-3.39h.81v4.05ZM44.14,134.99h.77c.01.14.03.4.03,1,.24-.67.78-1.07,1.47-1.08v.89c-.96.03-1.46.63-1.46,1.66v3.12h-.8v-3.68c0-.89,0-1.5-.01-1.9ZM53.26,138.5c-.03.43-.22,2.18-2.03,2.18-1.99,0-2.14-2.1-2.14-3.9,0-2.17.57-3.79,2.23-3.79,1.8,0,1.9,1.69,1.92,2.14h-.83c-.01-.25-.06-1.41-1.11-1.41-1.18,0-1.36,1.61-1.36,3.06,0,1.58.17,3.17,1.3,3.17,1,0,1.15-1.08,1.18-1.46h.83ZM55.1,133.09v7.47h-.82v-7.47h.82ZM56.59,133.09h1.01c2.07,5.17,2.36,5.88,2.45,6.2h.01c-.05-1-.07-2.13-.07-3.34v-2.86h.77v7.47h-.97c-2.15-5.43-2.41-6.12-2.49-6.42h-.01c.06.93.06,2.16.06,3.5v2.91h-.77v-7.47ZM62.43,140.57h-.82s1.8-7.47,1.8-7.47h1.06l1.86,7.47h-.87l-.55-2.37h-1.94l-.54,2.37ZM64.75,137.47c-.43-1.84-.71-3-.81-3.6h-.03c-.1.65-.41,1.99-.77,3.6h1.61ZM67.16,133.09h.82v3.16h2.42v-3.16h.82v7.47h-.82v-3.59h-2.42v3.59h-.82v-7.47ZM72.7,133.09h.82v6.75h2.67l-.12.72h-3.37v-7.47Z"/>
    <path class="cls-1" d="M30.08,148.77v6.4c0,.54,0,1.1.01,1.43h-.78c-.01-.14-.03-.51-.03-.75-.17.48-.53.85-1.31.85-1.16,0-1.65-.99-1.65-2.95,0-1.78.66-2.82,1.83-2.82.72,0,1,.31,1.13.58v-2.74h.8ZM27.15,153.77c0,1.61.37,2.22,1.05,2.22.87,0,1.1-.74,1.1-2.25,0-1.63-.23-2.09-1.03-2.09-.66,0-1.11.58-1.11,2.12ZM31.14,155.1h.82v1.51h-.82v-1.51ZM34.7,154.64h.82c.06.77.43,1.38,1.25,1.38s1.18-.43,1.18-1.29c0-.79-.32-1.2-1.33-1.69-1.17-.56-1.69-1.08-1.69-2.16,0-1.03.66-1.85,1.88-1.85,1.44,0,1.83,1.03,1.85,1.91h-.81c-.04-.36-.15-1.23-1.08-1.23-.72,0-1.02.49-1.02,1.09,0,.72.32,1.05,1.26,1.5,1.31.62,1.78,1.25,1.78,2.36,0,1.18-.67,2.04-2.04,2.04-1.5,0-1.99-.98-2.05-2.07h0ZM43.21,155.08c0,.7,0,1.26.01,1.53h-.77c-.03-.16-.04-.38-.04-.74-.2.55-.67.84-1.33.84s-1.39-.27-1.39-1.67v-4.01h.81v3.82c0,.71.2,1.15.84,1.15s1.06-.38,1.06-1.58v-3.39h.81v4.05ZM44.45,151.03h.77c.01.14.03.4.03,1,.24-.67.78-1.07,1.47-1.08v.89c-.96.03-1.46.63-1.46,1.66v3.12h-.8v-3.68c0-.89,0-1.5-.01-1.9ZM49.6,156.6v-7.83h.8v7.83h-.8ZM52.27,153.97c0,1.09.19,2.05,1.07,2.05s.99-.83,1.02-1h.79c-.01.14-.17,1.69-1.81,1.69s-1.87-1.51-1.87-2.89c0-1.77.6-2.88,1.92-2.88,1.47,0,1.81,1.21,1.81,2.6,0,.11,0,.29-.01.43h-2.91ZM54.38,153.33c0-.96-.2-1.71-1.02-1.71-1.02,0-1.07,1.33-1.09,1.71h2.1ZM54.38,153.33h0ZM57.65,156.05c.61,0,.9-.37.9-.88,0-.58-.3-.84-1.03-1.13-1.15-.44-1.49-.86-1.49-1.63s.46-1.47,1.6-1.47c1.25,0,1.6.85,1.61,1.59h-.79c-.01-.27-.07-.93-.85-.93-.53,0-.77.33-.77.77s.19.67.97.96c1.08.42,1.56.81,1.56,1.77,0,1.02-.64,1.62-1.75,1.62s-1.72-.69-1.75-1.71h.8c.04.6.35,1.05.99,1.05ZM63.84,156.05c.61,0,.9-.37.9-.88,0-.58-.3-.84-1.03-1.13-1.15-.44-1.49-.86-1.49-1.63s.46-1.47,1.6-1.47c1.25,0,1.6.85,1.61,1.59h-.79c-.01-.27-.07-.93-.85-.93-.53,0-.77.33-.77.77s.19.67.97.96c1.08.42,1.56.81,1.56,1.77,0,1.02-.64,1.62-1.75,1.62s-1.72-.69-1.75-1.71h.8c.04.6.35,1.05.99,1.05ZM66.52,151.03h.8v5.58h-.8v-5.58ZM66.52,148.77h.8v1.15h-.8v-1.15ZM68.07,151.03h.79v-1.49h.8v1.49h.97v.69h-.97v3.66c0,.38.08.62.5.62.13,0,.29,0,.39-.03v.62c-.19.07-.47.09-.66.09-.66,0-1.04-.27-1.04-1.15v-3.82h-.79v-.69ZM71.87,153.97c0,1.09.19,2.05,1.07,2.05s.99-.83,1.02-1h.79c-.01.14-.17,1.69-1.81,1.69s-1.87-1.51-1.87-2.89c0-1.77.6-2.88,1.92-2.88,1.47,0,1.81,1.21,1.81,2.6,0,.11,0,.29-.01.43h-2.91ZM73.99,153.33c0-.96-.2-1.71-1.02-1.71-1.02,0-1.07,1.33-1.09,1.71h2.1ZM73.99,153.33h0ZM77.26,156.05c.61,0,.9-.37.9-.88,0-.58-.3-.84-1.03-1.13-1.15-.44-1.49-.86-1.49-1.63s.46-1.47,1.6-1.47c1.25,0,1.6.85,1.61,1.59h-.79c-.01-.27-.07-.93-.85-.93-.53,0-.77.33-.77.77s.19.67.97.96c1.08.42,1.56.81,1.56,1.77,0,1.02-.64,1.62-1.75,1.62s-1.72-.69-1.75-1.71h.8c.04.6.35,1.05.99,1.05ZM82.42,151.03c.54,2.65.8,3.92.9,4.68h.01c.11-.73.34-1.6,1.03-4.68h.77c.66,2.92.9,4.05.98,4.66h.01c.08-.61.29-1.61.94-4.66h.82l-1.37,5.58h-.85c-.4-1.82-.82-3.64-.94-4.5h-.01c-.11.83-.51,2.47-.99,4.5h-.88l-1.28-5.58h.86ZM89.19,153.97c0,1.09.19,2.05,1.07,2.05s.99-.83,1.02-1h.79c-.01.14-.17,1.69-1.81,1.69s-1.87-1.51-1.87-2.89c0-1.77.6-2.88,1.92-2.88,1.47,0,1.81,1.21,1.81,2.6,0,.11,0,.29-.01.43h-2.91ZM91.31,153.33c0-.96-.2-1.71-1.02-1.71-1.02,0-1.07,1.33-1.09,1.71h2.1ZM91.31,153.33h0ZM93.14,148.77h.8v2.99c.18-.43.57-.83,1.33-.83,1.07,0,1.63.89,1.63,2.74,0,1.72-.46,3.02-1.78,3.02-.71,0-1.03-.36-1.2-.75,0,.18-.01.44-.03.66h-.76c.01-.3.01-.85.01-1.53v-6.3ZM96.09,153.69c0-1.4-.33-2.04-1.03-2.04-.86,0-1.14.77-1.14,2.18,0,1.34.22,2.16,1.06,2.16.74,0,1.1-.72,1.1-2.3ZM101.4,156.05c.61,0,.9-.37.9-.88,0-.58-.3-.84-1.03-1.13-1.15-.44-1.49-.86-1.49-1.63s.46-1.47,1.6-1.47c1.25,0,1.6.85,1.61,1.59h-.79c-.01-.27-.07-.93-.85-.93-.53,0-.77.33-.77.77s.19.67.97.96c1.08.42,1.56.81,1.56,1.77,0,1.02-.64,1.62-1.75,1.62s-1.72-.69-1.75-1.71h.8c.04.6.35,1.05.99,1.05ZM104.84,156.03v2.62h-.8v-6c0-.76,0-1.28-.01-1.63h.78c.01.1.03.47.03.75.2-.48.59-.84,1.33-.84,1.06,0,1.63.94,1.63,2.8,0,2.01-.7,2.97-1.79,2.97-.67,0-1-.32-1.16-.67ZM106.97,153.78c0-1.4-.32-2.13-1.06-2.13-.86,0-1.1.82-1.1,2.14s.13,2.21,1.05,2.21c.73,0,1.1-.85,1.1-2.22ZM109.4,153.97c0,1.09.19,2.05,1.07,2.05s.99-.83,1.02-1h.79c-.01.14-.17,1.69-1.81,1.69s-1.87-1.51-1.87-2.89c0-1.77.6-2.88,1.92-2.88,1.47,0,1.81,1.21,1.81,2.6,0,.11,0,.29-.01.43h-2.91ZM111.52,153.33c0-.96-.2-1.71-1.02-1.71-1.02,0-1.07,1.33-1.09,1.71h2.1ZM112.04,148.65l-1.38,1.53h-.75l1.18-1.53h.95ZM111.52,153.33h0ZM116.78,154.9c-.02.3-.14,1.8-1.77,1.8-1.46,0-1.85-1.29-1.85-2.91s.51-2.87,1.93-2.87c1.62,0,1.7,1.5,1.7,1.76h-.82c-.01-.23-.09-1.07-.88-1.07s-1.1.88-1.1,2.17c0,1.39.3,2.22,1.06,2.22.81,0,.9-.81.94-1.11h.8ZM117.74,151.03h.8v5.58h-.8v-5.58ZM117.75,148.77h.8v1.15h-.8v-1.15ZM123.06,155.62c0,.35.03.81.04.99h-.74c-.03-.12-.06-.42-.06-.63-.21.45-.63.73-1.32.73-1.07,0-1.46-.84-1.46-1.61,0-1.02.69-1.79,2.15-1.79.26,0,.42,0,.58.02v-.74c0-.44-.08-.99-.84-.99-.82,0-.87.59-.9.96h-.78c.02-.8.4-1.62,1.71-1.62,1.08,0,1.6.53,1.6,1.55v3.13ZM122.29,153.96c-.14-.02-.29-.03-.55-.03-.99,0-1.4.48-1.4,1.1,0,.51.27.99.87.99.82,0,1.08-.58,1.08-1.75v-.3ZM124.4,156.6v-7.83h.8v7.83h-.8ZM126.53,151.03h.8v5.58h-.8v-5.58ZM126.54,148.77h.8v1.15h-.8v-1.15ZM130.03,156.05c.61,0,.9-.37.9-.88,0-.58-.3-.84-1.03-1.13-1.15-.44-1.49-.86-1.49-1.63s.46-1.47,1.6-1.47c1.25,0,1.6.85,1.61,1.59h-.79c-.01-.27-.07-.93-.85-.93-.53,0-.77.33-.77.77s.19.67.97.96c1.08.42,1.56.81,1.56,1.77,0,1.02-.64,1.62-1.75,1.62s-1.72-.69-1.75-1.71h.8c.04.6.35,1.05.99,1.05ZM133.28,153.97c0,1.09.19,2.05,1.07,2.05s.99-.83,1.02-1h.79c-.01.14-.17,1.69-1.81,1.69s-1.87-1.51-1.87-2.89c0-1.77.6-2.88,1.92-2.88,1.47,0,1.81,1.21,1.81,2.6,0,.11,0,.29-.01.43h-2.91ZM135.4,153.33c0-.96-.2-1.71-1.02-1.71-1.02,0-1.07,1.33-1.09,1.71h2.1ZM135.92,148.65l-1.38,1.53h-.75l1.18-1.53h.95ZM135.4,153.33h0ZM138.67,156.05c.61,0,.9-.37.9-.88,0-.58-.3-.84-1.03-1.13-1.15-.44-1.49-.86-1.49-1.63s.46-1.47,1.6-1.47c1.25,0,1.6.85,1.61,1.59h-.79c-.01-.27-.07-.93-.85-.93-.53,0-.77.33-.77.77s.19.67.97.96c1.08.42,1.56.81,1.56,1.77,0,1.02-.64,1.62-1.75,1.62s-1.72-.69-1.75-1.71h.8c.04.6.35,1.05.99,1.05Z"/>
  </g>
</svg>