<?xml version="1.0" encoding="UTF-8"?>
<svg id="Calque_1" data-name="Calque 1" xmlns="http://www.w3.org/2000/svg" xmlns:xlink="http://www.w3.org/1999/xlink" viewBox="0 0 195.59 269.29">
  <defs>
    <style>
      .cls-1 {
        font-size: 34.51px;
      }

      .cls-1, .cls-2 {
        font-family: Socafe, Socafe;
      }

      .cls-1, .cls-2, .cls-3 {
        fill: #f39207;
      }

      .cls-2 {
        font-size: 35.7px;
      }

      .cls-4, .cls-5 {
        fill: #1d1d1b;
      }

      .cls-6 {
        letter-spacing: -.05em;
      }

      .cls-7 {
        fill: #fff;
      }

      .cls-8 {
        letter-spacing: .06em;
      }

      .cls-9 {
        letter-spacing: .06em;
      }

      .cls-10, .cls-11, .cls-12, .cls-13 {
        fill: none;
      }

      .cls-14 {
        letter-spacing: -.05em;
      }

      .cls-11, .cls-12 {
        stroke-linecap: round;
        stroke-width: 3px;
      }

      .cls-11, .cls-13 {
        stroke: #f39207;
      }

      .cls-15 {
        clip-path: url(#clippath-1);
      }

      .cls-16 {
        fill: #f39200;
      }

      .cls-17 {
        fill: #507cbe;
      }

      .cls-18 {
        letter-spacing: -.05em;
      }

      .cls-19 {
        clip-path: url(#clippath-3);
      }

      .cls-12 {
        stroke: #ffcb04;
      }

      .cls-20 {
        letter-spacing: -.05em;
      }

      .cls-21 {
        letter-spacing: .08em;
      }

      .cls-5 {
        font-family: ActionMan, 'Action Man';
        font-size: 7.12px;
      }

      .cls-22 {
        letter-spacing: .08em;
      }

      .cls-23 {
        letter-spacing: -.05em;
      }

      .cls-24 {
        fill: #31a852;
      }

      .cls-25 {
        clip-path: url(#clippath-2);
      }

      .cls-26 {
        letter-spacing: .06em;
      }

      .cls-27 {
        letter-spacing: .08em;
      }

      .cls-28 {
        fill: #ffcd02;
      }

      .cls-29 {
        clip-path: url(#clippath);
      }

      .cls-30 {
        letter-spacing: 0em;
      }
    </style>
    <clipPath id="clippath">
      <rect class="cls-10" width="195.59" height="269.29"/>
    </clipPath>
    <clipPath id="clippath-1">
      <rect class="cls-10" width="195.59" height="269.29"/>
    </clipPath>
    <clipPath id="clippath-2">
      <rect class="cls-10" x="16.3" y="217.56" width="179.29" height="35.74"/>
    </clipPath>
    <clipPath id="clippath-3">
      <rect class="cls-10" width="195.59" height="269.29"/>
    </clipPath>
  </defs>
  <g class="cls-29">
    <g class="cls-15">
      <text class="cls-2" transform="translate(43.6 45.34) scale(1 1.12)"><tspan x="0" y="0">J</tspan></text>
      <text class="cls-1" transform="translate(65.55 45.34)"><tspan x="0" y="0">OKER</tspan></text>
      <path class="cls-3" d="M78.6,24.09c-.37,0-.77-.05-1.14-.01-.64.06-.69.28-1.2.6-.49.3-1.15.58-1.7.83-.64.3-.87.59-1.35,1.12-.59.65-1.23,1.43-1.49,2.35-.44,1.54-.21,3.36-.21,4.96,0,.75-.14,1.68-.01,2.42.15.87.87,1.42,1.43,1.9.87.76,1.37.41,2.48.55.98.12,1.82.29,2.83.3,1.23.01,2.09.07,2.57-1.28.25-.68.35-1.1.7-1.76.05-.31.16-.59.33-.86.26-.26.5-.54.69-.85.28-.81.03-2.03.03-2.88,0-.95.02-1.91,0-2.86-.02-1.22-1.15-1.77-1.79-2.78-.57-.89-1.04-1.92-2.18-2.04"/>
      <path class="cls-13" d="M78.6,24.09c-.37,0-.77-.05-1.14-.01-.64.06-.69.28-1.2.6-.49.3-1.15.58-1.7.83-.64.3-.87.59-1.35,1.12-.59.65-1.23,1.43-1.49,2.35-.44,1.54-.21,3.36-.21,4.96,0,.75-.14,1.68-.01,2.42.15.87.87,1.42,1.43,1.9.87.76,1.37.41,2.48.55.98.12,1.82.29,2.83.3,1.23.01,2.09.07,2.57-1.28.25-.68.35-1.1.7-1.76.05-.31.16-.59.33-.86.26-.26.5-.54.69-.85.28-.81.03-2.03.03-2.88,0-.95.02-1.91,0-2.86-.02-1.22-1.15-1.77-1.79-2.78-.57-.89-1.04-1.92-2.18-2.04"/>
      <line class="cls-12" x1="24.8" y1="20.13" x2="33.9" y2="24.94"/>
      <line class="cls-11" x1="25" y1="20.13" x2="34.1" y2="24.94"/>
      <line class="cls-11" x1="22.48" y1="32.6" x2="31.97" y2="32.6"/>
      <line class="cls-11" x1="25" y1="45.07" x2="34.1" y2="40.25"/>
      <line class="cls-12" x1="170.44" y1="20.13" x2="161.34" y2="24.94"/>
      <line class="cls-11" x1="172.76" y1="32.6" x2="163.27" y2="32.6"/>
      <line class="cls-11" x1="170.24" y1="20.13" x2="161.14" y2="24.94"/>
      <line class="cls-11" x1="170.24" y1="45.07" x2="161.14" y2="40.25"/>
      <g class="cls-25">
        <path class="cls-24" d="M27.32,243.65c-.2-.22-.29-.51-.25-.8l1.62-.43c.16-.04.26-.21.22-.37-.04-.16-.21-.26-.37-.22l-1.37.37c0-.14-.02-.28-.06-.42-.04-.14-.09-.27-.16-.39l1.37-.37c.16-.04.26-.21.22-.37-.04-.16-.21-.26-.37-.22l-1.62.43c-.43-.55-.15-1.35.45-1.51l5.14-1.38c.61-.16,1.25.4,1.15,1.08l-1.73.46c-.16.05-.26.21-.22.38.04.16.21.26.37.22l1.47-.39c0,.14.02.28.06.42.04.14.09.27.16.39l-1.47.39c-.16.04-.26.21-.22.37.04.16.21.26.37.22l1.73-.46c.18.23.25.53.18.82-.08.35-.35.61-.64.69l-5.14,1.38c-.28.08-.65-.01-.9-.28"/>
        <path class="cls-24" d="M29.04,244.35l3.83-1.03c.06.94-.54,1.83-1.49,2.08h-.01c-.94.26-1.91-.21-2.33-1.06"/>
        <path class="cls-28" d="M31.35,225.76c.1-.05.23-.02.28.09.18.33.32.69.42,1.06.03.11-.04.23-.15.26-.11.03-.23-.04-.26-.15-.09-.34-.22-.66-.38-.97-.06-.1-.02-.23.09-.28M30.81,225.01c-.08.08-.22.08-.3,0-.61-.64-1.42-1.11-2.33-1.3-.11-.02-.19-.13-.16-.25.02-.11.14-.18.25-.16.99.22,1.87.72,2.54,1.42.08.08.08.22,0,.3M30.99,222.85c1.34.96,2.3,2.41,2.62,4.24.23,1.34-.02,2.76-.71,3.98-.21.37-.59,1.17-.76,2.36-.18,1.19-.11,2.41.22,3.63.03.11-.04.23-.15.26l-2.42.65c-.11.03-.23-.04-.26-.15l-4.19-15.63c-.03-.11.04-.23.15-.26.61-.16,1.08-.21,1.28-.23,1.38-.14,2.94.25,4.22,1.16"/>
        <path class="cls-16" d="M21.9,226.44c-.19.46.2.85.2.85.07.07.07.19,0,.26-.07.07-.19.07-.27,0-.03-.02-.57-.56-.28-1.24.29-.69,1.06-.68,1.09-.68.1,0,.18.08.18.19,0,.1-.09.18-.2.18-.02,0-.54,0-.73.45M22.84,230.89c.02.1-.05.19-.15.21-.03,0-.81.15-1.23-.44-.43-.6.02-1.22.04-1.25.06-.08.18-.1.26-.05.08.06.1.17.04.25-.01.02-.31.44-.03.83.28.4.83.3.85.3.1-.02.2.04.22.14M26.65,233.32c.09-.05.21-.02.26.06.36.62.02,1.44-.72,1.64-.27.07-.57.05-.82-.07-.09-.05-.13-.15-.08-.24.05-.09.16-.13.26-.08.3.15.68.08.92-.16.24-.24.29-.61.12-.89-.05-.09-.02-.2.07-.25M23.05,227.65c.08-.06.2-.05.27.03.61.75,1.1.19,1.99-.01.34-.08.68-.06.99.09l-1.16-4.33c-.19-.73-.97-1.15-1.72-.95-.76.2-1.21.96-1.02,1.69l.05.2c.24-.03.48-.03.72.01.14-.06.54-.27.61-.77.01-.1.11-.17.21-.16.1.01.18.1.16.2-.06.42-.28.69-.5.86.34.12.65.33.94.54.08.06.1.17.03.26-.07.08-.18.1-.27.04-.16-.11-.32-.22-.47-.31-.93-.55-2.15-.39-2.85.54-.87,1.15-.36,2.72.97,2.95.1.02.17.11.15.21-.02.1-.12.17-.22.15-.3-.05-.57-.16-.81-.32-.16.11-.45.36-.65.77-.56,1.19.31,2.52,1.63,2.66,0,0,.83.07,1.54-.49.71-.56.13-1.1,1.71-1.52.1-.03.2.03.23.13.03.1-.03.2-.14.23-.81.22-.91.42-1.02.7h0c.46-.02.86.19,1.16.54.07.08.05.19-.03.26-.08.06-.2.06-.27-.02-.43-.5-.91-.42-1.06-.38-.41.6-1.47,1.07-2.36.9-.21,1.09.68,2.1,1.85,2.03-.06-.66.2-1.33.71-1.8.08-.07.2-.07.27,0,.07.07.07.19,0,.26-.5.47-.71,1.17-.54,1.81.11.4.35.74.66.97.31.23.54.44.74.81.35.65.67,1.45.87,2.22.03.11.14.18.26.15l2.18-.58c.11-.03.18-.15.15-.26l-1.69-6.32c-.1-.32-.51-.53-.83-.63-.1-.03-.15-.13-.12-.23.03-.1.14-.15.24-.12,0,0,.01,0,.02,0,.2.06.36.14.49.22l-.68-2.54c-.23-.27-.62-.41-1.07-.31-.81.19-1.56.86-2.37-.11-.06-.08-.05-.19.03-.26"/>
        <path class="cls-17" d="M19.21,223.91c-.07.02-.16.01-.23-.03l-1.45-.84c-.14-.08-.19-.27-.11-.41.08-.14.26-.19.41-.11l1.45.84c.14.08.19.26.11.41-.04.07-.11.12-.18.14"/>
        <path class="cls-17" d="M31.31,220.66c-.07.02-.16.01-.23-.03-.14-.08-.19-.27-.11-.41l.84-1.45c.08-.14.26-.19.41-.11.14.08.19.27.11.41l-.83,1.45c-.04.07-.11.12-.18.14"/>
        <path class="cls-17" d="M18.32,230.63l-1.62.43c-.16.04-.32-.05-.37-.21-.04-.16.05-.32.21-.37l1.61-.43c.16-.04.32.05.37.21.04.16-.05.32-.21.37"/>
        <path class="cls-17" d="M37.06,225.61l-1.62.43c-.16.04-.32-.05-.37-.21-.04-.16.05-.32.21-.37l1.61-.43c.16-.04.32.05.37.21.04.16-.05.32-.21.37"/>
        <path class="cls-17" d="M24.53,219.79c-.16.04-.32-.05-.37-.21l-.43-1.61c-.04-.16.05-.32.21-.37.16-.04.32.05.37.21l.43,1.61c.04.16-.05.32-.21.37"/>
        <path class="cls-17" d="M21.49,221.31c-.11.03-.24,0-.32-.11l-.53-.69c-.1-.13-.08-.32.06-.42.13-.1.32-.08.42.06l.53.69c.1.13.08.32-.06.42-.03.02-.07.04-.1.05"/>
        <path class="cls-17" d="M18.1,227.18s-.08.01-.12,0l-.87-.11c-.16-.02-.28-.17-.26-.33.02-.16.17-.28.33-.26l.87.11c.16.02.28.17.26.33-.02.12-.11.22-.22.25"/>
        <path class="cls-17" d="M33.91,222.94c-.11.03-.24,0-.32-.11-.1-.13-.08-.32.06-.42l.69-.53c.13-.1.32-.08.42.06.1.13.08.32-.06.42l-.69.53s-.07.04-.1.05"/>
        <path class="cls-17" d="M28.04,219.55s-.08.01-.12,0c-.16-.02-.28-.17-.26-.34l.11-.87c.02-.16.17-.28.33-.26.16.02.28.17.26.34l-.11.86c-.02.12-.11.22-.22.25"/>
        <path class="cls-16" d="M36.89,221.69c.04.24.06.5.03.75-.02.17-.06.33-.12.48,1.13-.09,2.2.64,2.51,1.78.17.62.08,1.27-.24,1.83-.32.56-.84.96-1.46,1.12l-1.61.43c-.06.02-.12.01-.18.02,0,1.38-.37,2.76-1.07,4-.11.2-.38.74-.52,1.63-.14.9-.08,1.84.17,2.77.01.05.02.11.03.16.74.69,1.1,1.68.95,2.68-.01.07-.03.14-.04.21.05.05.1.11.14.16.58.74.8,1.69.58,2.61-.16.7-.58,1.29-1.13,1.72-.24,1.6-1.39,2.95-3,3.39-.23.06-.46.1-.69.12v5.74h164.35v-31.61H36.89Z"/>
      </g>
      <text class="cls-5" transform="translate(42.39 232.06)"><tspan class="cls-14" x="0" y="0">Si</tspan><tspan class="cls-9" x="4.72" y="0"> </tspan><tspan class="cls-23" x="7.79" y="0">v</tspan><tspan class="cls-14" x="10.64" y="0">o</tspan><tspan class="cls-23" x="14.21" y="0">u</tspan><tspan class="cls-20" x="17.62" y="0">s</tspan><tspan class="cls-9" x="21.05" y="0"> </tspan><tspan class="cls-20" x="24.12" y="0">a</tspan><tspan class="cls-23" x="27.48" y="0">v</tspan><tspan class="cls-20" x="30.32" y="0">e</tspan><tspan class="cls-6" x="33.74" y="0">z</tspan><tspan class="cls-8" x="37.23" y="0"> </tspan><tspan class="cls-14" x="40.31" y="0">r</tspan><tspan class="cls-6" x="44.03" y="0">é</tspan><tspan class="cls-20" x="47.47" y="0">po</tspan><tspan class="cls-6" x="53.87" y="0">ndu</tspan><tspan class="cls-8" x="63.92" y="0"> </tspan><tspan class="cls-18" x="67" y="0">correcte</tspan><tspan class="cls-23" x="94.87" y="0">m</tspan><tspan class="cls-20" x="99.12" y="0">e</tspan><tspan class="cls-6" x="102.54" y="0">n</tspan><tspan class="cls-20" x="105.91" y="0">t,</tspan><tspan class="cls-26" x="110.29" y="0"> </tspan><tspan class="cls-14" x="113.37" y="0">p</tspan><tspan class="cls-6" x="116.2" y="0">l</tspan><tspan class="cls-20" x="118.95" y="0">aceZ</tspan><tspan x="132.4" y="0"> </tspan></text>
      <text class="cls-5" transform="translate(42.39 240.35)"><tspan class="cls-23" x="0" y="0">l</tspan><tspan class="cls-20" x="2.75" y="0">a</tspan><tspan class="cls-22" x="6.11" y="0"> </tspan><tspan class="cls-20" x="9.37" y="0">c</tspan><tspan class="cls-6" x="12.7" y="0">a</tspan><tspan class="cls-14" x="16.06" y="0">rte</tspan><tspan class="cls-21" x="26.53" y="0"> </tspan><tspan class="cls-14" x="29.79" y="0">s</tspan><tspan class="cls-6" x="33.23" y="0">u</tspan><tspan class="cls-14" x="36.63" y="0">r</tspan><tspan class="cls-22" x="40.36" y="0"> </tspan><tspan class="cls-23" x="43.61" y="0">l</tspan><tspan class="cls-14" x="46.36" y="0">’o</tspan><tspan class="cls-6" x="50.98" y="0">bj</tspan><tspan class="cls-20" x="57.93" y="0">e</tspan><tspan class="cls-6" x="61.36" y="0">t</tspan><tspan class="cls-27" x="64.68" y="0"> </tspan><tspan class="cls-6" x="67.93" y="0">d</tspan><tspan class="cls-20" x="71.21" y="0">e</tspan><tspan class="cls-21" x="74.63" y="0"> </tspan><tspan class="cls-23" x="77.89" y="0">v</tspan><tspan class="cls-14" x="80.73" y="0">otre</tspan><tspan class="cls-27" x="94.79" y="0"> </tspan><tspan class="cls-20" x="98.04" y="0">choix.</tspan><tspan class="cls-27" x="114.39" y="0"> </tspan><tspan class="cls-20" x="117.64" y="0">S</tspan><tspan class="cls-6" x="121.09" y="0">i</tspan><tspan class="cls-27" x="122.36" y="0"> </tspan><tspan class="cls-18" x="125.61" y="0">ce</tspan><tspan class="cls-30" x="132.38" y="0"> </tspan></text>
      <text class="cls-5" transform="translate(42.39 248.64)"><tspan class="cls-6" x="0" y="0">n</tspan><tspan class="cls-14" x="3.37" y="0">’est</tspan><tspan class="cls-23" x="14.6" y="0"> </tspan><tspan class="cls-20" x="16.92" y="0">pas </tspan><tspan class="cls-23" x="28.86" y="0">l</tspan><tspan class="cls-20" x="31.61" y="0">e</tspan><tspan class="cls-23" x="35.03" y="0" xml:space="preserve"> ca</tspan><tspan class="cls-14" x="44.03" y="0">s,</tspan><tspan class="cls-23" x="48.51" y="0"> </tspan><tspan class="cls-14" x="50.83" y="0">sorte</tspan><tspan class="cls-23" x="68.31" y="0">z</tspan><tspan class="cls-20" x="71.8" y="0" xml:space="preserve"> cet</tspan><tspan class="cls-23" x="84.21" y="0">t</tspan><tspan class="cls-18" x="87.53" y="0">e</tspan><tspan class="cls-23" x="90.96" y="0"> </tspan><tspan class="cls-20" x="93.27" y="0">car</tspan><tspan class="cls-6" x="103.69" y="0">t</tspan><tspan class="cls-20" x="107.02" y="0">e</tspan><tspan class="cls-23" x="110.44" y="0" xml:space="preserve"> du</tspan><tspan class="cls-20" x="119.43" y="0" xml:space="preserve"> je</tspan><tspan class="cls-23" x="128.51" y="0">u</tspan><tspan class="cls-20" x="131.92" y="0">.</tspan><tspan class="cls-30" x="133.11" y="0"> </tspan></text>
    </g>
    <path class="cls-4" d="M26.68,81.15h1.66c1.72,0,2.5,1.2,2.5,3.54,0,2.54-.7,3.93-2.62,3.93h-1.54v-7.47ZM27.5,87.92h.68c1.37,0,1.8-1.08,1.8-3.2,0-1.98-.51-2.86-1.79-2.86h-.7v6.06ZM32.59,85.98c0,1.09.19,2.05,1.07,2.05s.99-.83,1.02-1h.79c-.01.14-.17,1.69-1.81,1.69s-1.87-1.51-1.87-2.89c0-1.77.6-2.88,1.92-2.88,1.47,0,1.81,1.21,1.81,2.6,0,.11,0,.29-.01.43h-2.91ZM32.99,80.67l1.18,1.53h-.76l-1.39-1.53h.97ZM34.7,85.35c0-.96-.2-1.71-1.02-1.71-1.02,0-1.07,1.33-1.09,1.71h2.1ZM34.7,85.35h0ZM37.98,88.06c.61,0,.9-.37.9-.88,0-.58-.3-.84-1.03-1.13-1.15-.44-1.49-.86-1.49-1.63s.46-1.47,1.6-1.47c1.25,0,1.6.85,1.61,1.59h-.79c-.01-.27-.07-.93-.85-.93-.53,0-.77.33-.77.77s.19.67.97.96c1.08.42,1.56.81,1.56,1.77,0,1.02-.64,1.62-1.75,1.62s-1.72-.69-1.75-1.71h.8c.04.6.35,1.05.99,1.05ZM45.48,87.91c-.21.48-.59.8-1.31.8-1.04,0-1.66-.86-1.66-2.89,0-1.85.7-2.88,1.8-2.88.74,0,1.05.35,1.17.7,0-.31.02-.5.03-.6h.78c-.01.4-.01.86-.01,1.65v5.98h-.79v-2.76ZM43.33,85.84c0,1.33.31,2.18,1.06,2.18.9,0,1.09-.78,1.09-2.21s-.12-2.15-1.03-2.15c-.7,0-1.11.76-1.11,2.18ZM51.11,87.09c0,.7,0,1.26.01,1.53h-.77c-.03-.16-.04-.38-.04-.74-.2.55-.67.84-1.33.84s-1.39-.27-1.39-1.67v-4.01h.81v3.82c0,.71.2,1.15.84,1.15s1.06-.38,1.06-1.58v-3.39h.81v4.05ZM52.95,85.98c0,1.09.19,2.05,1.07,2.05s.99-.83,1.02-1h.79c-.01.14-.17,1.69-1.81,1.69s-1.87-1.51-1.87-2.89c0-1.77.6-2.88,1.92-2.88,1.47,0,1.81,1.21,1.81,2.6,0,.11,0,.29-.01.43h-2.91ZM55.07,85.35c0-.96-.2-1.71-1.02-1.71-1.02,0-1.07,1.33-1.09,1.71h2.1ZM55.07,85.35h0ZM59.81,83.04v5.93c0,1.02-.13,1.78-1.21,1.78-.1,0-.22,0-.35-.03v-.71c.1.01.19.01.25.01.43,0,.5-.27.5-.88v-6.11h.8ZM59.02,81.94v-1.15h.8v1.15h-.8ZM60.73,83.3c.2-.76.38-1.68.38-2.54h.78c-.01.94-.3,2.07-.51,2.54h-.65ZM65.66,87.63c0,.35.03.81.04.99h-.74c-.03-.12-.06-.42-.06-.63-.21.45-.63.73-1.32.73-1.07,0-1.46-.84-1.46-1.61,0-1.02.69-1.79,2.15-1.79.26,0,.42,0,.58.02v-.74c0-.44-.08-.99-.84-.99-.82,0-.87.59-.9.96h-.78c.02-.8.4-1.62,1.71-1.62,1.08,0,1.6.53,1.6,1.55v3.13ZM64.89,85.98c-.14-.02-.29-.03-.55-.03-.99,0-1.4.48-1.4,1.1,0,.51.27.99.87.99.82,0,1.08-.58,1.08-1.75v-.3ZM67,83.04h.8v5.58h-.8v-5.58ZM67,80.79h.8v1.15h-.8v-1.15ZM74.74,87.09c0,.7,0,1.26.01,1.53h-.77c-.03-.16-.04-.38-.04-.74-.2.55-.67.84-1.33.84s-1.39-.27-1.39-1.67v-4.01h.81v3.82c0,.71.2,1.15.84,1.15s1.06-.38,1.06-1.58v-3.39h.81v4.05ZM75.99,83.04h.78c.01.14.03.36.03.73.19-.44.57-.83,1.32-.83.81,0,1.43.46,1.43,1.7v3.97h-.81v-3.82c0-.68-.22-1.14-.86-1.14-.75,0-1.07.49-1.07,1.64v3.32h-.81v-3.85c0-1.14,0-1.47-.01-1.73ZM83.72,88.05v2.62h-.8v-6c0-.76,0-1.28-.01-1.63h.78c.01.1.03.47.03.75.2-.48.59-.84,1.33-.84,1.06,0,1.63.94,1.63,2.8,0,2.01-.7,2.97-1.79,2.97-.67,0-1-.32-1.16-.67ZM85.85,85.79c0-1.4-.32-2.13-1.06-2.13-.86,0-1.1.82-1.1,2.14s.13,2.21,1.05,2.21c.73,0,1.1-.85,1.1-2.22ZM87.71,83.04h.77c.01.14.03.4.03,1,.24-.67.78-1.07,1.47-1.08v.89c-.96.03-1.46.63-1.46,1.66v3.12h-.8v-3.68c0-.89,0-1.5-.01-1.9ZM94.26,85.76c0,1.96-.66,2.96-1.92,2.96s-1.92-.96-1.92-2.94.76-2.83,1.95-2.83,1.89.94,1.89,2.82ZM91.24,85.79c0,1.52.38,2.24,1.1,2.24s1.09-.73,1.09-2.24c0-1.43-.35-2.13-1.09-2.13s-1.1.63-1.1,2.14ZM95.31,80.79h.8v2.99c.18-.43.57-.83,1.33-.83,1.07,0,1.63.89,1.63,2.74,0,1.72-.46,3.02-1.78,3.02-.71,0-1.03-.36-1.2-.75,0,.18-.01.44-.03.66h-.76c.01-.3.01-.85.01-1.53v-6.3ZM98.25,85.7c0-1.4-.33-2.04-1.03-2.04-.86,0-1.14.77-1.14,2.18,0,1.34.22,2.16,1.06,2.16.74,0,1.1-.72,1.1-2.3ZM100.1,88.62v-7.83h.8v7.83h-.8ZM102.77,85.98c0,1.09.19,2.05,1.07,2.05s.99-.83,1.02-1h.79c-.01.14-.17,1.69-1.81,1.69s-1.87-1.51-1.87-2.89c0-1.77.6-2.88,1.92-2.88,1.47,0,1.81,1.21,1.81,2.6,0,.11,0,.29-.01.43h-2.91ZM103.17,80.67l1.18,1.53h-.76l-1.39-1.53h.97ZM104.88,85.35c0-.96-.2-1.71-1.02-1.71-1.02,0-1.07,1.33-1.09,1.71h2.1ZM104.88,85.35h0ZM106.71,84.71c0-.99,0-1.41-.01-1.67h.77c.02.16.03.46.03.71.22-.49.61-.81,1.25-.81.58,0,.99.25,1.16.83.2-.45.62-.83,1.35-.83s1.35.34,1.35,1.62v4.05h-.8v-3.91c0-.56-.16-1.05-.79-1.05-.71,0-.95.63-.95,1.38v3.58h-.8v-3.89c0-.69-.23-1.06-.77-1.06-.67,0-.98.61-.98,1.45v3.5h-.8v-3.91ZM114.46,85.98c0,1.09.19,2.05,1.07,2.05s.99-.83,1.02-1h.79c-.01.14-.17,1.69-1.81,1.69s-1.87-1.51-1.87-2.89c0-1.77.6-2.88,1.92-2.88,1.47,0,1.81,1.21,1.81,2.6,0,.11,0,.29-.01.43h-2.91ZM116.58,85.35c0-.96-.2-1.71-1.02-1.71-1.02,0-1.07,1.33-1.09,1.71h2.1ZM116.58,85.35h0ZM121.04,85.98c0,1.09.19,2.05,1.07,2.05s.99-.83,1.02-1h.79c-.01.14-.17,1.69-1.81,1.69s-1.87-1.51-1.87-2.89c0-1.77.6-2.88,1.92-2.88,1.47,0,1.81,1.21,1.81,2.6,0,.11,0,.29-.01.43h-2.91ZM123.16,85.35c0-.96-.2-1.71-1.02-1.71-1.02,0-1.07,1.33-1.09,1.71h2.1ZM123.16,85.35h0ZM124.97,83.04h.78c.01.14.03.36.03.73.19-.44.57-.83,1.32-.83.81,0,1.43.46,1.43,1.7v3.97h-.81v-3.82c0-.68-.22-1.14-.86-1.14-.75,0-1.07.49-1.07,1.64v3.32h-.81v-3.85c0-1.14,0-1.47-.01-1.73ZM131.9,88.62v-7.83h.8v7.83h-.8ZM134.03,83.04h.8v5.58h-.8v-5.58ZM134.04,80.79h.8v1.15h-.8v-1.15ZM136.7,85.98c0,1.09.19,2.05,1.07,2.05s.99-.83,1.02-1h.79c-.01.14-.17,1.69-1.81,1.69s-1.87-1.51-1.87-2.89c0-1.77.6-2.88,1.92-2.88,1.47,0,1.81,1.21,1.81,2.6,0,.11,0,.29-.01.43h-2.91ZM138.82,85.35c0-.96-.2-1.71-1.02-1.71-1.02,0-1.07,1.33-1.09,1.71h2.1ZM138.82,85.35h0ZM140.63,83.04h.78c.01.14.03.36.03.73.19-.44.57-.83,1.32-.83.81,0,1.43.46,1.43,1.7v3.97h-.81v-3.82c0-.68-.22-1.14-.86-1.14-.75,0-1.07.49-1.07,1.64v3.32h-.81v-3.85c0-1.14,0-1.47-.01-1.73Z"/>
    <path class="cls-4" d="M29.84,100.83c0,.35.03.81.04.99h-.74c-.03-.12-.06-.42-.06-.63-.21.45-.63.73-1.32.73-1.07,0-1.46-.84-1.46-1.61,0-1.02.69-1.79,2.15-1.79.26,0,.42,0,.58.02v-.74c0-.44-.08-.99-.84-.99-.82,0-.87.59-.9.96h-.78c.02-.8.4-1.62,1.71-1.62,1.08,0,1.6.53,1.6,1.55v3.13ZM29.07,99.18c-.14-.02-.29-.03-.55-.03-.99,0-1.4.48-1.4,1.1,0,.51.27.99.87.99.82,0,1.08-.58,1.08-1.75v-.3ZM31.33,96.24c.46,1.81,1.01,3.99,1.12,4.67h.01c.07-.62.91-3.53,1.18-4.67h.81l-1.6,5.58h-.87l-1.51-5.58h.85ZM35.71,99.18c0,1.09.19,2.05,1.07,2.05s.99-.83,1.02-1h.79c-.01.14-.17,1.69-1.81,1.69s-1.87-1.51-1.87-2.89c0-1.77.6-2.88,1.92-2.88,1.47,0,1.81,1.21,1.81,2.6,0,.11,0,.29-.01.43h-2.91ZM37.83,98.55c0-.96-.2-1.71-1.02-1.71-1.02,0-1.07,1.33-1.09,1.71h2.1ZM37.83,98.55h0ZM43.09,100.12c-.02.3-.14,1.8-1.77,1.8-1.46,0-1.85-1.29-1.85-2.91s.51-2.87,1.93-2.87c1.62,0,1.7,1.5,1.7,1.76h-.82c-.01-.23-.09-1.07-.88-1.07s-1.1.88-1.1,2.17c0,1.39.3,2.22,1.06,2.22.81,0,.9-.81.94-1.11h.8ZM46.14,101.82v-7.83h.8v7.83h-.8ZM51.46,100.83c0,.35.03.81.04.99h-.74c-.03-.12-.06-.42-.06-.63-.21.45-.63.73-1.32.73-1.07,0-1.46-.84-1.46-1.61,0-1.02.69-1.79,2.15-1.79.26,0,.42,0,.58.02v-.74c0-.44-.08-.99-.84-.99-.82,0-.87.59-.9.96h-.78c.02-.8.4-1.62,1.71-1.62,1.08,0,1.6.53,1.6,1.55v3.13ZM50.69,99.18c-.14-.02-.29-.03-.55-.03-.99,0-1.4.48-1.4,1.1,0,.51.27.99.87.99.82,0,1.08-.58,1.08-1.75v-.3ZM54.89,96.24h.77c.01.14.03.4.03,1,.24-.67.78-1.07,1.47-1.08v.89c-.96.03-1.46.63-1.46,1.66v3.12h-.8v-3.68c0-.89,0-1.5-.01-1.9ZM58.4,99.18c0,1.09.19,2.05,1.07,2.05s.99-.83,1.02-1h.79c-.01.14-.17,1.69-1.81,1.69s-1.87-1.51-1.87-2.89c0-1.77.6-2.88,1.92-2.88,1.47,0,1.81,1.21,1.81,2.6,0,.11,0,.29-.01.43h-2.91ZM60.52,98.55c0-.96-.2-1.71-1.02-1.71-1.02,0-1.07,1.33-1.09,1.71h2.1ZM60.52,98.55h0ZM65.79,100.12c-.02.3-.14,1.8-1.77,1.8-1.46,0-1.85-1.29-1.85-2.91s.51-2.87,1.93-2.87c1.62,0,1.7,1.5,1.7,1.76h-.82c-.01-.23-.09-1.07-.88-1.07s-1.1.88-1.1,2.17c0,1.39.3,2.22,1.06,2.22.81,0,.9-.81.94-1.11h.8ZM67.55,93.99v2.93c.19-.45.63-.78,1.34-.78.82,0,1.41.51,1.41,1.71v3.97h-.81v-3.8c0-.68-.2-1.16-.88-1.16-.77,0-1.05.63-1.05,1.6v3.35h-.81v-7.83h.81ZM72.14,99.18c0,1.09.19,2.05,1.07,2.05s.99-.83,1.02-1h.79c-.01.14-.17,1.69-1.81,1.69s-1.87-1.51-1.87-2.89c0-1.77.6-2.88,1.92-2.88,1.47,0,1.81,1.21,1.81,2.6,0,.11,0,.29-.01.43h-2.91ZM74.26,98.55c0-.96-.2-1.71-1.02-1.71-1.02,0-1.07,1.33-1.09,1.71h2.1ZM74.26,98.55h0ZM76.07,96.24h.77c.01.14.03.4.03,1,.24-.67.78-1.07,1.47-1.08v.89c-.96.03-1.46.63-1.46,1.66v3.12h-.8v-3.68c0-.89,0-1.5-.01-1.9ZM82.41,100.12c-.02.3-.14,1.8-1.77,1.8-1.46,0-1.85-1.29-1.85-2.91s.51-2.87,1.93-2.87c1.62,0,1.7,1.5,1.7,1.76h-.82c-.01-.23-.09-1.07-.88-1.07s-1.1.88-1.1,2.17c0,1.39.3,2.22,1.06,2.22.81,0,.9-.81.94-1.11h.8ZM84.18,93.99v2.93c.19-.45.63-.78,1.34-.78.82,0,1.41.51,1.41,1.71v3.97h-.81v-3.8c0-.68-.2-1.16-.88-1.16-.77,0-1.05.63-1.05,1.6v3.35h-.81v-7.83h.81ZM88.76,99.18c0,1.09.19,2.05,1.07,2.05s.99-.83,1.02-1h.79c-.01.14-.17,1.69-1.81,1.69s-1.87-1.51-1.87-2.89c0-1.77.6-2.88,1.92-2.88,1.47,0,1.81,1.21,1.81,2.6,0,.11,0,.29-.01.43h-2.91ZM90.88,98.55c0-.96-.2-1.71-1.02-1.71-1.02,0-1.07,1.33-1.09,1.71h2.1ZM90.88,98.55h0ZM98.37,98.96c0,1.96-.66,2.96-1.92,2.96s-1.92-.96-1.92-2.94.76-2.83,1.95-2.83,1.89.94,1.89,2.82ZM95.36,98.99c0,1.52.38,2.24,1.1,2.24s1.09-.73,1.09-2.24c0-1.43-.35-2.13-1.09-2.13s-1.1.63-1.1,2.14ZM102.93,100.29c0,.7,0,1.26.01,1.53h-.77c-.03-.16-.04-.38-.04-.74-.2.55-.67.84-1.33.84s-1.39-.27-1.39-1.67v-4.01h.81v3.82c0,.71.2,1.15.84,1.15s1.06-.38,1.06-1.58v-3.39h.81v4.05ZM106.34,101.82v-7.83h.8v7.83h-.8ZM109,99.18c0,1.09.19,2.05,1.07,2.05s.99-.83,1.02-1h.79c-.01.14-.17,1.69-1.81,1.69s-1.87-1.51-1.87-2.89c0-1.77.6-2.88,1.92-2.88,1.47,0,1.81,1.21,1.81,2.6,0,.11,0,.29-.01.43h-2.91ZM111.12,98.55c0-.96-.2-1.71-1.02-1.71-1.02,0-1.07,1.33-1.09,1.71h2.1ZM111.12,98.55h0ZM114.39,101.26c.61,0,.9-.37.9-.88,0-.58-.3-.84-1.03-1.13-1.15-.44-1.49-.86-1.49-1.63s.46-1.47,1.6-1.47c1.25,0,1.6.85,1.61,1.59h-.79c-.01-.27-.07-.93-.85-.93-.53,0-.77.33-.77.77s.19.67.97.96c1.08.42,1.56.81,1.56,1.77,0,1.02-.64,1.62-1.75,1.62s-1.72-.69-1.75-1.71h.8c.04.6.35,1.05.99,1.05ZM122.54,100.12c-.02.3-.14,1.8-1.77,1.8-1.46,0-1.85-1.29-1.85-2.91s.51-2.87,1.93-2.87c1.62,0,1.7,1.5,1.7,1.76h-.82c-.01-.23-.09-1.07-.88-1.07s-1.1.88-1.1,2.17c0,1.39.3,2.22,1.06,2.22.81,0,.9-.81.94-1.11h.8ZM123.51,96.24h.8v5.58h-.8v-5.58ZM123.51,93.99h.8v1.15h-.8v-1.15ZM125.06,96.24h.79v-1.49h.8v1.49h.97v.69h-.97v3.66c0,.38.08.62.5.62.13,0,.29,0,.39-.03v.62c-.19.07-.47.09-.66.09-.66,0-1.04-.27-1.04-1.15v-3.82h-.79v-.69ZM131.64,100.83c0,.35.03.81.04.99h-.74c-.03-.12-.06-.42-.06-.63-.21.45-.63.73-1.32.73-1.07,0-1.46-.84-1.46-1.61,0-1.02.69-1.79,2.15-1.79.26,0,.42,0,.58.02v-.74c0-.44-.08-.99-.84-.99-.82,0-.87.59-.9.96h-.78c.02-.8.4-1.62,1.71-1.62,1.08,0,1.6.53,1.6,1.55v3.13ZM130.87,99.18c-.14-.02-.29-.03-.55-.03-.99,0-1.4.48-1.4,1.1,0,.51.27.99.87.99.82,0,1.08-.58,1.08-1.75v-.3ZM132.29,96.24h.79v-1.49h.8v1.49h.97v.69h-.97v3.66c0,.38.08.62.5.62.13,0,.29,0,.39-.03v.62c-.19.07-.47.09-.66.09-.66,0-1.04-.27-1.04-1.15v-3.82h-.79v-.69ZM135.64,96.24h.8v5.58h-.8v-5.58ZM135.64,93.99h.8v1.15h-.8v-1.15ZM141.34,98.96c0,1.96-.66,2.96-1.92,2.96s-1.92-.96-1.92-2.94.76-2.83,1.95-2.83,1.89.94,1.89,2.82ZM138.32,98.99c0,1.52.38,2.24,1.1,2.24s1.09-.73,1.09-2.24c0-1.43-.35-2.13-1.09-2.13s-1.1.63-1.1,2.14ZM142.37,96.24h.78c.01.14.03.36.03.73.19-.44.57-.83,1.32-.83.81,0,1.43.46,1.43,1.7v3.97h-.81v-3.82c0-.68-.22-1.14-.86-1.14-.75,0-1.07.49-1.07,1.64v3.32h-.81v-3.85c0-1.14,0-1.47-.01-1.73ZM148.63,101.26c.61,0,.9-.37.9-.88,0-.58-.3-.84-1.03-1.13-1.15-.44-1.49-.86-1.49-1.63s.46-1.47,1.6-1.47c1.25,0,1.6.85,1.61,1.59h-.79c-.01-.27-.07-.93-.85-.93-.53,0-.77.33-.77.77s.19.67.97.96c1.08.42,1.56.81,1.56,1.77,0,1.02-.64,1.62-1.75,1.62s-1.72-.69-1.75-1.71h.8c.04.6.35,1.05.99,1.05ZM153.97,99.18c0,1.09.19,2.05,1.07,2.05s.99-.83,1.02-1h.79c-.01.14-.17,1.69-1.81,1.69s-1.87-1.51-1.87-2.89c0-1.77.6-2.88,1.92-2.88,1.47,0,1.81,1.21,1.81,2.6,0,.11,0,.29-.01.43h-2.91ZM156.09,98.55c0-.96-.2-1.71-1.02-1.71-1.02,0-1.07,1.33-1.09,1.71h2.1ZM156.09,98.55h0ZM157.34,96.24h.79v-1.49h.8v1.49h.97v.69h-.97v3.66c0,.38.08.62.5.62.13,0,.29,0,.39-.03v.62c-.19.07-.47.09-.66.09-.66,0-1.04-.27-1.04-1.15v-3.82h-.79v-.69Z"/>
    <path class="cls-4" d="M26.59,109.44h.77c.01.14.03.4.03,1,.24-.67.78-1.07,1.47-1.08v.89c-.96.03-1.46.63-1.46,1.66v3.12h-.8v-3.68c0-.89,0-1.5-.01-1.9ZM30.1,112.38c0,1.09.19,2.05,1.07,2.05s.99-.83,1.02-1h.79c-.01.14-.17,1.69-1.81,1.69s-1.87-1.51-1.87-2.89c0-1.77.6-2.88,1.92-2.88,1.47,0,1.81,1.21,1.81,2.6,0,.11,0,.29-.01.43h-2.91ZM32.22,111.75c0-.96-.2-1.71-1.02-1.71-1.02,0-1.07,1.33-1.09,1.71h2.1ZM32.74,107.06l-1.38,1.53h-.75l1.18-1.53h.95ZM32.22,111.75h0ZM34.23,115.02v-4.89h-.73v-.69h.73v-.77c0-.82.3-1.55,1.31-1.55.15,0,.35.03.45.06v.71c-.1-.02-.23-.05-.37-.05-.44,0-.59.28-.59.84v.75h.88v.69h-.88v4.89h-.8ZM37.05,112.38c0,1.09.19,2.05,1.07,2.05s.99-.83,1.02-1h.79c-.01.14-.17,1.69-1.81,1.69s-1.87-1.51-1.87-2.89c0-1.77.6-2.88,1.92-2.88,1.47,0,1.81,1.21,1.81,2.6,0,.11,0,.29-.01.43h-2.91ZM39.17,111.75c0-.96-.2-1.71-1.02-1.71-1.02,0-1.07,1.33-1.09,1.71h2.1ZM39.69,107.06l-1.38,1.53h-.75l1.18-1.53h.95ZM39.17,111.75h0ZM40.99,109.44h.77c.01.14.03.4.03,1,.24-.67.78-1.07,1.47-1.08v.89c-.96.03-1.46.63-1.46,1.66v3.12h-.8v-3.68c0-.89,0-1.5-.01-1.9ZM44.5,112.38c0,1.09.19,2.05,1.07,2.05s.99-.83,1.02-1h.79c-.01.14-.17,1.69-1.81,1.69s-1.87-1.51-1.87-2.89c0-1.77.6-2.88,1.92-2.88,1.47,0,1.81,1.21,1.81,2.6,0,.11,0,.29-.01.43h-2.91ZM46.62,111.75c0-.96-.2-1.71-1.02-1.71-1.02,0-1.07,1.33-1.09,1.71h2.1ZM46.62,111.75h0ZM48.43,109.44h.78c.01.14.03.36.03.73.19-.44.57-.83,1.32-.83.81,0,1.43.46,1.43,1.7v3.97h-.81v-3.82c0-.68-.22-1.14-.86-1.14-.75,0-1.07.49-1.07,1.64v3.32h-.81v-3.85c0-1.14,0-1.47-.01-1.73ZM56.67,113.32c-.02.3-.14,1.8-1.77,1.8-1.46,0-1.85-1.29-1.85-2.91s.51-2.87,1.93-2.87c1.62,0,1.7,1.5,1.7,1.76h-.82c-.01-.23-.09-1.07-.88-1.07s-1.1.88-1.1,2.17c0,1.39.3,2.22,1.06,2.22.81,0,.9-.81.94-1.11h.8ZM58.22,112.38c0,1.09.19,2.05,1.07,2.05s.99-.83,1.02-1h.79c-.01.14-.17,1.69-1.81,1.69s-1.87-1.51-1.87-2.89c0-1.77.6-2.88,1.92-2.88,1.47,0,1.81,1.21,1.81,2.6,0,.11,0,.29-.01.43h-2.91ZM60.33,111.75c0-.96-.2-1.71-1.02-1.71-1.02,0-1.07,1.33-1.09,1.71h2.1ZM60.33,111.75h0ZM63.61,114.46c.61,0,.9-.37.9-.88,0-.58-.3-.84-1.03-1.13-1.15-.44-1.49-.86-1.49-1.63s.46-1.47,1.6-1.47c1.25,0,1.6.85,1.61,1.59h-.79c-.01-.27-.07-.93-.85-.93-.53,0-.77.33-.77.77s.19.67.97.96c1.08.42,1.56.81,1.56,1.77,0,1.02-.64,1.62-1.75,1.62s-1.72-.69-1.75-1.71h.8c.04.6.35,1.05.99,1.05ZM68.42,107.19h.8v2.99c.18-.43.57-.83,1.33-.83,1.07,0,1.63.89,1.63,2.74,0,1.72-.46,3.02-1.78,3.02-.71,0-1.03-.36-1.2-.75,0,.18-.01.44-.03.66h-.76c.01-.3.01-.85.01-1.53v-6.3ZM71.36,112.1c0-1.4-.33-2.04-1.03-2.04-.86,0-1.14.77-1.14,2.18,0,1.34.22,2.16,1.06,2.16.74,0,1.1-.72,1.1-2.3ZM73.2,109.44h.8v5.58h-.8v-5.58ZM73.21,107.19h.8v1.15h-.8v-1.15ZM75.37,107.19h.8v2.99c.18-.43.57-.83,1.33-.83,1.07,0,1.63.89,1.63,2.74,0,1.72-.46,3.02-1.78,3.02-.71,0-1.03-.36-1.2-.75,0,.18-.01.44-.03.66h-.76c.01-.3.01-.85.01-1.53v-6.3ZM78.31,112.1c0-1.4-.33-2.04-1.03-2.04-.86,0-1.14.77-1.14,2.18,0,1.34.22,2.16,1.06,2.16.74,0,1.1-.72,1.1-2.3ZM80.16,115.02v-7.83h.8v7.83h-.8ZM82.29,109.44h.8v5.58h-.8v-5.58ZM82.29,107.19h.8v1.15h-.8v-1.15ZM87.99,112.16c0,1.96-.66,2.96-1.92,2.96s-1.92-.96-1.92-2.94.76-2.83,1.95-2.83,1.89.94,1.89,2.82ZM84.97,112.19c0,1.52.38,2.24,1.1,2.24s1.09-.73,1.09-2.24c0-1.43-.35-2.13-1.09-2.13s-1.1.63-1.1,2.14ZM92.55,114.66c0,1.47-.35,2.49-1.95,2.49-1.44,0-1.75-.94-1.78-1.54h.82c.02.31.2.85.99.85.94,0,1.13-.68,1.13-1.81v-.51c-.2.57-.67.85-1.3.85-1.13,0-1.68-.95-1.68-2.71,0-2.01.74-2.95,1.8-2.95.76,0,1.08.37,1.18.73,0-.25.03-.52.04-.64h.77c-.01.29-.01.86-.01,1.61v3.61ZM89.6,112.28c0,1.35.37,2.01,1.06,2.01.86,0,1.1-.85,1.1-2.15s-.18-2.08-1.03-2.08c-.74,0-1.13.77-1.13,2.22ZM93.87,109.44h.77c.01.14.03.4.03,1,.24-.67.78-1.07,1.47-1.08v.89c-.96.03-1.46.63-1.46,1.66v3.12h-.8v-3.68c0-.89,0-1.5-.01-1.9ZM100.02,114.03c0,.35.03.81.04.99h-.74c-.03-.12-.06-.42-.06-.63-.21.45-.63.73-1.32.73-1.07,0-1.46-.84-1.46-1.61,0-1.02.69-1.79,2.15-1.79.26,0,.42,0,.58.02v-.74c0-.44-.08-.99-.84-.99-.82,0-.87.59-.9.96h-.78c.02-.8.4-1.62,1.71-1.62,1.08,0,1.6.53,1.6,1.55v3.13ZM99.25,112.38c-.14-.02-.29-.03-.55-.03-.99,0-1.4.48-1.4,1.1,0,.51.27.99.87.99.82,0,1.08-.58,1.08-1.75v-.3ZM102.16,114.45v2.62h-.8v-6c0-.76,0-1.28-.01-1.63h.78c.01.1.03.47.03.75.2-.48.59-.84,1.33-.84,1.06,0,1.63.94,1.63,2.8,0,2.01-.7,2.97-1.79,2.97-.67,0-1-.32-1.16-.67ZM104.29,112.19c0-1.4-.32-2.13-1.06-2.13-.86,0-1.1.82-1.1,2.14s.13,2.21,1.05,2.21c.73,0,1.1-.85,1.1-2.22ZM106.98,107.19v2.93c.19-.45.63-.78,1.34-.78.82,0,1.41.51,1.41,1.71v3.97h-.81v-3.8c0-.68-.2-1.16-.88-1.16-.77,0-1.05.63-1.05,1.6v3.35h-.81v-7.83h.81ZM111.03,109.44h.8v5.58h-.8v-5.58ZM111.04,107.19h.8v1.15h-.8v-1.15ZM115.87,114.31c-.21.48-.59.8-1.31.8-1.04,0-1.66-.86-1.66-2.89,0-1.85.7-2.88,1.8-2.88.74,0,1.05.35,1.17.7,0-.31.02-.5.03-.6h.78c-.01.4-.01.86-.01,1.65v5.98h-.79v-2.76ZM113.72,112.24c0,1.33.31,2.18,1.06,2.18.9,0,1.09-.78,1.09-2.21s-.12-2.15-1.03-2.15c-.7,0-1.11.76-1.11,2.18ZM121.49,113.49c0,.7,0,1.26.01,1.53h-.77c-.03-.16-.04-.38-.04-.74-.2.55-.67.84-1.33.84s-1.39-.27-1.39-1.67v-4.01h.81v3.82c0,.71.2,1.15.84,1.15s1.06-.38,1.06-1.58v-3.39h.81v4.05ZM123.34,112.38c0,1.09.19,2.05,1.07,2.05s.99-.83,1.02-1h.79c-.01.14-.17,1.69-1.81,1.69s-1.87-1.51-1.87-2.89c0-1.77.6-2.88,1.92-2.88,1.47,0,1.81,1.21,1.81,2.6,0,.11,0,.29-.01.43h-2.91ZM125.45,111.75c0-.96-.2-1.71-1.02-1.71-1.02,0-1.07,1.33-1.09,1.71h2.1ZM125.45,111.75h0ZM128.73,114.46c.61,0,.9-.37.9-.88,0-.58-.3-.84-1.03-1.13-1.15-.44-1.49-.86-1.49-1.63s.46-1.47,1.6-1.47c1.25,0,1.6.85,1.61,1.59h-.79c-.01-.27-.07-.93-.85-.93-.53,0-.77.33-.77.77s.19.67.97.96c1.08.42,1.56.81,1.56,1.77,0,1.02-.64,1.62-1.75,1.62s-1.72-.69-1.75-1.71h.8c.04.6.35,1.05.99,1.05ZM130.84,116.27c.34-.87.56-1.86.6-2.65h.78c-.07,1.02-.39,2.07-.72,2.65h-.66ZM136.04,109.44v5.93c0,1.02-.13,1.78-1.21,1.78-.1,0-.22,0-.35-.03v-.71c.1.01.19.01.25.01.43,0,.5-.27.5-.88v-6.11h.8ZM135.25,108.34v-1.15h.8v1.15h-.8ZM137.91,112.38c0,1.09.19,2.05,1.07,2.05s.99-.83,1.02-1h.79c-.01.14-.17,1.69-1.81,1.69s-1.87-1.51-1.87-2.89c0-1.77.6-2.88,1.92-2.88,1.47,0,1.81,1.21,1.81,2.6,0,.11,0,.29-.01.43h-2.91ZM140.03,111.75c0-.96-.2-1.71-1.02-1.71-1.02,0-1.07,1.33-1.09,1.71h2.1ZM140.03,111.75h0ZM144.76,114.45v2.62h-.8v-6c0-.76,0-1.28-.01-1.63h.78c.01.1.03.47.03.75.2-.48.59-.84,1.33-.84,1.06,0,1.63.94,1.63,2.8,0,2.01-.7,2.97-1.79,2.97-.67,0-1-.32-1.16-.67ZM146.89,112.19c0-1.4-.32-2.13-1.06-2.13-.86,0-1.1.82-1.1,2.14s.13,2.21,1.05,2.21c.73,0,1.1-.85,1.1-2.22ZM149.32,112.38c0,1.09.19,2.05,1.07,2.05s.99-.83,1.02-1h.79c-.01.14-.17,1.69-1.81,1.69s-1.87-1.51-1.87-2.89c0-1.77.6-2.88,1.92-2.88,1.47,0,1.81,1.21,1.81,2.6,0,.11,0,.29-.01.43h-2.91ZM151.43,111.75c0-.96-.2-1.71-1.02-1.71-1.02,0-1.07,1.33-1.09,1.71h2.1ZM151.43,111.75h0ZM156.77,113.49c0,.7,0,1.26.01,1.53h-.77c-.03-.16-.04-.38-.04-.74-.2.55-.67.84-1.33.84s-1.39-.27-1.39-1.67v-4.01h.81v3.82c0,.71.2,1.15.84,1.15s1.06-.38,1.06-1.58v-3.39h.81v4.05ZM158.34,109.44c.58,1.21.88,1.76,1.02,2.07h.01c.18-.38.56-1.11,1.05-2.07h.86l-1.47,2.66,1.48,2.92h-.9c-.55-1.15-.89-1.83-1.05-2.17h-.01c-.14.3-.55,1.13-1.07,2.17h-.86l1.47-2.8-1.43-2.78h.89Z"/>
    <path class="cls-4" d="M26.6,124.31c0-.99,0-1.41-.01-1.67h.77c.02.16.03.46.03.71.22-.49.61-.81,1.25-.81.58,0,.99.25,1.16.83.2-.45.62-.83,1.35-.83s1.35.34,1.35,1.62v4.05h-.8v-3.91c0-.56-.16-1.05-.79-1.05-.71,0-.95.63-.95,1.38v3.58h-.8v-3.89c0-.69-.23-1.06-.77-1.06-.67,0-.98.61-.98,1.45v3.5h-.8v-3.91ZM33.24,122.9c.2-.76.38-1.68.38-2.54h.78c-.01.94-.3,2.07-.51,2.54h-.65ZM38.18,127.23c0,.35.03.81.04.99h-.74c-.03-.12-.06-.42-.06-.63-.21.45-.63.73-1.32.73-1.07,0-1.46-.84-1.46-1.61,0-1.02.69-1.79,2.15-1.79.26,0,.42,0,.58.02v-.74c0-.44-.08-.99-.84-.99-.82,0-.87.59-.9.96h-.78c.02-.8.4-1.62,1.71-1.62,1.08,0,1.6.53,1.6,1.55v3.13ZM37.4,125.58c-.14-.02-.29-.03-.55-.03-.99,0-1.4.48-1.4,1.1,0,.51.27.99.87.99.82,0,1.08-.58,1.08-1.75v-.3ZM43,120.39v6.4c0,.54,0,1.1.01,1.43h-.78c-.01-.14-.03-.51-.03-.75-.17.48-.53.85-1.31.85-1.16,0-1.65-.99-1.65-2.95,0-1.78.66-2.82,1.83-2.82.72,0,1,.31,1.13.58v-2.74h.8ZM40.06,125.38c0,1.61.37,2.22,1.05,2.22.87,0,1.1-.74,1.1-2.25,0-1.63-.23-2.09-1.03-2.09-.66,0-1.11.58-1.11,2.12ZM44.3,122.64h.77c.01.14.03.4.03,1,.24-.67.78-1.07,1.47-1.08v.89c-.96.03-1.46.63-1.46,1.66v3.12h-.8v-3.68c0-.89,0-1.5-.01-1.9ZM47.81,125.58c0,1.09.19,2.05,1.07,2.05s.99-.83,1.02-1h.79c-.01.14-.17,1.69-1.81,1.69s-1.87-1.51-1.87-2.89c0-1.77.6-2.88,1.92-2.88,1.47,0,1.81,1.21,1.81,2.6,0,.11,0,.29-.01.43h-2.91ZM49.93,124.95c0-.96-.2-1.71-1.02-1.71-1.02,0-1.07,1.33-1.09,1.71h2.1ZM49.93,124.95h0ZM53.2,127.66c.61,0,.9-.37.9-.88,0-.58-.3-.84-1.03-1.13-1.15-.44-1.49-.86-1.49-1.63s.46-1.47,1.6-1.47c1.25,0,1.6.85,1.61,1.59h-.79c-.01-.27-.07-.93-.85-.93-.53,0-.77.33-.77.77s.19.67.97.96c1.08.42,1.56.81,1.56,1.77,0,1.02-.64,1.62-1.75,1.62s-1.72-.69-1.75-1.71h.8c.04.6.35,1.05.99,1.05ZM57.35,127.66c.61,0,.9-.37.9-.88,0-.58-.3-.84-1.03-1.13-1.15-.44-1.49-.86-1.49-1.63s.46-1.47,1.6-1.47c1.25,0,1.6.85,1.61,1.59h-.79c-.01-.27-.07-.93-.85-.93-.53,0-.77.33-.77.77s.19.67.97.96c1.08.42,1.56.81,1.56,1.77,0,1.02-.64,1.62-1.75,1.62s-1.72-.69-1.75-1.71h.8c.04.6.35,1.05.99,1.05ZM60.59,125.58c0,1.09.19,2.05,1.07,2.05s.99-.83,1.02-1h.79c-.01.14-.17,1.69-1.81,1.69s-1.87-1.51-1.87-2.89c0-1.77.6-2.88,1.92-2.88,1.47,0,1.81,1.21,1.81,2.6,0,.11,0,.29-.01.43h-2.91ZM62.71,124.95c0-.96-.2-1.71-1.02-1.71-1.02,0-1.07,1.33-1.09,1.71h2.1ZM62.71,124.95h0ZM64.52,122.64h.77c.01.14.03.4.03,1,.24-.67.78-1.07,1.47-1.08v.89c-.96.03-1.46.63-1.46,1.66v3.12h-.8v-3.68c0-.89,0-1.5-.01-1.9ZM72.91,127.23c0,.35.03.81.04.99h-.74c-.03-.12-.06-.42-.06-.63-.21.45-.63.73-1.32.73-1.07,0-1.46-.84-1.46-1.61,0-1.02.69-1.79,2.15-1.79.26,0,.42,0,.58.02v-.74c0-.44-.08-.99-.84-.99-.82,0-.87.59-.9.96h-.78c.02-.8.4-1.62,1.71-1.62,1.08,0,1.6.53,1.6,1.55v3.13ZM72.14,125.58c-.14-.02-.29-.03-.55-.03-.99,0-1.4.48-1.4,1.1,0,.51.27.99.87.99.82,0,1.08-.58,1.08-1.75v-.3ZM77.7,126.69c0,.7,0,1.26.01,1.53h-.77c-.03-.16-.04-.38-.04-.74-.2.55-.67.84-1.33.84s-1.39-.27-1.39-1.67v-4.01h.81v3.82c0,.71.2,1.15.84,1.15s1.06-.38,1.06-1.58v-3.39h.81v4.05ZM79.27,122.64c.58,1.21.88,1.76,1.02,2.07h.01c.18-.38.56-1.11,1.05-2.07h.86l-1.47,2.66,1.48,2.92h-.9c-.55-1.15-.89-1.83-1.05-2.17h-.01c-.14.3-.55,1.13-1.07,2.17h-.86l1.47-2.8-1.43-2.78h.89ZM84.94,120.39h.8v2.99c.18-.43.57-.83,1.33-.83,1.07,0,1.63.89,1.63,2.74,0,1.72-.46,3.02-1.78,3.02-.71,0-1.03-.36-1.2-.75,0,.18-.01.44-.03.66h-.76c.01-.3.01-.85.01-1.53v-6.3ZM87.88,125.3c0-1.4-.33-2.04-1.03-2.04-.86,0-1.14.77-1.14,2.18,0,1.34.22,2.16,1.06,2.16.74,0,1.1-.72,1.1-2.3ZM89.73,122.64h.8v5.58h-.8v-5.58ZM89.73,120.39h.8v1.15h-.8v-1.15ZM91.89,120.39h.8v2.99c.18-.43.57-.83,1.33-.83,1.07,0,1.63.89,1.63,2.74,0,1.72-.46,3.02-1.78,3.02-.71,0-1.03-.36-1.2-.75,0,.18-.01.44-.03.66h-.76c.01-.3.01-.85.01-1.53v-6.3ZM94.83,125.3c0-1.4-.33-2.04-1.03-2.04-.86,0-1.14.77-1.14,2.18,0,1.34.22,2.16,1.06,2.16.74,0,1.1-.72,1.1-2.3ZM96.68,128.22v-7.83h.8v7.83h-.8ZM98.81,122.64h.8v5.58h-.8v-5.58ZM98.81,120.39h.8v1.15h-.8v-1.15ZM104.51,125.36c0,1.96-.66,2.96-1.92,2.96s-1.92-.96-1.92-2.94.76-2.83,1.95-2.83,1.89.94,1.89,2.82ZM101.49,125.39c0,1.52.38,2.24,1.1,2.24s1.09-.73,1.09-2.24c0-1.43-.35-2.13-1.09-2.13s-1.1.63-1.1,2.14ZM104.89,122.64h.79v-1.49h.8v1.49h.97v.69h-.97v3.66c0,.38.08.62.5.62.13,0,.29,0,.39-.03v.62c-.19.07-.47.09-.66.09-.66,0-1.04-.27-1.04-1.15v-3.82h-.79v-.69ZM109.02,120.39v2.93c.19-.45.63-.78,1.34-.78.82,0,1.41.51,1.41,1.71v3.97h-.81v-3.8c0-.68-.2-1.16-.88-1.16-.77,0-1.05.63-1.05,1.6v3.35h-.81v-7.83h.81ZM113.61,125.58c0,1.09.19,2.05,1.07,2.05s.99-.83,1.02-1h.79c-.01.14-.17,1.69-1.81,1.69s-1.87-1.51-1.87-2.89c0-1.77.6-2.88,1.92-2.88,1.47,0,1.81,1.21,1.81,2.6,0,.11,0,.29-.01.43h-2.91ZM115.73,124.95c0-.96-.2-1.71-1.02-1.71-1.02,0-1.07,1.33-1.09,1.71h2.1ZM116.25,120.26l-1.38,1.53h-.75l1.18-1.53h.95ZM115.73,124.95h0ZM120.99,126.52c-.02.3-.14,1.8-1.77,1.8-1.46,0-1.85-1.29-1.85-2.91s.51-2.87,1.93-2.87c1.62,0,1.7,1.5,1.7,1.76h-.82c-.01-.23-.09-1.07-.88-1.07s-1.1.88-1.1,2.17c0,1.39.3,2.22,1.06,2.22.81,0,.9-.81.94-1.11h.8ZM125.21,127.23c0,.35.03.81.04.99h-.74c-.03-.12-.06-.42-.06-.63-.21.45-.63.73-1.32.73-1.07,0-1.46-.84-1.46-1.61,0-1.02.69-1.79,2.15-1.79.26,0,.42,0,.58.02v-.74c0-.44-.08-.99-.84-.99-.82,0-.87.59-.9.96h-.78c.02-.8.4-1.62,1.71-1.62,1.08,0,1.6.53,1.6,1.55v3.13ZM124.43,125.58c-.14-.02-.29-.03-.55-.03-.99,0-1.4.48-1.4,1.1,0,.51.27.99.87.99.82,0,1.08-.58,1.08-1.75v-.3ZM126.54,122.64h.8v5.58h-.8v-5.58ZM126.55,120.39h.8v1.15h-.8v-1.15ZM128.66,122.64h.77c.01.14.03.4.03,1,.24-.67.78-1.07,1.47-1.08v.89c-.96.03-1.46.63-1.46,1.66v3.12h-.8v-3.68c0-.89,0-1.5-.01-1.9ZM132.18,125.58c0,1.09.19,2.05,1.07,2.05s.99-.83,1.02-1h.79c-.01.14-.17,1.69-1.81,1.69s-1.87-1.51-1.87-2.89c0-1.77.6-2.88,1.92-2.88,1.47,0,1.81,1.21,1.81,2.6,0,.11,0,.29-.01.43h-2.91ZM134.3,124.95c0-.96-.2-1.71-1.02-1.71-1.02,0-1.07,1.33-1.09,1.71h2.1ZM134.3,124.95h0ZM137.57,127.66c.61,0,.9-.37.9-.88,0-.58-.3-.84-1.03-1.13-1.15-.44-1.49-.86-1.49-1.63s.46-1.47,1.6-1.47c1.25,0,1.6.85,1.61,1.59h-.79c-.01-.27-.07-.93-.85-.93-.53,0-.77.33-.77.77s.19.67.97.96c1.08.42,1.56.81,1.56,1.77,0,1.02-.64,1.62-1.75,1.62s-1.72-.69-1.75-1.71h.8c.04.6.35,1.05.99,1.05ZM140.18,126.71h.82v1.51h-.82v-1.51Z"/>
    <path class="cls-4" d="M27.49,162.52v3.44h-.82v-7.47h1.95c1.25,0,1.91.71,1.91,1.93,0,1.12-.55,1.59-1,1.75.69.25.91.86.91,1.91v.3c0,.7.02,1.19.11,1.59h-.81c-.1-.34-.11-1.01-.11-1.61v-.25c0-1.06-.22-1.57-1.23-1.57h-.91ZM27.49,161.82h.96c.91,0,1.25-.51,1.25-1.38,0-.75-.35-1.26-1.17-1.26h-1.03v2.64ZM32.28,163.32c0,1.09.19,2.05,1.07,2.05s.99-.83,1.02-1h.79c-.01.14-.17,1.69-1.81,1.69s-1.87-1.51-1.87-2.89c0-1.77.6-2.88,1.92-2.88,1.47,0,1.81,1.21,1.81,2.6,0,.11,0,.29-.01.43h-2.91ZM34.4,162.69c0-.96-.2-1.71-1.02-1.71-1.02,0-1.07,1.33-1.09,1.71h2.1ZM34.92,158l-1.38,1.53h-.75l1.18-1.53h.95ZM34.4,162.69h0ZM37.03,165.39v2.62h-.8v-6c0-.76,0-1.28-.01-1.63h.78c.01.1.03.47.03.75.2-.48.59-.84,1.33-.84,1.06,0,1.63.94,1.63,2.8,0,2.01-.7,2.97-1.79,2.97-.67,0-1-.32-1.16-.67ZM39.16,163.13c0-1.4-.32-2.13-1.06-2.13-.86,0-1.1.82-1.1,2.14s.13,2.21,1.05,2.21c.73,0,1.1-.85,1.1-2.22ZM44.62,163.1c0,1.96-.66,2.96-1.92,2.96s-1.92-.96-1.92-2.94.76-2.83,1.95-2.83,1.89.94,1.89,2.82ZM41.6,163.13c0,1.52.38,2.24,1.1,2.24s1.09-.73,1.09-2.24c0-1.43-.35-2.13-1.09-2.13s-1.1.63-1.1,2.14ZM45.65,160.38h.78c.01.14.03.36.03.73.19-.44.57-.83,1.32-.83.81,0,1.43.46,1.43,1.7v3.97h-.81v-3.82c0-.68-.22-1.14-.86-1.14-.75,0-1.07.49-1.07,1.64v3.32h-.81v-3.85c0-1.14,0-1.47-.01-1.73ZM51.91,165.4c.61,0,.9-.37.9-.88,0-.58-.3-.84-1.03-1.13-1.15-.44-1.49-.86-1.49-1.63s.46-1.47,1.6-1.47c1.25,0,1.6.85,1.61,1.59h-.79c-.01-.27-.07-.93-.85-.93-.53,0-.77.33-.77.77s.19.67.97.96c1.08.42,1.56.81,1.56,1.77,0,1.02-.64,1.62-1.75,1.62s-1.72-.69-1.75-1.71h.8c.04.6.35,1.05.99,1.05ZM55.16,163.32c0,1.09.19,2.05,1.07,2.05s.99-.83,1.02-1h.79c-.01.14-.17,1.69-1.81,1.69s-1.87-1.51-1.87-2.89c0-1.77.6-2.88,1.92-2.88,1.47,0,1.81,1.21,1.81,2.6,0,.11,0,.29-.01.43h-2.91ZM57.28,162.69c0-.96-.2-1.71-1.02-1.71-1.02,0-1.07,1.33-1.09,1.71h2.1ZM57.28,162.69h0ZM61.26,162.05v-1.51h.78v1.51h-.78ZM61.26,164.45h.78v1.51h-.78v-1.51ZM67.76,165.96h-.99l-1.85-7.47h.88l.83,3.55c.24,1.04.53,2.35.63,3.06h.02c.1-.65.45-2.01.71-3.06l.85-3.55h.85l-1.93,7.47h0ZM70.07,160.38h.77c.01.14.03.4.03,1,.24-.67.78-1.07,1.47-1.08v.89c-.96.03-1.46.63-1.46,1.66v3.12h-.8v-3.68c0-.89,0-1.5-.01-1.9ZM76.21,164.97c0,.35.03.81.04.99h-.74c-.03-.12-.06-.42-.06-.63-.21.45-.63.73-1.32.73-1.07,0-1.46-.84-1.46-1.61,0-1.02.69-1.79,2.15-1.79.26,0,.42,0,.58.02v-.74c0-.44-.08-.99-.84-.99-.82,0-.87.59-.9.96h-.78c.02-.8.4-1.62,1.71-1.62,1.08,0,1.6.53,1.6,1.55v3.13ZM75.44,163.32c-.14-.02-.29-.03-.55-.03-.99,0-1.4.48-1.4,1.1,0,.51.27.99.87.99.82,0,1.08-.58,1.08-1.75v-.3ZM77.55,160.38h.8v5.58h-.8v-5.58ZM77.55,158.13h.8v1.15h-.8v-1.15Z"/>
    <path class="cls-4" d="M31.2,178.06h-.02c-.27,1.29-.95,4.4-1.55,6.76h-.79c-.45-2.05-1.16-5.4-1.43-6.78h-.03c.04.87.08,2.52.08,3.8v2.98h-.77v-7.47h1.22c.6,2.35,1.19,5.19,1.37,6.17h.01c.14-.81.87-3.91,1.46-6.17h1.21v7.47h-.8v-3.18c0-1.39.02-2.79.04-3.58ZM36.54,183.84c0,.35.03.81.04.99h-.74c-.03-.12-.06-.42-.06-.63-.21.45-.63.73-1.32.73-1.07,0-1.46-.84-1.46-1.61,0-1.02.69-1.79,2.15-1.79.26,0,.42,0,.58.02v-.74c0-.44-.08-.99-.84-.99-.82,0-.87.59-.9.96h-.78c.02-.8.4-1.62,1.71-1.62,1.08,0,1.6.53,1.6,1.55v3.13ZM35.76,182.18c-.14-.02-.29-.03-.55-.03-.99,0-1.4.48-1.4,1.1,0,.51.27.99.87.99.82,0,1.08-.58,1.08-1.75v-.3ZM37.87,179.25h.8v5.58h-.8v-5.58ZM37.88,176.99h.8v1.15h-.8v-1.15ZM41.37,184.26c.61,0,.9-.37.9-.88,0-.58-.3-.84-1.03-1.13-1.15-.44-1.49-.86-1.49-1.63s.46-1.47,1.6-1.47c1.25,0,1.6.85,1.61,1.59h-.79c-.01-.27-.07-.93-.85-.93-.53,0-.77.33-.77.77s.19.67.97.96c1.08.42,1.56.81,1.56,1.77,0,1.02-.64,1.62-1.75,1.62s-1.72-.69-1.75-1.71h.8c.04.6.35,1.05.99,1.05ZM49.42,183.84c0,.35.03.81.04.99h-.74c-.03-.12-.06-.42-.06-.63-.21.45-.63.73-1.32.73-1.07,0-1.46-.84-1.46-1.61,0-1.02.69-1.79,2.15-1.79.26,0,.42,0,.58.02v-.74c0-.44-.08-.99-.84-.99-.82,0-.87.59-.9.96h-.78c.02-.8.4-1.62,1.71-1.62,1.08,0,1.6.53,1.6,1.55v3.13ZM48.65,182.18c-.14-.02-.29-.03-.55-.03-.99,0-1.4.48-1.4,1.1,0,.51.27.99.87.99.82,0,1.08-.58,1.08-1.75v-.3ZM50.91,179.25c.46,1.81,1.01,3.99,1.12,4.67h.01c.07-.62.91-3.53,1.18-4.67h.81l-1.6,5.58h-.87l-1.51-5.58h.85ZM57.88,183.84c0,.35.03.81.04.99h-.74c-.03-.12-.06-.42-.06-.63-.21.45-.63.73-1.32.73-1.07,0-1.46-.84-1.46-1.61,0-1.02.69-1.79,2.15-1.79.26,0,.42,0,.58.02v-.74c0-.44-.08-.99-.84-.99-.82,0-.87.59-.9.96h-.78c.02-.8.4-1.62,1.71-1.62,1.08,0,1.6.53,1.6,1.55v3.13ZM57.1,182.18c-.14-.02-.29-.03-.55-.03-.99,0-1.4.48-1.4,1.1,0,.51.27.99.87.99.82,0,1.08-.58,1.08-1.75v-.3ZM59.2,179.25h.78c.01.14.03.36.03.73.19-.44.57-.83,1.32-.83.81,0,1.43.46,1.43,1.7v3.97h-.81v-3.82c0-.68-.22-1.14-.86-1.14-.75,0-1.07.49-1.07,1.64v3.32h-.81v-3.85c0-1.14,0-1.47-.01-1.73ZM63.4,179.25h.79v-1.49h.8v1.49h.97v.69h-.97v3.66c0,.38.08.62.5.62.13,0,.29,0,.39-.03v.62c-.19.07-.47.09-.66.09-.66,0-1.04-.27-1.04-1.15v-3.82h-.79v-.69ZM66.34,186.08c.34-.87.56-1.86.6-2.65h.78c-.07,1.02-.39,2.07-.72,2.65h-.66ZM71.02,179.25c.46,1.81,1.01,3.99,1.12,4.67h.01c.07-.62.91-3.53,1.18-4.67h.81l-1.6,5.58h-.87l-1.51-5.58h.85ZM78.43,181.97c0,1.96-.66,2.96-1.92,2.96s-1.92-.96-1.92-2.94.76-2.83,1.95-2.83,1.89.94,1.89,2.82ZM75.41,181.99c0,1.52.38,2.24,1.1,2.24s1.09-.73,1.09-2.24c0-1.43-.35-2.13-1.09-2.13s-1.1.63-1.1,2.14ZM82.98,183.3c0,.7,0,1.26.01,1.53h-.77c-.03-.16-.04-.38-.04-.74-.2.55-.67.84-1.33.84s-1.39-.27-1.39-1.67v-4.01h.81v3.82c0,.71.2,1.15.84,1.15s1.06-.38,1.06-1.58v-3.39h.81v4.05ZM85.67,184.26c.61,0,.9-.37.9-.88,0-.58-.3-.84-1.03-1.13-1.15-.44-1.49-.86-1.49-1.63s.46-1.47,1.6-1.47c1.25,0,1.6.85,1.61,1.59h-.79c-.01-.27-.07-.93-.85-.93-.53,0-.77.33-.77.77s.19.67.97.96c1.08.42,1.56.81,1.56,1.77,0,1.02-.64,1.62-1.75,1.62s-1.72-.69-1.75-1.71h.8c.04.6.35,1.05.99,1.05ZM93.96,176.99v6.4c0,.54,0,1.1.01,1.43h-.78c-.01-.14-.03-.51-.03-.75-.17.48-.53.85-1.31.85-1.16,0-1.65-.99-1.65-2.95,0-1.78.66-2.82,1.83-2.82.72,0,1,.31,1.13.58v-2.74h.8ZM91.02,181.98c0,1.61.37,2.22,1.05,2.22.87,0,1.1-.74,1.1-2.25,0-1.63-.23-2.09-1.03-2.09-.66,0-1.11.58-1.11,2.12ZM95.8,182.19c0,1.09.19,2.05,1.07,2.05s.99-.83,1.02-1h.79c-.01.14-.17,1.69-1.81,1.69s-1.87-1.51-1.87-2.89c0-1.77.6-2.88,1.92-2.88,1.47,0,1.81,1.21,1.81,2.6,0,.11,0,.29-.01.43h-2.91ZM97.92,181.55c0-.96-.2-1.71-1.02-1.71-1.02,0-1.07,1.33-1.09,1.71h2.1ZM97.92,181.55h0ZM100.08,179.25c.46,1.81,1.01,3.99,1.12,4.67h.01c.07-.62.91-3.53,1.18-4.67h.81l-1.6,5.58h-.87l-1.51-5.58h.85ZM104.46,182.19c0,1.09.19,2.05,1.07,2.05s.99-.83,1.02-1h.79c-.01.14-.17,1.69-1.81,1.69s-1.87-1.51-1.87-2.89c0-1.77.6-2.88,1.92-2.88,1.47,0,1.81,1.21,1.81,2.6,0,.11,0,.29-.01.43h-2.91ZM106.58,181.55c0-.96-.2-1.71-1.02-1.71-1.02,0-1.07,1.33-1.09,1.71h2.1ZM106.58,181.55h0ZM107.92,184.23c.57-.98,1.68-2.93,2.45-4.29h-2.28v-.7h3.19v.63c-.55.97-1.71,3.03-2.42,4.25h2.46l-.11.7h-3.29v-.59ZM117.56,183.12c-.02.3-.14,1.8-1.77,1.8-1.46,0-1.85-1.29-1.85-2.91s.51-2.87,1.93-2.87c1.62,0,1.7,1.5,1.7,1.76h-.82c-.01-.23-.09-1.07-.88-1.07s-1.1.88-1.1,2.17c0,1.39.3,2.22,1.06,2.22.81,0,.9-.81.94-1.11h.8ZM122.14,181.97c0,1.96-.66,2.96-1.92,2.96s-1.92-.96-1.92-2.94.76-2.83,1.95-2.83,1.89.94,1.89,2.82ZM119.13,181.99c0,1.52.38,2.24,1.1,2.24s1.09-.73,1.09-2.24c0-1.43-.35-2.13-1.09-2.13s-1.1.63-1.1,2.14ZM123.18,179.25h.78c.01.14.03.36.03.73.19-.44.57-.83,1.32-.83.81,0,1.43.46,1.43,1.7v3.97h-.81v-3.82c0-.68-.22-1.14-.86-1.14-.75,0-1.07.49-1.07,1.64v3.32h-.81v-3.85c0-1.14,0-1.47-.01-1.73ZM129.44,184.26c.61,0,.9-.37.9-.88,0-.58-.3-.84-1.03-1.13-1.15-.44-1.49-.86-1.49-1.63s.46-1.47,1.6-1.47c1.25,0,1.6.85,1.61,1.59h-.79c-.01-.27-.07-.93-.85-.93-.53,0-.77.33-.77.77s.19.67.97.96c1.08.42,1.56.81,1.56,1.77,0,1.02-.64,1.62-1.75,1.62s-1.72-.69-1.75-1.71h.8c.04.6.35,1.05.99,1.05ZM135.59,183.3c0,.7,0,1.26.01,1.53h-.77c-.03-.16-.04-.38-.04-.74-.2.55-.67.84-1.33.84s-1.39-.27-1.39-1.67v-4.01h.81v3.82c0,.71.2,1.15.84,1.15s1.06-.38,1.06-1.58v-3.39h.81v4.05ZM136.89,184.82v-7.83h.8v7.83h-.8ZM138.45,179.25h.79v-1.49h.8v1.49h.97v.69h-.97v3.66c0,.38.08.62.5.62.13,0,.29,0,.39-.03v.62c-.19.07-.47.09-.66.09-.66,0-1.04-.27-1.04-1.15v-3.82h-.79v-.69ZM142.25,182.19c0,1.09.19,2.05,1.07,2.05s.99-.83,1.02-1h.79c-.01.14-.17,1.69-1.81,1.69s-1.87-1.51-1.87-2.89c0-1.77.6-2.88,1.92-2.88,1.47,0,1.81,1.21,1.81,2.6,0,.11,0,.29-.01.43h-2.91ZM144.36,181.55c0-.96-.2-1.71-1.02-1.71-1.02,0-1.07,1.33-1.09,1.71h2.1ZM144.36,181.55h0ZM146.18,179.25h.77c.01.14.03.4.03,1,.24-.67.78-1.07,1.47-1.08v.89c-.96.03-1.46.63-1.46,1.66v3.12h-.8v-3.68c0-.89,0-1.5-.01-1.9ZM151.33,184.82v-7.83h.8v7.83h-.8ZM153.99,182.19c0,1.09.19,2.05,1.07,2.05s.99-.83,1.02-1h.79c-.01.14-.17,1.69-1.81,1.69s-1.87-1.51-1.87-2.89c0-1.77.6-2.88,1.92-2.88,1.47,0,1.81,1.21,1.81,2.6,0,.11,0,.29-.01.43h-2.91ZM156.11,181.55c0-.96-.2-1.71-1.02-1.71-1.02,0-1.07,1.33-1.09,1.71h2.1ZM156.11,181.55h0ZM159.38,184.26c.61,0,.9-.37.9-.88,0-.58-.3-.84-1.03-1.13-1.15-.44-1.49-.86-1.49-1.63s.46-1.47,1.6-1.47c1.25,0,1.6.85,1.61,1.59h-.79c-.01-.27-.07-.93-.85-.93-.53,0-.77.33-.77.77s.19.67.97.96c1.08.42,1.56.81,1.56,1.77,0,1.02-.64,1.62-1.75,1.62s-1.72-.69-1.75-1.71h.8c.04.6.35,1.05.99,1.05Z"/>
    <path class="cls-4" d="M30.09,197.67c0,1.47-.35,2.49-1.95,2.49-1.44,0-1.75-.94-1.78-1.54h.82c.02.31.2.85.99.85.94,0,1.13-.68,1.13-1.81v-.51c-.2.57-.67.85-1.3.85-1.13,0-1.68-.95-1.68-2.71,0-2.01.74-2.95,1.8-2.95.76,0,1.08.37,1.18.73,0-.25.03-.52.04-.64h.77c-.01.29-.01.86-.01,1.61v3.61ZM27.15,195.29c0,1.35.37,2.01,1.06,2.01.86,0,1.1-.85,1.1-2.15s-.18-2.08-1.03-2.08c-.74,0-1.13.77-1.13,2.22ZM34.92,196.5c0,.7,0,1.26.01,1.53h-.77c-.03-.16-.04-.38-.04-.74-.2.55-.67.84-1.33.84s-1.39-.27-1.39-1.67v-4.01h.81v3.82c0,.71.2,1.15.84,1.15s1.06-.38,1.06-1.58v-3.39h.81v4.05ZM36.23,192.45h.8v5.58h-.8v-5.58ZM36.24,190.19h.8v1.15h-.8v-1.15ZM41.85,190.19v6.4c0,.54,0,1.1.01,1.43h-.78c-.01-.14-.03-.51-.03-.75-.17.48-.53.85-1.31.85-1.16,0-1.65-.99-1.65-2.95,0-1.78.66-2.82,1.83-2.82.72,0,1,.31,1.13.58v-2.74h.8ZM38.92,195.18c0,1.61.37,2.22,1.05,2.22.87,0,1.1-.74,1.1-2.25,0-1.63-.23-2.09-1.03-2.09-.66,0-1.11.58-1.11,2.12ZM43.7,195.39c0,1.09.19,2.05,1.07,2.05s.99-.83,1.02-1h.79c-.01.14-.17,1.69-1.81,1.69s-1.87-1.51-1.87-2.89c0-1.77.6-2.88,1.92-2.88,1.47,0,1.81,1.21,1.81,2.6,0,.11,0,.29-.01.43h-2.91ZM45.81,194.75c0-.96-.2-1.71-1.02-1.71-1.02,0-1.07,1.33-1.09,1.71h2.1ZM45.81,194.75h0ZM49.09,197.46c.61,0,.9-.37.9-.88,0-.58-.3-.84-1.03-1.13-1.15-.44-1.49-.86-1.49-1.63s.46-1.47,1.6-1.47c1.25,0,1.6.85,1.61,1.59h-.79c-.01-.27-.07-.93-.85-.93-.53,0-.77.33-.77.77s.19.67.97.96c1.08.42,1.56.81,1.56,1.77,0,1.02-.64,1.62-1.75,1.62s-1.72-.69-1.75-1.71h.8c.04.6.35,1.05.99,1.05ZM54.42,195.39c0,1.09.19,2.05,1.07,2.05s.99-.83,1.02-1h.79c-.01.14-.17,1.69-1.81,1.69s-1.87-1.51-1.87-2.89c0-1.77.6-2.88,1.92-2.88,1.47,0,1.81,1.21,1.81,2.6,0,.11,0,.29-.01.43h-2.91ZM56.54,194.75c0-.96-.2-1.71-1.02-1.71-1.02,0-1.07,1.33-1.09,1.71h2.1ZM56.54,194.75h0ZM57.8,192.45h.79v-1.49h.8v1.49h.97v.69h-.97v3.66c0,.38.08.62.5.62.13,0,.29,0,.39-.03v.62c-.19.07-.47.09-.66.09-.66,0-1.04-.27-1.04-1.15v-3.82h-.79v-.69ZM62.53,192.45h.79v-1.49h.8v1.49h.97v.69h-.97v3.66c0,.38.08.62.5.62.13,0,.29,0,.39-.03v.62c-.19.07-.47.09-.66.09-.66,0-1.04-.27-1.04-1.15v-3.82h-.79v-.69ZM69.29,196.5c0,.7,0,1.26.01,1.53h-.77c-.03-.16-.04-.38-.04-.74-.2.55-.67.84-1.33.84s-1.39-.27-1.39-1.67v-4.01h.81v3.82c0,.71.2,1.15.84,1.15s1.06-.38,1.06-1.58v-3.39h.81v4.05ZM70.03,192.45h.79v-1.49h.8v1.49h.97v.69h-.97v3.66c0,.38.08.62.5.62.13,0,.29,0,.39-.03v.62c-.19.07-.47.09-.66.09-.66,0-1.04-.27-1.04-1.15v-3.82h-.79v-.69ZM76.86,195.17c0,1.96-.66,2.96-1.92,2.96s-1.92-.96-1.92-2.94.76-2.83,1.95-2.83,1.89.94,1.89,2.82ZM73.84,195.19c0,1.52.38,2.24,1.1,2.24s1.09-.73,1.09-2.24c0-1.43-.35-2.13-1.09-2.13s-1.1.63-1.1,2.14ZM77.89,192.45h.77c.01.14.03.4.03,1,.24-.67.78-1.07,1.47-1.08v.89c-.96.03-1.46.63-1.46,1.66v3.12h-.8v-3.68c0-.89,0-1.5-.01-1.9ZM80.9,192.45h.8v5.58h-.8v-5.58ZM80.91,190.19h.8v1.15h-.8v-1.15ZM83.57,195.39c0,1.09.19,2.05,1.07,2.05s.99-.83,1.02-1h.79c-.01.14-.17,1.69-1.81,1.69s-1.87-1.51-1.87-2.89c0-1.77.6-2.88,1.92-2.88,1.47,0,1.81,1.21,1.81,2.6,0,.11,0,.29-.01.43h-2.91ZM85.69,194.75c0-.96-.2-1.71-1.02-1.71-1.02,0-1.07,1.33-1.09,1.71h2.1ZM85.69,194.75h0ZM87.52,198.02v-7.83h.8v7.83h-.8ZM91.02,197.46c.61,0,.9-.37.9-.88,0-.58-.3-.84-1.03-1.13-1.15-.44-1.49-.86-1.49-1.63s.46-1.47,1.6-1.47c1.25,0,1.6.85,1.61,1.59h-.79c-.01-.27-.07-.93-.85-.93-.53,0-.77.33-.77.77s.19.67.97.96c1.08.42,1.56.81,1.56,1.77,0,1.02-.64,1.62-1.75,1.62s-1.72-.69-1.75-1.71h.8c.04.6.35,1.05.99,1.05ZM99.31,190.19v6.4c0,.54,0,1.1.01,1.43h-.78c-.01-.14-.03-.51-.03-.75-.17.48-.53.85-1.31.85-1.16,0-1.65-.99-1.65-2.95,0-1.78.66-2.82,1.83-2.82.72,0,1,.31,1.13.58v-2.74h.8ZM96.37,195.18c0,1.61.37,2.22,1.05,2.22.87,0,1.1-.74,1.1-2.25,0-1.63-.23-2.09-1.03-2.09-.66,0-1.11.58-1.11,2.12ZM101.15,195.39c0,1.09.19,2.05,1.07,2.05s.99-.83,1.02-1h.79c-.01.14-.17,1.69-1.81,1.69s-1.87-1.51-1.87-2.89c0-1.77.6-2.88,1.92-2.88,1.47,0,1.81,1.21,1.81,2.6,0,.11,0,.29-.01.43h-2.91ZM103.27,194.75c0-.96-.2-1.71-1.02-1.71-1.02,0-1.07,1.33-1.09,1.71h2.1ZM103.27,194.75h0ZM107.19,198.02v-7.83h.8v7.83h-.8ZM112.51,197.04c0,.35.03.81.04.99h-.74c-.03-.12-.06-.42-.06-.63-.21.45-.63.73-1.32.73-1.07,0-1.46-.84-1.46-1.61,0-1.02.69-1.79,2.15-1.79.26,0,.42,0,.58.02v-.74c0-.44-.08-.99-.84-.99-.82,0-.87.59-.9.96h-.78c.02-.8.4-1.62,1.71-1.62,1.08,0,1.6.53,1.6,1.55v3.13ZM111.74,195.38c-.14-.02-.29-.03-.55-.03-.99,0-1.4.48-1.4,1.1,0,.51.27.99.87.99.82,0,1.08-.58,1.08-1.75v-.3ZM116.03,190.55h1.95c1.12,0,1.8.67,1.8,1.82,0,1-.48,1.44-.92,1.59.57.2,1.16.72,1.16,1.88,0,1.34-.81,2.19-2.11,2.19h-1.89v-7.47ZM117.69,193.67c.94,0,1.28-.42,1.28-1.22,0-.75-.39-1.21-1.18-1.21h-.96v2.43h.86ZM116.83,197.35h1c.88,0,1.36-.53,1.36-1.51s-.51-1.5-1.51-1.5h-.85v3.01ZM121.05,192.45h.8v5.58h-.8v-5.58ZM121.06,190.19h.8v1.15h-.8v-1.15ZM123.22,190.19h.8v2.99c.18-.43.57-.83,1.33-.83,1.07,0,1.63.89,1.63,2.74,0,1.72-.46,3.02-1.78,3.02-.71,0-1.03-.36-1.2-.75,0,.18-.01.44-.03.66h-.76c.01-.3.01-.85.01-1.53v-6.3ZM126.16,195.11c0-1.4-.33-2.04-1.03-2.04-.86,0-1.14.77-1.14,2.18,0,1.34.22,2.16,1.06,2.16.74,0,1.1-.72,1.1-2.3ZM128.01,198.02v-7.83h.8v7.83h-.8ZM130.14,192.45h.8v5.58h-.8v-5.58ZM130.14,190.19h.8v1.15h-.8v-1.15ZM135.84,195.17c0,1.96-.66,2.96-1.92,2.96s-1.92-.96-1.92-2.94.76-2.83,1.95-2.83,1.89.94,1.89,2.82ZM132.82,195.19c0,1.52.38,2.24,1.1,2.24s1.09-.73,1.09-2.24c0-1.43-.35-2.13-1.09-2.13s-1.1.63-1.1,2.14ZM136.22,192.45h.79v-1.49h.8v1.49h.97v.69h-.97v3.66c0,.38.08.62.5.62.13,0,.29,0,.39-.03v.62c-.19.07-.47.09-.66.09-.66,0-1.04-.27-1.04-1.15v-3.82h-.79v-.69ZM140.35,190.19v2.93c.19-.45.63-.78,1.34-.78.82,0,1.41.51,1.41,1.71v3.97h-.81v-3.8c0-.68-.2-1.16-.88-1.16-.77,0-1.05.63-1.05,1.6v3.35h-.81v-7.83h.81ZM144.94,195.39c0,1.09.19,2.05,1.07,2.05s.99-.83,1.02-1h.79c-.01.14-.17,1.69-1.81,1.69s-1.87-1.51-1.87-2.89c0-1.77.6-2.88,1.92-2.88,1.47,0,1.81,1.21,1.81,2.6,0,.11,0,.29-.01.43h-2.91ZM145.34,190.08l1.18,1.53h-.76l-1.39-1.53h.97ZM147.06,194.75c0-.96-.2-1.71-1.02-1.71-1.02,0-1.07,1.33-1.09,1.71h2.1ZM147.06,194.75h0ZM151.67,197.32c-.21.48-.59.8-1.31.8-1.04,0-1.66-.86-1.66-2.89,0-1.85.7-2.88,1.8-2.88.74,0,1.05.35,1.17.7,0-.31.02-.5.03-.6h.78c-.01.4-.01.86-.01,1.65v5.98h-.79v-2.76ZM149.52,195.24c0,1.33.31,2.18,1.06,2.18.9,0,1.09-.78,1.09-2.21s-.12-2.15-1.03-2.15c-.7,0-1.11.76-1.11,2.18ZM157.3,196.5c0,.7,0,1.26.01,1.53h-.77c-.03-.16-.04-.38-.04-.74-.2.55-.67.84-1.33.84s-1.39-.27-1.39-1.67v-4.01h.81v3.82c0,.71.2,1.15.84,1.15s1.06-.38,1.06-1.58v-3.39h.81v4.05ZM159.14,195.39c0,1.09.19,2.05,1.07,2.05s.99-.83,1.02-1h.79c-.01.14-.17,1.69-1.81,1.69s-1.87-1.51-1.87-2.89c0-1.77.6-2.88,1.92-2.88,1.47,0,1.81,1.21,1.81,2.6,0,.11,0,.29-.01.43h-2.91ZM161.26,194.75c0-.96-.2-1.71-1.02-1.71-1.02,0-1.07,1.33-1.09,1.71h2.1ZM161.26,194.75h0ZM162.9,196.52h.82v1.51h-.82v-1.51Z"/>
    <path class="cls-4" d="M66.52,72.19l-3.47-13.99h2.34l1.37,6.17c.42,1.89.86,4.09,1.03,5.51h.04c.17-1.35.74-3.6,1.16-5.47l1.36-6.21h2.27l-3.55,13.99h-2.55ZM73.22,65.18c0-1.73,0-2.84-.02-3.6h2.05c.02.21.06.67.06,1.8.42-1.23,1.38-1.96,2.79-1.97v2.39c-1.77,0-2.73.72-2.73,2.71v5.69h-2.14v-7.01ZM85.9,70.02c0,.57.05,1.73.08,2.16h-1.95c-.05-.22-.1-.72-.1-1.06-.4.74-1.13,1.25-2.43,1.25-2.04,0-2.81-1.61-2.81-3.12,0-2.1,1.43-3.46,4.15-3.46.4,0,.69,0,.95.03v-1.24c0-.69-.11-1.52-1.29-1.52s-1.31.82-1.37,1.52h-2.04c.04-1.55.77-3.18,3.49-3.18,2.21,0,3.32,1.02,3.32,3.02v5.6ZM83.84,67.41c-.25-.04-.5-.05-.88-.05-1.56,0-2.16.73-2.16,1.71,0,.76.38,1.55,1.36,1.55,1.35,0,1.67-.99,1.67-2.79v-.42ZM90.34,61.57v10.61h-2.14v-10.61h2.14ZM90.36,57.51v2.34h-2.14v-2.34h2.14ZM92.04,72.6l4.02-14.49h1.64l-4,14.49h-1.66ZM99.55,58.2h6.94v1.91h-4.77v3.96h4.49v1.88h-4.49v6.23h-2.16v-13.99ZM114.3,70.02c0,.57.05,1.73.08,2.16h-1.95c-.05-.22-.1-.72-.1-1.06-.4.74-1.13,1.25-2.43,1.25-2.04,0-2.81-1.61-2.81-3.12,0-2.1,1.43-3.46,4.15-3.46.4,0,.69,0,.95.03v-1.24c0-.69-.11-1.52-1.29-1.52s-1.31.82-1.37,1.52h-2.04c.04-1.55.77-3.18,3.49-3.18,2.21,0,3.32,1.02,3.32,3.02v5.6ZM112.24,67.41c-.25-.04-.5-.05-.88-.05-1.56,0-2.16.73-2.16,1.71,0,.76.38,1.55,1.36,1.55,1.35,0,1.67-.99,1.67-2.79v-.42ZM123.69,72.19h-2.04c-.06-.32-.08-.78-.09-1.24-.44,1-1.24,1.43-2.42,1.43-1.42,0-2.65-.66-2.65-3.18v-7.62h2.15v7.13c0,1.15.27,1.82,1.27,1.82s1.62-.57,1.62-2.46v-6.49h2.15v7.57c0,1.47,0,2.51.02,3.05ZM127.21,61.57c.9,1.96,1.37,2.94,1.63,3.51h.02c.31-.72.91-1.92,1.65-3.51h2.27l-2.74,5.02,2.75,5.59h-2.38c-.87-1.98-1.37-3.08-1.63-3.68h-.02c-.25.56-.92,2.04-1.68,3.68h-2.28l2.71-5.3-2.65-5.32h2.35Z"/>
    <g class="cls-19">
      <path class="cls-7" d="M80.43,26.04c.09.04.19,0,.23-.08l.41-.87c.04-.09,0-.19-.08-.23-.09-.04-.19,0-.23.08l-.41.87c-.04.09,0,.19.08.23"/>
      <path class="cls-7" d="M78.53,25.43s.09,0,.13-.03c.04-.03.06-.06.07-.11l.09-.47s0-.09-.03-.13-.06-.06-.11-.07c-.05,0-.09,0-.13.03-.04.03-.06.06-.07.11l-.09.47s0,.09.03.13c.02.04.06.06.11.07"/>
      <path class="cls-7" d="M74.59,25.72s.08-.05.1-.09c.02-.04.02-.09,0-.13l-.16-.46s-.05-.08-.09-.1c-.04-.02-.09-.02-.13,0-.04.01-.08.05-.1.09-.02.04-.02.09,0,.13l.16.45s.05.08.09.1c.04.02.09.02.13,0"/>
      <path class="cls-7" d="M76.54,25.32c.09,0,.17-.09.16-.18l-.07-.96c0-.09-.09-.17-.18-.16-.1,0-.17.09-.16.18l.07.96c0,.1.09.17.19.16"/>
      <path class="cls-7" d="M74.59,25.72s-.09.01-.13,0c-.04-.02-.07-.05-.09-.1l-.16-.45s-.01-.09,0-.13c.02-.04.05-.07.1-.09.04-.02.09-.01.13,0,.04.02.07.05.09.1l.16.46s.01.09,0,.13c-.02.04-.05.07-.1.09"/>
      <path class="cls-7" d="M82.11,27.12s-.06-.07-.06-.12c0-.04,0-.09.04-.13l.31-.37s.07-.06.12-.06c.04,0,.09,0,.13.04.04.03.06.07.06.12s0,.09-.04.13l-.31.37s-.07.06-.12.06c-.04,0-.09,0-.13-.04"/>
      <path class="cls-7" d="M83.47,28.58c-.06-.08-.04-.18.04-.24l.79-.56c.08-.06.18-.04.24.04s.04.18-.04.24l-.78.56c-.08.06-.19.04-.24-.04"/>
      <path class="cls-7" d="M72.8,26.61c.08-.05.1-.16.05-.24l-.53-.8c-.05-.08-.16-.1-.24-.05-.08.05-.1.16-.05.24l.53.8c.05.08.16.1.24.05"/>
      <path class="cls-7" d="M70.17,29.57c.04-.08,0-.19-.08-.23l-.86-.43c-.08-.04-.19,0-.23.08-.04.08,0,.19.08.23l.86.43c.08.04.19,0,.23-.08"/>
      <path class="cls-7" d="M69.51,31.45s0-.09-.02-.13-.06-.07-.11-.07l-.47-.1s-.09,0-.13.02c-.04.02-.07.06-.08.11,0,.05,0,.09.02.13.02.04.06.07.11.08l.47.1s.09,0,.13-.02c.04-.02.07-.06.08-.11"/>
      <path class="cls-7" d="M69.69,35.41s-.05-.08-.08-.1c-.04-.02-.09-.03-.13-.01l-.46.14s-.08.04-.1.08c-.02.04-.03.09-.01.13.01.04.05.08.08.1.04.02.09.03.13.01l.46-.14s.08-.05.1-.08c.02-.04.03-.09.01-.13"/>
      <path class="cls-7" d="M69.34,33.44c0-.09-.09-.17-.18-.16l-.96.04c-.09,0-.17.09-.16.18,0,.1.08.17.18.16l.96-.04c.1,0,.17-.09.16-.18"/>
      <path class="cls-7" d="M69.69,35.41s0,.09-.01.13c-.02.04-.06.07-.1.08l-.46.14s-.09,0-.13-.01c-.04-.02-.07-.06-.08-.1-.01-.05,0-.09.01-.13.02-.04.06-.07.1-.08l.46-.14s.09,0,.13.01c.04.02.07.06.08.1"/>
      <path class="cls-7" d="M71.29,27.92s-.08.06-.12.06c-.04,0-.09-.01-.12-.04l-.36-.32s-.06-.08-.06-.12c0-.04.01-.09.04-.12.03-.04.07-.06.12-.06.04,0,.09.01.12.04l.36.32s.06.07.06.12c0,.04-.01.09-.04.12"/>
      <path class="cls-7" d="M70.53,37.22c-.05-.08-.16-.1-.24-.05l-.81.51c-.08.05-.11.16-.05.24.05.08.16.1.24.05l.82-.51c.08-.05.1-.16.05-.24"/>
      <path class="cls-7" d="M79.6,38.21s-.07,0-.1.02c-2.61,1.13-5.62.22-7.16-2.18-.83-1.29-1.1-2.82-.77-4.32.33-1.5,1.23-2.77,2.53-3.6,2.68-1.7,6.24-.91,7.95,1.76,1.53,2.4,1.1,5.5-1.04,7.37-.09.08-.11.22-.04.32l1.43,2.24-1.16.73-1.43-2.24c-.05-.07-.13-.11-.21-.11M86.31,43.8l-3.34-3.99-1.48-2.31c1.02-.96,1.68-2.24,1.89-3.63.22-1.48-.11-2.98-.92-4.24-.45-.71-1.03-1.31-1.72-1.78-.67-.46-1.41-.78-2.2-.95-.79-.18-1.6-.2-2.4-.06-.83.14-1.61.44-2.32.89-.71.45-1.32,1.03-1.79,1.72-.46.66-.78,1.4-.96,2.19-.17.79-.19,1.59-.06,2.39.14.82.44,1.6.89,2.31.81,1.26,2.04,2.19,3.48,2.62.57.17,1.16.26,1.75.26.8,0,1.6-.14,2.35-.44l1.82,2.85,2.01,4.07c.44.69,1.42.85,2.18.37l.21-.14c.76-.48,1.03-1.43.59-2.12"/>
      <path class="cls-7" d="M79.27,35.58c-.34.33-.82.52-1.3.51-.03,0-.06,0-.09,0-.14,0-.24-.13-.23-.26,0-.14.13-.24.26-.23.37.02.75-.12,1.01-.37.1-.1.26-.09.35,0s.09.26,0,.35M76.66,35.7c-.03.12-.13.2-.25.2-.02,0-.03,0-.05,0-1.19-.26-2.15-1.33-2.27-2.54-.01-.14.09-.26.22-.27.14-.01.26.09.27.22.1,1,.89,1.89,1.88,2.11.13.03.22.16.19.3M81.08,30.51c-.66-1.03-1.69-1.75-2.89-2.01-1.2-.27-2.43-.05-3.47.61-1.04.66-1.76,1.68-2.02,2.88-.26,1.19-.05,2.42.61,3.45.66,1.03,1.69,1.75,2.89,2.01.32.07.65.11.97.11.88,0,1.74-.24,2.5-.72,1.04-.66,1.76-1.68,2.02-2.88.26-1.2.05-2.42-.61-3.45"/>
    </g>
  </g>
</svg>