<?xml version="1.0" encoding="UTF-8"?>
<svg id="Calque_1" data-name="Calque 1" xmlns="http://www.w3.org/2000/svg" xmlns:xlink="http://www.w3.org/1999/xlink" viewBox="0 0 195.59 269.29">
  <defs>
    <style>
      .cls-1 {
        fill: #1d1d1b;
      }

      .cls-2 {
        fill: none;
      }

      .cls-3 {
        clip-path: url(#clippath-1);
      }

      .cls-4 {
        fill: #f39200;
      }

      .cls-5 {
        clip-path: url(#clippath);
      }
    </style>
    <clipPath id="clippath">
      <rect class="cls-2" width="195.59" height="269.29"/>
    </clipPath>
    <clipPath id="clippath-1">
      <rect class="cls-2" width="195.59" height="269.29"/>
    </clipPath>
  </defs>
  <g class="cls-5">
    <g class="cls-3">
      <path class="cls-1" d="M75.52,40.4l-3.47-13.99h2.34l1.37,6.17c.42,1.89.86,4.09,1.03,5.51h.04c.17-1.35.74-3.6,1.16-5.47l1.36-6.21h2.27l-3.55,13.99h-2.55ZM82.22,33.39c0-1.73,0-2.84-.02-3.6h2.05c.02.21.06.67.06,1.8.42-1.23,1.38-1.96,2.79-1.97v2.39c-1.77,0-2.73.72-2.73,2.71v5.69h-2.14v-7.01ZM94.9,38.23c0,.57.05,1.73.08,2.16h-1.95c-.05-.22-.1-.72-.1-1.06-.4.74-1.13,1.25-2.43,1.25-2.04,0-2.81-1.61-2.81-3.12,0-2.1,1.43-3.46,4.15-3.46.4,0,.69,0,.95.03v-1.24c0-.69-.11-1.52-1.29-1.52s-1.31.82-1.37,1.52h-2.04c.04-1.55.77-3.18,3.49-3.18,2.21,0,3.32,1.02,3.32,3.02v5.6ZM92.84,35.62c-.25-.04-.5-.05-.88-.05-1.56,0-2.16.73-2.16,1.71,0,.76.38,1.55,1.36,1.55,1.35,0,1.67-.99,1.67-2.79v-.42ZM99.34,29.79v10.61h-2.14v-10.61h2.14ZM99.36,25.72v2.34h-2.14v-2.34h2.14ZM101.04,40.81l4.02-14.49h1.64l-4,14.49h-1.66ZM108.55,26.41h6.94v1.91h-4.77v3.96h4.49v1.88h-4.49v6.23h-2.16v-13.99ZM123.3,38.23c0,.57.05,1.73.08,2.16h-1.95c-.05-.22-.1-.72-.1-1.06-.4.74-1.13,1.25-2.43,1.25-2.04,0-2.81-1.61-2.81-3.12,0-2.1,1.43-3.46,4.15-3.46.4,0,.69,0,.95.03v-1.24c0-.69-.11-1.52-1.29-1.52s-1.31.82-1.37,1.52h-2.04c.04-1.55.77-3.18,3.49-3.18,2.21,0,3.32,1.02,3.32,3.02v5.6ZM121.24,35.62c-.25-.04-.5-.05-.88-.05-1.56,0-2.16.73-2.16,1.71,0,.76.38,1.55,1.36,1.55,1.35,0,1.67-.99,1.67-2.79v-.42ZM132.69,40.4h-2.04c-.06-.32-.08-.78-.09-1.24-.44,1-1.24,1.43-2.42,1.43-1.42,0-2.65-.66-2.65-3.18v-7.62h2.15v7.13c0,1.15.27,1.82,1.27,1.82s1.62-.57,1.62-2.46v-6.49h2.15v7.57c0,1.47,0,2.51.02,3.05ZM136.21,29.79c.9,1.96,1.37,2.94,1.63,3.51h.02c.31-.72.91-1.92,1.65-3.51h2.27l-2.74,5.02,2.75,5.59h-2.38c-.87-1.98-1.37-3.08-1.63-3.68h-.02c-.25.56-.92,2.04-1.68,3.68h-2.28l2.71-5.3-2.65-5.32h2.35Z"/>
      <path class="cls-4" d="M178.64,247.8c0,2.5-2.03,4.54-4.54,4.54H21.71c-2.5,0-4.54-2.03-4.54-4.54V21.71c0-2.5,2.03-4.54,4.54-4.54h152.39c2.5,0,4.54,2.03,4.54,4.54v226.09ZM.11,269.4h195.59V.11H.11v269.29Z"/>
      <path class="cls-4" d="M35.12,21.99c.13.03.27-.06.29-.2l.26-1.37c.02-.13-.06-.26-.2-.29-.13-.02-.26.06-.29.2l-.26,1.37c-.03.13.06.26.2.29"/>
      <path class="cls-4" d="M32.24,21.82c.07,0,.13-.04.17-.08.04-.05.06-.11.06-.18l-.05-.69c0-.07-.04-.13-.09-.17-.05-.04-.11-.07-.18-.06-.07,0-.13.04-.17.09-.04.05-.06.11-.06.18l.05.69c0,.07.04.13.08.17.05.04.11.07.18.06"/>
      <path class="cls-4" d="M26.81,23.66c.06-.04.09-.1.11-.16.01-.06,0-.13-.04-.19l-.38-.58c-.04-.06-.1-.09-.16-.11-.06-.01-.13,0-.19.04-.06.04-.09.1-.11.16-.01.06,0,.13.04.19l.38.58c.04.06.1.09.16.11.06.01.13,0,.19-.04"/>
      <path class="cls-4" d="M29.41,22.39c.13-.04.2-.19.16-.32l-.45-1.32c-.05-.13-.19-.2-.32-.16-.13.04-.2.18-.16.32l.45,1.32c.04.13.19.2.32.16"/>
      <path class="cls-4" d="M26.81,23.66c-.06.04-.12.05-.19.04-.06-.01-.12-.05-.16-.11l-.38-.58c-.04-.06-.05-.12-.04-.19.01-.06.05-.12.11-.16.06-.04.12-.05.19-.04.06.01.12.05.16.11l.38.58c.04.06.05.12.04.19-.01.06-.05.12-.11.16"/>
      <path class="cls-4" d="M37.86,22.89c-.06-.03-.11-.08-.13-.14-.02-.06-.02-.13.01-.19l.3-.63c.03-.06.08-.11.14-.13.06-.02.13-.02.19.01s.11.08.13.14c.02.06.02.13-.01.19l-.3.63c-.03.06-.08.11-.14.13-.06.02-.13.02-.19-.01"/>
      <path class="cls-4" d="M40.29,24.45c-.11-.09-.12-.25-.03-.35l.9-1.06c.09-.11.25-.12.35-.03.1.09.12.24.03.35l-.9,1.06c-.09.11-.25.12-.35.03"/>
      <path class="cls-4" d="M24.63,25.55c.09-.1.08-.26-.02-.35l-1.04-.93c-.1-.09-.26-.08-.35.02-.09.1-.08.26.02.35l1.04.93c.1.09.26.08.35-.02"/>
      <path class="cls-4" d="M22.03,30.65c.03-.13-.06-.27-.19-.3l-1.36-.3c-.13-.03-.27.05-.3.19-.03.13.06.27.19.3l1.36.3c.14.03.27-.06.3-.19"/>
      <path class="cls-4" d="M21.78,33.53c0-.07-.03-.13-.08-.17-.05-.04-.11-.07-.18-.07l-.69.03c-.07,0-.13.03-.17.08-.04.05-.07.11-.07.18,0,.07.03.13.08.17.05.04.11.07.18.07l.69-.03c.07,0,.13-.03.17-.08.04-.05.07-.11.07-.18"/>
      <path class="cls-4" d="M23.47,39c-.04-.06-.09-.1-.16-.11s-.13,0-.19.03l-.59.37c-.06.04-.1.09-.11.15-.01.06,0,.13.03.19.04.06.09.1.16.11.06.01.13,0,.19-.03l.59-.37c.06-.04.1-.09.11-.15.02-.06,0-.13-.03-.19"/>
      <path class="cls-4" d="M22.27,36.37c-.04-.13-.18-.2-.31-.16l-1.33.41c-.13.04-.2.18-.17.31.04.13.18.21.31.16l1.33-.41c.13-.04.21-.18.17-.31"/>
      <path class="cls-4" d="M23.47,39c.04.06.05.13.03.19-.01.06-.05.12-.11.15l-.59.37c-.06.04-.13.04-.19.03-.06-.01-.12-.05-.16-.11-.04-.06-.04-.13-.03-.19.01-.06.05-.12.11-.15l.59-.37c.06-.04.13-.05.19-.03s.12.05.16.11"/>
      <path class="cls-4" d="M23,27.93c-.03.06-.08.1-.15.12-.06.02-.13.02-.19-.01l-.62-.32c-.06-.03-.1-.08-.12-.15-.02-.06-.02-.13.02-.19.03-.06.08-.1.15-.12.06-.02.13-.02.19.01l.62.32c.06.03.1.08.12.15.02.06.02.13-.01.19"/>
      <path class="cls-4" d="M25.29,41.24c-.1-.09-.26-.09-.35.01l-.96,1.01c-.09.1-.09.26.01.35.1.1.26.09.35,0l.96-1.01c.09-.1.09-.26,0-.35"/>
      <path class="cls-4" d="M38.36,39.33s-.09.03-.14.07c-3.25,2.54-7.79,2.34-10.81-.46-1.62-1.51-2.56-3.56-2.64-5.77-.08-2.21.72-4.33,2.23-5.95,3.13-3.35,8.41-3.54,11.77-.42,3.02,2.8,3.53,7.3,1.22,10.7-.1.15-.08.35.05.47l2.81,2.61-1.36,1.45-2.82-2.61c-.09-.09-.22-.11-.33-.09M49.79,44.73l-6.12-4.38-2.9-2.69c1.08-1.71,1.55-3.74,1.33-5.76-.23-2.15-1.24-4.14-2.82-5.61-.89-.83-1.92-1.46-3.06-1.87-1.1-.4-2.25-.58-3.43-.54-1.17.04-2.31.31-3.38.78-1.11.49-2.09,1.19-2.92,2.08-.83.89-1.47,1.92-1.89,3.05-.4,1.1-.59,2.25-.55,3.42.04,1.17.3,2.3.78,3.36.49,1.1,1.2,2.08,2.09,2.91,1.59,1.47,3.65,2.33,5.82,2.41.86.03,1.72-.06,2.55-.26,1.12-.28,2.19-.77,3.14-1.46l3.58,3.33,4.29,4.98c.87.8,2.29.68,3.19-.28l.25-.27c.9-.96.92-2.38.05-3.18"/>
      <path class="cls-4" d="M36.94,35.78c-.36.59-.96,1.02-1.63,1.19-.04.01-.09.02-.13.03-.2.04-.39-.09-.42-.29-.04-.2.09-.39.29-.42.52-.1,1-.43,1.28-.89.1-.17.33-.22.5-.12.17.1.22.33.12.5M33.33,36.88c0,.17-.11.32-.27.36-.02,0-.05,0-.08.01-1.76.06-3.49-1.09-4.1-2.74-.07-.19.03-.4.21-.46.19-.07.4.03.47.21.5,1.37,1.93,2.32,3.4,2.27.2,0,.37.15.37.35M37.64,28.01c-1.3-1.21-3-1.84-4.77-1.77-1.78.06-3.42.81-4.64,2.11-1.22,1.3-1.85,2.99-1.79,4.76.06,1.77.81,3.41,2.11,4.61,1.3,1.21,3,1.84,4.77,1.77.48-.02.94-.08,1.39-.2,1.24-.31,2.36-.96,3.24-1.91,1.22-1.3,1.85-2.99,1.79-4.76-.06-1.77-.81-3.41-2.11-4.62"/>
    </g>
    <path class="cls-1" d="M26.68,58.58h.82v6.75h2.67l-.12.72h-3.37v-7.47ZM29.42,60.73c.2-.76.38-1.68.38-2.54h.78c-.01.94-.3,2.07-.51,2.54h-.65ZM34.79,64.53c0,.7,0,1.26.01,1.53h-.77c-.03-.16-.04-.38-.04-.74-.2.55-.67.84-1.33.84s-1.39-.27-1.39-1.67v-4.01h.81v3.82c0,.71.2,1.15.84,1.15s1.06-.38,1.06-1.58v-3.39h.81v4.05ZM35.53,60.47h.79v-1.49h.8v1.49h.97v.69h-.97v3.66c0,.38.08.62.5.62.13,0,.29,0,.39-.03v.62c-.19.07-.47.09-.66.09-.66,0-1.04-.27-1.04-1.15v-3.82h-.79v-.69ZM38.88,60.47h.8v5.58h-.8v-5.58ZM38.89,58.22h.8v1.15h-.8v-1.15ZM41.04,66.05v-7.83h.8v7.83h-.8ZM43.17,60.47h.8v5.58h-.8v-5.58ZM43.18,58.22h.8v1.15h-.8v-1.15ZM46.68,65.49c.61,0,.9-.37.9-.88,0-.58-.3-.84-1.03-1.13-1.15-.44-1.49-.86-1.49-1.63s.46-1.47,1.6-1.47c1.25,0,1.6.85,1.61,1.59h-.79c-.01-.27-.07-.93-.85-.93-.53,0-.77.33-.77.77s.19.67.97.96c1.08.42,1.56.81,1.56,1.77,0,1.02-.64,1.62-1.75,1.62s-1.72-.69-1.75-1.71h.8c.04.6.35,1.05.99,1.05ZM52.6,65.07c0,.35.03.81.04.99h-.74c-.03-.12-.06-.42-.06-.63-.21.45-.63.73-1.32.73-1.07,0-1.46-.84-1.46-1.61,0-1.02.69-1.79,2.15-1.79.26,0,.42,0,.58.02v-.74c0-.44-.08-.99-.84-.99-.82,0-.87.59-.9.96h-.78c.02-.8.4-1.62,1.71-1.62,1.08,0,1.6.53,1.6,1.55v3.13ZM51.82,63.41c-.14-.02-.29-.03-.55-.03-.99,0-1.4.48-1.4,1.1,0,.51.27.99.87.99.82,0,1.08-.58,1.08-1.75v-.3ZM53.24,60.47h.79v-1.49h.8v1.49h.97v.69h-.97v3.66c0,.38.08.62.5.62.13,0,.29,0,.39-.03v.62c-.19.07-.47.09-.66.09-.66,0-1.04-.27-1.04-1.15v-3.82h-.79v-.69ZM56.59,60.47h.8v5.58h-.8v-5.58ZM56.6,58.22h.8v1.15h-.8v-1.15ZM62.29,63.2c0,1.96-.66,2.96-1.92,2.96s-1.92-.96-1.92-2.94.76-2.83,1.95-2.83,1.89.94,1.89,2.82ZM59.28,63.22c0,1.52.38,2.24,1.1,2.24s1.09-.73,1.09-2.24c0-1.43-.35-2.13-1.09-2.13s-1.1.63-1.1,2.14ZM63.33,60.47h.78c.01.14.03.36.03.73.19-.44.57-.83,1.32-.83.81,0,1.43.46,1.43,1.7v3.97h-.81v-3.82c0-.68-.22-1.14-.86-1.14-.75,0-1.07.49-1.07,1.64v3.32h-.81v-3.85c0-1.14,0-1.47-.01-1.73ZM73.74,58.22v6.4c0,.54,0,1.1.01,1.43h-.78c-.01-.14-.03-.51-.03-.75-.17.48-.53.85-1.31.85-1.16,0-1.65-.99-1.65-2.95,0-1.78.66-2.82,1.83-2.82.72,0,1,.31,1.13.58v-2.74h.8ZM70.8,63.21c0,1.61.37,2.22,1.05,2.22.87,0,1.1-.74,1.1-2.25,0-1.63-.23-2.09-1.03-2.09-.66,0-1.11.58-1.11,2.12ZM75.59,63.41c0,1.09.19,2.05,1.07,2.05s.99-.83,1.02-1h.79c-.01.14-.17,1.69-1.81,1.69s-1.87-1.51-1.87-2.89c0-1.77.6-2.88,1.92-2.88,1.47,0,1.81,1.21,1.81,2.6,0,.11,0,.29-.01.43h-2.91ZM77.7,62.78c0-.96-.2-1.71-1.02-1.71-1.02,0-1.07,1.33-1.09,1.71h2.1ZM77.7,62.78h0ZM81.72,66.05v-4.89h-.73v-.69h.73v-.77c0-.82.3-1.55,1.31-1.55.15,0,.35.03.45.06v.71c-.1-.02-.23-.05-.37-.05-.44,0-.59.28-.59.84v.75h.88v.69h-.88v4.89h-.8ZM84.13,60.47h.8v5.58h-.8v-5.58ZM84.13,58.22h.8v1.15h-.8v-1.15ZM86.28,66.05v-7.83h.8v7.83h-.8ZM87.84,60.47h.79v-1.49h.8v1.49h.97v.69h-.97v3.66c0,.38.08.62.5.62.13,0,.29,0,.39-.03v.62c-.19.07-.47.09-.66.09-.66,0-1.04-.27-1.04-1.15v-3.82h-.79v-.69ZM91.14,60.47h.77c.01.14.03.4.03,1,.24-.67.78-1.07,1.47-1.08v.89c-.96.03-1.46.63-1.46,1.66v3.12h-.8v-3.68c0-.89,0-1.5-.01-1.9ZM94.66,63.41c0,1.09.19,2.05,1.07,2.05s.99-.83,1.02-1h.79c-.01.14-.17,1.69-1.81,1.69s-1.87-1.51-1.87-2.89c0-1.77.6-2.88,1.92-2.88,1.47,0,1.81,1.21,1.81,2.6,0,.11,0,.29-.01.43h-2.91ZM96.78,62.78c0-.96-.2-1.71-1.02-1.71-1.02,0-1.07,1.33-1.09,1.71h2.1ZM96.78,62.78h0ZM100.05,65.49c.61,0,.9-.37.9-.88,0-.58-.3-.84-1.03-1.13-1.15-.44-1.49-.86-1.49-1.63s.46-1.47,1.6-1.47c1.25,0,1.6.85,1.61,1.59h-.79c-.01-.27-.07-.93-.85-.93-.53,0-.77.33-.77.77s.19.67.97.96c1.08.42,1.56.81,1.56,1.77,0,1.02-.64,1.62-1.75,1.62s-1.72-.69-1.75-1.71h.8c.04.6.35,1.05.99,1.05ZM108.34,58.22v6.4c0,.54,0,1.1.01,1.43h-.78c-.01-.14-.03-.51-.03-.75-.17.48-.53.85-1.31.85-1.16,0-1.65-.99-1.65-2.95,0-1.78.66-2.82,1.83-2.82.72,0,1,.31,1.13.58v-2.74h.8ZM105.4,63.21c0,1.61.37,2.22,1.05,2.22.87,0,1.1-.74,1.1-2.25,0-1.63-.23-2.09-1.03-2.09-.66,0-1.11.58-1.11,2.12ZM112.83,65.07c0,.35.03.81.04.99h-.74c-.03-.12-.06-.42-.06-.63-.21.45-.63.73-1.32.73-1.07,0-1.46-.84-1.46-1.61,0-1.02.69-1.79,2.15-1.79.26,0,.42,0,.58.02v-.74c0-.44-.08-.99-.84-.99-.82,0-.87.59-.9.96h-.78c.02-.8.4-1.62,1.71-1.62,1.08,0,1.6.53,1.6,1.55v3.13ZM112.06,63.41c-.14-.02-.29-.03-.55-.03-.99,0-1.4.48-1.4,1.1,0,.51.27.99.87.99.82,0,1.08-.58,1.08-1.75v-.3ZM114.16,60.47h.78c.01.14.03.36.03.73.19-.44.57-.83,1.32-.83.81,0,1.43.46,1.43,1.7v3.97h-.81v-3.82c0-.68-.22-1.14-.86-1.14-.75,0-1.07.49-1.07,1.64v3.32h-.81v-3.85c0-1.14,0-1.47-.01-1.73ZM120.42,65.49c.61,0,.9-.37.9-.88,0-.58-.3-.84-1.03-1.13-1.15-.44-1.49-.86-1.49-1.63s.46-1.47,1.6-1.47c1.25,0,1.6.85,1.61,1.59h-.79c-.01-.27-.07-.93-.85-.93-.53,0-.77.33-.77.77s.19.67.97.96c1.08.42,1.56.81,1.56,1.77,0,1.02-.64,1.62-1.75,1.62s-1.72-.69-1.75-1.71h.8c.04.6.35,1.05.99,1.05ZM125.22,66.05v-7.83h.8v7.83h-.8ZM127.89,63.41c0,1.09.19,2.05,1.07,2.05s.99-.83,1.02-1h.79c-.01.14-.17,1.69-1.81,1.69s-1.87-1.51-1.87-2.89c0-1.77.6-2.88,1.92-2.88,1.47,0,1.81,1.21,1.81,2.6,0,.11,0,.29-.01.43h-2.91ZM130.01,62.78c0-.96-.2-1.71-1.02-1.71-1.02,0-1.07,1.33-1.09,1.71h2.1ZM130.01,62.78h0ZM133.28,65.49c.61,0,.9-.37.9-.88,0-.58-.3-.84-1.03-1.13-1.15-.44-1.49-.86-1.49-1.63s.46-1.47,1.6-1.47c1.25,0,1.6.85,1.61,1.59h-.79c-.01-.27-.07-.93-.85-.93-.53,0-.77.33-.77.77s.19.67.97.96c1.08.42,1.56.81,1.56,1.77,0,1.02-.64,1.62-1.75,1.62s-1.72-.69-1.75-1.71h.8c.04.6.35,1.05.99,1.05ZM138.09,58.22h.8v2.99c.18-.43.57-.83,1.33-.83,1.07,0,1.63.89,1.63,2.74,0,1.72-.46,3.02-1.78,3.02-.71,0-1.03-.36-1.2-.75,0,.18-.01.44-.03.66h-.76c.01-.3.01-.85.01-1.53v-6.3ZM141.03,63.14c0-1.4-.33-2.04-1.03-2.04-.86,0-1.14.77-1.14,2.18,0,1.34.22,2.16,1.06,2.16.74,0,1.1-.72,1.1-2.3ZM146.09,65.07c0,.35.03.81.04.99h-.74c-.03-.12-.06-.42-.06-.63-.21.45-.63.73-1.32.73-1.07,0-1.46-.84-1.46-1.61,0-1.02.69-1.79,2.15-1.79.26,0,.42,0,.58.02v-.74c0-.44-.08-.99-.84-.99-.82,0-.87.59-.9.96h-.78c.02-.8.4-1.62,1.71-1.62,1.08,0,1.6.53,1.6,1.55v3.13ZM145.32,63.41c-.14-.02-.29-.03-.55-.03-.99,0-1.4.48-1.4,1.1,0,.51.27.99.87.99.82,0,1.08-.58,1.08-1.75v-.3ZM148.74,65.49c.61,0,.9-.37.9-.88,0-.58-.3-.84-1.03-1.13-1.15-.44-1.49-.86-1.49-1.63s.46-1.47,1.6-1.47c1.25,0,1.6.85,1.61,1.59h-.79c-.01-.27-.07-.93-.85-.93-.53,0-.77.33-.77.77s.19.67.97.96c1.08.42,1.56.81,1.56,1.77,0,1.02-.64,1.62-1.75,1.62s-1.72-.69-1.75-1.71h.8c.04.6.35,1.05.99,1.05ZM151.99,63.41c0,1.09.19,2.05,1.07,2.05s.99-.83,1.02-1h.79c-.01.14-.17,1.69-1.81,1.69s-1.87-1.51-1.87-2.89c0-1.77.6-2.88,1.92-2.88,1.47,0,1.81,1.21,1.81,2.6,0,.11,0,.29-.01.43h-2.91ZM154.11,62.78c0-.96-.2-1.71-1.02-1.71-1.02,0-1.07,1.33-1.09,1.71h2.1ZM154.11,62.78h0ZM157.38,65.49c.61,0,.9-.37.9-.88,0-.58-.3-.84-1.03-1.13-1.15-.44-1.49-.86-1.49-1.63s.46-1.47,1.6-1.47c1.25,0,1.6.85,1.61,1.59h-.79c-.01-.27-.07-.93-.85-.93-.53,0-.77.33-.77.77s.19.67.97.96c1.08.42,1.56.81,1.56,1.77,0,1.02-.64,1.62-1.75,1.62s-1.72-.69-1.75-1.71h.8c.04.6.35,1.05.99,1.05Z"/>
    <path class="cls-1" d="M30.08,71.42v6.4c0,.54,0,1.1.01,1.43h-.78c-.01-.14-.03-.51-.03-.75-.17.48-.53.85-1.31.85-1.16,0-1.65-.99-1.65-2.95,0-1.78.66-2.82,1.83-2.82.72,0,1,.31,1.13.58v-2.74h.8ZM27.15,76.41c0,1.61.37,2.22,1.05,2.22.87,0,1.1-.74,1.1-2.25,0-1.63-.23-2.09-1.03-2.09-.66,0-1.11.58-1.11,2.12ZM31.93,76.61c0,1.09.19,2.05,1.07,2.05s.99-.83,1.02-1h.79c-.01.14-.17,1.69-1.81,1.69s-1.87-1.51-1.87-2.89c0-1.77.6-2.88,1.92-2.88,1.47,0,1.81,1.21,1.81,2.6,0,.11,0,.29-.01.43h-2.91ZM34.04,75.98c0-.96-.2-1.71-1.02-1.71-1.02,0-1.07,1.33-1.09,1.71h2.1ZM34.04,75.98h0ZM41.46,71.42v6.4c0,.54,0,1.1.01,1.43h-.78c-.01-.14-.03-.51-.03-.75-.17.48-.53.85-1.31.85-1.16,0-1.65-.99-1.65-2.95,0-1.78.66-2.82,1.83-2.82.72,0,1,.31,1.13.58v-2.74h.8ZM38.52,76.41c0,1.61.37,2.22,1.05,2.22.87,0,1.1-.74,1.1-2.25,0-1.63-.23-2.09-1.03-2.09-.66,0-1.11.58-1.11,2.12ZM46.33,76.4c0,1.96-.66,2.96-1.92,2.96s-1.92-.96-1.92-2.94.76-2.83,1.95-2.83,1.89.94,1.89,2.82ZM43.32,76.42c0,1.52.38,2.24,1.1,2.24s1.09-.73,1.09-2.24c0-1.43-.35-2.13-1.09-2.13s-1.1.63-1.1,2.14ZM47.37,73.67h.78c.01.14.03.36.03.73.19-.44.57-.83,1.32-.83.81,0,1.43.46,1.43,1.7v3.97h-.81v-3.82c0-.68-.22-1.14-.86-1.14-.75,0-1.07.49-1.07,1.64v3.32h-.81v-3.85c0-1.14,0-1.47-.01-1.73ZM52.24,73.67h.78c.01.14.03.36.03.73.19-.44.57-.83,1.32-.83.81,0,1.43.46,1.43,1.7v3.97h-.81v-3.82c0-.68-.22-1.14-.86-1.14-.75,0-1.07.49-1.07,1.64v3.32h-.81v-3.85c0-1.14,0-1.47-.01-1.73ZM57.66,76.61c0,1.09.19,2.05,1.07,2.05s.99-.83,1.02-1h.79c-.01.14-.17,1.69-1.81,1.69s-1.87-1.51-1.87-2.89c0-1.77.6-2.88,1.92-2.88,1.47,0,1.81,1.21,1.81,2.6,0,.11,0,.29-.01.43h-2.91ZM59.77,75.98c0-.96-.2-1.71-1.02-1.71-1.02,0-1.07,1.33-1.09,1.71h2.1ZM60.29,71.3l-1.38,1.53h-.75l1.18-1.53h.95ZM59.77,75.98h0ZM62.22,76.61c0,1.09.19,2.05,1.07,2.05s.99-.83,1.02-1h.79c-.01.14-.17,1.69-1.81,1.69s-1.87-1.51-1.87-2.89c0-1.77.6-2.88,1.92-2.88,1.47,0,1.81,1.21,1.81,2.6,0,.11,0,.29-.01.43h-2.91ZM64.34,75.98c0-.96-.2-1.71-1.02-1.71-1.02,0-1.07,1.33-1.09,1.71h2.1ZM64.34,75.98h0ZM67.61,78.69c.61,0,.9-.37.9-.88,0-.58-.3-.84-1.03-1.13-1.15-.44-1.49-.86-1.49-1.63s.46-1.47,1.6-1.47c1.25,0,1.6.85,1.61,1.59h-.79c-.01-.27-.07-.93-.85-.93-.53,0-.77.33-.77.77s.19.67.97.96c1.08.42,1.56.81,1.56,1.77,0,1.02-.64,1.62-1.75,1.62s-1.72-.69-1.75-1.71h.8c.04.6.35,1.05.99,1.05ZM72.95,76.61c0,1.09.19,2.05,1.07,2.05s.99-.83,1.02-1h.79c-.01.14-.17,1.69-1.81,1.69s-1.87-1.51-1.87-2.89c0-1.77.6-2.88,1.92-2.88,1.47,0,1.81,1.21,1.81,2.6,0,.11,0,.29-.01.43h-2.91ZM75.06,75.98c0-.96-.2-1.71-1.02-1.71-1.02,0-1.07,1.33-1.09,1.71h2.1ZM75.06,75.98h0ZM78.33,78.69c.61,0,.9-.37.9-.88,0-.58-.3-.84-1.03-1.13-1.15-.44-1.49-.86-1.49-1.63s.46-1.47,1.6-1.47c1.25,0,1.6.85,1.61,1.59h-.79c-.01-.27-.07-.93-.85-.93-.53,0-.77.33-.77.77s.19.67.97.96c1.08.42,1.56.81,1.56,1.77,0,1.02-.64,1.62-1.75,1.62s-1.72-.69-1.75-1.71h.8c.04.6.35,1.05.99,1.05ZM80.43,73.67h.79v-1.49h.8v1.49h.97v.69h-.97v3.66c0,.38.08.62.5.62.13,0,.29,0,.39-.03v.62c-.19.07-.47.09-.66.09-.66,0-1.04-.27-1.04-1.15v-3.82h-.79v-.69ZM87.23,78.69c.61,0,.9-.37.9-.88,0-.58-.3-.84-1.03-1.13-1.15-.44-1.49-.86-1.49-1.63s.46-1.47,1.6-1.47c1.25,0,1.6.85,1.61,1.59h-.79c-.01-.27-.07-.93-.85-.93-.53,0-.77.33-.77.77s.19.67.97.96c1.08.42,1.56.81,1.56,1.77,0,1.02-.64,1.62-1.75,1.62s-1.72-.69-1.75-1.71h.8c.04.6.35,1.05.99,1.05ZM91.41,78.28h.01c.11-.64.61-2.55,1.14-4.6h.83l-1.63,5.86c-.45,1.63-.89,1.85-1.68,1.85-.12,0-.29-.01-.4-.04v-.72c.08.02.24.03.37.03.58,0,.75-.4.97-1.29l-1.63-5.69h.88c.6,2.33,1.06,4.01,1.14,4.6ZM95.58,78.69c.61,0,.9-.37.9-.88,0-.58-.3-.84-1.03-1.13-1.15-.44-1.49-.86-1.49-1.63s.46-1.47,1.6-1.47c1.25,0,1.6.85,1.61,1.59h-.79c-.01-.27-.07-.93-.85-.93-.53,0-.77.33-.77.77s.19.67.97.96c1.08.42,1.56.81,1.56,1.77,0,1.02-.64,1.62-1.75,1.62s-1.72-.69-1.75-1.71h.8c.04.6.35,1.05.99,1.05ZM97.68,73.67h.79v-1.49h.8v1.49h.97v.69h-.97v3.66c0,.38.08.62.5.62.13,0,.29,0,.39-.03v.62c-.19.07-.47.09-.66.09-.66,0-1.04-.27-1.04-1.15v-3.82h-.79v-.69ZM101.48,76.61c0,1.09.19,2.05,1.07,2.05s.99-.83,1.02-1h.79c-.01.14-.17,1.69-1.81,1.69s-1.87-1.51-1.87-2.89c0-1.77.6-2.88,1.92-2.88,1.47,0,1.81,1.21,1.81,2.6,0,.11,0,.29-.01.43h-2.91ZM103.59,75.98c0-.96-.2-1.71-1.02-1.71-1.02,0-1.07,1.33-1.09,1.71h2.1ZM104.12,71.3l-1.38,1.53h-.75l1.18-1.53h.95ZM103.59,75.98h0ZM105.43,75.35c0-.99,0-1.41-.01-1.67h.77c.02.16.03.46.03.71.22-.49.61-.81,1.25-.81.58,0,.99.25,1.16.83.2-.45.62-.83,1.35-.83s1.35.34,1.35,1.62v4.05h-.8v-3.91c0-.56-.16-1.05-.79-1.05-.71,0-.95.63-.95,1.38v3.58h-.8v-3.89c0-.69-.23-1.06-.77-1.06-.67,0-.98.61-.98,1.45v3.5h-.8v-3.91ZM115.79,78.27c0,.35.03.81.04.99h-.74c-.03-.12-.06-.42-.06-.63-.21.45-.63.73-1.32.73-1.07,0-1.46-.84-1.46-1.61,0-1.02.69-1.79,2.15-1.79.26,0,.42,0,.58.02v-.74c0-.44-.08-.99-.84-.99-.82,0-.87.59-.9.96h-.78c.02-.8.4-1.62,1.71-1.62,1.08,0,1.6.53,1.6,1.55v3.13ZM115.02,76.61c-.14-.02-.29-.03-.55-.03-.99,0-1.4.48-1.4,1.1,0,.51.27.99.87.99.82,0,1.08-.58,1.08-1.75v-.3ZM116.43,73.67h.79v-1.49h.8v1.49h.97v.69h-.97v3.66c0,.38.08.62.5.62.13,0,.29,0,.39-.03v.62c-.19.07-.47.09-.66.09-.66,0-1.04-.27-1.04-1.15v-3.82h-.79v-.69ZM119.79,73.67h.8v5.58h-.8v-5.58ZM119.79,71.42h.8v1.15h-.8v-1.15ZM124.62,78.55c-.21.48-.59.8-1.31.8-1.04,0-1.66-.86-1.66-2.89,0-1.85.7-2.88,1.8-2.88.74,0,1.05.35,1.17.7,0-.31.02-.5.03-.6h.78c-.01.4-.01.86-.01,1.65v5.98h-.79v-2.76ZM122.47,76.47c0,1.33.31,2.18,1.06,2.18.9,0,1.09-.78,1.09-2.21s-.12-2.15-1.03-2.15c-.7,0-1.11.76-1.11,2.18ZM130.25,77.73c0,.7,0,1.26.01,1.53h-.77c-.03-.16-.04-.38-.04-.74-.2.55-.67.84-1.33.84s-1.39-.27-1.39-1.67v-4.01h.81v3.82c0,.71.2,1.15.84,1.15s1.06-.38,1.06-1.58v-3.39h.81v4.05ZM132.09,76.61c0,1.09.19,2.05,1.07,2.05s.99-.83,1.02-1h.79c-.01.14-.17,1.69-1.81,1.69s-1.87-1.51-1.87-2.89c0-1.77.6-2.88,1.92-2.88,1.47,0,1.81,1.21,1.81,2.6,0,.11,0,.29-.01.43h-2.91ZM134.21,75.98c0-.96-.2-1.71-1.02-1.71-1.02,0-1.07,1.33-1.09,1.71h2.1ZM134.21,75.98h0ZM136.04,75.35c0-.99,0-1.41-.01-1.67h.77c.02.16.03.46.03.71.22-.49.61-.81,1.25-.81.58,0,.99.25,1.16.83.2-.45.62-.83,1.35-.83s1.35.34,1.35,1.62v4.05h-.8v-3.91c0-.56-.16-1.05-.79-1.05-.71,0-.95.63-.95,1.38v3.58h-.8v-3.89c0-.69-.23-1.06-.77-1.06-.67,0-.98.61-.98,1.45v3.5h-.8v-3.91ZM143.78,76.61c0,1.09.19,2.05,1.07,2.05s.99-.83,1.02-1h.79c-.01.14-.17,1.69-1.81,1.69s-1.87-1.51-1.87-2.89c0-1.77.6-2.88,1.92-2.88,1.47,0,1.81,1.21,1.81,2.6,0,.11,0,.29-.01.43h-2.91ZM145.9,75.98c0-.96-.2-1.71-1.02-1.71-1.02,0-1.07,1.33-1.09,1.71h2.1ZM145.9,75.98h0ZM147.72,73.67h.78c.01.14.03.36.03.73.19-.44.57-.83,1.32-.83.81,0,1.43.46,1.43,1.7v3.97h-.81v-3.82c0-.68-.22-1.14-.86-1.14-.75,0-1.07.49-1.07,1.64v3.32h-.81v-3.85c0-1.14,0-1.47-.01-1.73ZM151.91,73.67h.79v-1.49h.8v1.49h.97v.69h-.97v3.66c0,.38.08.62.5.62.13,0,.29,0,.39-.03v.62c-.19.07-.47.09-.66.09-.66,0-1.04-.27-1.04-1.15v-3.82h-.79v-.69Z"/>
    <path class="cls-1" d="M26.59,86.87h.77c.01.14.03.4.03,1,.24-.67.78-1.07,1.47-1.08v.89c-.96.03-1.46.63-1.46,1.66v3.12h-.8v-3.68c0-.89,0-1.5-.01-1.9ZM30.1,89.81c0,1.09.19,2.05,1.07,2.05s.99-.83,1.02-1h.79c-.01.14-.17,1.69-1.81,1.69s-1.87-1.51-1.87-2.89c0-1.77.6-2.88,1.92-2.88,1.47,0,1.81,1.21,1.81,2.6,0,.11,0,.29-.01.43h-2.91ZM32.22,89.18c0-.96-.2-1.71-1.02-1.71-1.02,0-1.07,1.33-1.09,1.71h2.1ZM32.22,89.18h0ZM36.83,91.75c-.21.48-.59.8-1.31.8-1.04,0-1.66-.86-1.66-2.89,0-1.85.7-2.88,1.8-2.88.74,0,1.05.35,1.17.7,0-.31.02-.5.03-.6h.78c-.01.4-.01.86-.01,1.65v5.98h-.79v-2.76ZM34.69,89.67c0,1.33.31,2.18,1.06,2.18.9,0,1.09-.78,1.09-2.21s-.12-2.15-1.03-2.15c-.7,0-1.11.76-1.11,2.18ZM42.46,90.93c0,.7,0,1.26.01,1.53h-.77c-.03-.16-.04-.38-.04-.74-.2.55-.67.84-1.33.84s-1.39-.27-1.39-1.67v-4.01h.81v3.82c0,.71.2,1.15.84,1.15s1.06-.38,1.06-1.58v-3.39h.81v4.05ZM43.77,86.87h.8v5.58h-.8v-5.58ZM43.77,84.62h.8v1.15h-.8v-1.15ZM47.27,91.89c.61,0,.9-.37.9-.88,0-.58-.3-.84-1.03-1.13-1.15-.44-1.49-.86-1.49-1.63s.46-1.47,1.6-1.47c1.25,0,1.6.85,1.61,1.59h-.79c-.01-.27-.07-.93-.85-.93-.53,0-.77.33-.77.77s.19.67.97.96c1.08.42,1.56.81,1.56,1.77,0,1.02-.64,1.62-1.75,1.62s-1.72-.69-1.75-1.71h.8c.04.6.35,1.05.99,1.05ZM50.52,89.81c0,1.09.19,2.05,1.07,2.05s.99-.83,1.02-1h.79c-.01.14-.17,1.69-1.81,1.69s-1.87-1.51-1.87-2.89c0-1.77.6-2.88,1.92-2.88,1.47,0,1.81,1.21,1.81,2.6,0,.11,0,.29-.01.43h-2.91ZM52.63,89.18c0-.96-.2-1.71-1.02-1.71-1.02,0-1.07,1.33-1.09,1.71h2.1ZM52.63,89.18h0ZM54.27,90.95h.82v1.51h-.82v-1.51Z"/>
    <path class="cls-1" d="M27.49,166.97v3.44h-.82v-7.47h1.95c1.25,0,1.91.71,1.91,1.93,0,1.12-.55,1.59-1,1.75.69.25.91.86.91,1.91v.3c0,.7.02,1.19.11,1.59h-.81c-.1-.34-.11-1.01-.11-1.61v-.25c0-1.06-.22-1.57-1.23-1.57h-.91ZM27.49,166.27h.96c.91,0,1.25-.51,1.25-1.38,0-.75-.35-1.26-1.17-1.26h-1.03v2.64ZM32.28,167.77c0,1.09.19,2.05,1.07,2.05s.99-.83,1.02-1h.79c-.01.14-.17,1.69-1.81,1.69s-1.87-1.51-1.87-2.89c0-1.77.6-2.88,1.92-2.88,1.47,0,1.81,1.21,1.81,2.6,0,.11,0,.29-.01.43h-2.91ZM34.4,167.14c0-.96-.2-1.71-1.02-1.71-1.02,0-1.07,1.33-1.09,1.71h2.1ZM34.92,162.45l-1.38,1.53h-.75l1.18-1.53h.95ZM34.4,167.14h0ZM37.03,169.84v2.62h-.8v-6c0-.76,0-1.28-.01-1.63h.78c.01.1.03.47.03.75.2-.48.59-.84,1.33-.84,1.06,0,1.63.94,1.63,2.8,0,2.01-.7,2.97-1.79,2.97-.67,0-1-.32-1.16-.67ZM39.16,167.58c0-1.4-.32-2.13-1.06-2.13-.86,0-1.1.82-1.1,2.14s.13,2.21,1.05,2.21c.73,0,1.1-.85,1.1-2.22ZM44.62,167.56c0,1.96-.66,2.96-1.92,2.96s-1.92-.96-1.92-2.94.76-2.83,1.95-2.83,1.89.94,1.89,2.82ZM41.6,167.58c0,1.52.38,2.24,1.1,2.24s1.09-.73,1.09-2.24c0-1.43-.35-2.13-1.09-2.13s-1.1.63-1.1,2.14ZM45.65,164.83h.78c.01.14.03.36.03.73.19-.44.57-.83,1.32-.83.81,0,1.43.46,1.43,1.7v3.97h-.81v-3.82c0-.68-.22-1.14-.86-1.14-.75,0-1.07.49-1.07,1.64v3.32h-.81v-3.85c0-1.14,0-1.47-.01-1.73ZM51.91,169.85c.61,0,.9-.37.9-.88,0-.58-.3-.84-1.03-1.13-1.15-.44-1.49-.86-1.49-1.63s.46-1.47,1.6-1.47c1.25,0,1.6.85,1.61,1.59h-.79c-.01-.27-.07-.93-.85-.93-.53,0-.77.33-.77.77s.19.67.97.96c1.08.42,1.56.81,1.56,1.77,0,1.02-.64,1.62-1.75,1.62s-1.72-.69-1.75-1.71h.8c.04.6.35,1.05.99,1.05ZM55.16,167.77c0,1.09.19,2.05,1.07,2.05s.99-.83,1.02-1h.79c-.01.14-.17,1.69-1.81,1.69s-1.87-1.51-1.87-2.89c0-1.77.6-2.88,1.92-2.88,1.47,0,1.81,1.21,1.81,2.6,0,.11,0,.29-.01.43h-2.91ZM57.28,167.14c0-.96-.2-1.71-1.02-1.71-1.02,0-1.07,1.33-1.09,1.71h2.1ZM57.28,167.14h0ZM61.26,166.5v-1.51h.78v1.51h-.78ZM61.26,168.9h.78v1.51h-.78v-1.51ZM65.59,162.94h3.44v.73h-2.62v2.49h2.46v.72h-2.46v3.52h-.82v-7.47ZM72.92,169.42c0,.35.03.81.04.99h-.74c-.03-.12-.06-.42-.06-.63-.21.45-.63.73-1.32.73-1.07,0-1.46-.84-1.46-1.61,0-1.02.69-1.79,2.15-1.79.26,0,.42,0,.58.02v-.74c0-.44-.08-.99-.84-.99-.82,0-.87.59-.9.96h-.78c.02-.8.4-1.62,1.71-1.62,1.08,0,1.6.53,1.6,1.55v3.13ZM72.15,167.77c-.14-.02-.29-.03-.55-.03-.99,0-1.4.48-1.4,1.1,0,.51.27.99.87.99.82,0,1.08-.58,1.08-1.75v-.3ZM77.71,168.88c0,.7,0,1.26.01,1.53h-.77c-.03-.16-.04-.38-.04-.74-.2.55-.67.84-1.33.84s-1.39-.27-1.39-1.67v-4.01h.81v3.82c0,.71.2,1.15.84,1.15s1.06-.38,1.06-1.58v-3.39h.81v4.05ZM79.29,164.83c.58,1.21.88,1.76,1.02,2.07h.01c.18-.38.56-1.11,1.05-2.07h.86l-1.47,2.66,1.48,2.92h-.9c-.55-1.15-.89-1.83-1.05-2.17h-.01c-.14.3-.55,1.13-1.07,2.17h-.86l1.47-2.8-1.43-2.78h.89Z"/>
    <path class="cls-1" d="M26.68,181.8h.82v6.75h2.67l-.12.72h-3.37v-7.47ZM31.42,186.64c0,1.09.19,2.05,1.07,2.05s.99-.83,1.02-1h.79c-.01.14-.17,1.69-1.81,1.69s-1.87-1.51-1.87-2.89c0-1.77.6-2.88,1.92-2.88,1.47,0,1.81,1.21,1.81,2.6,0,.11,0,.29-.01.43h-2.91ZM33.54,186c0-.96-.2-1.71-1.02-1.71-1.02,0-1.07,1.33-1.09,1.71h2.1ZM33.54,186h0ZM36.81,188.72c.61,0,.9-.37.9-.88,0-.58-.3-.84-1.03-1.13-1.15-.44-1.49-.86-1.49-1.63s.46-1.47,1.6-1.47c1.25,0,1.6.85,1.61,1.59h-.79c-.01-.27-.07-.93-.85-.93-.53,0-.77.33-.77.77s.19.67.97.96c1.08.42,1.56.81,1.56,1.77,0,1.02-.64,1.62-1.75,1.62s-1.72-.69-1.75-1.71h.8c.04.6.35,1.05.99,1.05ZM41.7,189.27v-4.89h-.73v-.69h.73v-.77c0-.82.3-1.55,1.31-1.55.15,0,.35.03.45.06v.71c-.1-.02-.23-.05-.37-.05-.44,0-.59.28-.59.84v.75h.88v.69h-.88v4.89h-.8ZM44.11,183.7h.8v5.58h-.8v-5.58ZM44.11,181.44h.8v1.15h-.8v-1.15ZM46.26,189.27v-7.83h.8v7.83h-.8ZM47.82,183.7h.79v-1.49h.8v1.49h.97v.69h-.97v3.66c0,.38.08.62.5.62.13,0,.29,0,.39-.03v.62c-.19.07-.47.09-.66.09-.66,0-1.04-.27-1.04-1.15v-3.82h-.79v-.69ZM51.13,183.7h.77c.01.14.03.4.03,1,.24-.67.78-1.07,1.47-1.08v.89c-.96.03-1.46.63-1.46,1.66v3.12h-.8v-3.68c0-.89,0-1.5-.01-1.9ZM54.64,186.64c0,1.09.19,2.05,1.07,2.05s.99-.83,1.02-1h.79c-.01.14-.17,1.69-1.81,1.69s-1.87-1.51-1.87-2.89c0-1.77.6-2.88,1.92-2.88,1.47,0,1.81,1.21,1.81,2.6,0,.11,0,.29-.01.43h-2.91ZM56.76,186c0-.96-.2-1.71-1.02-1.71-1.02,0-1.07,1.33-1.09,1.71h2.1ZM56.76,186h0ZM60.03,188.72c.61,0,.9-.37.9-.88,0-.58-.3-.84-1.03-1.13-1.15-.44-1.49-.86-1.49-1.63s.46-1.47,1.6-1.47c1.25,0,1.6.85,1.61,1.59h-.79c-.01-.27-.07-.93-.85-.93-.53,0-.77.33-.77.77s.19.67.97.96c1.08.42,1.56.81,1.56,1.77,0,1.02-.64,1.62-1.75,1.62s-1.72-.69-1.75-1.71h.8c.04.6.35,1.05.99,1.05ZM68.32,181.44v6.4c0,.54,0,1.1.01,1.43h-.78c-.01-.14-.03-.51-.03-.75-.17.48-.53.85-1.31.85-1.16,0-1.65-.99-1.65-2.95,0-1.78.66-2.82,1.83-2.82.72,0,1,.31,1.13.58v-2.74h.8ZM65.38,186.44c0,1.61.37,2.22,1.05,2.22.87,0,1.1-.74,1.1-2.25,0-1.63-.23-2.09-1.03-2.09-.66,0-1.11.58-1.11,2.12ZM73.19,186.42c0,1.96-.66,2.96-1.92,2.96s-1.92-.96-1.92-2.94.76-2.83,1.95-2.83,1.89.94,1.89,2.82ZM70.18,186.44c0,1.52.38,2.24,1.1,2.24s1.09-.73,1.09-2.24c0-1.43-.35-2.13-1.09-2.13s-1.1.63-1.1,2.14ZM74.24,183.7h.8v5.58h-.8v-5.58ZM74.24,181.44h.8v1.15h-.8v-1.15ZM76.67,183.7c.46,1.81,1.01,3.99,1.12,4.67h.01c.07-.62.91-3.53,1.18-4.67h.81l-1.6,5.58h-.87l-1.51-5.58h.85ZM81.05,186.64c0,1.09.19,2.05,1.07,2.05s.99-.83,1.02-1h.79c-.01.14-.17,1.69-1.81,1.69s-1.87-1.51-1.87-2.89c0-1.77.6-2.88,1.92-2.88,1.47,0,1.81,1.21,1.81,2.6,0,.11,0,.29-.01.43h-2.91ZM83.17,186c0-.96-.2-1.71-1.02-1.71-1.02,0-1.07,1.33-1.09,1.71h2.1ZM83.17,186h0ZM84.98,183.7h.78c.01.14.03.36.03.73.19-.44.57-.83,1.32-.83.81,0,1.43.46,1.43,1.7v3.97h-.81v-3.82c0-.68-.22-1.14-.86-1.14-.75,0-1.07.49-1.07,1.64v3.32h-.81v-3.85c0-1.14,0-1.47-.01-1.73ZM89.18,183.7h.79v-1.49h.8v1.49h.97v.69h-.97v3.66c0,.38.08.62.5.62.13,0,.29,0,.39-.03v.62c-.19.07-.47.09-.66.09-.66,0-1.04-.27-1.04-1.15v-3.82h-.79v-.69ZM95.13,186.64c0,1.09.19,2.05,1.07,2.05s.99-.83,1.02-1h.79c-.01.14-.17,1.69-1.81,1.69s-1.87-1.51-1.87-2.89c0-1.77.6-2.88,1.92-2.88,1.47,0,1.81,1.21,1.81,2.6,0,.11,0,.29-.01.43h-2.91ZM96.6,181.42l.96,1.49h-.79l-.61-.99-.62.99h-.77l.95-1.49h.87ZM97.25,186c0-.96-.2-1.71-1.02-1.71-1.02,0-1.07,1.33-1.09,1.71h2.1ZM97.25,186h0ZM98.51,183.7h.79v-1.49h.8v1.49h.97v.69h-.97v3.66c0,.38.08.62.5.62.13,0,.29,0,.39-.03v.62c-.19.07-.47.09-.66.09-.66,0-1.04-.27-1.04-1.15v-3.82h-.79v-.69ZM101.81,183.7h.77c.01.14.03.4.03,1,.24-.67.78-1.07,1.47-1.08v.89c-.96.03-1.46.63-1.46,1.66v3.12h-.8v-3.68c0-.89,0-1.5-.01-1.9ZM105.33,186.64c0,1.09.19,2.05,1.07,2.05s.99-.83,1.02-1h.79c-.01.14-.17,1.69-1.81,1.69s-1.87-1.51-1.87-2.89c0-1.77.6-2.88,1.92-2.88,1.47,0,1.81,1.21,1.81,2.6,0,.11,0,.29-.01.43h-2.91ZM107.45,186c0-.96-.2-1.71-1.02-1.71-1.02,0-1.07,1.33-1.09,1.71h2.1ZM107.45,186h0ZM114.88,187.75c0,.7,0,1.26.01,1.53h-.77c-.03-.16-.04-.38-.04-.74-.2.55-.67.84-1.33.84s-1.39-.27-1.39-1.67v-4.01h.81v3.82c0,.71.2,1.15.84,1.15s1.06-.38,1.06-1.58v-3.39h.81v4.05ZM115.62,183.7h.79v-1.49h.8v1.49h.97v.69h-.97v3.66c0,.38.08.62.5.62.13,0,.29,0,.39-.03v.62c-.19.07-.47.09-.66.09-.66,0-1.04-.27-1.04-1.15v-3.82h-.79v-.69ZM118.97,183.7h.8v5.58h-.8v-5.58ZM118.98,181.44h.8v1.15h-.8v-1.15ZM121.13,189.27v-7.83h.8v7.83h-.8ZM123.26,183.7h.8v5.58h-.8v-5.58ZM123.27,181.44h.8v1.15h-.8v-1.15ZM126.77,188.72c.61,0,.9-.37.9-.88,0-.58-.3-.84-1.03-1.13-1.15-.44-1.49-.86-1.49-1.63s.46-1.47,1.6-1.47c1.25,0,1.6.85,1.61,1.59h-.79c-.01-.27-.07-.93-.85-.93-.53,0-.77.33-.77.77s.19.67.97.96c1.08.42,1.56.81,1.56,1.77,0,1.02-.64,1.62-1.75,1.62s-1.72-.69-1.75-1.71h.8c.04.6.35,1.05.99,1.05ZM130.01,186.64c0,1.09.19,2.05,1.07,2.05s.99-.83,1.02-1h.79c-.01.14-.17,1.69-1.81,1.69s-1.87-1.51-1.87-2.89c0-1.77.6-2.88,1.92-2.88,1.47,0,1.81,1.21,1.81,2.6,0,.11,0,.29-.01.43h-2.91ZM132.13,186c0-.96-.2-1.71-1.02-1.71-1.02,0-1.07,1.33-1.09,1.71h2.1ZM132.65,181.32l-1.38,1.53h-.75l1.18-1.53h.95ZM132.13,186h0ZM135.4,188.72c.61,0,.9-.37.9-.88,0-.58-.3-.84-1.03-1.13-1.15-.44-1.49-.86-1.49-1.63s.46-1.47,1.6-1.47c1.25,0,1.6.85,1.61,1.59h-.79c-.01-.27-.07-.93-.85-.93-.53,0-.77.33-.77.77s.19.67.97.96c1.08.42,1.56.81,1.56,1.77,0,1.02-.64,1.62-1.75,1.62s-1.72-.69-1.75-1.71h.8c.04.6.35,1.05.99,1.05ZM143.44,188.29c0,.35.03.81.04.99h-.74c-.03-.12-.06-.42-.06-.63-.21.45-.63.73-1.32.73-1.07,0-1.46-.84-1.46-1.61,0-1.02.69-1.79,2.15-1.79.26,0,.42,0,.58.02v-.74c0-.44-.08-.99-.84-.99-.82,0-.87.59-.9.96h-.78c.02-.8.4-1.62,1.71-1.62,1.08,0,1.6.53,1.6,1.55v3.13ZM142.67,186.63c-.14-.02-.29-.03-.55-.03-.99,0-1.4.48-1.4,1.1,0,.51.27.99.87.99.82,0,1.08-.58,1.08-1.75v-.3ZM144.93,183.7c.46,1.81,1.01,3.99,1.12,4.67h.01c.07-.62.91-3.53,1.18-4.67h.81l-1.6,5.58h-.87l-1.51-5.58h.85ZM149.32,186.64c0,1.09.19,2.05,1.07,2.05s.99-.83,1.02-1h.79c-.01.14-.17,1.69-1.81,1.69s-1.87-1.51-1.87-2.89c0-1.77.6-2.88,1.92-2.88,1.47,0,1.81,1.21,1.81,2.6,0,.11,0,.29-.01.43h-2.91ZM151.43,186c0-.96-.2-1.71-1.02-1.71-1.02,0-1.07,1.33-1.09,1.71h2.1ZM151.43,186h0ZM156.7,187.57c-.02.3-.14,1.8-1.77,1.8-1.46,0-1.85-1.29-1.85-2.91s.51-2.87,1.93-2.87c1.62,0,1.7,1.5,1.7,1.76h-.82c-.01-.23-.09-1.07-.88-1.07s-1.1.88-1.1,2.17c0,1.39.3,2.22,1.06,2.22.81,0,.9-.81.94-1.11h.8Z"/>
    <path class="cls-1" d="M27.4,201.9v2.62h-.8v-6c0-.76,0-1.28-.01-1.63h.78c.01.1.03.47.03.75.2-.48.59-.84,1.33-.84,1.06,0,1.63.94,1.63,2.8,0,2.01-.7,2.97-1.79,2.97-.67,0-1-.32-1.16-.67ZM29.53,199.65c0-1.4-.32-2.13-1.06-2.13-.86,0-1.1.82-1.1,2.14s.13,2.21,1.05,2.21c.73,0,1.1-.85,1.1-2.22ZM31.39,196.9h.77c.01.14.03.4.03,1,.24-.67.78-1.07,1.47-1.08v.89c-.96.03-1.46.63-1.46,1.66v3.12h-.8v-3.68c0-.89,0-1.5-.01-1.9ZM34.91,199.84c0,1.09.19,2.05,1.07,2.05s.99-.83,1.02-1h.79c-.01.14-.17,1.69-1.81,1.69s-1.87-1.51-1.87-2.89c0-1.77.6-2.88,1.92-2.88,1.47,0,1.81,1.21,1.81,2.6,0,.11,0,.29-.01.43h-2.91ZM37.03,199.2c0-.96-.2-1.71-1.02-1.71-1.02,0-1.07,1.33-1.09,1.71h2.1ZM37.55,194.52l-1.38,1.53h-.75l1.18-1.53h.95ZM37.03,199.2h0ZM42.29,200.77c-.02.3-.14,1.8-1.77,1.8-1.46,0-1.85-1.29-1.85-2.91s.51-2.87,1.93-2.87c1.62,0,1.7,1.5,1.7,1.76h-.82c-.01-.23-.09-1.07-.88-1.07s-1.1.88-1.1,2.17c0,1.39.3,2.22,1.06,2.22.81,0,.9-.81.94-1.11h.8ZM46.5,201.49c0,.35.03.81.04.99h-.74c-.03-.12-.06-.42-.06-.63-.21.45-.63.73-1.32.73-1.07,0-1.46-.84-1.46-1.61,0-1.02.69-1.79,2.15-1.79.26,0,.42,0,.58.02v-.74c0-.44-.08-.99-.84-.99-.82,0-.87.59-.9.96h-.78c.02-.8.4-1.62,1.71-1.62,1.08,0,1.6.53,1.6,1.55v3.13ZM45.73,199.83c-.14-.02-.29-.03-.55-.03-.99,0-1.4.48-1.4,1.1,0,.51.27.99.87.99.82,0,1.08-.58,1.08-1.75v-.3ZM51.29,200.95c0,.7,0,1.26.01,1.53h-.77c-.03-.16-.04-.38-.04-.74-.2.55-.67.84-1.33.84s-1.39-.27-1.39-1.67v-4.01h.81v3.82c0,.71.2,1.15.84,1.15s1.06-.38,1.06-1.58v-3.39h.81v4.05ZM52.03,196.9h.79v-1.49h.8v1.49h.97v.69h-.97v3.66c0,.38.08.62.5.62.13,0,.29,0,.39-.03v.62c-.19.07-.47.09-.66.09-.66,0-1.04-.27-1.04-1.15v-3.82h-.79v-.69ZM55.38,196.9h.8v5.58h-.8v-5.58ZM55.39,194.64h.8v1.15h-.8v-1.15ZM61.08,199.62c0,1.96-.66,2.96-1.92,2.96s-1.92-.96-1.92-2.94.76-2.83,1.95-2.83,1.89.94,1.89,2.82ZM58.07,199.64c0,1.52.38,2.24,1.1,2.24s1.09-.73,1.09-2.24c0-1.43-.35-2.13-1.09-2.13s-1.1.63-1.1,2.14ZM62.12,196.9h.78c.01.14.03.36.03.73.19-.44.57-.83,1.32-.83.81,0,1.43.46,1.43,1.7v3.97h-.81v-3.82c0-.68-.22-1.14-.86-1.14-.75,0-1.07.49-1.07,1.64v3.32h-.81v-3.85c0-1.14,0-1.47-.01-1.73ZM69.58,199.84c0,1.09.19,2.05,1.07,2.05s.99-.83,1.02-1h.79c-.01.14-.17,1.69-1.81,1.69s-1.87-1.51-1.87-2.89c0-1.77.6-2.88,1.92-2.88,1.47,0,1.81,1.21,1.81,2.6,0,.11,0,.29-.01.43h-2.91ZM71.7,199.2c0-.96-.2-1.71-1.02-1.71-1.02,0-1.07,1.33-1.09,1.71h2.1ZM71.7,199.2h0ZM72.95,196.9h.79v-1.49h.8v1.49h.97v.69h-.97v3.66c0,.38.08.62.5.62.13,0,.29,0,.39-.03v.62c-.19.07-.47.09-.66.09-.66,0-1.04-.27-1.04-1.15v-3.82h-.79v-.69ZM78.91,199.84c0,1.09.19,2.05,1.07,2.05s.99-.83,1.02-1h.79c-.01.14-.17,1.69-1.81,1.69s-1.87-1.51-1.87-2.89c0-1.77.6-2.88,1.92-2.88,1.47,0,1.81,1.21,1.81,2.6,0,.11,0,.29-.01.43h-2.91ZM81.02,199.2c0-.96-.2-1.71-1.02-1.71-1.02,0-1.07,1.33-1.09,1.71h2.1ZM81.02,199.2h0ZM82.84,196.9h.78c.01.14.03.36.03.73.19-.44.57-.83,1.32-.83.81,0,1.43.46,1.43,1.7v3.97h-.81v-3.82c0-.68-.22-1.14-.86-1.14-.75,0-1.07.49-1.07,1.64v3.32h-.81v-3.85c0-1.14,0-1.47-.01-1.73ZM89.86,202.47v-4.89h-.73v-.69h.73v-.77c0-.82.3-1.55,1.31-1.55.15,0,.35.03.45.06v.71c-.1-.02-.23-.05-.37-.05-.44,0-.59.28-.59.84v.75h.88v.69h-.88v4.89h-.8ZM95.71,199.62c0,1.96-.66,2.96-1.92,2.96s-1.92-.96-1.92-2.94.76-2.83,1.95-2.83,1.89.94,1.89,2.82ZM92.69,199.64c0,1.52.38,2.24,1.1,2.24s1.09-.73,1.09-2.24c0-1.43-.35-2.13-1.09-2.13s-1.1.63-1.1,2.14ZM96.74,196.9h.78c.01.14.03.36.03.73.19-.44.57-.83,1.32-.83.81,0,1.43.46,1.43,1.7v3.97h-.81v-3.82c0-.68-.22-1.14-.86-1.14-.75,0-1.07.49-1.07,1.64v3.32h-.81v-3.85c0-1.14,0-1.47-.01-1.73ZM104.98,200.77c-.02.3-.14,1.8-1.77,1.8-1.46,0-1.85-1.29-1.85-2.91s.51-2.87,1.93-2.87c1.62,0,1.7,1.5,1.7,1.76h-.82c-.01-.23-.09-1.07-.88-1.07s-1.1.88-1.1,2.17c0,1.39.3,2.22,1.06,2.22.81,0,.9-.81.94-1.11h.8ZM105.47,196.9h.79v-1.49h.8v1.49h.97v.69h-.97v3.66c0,.38.08.62.5.62.13,0,.29,0,.39-.03v.62c-.19.07-.47.09-.66.09-.66,0-1.04-.27-1.04-1.15v-3.82h-.79v-.69ZM108.82,196.9h.8v5.58h-.8v-5.58ZM108.83,194.64h.8v1.15h-.8v-1.15ZM114.52,199.62c0,1.96-.66,2.96-1.92,2.96s-1.92-.96-1.92-2.94.76-2.83,1.95-2.83,1.89.94,1.89,2.82ZM111.5,199.64c0,1.52.38,2.24,1.1,2.24s1.09-.73,1.09-2.24c0-1.43-.35-2.13-1.09-2.13s-1.1.63-1.1,2.14ZM115.55,196.9h.78c.01.14.03.36.03.73.19-.44.57-.83,1.32-.83.81,0,1.43.46,1.43,1.7v3.97h-.81v-3.82c0-.68-.22-1.14-.86-1.14-.75,0-1.07.49-1.07,1.64v3.32h-.81v-3.85c0-1.14,0-1.47-.01-1.73ZM125.97,194.64v6.4c0,.54,0,1.1.01,1.43h-.78c-.01-.14-.03-.51-.03-.75-.17.48-.53.85-1.31.85-1.16,0-1.65-.99-1.65-2.95,0-1.78.66-2.82,1.83-2.82.72,0,1,.31,1.13.58v-2.74h.8ZM123.03,199.64c0,1.61.37,2.22,1.05,2.22.87,0,1.1-.74,1.1-2.25,0-1.63-.23-2.09-1.03-2.09-.66,0-1.11.58-1.11,2.12ZM127.81,199.84c0,1.09.19,2.05,1.07,2.05s.99-.83,1.02-1h.79c-.01.14-.17,1.69-1.81,1.69s-1.87-1.51-1.87-2.89c0-1.77.6-2.88,1.92-2.88,1.47,0,1.81,1.21,1.81,2.6,0,.11,0,.29-.01.43h-2.91ZM129.93,199.2c0-.96-.2-1.71-1.02-1.71-1.02,0-1.07,1.33-1.09,1.71h2.1ZM129.93,199.2h0ZM134.15,196.9c.46,1.81,1.01,3.99,1.12,4.67h.01c.07-.62.91-3.53,1.18-4.67h.81l-1.6,5.58h-.87l-1.51-5.58h.85ZM141.57,199.62c0,1.96-.66,2.96-1.92,2.96s-1.92-.96-1.92-2.94.76-2.83,1.95-2.83,1.89.94,1.89,2.82ZM138.55,199.64c0,1.52.38,2.24,1.1,2.24s1.09-.73,1.09-2.24c0-1.43-.35-2.13-1.09-2.13s-1.1.63-1.1,2.14ZM141.94,196.9h.79v-1.49h.8v1.49h.97v.69h-.97v3.66c0,.38.08.62.5.62.13,0,.29,0,.39-.03v.62c-.19.07-.47.09-.66.09-.66,0-1.04-.27-1.04-1.15v-3.82h-.79v-.69ZM145.25,196.9h.77c.01.14.03.4.03,1,.24-.67.78-1.07,1.47-1.08v.89c-.96.03-1.46.63-1.46,1.66v3.12h-.8v-3.68c0-.89,0-1.5-.01-1.9ZM148.77,199.84c0,1.09.19,2.05,1.07,2.05s.99-.83,1.02-1h.79c-.01.14-.17,1.69-1.81,1.69s-1.87-1.51-1.87-2.89c0-1.77.6-2.88,1.92-2.88,1.47,0,1.81,1.21,1.81,2.6,0,.11,0,.29-.01.43h-2.91ZM150.88,199.2c0-.96-.2-1.71-1.02-1.71-1.02,0-1.07,1.33-1.09,1.71h2.1ZM150.88,199.2h0Z"/>
    <path class="cls-1" d="M29.3,214.97c-.21.48-.59.8-1.31.8-1.04,0-1.66-.86-1.66-2.89,0-1.85.7-2.88,1.8-2.88.74,0,1.05.35,1.17.7,0-.31.02-.5.03-.6h.78c-.01.4-.01.86-.01,1.65v5.98h-.79v-2.76ZM27.15,212.89c0,1.33.31,2.18,1.06,2.18.9,0,1.09-.78,1.09-2.21s-.12-2.15-1.03-2.15c-.7,0-1.11.76-1.11,2.18ZM34.92,214.15c0,.7,0,1.26.01,1.53h-.77c-.03-.16-.04-.38-.04-.74-.2.55-.67.84-1.33.84s-1.39-.27-1.39-1.67v-4.01h.81v3.82c0,.71.2,1.15.84,1.15s1.06-.38,1.06-1.58v-3.39h.81v4.05ZM36.77,213.04c0,1.09.19,2.05,1.07,2.05s.99-.83,1.02-1h.79c-.01.14-.17,1.69-1.81,1.69s-1.87-1.51-1.87-2.89c0-1.77.6-2.88,1.92-2.88,1.47,0,1.81,1.21,1.81,2.6,0,.11,0,.29-.01.43h-2.91ZM38.88,212.4c0-.96-.2-1.71-1.02-1.71-1.02,0-1.07,1.33-1.09,1.71h2.1ZM38.88,212.4h0ZM42.16,215.12c.61,0,.9-.37.9-.88,0-.58-.3-.84-1.03-1.13-1.15-.44-1.49-.86-1.49-1.63s.46-1.47,1.6-1.47c1.25,0,1.6.85,1.61,1.59h-.79c-.01-.27-.07-.93-.85-.93-.53,0-.77.33-.77.77s.19.67.97.96c1.08.42,1.56.81,1.56,1.77,0,1.02-.64,1.62-1.75,1.62s-1.72-.69-1.75-1.71h.8c.04.6.35,1.05.99,1.05ZM44.26,210.1h.79v-1.49h.8v1.49h.97v.69h-.97v3.66c0,.38.08.62.5.62.13,0,.29,0,.39-.03v.62c-.19.07-.47.09-.66.09-.66,0-1.04-.27-1.04-1.15v-3.82h-.79v-.69ZM47.61,210.1h.8v5.58h-.8v-5.58ZM47.61,207.84h.8v1.15h-.8v-1.15ZM53.3,212.82c0,1.96-.66,2.96-1.92,2.96s-1.92-.96-1.92-2.94.76-2.83,1.95-2.83,1.89.94,1.89,2.82ZM50.29,212.84c0,1.52.38,2.24,1.1,2.24s1.09-.73,1.09-2.24c0-1.43-.35-2.13-1.09-2.13s-1.1.63-1.1,2.14ZM54.34,210.1h.78c.01.14.03.36.03.73.19-.44.57-.83,1.32-.83.81,0,1.43.46,1.43,1.7v3.97h-.81v-3.82c0-.68-.22-1.14-.86-1.14-.75,0-1.07.49-1.07,1.64v3.32h-.81v-3.85c0-1.14,0-1.47-.01-1.73ZM64.75,207.84v6.4c0,.54,0,1.1.01,1.43h-.78c-.01-.14-.03-.51-.03-.75-.17.48-.53.85-1.31.85-1.16,0-1.65-.99-1.65-2.95,0-1.78.66-2.82,1.83-2.82.72,0,1,.31,1.13.58v-2.74h.8ZM61.82,212.84c0,1.61.37,2.22,1.05,2.22.87,0,1.1-.74,1.1-2.25,0-1.63-.23-2.09-1.03-2.09-.66,0-1.11.58-1.11,2.12ZM66.6,213.04c0,1.09.19,2.05,1.07,2.05s.99-.83,1.02-1h.79c-.01.14-.17,1.69-1.81,1.69s-1.87-1.51-1.87-2.89c0-1.77.6-2.88,1.92-2.88,1.47,0,1.81,1.21,1.81,2.6,0,.11,0,.29-.01.43h-2.91ZM68.72,212.4c0-.96-.2-1.71-1.02-1.71-1.02,0-1.07,1.33-1.09,1.71h2.1ZM68.72,212.4h0ZM72.63,210.1h.77c.01.14.03.4.03,1,.24-.67.78-1.07,1.47-1.08v.89c-.96.03-1.46.63-1.46,1.66v3.12h-.8v-3.68c0-.89,0-1.5-.01-1.9ZM76.15,213.04c0,1.09.19,2.05,1.07,2.05s.99-.83,1.02-1h.79c-.01.14-.17,1.69-1.81,1.69s-1.87-1.51-1.87-2.89c0-1.77.6-2.88,1.92-2.88,1.47,0,1.81,1.21,1.81,2.6,0,.11,0,.29-.01.43h-2.91ZM78.26,212.4c0-.96-.2-1.71-1.02-1.71-1.02,0-1.07,1.33-1.09,1.71h2.1ZM78.26,212.4h0ZM83.53,213.97c-.02.3-.14,1.8-1.77,1.8-1.46,0-1.85-1.29-1.85-2.91s.51-2.87,1.93-2.87c1.62,0,1.7,1.5,1.7,1.76h-.82c-.01-.23-.09-1.07-.88-1.07s-1.1.88-1.1,2.17c0,1.39.3,2.22,1.06,2.22.81,0,.9-.81.94-1.11h.8ZM85.3,207.84v2.93c.19-.45.63-.78,1.34-.78.82,0,1.41.51,1.41,1.71v3.97h-.81v-3.8c0-.68-.2-1.16-.88-1.16-.77,0-1.05.63-1.05,1.6v3.35h-.81v-7.83h.81ZM89.89,213.04c0,1.09.19,2.05,1.07,2.05s.99-.83,1.02-1h.79c-.01.14-.17,1.69-1.81,1.69s-1.87-1.51-1.87-2.89c0-1.77.6-2.88,1.92-2.88,1.47,0,1.81,1.21,1.81,2.6,0,.11,0,.29-.01.43h-2.91ZM92,212.4c0-.96-.2-1.71-1.02-1.71-1.02,0-1.07,1.33-1.09,1.71h2.1ZM92,212.4h0ZM93.82,210.1h.77c.01.14.03.4.03,1,.24-.67.78-1.07,1.47-1.08v.89c-.96.03-1.46.63-1.46,1.66v3.12h-.8v-3.68c0-.89,0-1.5-.01-1.9ZM100.15,213.97c-.02.3-.14,1.8-1.77,1.8-1.46,0-1.85-1.29-1.85-2.91s.51-2.87,1.93-2.87c1.62,0,1.7,1.5,1.7,1.76h-.82c-.01-.23-.09-1.07-.88-1.07s-1.1.88-1.1,2.17c0,1.39.3,2.22,1.06,2.22.81,0,.9-.81.94-1.11h.8ZM101.92,207.84v2.93c.19-.45.63-.78,1.34-.78.82,0,1.41.51,1.41,1.71v3.97h-.81v-3.8c0-.68-.2-1.16-.88-1.16-.77,0-1.05.63-1.05,1.6v3.35h-.81v-7.83h.81ZM106.51,213.04c0,1.09.19,2.05,1.07,2.05s.99-.83,1.02-1h.79c-.01.14-.17,1.69-1.81,1.69s-1.87-1.51-1.87-2.89c0-1.77.6-2.88,1.92-2.88,1.47,0,1.81,1.21,1.81,2.6,0,.11,0,.29-.01.43h-2.91ZM108.62,212.4c0-.96-.2-1.71-1.02-1.71-1.02,0-1.07,1.33-1.09,1.71h2.1ZM108.62,212.4h0ZM110.26,214.17h.82v1.51h-.82v-1.51ZM115.1,208.2v7.47h-.82v-7.47h.82ZM116.5,215.67v-7.83h.8v7.83h-.8ZM124.08,213.97c-.02.3-.14,1.8-1.77,1.8-1.46,0-1.85-1.29-1.85-2.91s.51-2.87,1.93-2.87c1.62,0,1.7,1.5,1.7,1.76h-.82c-.01-.23-.09-1.07-.88-1.07s-1.1.88-1.1,2.17c0,1.39.3,2.22,1.06,2.22.81,0,.9-.81.94-1.11h.8ZM128.66,212.82c0,1.96-.66,2.96-1.92,2.96s-1.92-.96-1.92-2.94.76-2.83,1.95-2.83,1.89.94,1.89,2.82ZM125.65,212.84c0,1.52.38,2.24,1.1,2.24s1.09-.73,1.09-2.24c0-1.43-.35-2.13-1.09-2.13s-1.1.63-1.1,2.14ZM129.7,210.1h.78c.01.14.03.36.03.73.19-.44.57-.83,1.32-.83.81,0,1.43.46,1.43,1.7v3.97h-.81v-3.82c0-.68-.22-1.14-.86-1.14-.75,0-1.07.49-1.07,1.64v3.32h-.81v-3.85c0-1.14,0-1.47-.01-1.73ZM134.78,210.1c.46,1.81,1.01,3.99,1.12,4.67h.01c.07-.62.91-3.53,1.18-4.67h.81l-1.6,5.58h-.87l-1.51-5.58h.85ZM138.66,210.1h.8v5.58h-.8v-5.58ZM138.67,207.84h.8v1.15h-.8v-1.15ZM141.33,213.04c0,1.09.19,2.05,1.07,2.05s.99-.83,1.02-1h.79c-.01.14-.17,1.69-1.81,1.69s-1.87-1.51-1.87-2.89c0-1.77.6-2.88,1.92-2.88,1.47,0,1.81,1.21,1.81,2.6,0,.11,0,.29-.01.43h-2.91ZM143.45,212.4c0-.96-.2-1.71-1.02-1.71-1.02,0-1.07,1.33-1.09,1.71h2.1ZM143.45,212.4h0ZM145.26,210.1h.78c.01.14.03.36.03.73.19-.44.57-.83,1.32-.83.81,0,1.43.46,1.43,1.7v3.97h-.81v-3.82c0-.68-.22-1.14-.86-1.14-.75,0-1.07.49-1.07,1.64v3.32h-.81v-3.85c0-1.14,0-1.47-.01-1.73ZM149.46,210.1h.79v-1.49h.8v1.49h.97v.69h-.97v3.66c0,.38.08.62.5.62.13,0,.29,0,.39-.03v.62c-.19.07-.47.09-.66.09-.66,0-1.04-.27-1.04-1.15v-3.82h-.79v-.69Z"/>
    <path class="cls-1" d="M30.08,221.04v6.4c0,.54,0,1.1.01,1.43h-.78c-.01-.14-.03-.51-.03-.75-.17.48-.53.85-1.31.85-1.16,0-1.65-.99-1.65-2.95,0-1.78.66-2.82,1.83-2.82.72,0,1,.31,1.13.58v-2.74h.8ZM27.15,226.04c0,1.61.37,2.22,1.05,2.22.87,0,1.1-.74,1.1-2.25,0-1.63-.23-2.09-1.03-2.09-.66,0-1.11.58-1.11,2.12ZM30.98,223.56c.2-.76.38-1.68.38-2.54h.78c-.01.94-.3,2.07-.51,2.54h-.65ZM35.91,227.89c0,.35.03.81.04.99h-.74c-.03-.12-.06-.42-.06-.63-.21.45-.63.73-1.32.73-1.07,0-1.46-.84-1.46-1.61,0-1.02.69-1.79,2.15-1.79.26,0,.42,0,.58.02v-.74c0-.44-.08-.99-.84-.99-.82,0-.87.59-.9.96h-.78c.02-.8.4-1.62,1.71-1.62,1.08,0,1.6.53,1.6,1.55v3.13ZM35.14,226.23c-.14-.02-.29-.03-.55-.03-.99,0-1.4.48-1.4,1.1,0,.51.27.99.87.99.82,0,1.08-.58,1.08-1.75v-.3ZM37.25,221.04h.8v2.99c.18-.43.57-.83,1.33-.83,1.07,0,1.63.89,1.63,2.74,0,1.72-.46,3.02-1.78,3.02-.71,0-1.03-.36-1.2-.75,0,.18-.01.44-.03.66h-.76c.01-.3.01-.85.01-1.53v-6.3ZM40.2,225.96c0-1.4-.33-2.04-1.03-2.04-.86,0-1.14.77-1.14,2.18,0,1.34.22,2.16,1.06,2.16.74,0,1.1-.72,1.1-2.3ZM45.63,226.02c0,1.96-.66,2.96-1.92,2.96s-1.92-.96-1.92-2.94.76-2.83,1.95-2.83,1.89.94,1.89,2.82ZM42.61,226.04c0,1.52.38,2.24,1.1,2.24s1.09-.73,1.09-2.24c0-1.43-.35-2.13-1.09-2.13s-1.1.63-1.1,2.14ZM46.66,223.3h.77c.01.14.03.4.03,1,.24-.67.78-1.07,1.47-1.08v.89c-.96.03-1.46.63-1.46,1.66v3.12h-.8v-3.68c0-.89,0-1.5-.01-1.9ZM53.13,221.04v6.4c0,.54,0,1.1.01,1.43h-.78c-.01-.14-.03-.51-.03-.75-.17.48-.53.85-1.31.85-1.16,0-1.65-.99-1.65-2.95,0-1.78.66-2.82,1.83-2.82.72,0,1,.31,1.13.58v-2.74h.8ZM50.19,226.04c0,1.61.37,2.22,1.05,2.22.87,0,1.1-.74,1.1-2.25,0-1.63-.23-2.09-1.03-2.09-.66,0-1.11.58-1.11,2.12ZM60.02,221.04v6.4c0,.54,0,1.1.01,1.43h-.78c-.01-.14-.03-.51-.03-.75-.17.48-.53.85-1.31.85-1.16,0-1.65-.99-1.65-2.95,0-1.78.66-2.82,1.83-2.82.72,0,1,.31,1.13.58v-2.74h.8ZM57.09,226.04c0,1.61.37,2.22,1.05,2.22.87,0,1.1-.74,1.1-2.25,0-1.63-.23-2.09-1.03-2.09-.66,0-1.11.58-1.11,2.12ZM61.87,226.24c0,1.09.19,2.05,1.07,2.05s.99-.83,1.02-1h.79c-.01.14-.17,1.69-1.81,1.69s-1.87-1.51-1.87-2.89c0-1.77.6-2.88,1.92-2.88,1.47,0,1.81,1.21,1.81,2.6,0,.11,0,.29-.01.43h-2.91ZM63.99,225.6c0-.96-.2-1.71-1.02-1.71-1.02,0-1.07,1.33-1.09,1.71h2.1ZM63.99,225.6h0ZM71.26,227.17c-.02.3-.14,1.8-1.77,1.8-1.46,0-1.85-1.29-1.85-2.91s.51-2.87,1.93-2.87c1.62,0,1.7,1.5,1.7,1.76h-.82c-.01-.23-.09-1.07-.88-1.07s-1.1.88-1.1,2.17c0,1.39.3,2.22,1.06,2.22.81,0,.9-.81.94-1.11h.8ZM75.84,226.02c0,1.96-.66,2.96-1.92,2.96s-1.92-.96-1.92-2.94.76-2.83,1.95-2.83,1.89.94,1.89,2.82ZM72.83,226.04c0,1.52.38,2.24,1.1,2.24s1.09-.73,1.09-2.24c0-1.43-.35-2.13-1.09-2.13s-1.1.63-1.1,2.14ZM76.88,223.3h.78c.01.14.03.36.03.73.19-.44.57-.83,1.32-.83.81,0,1.43.46,1.43,1.7v3.97h-.81v-3.82c0-.68-.22-1.14-.86-1.14-.75,0-1.07.49-1.07,1.64v3.32h-.81v-3.85c0-1.14,0-1.47-.01-1.73ZM83.14,228.32c.61,0,.9-.37.9-.88,0-.58-.3-.84-1.03-1.13-1.15-.44-1.49-.86-1.49-1.63s.46-1.47,1.6-1.47c1.25,0,1.6.85,1.61,1.59h-.79c-.01-.27-.07-.93-.85-.93-.53,0-.77.33-.77.77s.19.67.97.96c1.08.42,1.56.81,1.56,1.77,0,1.02-.64,1.62-1.75,1.62s-1.72-.69-1.75-1.71h.8c.04.6.35,1.05.99,1.05ZM89.29,227.35c0,.7,0,1.26.01,1.53h-.77c-.03-.16-.04-.38-.04-.74-.2.55-.67.84-1.33.84s-1.39-.27-1.39-1.67v-4.01h.81v3.82c0,.71.2,1.15.84,1.15s1.06-.38,1.06-1.58v-3.39h.81v4.05ZM90.59,228.87v-7.83h.8v7.83h-.8ZM92.15,223.3h.79v-1.49h.8v1.49h.97v.69h-.97v3.66c0,.38.08.62.5.62.13,0,.29,0,.39-.03v.62c-.19.07-.47.09-.66.09-.66,0-1.04-.27-1.04-1.15v-3.82h-.79v-.69ZM95.95,226.24c0,1.09.19,2.05,1.07,2.05s.99-.83,1.02-1h.79c-.01.14-.17,1.69-1.81,1.69s-1.87-1.51-1.87-2.89c0-1.77.6-2.88,1.92-2.88,1.47,0,1.81,1.21,1.81,2.6,0,.11,0,.29-.01.43h-2.91ZM98.06,225.6c0-.96-.2-1.71-1.02-1.71-1.02,0-1.07,1.33-1.09,1.71h2.1ZM98.06,225.6h0ZM99.88,223.3h.77c.01.14.03.4.03,1,.24-.67.78-1.07,1.47-1.08v.89c-.96.03-1.46.63-1.46,1.66v3.12h-.8v-3.68c0-.89,0-1.5-.01-1.9ZM105.03,228.87v-7.83h.8v7.83h-.8ZM107.69,226.24c0,1.09.19,2.05,1.07,2.05s.99-.83,1.02-1h.79c-.01.14-.17,1.69-1.81,1.69s-1.87-1.51-1.87-2.89c0-1.77.6-2.88,1.92-2.88,1.47,0,1.81,1.21,1.81,2.6,0,.11,0,.29-.01.43h-2.91ZM109.81,225.6c0-.96-.2-1.71-1.02-1.71-1.02,0-1.07,1.33-1.09,1.71h2.1ZM109.81,225.6h0ZM113.08,228.32c.61,0,.9-.37.9-.88,0-.58-.3-.84-1.03-1.13-1.15-.44-1.49-.86-1.49-1.63s.46-1.47,1.6-1.47c1.25,0,1.6.85,1.61,1.59h-.79c-.01-.27-.07-.93-.85-.93-.53,0-.77.33-.77.77s.19.67.97.96c1.08.42,1.56.81,1.56,1.77,0,1.02-.64,1.62-1.75,1.62s-1.72-.69-1.75-1.71h.8c.04.6.35,1.05.99,1.05ZM117.87,223.3h.77c.01.14.03.4.03,1,.24-.67.78-1.07,1.47-1.08v.89c-.96.03-1.46.63-1.46,1.66v3.12h-.8v-3.68c0-.89,0-1.5-.01-1.9ZM121.39,226.24c0,1.09.19,2.05,1.07,2.05s.99-.83,1.02-1h.79c-.01.14-.17,1.69-1.81,1.69s-1.87-1.51-1.87-2.89c0-1.77.6-2.88,1.92-2.88,1.47,0,1.81,1.21,1.81,2.6,0,.11,0,.29-.01.43h-2.91ZM123.51,225.6c0-.96-.2-1.71-1.02-1.71-1.02,0-1.07,1.33-1.09,1.71h2.1ZM124.03,220.92l-1.38,1.53h-.75l1.18-1.53h.95ZM123.51,225.6h0ZM126.78,228.32c.61,0,.9-.37.9-.88,0-.58-.3-.84-1.03-1.13-1.15-.44-1.49-.86-1.49-1.63s.46-1.47,1.6-1.47c1.25,0,1.6.85,1.61,1.59h-.79c-.01-.27-.07-.93-.85-.93-.53,0-.77.33-.77.77s.19.67.97.96c1.08.42,1.56.81,1.56,1.77,0,1.02-.64,1.62-1.75,1.62s-1.72-.69-1.75-1.71h.8c.04.6.35,1.05.99,1.05ZM132.92,227.35c0,.7,0,1.26.01,1.53h-.77c-.03-.16-.04-.38-.04-.74-.2.55-.67.84-1.33.84s-1.39-.27-1.39-1.67v-4.01h.81v3.82c0,.71.2,1.15.84,1.15s1.06-.38,1.06-1.58v-3.39h.81v4.05ZM134.23,228.87v-7.83h.8v7.83h-.8ZM135.78,223.3h.79v-1.49h.8v1.49h.97v.69h-.97v3.66c0,.38.08.62.5.62.13,0,.29,0,.39-.03v.62c-.19.07-.47.09-.66.09-.66,0-1.04-.27-1.04-1.15v-3.82h-.79v-.69ZM142.37,227.89c0,.35.03.81.04.99h-.74c-.03-.12-.06-.42-.06-.63-.21.45-.63.73-1.32.73-1.07,0-1.46-.84-1.46-1.61,0-1.02.69-1.79,2.15-1.79.26,0,.42,0,.58.02v-.74c0-.44-.08-.99-.84-.99-.82,0-.87.59-.9.96h-.78c.02-.8.4-1.62,1.71-1.62,1.08,0,1.6.53,1.6,1.55v3.13ZM141.59,226.23c-.14-.02-.29-.03-.55-.03-.99,0-1.4.48-1.4,1.1,0,.51.27.99.87.99.82,0,1.08-.58,1.08-1.75v-.3ZM143.01,223.3h.79v-1.49h.8v1.49h.97v.69h-.97v3.66c0,.38.08.62.5.62.13,0,.29,0,.39-.03v.62c-.19.07-.47.09-.66.09-.66,0-1.04-.27-1.04-1.15v-3.82h-.79v-.69ZM147.85,228.32c.61,0,.9-.37.9-.88,0-.58-.3-.84-1.03-1.13-1.15-.44-1.49-.86-1.49-1.63s.46-1.47,1.6-1.47c1.25,0,1.6.85,1.61,1.59h-.79c-.01-.27-.07-.93-.85-.93-.53,0-.77.33-.77.77s.19.67.97.96c1.08.42,1.56.81,1.56,1.77,0,1.02-.64,1.62-1.75,1.62s-1.72-.69-1.75-1.71h.8c.04.6.35,1.05.99,1.05ZM156.14,221.04v6.4c0,.54,0,1.1.01,1.43h-.78c-.01-.14-.03-.51-.03-.75-.17.48-.53.85-1.31.85-1.16,0-1.65-.99-1.65-2.95,0-1.78.66-2.82,1.83-2.82.72,0,1,.31,1.13.58v-2.74h.8ZM153.2,226.04c0,1.61.37,2.22,1.05,2.22.87,0,1.1-.74,1.1-2.25,0-1.63-.23-2.09-1.03-2.09-.66,0-1.11.58-1.11,2.12ZM157.99,226.24c0,1.09.19,2.05,1.07,2.05s.99-.83,1.02-1h.79c-.01.14-.17,1.69-1.81,1.69s-1.87-1.51-1.87-2.89c0-1.77.6-2.88,1.92-2.88,1.47,0,1.81,1.21,1.81,2.6,0,.11,0,.29-.01.43h-2.91ZM160.1,225.6c0-.96-.2-1.71-1.02-1.71-1.02,0-1.07,1.33-1.09,1.71h2.1ZM160.1,225.6h0Z"/>
    <path class="cls-1" d="M26.9,236.5c.46,1.81,1.01,3.99,1.12,4.67h.01c.07-.62.91-3.53,1.18-4.67h.81l-1.6,5.58h-.87l-1.51-5.58h.85ZM34.31,239.22c0,1.96-.66,2.96-1.92,2.96s-1.92-.96-1.92-2.94.76-2.83,1.95-2.83,1.89.94,1.89,2.82ZM31.29,239.24c0,1.52.38,2.24,1.1,2.24s1.09-.73,1.09-2.24c0-1.43-.35-2.13-1.09-2.13s-1.1.63-1.1,2.14ZM34.69,236.5h.79v-1.49h.8v1.49h.97v.69h-.97v3.66c0,.38.08.62.5.62.13,0,.29,0,.39-.03v.62c-.19.07-.47.09-.66.09-.66,0-1.04-.27-1.04-1.15v-3.82h-.79v-.69ZM37.99,236.5h.77c.01.14.03.4.03,1,.24-.67.78-1.07,1.47-1.08v.89c-.96.03-1.46.63-1.46,1.66v3.12h-.8v-3.68c0-.89,0-1.5-.01-1.9ZM41.51,239.44c0,1.09.19,2.05,1.07,2.05s.99-.83,1.02-1h.79c-.01.14-.17,1.69-1.81,1.69s-1.87-1.51-1.87-2.89c0-1.77.6-2.88,1.92-2.88,1.47,0,1.81,1.21,1.81,2.6,0,.11,0,.29-.01.43h-2.91ZM43.63,238.8c0-.96-.2-1.71-1.02-1.71-1.02,0-1.07,1.33-1.09,1.71h2.1ZM43.63,238.8h0ZM47.54,236.5h.77c.01.14.03.4.03,1,.24-.67.78-1.07,1.47-1.08v.89c-.96.03-1.46.63-1.46,1.66v3.12h-.8v-3.68c0-.89,0-1.5-.01-1.9ZM51.06,239.44c0,1.09.19,2.05,1.07,2.05s.99-.83,1.02-1h.79c-.01.14-.17,1.69-1.81,1.69s-1.87-1.51-1.87-2.89c0-1.77.6-2.88,1.92-2.88,1.47,0,1.81,1.21,1.81,2.6,0,.11,0,.29-.01.43h-2.91ZM53.17,238.8c0-.96-.2-1.71-1.02-1.71-1.02,0-1.07,1.33-1.09,1.71h2.1ZM53.17,238.8h0ZM58.44,240.37c-.02.3-.14,1.8-1.77,1.8-1.46,0-1.85-1.29-1.85-2.91s.51-2.87,1.93-2.87c1.62,0,1.7,1.5,1.7,1.76h-.82c-.01-.23-.09-1.07-.88-1.07s-1.1.88-1.1,2.17c0,1.39.3,2.22,1.06,2.22.81,0,.9-.81.94-1.11h.8ZM60.21,234.24v2.93c.19-.45.63-.78,1.34-.78.82,0,1.41.51,1.41,1.71v3.97h-.81v-3.8c0-.68-.2-1.16-.88-1.16-.77,0-1.05.63-1.05,1.6v3.35h-.81v-7.83h.81ZM64.8,239.44c0,1.09.19,2.05,1.07,2.05s.99-.83,1.02-1h.79c-.01.14-.17,1.69-1.81,1.69s-1.87-1.51-1.87-2.89c0-1.77.6-2.88,1.92-2.88,1.47,0,1.81,1.21,1.81,2.6,0,.11,0,.29-.01.43h-2.91ZM66.91,238.8c0-.96-.2-1.71-1.02-1.71-1.02,0-1.07,1.33-1.09,1.71h2.1ZM66.91,238.8h0ZM68.73,236.5h.77c.01.14.03.4.03,1,.24-.67.78-1.07,1.47-1.08v.89c-.96.03-1.46.63-1.46,1.66v3.12h-.8v-3.68c0-.89,0-1.5-.01-1.9ZM75.06,240.37c-.02.3-.14,1.8-1.77,1.8-1.46,0-1.85-1.29-1.85-2.91s.51-2.87,1.93-2.87c1.62,0,1.7,1.5,1.7,1.76h-.82c-.01-.23-.09-1.07-.88-1.07s-1.1.88-1.1,2.17c0,1.39.3,2.22,1.06,2.22.81,0,.9-.81.94-1.11h.8ZM76.83,234.24v2.93c.19-.45.63-.78,1.34-.78.82,0,1.41.51,1.41,1.71v3.97h-.81v-3.8c0-.68-.2-1.16-.88-1.16-.77,0-1.05.63-1.05,1.6v3.35h-.81v-7.83h.81ZM81.42,239.44c0,1.09.19,2.05,1.07,2.05s.99-.83,1.02-1h.79c-.01.14-.17,1.69-1.81,1.69s-1.87-1.51-1.87-2.89c0-1.77.6-2.88,1.92-2.88,1.47,0,1.81,1.21,1.81,2.6,0,.11,0,.29-.01.43h-2.91ZM83.53,238.8c0-.96-.2-1.71-1.02-1.71-1.02,0-1.07,1.33-1.09,1.71h2.1ZM83.53,238.8h0ZM90.7,241.09c0,.35.03.81.04.99h-.74c-.03-.12-.06-.42-.06-.63-.21.45-.63.73-1.32.73-1.07,0-1.46-.84-1.46-1.61,0-1.02.69-1.79,2.15-1.79.26,0,.42,0,.58.02v-.74c0-.44-.08-.99-.84-.99-.82,0-.87.59-.9.96h-.78c.02-.8.4-1.62,1.71-1.62,1.08,0,1.6.53,1.6,1.55v3.13ZM89.93,239.43c-.14-.02-.29-.03-.55-.03-.99,0-1.4.48-1.4,1.1,0,.51.27.99.87.99.82,0,1.08-.58,1.08-1.75v-.3ZM92.19,236.5c.46,1.81,1.01,3.99,1.12,4.67h.01c.07-.62.91-3.53,1.18-4.67h.81l-1.6,5.58h-.87l-1.51-5.58h.85ZM99.16,241.09c0,.35.03.81.04.99h-.74c-.03-.12-.06-.42-.06-.63-.21.45-.63.73-1.32.73-1.07,0-1.46-.84-1.46-1.61,0-1.02.69-1.79,2.15-1.79.26,0,.42,0,.58.02v-.74c0-.44-.08-.99-.84-.99-.82,0-.87.59-.9.96h-.78c.02-.8.4-1.62,1.71-1.62,1.08,0,1.6.53,1.6,1.55v3.13ZM98.39,239.43c-.14-.02-.29-.03-.55-.03-.99,0-1.4.48-1.4,1.1,0,.51.27.99.87.99.82,0,1.08-.58,1.08-1.75v-.3ZM100.48,236.5h.78c.01.14.03.36.03.73.19-.44.57-.83,1.32-.83.81,0,1.43.46,1.43,1.7v3.97h-.81v-3.82c0-.68-.22-1.14-.86-1.14-.75,0-1.07.49-1.07,1.64v3.32h-.81v-3.85c0-1.14,0-1.47-.01-1.73ZM104.68,236.5h.79v-1.49h.8v1.49h.97v.69h-.97v3.66c0,.38.08.62.5.62.13,0,.29,0,.39-.03v.62c-.19.07-.47.09-.66.09-.66,0-1.04-.27-1.04-1.15v-3.82h-.79v-.69ZM113.58,234.24v6.4c0,.54,0,1.1.01,1.43h-.78c-.01-.14-.03-.51-.03-.75-.17.48-.53.85-1.31.85-1.16,0-1.65-.99-1.65-2.95,0-1.78.66-2.82,1.83-2.82.72,0,1,.31,1.13.58v-2.74h.8ZM110.65,239.24c0,1.61.37,2.22,1.05,2.22.87,0,1.1-.74,1.1-2.25,0-1.63-.23-2.09-1.03-2.09-.66,0-1.11.58-1.11,2.12ZM114.48,236.76c.2-.76.38-1.68.38-2.54h.78c-.01.94-.3,2.07-.51,2.54h-.65ZM116.54,239.44c0,1.09.19,2.05,1.07,2.05s.99-.83,1.02-1h.79c-.01.14-.17,1.69-1.81,1.69s-1.87-1.51-1.87-2.89c0-1.77.6-2.88,1.92-2.88,1.47,0,1.81,1.21,1.81,2.6,0,.11,0,.29-.01.43h-2.91ZM118.66,238.8c0-.96-.2-1.71-1.02-1.71-1.02,0-1.07,1.33-1.09,1.71h2.1ZM118.66,238.8h0ZM120.47,236.5h.78c.01.14.03.36.03.73.19-.44.57-.83,1.32-.83.81,0,1.43.46,1.43,1.7v3.97h-.81v-3.82c0-.68-.22-1.14-.86-1.14-.75,0-1.07.49-1.07,1.64v3.32h-.81v-3.85c0-1.14,0-1.47-.01-1.73ZM130.64,241.09c0,.35.03.81.04.99h-.74c-.03-.12-.06-.42-.06-.63-.21.45-.63.73-1.32.73-1.07,0-1.46-.84-1.46-1.61,0-1.02.69-1.79,2.15-1.79.26,0,.42,0,.58.02v-.74c0-.44-.08-.99-.84-.99-.82,0-.87.59-.9.96h-.78c.02-.8.4-1.62,1.71-1.62,1.08,0,1.6.53,1.6,1.55v3.13ZM129.87,239.43c-.14-.02-.29-.03-.55-.03-.99,0-1.4.48-1.4,1.1,0,.51.27.99.87.99.82,0,1.08-.58,1.08-1.75v-.3ZM132.78,241.5v2.62h-.8v-6c0-.76,0-1.28-.01-1.63h.78c.01.1.03.47.03.75.2-.48.59-.84,1.33-.84,1.06,0,1.63.94,1.63,2.8,0,2.01-.7,2.97-1.79,2.97-.67,0-1-.32-1.16-.67ZM134.91,239.25c0-1.4-.32-2.13-1.06-2.13-.86,0-1.1.82-1.1,2.14s.13,2.21,1.05,2.21c.73,0,1.1-.85,1.1-2.22ZM137.59,241.5v2.62h-.8v-6c0-.76,0-1.28-.01-1.63h.78c.01.1.03.47.03.75.2-.48.59-.84,1.33-.84,1.06,0,1.63.94,1.63,2.8,0,2.01-.7,2.97-1.79,2.97-.67,0-1-.32-1.16-.67ZM139.72,239.25c0-1.4-.32-2.13-1.06-2.13-.86,0-1.1.82-1.1,2.14s.13,2.21,1.05,2.21c.73,0,1.1-.85,1.1-2.22ZM141.59,242.07v-7.83h.8v7.83h-.8ZM143.72,236.5h.8v5.58h-.8v-5.58ZM143.73,234.24h.8v1.15h-.8v-1.15ZM148.56,241.37c-.21.48-.59.8-1.31.8-1.04,0-1.66-.86-1.66-2.89,0-1.85.7-2.88,1.8-2.88.74,0,1.05.35,1.17.7,0-.31.02-.5.03-.6h.78c-.01.4-.01.86-.01,1.65v5.98h-.79v-2.76ZM146.41,239.29c0,1.33.31,2.18,1.06,2.18.9,0,1.09-.78,1.09-2.21s-.12-2.15-1.03-2.15c-.7,0-1.11.76-1.11,2.18ZM154.19,240.55c0,.7,0,1.26.01,1.53h-.77c-.03-.16-.04-.38-.04-.74-.2.55-.67.84-1.33.84s-1.39-.27-1.39-1.67v-4.01h.81v3.82c0,.71.2,1.15.84,1.15s1.06-.38,1.06-1.58v-3.39h.81v4.05ZM156.03,239.44c0,1.09.19,2.05,1.07,2.05s.99-.83,1.02-1h.79c-.01.14-.17,1.69-1.81,1.69s-1.87-1.51-1.87-2.89c0-1.77.6-2.88,1.92-2.88,1.47,0,1.81,1.21,1.81,2.6,0,.11,0,.29-.01.43h-2.91ZM158.14,238.8c0-.96-.2-1.71-1.02-1.71-1.02,0-1.07,1.33-1.09,1.71h2.1ZM158.14,238.8h0ZM159.96,236.5h.77c.01.14.03.4.03,1,.24-.67.78-1.07,1.47-1.08v.89c-.96.03-1.46.63-1.46,1.66v3.12h-.8v-3.68c0-.89,0-1.5-.01-1.9ZM162.31,240.57h.82v1.51h-.82v-1.51Z"/>
  </g>
</svg>