<?xml version="1.0" encoding="UTF-8"?>
<svg id="Calque_1" data-name="Calque 1" xmlns="http://www.w3.org/2000/svg" xmlns:xlink="http://www.w3.org/1999/xlink" viewBox="0 0 195.59 269.29">
  <defs>
    <style>
      .cls-1 {
        fill: #1d1d1b;
      }

      .cls-2 {
        fill: none;
      }

      .cls-3 {
        clip-path: url(#clippath-1);
      }

      .cls-4 {
        fill: #31a852;
      }

      .cls-5 {
        clip-path: url(#clippath);
      }
    </style>
    <clipPath id="clippath">
      <rect class="cls-2" width="195.59" height="269.29"/>
    </clipPath>
    <clipPath id="clippath-1">
      <rect class="cls-2" width="195.59" height="269.29"/>
    </clipPath>
  </defs>
  <g class="cls-5">
    <g class="cls-3">
      <path class="cls-1" d="M65.48,40.63c-3.89,0-4.29-3.65-4.29-7.27,0-4.37,1.24-7.16,4.44-7.16,3.59,0,3.85,3.17,3.9,4.2h-2.16c-.04-.47-.09-2.34-1.77-2.34-1.79,0-2.16,2.3-2.16,5.33,0,2.75.28,5.39,2.08,5.39,1.62,0,1.8-1.8,1.86-2.4h2.17c-.06.74-.36,4.23-4.07,4.23ZM73.42,25.72v5.18c.38-.74,1.1-1.31,2.44-1.31,1.69,0,2.65,1.09,2.65,3.29v7.52h-2.15v-7.08c0-1.13-.25-1.87-1.38-1.87-1.21,0-1.56.95-1.56,2.5v6.45h-2.15v-14.68h2.15ZM88.04,34.99c0,3.81-1.36,5.61-3.9,5.61s-3.85-1.72-3.85-5.56,1.53-5.43,3.96-5.43,3.79,1.83,3.79,5.38ZM84.19,38.8c1.19,0,1.68-1.28,1.68-3.75s-.48-3.62-1.69-3.62-1.72,1.13-1.72,3.61.49,3.76,1.74,3.76ZM91.96,29.79v10.61h-2.14v-10.61h2.14ZM91.98,25.72v2.34h-2.14v-2.34h2.14ZM95.63,29.79c.9,1.96,1.37,2.94,1.63,3.51h.02c.31-.72.91-1.92,1.65-3.51h2.27l-2.74,5.02,2.75,5.59h-2.38c-.87-1.98-1.37-3.08-1.63-3.68h-.02c-.25.56-.92,2.04-1.68,3.68h-2.28l2.71-5.3-2.65-5.32h2.35ZM106.04,32.97c0-2.03,0-2.71-.02-3.18h2.05c.04.24.07.78.07,1.17.46-.85,1.23-1.35,2.35-1.35s1.84.51,2.17,1.49c.42-.78,1.19-1.49,2.59-1.49s2.65.72,2.65,3.15v7.64h-2.11v-7.31c0-.92-.29-1.64-1.25-1.64-1.11,0-1.48.9-1.48,2.25v6.7h-2.13v-7.27c0-1.09-.37-1.67-1.24-1.67-1.08,0-1.52.84-1.52,2.33v6.61h-2.13v-7.43ZM127.35,40.4h-2.04c-.06-.32-.08-.78-.09-1.24-.44,1-1.24,1.43-2.42,1.43-1.42,0-2.65-.66-2.65-3.18v-7.62h2.15v7.13c0,1.15.27,1.82,1.27,1.82s1.62-.57,1.62-2.46v-6.49h2.15v7.57c0,1.47,0,2.51.02,3.05ZM129.59,40.4v-14.68h2.14v14.68h-2.14ZM133.03,29.79h1.43v-2.71h2.13v2.71h1.71v1.77h-1.71v6.2c0,.65.13,1.04.9,1.04.25,0,.45,0,.65-.05v1.59c-.42.18-1.04.2-1.41.2-1.55,0-2.28-.59-2.28-2.41v-6.57h-1.43v-1.77ZM141.82,29.79v10.61h-2.14v-10.61h2.14ZM141.84,25.72v2.34h-2.14v-2.34h2.14ZM148.34,40.6c-1.16,0-1.78-.5-2.08-1.11v4.76h-2.14v-11.39c0-1.44,0-2.41-.02-3.08h2.06c.04.22.07.81.07,1.25.35-.76,1.01-1.43,2.43-1.43,1.98,0,3.1,1.72,3.1,5.32,0,4.04-1.36,5.67-3.42,5.67h0ZM149.6,35.03c0-2.58-.56-3.58-1.71-3.58-1.37,0-1.69,1.3-1.69,3.52,0,2.46.16,3.79,1.65,3.79,1.18,0,1.76-1.31,1.76-3.74ZM153.55,40.4v-14.68h2.14v14.68h-2.14ZM159.63,35.61c0,1.59.23,3.2,1.7,3.2,1.37,0,1.55-1.22,1.59-1.57h2.06c-.04.31-.29,3.36-3.68,3.36s-3.8-2.88-3.8-5.55c0-3.36,1.23-5.44,3.86-5.44,2.98,0,3.7,2.3,3.7,5.03,0,.31-.01.76-.04.97h-5.4ZM162.94,34.03c0-1.3-.21-2.65-1.59-2.65-1.58,0-1.67,1.9-1.69,2.65h3.28ZM162.94,34.03h0Z"/>
      <path class="cls-4" d="M31.53,24.29s.09-.02.12-.05l.68-.68c.07-.07.07-.18,0-.25-.07-.07-.18-.07-.24,0l-.68.68c-.07.07-.07.18,0,.24.03.03.08.05.12.05"/>
      <path class="cls-4" d="M24.29,24.29s.09-.02.12-.05c.07-.07.07-.18,0-.24l-.68-.68c-.07-.07-.18-.07-.24,0-.07.07-.07.18,0,.25l.68.68s.08.05.12.05"/>
      <path class="cls-4" d="M33.02,27.9h.96c.1,0,.17-.08.17-.17s-.08-.17-.17-.17h-.96c-.1,0-.17.08-.17.17s.08.17.17.17"/>
      <path class="cls-4" d="M21.83,27.9h.96c.1,0,.17-.08.17-.17s-.08-.17-.17-.17h-.96c-.1,0-.17.08-.17.17s.08.17.17.17"/>
      <path class="cls-4" d="M27.94,22.79c.09,0,.17-.08.17-.17v-.96c0-.1-.08-.17-.17-.17s-.17.08-.17.17v.96c0,.1.08.17.17.17"/>
      <path class="cls-4" d="M29.87,23.18c.07,0,.13-.04.16-.11l.19-.47c.04-.09,0-.19-.09-.22-.09-.04-.19,0-.23.09l-.19.47c-.04.09,0,.19.09.23.02,0,.04.01.07.01"/>
      <path class="cls-4" d="M32.64,25.95s.04,0,.07-.01l.47-.19c.09-.04.13-.14.09-.23-.04-.09-.14-.13-.23-.09l-.47.19c-.09.04-.13.14-.09.23.03.07.09.11.16.11"/>
      <path class="cls-4" d="M23.18,25.95c.07,0,.13-.04.16-.11.04-.09,0-.19-.09-.23l-.47-.19c-.09-.04-.19,0-.23.09-.04.09,0,.19.09.23l.47.19s.04.01.07.01"/>
      <path class="cls-4" d="M25.95,23.18s.04,0,.07-.01c.09-.04.13-.14.09-.23l-.19-.47c-.04-.09-.14-.13-.23-.09-.09.04-.13.14-.09.22l.19.47c.03.07.09.11.16.11"/>
      <path class="cls-4" d="M41.34,24.29s-.09-.02-.12-.05l-.68-.68c-.07-.07-.07-.18,0-.25.07-.07.18-.07.24,0l.68.68c.07.07.07.18,0,.24-.03.03-.08.05-.12.05"/>
      <path class="cls-4" d="M48.58,24.29s-.09-.02-.12-.05c-.07-.07-.07-.18,0-.24l.68-.68c.07-.07.18-.07.24,0,.07.07.07.18,0,.25l-.68.68s-.08.05-.12.05"/>
      <path class="cls-4" d="M39.85,27.9h-.97c-.1,0-.17-.08-.17-.17s.08-.17.17-.17h.97c.09,0,.17.08.17.17s-.08.17-.17.17"/>
      <path class="cls-4" d="M51.04,27.9h-.97c-.1,0-.17-.08-.17-.17s.08-.17.17-.17h.97c.09,0,.17.08.17.17s-.08.17-.17.17"/>
      <path class="cls-4" d="M44.93,22.79c-.1,0-.17-.08-.17-.17v-.96c0-.1.08-.17.17-.17s.17.08.17.17v.96c0,.1-.08.17-.17.17"/>
      <path class="cls-4" d="M43,23.18c-.07,0-.13-.04-.16-.11l-.19-.47c-.04-.09,0-.19.09-.22.09-.04.19,0,.23.09l.19.47c.04.09,0,.19-.09.23-.02,0-.04.01-.07.01"/>
      <path class="cls-4" d="M40.23,25.95s-.04,0-.07-.01l-.47-.19c-.09-.04-.13-.14-.09-.23.04-.09.14-.13.23-.09l.47.19c.09.04.13.14.09.23-.03.07-.09.11-.16.11"/>
      <path class="cls-4" d="M49.69,25.95c-.07,0-.13-.04-.16-.11-.04-.09,0-.19.09-.23l.47-.19c.09-.04.19,0,.23.09.04.09,0,.19-.09.23l-.47.19s-.04.01-.07.01"/>
      <path class="cls-4" d="M46.92,23.18s-.04,0-.07-.01c-.09-.04-.13-.14-.09-.23l.19-.47c.04-.09.14-.13.23-.09.09.04.13.14.09.22l-.19.47c-.03.07-.09.11-.16.11"/>
      <path class="cls-4" d="M40.39,45.66h-9.4c-.96,0-1.01,1.34-.06,1.41,3.24.01,7.45.01,10.7,0,.42-.06.75-.48.61-.9-.26-.76-1.23-.47-1.84-.52"/>
      <path class="cls-4" d="M41.31,37c-.4,0-.79,0-1.19,0,.18.92,1.11,1.93,1.88,2.45,1.92,1.3,4.72,1.18,6.44-.4.65-.62,1.05-1.21,1.32-2.06-1.56,0-6.99,0-8.45,0"/>
      <path class="cls-4" d="M33.15,37c-2.27,0-7.53-.01-9.73,0,.05.23.16.44.26.65,1.53,3,5.62,3.55,8.09,1.36.61-.56,1.11-1.22,1.38-2.01"/>
      <path class="cls-4" d="M34.44,43.07c-1.32.06-2.68.73-3.16,2.01,2.41,0,7.64,0,10,0-.52-1.24-1.86-1.94-3.18-2-.04-.67-.37-1.25-.91-1.65v-10.41c-.65.1-1.18.1-1.82-.01v10.42c-.56.44-.85.93-.93,1.64"/>
      <path class="cls-4" d="M24.77,36.32l1.98-4.33c.37-.8.74-1.6,1.09-2.41.02,2.03-.01,4.72,0,6.75.23,0,.47,0,.7,0v-6.69c.97,1.93,2.19,4.76,3.17,6.68.25,0,.5,0,.76,0-1.23-2.7-2.57-5.43-3.8-8.13.66.46,1.41.86,2.25.71,1.43-.32,2.74-1.04,4.17-1.38-.23.44-.44.9-.67,1.34-.11.22-.29.52-.36.75-.01.05,0,.11,0,.15.06.19.28.3.44.38.65.3,1.5.4,2.21.33.48-.04,1.74-.2,1.81-.8-.03-.22-.3-.68-.41-.91-.2-.41-.42-.83-.6-1.25,2.29.48,4.76,2.4,6.94.6-1,2.36-2.7,5.84-3.73,8.19.23,0,.46,0,.69,0,1.11-2.27,2.1-4.61,3.21-6.88.05,2.28,0,4.57.01,6.85h.69s0-6.76,0-6.76c.91,1.9,2.21,4.85,3.13,6.76h.71c-1.24-2.66-2.5-5.46-3.74-8.13.86-.38.82-1.61-.09-1.89-.85-.27-1.65.48-1.33,1.33-.55.63-1.31.63-2.01.25-.65-.29-1.36-.48-2.04-.67-.93-.29-1.82-.48-2.79-.55-.05-.12-.11-.25-.16-.38.45-.07.76-.5.64-.94-.08-.29-.42-.9-.57-1.2-.14-.29-.27-.6-.44-.88-.06-.14-.2-.24-.36-.22-.13.03-.19.09-.26.21-.25.4-.44.85-.66,1.27-.14.28-.34.58-.42.88-.07.41.25.79.65.87-.05.13-.1.25-.15.38-1.38.06-2.79.52-4.05,1.04-1.04.54-1.53.59-2.5-.12.29-.93-.78-1.62-1.57-1.14-.83.48-.5,1.69.44,1.76-.96,2.13-2.79,6.07-3.72,8.15h.77Z"/>
      <path class="cls-4" d="M178.64,247.8c0,2.5-2.03,4.54-4.54,4.54H21.71c-2.5,0-4.54-2.03-4.54-4.54V21.71c0-2.5,2.03-4.54,4.54-4.54h152.39c2.5,0,4.54,2.03,4.54,4.54v226.09ZM.11,269.4h195.59V.11H.11v269.29Z"/>
    </g>
    <path class="cls-1" d="M26.57,65.78c-.21,0-.44-.02-.56-.05v-.67c.12.02.28.03.46.03.61,0,.71-.36.71-1.05v-5.49h.78v5.42c0,.97-.15,1.8-1.38,1.8ZM28.91,60.61c.19-.73.36-1.6.36-2.43h.74c-.01.9-.28,1.98-.49,2.43h-.62ZM33.62,64.75c0,.33.03.77.04.94h-.7c-.03-.12-.05-.4-.05-.6-.2.43-.6.7-1.26.7-1.02,0-1.39-.8-1.39-1.54,0-.97.66-1.7,2.05-1.7.25,0,.4,0,.56.02v-.71c0-.42-.08-.94-.8-.94-.78,0-.83.56-.86.92h-.74c.02-.76.39-1.54,1.63-1.54,1.03,0,1.53.5,1.53,1.48v2.99ZM32.88,63.16c-.13-.02-.28-.03-.53-.03-.95,0-1.33.45-1.33,1.05,0,.49.26.94.83.94.78,0,1.03-.55,1.03-1.67v-.29ZM34.89,60.36h.77v5.32h-.77v-5.32ZM34.9,58.21h.77v1.1h-.77v-1.1ZM39.7,65.14v2.5h-.77v-5.73c0-.73,0-1.22-.01-1.55h.74c.01.1.03.45.03.72.19-.46.56-.8,1.27-.8,1.01,0,1.56.89,1.56,2.68,0,1.92-.67,2.83-1.71,2.83-.64,0-.96-.3-1.11-.64ZM41.73,62.99c0-1.34-.31-2.03-1.01-2.03-.83,0-1.05.79-1.05,2.04s.12,2.11,1,2.11c.7,0,1.05-.81,1.05-2.12ZM46.59,64.75c0,.33.03.77.04.94h-.7c-.03-.12-.05-.4-.05-.6-.2.43-.6.7-1.26.7-1.02,0-1.39-.8-1.39-1.54,0-.97.66-1.7,2.05-1.7.25,0,.4,0,.56.02v-.71c0-.42-.08-.94-.8-.94-.78,0-.83.56-.86.92h-.74c.02-.76.39-1.54,1.63-1.54,1.03,0,1.53.5,1.53,1.48v2.99ZM45.86,63.16c-.13-.02-.28-.03-.53-.03-.95,0-1.33.45-1.33,1.05,0,.49.26.94.83.94.78,0,1.03-.55,1.03-1.67v-.29ZM49.13,64.75h.01c.11-.61.58-2.44,1.09-4.39h.8l-1.56,5.59c-.43,1.56-.85,1.77-1.6,1.77-.11,0-.28-.01-.38-.04v-.68c.07.02.23.03.35.03.56,0,.71-.38.93-1.24l-1.56-5.43h.84c.57,2.23,1.02,3.82,1.09,4.39ZM52.25,63.17c0,1.04.18,1.95,1.02,1.95s.94-.79.97-.95h.75c-.01.14-.16,1.62-1.73,1.62s-1.79-1.44-1.79-2.76c0-1.68.58-2.75,1.83-2.75,1.4,0,1.73,1.15,1.73,2.48,0,.1,0,.28-.01.41h-2.77ZM54.27,62.56c0-.92-.19-1.63-.97-1.63-.97,0-1.02,1.27-1.04,1.63h2.01ZM54.77,58.09l-1.32,1.46h-.72l1.12-1.46h.91ZM54.27,62.56h0ZM57.78,60.41c0-.72.35-1.74,1.66-1.74,1.15,0,1.58.76,1.58,1.72,0,.89-.39,1.32-.84,1.49h0c.62.22,1.05.71,1.05,1.78s-.42,2.12-1.84,2.12c-1.29,0-1.72-.88-1.75-1.8h.74c.02.55.29,1.16,1.03,1.16.84,0,1.04-.74,1.04-1.45,0-1.12-.51-1.42-1.28-1.42h-.3v-.65h.3c.67,0,1.09-.27,1.09-1.18,0-.65-.2-1.12-.86-1.12-.79,0-.88.78-.9,1.1h-.71ZM63.92,65.79c-1.38,0-1.82-1.22-1.82-3.65,0-2.63.68-3.47,1.85-3.47,1.26,0,1.79.98,1.79,3.47s-.49,3.64-1.82,3.64ZM63.92,65.12c.83,0,1.04-.97,1.04-2.98s-.25-2.8-1.03-2.8-1.06.71-1.06,2.78.2,3,1.04,3ZM72.15,58.21v6.11c0,.52,0,1.05.01,1.37h-.74c-.01-.14-.03-.49-.03-.72-.16.46-.5.81-1.25.81-1.11,0-1.58-.94-1.58-2.81,0-1.7.63-2.69,1.75-2.69.69,0,.96.29,1.08.55v-2.62h.77ZM69.35,62.98c0,1.54.35,2.12,1,2.12.83,0,1.05-.71,1.05-2.15,0-1.55-.22-1.99-.99-1.99-.63,0-1.06.56-1.06,2.02ZM76.81,62.96c0,1.87-.63,2.82-1.83,2.82s-1.83-.91-1.83-2.8.72-2.7,1.86-2.7,1.8.9,1.8,2.69ZM73.93,62.98c0,1.45.36,2.14,1.05,2.14s1.04-.7,1.04-2.14c0-1.36-.34-2.03-1.04-2.03s-1.05.6-1.05,2.04ZM77.81,65.69v-7.47h.77v7.47h-.77ZM79.86,65.69v-7.47h.77v7.47h-.77ZM84.94,64.75c0,.33.03.77.04.94h-.7c-.03-.12-.05-.4-.05-.6-.2.43-.6.7-1.26.7-1.02,0-1.39-.8-1.39-1.54,0-.97.66-1.7,2.05-1.7.25,0,.4,0,.56.02v-.71c0-.42-.08-.94-.8-.94-.78,0-.83.56-.86.92h-.74c.02-.76.39-1.54,1.63-1.54,1.03,0,1.53.5,1.53,1.48v2.99ZM84.2,63.16c-.13-.02-.28-.03-.53-.03-.95,0-1.33.45-1.33,1.05,0,.49.26.94.83.94.78,0,1.03-.55,1.03-1.67v-.29ZM86.21,60.36h.74c.01.14.02.39.02.95.23-.64.74-1.02,1.41-1.03v.85c-.92.03-1.39.6-1.39,1.58v2.97h-.77v-3.51c0-.85,0-1.43-.01-1.81ZM90.48,65.15c.58,0,.86-.35.86-.84,0-.55-.28-.8-.98-1.08-1.1-.42-1.42-.82-1.42-1.56s.44-1.41,1.52-1.41c1.19,0,1.53.81,1.54,1.52h-.75c-.01-.25-.07-.89-.81-.89-.5,0-.73.31-.73.73s.19.64.92.92c1.03.4,1.48.77,1.48,1.69,0,.97-.61,1.54-1.67,1.54s-1.64-.66-1.67-1.63h.76c.03.57.33,1,.94,1ZM95.84,65.14v2.5h-.77v-5.73c0-.73,0-1.22-.01-1.55h.74c.01.1.03.45.03.72.19-.46.56-.8,1.27-.8,1.01,0,1.56.89,1.56,2.68,0,1.92-.67,2.83-1.71,2.83-.64,0-.96-.3-1.11-.64ZM97.87,62.99c0-1.34-.31-2.03-1.01-2.03-.83,0-1.05.79-1.05,2.04s.12,2.11,1,2.11c.7,0,1.05-.81,1.05-2.12ZM103.08,62.96c0,1.87-.63,2.82-1.83,2.82s-1.83-.91-1.83-2.8.72-2.7,1.86-2.7,1.8.9,1.8,2.69ZM100.2,62.98c0,1.45.36,2.14,1.05,2.14s1.04-.7,1.04-2.14c0-1.36-.34-2.03-1.04-2.03s-1.05.6-1.05,2.04ZM107.43,64.23c0,.67,0,1.2.01,1.46h-.73c-.02-.15-.04-.37-.04-.71-.19.53-.64.8-1.26.8s-1.33-.25-1.33-1.59v-3.83h.77v3.65c0,.68.19,1.1.8,1.1s1.01-.36,1.01-1.51v-3.23h.77v3.87ZM108.61,60.36h.74c.01.14.02.39.02.95.23-.64.74-1.02,1.41-1.03v.85c-.92.03-1.39.6-1.39,1.58v2.97h-.77v-3.51c0-.85,0-1.43-.01-1.81ZM116.62,64.75c0,.33.03.77.04.94h-.7c-.03-.12-.05-.4-.05-.6-.2.43-.6.7-1.26.7-1.02,0-1.39-.8-1.39-1.54,0-.97.66-1.7,2.05-1.7.25,0,.4,0,.56.02v-.71c0-.42-.08-.94-.8-.94-.78,0-.83.56-.86.92h-.74c.02-.76.39-1.54,1.63-1.54,1.03,0,1.53.5,1.53,1.48v2.99ZM115.88,63.16c-.13-.02-.28-.03-.53-.03-.95,0-1.33.45-1.33,1.05,0,.49.26.94.83.94.78,0,1.03-.55,1.03-1.67v-.29ZM121.09,64.06c-.02.28-.14,1.72-1.69,1.72-1.39,0-1.77-1.23-1.77-2.77s.49-2.73,1.84-2.73c1.55,0,1.62,1.43,1.62,1.68h-.79c-.01-.22-.08-1.02-.84-1.02s-1.05.84-1.05,2.07c0,1.32.29,2.12,1.01,2.12.77,0,.86-.78.9-1.06h.76ZM125.26,64.06c-.02.28-.14,1.72-1.69,1.72-1.39,0-1.77-1.23-1.77-2.77s.49-2.73,1.84-2.73c1.55,0,1.62,1.43,1.62,1.68h-.79c-.01-.22-.08-1.02-.84-1.02s-1.05.84-1.05,2.07c0,1.32.29,2.12,1.01,2.12.77,0,.86-.78.9-1.06h.76ZM126.74,63.17c0,1.04.18,1.95,1.02,1.95s.94-.79.97-.95h.75c-.01.14-.16,1.62-1.73,1.62s-1.79-1.44-1.79-2.76c0-1.68.58-2.75,1.83-2.75,1.4,0,1.73,1.15,1.73,2.48,0,.1,0,.28-.01.41h-2.77ZM128.76,62.56c0-.92-.19-1.63-.97-1.63-.97,0-1.02,1.27-1.04,1.63h2.01ZM129.26,58.09l-1.32,1.46h-.72l1.12-1.46h.91ZM128.76,62.56h0ZM133.92,58.21v6.11c0,.52,0,1.05.01,1.37h-.74c-.01-.14-.03-.49-.03-.72-.16.46-.5.81-1.25.81-1.11,0-1.58-.94-1.58-2.81,0-1.7.63-2.69,1.75-2.69.69,0,.96.29,1.08.55v-2.62h.77ZM131.11,62.98c0,1.54.35,2.12,1,2.12.83,0,1.05-.71,1.05-2.15,0-1.55-.22-1.99-.99-1.99-.63,0-1.06.56-1.06,2.02ZM135.68,63.17c0,1.04.18,1.95,1.02,1.95s.94-.79.97-.95h.75c-.01.14-.16,1.62-1.73,1.62s-1.79-1.44-1.79-2.76c0-1.68.58-2.75,1.83-2.75,1.4,0,1.73,1.15,1.73,2.48,0,.1,0,.28-.01.41h-2.77ZM137.7,62.56c0-.92-.19-1.63-.97-1.63-.97,0-1.02,1.27-1.04,1.63h2.01ZM137.7,62.56h0ZM139.43,60.36h.74c.01.14.02.39.02.95.23-.64.74-1.02,1.41-1.03v.85c-.92.03-1.39.6-1.39,1.58v2.97h-.77v-3.51c0-.85,0-1.43-.01-1.81Z"/>
    <path class="cls-1" d="M29.66,76.75c0,.33.03.77.04.94h-.7c-.03-.12-.05-.4-.05-.6-.2.43-.6.7-1.26.7-1.02,0-1.39-.8-1.39-1.54,0-.97.66-1.7,2.05-1.7.25,0,.4,0,.56.02v-.71c0-.42-.08-.94-.8-.94-.78,0-.83.56-.86.92h-.74c.02-.76.39-1.54,1.63-1.54,1.03,0,1.53.5,1.53,1.48v2.99ZM27.44,70.1l1.12,1.46h-.72l-1.32-1.46h.92ZM28.92,75.17c-.13-.02-.28-.03-.53-.03-.95,0-1.33.45-1.33,1.05,0,.49.26.94.83.94.78,0,1.03-.55,1.03-1.67v-.29ZM36.29,76.23c0,.67,0,1.2.01,1.46h-.73c-.02-.15-.04-.37-.04-.71-.19.53-.64.8-1.26.8s-1.33-.25-1.33-1.59v-3.83h.77v3.65c0,.68.19,1.1.8,1.1s1.01-.36,1.01-1.51v-3.23h.77v3.87ZM37.48,72.36h.74c.01.13.03.34.03.7.18-.42.54-.79,1.26-.79.77,0,1.37.44,1.37,1.62v3.79h-.77v-3.64c0-.65-.21-1.09-.82-1.09-.72,0-1.02.47-1.02,1.56v3.17h-.77v-3.68c0-1.09,0-1.4-.01-1.65ZM47.18,76.75c0,.33.03.77.04.94h-.7c-.03-.12-.05-.4-.05-.6-.2.43-.6.7-1.26.7-1.02,0-1.39-.8-1.39-1.54,0-.97.66-1.7,2.05-1.7.25,0,.4,0,.56.02v-.71c0-.42-.08-.94-.8-.94-.78,0-.83.56-.86.92h-.74c.02-.76.39-1.54,1.63-1.54,1.03,0,1.53.5,1.53,1.48v2.99ZM46.45,75.17c-.13-.02-.28-.03-.53-.03-.95,0-1.33.45-1.33,1.05,0,.49.26.94.83.94.78,0,1.03-.55,1.03-1.67v-.29ZM48.45,72.36h.74c.01.14.02.39.02.95.23-.64.74-1.02,1.41-1.03v.85c-.92.03-1.39.6-1.39,1.58v2.97h-.77v-3.51c0-.85,0-1.43-.01-1.81ZM51.05,72.36h.75v-1.42h.76v1.42h.93v.66h-.93v3.49c0,.37.08.59.48.59.13,0,.28,0,.38-.03v.59c-.18.07-.45.09-.63.09-.63,0-.99-.25-.99-1.09v-3.65h-.75v-.66ZM54.25,72.36h.77v5.32h-.77v-5.32ZM54.26,70.21h.77v1.1h-.77v-1.1ZM59.49,76.06c-.02.28-.14,1.72-1.69,1.72-1.39,0-1.77-1.23-1.77-2.77s.49-2.73,1.84-2.73c1.55,0,1.62,1.43,1.62,1.68h-.79c-.01-.22-.08-1.02-.84-1.02s-1.05.84-1.05,2.07c0,1.32.29,2.12,1.01,2.12.77,0,.86-.78.9-1.06h.76ZM60.4,77.69v-7.47h.77v7.47h-.77ZM62.94,75.17c0,1.04.18,1.95,1.02,1.95s.94-.79.97-.95h.75c-.01.14-.16,1.62-1.73,1.62s-1.79-1.44-1.79-2.76c0-1.68.58-2.75,1.83-2.75,1.4,0,1.73,1.15,1.73,2.48,0,.1,0,.28-.01.41h-2.77ZM64.96,74.57c0-.92-.19-1.63-.97-1.63-.97,0-1.02,1.27-1.04,1.63h2.01ZM64.96,74.57h0ZM69.22,75.17c0,1.04.18,1.95,1.02,1.95s.94-.79.97-.95h.75c-.01.14-.16,1.62-1.73,1.62s-1.79-1.44-1.79-2.76c0-1.68.58-2.75,1.83-2.75,1.4,0,1.73,1.15,1.73,2.48,0,.1,0,.28-.01.41h-2.77ZM71.24,74.57c0-.92-.19-1.63-.97-1.63-.97,0-1.02,1.27-1.04,1.63h2.01ZM71.24,74.57h0ZM72.98,72.36h.74c.01.13.03.34.03.7.18-.42.54-.79,1.26-.79.77,0,1.37.44,1.37,1.62v3.79h-.77v-3.64c0-.65-.21-1.09-.82-1.09-.72,0-1.02.47-1.02,1.56v3.17h-.77v-3.68c0-1.09,0-1.4-.01-1.65ZM79.59,77.69v-7.47h.77v7.47h-.77ZM81.63,72.36h.77v5.32h-.77v-5.32ZM81.63,70.21h.77v1.1h-.77v-1.1ZM87,77.35c0,1.4-.34,2.38-1.86,2.38-1.38,0-1.67-.89-1.7-1.47h.78c.02.29.19.81.95.81.89,0,1.08-.65,1.08-1.73v-.49c-.19.54-.64.81-1.24.81-1.07,0-1.6-.91-1.6-2.58,0-1.92.71-2.81,1.72-2.81.72,0,1.03.35,1.12.7,0-.24.02-.5.04-.61h.74c-.01.28-.01.82-.01,1.54v3.45ZM84.19,75.07c0,1.29.35,1.92,1.02,1.92.83,0,1.05-.81,1.05-2.05s-.17-1.99-.98-1.99c-.71,0-1.08.73-1.08,2.12ZM88.26,72.36h.74c.01.13.03.34.03.7.18-.42.54-.79,1.26-.79.77,0,1.37.44,1.37,1.62v3.79h-.77v-3.64c0-.65-.21-1.09-.82-1.09-.72,0-1.02.47-1.02,1.56v3.17h-.77v-3.68c0-1.09,0-1.4-.01-1.65ZM93.44,75.17c0,1.04.18,1.95,1.02,1.95s.94-.79.97-.95h.75c-.01.14-.16,1.62-1.73,1.62s-1.79-1.44-1.79-2.76c0-1.68.58-2.75,1.83-2.75,1.4,0,1.73,1.15,1.73,2.48,0,.1,0,.28-.01.41h-2.77ZM95.46,74.57c0-.92-.19-1.63-.97-1.63-.97,0-1.02,1.27-1.04,1.63h2.01ZM95.46,74.57h0ZM97.02,76.25h.78v1.44h-.78v-1.44ZM100.86,70.56h1.84c1.12,0,1.89.7,1.89,1.99s-.7,2.06-2.01,2.06h-.94v3.08h-.78v-7.13ZM101.64,73.94h.86c.85,0,1.29-.45,1.29-1.41,0-.79-.41-1.31-1.2-1.31h-.95v2.72ZM108.78,74.96c0,1.87-.63,2.82-1.83,2.82s-1.83-.91-1.83-2.8.72-2.7,1.86-2.7,1.8.9,1.8,2.69ZM105.9,74.98c0,1.45.36,2.14,1.05,2.14s1.04-.7,1.04-2.14c0-1.36-.34-2.03-1.04-2.03s-1.05.6-1.05,2.04ZM113.13,76.23c0,.67,0,1.2.01,1.46h-.73c-.02-.15-.04-.37-.04-.71-.19.53-.64.8-1.26.8s-1.33-.25-1.33-1.59v-3.83h.77v3.65c0,.68.19,1.1.8,1.1s1.01-.36,1.01-1.51v-3.23h.77v3.87ZM114.31,72.36h.74c.01.14.02.39.02.95.23-.64.74-1.02,1.41-1.03v.85c-.92.03-1.39.6-1.39,1.58v2.97h-.77v-3.51c0-.85,0-1.43-.01-1.81ZM119.23,73.96c0-.95,0-1.35-.01-1.6h.74c.02.16.03.44.03.68.21-.46.59-.77,1.19-.77.56,0,.94.24,1.1.79.19-.43.6-.79,1.29-.79s1.29.32,1.29,1.55v3.86h-.76v-3.73c0-.54-.16-1-.75-1-.68,0-.91.6-.91,1.32v3.41h-.76v-3.71c0-.66-.22-1.02-.74-1.02-.64,0-.94.58-.94,1.39v3.34h-.76v-3.73ZM126.63,75.17c0,1.04.18,1.95,1.02,1.95s.94-.79.97-.95h.75c-.01.14-.16,1.62-1.73,1.62s-1.79-1.44-1.79-2.76c0-1.68.58-2.75,1.83-2.75,1.4,0,1.73,1.15,1.73,2.48,0,.1,0,.28-.01.41h-2.77ZM128.65,74.57c0-.92-.19-1.63-.97-1.63-.97,0-1.02,1.27-1.04,1.63h2.01ZM128.65,74.57h0ZM132.48,77.69v-4.66h-.69v-.66h.69v-.73c0-.79.28-1.48,1.25-1.48.15,0,.33.02.43.06v.68c-.09-.02-.22-.05-.35-.05-.42,0-.57.26-.57.8v.72h.84v.66h-.84v4.66h-.77ZM137.74,76.75c0,.33.03.77.04.94h-.7c-.03-.12-.05-.4-.05-.6-.2.43-.6.7-1.26.7-1.02,0-1.39-.8-1.39-1.54,0-.97.66-1.7,2.05-1.7.25,0,.4,0,.56.02v-.71c0-.42-.08-.94-.8-.94-.78,0-.83.56-.86.92h-.74c.02-.76.39-1.54,1.63-1.54,1.03,0,1.53.5,1.53,1.48v2.99ZM137.01,75.17c-.13-.02-.28-.03-.53-.03-.95,0-1.33.45-1.33,1.05,0,.49.26.94.83.94.78,0,1.03-.55,1.03-1.67v-.29ZM139.02,72.36h.77v5.32h-.77v-5.32ZM139.02,70.21h.77v1.1h-.77v-1.1ZM141.05,72.36h.74c.01.14.02.39.02.95.23-.64.74-1.02,1.41-1.03v.85c-.92.03-1.39.6-1.39,1.58v2.97h-.77v-3.51c0-.85,0-1.43-.01-1.81ZM144.4,75.17c0,1.04.18,1.95,1.02,1.95s.94-.79.97-.95h.75c-.01.14-.16,1.62-1.73,1.62s-1.79-1.44-1.79-2.76c0-1.68.58-2.75,1.83-2.75,1.4,0,1.73,1.15,1.73,2.48,0,.1,0,.28-.01.41h-2.77ZM146.42,74.57c0-.92-.19-1.63-.97-1.63-.97,0-1.02,1.27-1.04,1.63h2.01ZM146.42,74.57h0Z"/>
    <path class="cls-1" d="M26.56,84.37h.74c.01.14.02.39.02.95.23-.64.74-1.02,1.41-1.03v.85c-.92.03-1.39.6-1.39,1.58v2.97h-.77v-3.51c0-.85,0-1.43-.01-1.81ZM29.91,87.17c0,1.04.18,1.95,1.02,1.95s.94-.79.97-.95h.75c-.01.14-.16,1.62-1.73,1.62s-1.79-1.44-1.79-2.76c0-1.68.58-2.75,1.83-2.75,1.4,0,1.73,1.15,1.73,2.48,0,.1,0,.28-.01.41h-2.77ZM31.93,86.57c0-.92-.19-1.63-.97-1.63-.97,0-1.02,1.27-1.04,1.63h2.01ZM31.93,86.57h0ZM33.68,85.96c0-.95,0-1.35-.01-1.6h.74c.02.16.03.44.03.68.21-.46.59-.77,1.19-.77.56,0,.94.24,1.1.79.19-.43.6-.79,1.29-.79s1.29.32,1.29,1.55v3.86h-.76v-3.73c0-.54-.16-1-.75-1-.68,0-.91.6-.91,1.32v3.41h-.76v-3.71c0-.66-.22-1.02-.74-1.02-.64,0-.94.58-.94,1.39v3.34h-.76v-3.73ZM40.57,82.21h.77v2.86c.17-.41.54-.8,1.27-.8,1.02,0,1.56.85,1.56,2.62,0,1.64-.44,2.88-1.7,2.88-.68,0-.98-.34-1.15-.71,0,.18-.01.42-.03.63h-.73c.01-.28.01-.81.01-1.46v-6.01ZM43.38,86.91c0-1.33-.31-1.95-.98-1.95-.82,0-1.09.73-1.09,2.08,0,1.28.21,2.06,1.02,2.06.71,0,1.05-.69,1.05-2.19ZM48.56,86.96c0,1.87-.63,2.82-1.83,2.82s-1.83-.91-1.83-2.8.72-2.7,1.86-2.7,1.8.9,1.8,2.69ZM45.69,86.99c0,1.45.36,2.14,1.05,2.14s1.04-.7,1.04-2.14c0-1.36-.34-2.03-1.04-2.03s-1.05.6-1.05,2.04ZM52.91,88.23c0,.67,0,1.2.01,1.46h-.73c-.02-.15-.04-.37-.04-.71-.19.53-.64.8-1.26.8s-1.33-.25-1.33-1.59v-3.83h.77v3.65c0,.68.19,1.1.8,1.1s1.01-.36,1.01-1.51v-3.23h.77v3.87ZM54.1,84.37h.74c.01.14.02.39.02.95.23-.64.74-1.02,1.41-1.03v.85c-.92.03-1.39.6-1.39,1.58v2.97h-.77v-3.51c0-.85,0-1.43-.01-1.81ZM58.37,89.15c.58,0,.86-.35.86-.84,0-.55-.28-.8-.98-1.08-1.1-.42-1.42-.82-1.42-1.56s.44-1.41,1.52-1.41c1.19,0,1.53.81,1.54,1.52h-.75c-.01-.25-.07-.89-.81-.89-.5,0-.73.31-.73.73s.19.64.92.92c1.03.4,1.48.77,1.48,1.69,0,.97-.61,1.54-1.67,1.54s-1.64-.66-1.67-1.63h.76c.03.57.33,1,.94,1ZM61.47,87.17c0,1.04.18,1.95,1.02,1.95s.94-.79.97-.95h.75c-.01.14-.16,1.62-1.73,1.62s-1.79-1.44-1.79-2.76c0-1.68.58-2.75,1.83-2.75,1.4,0,1.73,1.15,1.73,2.48,0,.1,0,.28-.01.41h-2.77ZM63.49,86.57c0-.92-.19-1.63-.97-1.63-.97,0-1.02,1.27-1.04,1.63h2.01ZM63.49,86.57h0ZM65.23,84.37h.74c.01.14.02.39.02.95.23-.64.74-1.02,1.41-1.03v.85c-.92.03-1.39.6-1.39,1.58v2.97h-.77v-3.51c0-.85,0-1.43-.01-1.81ZM67.11,90.88c.32-.83.53-1.77.58-2.53h.74c-.07.97-.37,1.98-.69,2.53h-.63ZM74.38,88.75c0,.33.03.77.04.94h-.7c-.03-.12-.05-.4-.05-.6-.2.43-.6.7-1.26.7-1.02,0-1.39-.8-1.39-1.54,0-.97.66-1.7,2.05-1.7.25,0,.4,0,.56.02v-.71c0-.42-.08-.94-.8-.94-.78,0-.83.56-.86.92h-.74c.02-.76.39-1.54,1.63-1.54,1.03,0,1.53.5,1.53,1.48v2.99ZM72.16,82.1l1.12,1.46h-.72l-1.32-1.46h.92ZM73.64,87.17c-.13-.02-.28-.03-.53-.03-.95,0-1.33.45-1.33,1.05,0,.49.26.94.83.94.78,0,1.03-.55,1.03-1.67v-.29ZM80.23,89.02c-.2.46-.56.77-1.25.77-1,0-1.59-.82-1.59-2.76,0-1.76.67-2.75,1.72-2.75.7,0,1,.34,1.11.67,0-.29.02-.48.03-.58h.74c-.01.38-.01.82-.01,1.58v5.7h-.75v-2.63ZM78.19,87.04c0,1.27.3,2.08,1.01,2.08.86,0,1.04-.75,1.04-2.11s-.11-2.05-.98-2.05c-.67,0-1.06.72-1.06,2.08ZM85.61,88.23c0,.67,0,1.2.01,1.46h-.73c-.02-.15-.04-.37-.04-.71-.19.53-.64.8-1.26.8s-1.33-.25-1.33-1.59v-3.83h.77v3.65c0,.68.19,1.1.8,1.1s1.01-.36,1.01-1.51v-3.23h.77v3.87ZM86.86,84.37h.77v5.32h-.77v-5.32ZM86.86,82.21h.77v1.1h-.77v-1.1ZM94.23,82.21v6.11c0,.52,0,1.05.01,1.37h-.74c-.01-.14-.03-.49-.03-.72-.16.46-.5.81-1.25.81-1.11,0-1.58-.94-1.58-2.81,0-1.7.63-2.69,1.75-2.69.69,0,.96.29,1.08.55v-2.62h.77ZM91.42,86.98c0,1.54.35,2.12,1,2.12.83,0,1.05-.71,1.05-2.15,0-1.55-.22-1.99-.99-1.99-.63,0-1.06.56-1.06,2.02ZM98.88,86.96c0,1.87-.63,2.82-1.83,2.82s-1.83-.91-1.83-2.8.72-2.7,1.86-2.7,1.8.9,1.8,2.69ZM96,86.99c0,1.45.36,2.14,1.05,2.14s1.04-.7,1.04-2.14c0-1.36-.34-2.03-1.04-2.03s-1.05.6-1.05,2.04ZM99.88,84.37h.77v5.32h-.77v-5.32ZM99.88,82.21h.77v1.1h-.77v-1.1ZM103.22,89.15c.58,0,.86-.35.86-.84,0-.55-.28-.8-.98-1.08-1.1-.42-1.42-.82-1.42-1.56s.44-1.41,1.52-1.41c1.19,0,1.53.81,1.54,1.52h-.75c-.01-.25-.07-.89-.81-.89-.5,0-.73.31-.73.73s.19.64.92.92c1.03.4,1.48.77,1.48,1.69,0,.97-.61,1.54-1.67,1.54s-1.64-.66-1.67-1.63h.76c.03.57.33,1,.94,1ZM107.68,86.63v.69h-2.14v-.69h2.14ZM109.46,84.37v5.66c0,.97-.12,1.7-1.16,1.7-.1,0-.21,0-.33-.02v-.68c.1.01.19.01.24.01.41,0,.48-.25.48-.84v-5.83h.77ZM108.7,83.32v-1.1h.77v1.1h-.77ZM111.24,87.17c0,1.04.18,1.95,1.02,1.95s.94-.79.97-.95h.75c-.01.14-.16,1.62-1.73,1.62s-1.79-1.44-1.79-2.76c0-1.68.58-2.75,1.83-2.75,1.4,0,1.73,1.15,1.73,2.48,0,.1,0,.28-.01.41h-2.77ZM113.26,86.57c0-.92-.19-1.63-.97-1.63-.97,0-1.02,1.27-1.04,1.63h2.01ZM113.26,86.57h0ZM117.02,85.96c0-.95,0-1.35-.01-1.6h.74c.02.16.03.44.03.68.21-.46.59-.77,1.19-.77.56,0,.94.24,1.1.79.19-.43.6-.79,1.29-.79s1.29.32,1.29,1.55v3.86h-.76v-3.73c0-.54-.16-1-.75-1-.68,0-.91.6-.91,1.32v3.41h-.76v-3.71c0-.66-.22-1.02-.74-1.02-.64,0-.94.58-.94,1.39v3.34h-.76v-3.73ZM123.35,84.61c.19-.73.36-1.6.36-2.43h.74c-.01.9-.28,1.98-.49,2.43h-.62ZM128.06,88.75c0,.33.03.77.04.94h-.7c-.03-.12-.05-.4-.05-.6-.2.43-.6.7-1.26.7-1.02,0-1.39-.8-1.39-1.54,0-.97.66-1.7,2.05-1.7.25,0,.4,0,.56.02v-.71c0-.42-.08-.94-.8-.94-.78,0-.83.56-.86.92h-.74c.02-.76.39-1.54,1.63-1.54,1.03,0,1.53.5,1.53,1.48v2.99ZM127.33,87.17c-.13-.02-.28-.03-.53-.03-.95,0-1.33.45-1.33,1.05,0,.49.26.94.83.94.78,0,1.03-.55,1.03-1.67v-.29ZM132.66,82.21v6.11c0,.52,0,1.05.01,1.37h-.74c-.01-.14-.03-.49-.03-.72-.16.46-.5.81-1.25.81-1.11,0-1.58-.94-1.58-2.81,0-1.7.63-2.69,1.75-2.69.69,0,.96.29,1.08.55v-2.62h.77ZM129.86,86.98c0,1.54.35,2.12,1,2.12.83,0,1.05-.71,1.05-2.15,0-1.55-.22-1.99-.99-1.99-.63,0-1.06.56-1.06,2.02ZM133.91,84.37h.74c.01.14.02.39.02.95.23-.64.74-1.02,1.41-1.03v.85c-.92.03-1.39.6-1.39,1.58v2.97h-.77v-3.51c0-.85,0-1.43-.01-1.81ZM137.26,87.17c0,1.04.18,1.95,1.02,1.95s.94-.79.97-.95h.75c-.01.14-.16,1.62-1.73,1.62s-1.79-1.44-1.79-2.76c0-1.68.58-2.75,1.83-2.75,1.4,0,1.73,1.15,1.73,2.48,0,.1,0,.28-.01.41h-2.77ZM139.28,86.57c0-.92-.19-1.63-.97-1.63-.97,0-1.02,1.27-1.04,1.63h2.01ZM139.28,86.57h0ZM142.4,89.15c.58,0,.86-.35.86-.84,0-.55-.28-.8-.98-1.08-1.1-.42-1.42-.82-1.42-1.56s.44-1.41,1.52-1.41c1.19,0,1.53.81,1.54,1.52h-.75c-.01-.25-.07-.89-.81-.89-.5,0-.73.31-.73.73s.19.64.92.92c1.03.4,1.48.77,1.48,1.69,0,.97-.61,1.54-1.67,1.54s-1.64-.66-1.67-1.63h.76c.03.57.33,1,.94,1ZM146.36,89.15c.58,0,.86-.35.86-.84,0-.55-.28-.8-.98-1.08-1.1-.42-1.42-.82-1.42-1.56s.44-1.41,1.52-1.41c1.19,0,1.53.81,1.54,1.52h-.75c-.01-.25-.07-.89-.81-.89-.5,0-.73.31-.73.73s.19.64.92.92c1.03.4,1.48.77,1.48,1.69,0,.97-.61,1.54-1.67,1.54s-1.64-.66-1.67-1.63h.76c.03.57.33,1,.94,1ZM149.46,87.17c0,1.04.18,1.95,1.02,1.95s.94-.79.97-.95h.75c-.01.14-.16,1.62-1.73,1.62s-1.79-1.44-1.79-2.76c0-1.68.58-2.75,1.83-2.75,1.4,0,1.73,1.15,1.73,2.48,0,.1,0,.28-.01.41h-2.77ZM151.48,86.57c0-.92-.19-1.63-.97-1.63-.97,0-1.02,1.27-1.04,1.63h2.01ZM151.48,86.57h0ZM153.22,84.37h.74c.01.14.02.39.02.95.23-.64.74-1.02,1.41-1.03v.85c-.92.03-1.39.6-1.39,1.58v2.97h-.77v-3.51c0-.85,0-1.43-.01-1.81ZM159.08,87.55v-.14c0-.54.13-1.02.71-1.78.43-.58.57-.97.57-1.45,0-.59-.21-1.06-.84-1.06-.58,0-.85.48-.88,1.24h-.72c.02-.83.35-1.88,1.64-1.88,1.16,0,1.58.76,1.58,1.7,0,.75-.24,1.2-.8,1.95-.37.51-.49.91-.49,1.35v.08h-.77ZM159.07,89.7v-1.32h.78v1.32h-.78Z"/>
    <path class="cls-1" d="M29.66,103.58c0,.33.03.77.04.94h-.7c-.03-.12-.05-.4-.05-.6-.2.43-.6.7-1.26.7-1.02,0-1.39-.8-1.39-1.54,0-.97.66-1.7,2.05-1.7.25,0,.4,0,.56.02v-.71c0-.42-.08-.94-.8-.94-.78,0-.83.56-.86.92h-.74c.02-.76.39-1.54,1.63-1.54,1.03,0,1.53.5,1.53,1.48v2.99ZM28.92,102c-.13-.02-.28-.03-.53-.03-.95,0-1.33.45-1.33,1.05,0,.49.26.94.83.94.78,0,1.03-.55,1.03-1.67v-.29ZM30.69,103.09h.78v1.44h-.78v-1.44Z"/>
    <path class="cls-1" d="M36.82,104.52h-.78s1.72-7.13,1.72-7.13h1.02l1.77,7.13h-.83l-.53-2.26h-1.85l-.52,2.26ZM37.54,95.67l1.16,1.24h-.82l-1.36-1.24h1.01ZM39.03,101.57c-.41-1.75-.68-2.87-.78-3.43h-.02c-.1.62-.39,1.9-.74,3.43h1.54ZM43.28,100.8c0-.95,0-1.35-.01-1.6h.74c.02.16.03.44.03.68.21-.46.59-.77,1.19-.77.56,0,.94.24,1.1.79.19-.43.6-.79,1.29-.79s1.29.32,1.29,1.55v3.86h-.76v-3.73c0-.54-.16-1-.75-1-.68,0-.91.6-.91,1.32v3.41h-.76v-3.71c0-.66-.22-1.02-.74-1.02-.64,0-.94.58-.94,1.39v3.34h-.76v-3.73ZM53.56,101.8c0,1.87-.63,2.82-1.83,2.82s-1.83-.91-1.83-2.8.72-2.7,1.86-2.7,1.8.9,1.8,2.69ZM50.68,101.82c0,1.45.36,2.14,1.05,2.14s1.04-.7,1.04-2.14c0-1.36-.34-2.03-1.04-2.03s-1.05.6-1.05,2.04ZM54.55,99.2h.74c.01.13.03.34.03.7.18-.42.54-.79,1.26-.79.77,0,1.37.44,1.37,1.62v3.79h-.77v-3.64c0-.65-.21-1.09-.82-1.09-.72,0-1.02.47-1.02,1.56v3.17h-.77v-3.68c0-1.09,0-1.4-.01-1.65ZM58.85,104.73l2.01-7.39h.63l-2.01,7.39h-.64ZM62.47,100.8c0-.95,0-1.35-.01-1.6h.74c.02.16.03.44.03.68.21-.46.59-.77,1.19-.77.56,0,.94.24,1.1.79.19-.43.6-.79,1.29-.79s1.29.32,1.29,1.55v3.86h-.76v-3.73c0-.54-.16-1-.75-1-.68,0-.91.6-.91,1.32v3.41h-.76v-3.71c0-.66-.22-1.02-.74-1.02-.64,0-.94.58-.94,1.39v3.34h-.76v-3.73ZM72.36,103.58c0,.33.03.77.04.94h-.7c-.03-.12-.05-.4-.05-.6-.2.43-.6.7-1.26.7-1.02,0-1.39-.8-1.39-1.54,0-.97.66-1.7,2.05-1.7.25,0,.4,0,.56.02v-.71c0-.42-.08-.94-.8-.94-.78,0-.83.56-.86.92h-.74c.02-.76.39-1.54,1.63-1.54,1.03,0,1.53.5,1.53,1.48v2.99ZM71.63,102c-.13-.02-.28-.03-.53-.03-.95,0-1.33.45-1.33,1.05,0,.49.26.94.83.94.78,0,1.03-.55,1.03-1.67v-.29ZM75.63,99.2h.74c.01.14.02.39.02.95.23-.64.74-1.02,1.41-1.03v.85c-.92.03-1.39.6-1.39,1.58v2.97h-.77v-3.51c0-.85,0-1.43-.01-1.81ZM78.99,102.01c0,1.04.18,1.95,1.02,1.95s.94-.79.97-.95h.75c-.01.14-.16,1.62-1.73,1.62s-1.79-1.44-1.79-2.76c0-1.68.58-2.75,1.83-2.75,1.4,0,1.73,1.15,1.73,2.48,0,.1,0,.28-.01.41h-2.77ZM81.01,101.4c0-.92-.19-1.63-.97-1.63-.97,0-1.02,1.27-1.04,1.63h2.01ZM81.51,96.93l-1.32,1.46h-.72l1.12-1.46h.91ZM81.01,101.4h0ZM82.93,104.52v-4.66h-.69v-.66h.69v-.73c0-.79.28-1.48,1.25-1.48.15,0,.33.02.43.06v.68c-.09-.02-.22-.05-.35-.05-.42,0-.57.26-.57.8v.72h.84v.66h-.84v4.66h-.77ZM85.62,102.01c0,1.04.18,1.95,1.02,1.95s.94-.79.97-.95h.75c-.01.14-.16,1.62-1.73,1.62s-1.79-1.44-1.79-2.76c0-1.68.58-2.75,1.83-2.75,1.4,0,1.73,1.15,1.73,2.48,0,.1,0,.28-.01.41h-2.77ZM87.64,101.4c0-.92-.19-1.63-.97-1.63-.97,0-1.02,1.27-1.04,1.63h2.01ZM88.14,96.93l-1.32,1.46h-.72l1.12-1.46h.91ZM87.64,101.4h0ZM89.38,99.2h.74c.01.14.02.39.02.95.23-.64.74-1.02,1.41-1.03v.85c-.92.03-1.39.6-1.39,1.58v2.97h-.77v-3.51c0-.85,0-1.43-.01-1.81ZM92.73,102.01c0,1.04.18,1.95,1.02,1.95s.94-.79.97-.95h.75c-.01.14-.16,1.62-1.73,1.62s-1.79-1.44-1.79-2.76c0-1.68.58-2.75,1.83-2.75,1.4,0,1.73,1.15,1.73,2.48,0,.1,0,.28-.01.41h-2.77ZM94.75,101.4c0-.92-.19-1.63-.97-1.63-.97,0-1.02,1.27-1.04,1.63h2.01ZM94.75,101.4h0ZM96.49,99.2h.74c.01.13.03.34.03.7.18-.42.54-.79,1.26-.79.77,0,1.37.44,1.37,1.62v3.79h-.77v-3.64c0-.65-.21-1.09-.82-1.09-.72,0-1.02.47-1.02,1.56v3.17h-.77v-3.68c0-1.09,0-1.4-.01-1.65ZM100.49,99.2h.75v-1.42h.76v1.42h.93v.66h-.93v3.49c0,.37.08.59.48.59.13,0,.28,0,.38-.03v.59c-.18.07-.45.09-.63.09-.63,0-.99-.25-.99-1.09v-3.65h-.75v-.66ZM105.53,101.46v.69h-2.14v-.69h2.14ZM107.25,102.01c0,1.04.18,1.95,1.02,1.95s.94-.79.97-.95h.75c-.01.14-.16,1.62-1.73,1.62s-1.79-1.44-1.79-2.76c0-1.68.58-2.75,1.83-2.75,1.4,0,1.73,1.15,1.73,2.48,0,.1,0,.28-.01.41h-2.77ZM109.27,101.4c0-.92-.19-1.63-.97-1.63-.97,0-1.02,1.27-1.04,1.63h2.01ZM109.27,101.4h0ZM116.35,97.05v6.11c0,.52,0,1.05.01,1.37h-.74c-.01-.14-.03-.49-.03-.72-.16.46-.5.81-1.25.81-1.11,0-1.58-.94-1.58-2.81,0-1.7.63-2.69,1.75-2.69.69,0,.96.29,1.08.55v-2.62h.77ZM113.55,101.82c0,1.54.35,2.12,1,2.12.83,0,1.05-.71,1.05-2.15,0-1.55-.22-1.99-.99-1.99-.63,0-1.06.56-1.06,2.02ZM118.11,102.01c0,1.04.18,1.95,1.02,1.95s.94-.79.97-.95h.75c-.01.14-.16,1.62-1.73,1.62s-1.79-1.44-1.79-2.76c0-1.68.58-2.75,1.83-2.75,1.4,0,1.73,1.15,1.73,2.48,0,.1,0,.28-.01.41h-2.77ZM120.13,101.4c0-.92-.19-1.63-.97-1.63-.97,0-1.02,1.27-1.04,1.63h2.01ZM120.13,101.4h0ZM123.22,99.2h.75v-1.42h.76v1.42h.93v.66h-.93v3.49c0,.37.08.59.48.59.13,0,.28,0,.38-.03v.59c-.18.07-.45.09-.63.09-.63,0-.99-.25-.99-1.09v-3.65h-.75v-.66ZM126.38,99.2h.74c.01.14.02.39.02.95.23-.64.74-1.02,1.41-1.03v.85c-.92.03-1.39.6-1.39,1.58v2.97h-.77v-3.51c0-.85,0-1.43-.01-1.81ZM132.24,103.58c0,.33.03.77.04.94h-.7c-.03-.12-.05-.4-.05-.6-.2.43-.6.7-1.26.7-1.02,0-1.39-.8-1.39-1.54,0-.97.66-1.7,2.05-1.7.25,0,.4,0,.56.02v-.71c0-.42-.08-.94-.8-.94-.78,0-.83.56-.86.92h-.74c.02-.76.39-1.54,1.63-1.54,1.03,0,1.53.5,1.53,1.48v2.99ZM131.51,102c-.13-.02-.28-.03-.53-.03-.95,0-1.33.45-1.33,1.05,0,.49.26.94.83.94.78,0,1.03-.55,1.03-1.67v-.29ZM133.67,99.2c.44,1.73.97,3.81,1.07,4.46h.01c.07-.59.87-3.37,1.13-4.46h.77l-1.52,5.32h-.83l-1.45-5.32h.82ZM140.32,103.58c0,.33.03.77.04.94h-.7c-.03-.12-.05-.4-.05-.6-.2.43-.6.7-1.26.7-1.02,0-1.39-.8-1.39-1.54,0-.97.66-1.7,2.05-1.7.25,0,.4,0,.56.02v-.71c0-.42-.08-.94-.8-.94-.78,0-.83.56-.86.92h-.74c.02-.76.39-1.54,1.63-1.54,1.03,0,1.53.5,1.53,1.48v2.99ZM139.58,102c-.13-.02-.28-.03-.53-.03-.95,0-1.33.45-1.33,1.05,0,.49.26.94.83.94.78,0,1.03-.55,1.03-1.67v-.29ZM141.59,99.2h.77v5.32h-.77v-5.32ZM141.6,97.05h.77v1.1h-.77v-1.1ZM143.65,104.52v-7.47h.77v7.47h-.77ZM151.02,97.05v6.11c0,.52,0,1.05.01,1.37h-.74c-.01-.14-.03-.49-.03-.72-.16.46-.5.81-1.25.81-1.11,0-1.58-.94-1.58-2.81,0-1.7.63-2.69,1.75-2.69.69,0,.96.29,1.08.55v-2.62h.77ZM148.22,101.82c0,1.54.35,2.12,1,2.12.83,0,1.05-.71,1.05-2.15,0-1.55-.22-1.99-.99-1.99-.63,0-1.06.56-1.06,2.02ZM152.78,102.01c0,1.04.18,1.95,1.02,1.95s.94-.79.97-.95h.75c-.01.14-.16,1.62-1.73,1.62s-1.79-1.44-1.79-2.76c0-1.68.58-2.75,1.83-2.75,1.4,0,1.73,1.15,1.73,2.48,0,.1,0,.28-.01.41h-2.77ZM154.8,101.4c0-.92-.19-1.63-.97-1.63-.97,0-1.02,1.27-1.04,1.63h2.01ZM154.8,101.4h0Z"/>
    <path class="cls-1" d="M36.55,111.2h.74c.01.14.02.39.02.95.23-.64.74-1.02,1.41-1.03v.85c-.92.03-1.39.6-1.39,1.58v2.97h-.77v-3.51c0-.85,0-1.43-.01-1.81ZM39.91,114.01c0,1.04.18,1.95,1.02,1.95s.94-.79.97-.95h.75c-.01.14-.16,1.62-1.73,1.62s-1.79-1.44-1.79-2.76c0-1.68.58-2.75,1.83-2.75,1.4,0,1.73,1.15,1.73,2.48,0,.1,0,.28-.01.41h-2.77ZM41.93,113.41c0-.92-.19-1.63-.97-1.63-.97,0-1.02,1.27-1.04,1.63h2.01ZM41.93,113.41h0ZM46.95,114.9c-.02.28-.14,1.72-1.69,1.72-1.39,0-1.77-1.23-1.77-2.77s.49-2.73,1.84-2.73c1.55,0,1.62,1.43,1.62,1.68h-.79c-.01-.22-.08-1.02-.84-1.02s-1.05.84-1.05,2.07c0,1.32.29,2.12,1.01,2.12.77,0,.86-.78.9-1.06h.76ZM48.64,109.05v2.8c.19-.43.6-.74,1.28-.74.78,0,1.34.49,1.34,1.63v3.78h-.77v-3.63c0-.65-.19-1.1-.84-1.1-.73,0-1,.6-1,1.53v3.2h-.77v-7.47h.77ZM53.02,114.01c0,1.04.18,1.95,1.02,1.95s.94-.79.97-.95h.75c-.01.14-.16,1.62-1.73,1.62s-1.79-1.44-1.79-2.76c0-1.68.58-2.75,1.83-2.75,1.4,0,1.73,1.15,1.73,2.48,0,.1,0,.28-.01.41h-2.77ZM55.04,113.41c0-.92-.19-1.63-.97-1.63-.97,0-1.02,1.27-1.04,1.63h2.01ZM55.04,113.41h0ZM56.78,111.2h.74c.01.14.02.39.02.95.23-.64.74-1.02,1.41-1.03v.85c-.92.03-1.39.6-1.39,1.58v2.97h-.77v-3.51c0-.85,0-1.43-.01-1.81ZM62.82,114.9c-.02.28-.14,1.72-1.69,1.72-1.39,0-1.77-1.23-1.77-2.77s.49-2.73,1.84-2.73c1.55,0,1.62,1.43,1.62,1.68h-.79c-.01-.22-.08-1.02-.84-1.02s-1.05.84-1.05,2.07c0,1.32.29,2.12,1.01,2.12.77,0,.86-.78.9-1.06h.76ZM64.51,109.05v2.8c.19-.43.6-.74,1.28-.74.78,0,1.34.49,1.34,1.63v3.78h-.77v-3.63c0-.65-.19-1.1-.84-1.1-.73,0-1,.6-1,1.53v3.2h-.77v-7.47h.77ZM68.89,114.01c0,1.04.18,1.95,1.02,1.95s.94-.79.97-.95h.75c-.01.14-.16,1.62-1.73,1.62s-1.79-1.44-1.79-2.76c0-1.68.58-2.75,1.83-2.75,1.4,0,1.73,1.15,1.73,2.48,0,.1,0,.28-.01.41h-2.77ZM70.91,113.41c0-.92-.19-1.63-.97-1.63-.97,0-1.02,1.27-1.04,1.63h2.01ZM70.91,113.41h0Z"/>
    <path class="cls-1" d="M26.57,123.89h.77v2.86c.17-.41.54-.8,1.27-.8,1.02,0,1.56.85,1.56,2.62,0,1.64-.44,2.88-1.7,2.88-.68,0-.98-.34-1.15-.71,0,.18-.01.42-.03.63h-.73c.01-.28.01-.81.01-1.46v-6.01ZM29.38,128.58c0-1.33-.31-1.95-.98-1.95-.82,0-1.09.73-1.09,2.08,0,1.28.21,2.06,1.02,2.06.71,0,1.05-.69,1.05-2.19ZM30.88,129.92h.78v1.44h-.78v-1.44Z"/>
    <path class="cls-1" d="M36.82,131.36h-.78s1.72-7.13,1.72-7.13h1.02l1.77,7.13h-.83l-.53-2.26h-1.85l-.52,2.26ZM37.54,122.51l1.16,1.24h-.82l-1.36-1.24h1.01ZM39.03,128.41c-.41-1.75-.68-2.87-.78-3.43h-.02c-.1.62-.39,1.9-.74,3.43h1.54ZM43.27,131.36v-7.47h.77v7.47h-.77ZM48.35,130.42c0,.33.03.77.04.94h-.7c-.03-.12-.05-.4-.05-.6-.2.43-.6.7-1.26.7-1.02,0-1.39-.8-1.39-1.54,0-.97.66-1.7,2.05-1.7.25,0,.4,0,.56.02v-.71c0-.42-.08-.94-.8-.94-.78,0-.83.56-.86.92h-.74c.02-.76.39-1.54,1.63-1.54,1.03,0,1.53.5,1.53,1.48v2.99ZM47.61,128.84c-.13-.02-.28-.03-.53-.03-.95,0-1.33.45-1.33,1.05,0,.49.26.94.83.94.78,0,1.03-.55,1.03-1.67v-.29ZM51.7,124.23h1.86c1.07,0,1.72.64,1.72,1.73,0,.96-.46,1.37-.88,1.52.54.19,1.11.69,1.11,1.79,0,1.28-.77,2.09-2.01,2.09h-1.8v-7.13ZM53.29,127.2c.9,0,1.22-.4,1.22-1.17,0-.71-.38-1.16-1.12-1.16h-.92v2.32h.82ZM52.47,130.72h.96c.84,0,1.29-.51,1.29-1.44s-.49-1.43-1.44-1.43h-.81v2.87ZM56.5,126.04h.77v5.32h-.77v-5.32ZM56.51,123.89h.77v1.1h-.77v-1.1ZM58.57,123.89h.77v2.86c.17-.41.54-.8,1.27-.8,1.02,0,1.56.85,1.56,2.62,0,1.64-.44,2.88-1.7,2.88-.68,0-.98-.34-1.15-.71,0,.18-.01.42-.03.63h-.73c.01-.28.01-.81.01-1.46v-6.01ZM61.38,128.58c0-1.33-.31-1.95-.98-1.95-.82,0-1.09.73-1.09,2.08,0,1.28.21,2.06,1.02,2.06.71,0,1.05-.69,1.05-2.19ZM63.14,131.36v-7.47h.77v7.47h-.77ZM65.17,126.04h.77v5.32h-.77v-5.32ZM65.18,123.89h.77v1.1h-.77v-1.1ZM70.61,128.64c0,1.87-.63,2.82-1.83,2.82s-1.83-.91-1.83-2.8.72-2.7,1.86-2.7,1.8.9,1.8,2.69ZM67.74,128.66c0,1.45.36,2.14,1.05,2.14s1.04-.7,1.04-2.14c0-1.36-.34-2.03-1.04-2.03s-1.05.6-1.05,2.04ZM70.97,126.04h.75v-1.42h.76v1.42h.93v.66h-.93v3.49c0,.37.08.59.48.59.13,0,.28,0,.38-.03v.59c-.18.07-.45.09-.63.09-.63,0-.99-.25-.99-1.09v-3.65h-.75v-.66ZM74.92,123.89v2.8c.19-.43.6-.74,1.28-.74.78,0,1.34.49,1.34,1.63v3.78h-.77v-3.63c0-.65-.19-1.1-.84-1.1-.73,0-1,.6-1,1.53v3.2h-.77v-7.47h.77ZM79.3,128.84c0,1.04.18,1.95,1.02,1.95s.94-.79.97-.95h.75c-.01.14-.16,1.62-1.73,1.62s-1.79-1.44-1.79-2.76c0-1.68.58-2.75,1.83-2.75,1.4,0,1.73,1.15,1.73,2.48,0,.1,0,.28-.01.41h-2.77ZM79.69,123.78l1.12,1.46h-.72l-1.32-1.46h.92ZM81.32,128.24c0-.92-.19-1.63-.97-1.63-.97,0-1.02,1.27-1.04,1.63h2.01ZM81.32,128.24h0ZM85.73,130.69c-.2.46-.56.77-1.25.77-1,0-1.59-.82-1.59-2.76,0-1.76.67-2.75,1.72-2.75.7,0,1,.34,1.11.67,0-.29.02-.48.03-.58h.74c-.01.38-.01.82-.01,1.58v5.7h-.75v-2.63ZM83.68,128.71c0,1.27.3,2.08,1.01,2.08.86,0,1.04-.75,1.04-2.11s-.11-2.05-.98-2.05c-.67,0-1.06.72-1.06,2.08ZM91.1,129.91c0,.67,0,1.2.01,1.46h-.73c-.02-.15-.04-.37-.04-.71-.19.53-.64.8-1.26.8s-1.33-.25-1.33-1.59v-3.83h.77v3.65c0,.68.19,1.1.8,1.1s1.01-.36,1.01-1.51v-3.23h.77v3.87ZM92.86,128.84c0,1.04.18,1.95,1.02,1.95s.94-.79.97-.95h.75c-.01.14-.16,1.62-1.73,1.62s-1.79-1.44-1.79-2.76c0-1.68.58-2.75,1.83-2.75,1.4,0,1.73,1.15,1.73,2.48,0,.1,0,.28-.01.41h-2.77ZM94.88,128.24c0-.92-.19-1.63-.97-1.63-.97,0-1.02,1.27-1.04,1.63h2.01ZM94.88,128.24h0Z"/>
    <path class="cls-1" d="M29.76,144.57c-.02.28-.14,1.72-1.69,1.72-1.39,0-1.77-1.23-1.77-2.77s.49-2.73,1.84-2.73c1.55,0,1.62,1.43,1.62,1.68h-.79c-.01-.22-.08-1.02-.84-1.02s-1.05.84-1.05,2.07c0,1.32.29,2.12,1.01,2.12.77,0,.86-.78.9-1.06h.76ZM30.61,144.76h.78v1.44h-.78v-1.44Z"/>
    <path class="cls-1" d="M36.82,146.2h-.78s1.72-7.13,1.72-7.13h1.02l1.77,7.13h-.83l-.53-2.26h-1.85l-.52,2.26ZM39.03,143.24c-.41-1.75-.68-2.87-.78-3.43h-.02c-.1.62-.39,1.9-.74,3.43h1.54ZM44.58,144.74c0,.67,0,1.2.01,1.46h-.73c-.02-.15-.04-.37-.04-.71-.19.53-.64.8-1.26.8s-1.33-.25-1.33-1.59v-3.83h.77v3.65c0,.68.19,1.1.8,1.1s1.01-.36,1.01-1.51v-3.23h.77v3.87ZM48.26,144.33c.06.73.41,1.32,1.19,1.32s1.12-.41,1.12-1.23c0-.75-.3-1.15-1.27-1.62-1.12-.53-1.61-1.03-1.61-2.06,0-.98.63-1.76,1.79-1.76,1.38,0,1.75.99,1.77,1.82h-.77c-.04-.35-.14-1.17-1.03-1.17-.69,0-.98.47-.98,1.04,0,.68.3,1,1.2,1.43,1.25.59,1.7,1.19,1.7,2.25,0,1.13-.64,1.95-1.95,1.95-1.43,0-1.9-.94-1.95-1.97h.79ZM52.95,143.68c0,1.04.18,1.95,1.02,1.95s.94-.79.97-.95h.75c-.01.14-.16,1.62-1.73,1.62s-1.79-1.44-1.79-2.76c0-1.68.58-2.75,1.83-2.75,1.4,0,1.73,1.15,1.73,2.48,0,.1,0,.28-.01.41h-2.77ZM54.97,143.08c0-.92-.19-1.63-.97-1.63-.97,0-1.02,1.27-1.04,1.63h2.01ZM54.97,143.08h0ZM56.7,140.88h.74c.01.14.02.39.02.95.23-.64.74-1.02,1.41-1.03v.85c-.92.03-1.39.6-1.39,1.58v2.97h-.77v-3.51c0-.85,0-1.43-.01-1.81ZM60.19,140.88c.44,1.73.97,3.81,1.07,4.46h.01c.07-.59.87-3.37,1.13-4.46h.77l-1.52,5.32h-.83l-1.45-5.32h.82ZM63.89,140.88h.77v5.32h-.77v-5.32ZM63.9,138.73h.77v1.1h-.77v-1.1ZM69.13,144.57c-.02.28-.14,1.72-1.69,1.72-1.39,0-1.77-1.23-1.77-2.77s.49-2.73,1.84-2.73c1.55,0,1.62,1.43,1.62,1.68h-.79c-.01-.22-.08-1.02-.84-1.02s-1.05.84-1.05,2.07c0,1.32.29,2.12,1.01,2.12.77,0,.86-.78.9-1.06h.76ZM70.61,143.68c0,1.04.18,1.95,1.02,1.95s.94-.79.97-.95h.75c-.01.14-.16,1.62-1.73,1.62s-1.79-1.44-1.79-2.76c0-1.68.58-2.75,1.83-2.75,1.4,0,1.73,1.15,1.73,2.48,0,.1,0,.28-.01.41h-2.77ZM72.63,143.08c0-.92-.19-1.63-.97-1.63-.97,0-1.02,1.27-1.04,1.63h2.01ZM72.63,143.08h0ZM76.38,140.88h.77v5.32h-.77v-5.32ZM76.38,138.73h.77v1.1h-.77v-1.1ZM78.4,140.88h.74c.01.13.03.34.03.7.18-.42.54-.79,1.26-.79.77,0,1.37.44,1.37,1.62v3.79h-.77v-3.64c0-.65-.21-1.09-.82-1.09-.72,0-1.02.47-1.02,1.56v3.17h-.77v-3.68c0-1.09,0-1.4-.01-1.65ZM83.15,146.2v-4.66h-.69v-.66h.69v-.73c0-.79.28-1.48,1.25-1.48.15,0,.33.02.43.06v.68c-.09-.02-.22-.05-.35-.05-.42,0-.57.26-.57.8v.72h.84v.66h-.84v4.66h-.77ZM88.74,143.48c0,1.87-.63,2.82-1.83,2.82s-1.83-.91-1.83-2.8.72-2.7,1.86-2.7,1.8.9,1.8,2.69ZM85.86,143.5c0,1.45.36,2.14,1.05,2.14s1.04-.7,1.04-2.14c0-1.36-.34-2.03-1.04-2.03s-1.05.6-1.05,2.04ZM89.72,140.88h.74c.01.14.02.39.02.95.23-.64.74-1.02,1.41-1.03v.85c-.92.03-1.39.6-1.39,1.58v2.97h-.77v-3.51c0-.85,0-1.43-.01-1.81ZM92.58,142.47c0-.95,0-1.35-.01-1.6h.74c.02.16.03.44.03.68.21-.46.59-.77,1.19-.77.56,0,.94.24,1.1.79.19-.43.6-.79,1.29-.79s1.29.32,1.29,1.55v3.86h-.76v-3.73c0-.54-.16-1-.75-1-.68,0-.91.6-.91,1.32v3.41h-.76v-3.71c0-.66-.22-1.02-.74-1.02-.64,0-.94.58-.94,1.39v3.34h-.76v-3.73ZM102.47,145.26c0,.33.03.77.04.94h-.7c-.03-.12-.05-.4-.05-.6-.2.43-.6.7-1.26.7-1.02,0-1.39-.8-1.39-1.54,0-.97.66-1.7,2.05-1.7.25,0,.4,0,.56.02v-.71c0-.42-.08-.94-.8-.94-.78,0-.83.56-.86.92h-.74c.02-.76.39-1.54,1.63-1.54,1.03,0,1.53.5,1.53,1.48v2.99ZM101.74,143.68c-.13-.02-.28-.03-.53-.03-.95,0-1.33.45-1.33,1.05,0,.49.26.94.83.94.78,0,1.03-.55,1.03-1.67v-.29ZM103.09,140.88h.75v-1.42h.76v1.42h.93v.66h-.93v3.49c0,.37.08.59.48.59.13,0,.28,0,.38-.03v.59c-.18.07-.45.09-.63.09-.63,0-.99-.25-.99-1.09v-3.65h-.75v-.66ZM106.29,140.88h.77v5.32h-.77v-5.32ZM106.3,138.73h.77v1.1h-.77v-1.1ZM110.9,145.53c-.2.46-.56.77-1.25.77-1,0-1.59-.82-1.59-2.76,0-1.76.67-2.75,1.72-2.75.7,0,1,.34,1.11.67,0-.29.02-.48.03-.58h.74c-.01.38-.01.82-.01,1.58v5.7h-.75v-2.63ZM108.86,143.55c0,1.27.3,2.08,1.01,2.08.86,0,1.04-.75,1.04-2.11s-.11-2.05-.98-2.05c-.67,0-1.06.72-1.06,2.08ZM116.28,144.74c0,.67,0,1.2.01,1.46h-.73c-.02-.15-.04-.37-.04-.71-.19.53-.64.8-1.26.8s-1.33-.25-1.33-1.59v-3.83h.77v3.65c0,.68.19,1.1.8,1.1s1.01-.36,1.01-1.51v-3.23h.77v3.87ZM118.04,143.68c0,1.04.18,1.95,1.02,1.95s.94-.79.97-.95h.75c-.01.14-.16,1.62-1.73,1.62s-1.79-1.44-1.79-2.76c0-1.68.58-2.75,1.83-2.75,1.4,0,1.73,1.15,1.73,2.48,0,.1,0,.28-.01.41h-2.77ZM120.06,143.08c0-.92-.19-1.63-.97-1.63-.97,0-1.02,1.27-1.04,1.63h2.01ZM120.06,143.08h0Z"/>
    <path class="cls-1" d="M29.89,153.56v6.11c0,.52,0,1.05.01,1.37h-.74c-.01-.14-.03-.49-.03-.72-.16.46-.5.81-1.25.81-1.11,0-1.58-.94-1.58-2.81,0-1.7.63-2.69,1.75-2.69.69,0,.96.29,1.08.55v-2.62h.77ZM27.09,158.33c0,1.54.35,2.12,1,2.12.83,0,1.05-.71,1.05-2.15,0-1.55-.22-1.99-.99-1.99-.63,0-1.06.56-1.06,2.02ZM30.9,159.6h.78v1.44h-.78v-1.44Z"/>
    <path class="cls-1" d="M37.42,153.91v7.13h-.78v-7.13h.78ZM38.76,161.04v-7.47h.77v7.47h-.77ZM42.79,155.71h.74c.01.13.03.34.03.7.18-.42.54-.79,1.26-.79.77,0,1.37.44,1.37,1.62v3.79h-.77v-3.64c0-.65-.21-1.09-.82-1.09-.72,0-1.02.47-1.02,1.56v3.17h-.77v-3.68c0-1.09,0-1.4-.01-1.65ZM47.96,158.52c0,1.04.18,1.95,1.02,1.95s.94-.79.97-.95h.75c-.01.14-.16,1.62-1.73,1.62s-1.79-1.44-1.79-2.76c0-1.68.58-2.75,1.83-2.75,1.4,0,1.73,1.15,1.73,2.48,0,.1,0,.28-.01.41h-2.77ZM49.98,157.91c0-.92-.19-1.63-.97-1.63-.97,0-1.02,1.27-1.04,1.63h2.01ZM49.98,157.91h0ZM53.82,161.04v-4.66h-.69v-.66h.69v-.73c0-.79.28-1.48,1.25-1.48.15,0,.33.02.43.06v.68c-.09-.02-.22-.05-.35-.05-.42,0-.57.26-.57.8v.72h.84v.66h-.84v4.66h-.77ZM59.08,160.1c0,.33.03.77.04.94h-.7c-.03-.12-.05-.4-.05-.6-.2.43-.6.7-1.26.7-1.02,0-1.39-.8-1.39-1.54,0-.97.66-1.7,2.05-1.7.25,0,.4,0,.56.02v-.71c0-.42-.08-.94-.8-.94-.78,0-.83.56-.86.92h-.74c.02-.76.39-1.54,1.63-1.54,1.03,0,1.53.5,1.53,1.48v2.99ZM58.34,158.51c-.13-.02-.28-.03-.53-.03-.95,0-1.33.45-1.33,1.05,0,.49.26.94.83.94.78,0,1.03-.55,1.03-1.67v-.29ZM63.65,159.58c0,.67,0,1.2.01,1.46h-.73c-.02-.15-.04-.37-.04-.71-.19.53-.64.8-1.26.8s-1.33-.25-1.33-1.59v-3.83h.77v3.65c0,.68.19,1.1.8,1.1s1.01-.36,1.01-1.51v-3.23h.77v3.87ZM64.36,155.71h.75v-1.42h.76v1.42h.93v.66h-.93v3.49c0,.37.08.59.48.59.13,0,.28,0,.38-.03v.59c-.18.07-.45.09-.63.09-.63,0-.99-.25-.99-1.09v-3.65h-.75v-.66ZM70.31,155.71v5.66c0,.97-.12,1.7-1.16,1.7-.1,0-.21,0-.33-.02v-.68c.1.01.19.01.24.01.41,0,.48-.25.48-.84v-5.83h.77ZM69.56,154.66v-1.1h.77v1.1h-.77ZM74.63,160.1c0,.33.03.77.04.94h-.7c-.03-.12-.05-.4-.05-.6-.2.43-.6.7-1.26.7-1.02,0-1.39-.8-1.39-1.54,0-.97.66-1.7,2.05-1.7.25,0,.4,0,.56.02v-.71c0-.42-.08-.94-.8-.94-.78,0-.83.56-.86.92h-.74c.02-.76.39-1.54,1.63-1.54,1.03,0,1.53.5,1.53,1.48v2.99ZM73.89,158.51c-.13-.02-.28-.03-.53-.03-.95,0-1.33.45-1.33,1.05,0,.49.26.94.83.94.78,0,1.03-.55,1.03-1.67v-.29ZM75.91,157.31c0-.95,0-1.35-.01-1.6h.74c.02.16.03.44.03.68.21-.46.59-.77,1.19-.77.56,0,.94.24,1.1.79.19-.43.6-.79,1.29-.79s1.29.32,1.29,1.55v3.86h-.76v-3.73c0-.54-.16-1-.75-1-.68,0-.91.6-.91,1.32v3.41h-.76v-3.71c0-.66-.22-1.02-.74-1.02-.64,0-.94.58-.94,1.39v3.34h-.76v-3.73ZM85.8,160.1c0,.33.03.77.04.94h-.7c-.03-.12-.05-.4-.05-.6-.2.43-.6.7-1.26.7-1.02,0-1.39-.8-1.39-1.54,0-.97.66-1.7,2.05-1.7.25,0,.4,0,.56.02v-.71c0-.42-.08-.94-.8-.94-.78,0-.83.56-.86.92h-.74c.02-.76.39-1.54,1.63-1.54,1.03,0,1.53.5,1.53,1.48v2.99ZM85.06,158.51c-.13-.02-.28-.03-.53-.03-.95,0-1.33.45-1.33,1.05,0,.49.26.94.83.94.78,0,1.03-.55,1.03-1.67v-.29ZM87.08,155.71h.77v5.32h-.77v-5.32ZM87.08,153.56h.77v1.1h-.77v-1.1ZM90.42,160.5c.58,0,.86-.35.86-.84,0-.55-.28-.8-.98-1.08-1.1-.42-1.42-.82-1.42-1.56s.44-1.41,1.52-1.41c1.19,0,1.53.81,1.54,1.52h-.75c-.01-.25-.07-.89-.81-.89-.5,0-.73.31-.73.73s.19.64.92.92c1.03.4,1.48.77,1.48,1.69,0,.97-.61,1.54-1.67,1.54s-1.64-.66-1.67-1.63h.76c.03.57.33,1,.94,1ZM95.77,160.49v2.5h-.77v-5.73c0-.73,0-1.22-.01-1.55h.74c.01.1.03.45.03.72.19-.46.56-.8,1.27-.8,1.01,0,1.56.89,1.56,2.68,0,1.92-.67,2.83-1.71,2.83-.64,0-.96-.3-1.11-.64ZM97.8,158.34c0-1.34-.31-2.03-1.01-2.03-.83,0-1.05.79-1.05,2.04s.12,2.11,1,2.11c.7,0,1.05-.81,1.05-2.12ZM102.66,160.1c0,.33.03.77.04.94h-.7c-.03-.12-.05-.4-.05-.6-.2.43-.6.7-1.26.7-1.02,0-1.39-.8-1.39-1.54,0-.97.66-1.7,2.05-1.7.25,0,.4,0,.56.02v-.71c0-.42-.08-.94-.8-.94-.78,0-.83.56-.86.92h-.74c.02-.76.39-1.54,1.63-1.54,1.03,0,1.53.5,1.53,1.48v2.99ZM101.93,158.51c-.13-.02-.28-.03-.53-.03-.95,0-1.33.45-1.33,1.05,0,.49.26.94.83.94.78,0,1.03-.55,1.03-1.67v-.29ZM105.2,160.11h.01c.11-.61.58-2.44,1.09-4.39h.8l-1.56,5.59c-.43,1.56-.85,1.77-1.6,1.77-.11,0-.28-.01-.38-.04v-.68c.07.02.23.03.35.03.56,0,.71-.38.93-1.24l-1.56-5.43h.84c.57,2.23,1.02,3.82,1.09,4.39ZM108.32,158.52c0,1.04.18,1.95,1.02,1.95s.94-.79.97-.95h.75c-.01.14-.16,1.62-1.73,1.62s-1.79-1.44-1.79-2.76c0-1.68.58-2.75,1.83-2.75,1.4,0,1.73,1.15,1.73,2.48,0,.1,0,.28-.01.41h-2.77ZM110.34,157.91c0-.92-.19-1.63-.97-1.63-.97,0-1.02,1.27-1.04,1.63h2.01ZM110.34,157.91h0ZM112.08,155.71h.74c.01.14.02.39.02.95.23-.64.74-1.02,1.41-1.03v.85c-.92.03-1.39.6-1.39,1.58v2.97h-.77v-3.51c0-.85,0-1.43-.01-1.81ZM117.76,160.49v2.5h-.77v-5.73c0-.73,0-1.22-.01-1.55h.74c.01.1.03.45.03.72.19-.46.56-.8,1.27-.8,1.01,0,1.56.89,1.56,2.68,0,1.92-.67,2.83-1.71,2.83-.64,0-.96-.3-1.11-.64ZM119.79,158.34c0-1.34-.31-2.03-1.01-2.03-.83,0-1.05.79-1.05,2.04s.12,2.11,1,2.11c.7,0,1.05-.81,1.05-2.12ZM125,158.31c0,1.87-.63,2.82-1.83,2.82s-1.83-.91-1.83-2.8.72-2.7,1.86-2.7,1.8.9,1.8,2.69ZM122.13,158.33c0,1.45.36,2.14,1.05,2.14s1.04-.7,1.04-2.14c0-1.36-.34-2.03-1.04-2.03s-1.05.6-1.05,2.04ZM129.35,159.58c0,.67,0,1.2.01,1.46h-.73c-.02-.15-.04-.37-.04-.71-.19.53-.64.8-1.26.8s-1.33-.25-1.33-1.59v-3.83h.77v3.65c0,.68.19,1.1.8,1.1s1.01-.36,1.01-1.51v-3.23h.77v3.87ZM130.54,155.71h.74c.01.14.02.39.02.95.23-.64.74-1.02,1.41-1.03v.85c-.92.03-1.39.6-1.39,1.58v2.97h-.77v-3.51c0-.85,0-1.43-.01-1.81ZM138.8,159.58c0,.67,0,1.2.01,1.46h-.73c-.02-.15-.04-.37-.04-.71-.19.53-.64.8-1.26.8s-1.33-.25-1.33-1.59v-3.83h.77v3.65c0,.68.19,1.1.8,1.1s1.01-.36,1.01-1.51v-3.23h.77v3.87ZM139.99,155.71h.74c.01.13.03.34.03.7.18-.42.54-.79,1.26-.79.77,0,1.37.44,1.37,1.62v3.79h-.77v-3.64c0-.65-.21-1.09-.82-1.09-.72,0-1.02.47-1.02,1.56v3.17h-.77v-3.68c0-1.09,0-1.4-.01-1.65Z"/>
    <path class="cls-1" d="M39.65,172.1c0,.33.03.77.04.94h-.7c-.03-.12-.05-.4-.05-.6-.2.43-.6.7-1.26.7-1.02,0-1.39-.8-1.39-1.54,0-.97.66-1.7,2.05-1.7.25,0,.4,0,.56.02v-.71c0-.42-.08-.94-.8-.94-.78,0-.83.56-.86.92h-.74c.02-.76.39-1.54,1.63-1.54,1.03,0,1.53.5,1.53,1.48v2.99ZM38.92,170.52c-.13-.02-.28-.03-.53-.03-.95,0-1.33.45-1.33,1.05,0,.49.26.94.83.94.78,0,1.03-.55,1.03-1.67v-.29ZM40.92,167.71h.74c.01.14.02.39.02.95.23-.64.74-1.02,1.41-1.03v.85c-.92.03-1.39.6-1.39,1.58v2.97h-.77v-3.51c0-.85,0-1.43-.01-1.81ZM43.53,167.71h.75v-1.42h.76v1.42h.93v.66h-.93v3.49c0,.37.08.59.48.59.13,0,.28,0,.38-.03v.59c-.18.07-.45.09-.63.09-.63,0-.99-.25-.99-1.09v-3.65h-.75v-.66ZM46.73,167.71h.77v5.32h-.77v-5.32ZM46.73,165.56h.77v1.1h-.77v-1.1ZM51.96,171.41c-.02.28-.14,1.72-1.69,1.72-1.39,0-1.77-1.23-1.77-2.77s.49-2.73,1.84-2.73c1.55,0,1.62,1.43,1.62,1.68h-.79c-.01-.22-.08-1.02-.84-1.02s-1.05.84-1.05,2.07c0,1.32.29,2.12,1.01,2.12.77,0,.86-.78.9-1.06h.76ZM52.87,173.04v-7.47h.77v7.47h-.77ZM55.42,170.52c0,1.04.18,1.95,1.02,1.95s.94-.79.97-.95h.75c-.01.14-.16,1.62-1.73,1.62s-1.79-1.44-1.79-2.76c0-1.68.58-2.75,1.83-2.75,1.4,0,1.73,1.15,1.73,2.48,0,.1,0,.28-.01.41h-2.77ZM57.44,169.92c0-.92-.19-1.63-.97-1.63-.97,0-1.02,1.27-1.04,1.63h2.01ZM57.44,169.92h0ZM61.7,170.52c0,1.04.18,1.95,1.02,1.95s.94-.79.97-.95h.75c-.01.14-.16,1.62-1.73,1.62s-1.79-1.44-1.79-2.76c0-1.68.58-2.75,1.83-2.75,1.4,0,1.73,1.15,1.73,2.48,0,.1,0,.28-.01.41h-2.77ZM63.72,169.92c0-.92-.19-1.63-.97-1.63-.97,0-1.02,1.27-1.04,1.63h2.01ZM63.72,169.92h0ZM65.45,167.71h.74c.01.13.03.34.03.7.18-.42.54-.79,1.26-.79.77,0,1.37.44,1.37,1.62v3.79h-.77v-3.64c0-.65-.21-1.09-.82-1.09-.72,0-1.02.47-1.02,1.56v3.17h-.77v-3.68c0-1.09,0-1.4-.01-1.65ZM72.06,173.04v-7.47h.77v7.47h-.77ZM74.1,167.71h.77v5.32h-.77v-5.32ZM74.1,165.56h.77v1.1h-.77v-1.1ZM79.47,172.7c0,1.4-.34,2.38-1.86,2.38-1.38,0-1.67-.89-1.7-1.47h.78c.02.29.19.81.95.81.89,0,1.08-.65,1.08-1.73v-.49c-.19.54-.64.81-1.24.81-1.07,0-1.6-.91-1.6-2.58,0-1.92.71-2.81,1.72-2.81.72,0,1.03.35,1.12.7,0-.24.02-.5.04-.61h.74c-.01.28-.01.82-.01,1.54v3.45ZM76.66,170.42c0,1.29.35,1.92,1.02,1.92.83,0,1.05-.81,1.05-2.05s-.17-1.99-.98-1.99c-.71,0-1.08.73-1.08,2.12ZM80.74,167.71h.74c.01.13.03.34.03.7.18-.42.54-.79,1.26-.79.77,0,1.37.44,1.37,1.62v3.79h-.77v-3.64c0-.65-.21-1.09-.82-1.09-.72,0-1.02.47-1.02,1.56v3.17h-.77v-3.68c0-1.09,0-1.4-.01-1.65ZM85.91,170.52c0,1.04.18,1.95,1.02,1.95s.94-.79.97-.95h.75c-.01.14-.16,1.62-1.73,1.62s-1.79-1.44-1.79-2.76c0-1.68.58-2.75,1.83-2.75,1.4,0,1.73,1.15,1.73,2.48,0,.1,0,.28-.01.41h-2.77ZM87.93,169.92c0-.92-.19-1.63-.97-1.63-.97,0-1.02,1.27-1.04,1.63h2.01ZM87.93,169.92h0ZM89.06,174.23c.32-.83.53-1.77.58-2.53h.74c-.07.97-.37,1.98-.69,2.53h-.63ZM96.44,171.41c-.02.28-.14,1.72-1.69,1.72-1.39,0-1.77-1.23-1.77-2.77s.49-2.73,1.84-2.73c1.55,0,1.62,1.43,1.62,1.68h-.79c-.01-.22-.08-1.02-.84-1.02s-1.05.84-1.05,2.07c0,1.32.29,2.12,1.01,2.12.77,0,.86-.78.9-1.06h.76ZM100.46,172.1c0,.33.03.77.04.94h-.7c-.03-.12-.05-.4-.05-.6-.2.43-.6.7-1.26.7-1.02,0-1.39-.8-1.39-1.54,0-.97.66-1.7,2.05-1.7.25,0,.4,0,.56.02v-.71c0-.42-.08-.94-.8-.94-.78,0-.83.56-.86.92h-.74c.02-.76.39-1.54,1.63-1.54,1.03,0,1.53.5,1.53,1.48v2.99ZM99.72,170.52c-.13-.02-.28-.03-.53-.03-.95,0-1.33.45-1.33,1.05,0,.49.26.94.83.94.78,0,1.03-.55,1.03-1.67v-.29ZM101.72,167.71h.74c.01.14.02.39.02.95.23-.64.74-1.02,1.41-1.03v.85c-.92.03-1.39.6-1.39,1.58v2.97h-.77v-3.51c0-.85,0-1.43-.01-1.81ZM109.73,172.1c0,.33.03.77.04.94h-.7c-.03-.12-.05-.4-.05-.6-.2.43-.6.7-1.26.7-1.02,0-1.39-.8-1.39-1.54,0-.97.66-1.7,2.05-1.7.25,0,.4,0,.56.02v-.71c0-.42-.08-.94-.8-.94-.78,0-.83.56-.86.92h-.74c.02-.76.39-1.54,1.63-1.54,1.03,0,1.53.5,1.53,1.48v2.99ZM108.99,170.52c-.13-.02-.28-.03-.53-.03-.95,0-1.33.45-1.33,1.05,0,.49.26.94.83.94.78,0,1.03-.55,1.03-1.67v-.29ZM114.3,171.58c0,.67,0,1.2.01,1.46h-.73c-.02-.15-.04-.37-.04-.71-.19.53-.64.8-1.26.8s-1.33-.25-1.33-1.59v-3.83h.77v3.65c0,.68.19,1.1.8,1.1s1.01-.36,1.01-1.51v-3.23h.77v3.87ZM118.75,171.41c-.02.28-.14,1.72-1.69,1.72-1.39,0-1.77-1.23-1.77-2.77s.49-2.73,1.84-2.73c1.55,0,1.62,1.43,1.62,1.68h-.79c-.01-.22-.08-1.02-.84-1.02s-1.05.84-1.05,2.07c0,1.32.29,2.12,1.01,2.12.77,0,.86-.78.9-1.06h.76ZM122.99,171.58c0,.67,0,1.2.01,1.46h-.73c-.02-.15-.04-.37-.04-.71-.19.53-.64.8-1.26.8s-1.33-.25-1.33-1.59v-3.83h.77v3.65c0,.68.19,1.1.8,1.1s1.01-.36,1.01-1.51v-3.23h.77v3.87ZM124.17,167.71h.74c.01.13.03.34.03.7.18-.42.54-.79,1.26-.79.77,0,1.37.44,1.37,1.62v3.79h-.77v-3.64c0-.65-.21-1.09-.82-1.09-.72,0-1.02.47-1.02,1.56v3.17h-.77v-3.68c0-1.09,0-1.4-.01-1.65Z"/>
    <path class="cls-1" d="M36.55,179.72h.74c.01.14.02.39.02.95.23-.64.74-1.02,1.41-1.03v.85c-.92.03-1.39.6-1.39,1.58v2.97h-.77v-3.51c0-.85,0-1.43-.01-1.81ZM39.91,182.52c0,1.04.18,1.95,1.02,1.95s.94-.79.97-.95h.75c-.01.14-.16,1.62-1.73,1.62s-1.79-1.44-1.79-2.76c0-1.68.58-2.75,1.83-2.75,1.4,0,1.73,1.15,1.73,2.48,0,.1,0,.28-.01.41h-2.77ZM41.93,181.92c0-.92-.19-1.63-.97-1.63-.97,0-1.02,1.27-1.04,1.63h2.01ZM41.93,181.92h0ZM43.68,181.31c0-.95,0-1.35-.01-1.6h.74c.02.16.03.44.03.68.21-.46.59-.77,1.19-.77.56,0,.94.24,1.1.79.19-.43.6-.79,1.29-.79s1.29.32,1.29,1.55v3.86h-.76v-3.73c0-.54-.16-1-.75-1-.68,0-.91.6-.91,1.32v3.41h-.76v-3.71c0-.66-.22-1.02-.74-1.02-.64,0-.94.58-.94,1.39v3.34h-.76v-3.73ZM50.57,177.57h.77v2.86c.17-.41.54-.8,1.27-.8,1.02,0,1.56.85,1.56,2.62,0,1.64-.44,2.88-1.7,2.88-.68,0-.98-.34-1.15-.71,0,.18-.01.42-.03.63h-.73c.01-.28.01-.81.01-1.46v-6.01ZM53.38,182.26c0-1.33-.31-1.95-.98-1.95-.82,0-1.09.73-1.09,2.08,0,1.28.21,2.06,1.02,2.06.71,0,1.05-.69,1.05-2.19ZM58.56,182.31c0,1.87-.63,2.82-1.83,2.82s-1.83-.91-1.83-2.8.72-2.7,1.86-2.7,1.8.9,1.8,2.69ZM55.68,182.34c0,1.45.36,2.14,1.05,2.14s1.04-.7,1.04-2.14c0-1.36-.34-2.03-1.04-2.03s-1.05.6-1.05,2.04ZM62.91,183.58c0,.67,0,1.2.01,1.46h-.73c-.02-.15-.04-.37-.04-.71-.19.53-.64.8-1.26.8s-1.33-.25-1.33-1.59v-3.83h.77v3.65c0,.68.19,1.1.8,1.1s1.01-.36,1.01-1.51v-3.23h.77v3.87ZM64.09,179.72h.74c.01.14.02.39.02.95.23-.64.74-1.02,1.41-1.03v.85c-.92.03-1.39.6-1.39,1.58v2.97h-.77v-3.51c0-.85,0-1.43-.01-1.81ZM68.37,184.5c.58,0,.86-.35.86-.84,0-.55-.28-.8-.98-1.08-1.1-.42-1.42-.82-1.42-1.56s.44-1.41,1.52-1.41c1.19,0,1.53.81,1.54,1.52h-.75c-.01-.25-.07-.89-.81-.89-.5,0-.73.31-.73.73s.19.64.92.92c1.03.4,1.48.77,1.48,1.69,0,.97-.61,1.54-1.67,1.54s-1.64-.66-1.67-1.63h.76c.03.57.33,1,.94,1ZM71.47,182.52c0,1.04.18,1.95,1.02,1.95s.94-.79.97-.95h.75c-.01.14-.16,1.62-1.73,1.62s-1.79-1.44-1.79-2.76c0-1.68.58-2.75,1.83-2.75,1.4,0,1.73,1.15,1.73,2.48,0,.1,0,.28-.01.41h-2.77ZM73.49,181.92c0-.92-.19-1.63-.97-1.63-.97,0-1.02,1.27-1.04,1.63h2.01ZM73.49,181.92h0ZM75.24,181.31c0-.95,0-1.35-.01-1.6h.74c.02.16.03.44.03.68.21-.46.59-.77,1.19-.77.56,0,.94.24,1.1.79.19-.43.6-.79,1.29-.79s1.29.32,1.29,1.55v3.86h-.76v-3.73c0-.54-.16-1-.75-1-.68,0-.91.6-.91,1.32v3.41h-.76v-3.71c0-.66-.22-1.02-.74-1.02-.64,0-.94.58-.94,1.39v3.34h-.76v-3.73ZM82.63,182.52c0,1.04.18,1.95,1.02,1.95s.94-.79.97-.95h.75c-.01.14-.16,1.62-1.73,1.62s-1.79-1.44-1.79-2.76c0-1.68.58-2.75,1.83-2.75,1.4,0,1.73,1.15,1.73,2.48,0,.1,0,.28-.01.41h-2.77ZM84.65,181.92c0-.92-.19-1.63-.97-1.63-.97,0-1.02,1.27-1.04,1.63h2.01ZM84.65,181.92h0ZM86.39,179.72h.74c.01.13.03.34.03.7.18-.42.54-.79,1.26-.79.77,0,1.37.44,1.37,1.62v3.79h-.77v-3.64c0-.65-.21-1.09-.82-1.09-.72,0-1.02.47-1.02,1.56v3.17h-.77v-3.68c0-1.09,0-1.4-.01-1.65ZM90.39,179.72h.75v-1.42h.76v1.42h.93v.66h-.93v3.49c0,.37.08.59.48.59.13,0,.28,0,.38-.03v.59c-.18.07-.45.09-.63.09-.63,0-.99-.25-.99-1.09v-3.65h-.75v-.66ZM95.55,179.72h.74c.01.13.03.34.03.7.18-.42.54-.79,1.26-.79.77,0,1.37.44,1.37,1.62v3.79h-.77v-3.64c0-.65-.21-1.09-.82-1.09-.72,0-1.02.47-1.02,1.56v3.17h-.77v-3.68c0-1.09,0-1.4-.01-1.65ZM99.67,179.96c.19-.73.36-1.6.36-2.43h.74c-.01.9-.28,1.98-.49,2.43h-.62ZM101.64,182.52c0,1.04.18,1.95,1.02,1.95s.94-.79.97-.95h.75c-.01.14-.16,1.62-1.73,1.62s-1.79-1.44-1.79-2.76c0-1.68.58-2.75,1.83-2.75,1.4,0,1.73,1.15,1.73,2.48,0,.1,0,.28-.01.41h-2.77ZM103.66,181.92c0-.92-.19-1.63-.97-1.63-.97,0-1.02,1.27-1.04,1.63h2.01ZM103.66,181.92h0ZM106.78,184.5c.58,0,.86-.35.86-.84,0-.55-.28-.8-.98-1.08-1.1-.42-1.42-.82-1.42-1.56s.44-1.41,1.52-1.41c1.19,0,1.53.81,1.54,1.52h-.75c-.01-.25-.07-.89-.81-.89-.5,0-.73.31-.73.73s.19.64.92.92c1.03.4,1.48.77,1.48,1.69,0,.97-.61,1.54-1.67,1.54s-1.64-.66-1.67-1.63h.76c.03.57.33,1,.94,1ZM108.78,179.72h.75v-1.42h.76v1.42h.93v.66h-.93v3.49c0,.37.08.59.48.59.13,0,.28,0,.38-.03v.59c-.18.07-.45.09-.63.09-.63,0-.99-.25-.99-1.09v-3.65h-.75v-.66ZM114.73,184.49v2.5h-.77v-5.73c0-.73,0-1.22-.01-1.55h.74c.01.1.03.45.03.72.19-.46.56-.8,1.27-.8,1.01,0,1.56.89,1.56,2.68,0,1.92-.67,2.83-1.71,2.83-.64,0-.96-.3-1.11-.64ZM116.76,182.34c0-1.34-.31-2.03-1.01-2.03-.83,0-1.05.79-1.05,2.04s.12,2.11,1,2.11c.7,0,1.05-.81,1.05-2.12ZM121.97,182.31c0,1.87-.63,2.82-1.83,2.82s-1.83-.91-1.83-2.8.72-2.7,1.86-2.7,1.8.9,1.8,2.69ZM119.09,182.34c0,1.45.36,2.14,1.05,2.14s1.04-.7,1.04-2.14c0-1.36-.34-2.03-1.04-2.03s-1.05.6-1.05,2.04ZM124.34,184.5c.58,0,.86-.35.86-.84,0-.55-.28-.8-.98-1.08-1.1-.42-1.42-.82-1.42-1.56s.44-1.41,1.52-1.41c1.19,0,1.53.81,1.54,1.52h-.75c-.01-.25-.07-.89-.81-.89-.5,0-.73.31-.73.73s.19.64.92.92c1.03.4,1.48.77,1.48,1.69,0,.97-.61,1.54-1.67,1.54s-1.64-.66-1.67-1.63h.76c.03.57.33,1,.94,1ZM128.29,184.5c.58,0,.86-.35.86-.84,0-.55-.28-.8-.98-1.08-1.1-.42-1.42-.82-1.42-1.56s.44-1.41,1.52-1.41c1.19,0,1.53.81,1.54,1.52h-.75c-.01-.25-.07-.89-.81-.89-.5,0-.73.31-.73.73s.19.64.92.92c1.03.4,1.48.77,1.48,1.69,0,.97-.61,1.54-1.67,1.54s-1.64-.66-1.67-1.63h.76c.03.57.33,1,.94,1ZM130.85,179.72h.77v5.32h-.77v-5.32ZM130.86,177.57h.77v1.1h-.77v-1.1ZM132.92,177.57h.77v2.86c.17-.41.54-.8,1.27-.8,1.02,0,1.56.85,1.56,2.62,0,1.64-.44,2.88-1.7,2.88-.68,0-.98-.34-1.15-.71,0,.18-.01.42-.03.63h-.73c.01-.28.01-.81.01-1.46v-6.01ZM135.73,182.26c0-1.33-.31-1.95-.98-1.95-.82,0-1.09.73-1.09,2.08,0,1.28.21,2.06,1.02,2.06.71,0,1.05-.69,1.05-2.19ZM137.49,185.04v-7.47h.77v7.47h-.77ZM140.03,182.52c0,1.04.18,1.95,1.02,1.95s.94-.79.97-.95h.75c-.01.14-.16,1.62-1.73,1.62s-1.79-1.44-1.79-2.76c0-1.68.58-2.75,1.83-2.75,1.4,0,1.73,1.15,1.73,2.48,0,.1,0,.28-.01.41h-2.77ZM142.05,181.92c0-.92-.19-1.63-.97-1.63-.97,0-1.02,1.27-1.04,1.63h2.01ZM142.05,181.92h0Z"/>
    <path class="cls-1" d="M27.42,209.14v3.28h-.78v-7.13h1.86c1.2,0,1.82.68,1.82,1.84,0,1.07-.52,1.52-.95,1.67.66.24.87.82.87,1.82v.28c0,.66.02,1.14.1,1.52h-.78c-.1-.33-.11-.96-.11-1.54v-.24c0-1.02-.21-1.5-1.17-1.5h-.87ZM27.42,208.47h.91c.87,0,1.2-.49,1.2-1.32,0-.72-.33-1.2-1.12-1.2h-.99v2.52ZM31.99,209.9c0,1.04.18,1.95,1.02,1.95s.94-.79.97-.95h.75c-.01.14-.16,1.62-1.73,1.62s-1.79-1.44-1.79-2.76c0-1.68.58-2.75,1.83-2.75,1.4,0,1.73,1.15,1.73,2.48,0,.1,0,.28-.01.41h-2.77ZM34.01,209.3c0-.92-.19-1.63-.97-1.63-.97,0-1.02,1.27-1.04,1.63h2.01ZM34.51,204.83l-1.32,1.46h-.72l1.12-1.46h.91ZM34.01,209.3h0ZM36.52,211.88v2.5h-.77v-5.73c0-.73,0-1.22-.01-1.55h.74c.01.1.03.45.03.72.19-.46.56-.8,1.27-.8,1.01,0,1.56.89,1.56,2.68,0,1.92-.67,2.83-1.71,2.83-.64,0-.96-.3-1.11-.64ZM38.55,209.72c0-1.34-.31-2.03-1.01-2.03-.83,0-1.05.79-1.05,2.04s.12,2.11,1,2.11c.7,0,1.05-.81,1.05-2.12ZM43.77,209.7c0,1.87-.63,2.82-1.83,2.82s-1.83-.91-1.83-2.8.72-2.7,1.86-2.7,1.8.9,1.8,2.69ZM40.89,209.72c0,1.45.36,2.14,1.05,2.14s1.04-.7,1.04-2.14c0-1.36-.34-2.03-1.04-2.03s-1.05.6-1.05,2.04ZM44.75,207.1h.74c.01.13.03.34.03.7.18-.42.54-.79,1.26-.79.77,0,1.37.44,1.37,1.62v3.79h-.77v-3.64c0-.65-.21-1.09-.82-1.09-.72,0-1.02.47-1.02,1.56v3.17h-.77v-3.68c0-1.09,0-1.4-.01-1.65ZM50.73,211.89c.58,0,.86-.35.86-.84,0-.55-.28-.8-.98-1.08-1.1-.42-1.42-.82-1.42-1.56s.44-1.41,1.52-1.41c1.19,0,1.53.81,1.54,1.52h-.75c-.01-.25-.07-.89-.81-.89-.5,0-.73.31-.73.73s.19.64.92.92c1.03.4,1.48.77,1.48,1.69,0,.97-.61,1.54-1.67,1.54s-1.64-.66-1.67-1.63h.76c.03.57.33,1,.94,1ZM53.83,209.9c0,1.04.18,1.95,1.02,1.95s.94-.79.97-.95h.75c-.01.14-.16,1.62-1.73,1.62s-1.79-1.44-1.79-2.76c0-1.68.58-2.75,1.83-2.75,1.4,0,1.73,1.15,1.73,2.48,0,.1,0,.28-.01.41h-2.77ZM55.85,209.3c0-.92-.19-1.63-.97-1.63-.97,0-1.02,1.27-1.04,1.63h2.01ZM55.85,209.3h0ZM59.65,208.69v-1.44h.74v1.44h-.74ZM59.65,210.98h.74v1.44h-.74v-1.44ZM67.04,204.95v6.11c0,.52,0,1.05.01,1.37h-.74c-.01-.14-.03-.49-.03-.72-.16.46-.5.81-1.25.81-1.11,0-1.58-.94-1.58-2.81,0-1.7.63-2.69,1.75-2.69.69,0,.96.29,1.08.55v-2.62h.77ZM64.24,209.71c0,1.54.35,2.12,1,2.12.83,0,1.05-.71,1.05-2.15,0-1.55-.22-1.99-.99-1.99-.63,0-1.06.56-1.06,2.02ZM68.05,210.98h.78v1.44h-.78v-1.44Z"/>
    <path class="cls-1" d="M27.42,226.67v2.73h2.64l-.11.69h-3.31v-7.13h3.27v.7h-2.5v2.31h2.38v.7h-2.38ZM30.81,224.77h.74c.01.13.03.34.03.7.18-.42.54-.79,1.26-.79.77,0,1.37.44,1.37,1.62v3.79h-.77v-3.64c0-.65-.21-1.09-.82-1.09-.72,0-1.02.47-1.02,1.56v3.17h-.77v-3.68c0-1.09,0-1.4-.01-1.65ZM40.62,228.47c-.02.28-.14,1.72-1.69,1.72-1.39,0-1.77-1.23-1.77-2.77s.49-2.73,1.84-2.73c1.55,0,1.62,1.43,1.62,1.68h-.79c-.01-.22-.08-1.02-.84-1.02s-1.05.84-1.05,2.07c0,1.32.29,2.12,1.01,2.12.77,0,.86-.78.9-1.06h.76ZM44.64,229.15c0,.33.03.77.04.94h-.7c-.03-.12-.05-.4-.05-.6-.2.43-.6.7-1.26.7-1.02,0-1.39-.8-1.39-1.54,0-.97.66-1.7,2.05-1.7.25,0,.4,0,.56.02v-.71c0-.42-.08-.94-.8-.94-.78,0-.83.56-.86.92h-.74c.02-.76.39-1.54,1.63-1.54,1.03,0,1.53.5,1.53,1.48v2.99ZM43.91,227.57c-.13-.02-.28-.03-.53-.03-.95,0-1.33.45-1.33,1.05,0,.49.26.94.83.94.78,0,1.03-.55,1.03-1.67v-.29ZM47.17,229.56c.58,0,.86-.35.86-.84,0-.55-.28-.8-.98-1.08-1.1-.42-1.42-.82-1.42-1.56s.44-1.41,1.52-1.41c1.19,0,1.53.81,1.54,1.52h-.75c-.01-.25-.07-.89-.81-.89-.5,0-.73.31-.73.73s.19.64.92.92c1.03.4,1.48.77,1.48,1.69,0,.97-.61,1.54-1.67,1.54s-1.64-.66-1.67-1.63h.76c.03.57.33,1,.94,1ZM55.08,222.62v6.11c0,.52,0,1.05.01,1.37h-.74c-.01-.14-.03-.49-.03-.72-.16.46-.5.81-1.25.81-1.11,0-1.58-.94-1.58-2.81,0-1.7.63-2.69,1.75-2.69.69,0,.96.29,1.08.55v-2.62h.77ZM52.28,227.38c0,1.54.35,2.12,1,2.12.83,0,1.05-.71,1.05-2.15,0-1.55-.22-1.99-.99-1.99-.63,0-1.06.56-1.06,2.02ZM56.84,227.58c0,1.04.18,1.95,1.02,1.95s.94-.79.97-.95h.75c-.01.14-.16,1.62-1.73,1.62s-1.79-1.44-1.79-2.76c0-1.68.58-2.75,1.83-2.75,1.4,0,1.73,1.15,1.73,2.48,0,.1,0,.28-.01.41h-2.77ZM58.86,226.97c0-.92-.19-1.63-.97-1.63-.97,0-1.02,1.27-1.04,1.63h2.01ZM58.86,226.97h0ZM65.94,222.62v6.11c0,.52,0,1.05.01,1.37h-.74c-.01-.14-.03-.49-.03-.72-.16.46-.5.81-1.25.81-1.11,0-1.58-.94-1.58-2.81,0-1.7.63-2.69,1.75-2.69.69,0,.96.29,1.08.55v-2.62h.77ZM63.14,227.38c0,1.54.35,2.12,1,2.12.83,0,1.05-.71,1.05-2.15,0-1.55-.22-1.99-.99-1.99-.63,0-1.06.56-1.06,2.02ZM67.19,224.77h.77v5.32h-.77v-5.32ZM67.2,222.62h.77v1.1h-.77v-1.1ZM70.15,225.43v4.66h-.77v-4.66h-.69v-.66h.69v-.74c0-.78.24-1.47,1.21-1.47.14,0,.33.02.43.06l-.04.67c-.09-.02-.19-.03-.31-.03-.45,0-.54.29-.54.8v.72h1.4v-.71c0-.78.24-1.52,1.22-1.52.14,0,.33.02.43.06l-.04.66c-.09-.02-.21-.03-.31-.03-.43,0-.54.31-.54.84v.69h.84v.66h-.84v4.66h-.77v-4.66h-1.4ZM73.83,224.77h.77v5.32h-.77v-5.32ZM73.83,222.62h.77v1.1h-.77v-1.1ZM79.06,228.47c-.02.28-.14,1.72-1.69,1.72-1.39,0-1.77-1.23-1.77-2.77s.49-2.73,1.84-2.73c1.55,0,1.62,1.43,1.62,1.68h-.79c-.01-.22-.08-1.02-.84-1.02s-1.05.84-1.05,2.07c0,1.32.29,2.12,1.01,2.12.77,0,.86-.78.9-1.06h.76ZM83.3,228.64c0,.67,0,1.2.01,1.46h-.73c-.02-.15-.04-.37-.04-.71-.19.53-.64.8-1.26.8s-1.33-.25-1.33-1.59v-3.83h.77v3.65c0,.68.19,1.1.8,1.1s1.01-.36,1.01-1.51v-3.23h.77v3.87ZM84.55,230.09v-7.47h.77v7.47h-.77ZM86.03,224.77h.75v-1.42h.76v1.42h.93v.66h-.93v3.49c0,.37.08.59.48.59.13,0,.28,0,.38-.03v.59c-.18.07-.45.09-.63.09-.63,0-.99-.25-.99-1.09v-3.65h-.75v-.66ZM89.66,227.58c0,1.04.18,1.95,1.02,1.95s.94-.79.97-.95h.75c-.01.14-.16,1.62-1.73,1.62s-1.79-1.44-1.79-2.76c0-1.68.58-2.75,1.83-2.75,1.4,0,1.73,1.15,1.73,2.48,0,.1,0,.28-.01.41h-2.77ZM91.68,226.97c0-.92-.19-1.63-.97-1.63-.97,0-1.02,1.27-1.04,1.63h2.01ZM92.17,222.5l-1.32,1.46h-.72l1.12-1.46h.91ZM91.68,226.97h0ZM94.8,229.56c.58,0,.86-.35.86-.84,0-.55-.28-.8-.98-1.08-1.1-.42-1.42-.82-1.42-1.56s.44-1.41,1.52-1.41c1.19,0,1.53.81,1.54,1.52h-.75c-.01-.25-.07-.89-.81-.89-.5,0-.73.31-.73.73s.19.64.92.92c1.03.4,1.48.77,1.48,1.69,0,.97-.61,1.54-1.67,1.54s-1.64-.66-1.67-1.63h.76c.03.57.33,1,.94,1ZM102.71,222.62v6.11c0,.52,0,1.05.01,1.37h-.74c-.01-.14-.03-.49-.03-.72-.16.46-.5.81-1.25.81-1.11,0-1.58-.94-1.58-2.81,0-1.7.63-2.69,1.75-2.69.69,0,.96.29,1.08.55v-2.62h.77ZM99.91,227.38c0,1.54.35,2.12,1,2.12.83,0,1.05-.71,1.05-2.15,0-1.55-.22-1.99-.99-1.99-.63,0-1.06.56-1.06,2.02ZM103.56,225.02c.19-.73.36-1.6.36-2.43h.74c-.01.9-.28,1.98-.49,2.43h-.62ZM108.27,229.15c0,.33.03.77.04.94h-.7c-.03-.12-.05-.4-.05-.6-.2.43-.6.7-1.26.7-1.02,0-1.39-.8-1.39-1.54,0-.97.66-1.7,2.05-1.7.25,0,.4,0,.56.02v-.71c0-.42-.08-.94-.8-.94-.78,0-.83.56-.86.92h-.74c.02-.76.39-1.54,1.63-1.54,1.03,0,1.53.5,1.53,1.48v2.99ZM107.54,227.57c-.13-.02-.28-.03-.53-.03-.95,0-1.33.45-1.33,1.05,0,.49.26.94.83.94.78,0,1.03-.55,1.03-1.67v-.29ZM112.75,228.47c-.02.28-.14,1.72-1.69,1.72-1.39,0-1.77-1.23-1.77-2.77s.49-2.73,1.84-2.73c1.55,0,1.62,1.43,1.62,1.68h-.79c-.01-.22-.08-1.02-.84-1.02s-1.05.84-1.05,2.07c0,1.32.29,2.12,1.01,2.12.77,0,.86-.78.9-1.06h.76ZM116.91,228.47c-.02.28-.14,1.72-1.69,1.72-1.39,0-1.77-1.23-1.77-2.77s.49-2.73,1.84-2.73c1.55,0,1.62,1.43,1.62,1.68h-.79c-.01-.22-.08-1.02-.84-1.02s-1.05.84-1.05,2.07c0,1.32.29,2.12,1.01,2.12.77,0,.86-.78.9-1.06h.76ZM118.4,227.58c0,1.04.18,1.95,1.02,1.95s.94-.79.97-.95h.75c-.01.14-.16,1.62-1.73,1.62s-1.79-1.44-1.79-2.76c0-1.68.58-2.75,1.83-2.75,1.4,0,1.73,1.15,1.73,2.48,0,.1,0,.28-.01.41h-2.77ZM118.78,222.51l1.12,1.46h-.72l-1.32-1.46h.92ZM120.42,226.97c0-.92-.19-1.63-.97-1.63-.97,0-1.02,1.27-1.04,1.63h2.01ZM120.42,226.97h0ZM123.54,229.56c.58,0,.86-.35.86-.84,0-.55-.28-.8-.98-1.08-1.1-.42-1.42-.82-1.42-1.56s.44-1.41,1.52-1.41c1.19,0,1.53.81,1.54,1.52h-.75c-.01-.25-.07-.89-.81-.89-.5,0-.73.31-.73.73s.19.64.92.92c1.03.4,1.48.77,1.48,1.69,0,.97-.61,1.54-1.67,1.54s-1.64-.66-1.67-1.63h.76c.03.57.33,1,.94,1ZM131.21,229.15c0,.33.03.77.04.94h-.7c-.03-.12-.05-.4-.05-.6-.2.43-.6.7-1.26.7-1.02,0-1.39-.8-1.39-1.54,0-.97.66-1.7,2.05-1.7.25,0,.4,0,.56.02v-.71c0-.42-.08-.94-.8-.94-.78,0-.83.56-.86.92h-.74c.02-.76.39-1.54,1.63-1.54,1.03,0,1.53.5,1.53,1.48v2.99ZM128.99,222.51l1.12,1.46h-.72l-1.32-1.46h.92ZM130.48,227.57c-.13-.02-.28-.03-.53-.03-.95,0-1.33.45-1.33,1.05,0,.49.26.94.83.94.78,0,1.03-.55,1.03-1.67v-.29ZM137.84,228.64c0,.67,0,1.2.01,1.46h-.73c-.02-.15-.04-.37-.04-.71-.19.53-.64.8-1.26.8s-1.33-.25-1.33-1.59v-3.83h.77v3.65c0,.68.19,1.1.8,1.1s1.01-.36,1.01-1.51v-3.23h.77v3.87ZM139.03,224.77h.74c.01.13.03.34.03.7.18-.42.54-.79,1.26-.79.77,0,1.37.44,1.37,1.62v3.79h-.77v-3.64c0-.65-.21-1.09-.82-1.09-.72,0-1.02.47-1.02,1.56v3.17h-.77v-3.68c0-1.09,0-1.4-.01-1.65ZM148.74,229.15c0,.33.03.77.04.94h-.7c-.03-.12-.05-.4-.05-.6-.2.43-.6.7-1.26.7-1.02,0-1.39-.8-1.39-1.54,0-.97.66-1.7,2.05-1.7.25,0,.4,0,.56.02v-.71c0-.42-.08-.94-.8-.94-.78,0-.83.56-.86.92h-.74c.02-.76.39-1.54,1.63-1.54,1.03,0,1.53.5,1.53,1.48v2.99ZM148,227.57c-.13-.02-.28-.03-.53-.03-.95,0-1.33.45-1.33,1.05,0,.49.26.94.83.94.78,0,1.03-.55,1.03-1.67v-.29ZM150,224.77h.74c.01.14.02.39.02.95.23-.64.74-1.02,1.41-1.03v.85c-.92.03-1.39.6-1.39,1.58v2.97h-.77v-3.51c0-.85,0-1.43-.01-1.81ZM152.61,224.77h.75v-1.42h.76v1.42h.93v.66h-.93v3.49c0,.37.08.59.48.59.13,0,.28,0,.38-.03v.59c-.18.07-.45.09-.63.09-.63,0-.99-.25-.99-1.09v-3.65h-.75v-.66ZM155.81,224.77h.77v5.32h-.77v-5.32ZM155.81,222.62h.77v1.1h-.77v-1.1ZM161.05,228.47c-.02.28-.14,1.72-1.69,1.72-1.39,0-1.77-1.23-1.77-2.77s.49-2.73,1.84-2.73c1.55,0,1.62,1.43,1.62,1.68h-.79c-.01-.22-.08-1.02-.84-1.02s-1.05.84-1.05,2.07c0,1.32.29,2.12,1.01,2.12.77,0,.86-.78.9-1.06h.76ZM161.95,230.09v-7.47h.77v7.47h-.77ZM164.5,227.58c0,1.04.18,1.95,1.02,1.95s.94-.79.97-.95h.75c-.01.14-.16,1.62-1.73,1.62s-1.79-1.44-1.79-2.76c0-1.68.58-2.75,1.83-2.75,1.4,0,1.73,1.15,1.73,2.48,0,.1,0,.28-.01.41h-2.77ZM166.52,226.97c0-.92-.19-1.63-.97-1.63-.97,0-1.02,1.27-1.04,1.63h2.01ZM166.52,226.97h0ZM167.66,231.29c.32-.83.53-1.77.58-2.53h.74c-.07.97-.37,1.98-.69,2.53h-.63Z"/>
    <path class="cls-1" d="M29.66,241.16c0,.33.03.77.04.94h-.7c-.03-.12-.05-.4-.05-.6-.2.43-.6.7-1.26.7-1.02,0-1.39-.8-1.39-1.54,0-.97.66-1.7,2.05-1.7.25,0,.4,0,.56.02v-.71c0-.42-.08-.94-.8-.94-.78,0-.83.56-.86.92h-.74c.02-.76.39-1.54,1.63-1.54,1.03,0,1.53.5,1.53,1.48v2.99ZM28.92,239.57c-.13-.02-.28-.03-.53-.03-.95,0-1.33.45-1.33,1.05,0,.49.26.94.83.94.78,0,1.03-.55,1.03-1.67v-.29ZM34.26,234.62v6.11c0,.52,0,1.05.01,1.37h-.74c-.01-.14-.03-.49-.03-.72-.16.46-.5.81-1.25.81-1.11,0-1.58-.94-1.58-2.81,0-1.7.63-2.69,1.75-2.69.69,0,.96.29,1.08.55v-2.62h.77ZM31.46,239.39c0,1.54.35,2.12,1,2.12.83,0,1.05-.71,1.05-2.15,0-1.55-.22-1.99-.99-1.99-.63,0-1.06.56-1.06,2.02ZM35.5,236.77h.74c.01.14.02.39.02.95.23-.64.74-1.02,1.41-1.03v.85c-.92.03-1.39.6-1.39,1.58v2.97h-.77v-3.51c0-.85,0-1.43-.01-1.81ZM38.86,239.58c0,1.04.18,1.95,1.02,1.95s.94-.79.97-.95h.75c-.01.14-.16,1.62-1.73,1.62s-1.79-1.44-1.79-2.76c0-1.68.58-2.75,1.83-2.75,1.4,0,1.73,1.15,1.73,2.48,0,.1,0,.28-.01.41h-2.77ZM40.88,238.97c0-.92-.19-1.63-.97-1.63-.97,0-1.02,1.27-1.04,1.63h2.01ZM40.88,238.97h0ZM44,241.56c.58,0,.86-.35.86-.84,0-.55-.28-.8-.98-1.08-1.1-.42-1.42-.82-1.42-1.56s.44-1.41,1.52-1.41c1.19,0,1.53.81,1.54,1.52h-.75c-.01-.25-.07-.89-.81-.89-.5,0-.73.31-.73.73s.19.64.92.92c1.03.4,1.48.77,1.48,1.69,0,.97-.61,1.54-1.67,1.54s-1.64-.66-1.67-1.63h.76c.03.57.33,1,.94,1ZM47.96,241.56c.58,0,.86-.35.86-.84,0-.55-.28-.8-.98-1.08-1.1-.42-1.42-.82-1.42-1.56s.44-1.41,1.52-1.41c1.19,0,1.53.81,1.54,1.52h-.75c-.01-.25-.07-.89-.81-.89-.5,0-.73.31-.73.73s.19.64.92.92c1.03.4,1.48.77,1.48,1.69,0,.97-.61,1.54-1.67,1.54s-1.64-.66-1.67-1.63h.76c.03.57.33,1,.94,1ZM51.06,239.58c0,1.04.18,1.95,1.02,1.95s.94-.79.97-.95h.75c-.01.14-.16,1.62-1.73,1.62s-1.79-1.44-1.79-2.76c0-1.68.58-2.75,1.83-2.75,1.4,0,1.73,1.15,1.73,2.48,0,.1,0,.28-.01.41h-2.77ZM53.08,238.97c0-.92-.19-1.63-.97-1.63-.97,0-1.02,1.27-1.04,1.63h2.01ZM53.08,238.97h0ZM54.36,241.53c.55-.93,1.6-2.79,2.33-4.09h-2.17v-.67h3.05v.6c-.52.93-1.63,2.89-2.31,4.06h2.34l-.1.67h-3.14v-.56ZM60.13,239.04v.69h-2.14v-.69h2.14ZM61.38,236.77c.44,1.73.97,3.81,1.07,4.46h.01c.07-.59.87-3.37,1.13-4.46h.77l-1.52,5.32h-.83l-1.45-5.32h.82ZM68.46,239.37c0,1.87-.63,2.82-1.83,2.82s-1.83-.91-1.83-2.8.72-2.7,1.86-2.7,1.8.9,1.8,2.69ZM65.58,239.39c0,1.45.36,2.14,1.05,2.14s1.04-.7,1.04-2.14c0-1.36-.34-2.03-1.04-2.03s-1.05.6-1.05,2.04ZM72.81,240.64c0,.67,0,1.2.01,1.46h-.73c-.02-.15-.04-.37-.04-.71-.19.53-.64.8-1.26.8s-1.33-.25-1.33-1.59v-3.83h.77v3.65c0,.68.19,1.1.8,1.1s1.01-.36,1.01-1.51v-3.23h.77v3.87ZM75.37,241.56c.58,0,.86-.35.86-.84,0-.55-.28-.8-.98-1.08-1.1-.42-1.42-.82-1.42-1.56s.44-1.41,1.52-1.41c1.19,0,1.53.81,1.54,1.52h-.75c-.01-.25-.07-.89-.81-.89-.5,0-.73.31-.73.73s.19.64.92.92c1.03.4,1.48.77,1.48,1.69,0,.97-.61,1.54-1.67,1.54s-1.64-.66-1.67-1.63h.76c.03.57.33,1,.94,1ZM83.05,241.16c0,.33.03.77.04.94h-.7c-.03-.12-.05-.4-.05-.6-.2.43-.6.7-1.26.7-1.02,0-1.39-.8-1.39-1.54,0-.97.66-1.7,2.05-1.7.25,0,.4,0,.56.02v-.71c0-.42-.08-.94-.8-.94-.78,0-.83.56-.86.92h-.74c.02-.76.39-1.54,1.63-1.54,1.03,0,1.53.5,1.53,1.48v2.99ZM80.83,234.51l1.12,1.46h-.72l-1.32-1.46h.92ZM82.31,239.57c-.13-.02-.28-.03-.53-.03-.95,0-1.33.45-1.33,1.05,0,.49.26.94.83.94.78,0,1.03-.55,1.03-1.67v-.29ZM86.33,242.1v-7.47h.77v7.47h-.77ZM91.41,241.16c0,.33.03.77.04.94h-.7c-.03-.12-.05-.4-.05-.6-.2.43-.6.7-1.26.7-1.02,0-1.39-.8-1.39-1.54,0-.97.66-1.7,2.05-1.7.25,0,.4,0,.56.02v-.71c0-.42-.08-.94-.8-.94-.78,0-.83.56-.86.92h-.74c.02-.76.39-1.54,1.63-1.54,1.03,0,1.53.5,1.53,1.48v2.99ZM90.67,239.57c-.13-.02-.28-.03-.53-.03-.95,0-1.33.45-1.33,1.05,0,.49.26.94.83.94.78,0,1.03-.55,1.03-1.67v-.29ZM94.76,234.97h1.86c1.07,0,1.72.64,1.72,1.73,0,.96-.46,1.37-.88,1.52.54.19,1.11.69,1.11,1.79,0,1.28-.77,2.09-2.01,2.09h-1.8v-7.13ZM96.35,237.94c.9,0,1.22-.4,1.22-1.17,0-.71-.38-1.16-1.12-1.16h-.92v2.32h.82ZM95.53,241.45h.96c.84,0,1.29-.51,1.29-1.44s-.49-1.43-1.44-1.43h-.81v2.87ZM99.56,236.77h.77v5.32h-.77v-5.32ZM99.57,234.62h.77v1.1h-.77v-1.1ZM101.63,234.62h.77v2.86c.17-.41.54-.8,1.27-.8,1.02,0,1.56.85,1.56,2.62,0,1.64-.44,2.88-1.7,2.88-.68,0-.98-.34-1.15-.71,0,.18-.01.42-.03.63h-.73c.01-.28.01-.81.01-1.46v-6.01ZM104.44,239.32c0-1.33-.31-1.95-.98-1.95-.82,0-1.09.73-1.09,2.08,0,1.28.21,2.06,1.02,2.06.71,0,1.05-.69,1.05-2.19ZM106.2,242.1v-7.47h.77v7.47h-.77ZM108.24,236.77h.77v5.32h-.77v-5.32ZM108.24,234.62h.77v1.1h-.77v-1.1ZM113.67,239.37c0,1.87-.63,2.82-1.83,2.82s-1.83-.91-1.83-2.8.72-2.7,1.86-2.7,1.8.9,1.8,2.69ZM110.8,239.39c0,1.45.36,2.14,1.05,2.14s1.04-.7,1.04-2.14c0-1.36-.34-2.03-1.04-2.03s-1.05.6-1.05,2.04ZM114.03,236.77h.75v-1.42h.76v1.42h.93v.66h-.93v3.49c0,.37.08.59.48.59.13,0,.28,0,.38-.03v.59c-.18.07-.45.09-.63.09-.63,0-.99-.25-.99-1.09v-3.65h-.75v-.66ZM117.98,234.62v2.8c.19-.43.6-.74,1.28-.74.78,0,1.34.49,1.34,1.63v3.78h-.77v-3.63c0-.65-.19-1.1-.84-1.1-.73,0-1,.6-1,1.53v3.2h-.77v-7.47h.77ZM122.36,239.58c0,1.04.18,1.95,1.02,1.95s.94-.79.97-.95h.75c-.01.14-.16,1.62-1.73,1.62s-1.79-1.44-1.79-2.76c0-1.68.58-2.75,1.83-2.75,1.4,0,1.73,1.15,1.73,2.48,0,.1,0,.28-.01.41h-2.77ZM122.75,234.51l1.12,1.46h-.72l-1.32-1.46h.92ZM124.38,238.97c0-.92-.19-1.63-.97-1.63-.97,0-1.02,1.27-1.04,1.63h2.01ZM124.38,238.97h0ZM128.79,241.42c-.2.46-.56.77-1.25.77-1,0-1.59-.82-1.59-2.76,0-1.76.67-2.75,1.72-2.75.7,0,1,.34,1.11.67,0-.29.02-.48.03-.58h.74c-.01.38-.01.82-.01,1.58v5.7h-.75v-2.63ZM126.74,239.44c0,1.27.3,2.08,1.01,2.08.86,0,1.04-.75,1.04-2.11s-.11-2.05-.98-2.05c-.67,0-1.06.72-1.06,2.08ZM134.16,240.64c0,.67,0,1.2.01,1.46h-.73c-.02-.15-.04-.37-.04-.71-.19.53-.64.8-1.26.8s-1.33-.25-1.33-1.59v-3.83h.77v3.65c0,.68.19,1.1.8,1.1s1.01-.36,1.01-1.51v-3.23h.77v3.87ZM135.92,239.58c0,1.04.18,1.95,1.02,1.95s.94-.79.97-.95h.75c-.01.14-.16,1.62-1.73,1.62s-1.79-1.44-1.79-2.76c0-1.68.58-2.75,1.83-2.75,1.4,0,1.73,1.15,1.73,2.48,0,.1,0,.28-.01.41h-2.77ZM137.94,238.97c0-.92-.19-1.63-.97-1.63-.97,0-1.02,1.27-1.04,1.63h2.01ZM137.94,238.97h0ZM139.5,240.66h.78v1.44h-.78v-1.44Z"/>
  </g>
</svg>