<?xml version="1.0" encoding="UTF-8"?>
<svg id="Calque_1" data-name="Calque 1" xmlns="http://www.w3.org/2000/svg" xmlns:xlink="http://www.w3.org/1999/xlink" viewBox="0 0 195.59 269.29">
  <defs>
    <style>
      .cls-1 {
        letter-spacing: -.05em;
      }

      .cls-2 {
        letter-spacing: -.05em;
      }

      .cls-3 {
        letter-spacing: -.05em;
      }

      .cls-4 {
        letter-spacing: .06em;
      }

      .cls-5 {
        fill: #1d1d1b;
      }

      .cls-6 {
        letter-spacing: .08em;
      }

      .cls-7, .cls-8 {
        fill: #fff;
      }

      .cls-9 {
        letter-spacing: -.05em;
      }

      .cls-10 {
        letter-spacing: 0em;
      }

      .cls-11, .cls-12, .cls-13, .cls-14 {
        fill: none;
      }

      .cls-12, .cls-13 {
        stroke-linecap: round;
        stroke-width: 3px;
      }

      .cls-12, .cls-14 {
        stroke: #31a852;
      }

      .cls-15 {
        letter-spacing: -.05em;
      }

      .cls-16 {
        clip-path: url(#clippath-1);
      }

      .cls-17 {
        fill: #f39200;
      }

      .cls-18 {
        letter-spacing: -.05em;
      }

      .cls-19 {
        letter-spacing: .08em;
      }

      .cls-20 {
        fill: #507cbe;
      }

      .cls-8 {
        font-family: ActionMan, 'Action Man';
        font-size: 7.12px;
      }

      .cls-21 {
        letter-spacing: .06em;
      }

      .cls-22 {
        letter-spacing: .06em;
      }

      .cls-13 {
        stroke: #ffcb04;
      }

      .cls-23 {
        letter-spacing: -.05em;
      }

      .cls-24 {
        letter-spacing: .08em;
      }

      .cls-25 {
        letter-spacing: -.05em;
      }

      .cls-26 {
        letter-spacing: -.05em;
      }

      .cls-27 {
        letter-spacing: .08em;
      }

      .cls-28 {
        font-size: 35.7px;
      }

      .cls-28, .cls-29, .cls-30 {
        fill: #31a852;
      }

      .cls-28, .cls-30 {
        font-family: Socafe, Socafe;
      }

      .cls-31 {
        clip-path: url(#clippath-2);
      }

      .cls-30 {
        font-size: 34.51px;
      }

      .cls-32 {
        fill: #ffcd02;
      }

      .cls-33 {
        clip-path: url(#clippath);
      }

      .cls-34 {
        letter-spacing: .08em;
      }
    </style>
    <clipPath id="clippath">
      <rect class="cls-11" width="195.59" height="269.29"/>
    </clipPath>
    <clipPath id="clippath-1">
      <rect class="cls-11" width="195.59" height="269.29"/>
    </clipPath>
    <clipPath id="clippath-2">
      <rect class="cls-11" x="16.3" y="217.56" width="179.29" height="35.74"/>
    </clipPath>
  </defs>
  <g class="cls-33">
    <g class="cls-16">
      <text class="cls-28" transform="translate(43.6 45.34) scale(1 1.12)"><tspan x="0" y="0">J</tspan></text>
      <text class="cls-30" transform="translate(65.55 45.34)"><tspan x="0" y="0">OKER</tspan></text>
      <path class="cls-29" d="M78.6,24.09c-.37,0-.77-.05-1.14-.01-.64.06-.69.28-1.2.6-.49.3-1.15.58-1.7.83-.64.3-.87.59-1.35,1.12-.59.65-1.23,1.43-1.49,2.35-.44,1.54-.21,3.36-.21,4.96,0,.75-.14,1.68-.01,2.42.15.87.87,1.42,1.43,1.9.87.76,1.37.41,2.48.55.98.12,1.82.29,2.83.3,1.23.01,2.09.07,2.57-1.28.25-.68.35-1.1.7-1.76.05-.31.16-.59.33-.86.26-.26.5-.54.69-.85.28-.81.03-2.03.03-2.88,0-.95.02-1.91,0-2.86-.02-1.22-1.15-1.77-1.79-2.78-.57-.89-1.04-1.92-2.18-2.04"/>
      <path class="cls-14" d="M78.6,24.09c-.37,0-.77-.05-1.14-.01-.64.06-.69.28-1.2.6-.49.3-1.15.58-1.7.83-.64.3-.87.59-1.35,1.12-.59.65-1.23,1.43-1.49,2.35-.44,1.54-.21,3.36-.21,4.96,0,.75-.14,1.68-.01,2.42.15.87.87,1.42,1.43,1.9.87.76,1.37.41,2.48.55.98.12,1.82.29,2.83.3,1.23.01,2.09.07,2.57-1.28.25-.68.35-1.1.7-1.76.05-.31.16-.59.33-.86.26-.26.5-.54.69-.85.28-.81.03-2.03.03-2.88,0-.95.02-1.91,0-2.86-.02-1.22-1.15-1.77-1.79-2.78-.57-.89-1.04-1.92-2.18-2.04"/>
      <line class="cls-13" x1="24.8" y1="20.13" x2="33.9" y2="24.94"/>
      <line class="cls-12" x1="25" y1="20.13" x2="34.1" y2="24.94"/>
      <line class="cls-12" x1="22.48" y1="32.6" x2="31.97" y2="32.6"/>
      <line class="cls-12" x1="25" y1="45.07" x2="34.1" y2="40.25"/>
      <line class="cls-13" x1="170.44" y1="20.13" x2="161.34" y2="24.94"/>
      <line class="cls-12" x1="172.76" y1="32.6" x2="163.27" y2="32.6"/>
      <line class="cls-12" x1="170.24" y1="20.13" x2="161.14" y2="24.94"/>
      <line class="cls-12" x1="170.24" y1="45.07" x2="161.14" y2="40.25"/>
      <path class="cls-7" d="M74.41,27.43s.05,0,.06-.03l.35-.35s.04-.09,0-.13c-.03-.04-.09-.04-.13,0l-.35.35s-.04.09,0,.13c.02.02.04.03.06.03"/>
      <path class="cls-7" d="M70.67,27.43s.05,0,.06-.03c.04-.04.04-.09,0-.13l-.35-.35s-.09-.04-.13,0c-.04.03-.04.09,0,.13l.35.35s.04.03.06.03"/>
      <path class="cls-7" d="M75.19,29.3h.5s.09-.04.09-.09-.04-.09-.09-.09h-.5s-.09.04-.09.09.04.09.09.09"/>
      <path class="cls-7" d="M69.4,29.3h.5s.09-.04.09-.09-.04-.09-.09-.09h-.5s-.09.04-.09.09.04.09.09.09"/>
      <path class="cls-7" d="M72.56,26.66s.09-.04.09-.09v-.5s-.04-.09-.09-.09-.09.04-.09.09v.5s.04.09.09.09"/>
      <path class="cls-7" d="M73.55,26.86s.07-.02.08-.05l.1-.24s0-.1-.05-.12-.1,0-.12.05l-.1.24s0,.1.05.12c.01,0,.02,0,.03,0"/>
      <path class="cls-7" d="M74.99,28.29s.02,0,.03,0l.24-.1s.07-.07.05-.12c-.02-.05-.07-.07-.12-.05l-.24.1s-.07.07-.05.12c.01.03.05.05.08.05"/>
      <path class="cls-7" d="M70.1,28.29s.07-.02.08-.05c.02-.05,0-.1-.05-.12l-.24-.1s-.1,0-.12.05c-.02.04,0,.1.05.12l.24.1s.02,0,.03,0"/>
      <path class="cls-7" d="M71.53,26.86s.02,0,.03,0c.05-.02.07-.07.05-.12l-.1-.24s-.07-.07-.12-.05-.07.07-.05.12l.1.24s.05.05.08.05"/>
      <path class="cls-7" d="M79.49,27.43s-.05,0-.06-.03l-.35-.35s-.04-.09,0-.13c.03-.04.09-.04.13,0l.35.35s.04.09,0,.13c-.02.02-.04.03-.06.03"/>
      <path class="cls-7" d="M83.23,27.43s-.05,0-.06-.03c-.04-.04-.04-.09,0-.13l.35-.35s.09-.04.13,0c.04.03.04.09,0,.13l-.35.35s-.04.03-.06.03"/>
      <path class="cls-7" d="M78.71,29.3h-.5s-.09-.04-.09-.09.04-.09.09-.09h.5s.09.04.09.09-.04.09-.09.09"/>
      <path class="cls-7" d="M84.5,29.3h-.5s-.09-.04-.09-.09.04-.09.09-.09h.5s.09.04.09.09-.04.09-.09.09"/>
      <path class="cls-7" d="M81.34,26.66s-.09-.04-.09-.09v-.5s.04-.09.09-.09.09.04.09.09v.5s-.04.09-.09.09"/>
      <path class="cls-7" d="M80.35,26.86s-.07-.02-.08-.05l-.1-.24s0-.1.05-.12.1,0,.12.05l.1.24s0,.1-.05.12c-.01,0-.02,0-.03,0"/>
      <path class="cls-7" d="M78.91,28.29s-.02,0-.03,0l-.24-.1s-.07-.07-.05-.12c.02-.05.07-.07.12-.05l.24.1s.07.07.05.12c-.01.03-.05.05-.08.05"/>
      <path class="cls-7" d="M83.8,28.29s-.07-.02-.08-.05c-.02-.05,0-.1.05-.12l.24-.1s.1,0,.12.05c.02.04,0,.1-.05.12l-.24.1s-.02,0-.03,0"/>
      <path class="cls-7" d="M82.37,26.86s-.02,0-.03,0c-.05-.02-.07-.07-.05-.12l.1-.24s.07-.07.12-.05.07.07.05.12l-.1.24s-.05.05-.08.05"/>
      <path class="cls-7" d="M78.99,38.48h-4.86c-.5,0-.52.69-.03.73,1.67,0,3.86,0,5.53,0,.21-.03.39-.25.31-.47-.13-.39-.64-.24-.95-.27"/>
      <path class="cls-7" d="M79.47,34.01c-.2,0-.41,0-.61,0,.09.48.57,1,.97,1.27.99.67,2.44.61,3.33-.2.33-.32.54-.62.68-1.07-.81,0-3.62,0-4.37,0"/>
      <path class="cls-7" d="M75.25,34.01c-1.17,0-3.9,0-5.03,0,.02.12.08.23.13.34.79,1.55,2.9,1.84,4.18.7.32-.29.57-.63.71-1.04"/>
      <path class="cls-7" d="M75.92,37.14c-.68.03-1.39.38-1.63,1.04,1.25,0,3.95,0,5.17,0-.27-.64-.96-1.01-1.64-1.03-.02-.34-.19-.65-.47-.85v-5.38c-.34.05-.61.05-.94,0v5.39c-.29.23-.44.48-.48.85"/>
      <path class="cls-7" d="M70.92,33.65l1.02-2.24c.19-.41.38-.83.56-1.25.01,1.05,0,2.44,0,3.49.12,0,.24,0,.36,0v-3.46c.5,1,1.13,2.46,1.64,3.46.13,0,.26,0,.39,0-.64-1.4-1.33-2.81-1.97-4.21.34.24.73.44,1.16.37.74-.17,1.42-.54,2.15-.71-.12.23-.23.46-.35.69-.06.11-.15.27-.19.39,0,.02,0,.05,0,.08.03.1.14.16.23.2.33.16.78.21,1.14.17.25-.02.9-.11.94-.41-.02-.11-.16-.35-.22-.47-.1-.21-.21-.43-.31-.65,1.18.25,2.46,1.24,3.59.31-.52,1.22-1.39,3.02-1.93,4.24.12,0,.24,0,.36,0,.57-1.18,1.09-2.38,1.66-3.56.03,1.18,0,2.36,0,3.54h.35s0-3.5,0-3.5c.47.98,1.14,2.51,1.62,3.49h.37c-.64-1.38-1.29-2.82-1.93-4.2.44-.19.42-.83-.05-.98-.44-.14-.85.25-.69.69-.29.33-.68.32-1.04.13-.33-.15-.7-.25-1.06-.35-.48-.15-.94-.25-1.44-.28-.03-.06-.06-.13-.08-.2.23-.04.39-.26.33-.49-.04-.15-.22-.46-.3-.62-.07-.15-.14-.31-.23-.45-.03-.07-.1-.12-.19-.11-.07.02-.1.05-.13.1-.13.21-.23.44-.34.66-.07.15-.18.3-.22.46-.04.21.13.41.34.45-.03.07-.05.13-.08.2-.71.03-1.44.27-2.1.54-.54.28-.79.31-1.29-.06.15-.48-.4-.84-.81-.59-.43.25-.26.87.23.91-.5,1.1-1.44,3.14-1.92,4.22h.4Z"/>
      <g class="cls-31">
        <path class="cls-29" d="M27.32,243.65c-.2-.22-.29-.51-.25-.8l1.62-.43c.16-.04.26-.21.22-.37-.04-.16-.21-.26-.37-.22l-1.37.37c0-.14-.02-.28-.06-.42-.04-.14-.09-.27-.16-.39l1.37-.37c.16-.04.26-.21.22-.37-.04-.16-.21-.26-.37-.22l-1.62.43c-.43-.55-.15-1.35.45-1.51l5.14-1.38c.61-.16,1.25.4,1.15,1.08l-1.73.46c-.16.05-.26.21-.22.38.04.16.21.26.37.22l1.47-.39c0,.14.02.28.06.42.04.14.09.27.16.39l-1.47.39c-.16.04-.26.21-.22.37.04.16.21.26.37.22l1.73-.46c.18.23.25.53.18.82-.08.35-.35.61-.64.69l-5.14,1.38c-.28.08-.65-.01-.9-.28"/>
        <path class="cls-29" d="M29.04,244.35l3.83-1.03c.06.94-.54,1.83-1.49,2.08h-.01c-.94.26-1.91-.21-2.33-1.06"/>
        <path class="cls-32" d="M31.35,225.76c.1-.05.23-.02.28.09.18.33.32.69.42,1.06.03.11-.04.23-.15.26-.11.03-.23-.04-.26-.15-.09-.34-.22-.66-.38-.97-.06-.1-.02-.23.09-.28M30.81,225.01c-.08.08-.22.08-.3,0-.61-.64-1.42-1.11-2.33-1.3-.11-.02-.19-.13-.16-.25.02-.11.14-.18.25-.16.99.22,1.87.72,2.54,1.42.08.08.08.22,0,.3M30.99,222.85c1.34.96,2.3,2.41,2.62,4.24.23,1.34-.02,2.76-.71,3.98-.21.37-.59,1.17-.76,2.36-.18,1.19-.11,2.41.22,3.63.03.11-.04.23-.15.26l-2.42.65c-.11.03-.23-.04-.26-.15l-4.19-15.63c-.03-.11.04-.23.15-.26.61-.16,1.08-.21,1.28-.23,1.38-.14,2.94.25,4.22,1.16"/>
        <path class="cls-17" d="M21.9,226.44c-.19.46.2.85.2.85.07.07.07.19,0,.26-.07.07-.19.07-.27,0-.03-.02-.57-.56-.28-1.24.29-.69,1.06-.68,1.09-.68.1,0,.18.08.18.19,0,.1-.09.18-.2.18-.02,0-.54,0-.73.45M22.84,230.89c.02.1-.05.19-.15.21-.03,0-.81.15-1.23-.44-.43-.6.02-1.22.04-1.25.06-.08.18-.1.26-.05.08.06.1.17.04.25-.01.02-.31.44-.03.83.28.4.83.3.85.3.1-.02.2.04.22.14M26.65,233.32c.09-.05.21-.02.26.06.36.62.02,1.44-.72,1.64-.27.07-.57.05-.82-.07-.09-.05-.13-.15-.08-.24.05-.09.16-.13.26-.08.3.15.68.08.92-.16.24-.24.29-.61.12-.89-.05-.09-.02-.2.07-.25M23.05,227.65c.08-.06.2-.05.27.03.61.75,1.1.19,1.99-.01.34-.08.68-.06.99.09l-1.16-4.33c-.19-.73-.97-1.15-1.72-.95-.76.2-1.21.96-1.02,1.69l.05.2c.24-.03.48-.03.72.01.14-.06.54-.27.61-.77.01-.1.11-.17.21-.16.1.01.18.1.16.2-.06.42-.28.69-.5.86.34.12.65.33.94.54.08.06.1.17.03.26-.07.08-.18.1-.27.04-.16-.11-.32-.22-.47-.31-.93-.55-2.15-.39-2.85.54-.87,1.15-.36,2.72.97,2.95.1.02.17.11.15.21-.02.1-.12.17-.22.15-.3-.05-.57-.16-.81-.32-.16.11-.45.36-.65.77-.56,1.19.31,2.52,1.63,2.66,0,0,.83.07,1.54-.49.71-.56.13-1.1,1.71-1.52.1-.03.2.03.23.13.03.1-.03.2-.14.23-.81.22-.91.42-1.02.7h0c.46-.02.86.19,1.16.54.07.08.05.19-.03.26-.08.06-.2.06-.27-.02-.43-.5-.91-.42-1.06-.38-.41.6-1.47,1.07-2.36.9-.21,1.09.68,2.1,1.85,2.03-.06-.66.2-1.33.71-1.8.08-.07.2-.07.27,0,.07.07.07.19,0,.26-.5.47-.71,1.17-.54,1.81.11.4.35.74.66.97.31.23.54.44.74.81.35.65.67,1.45.87,2.22.03.11.14.18.26.15l2.18-.58c.11-.03.18-.15.15-.26l-1.69-6.32c-.1-.32-.51-.53-.83-.63-.1-.03-.15-.13-.12-.23.03-.1.14-.15.24-.12,0,0,.01,0,.02,0,.2.06.36.14.49.22l-.68-2.54c-.23-.27-.62-.41-1.07-.31-.81.19-1.56.86-2.37-.11-.06-.08-.05-.19.03-.26"/>
        <path class="cls-20" d="M19.21,223.91c-.07.02-.16.01-.23-.03l-1.45-.84c-.14-.08-.19-.27-.11-.41.08-.14.26-.19.41-.11l1.45.84c.14.08.19.26.11.41-.04.07-.11.12-.18.14"/>
        <path class="cls-20" d="M31.31,220.66c-.07.02-.16.01-.23-.03-.14-.08-.19-.27-.11-.41l.84-1.45c.08-.14.26-.19.41-.11.14.08.19.27.11.41l-.83,1.45c-.04.07-.11.12-.18.14"/>
        <path class="cls-20" d="M18.32,230.63l-1.62.43c-.16.04-.32-.05-.37-.21-.04-.16.05-.32.21-.37l1.61-.43c.16-.04.32.05.37.21.04.16-.05.32-.21.37"/>
        <path class="cls-20" d="M37.06,225.61l-1.62.43c-.16.04-.32-.05-.37-.21-.04-.16.05-.32.21-.37l1.61-.43c.16-.04.32.05.37.21.04.16-.05.32-.21.37"/>
        <path class="cls-20" d="M24.53,219.79c-.16.04-.32-.05-.37-.21l-.43-1.61c-.04-.16.05-.32.21-.37.16-.04.32.05.37.21l.43,1.61c.04.16-.05.32-.21.37"/>
        <path class="cls-20" d="M21.49,221.31c-.11.03-.24,0-.32-.11l-.53-.69c-.1-.13-.08-.32.06-.42.13-.1.32-.08.42.06l.53.69c.1.13.08.32-.06.42-.03.02-.07.04-.1.05"/>
        <path class="cls-20" d="M18.1,227.18s-.08.01-.12,0l-.87-.11c-.16-.02-.28-.17-.26-.33.02-.16.17-.28.33-.26l.87.11c.16.02.28.17.26.33-.02.12-.11.22-.22.25"/>
        <path class="cls-20" d="M33.91,222.94c-.11.03-.24,0-.32-.11-.1-.13-.08-.32.06-.42l.69-.53c.13-.1.32-.08.42.06.1.13.08.32-.06.42l-.69.53s-.07.04-.1.05"/>
        <path class="cls-20" d="M28.04,219.55s-.08.01-.12,0c-.16-.02-.28-.17-.26-.34l.11-.87c.02-.16.17-.28.33-.26.16.02.28.17.26.34l-.11.86c-.02.12-.11.22-.22.25"/>
        <path class="cls-29" d="M36.89,221.69c.04.24.06.5.03.75-.02.17-.06.33-.12.48,1.13-.09,2.2.64,2.51,1.78.17.62.08,1.27-.24,1.83-.32.56-.84.96-1.46,1.12l-1.61.43c-.06.02-.12.01-.18.02,0,1.38-.37,2.76-1.07,4-.11.2-.38.74-.52,1.63-.14.9-.08,1.84.17,2.77.01.05.02.11.03.16.74.69,1.1,1.68.95,2.68-.01.07-.03.14-.04.21.05.05.1.11.14.16.58.74.8,1.69.58,2.61-.16.7-.58,1.29-1.13,1.72-.24,1.6-1.39,2.95-3,3.39-.23.06-.46.1-.69.12v5.74h164.35v-31.61H36.89Z"/>
      </g>
      <text class="cls-8" transform="translate(42.39 232.06)"><tspan class="cls-3" x="0" y="0">Si</tspan><tspan class="cls-22" x="4.72" y="0"> </tspan><tspan class="cls-1" x="7.79" y="0">v</tspan><tspan class="cls-3" x="10.64" y="0">o</tspan><tspan class="cls-1" x="14.21" y="0">u</tspan><tspan class="cls-3" x="17.62" y="0">s</tspan><tspan class="cls-22" x="21.05" y="0"> </tspan><tspan class="cls-18" x="24.12" y="0">a</tspan><tspan class="cls-1" x="27.48" y="0">v</tspan><tspan class="cls-3" x="30.32" y="0">e</tspan><tspan class="cls-1" x="33.74" y="0">z</tspan><tspan class="cls-21" x="37.23" y="0"> </tspan><tspan class="cls-18" x="40.31" y="0">r</tspan><tspan class="cls-2" x="44.03" y="0">é</tspan><tspan class="cls-18" x="47.47" y="0">po</tspan><tspan class="cls-1" x="53.87" y="0">ndu</tspan><tspan class="cls-21" x="63.92" y="0"> </tspan><tspan class="cls-18" x="67" y="0">correcte</tspan><tspan class="cls-1" x="94.87" y="0">m</tspan><tspan class="cls-3" x="99.12" y="0">e</tspan><tspan class="cls-1" x="102.54" y="0">n</tspan><tspan class="cls-15" x="105.91" y="0">t,</tspan><tspan class="cls-4" x="110.29" y="0"> </tspan><tspan class="cls-18" x="113.37" y="0">p</tspan><tspan class="cls-9" x="116.2" y="0">l</tspan><tspan class="cls-18" x="118.95" y="0">aceZ</tspan><tspan class="cls-10" x="132.4" y="0"> </tspan></text>
      <text class="cls-8" transform="translate(42.39 240.35)"><tspan class="cls-23" x="0" y="0">l</tspan><tspan class="cls-3" x="2.75" y="0">a</tspan><tspan class="cls-27" x="6.11" y="0"> </tspan><tspan class="cls-18" x="9.37" y="0">c</tspan><tspan class="cls-1" x="12.7" y="0">a</tspan><tspan class="cls-3" x="16.06" y="0">rte</tspan><tspan class="cls-34" x="26.53" y="0"> </tspan><tspan class="cls-3" x="29.8" y="0">s</tspan><tspan class="cls-23" x="33.23" y="0">u</tspan><tspan class="cls-3" x="36.63" y="0">r</tspan><tspan class="cls-27" x="40.36" y="0"> </tspan><tspan class="cls-1" x="43.61" y="0">l</tspan><tspan class="cls-3" x="46.36" y="0">’o</tspan><tspan class="cls-23" x="50.98" y="0">bj</tspan><tspan class="cls-3" x="57.93" y="0">e</tspan><tspan class="cls-1" x="61.36" y="0">t</tspan><tspan class="cls-27" x="64.68" y="0"> </tspan><tspan class="cls-1" x="67.93" y="0">d</tspan><tspan class="cls-3" x="71.21" y="0">e</tspan><tspan class="cls-24" x="74.63" y="0"> </tspan><tspan class="cls-1" x="77.89" y="0">v</tspan><tspan class="cls-3" x="80.73" y="0">otre</tspan><tspan class="cls-19" x="94.78" y="0"> </tspan><tspan class="cls-18" x="98.04" y="0">choix.</tspan><tspan class="cls-6" x="114.39" y="0"> </tspan><tspan class="cls-18" x="117.64" y="0">S</tspan><tspan class="cls-26" x="121.09" y="0">i</tspan><tspan class="cls-6" x="122.36" y="0"> </tspan><tspan class="cls-18" x="125.61" y="0">ce</tspan><tspan x="132.38" y="0"> </tspan></text>
      <text class="cls-8" transform="translate(42.39 248.64)"><tspan class="cls-1" x="0" y="0">n</tspan><tspan class="cls-18" x="3.37" y="0">’est</tspan><tspan class="cls-1" x="14.6" y="0"> </tspan><tspan class="cls-3" x="16.92" y="0">pas </tspan><tspan class="cls-1" x="28.86" y="0">l</tspan><tspan class="cls-3" x="31.61" y="0">e</tspan><tspan class="cls-1" x="35.03" y="0" xml:space="preserve"> ca</tspan><tspan class="cls-3" x="44.03" y="0">s,</tspan><tspan class="cls-1" x="48.51" y="0"> </tspan><tspan class="cls-3" x="50.83" y="0">sorte</tspan><tspan class="cls-1" x="68.31" y="0">z</tspan><tspan class="cls-3" x="71.8" y="0" xml:space="preserve"> cet</tspan><tspan class="cls-1" x="84.21" y="0">t</tspan><tspan class="cls-3" x="87.53" y="0">e</tspan><tspan class="cls-23" x="90.96" y="0"> </tspan><tspan class="cls-25" x="93.27" y="0">car</tspan><tspan class="cls-9" x="103.69" y="0">t</tspan><tspan class="cls-18" x="107.02" y="0">e</tspan><tspan class="cls-26" x="110.44" y="0" xml:space="preserve"> du</tspan><tspan class="cls-15" x="119.43" y="0" xml:space="preserve"> je</tspan><tspan class="cls-1" x="128.51" y="0">u</tspan><tspan class="cls-15" x="131.92" y="0">.</tspan><tspan x="133.11" y="0"> </tspan></text>
    </g>
    <path class="cls-5" d="M30.57,86.55c-.03.43-.22,2.18-2.03,2.18-1.99,0-2.14-2.1-2.14-3.9,0-2.17.57-3.79,2.23-3.79,1.8,0,1.9,1.69,1.92,2.14h-.83c-.01-.25-.06-1.41-1.11-1.41-1.18,0-1.36,1.61-1.36,3.06,0,1.58.17,3.17,1.3,3.17,1,0,1.15-1.08,1.18-1.46h.83ZM35.2,85.76c0,1.96-.66,2.96-1.92,2.96s-1.92-.96-1.92-2.94.76-2.83,1.95-2.83,1.89.94,1.89,2.82ZM32.18,85.79c0,1.52.38,2.24,1.1,2.24s1.09-.73,1.09-2.24c0-1.43-.35-2.13-1.09-2.13s-1.1.63-1.1,2.14ZM36.25,84.71c0-.99,0-1.41-.01-1.67h.77c.02.16.03.46.03.71.22-.49.61-.81,1.25-.81.58,0,.99.25,1.16.83.2-.45.62-.83,1.35-.83s1.35.34,1.35,1.62v4.05h-.8v-3.91c0-.56-.16-1.05-.79-1.05-.71,0-.95.63-.95,1.38v3.58h-.8v-3.89c0-.69-.23-1.06-.77-1.06-.67,0-.98.61-.98,1.45v3.5h-.8v-3.91ZM43.47,80.79h.8v2.99c.18-.43.57-.83,1.33-.83,1.07,0,1.63.89,1.63,2.74,0,1.72-.46,3.02-1.78,3.02-.71,0-1.03-.36-1.2-.75,0,.18-.01.44-.03.66h-.76c.01-.3.01-.85.01-1.53v-6.3ZM46.41,85.7c0-1.4-.33-2.04-1.03-2.04-.86,0-1.14.77-1.14,2.18,0,1.34.22,2.16,1.06,2.16.74,0,1.1-.72,1.1-2.3ZM48.26,83.04h.8v5.58h-.8v-5.58ZM48.26,80.79h.8v1.15h-.8v-1.15ZM50.92,85.98c0,1.09.19,2.05,1.07,2.05s.99-.83,1.02-1h.79c-.01.14-.17,1.69-1.81,1.69s-1.87-1.51-1.87-2.89c0-1.77.6-2.88,1.92-2.88,1.47,0,1.81,1.21,1.81,2.6,0,.11,0,.29-.01.43h-2.91ZM53.04,85.35c0-.96-.2-1.71-1.02-1.71-1.02,0-1.07,1.33-1.09,1.71h2.1ZM53.04,85.35h0ZM54.86,83.04h.78c.01.14.03.36.03.73.19-.44.57-.83,1.32-.83.81,0,1.43.46,1.43,1.7v3.97h-.81v-3.82c0-.68-.22-1.14-.86-1.14-.75,0-1.07.49-1.07,1.64v3.32h-.81v-3.85c0-1.14,0-1.47-.01-1.73ZM65.27,80.79v6.4c0,.54,0,1.1.01,1.43h-.78c-.01-.14-.03-.51-.03-.75-.17.48-.53.85-1.31.85-1.16,0-1.65-.99-1.65-2.95,0-1.78.66-2.82,1.83-2.82.72,0,1,.31,1.13.58v-2.74h.8ZM62.34,85.78c0,1.61.37,2.22,1.05,2.22.87,0,1.1-.74,1.1-2.25,0-1.63-.23-2.09-1.03-2.09-.66,0-1.11.58-1.11,2.12ZM67.12,85.98c0,1.09.19,2.05,1.07,2.05s.99-.83,1.02-1h.79c-.01.14-.17,1.69-1.81,1.69s-1.87-1.51-1.87-2.89c0-1.77.6-2.88,1.92-2.88,1.47,0,1.81,1.21,1.81,2.6,0,.11,0,.29-.01.43h-2.91ZM69.23,85.35c0-.96-.2-1.71-1.02-1.71-1.02,0-1.07,1.33-1.09,1.71h2.1ZM69.23,85.35h0ZM72.47,83.04h.79v-1.49h.8v1.49h.97v.69h-.97v3.66c0,.38.08.62.5.62.13,0,.29,0,.39-.03v.62c-.19.07-.47.09-.66.09-.66,0-1.04-.27-1.04-1.15v-3.82h-.79v-.69ZM76.27,85.98c0,1.09.19,2.05,1.07,2.05s.99-.83,1.02-1h.79c-.01.14-.17,1.69-1.81,1.69s-1.87-1.51-1.87-2.89c0-1.77.6-2.88,1.92-2.88,1.47,0,1.81,1.21,1.81,2.6,0,.11,0,.29-.01.43h-2.91ZM78.39,85.35c0-.96-.2-1.71-1.02-1.71-1.02,0-1.07,1.33-1.09,1.71h2.1ZM78.39,85.35h0ZM80.22,84.71c0-.99,0-1.41-.01-1.67h.77c.02.16.03.46.03.71.22-.49.61-.81,1.25-.81.58,0,.99.25,1.16.83.2-.45.62-.83,1.35-.83s1.35.34,1.35,1.62v4.05h-.8v-3.91c0-.56-.16-1.05-.79-1.05-.71,0-.95.63-.95,1.38v3.58h-.8v-3.89c0-.69-.23-1.06-.77-1.06-.67,0-.98.61-.98,1.45v3.5h-.8v-3.91ZM88.23,88.05v2.62h-.8v-6c0-.76,0-1.28-.01-1.63h.78c.01.1.03.47.03.75.2-.48.59-.84,1.33-.84,1.06,0,1.63.94,1.63,2.8,0,2.01-.7,2.97-1.79,2.97-.67,0-1-.32-1.16-.67ZM90.36,85.79c0-1.4-.32-2.13-1.06-2.13-.86,0-1.1.82-1.1,2.14s.13,2.21,1.05,2.21c.73,0,1.1-.85,1.1-2.22ZM93.67,88.06c.61,0,.9-.37.9-.88,0-.58-.3-.84-1.03-1.13-1.15-.44-1.49-.86-1.49-1.63s.46-1.47,1.6-1.47c1.25,0,1.6.85,1.61,1.59h-.79c-.01-.27-.07-.93-.85-.93-.53,0-.77.33-.77.77s.19.67.97.96c1.08.42,1.56.81,1.56,1.77,0,1.02-.64,1.62-1.75,1.62s-1.72-.69-1.75-1.71h.8c.04.6.35,1.05.99,1.05ZM99.28,88.05v2.62h-.8v-6c0-.76,0-1.28-.01-1.63h.78c.01.1.03.47.03.75.2-.48.59-.84,1.33-.84,1.06,0,1.63.94,1.63,2.8,0,2.01-.7,2.97-1.79,2.97-.67,0-1-.32-1.16-.67ZM101.4,85.79c0-1.4-.32-2.13-1.06-2.13-.86,0-1.1.82-1.1,2.14s.13,2.21,1.05,2.21c.73,0,1.1-.85,1.1-2.22ZM106.79,87.09c0,.7,0,1.26.01,1.53h-.77c-.03-.16-.04-.38-.04-.74-.2.55-.67.84-1.33.84s-1.39-.27-1.39-1.67v-4.01h.81v3.82c0,.71.2,1.15.84,1.15s1.06-.38,1.06-1.58v-3.39h.81v4.05ZM108.1,83.04h.8v5.58h-.8v-5.58ZM108.1,80.79h.8v1.15h-.8v-1.15ZM111.6,88.06c.61,0,.9-.37.9-.88,0-.58-.3-.84-1.03-1.13-1.15-.44-1.49-.86-1.49-1.63s.46-1.47,1.6-1.47c1.25,0,1.6.85,1.61,1.59h-.79c-.01-.27-.07-.93-.85-.93-.53,0-.77.33-.77.77s.19.67.97.96c1.08.42,1.56.81,1.56,1.77,0,1.02-.64,1.62-1.75,1.62s-1.72-.69-1.75-1.71h.8c.04.6.35,1.05.99,1.05ZM116.27,85.41v.72h-2.25v-.72h2.25ZM118.13,83.04v5.93c0,1.02-.13,1.78-1.21,1.78-.1,0-.22,0-.35-.03v-.71c.1.01.19.01.25.01.43,0,.5-.27.5-.88v-6.11h.8ZM117.34,81.94v-1.15h.8v1.15h-.8ZM120,85.98c0,1.09.19,2.05,1.07,2.05s.99-.83,1.02-1h.79c-.01.14-.17,1.69-1.81,1.69s-1.87-1.51-1.87-2.89c0-1.77.6-2.88,1.92-2.88,1.47,0,1.81,1.21,1.81,2.6,0,.11,0,.29-.01.43h-2.91ZM122.12,85.35c0-.96-.2-1.71-1.02-1.71-1.02,0-1.07,1.33-1.09,1.71h2.1ZM122.12,85.35h0ZM129.54,88.26c0,1.47-.35,2.49-1.95,2.49-1.44,0-1.75-.94-1.78-1.54h.82c.02.31.2.85.99.85.94,0,1.13-.68,1.13-1.81v-.51c-.2.57-.67.85-1.3.85-1.13,0-1.68-.95-1.68-2.71,0-2.01.74-2.95,1.8-2.95.76,0,1.08.37,1.18.73,0-.25.03-.52.04-.64h.77c-.01.29-.01.86-.01,1.61v3.61ZM126.6,85.88c0,1.35.37,2.01,1.06,2.01.86,0,1.1-.85,1.1-2.15s-.18-2.08-1.03-2.08c-.74,0-1.13.77-1.13,2.22ZM134.04,87.63c0,.35.03.81.04.99h-.74c-.03-.12-.06-.42-.06-.63-.21.45-.63.73-1.32.73-1.07,0-1.46-.84-1.46-1.61,0-1.02.69-1.79,2.15-1.79.26,0,.42,0,.58.02v-.74c0-.44-.08-.99-.84-.99-.82,0-.87.59-.9.96h-.78c.02-.8.4-1.62,1.71-1.62,1.08,0,1.6.53,1.6,1.55v3.13ZM133.27,85.98c-.14-.02-.29-.03-.55-.03-.99,0-1.4.48-1.4,1.1,0,.51.27.99.87.99.82,0,1.08-.58,1.08-1.75v-.3ZM135.36,83.04h.77c.01.14.03.4.03,1,.24-.67.78-1.07,1.47-1.08v.89c-.96.03-1.46.63-1.46,1.66v3.12h-.8v-3.68c0-.89,0-1.5-.01-1.9ZM141.83,80.79v6.4c0,.54,0,1.1.01,1.43h-.78c-.01-.14-.03-.51-.03-.75-.17.48-.53.85-1.31.85-1.16,0-1.65-.99-1.65-2.95,0-1.78.66-2.82,1.83-2.82.72,0,1,.31,1.13.58v-2.74h.8ZM138.89,85.78c0,1.61.37,2.22,1.05,2.22.87,0,1.1-.74,1.1-2.25,0-1.63-.23-2.09-1.03-2.09-.66,0-1.11.58-1.11,2.12ZM143.68,85.98c0,1.09.19,2.05,1.07,2.05s.99-.83,1.02-1h.79c-.01.14-.17,1.69-1.81,1.69s-1.87-1.51-1.87-2.89c0-1.77.6-2.88,1.92-2.88,1.47,0,1.81,1.21,1.81,2.6,0,.11,0,.29-.01.43h-2.91ZM145.79,85.35c0-.96-.2-1.71-1.02-1.71-1.02,0-1.07,1.33-1.09,1.71h2.1ZM145.79,85.35h0ZM147.61,83.04h.77c.01.14.03.4.03,1,.24-.67.78-1.07,1.47-1.08v.89c-.96.03-1.46.63-1.46,1.66v3.12h-.8v-3.68c0-.89,0-1.5-.01-1.9ZM152.76,88.62v-7.83h.8v7.83h-.8ZM155.42,85.98c0,1.09.19,2.05,1.07,2.05s.99-.83,1.02-1h.79c-.01.14-.17,1.69-1.81,1.69s-1.87-1.51-1.87-2.89c0-1.77.6-2.88,1.92-2.88,1.47,0,1.81,1.21,1.81,2.6,0,.11,0,.29-.01.43h-2.91ZM157.54,85.35c0-.96-.2-1.71-1.02-1.71-1.02,0-1.07,1.33-1.09,1.71h2.1ZM157.54,85.35h0ZM160.81,88.06c.61,0,.9-.37.9-.88,0-.58-.3-.84-1.03-1.13-1.15-.44-1.49-.86-1.49-1.63s.46-1.47,1.6-1.47c1.25,0,1.6.85,1.61,1.59h-.79c-.01-.27-.07-.93-.85-.93-.53,0-.77.33-.77.77s.19.67.97.96c1.08.42,1.56.81,1.56,1.77,0,1.02-.64,1.62-1.75,1.62s-1.72-.69-1.75-1.71h.8c.04.6.35,1.05.99,1.05Z"/>
    <path class="cls-5" d="M26.6,100.62v-7.83h.8v7.83h-.8ZM28.73,95.04h.8v5.58h-.8v-5.58ZM28.74,92.79h.8v1.15h-.8v-1.15ZM31.16,95.04c.46,1.81,1.01,3.99,1.12,4.67h.01c.07-.62.91-3.53,1.18-4.67h.81l-1.6,5.58h-.87l-1.51-5.58h.85ZM34.97,95.04h.77c.01.14.03.4.03,1,.24-.67.78-1.07,1.47-1.08v.89c-.96.03-1.46.63-1.46,1.66v3.12h-.8v-3.68c0-.89,0-1.5-.01-1.9ZM38.48,97.98c0,1.09.19,2.05,1.07,2.05s.99-.83,1.02-1h.79c-.01.14-.17,1.69-1.81,1.69s-1.87-1.51-1.87-2.89c0-1.77.6-2.88,1.92-2.88,1.47,0,1.81,1.21,1.81,2.6,0,.11,0,.29-.01.43h-2.91ZM40.6,97.35c0-.96-.2-1.71-1.02-1.71-1.02,0-1.07,1.33-1.09,1.71h2.1ZM40.6,97.35h0ZM43.87,100.06c.61,0,.9-.37.9-.88,0-.58-.3-.84-1.03-1.13-1.15-.44-1.49-.86-1.49-1.63s.46-1.47,1.6-1.47c1.25,0,1.6.85,1.61,1.59h-.79c-.01-.27-.07-.93-.85-.93-.53,0-.77.33-.77.77s.19.67.97.96c1.08.42,1.56.81,1.56,1.77,0,1.02-.64,1.62-1.75,1.62s-1.72-.69-1.75-1.71h.8c.04.6.35,1.05.99,1.05ZM51.37,99.91c-.21.48-.59.8-1.31.8-1.04,0-1.66-.86-1.66-2.89,0-1.85.7-2.88,1.8-2.88.74,0,1.05.35,1.17.7,0-.31.02-.5.03-.6h.78c-.01.4-.01.86-.01,1.65v5.98h-.79v-2.76ZM49.23,97.84c0,1.33.31,2.18,1.06,2.18.9,0,1.09-.78,1.09-2.21s-.12-2.15-1.03-2.15c-.7,0-1.11.76-1.11,2.18ZM57,99.09c0,.7,0,1.26.01,1.53h-.77c-.03-.16-.04-.38-.04-.74-.2.55-.67.84-1.33.84s-1.39-.27-1.39-1.67v-4.01h.81v3.82c0,.71.2,1.15.84,1.15s1.06-.38,1.06-1.58v-3.39h.81v4.05ZM58.84,97.98c0,1.09.19,2.05,1.07,2.05s.99-.83,1.02-1h.79c-.01.14-.17,1.69-1.81,1.69s-1.87-1.51-1.87-2.89c0-1.77.6-2.88,1.92-2.88,1.47,0,1.81,1.21,1.81,2.6,0,.11,0,.29-.01.43h-2.91ZM60.96,97.35c0-.96-.2-1.71-1.02-1.71-1.02,0-1.07,1.33-1.09,1.71h2.1ZM60.96,97.35h0ZM65.71,95.04v5.93c0,1.02-.13,1.78-1.21,1.78-.1,0-.22,0-.35-.03v-.71c.1.01.19.01.25.01.43,0,.5-.27.5-.88v-6.11h.8ZM64.92,93.94v-1.15h.8v1.15h-.8ZM66.63,95.3c.2-.76.38-1.68.38-2.54h.78c-.01.94-.3,2.07-.51,2.54h-.65ZM71.56,99.63c0,.35.03.81.04.99h-.74c-.03-.12-.06-.42-.06-.63-.21.45-.63.73-1.32.73-1.07,0-1.46-.84-1.46-1.61,0-1.02.69-1.79,2.15-1.79.26,0,.42,0,.58.02v-.74c0-.44-.08-.99-.84-.99-.82,0-.87.59-.9.96h-.78c.02-.8.4-1.62,1.71-1.62,1.08,0,1.6.53,1.6,1.55v3.13ZM70.79,97.98c-.14-.02-.29-.03-.55-.03-.99,0-1.4.48-1.4,1.1,0,.51.27.99.87.99.82,0,1.08-.58,1.08-1.75v-.3ZM72.9,95.04h.8v5.58h-.8v-5.58ZM72.9,92.79h.8v1.15h-.8v-1.15ZM77.67,97.98c0,1.09.19,2.05,1.07,2.05s.99-.83,1.02-1h.79c-.01.14-.17,1.69-1.81,1.69s-1.87-1.51-1.87-2.89c0-1.77.6-2.88,1.92-2.88,1.47,0,1.81,1.21,1.81,2.6,0,.11,0,.29-.01.43h-2.91ZM79.78,97.35c0-.96-.2-1.71-1.02-1.71-1.02,0-1.07,1.33-1.09,1.71h2.1ZM79.78,97.35h0ZM81.61,96.71c0-.99,0-1.41-.01-1.67h.77c.02.16.03.46.03.71.22-.49.61-.81,1.25-.81.58,0,.99.25,1.16.83.2-.45.62-.83,1.35-.83s1.35.34,1.35,1.62v4.05h-.8v-3.91c0-.56-.16-1.05-.79-1.05-.71,0-.95.63-.95,1.38v3.58h-.8v-3.89c0-.69-.23-1.06-.77-1.06-.67,0-.98.61-.98,1.45v3.5h-.8v-3.91ZM89.63,100.05v2.62h-.8v-6c0-.76,0-1.28-.01-1.63h.78c.01.1.03.47.03.75.2-.48.59-.84,1.33-.84,1.06,0,1.63.94,1.63,2.8,0,2.01-.7,2.97-1.79,2.97-.67,0-1-.32-1.16-.67ZM91.76,97.79c0-1.4-.32-2.13-1.06-2.13-.86,0-1.1.82-1.1,2.14s.13,2.21,1.05,2.21c.73,0,1.1-.85,1.1-2.22ZM93.62,95.04h.77c.01.14.03.4.03,1,.24-.67.78-1.07,1.47-1.08v.89c-.96.03-1.46.63-1.46,1.66v3.12h-.8v-3.68c0-.89,0-1.5-.01-1.9ZM100.14,99.09c0,.7,0,1.26.01,1.53h-.77c-.03-.16-.04-.38-.04-.74-.2.55-.67.84-1.33.84s-1.39-.27-1.39-1.67v-4.01h.81v3.82c0,.71.2,1.15.84,1.15s1.06-.38,1.06-1.58v-3.39h.81v4.05ZM101.39,95.04h.78c.01.14.03.36.03.73.19-.44.57-.83,1.32-.83.81,0,1.43.46,1.43,1.7v3.97h-.81v-3.82c0-.68-.22-1.14-.86-1.14-.75,0-1.07.49-1.07,1.64v3.32h-.81v-3.85c0-1.14,0-1.47-.01-1.73ZM105.58,95.04h.79v-1.49h.8v1.49h.97v.69h-.97v3.66c0,.38.08.62.5.62.13,0,.29,0,.39-.03v.62c-.19.07-.47.09-.66.09-.66,0-1.04-.27-1.04-1.15v-3.82h-.79v-.69ZM109.38,97.98c0,1.09.19,2.05,1.07,2.05s.99-.83,1.02-1h.79c-.01.14-.17,1.69-1.81,1.69s-1.87-1.51-1.87-2.89c0-1.77.6-2.88,1.92-2.88,1.47,0,1.81,1.21,1.81,2.6,0,.11,0,.29-.01.43h-2.91ZM111.5,97.35c0-.96-.2-1.71-1.02-1.71-1.02,0-1.07,1.33-1.09,1.71h2.1ZM112.02,92.66l-1.38,1.53h-.75l1.18-1.53h.95ZM111.5,97.35h0ZM114.77,100.06c.61,0,.9-.37.9-.88,0-.58-.3-.84-1.03-1.13-1.15-.44-1.49-.86-1.49-1.63s.46-1.47,1.6-1.47c1.25,0,1.6.85,1.61,1.59h-.79c-.01-.27-.07-.93-.85-.93-.53,0-.77.33-.77.77s.19.67.97.96c1.08.42,1.56.81,1.56,1.77,0,1.02-.64,1.62-1.75,1.62s-1.72-.69-1.75-1.71h.8c.04.6.35,1.05.99,1.05ZM120.57,98.38v-.15c0-.57.14-1.07.74-1.87.45-.61.6-1.01.6-1.52,0-.61-.23-1.11-.88-1.11-.6,0-.89.5-.92,1.3h-.76c.02-.87.36-1.97,1.72-1.97,1.22,0,1.65.79,1.65,1.78,0,.79-.25,1.26-.84,2.04-.39.53-.51.96-.51,1.41v.08h-.81ZM120.56,100.63v-1.38h.81v1.38h-.81Z"/>
    <path class="cls-5" d="M29.84,114.47c0,.35.03.81.04.99h-.74c-.03-.12-.06-.42-.06-.63-.21.45-.63.73-1.32.73-1.07,0-1.46-.84-1.46-1.61,0-1.02.69-1.79,2.15-1.79.26,0,.42,0,.58.02v-.74c0-.44-.08-.99-.84-.99-.82,0-.87.59-.9.96h-.78c.02-.8.4-1.62,1.71-1.62,1.08,0,1.6.53,1.6,1.55v3.13ZM29.07,112.82c-.14-.02-.29-.03-.55-.03-.99,0-1.4.48-1.4,1.1,0,.51.27.99.87.99.82,0,1.08-.58,1.08-1.75v-.3ZM30.92,113.95h.82v1.51h-.82v-1.51Z"/>
    <path class="cls-5" d="M36.17,115.46v-.06c0-.9.51-1.89,1.64-3.14.93-1.02,1.21-1.4,1.21-2.23,0-.65-.18-1.25-.95-1.25-.69,0-.99.53-1.02,1.4h-.79c.01-1.06.51-2.07,1.83-2.07s1.76.87,1.76,1.94c0,1-.34,1.49-1.3,2.51-.88.93-1.33,1.69-1.46,2.2h2.95l-.12.71h-3.77ZM40.71,113.41c0-1.18.55-1.65.93-1.85-.44-.25-.75-.75-.75-1.56,0-1,.55-1.9,1.75-1.9,1.14,0,1.67.81,1.67,1.82s-.38,1.44-.77,1.62c.52.22.94.77.94,1.88,0,1.23-.62,2.14-1.92,2.14s-1.85-.92-1.85-2.14ZM43.67,113.42c0-.99-.33-1.5-1.08-1.5-.81,0-1.07.61-1.07,1.47s.31,1.5,1.07,1.5,1.08-.58,1.08-1.47ZM41.68,109.97c0,.75.24,1.27.93,1.27.6,0,.92-.37.92-1.25,0-.65-.25-1.21-.93-1.21s-.92.58-.92,1.2ZM48.48,109.88v5.93c0,1.02-.13,1.78-1.21,1.78-.1,0-.22,0-.35-.03v-.71c.1.01.19.01.25.01.43,0,.5-.27.5-.88v-6.11h.8ZM47.69,108.78v-1.15h.8v1.15h-.8ZM53.38,112.6c0,1.96-.66,2.96-1.92,2.96s-1.92-.96-1.92-2.94.76-2.83,1.95-2.83,1.89.94,1.89,2.82ZM50.37,112.63c0,1.52.38,2.24,1.1,2.24s1.09-.73,1.09-2.24c0-1.43-.35-2.13-1.09-2.13s-1.1.63-1.1,2.14ZM57.94,113.93c0,.7,0,1.26.01,1.53h-.77c-.03-.16-.04-.38-.04-.74-.2.55-.67.84-1.33.84s-1.39-.27-1.39-1.67v-4.01h.81v3.82c0,.71.2,1.15.84,1.15s1.06-.38,1.06-1.58v-3.39h.81v4.05ZM59.18,109.88h.77c.01.14.03.4.03,1,.24-.67.78-1.07,1.47-1.08v.89c-.96.03-1.46.63-1.46,1.66v3.12h-.8v-3.68c0-.89,0-1.5-.01-1.9ZM63.66,114.9c.61,0,.9-.37.9-.88,0-.58-.3-.84-1.03-1.13-1.15-.44-1.49-.86-1.49-1.63s.46-1.47,1.6-1.47c1.25,0,1.6.85,1.61,1.59h-.79c-.01-.27-.07-.93-.85-.93-.53,0-.77.33-.77.77s.19.67.97.96c1.08.42,1.56.81,1.56,1.77,0,1.02-.64,1.62-1.75,1.62s-1.72-.69-1.75-1.71h.8c.04.6.35,1.05.99,1.05ZM69.27,114.89v2.62h-.8v-6c0-.76,0-1.28-.01-1.63h.78c.01.1.03.47.03.75.2-.48.59-.84,1.33-.84,1.06,0,1.63.94,1.63,2.8,0,2.01-.7,2.97-1.79,2.97-.67,0-1-.32-1.16-.67ZM71.4,112.63c0-1.4-.32-2.13-1.06-2.13-.86,0-1.1.82-1.1,2.14s.13,2.21,1.05,2.21c.73,0,1.1-.85,1.1-2.22ZM76.86,112.6c0,1.96-.66,2.96-1.92,2.96s-1.92-.96-1.92-2.94.76-2.83,1.95-2.83,1.89.94,1.89,2.82ZM73.84,112.63c0,1.52.38,2.24,1.1,2.24s1.09-.73,1.09-2.24c0-1.43-.35-2.13-1.09-2.13s-1.1.63-1.1,2.14ZM81.41,113.93c0,.7,0,1.26.01,1.53h-.77c-.03-.16-.04-.38-.04-.74-.2.55-.67.84-1.33.84s-1.39-.27-1.39-1.67v-4.01h.81v3.82c0,.71.2,1.15.84,1.15s1.06-.38,1.06-1.58v-3.39h.81v4.05ZM82.65,109.88h.77c.01.14.03.4.03,1,.24-.67.78-1.07,1.47-1.08v.89c-.96.03-1.46.63-1.46,1.66v3.12h-.8v-3.68c0-.89,0-1.5-.01-1.9ZM87.8,115.46v-7.83h.8v7.83h-.8ZM93.12,114.47c0,.35.03.81.04.99h-.74c-.03-.12-.06-.42-.06-.63-.21.45-.63.73-1.32.73-1.07,0-1.46-.84-1.46-1.61,0-1.02.69-1.79,2.15-1.79.26,0,.42,0,.58.02v-.74c0-.44-.08-.99-.84-.99-.82,0-.87.59-.9.96h-.78c.02-.8.4-1.62,1.71-1.62,1.08,0,1.6.53,1.6,1.55v3.13ZM92.35,112.82c-.14-.02-.29-.03-.55-.03-.99,0-1.4.48-1.4,1.1,0,.51.27.99.87.99.82,0,1.08-.58,1.08-1.75v-.3ZM97.36,114.89v2.62h-.8v-6c0-.76,0-1.28-.01-1.63h.78c.01.1.03.47.03.75.2-.48.59-.84,1.33-.84,1.06,0,1.63.94,1.63,2.8,0,2.01-.7,2.97-1.79,2.97-.67,0-1-.32-1.16-.67ZM99.49,112.63c0-1.4-.32-2.13-1.06-2.13-.86,0-1.1.82-1.1,2.14s.13,2.21,1.05,2.21c.73,0,1.1-.85,1.1-2.22ZM101.36,115.46v-7.83h.8v7.83h-.8ZM107.01,113.93c0,.7,0,1.26.01,1.53h-.77c-.03-.16-.04-.38-.04-.74-.2.55-.67.84-1.33.84s-1.39-.27-1.39-1.67v-4.01h.81v3.82c0,.71.2,1.15.84,1.15s1.06-.38,1.06-1.58v-3.39h.81v4.05ZM109.07,114.89v2.62h-.8v-6c0-.76,0-1.28-.01-1.63h.78c.01.1.03.47.03.75.2-.48.59-.84,1.33-.84,1.06,0,1.63.94,1.63,2.8,0,2.01-.7,2.97-1.79,2.97-.67,0-1-.32-1.16-.67ZM111.19,112.63c0-1.4-.32-2.13-1.06-2.13-.86,0-1.1.82-1.1,2.14s.13,2.21,1.05,2.21c.73,0,1.1-.85,1.1-2.22ZM116.28,114.47c0,.35.03.81.04.99h-.74c-.03-.12-.06-.42-.06-.63-.21.45-.63.73-1.32.73-1.07,0-1.46-.84-1.46-1.61,0-1.02.69-1.79,2.15-1.79.26,0,.42,0,.58.02v-.74c0-.44-.08-.99-.84-.99-.82,0-.87.59-.9.96h-.78c.02-.8.4-1.62,1.71-1.62,1.08,0,1.6.53,1.6,1.55v3.13ZM115.51,112.82c-.14-.02-.29-.03-.55-.03-.99,0-1.4.48-1.4,1.1,0,.51.27.99.87.99.82,0,1.08-.58,1.08-1.75v-.3ZM117.61,109.88h.77c.01.14.03.4.03,1,.24-.67.78-1.07,1.47-1.08v.89c-.96.03-1.46.63-1.46,1.66v3.12h-.8v-3.68c0-.89,0-1.5-.01-1.9ZM120.34,109.88h.79v-1.49h.8v1.49h.97v.69h-.97v3.66c0,.38.08.62.5.62.13,0,.29,0,.39-.03v.62c-.19.07-.47.09-.66.09-.66,0-1.04-.27-1.04-1.15v-3.82h-.79v-.69ZM129.25,107.63v6.4c0,.54,0,1.1.01,1.43h-.78c-.01-.14-.03-.51-.03-.75-.17.48-.53.85-1.31.85-1.16,0-1.65-.99-1.65-2.95,0-1.78.66-2.82,1.83-2.82.72,0,1,.31,1.13.58v-2.74h.8ZM126.31,112.62c0,1.61.37,2.22,1.05,2.22.87,0,1.1-.74,1.1-2.25,0-1.63-.23-2.09-1.03-2.09-.66,0-1.11.58-1.11,2.12ZM131.09,112.82c0,1.09.19,2.05,1.07,2.05s.99-.83,1.02-1h.79c-.01.14-.17,1.69-1.81,1.69s-1.87-1.51-1.87-2.89c0-1.77.6-2.88,1.92-2.88,1.47,0,1.81,1.21,1.81,2.6,0,.11,0,.29-.01.43h-2.91ZM133.21,112.19c0-.96-.2-1.71-1.02-1.71-1.02,0-1.07,1.33-1.09,1.71h2.1ZM133.21,112.19h0ZM136.48,114.9c.61,0,.9-.37.9-.88,0-.58-.3-.84-1.03-1.13-1.15-.44-1.49-.86-1.49-1.63s.46-1.47,1.6-1.47c1.25,0,1.6.85,1.61,1.59h-.79c-.01-.27-.07-.93-.85-.93-.53,0-.77.33-.77.77s.19.67.97.96c1.08.42,1.56.81,1.56,1.77,0,1.02-.64,1.62-1.75,1.62s-1.72-.69-1.75-1.71h.8c.04.6.35,1.05.99,1.05ZM141.28,115.46v-7.83h.8v7.83h-.8ZM143.42,109.88h.8v5.58h-.8v-5.58ZM143.42,107.63h.8v1.15h-.8v-1.15ZM145.85,109.88c.46,1.81,1.01,3.99,1.12,4.67h.01c.07-.62.91-3.53,1.18-4.67h.81l-1.6,5.58h-.87l-1.51-5.58h.85ZM149.65,109.88h.77c.01.14.03.4.03,1,.24-.67.78-1.07,1.47-1.08v.89c-.96.03-1.46.63-1.46,1.66v3.12h-.8v-3.68c0-.89,0-1.5-.01-1.9ZM153.17,112.82c0,1.09.19,2.05,1.07,2.05s.99-.83,1.02-1h.79c-.01.14-.17,1.69-1.81,1.69s-1.87-1.51-1.87-2.89c0-1.77.6-2.88,1.92-2.88,1.47,0,1.81,1.21,1.81,2.6,0,.11,0,.29-.01.43h-2.91ZM155.29,112.19c0-.96-.2-1.71-1.02-1.71-1.02,0-1.07,1.33-1.09,1.71h2.1ZM155.29,112.19h0ZM158.56,114.9c.61,0,.9-.37.9-.88,0-.58-.3-.84-1.03-1.13-1.15-.44-1.49-.86-1.49-1.63s.46-1.47,1.6-1.47c1.25,0,1.6.85,1.61,1.59h-.79c-.01-.27-.07-.93-.85-.93-.53,0-.77.33-.77.77s.19.67.97.96c1.08.42,1.56.81,1.56,1.77,0,1.02-.64,1.62-1.75,1.62s-1.72-.69-1.75-1.71h.8c.04.6.35,1.05.99,1.05Z"/>
    <path class="cls-5" d="M26.6,122.46h.8v2.99c.18-.43.57-.83,1.33-.83,1.07,0,1.63.89,1.63,2.74,0,1.72-.46,3.02-1.78,3.02-.71,0-1.03-.36-1.2-.75,0,.18-.01.44-.03.66h-.76c.01-.3.01-.85.01-1.53v-6.3ZM29.55,127.38c0-1.4-.33-2.04-1.03-2.04-.86,0-1.14.77-1.14,2.18,0,1.34.22,2.16,1.06,2.16.74,0,1.1-.72,1.1-2.3ZM31.12,128.79h.82v1.51h-.82v-1.51Z"/>
    <path class="cls-5" d="M36.86,130.3h-.82s1.8-7.47,1.8-7.47h1.06l1.86,7.47h-.87l-.55-2.37h-1.94l-.54,2.37ZM39.18,127.2c-.43-1.84-.71-3-.81-3.6h-.03c-.1.65-.41,1.99-.77,3.6h1.61ZM45,128.77c0,.7,0,1.26.01,1.53h-.77c-.03-.16-.04-.38-.04-.74-.2.55-.67.84-1.33.84s-1.39-.27-1.39-1.67v-4.01h.81v3.82c0,.71.2,1.15.84,1.15s1.06-.38,1.06-1.58v-3.39h.81v4.05ZM45.74,124.72h.79v-1.49h.8v1.49h.97v.69h-.97v3.66c0,.38.08.62.5.62.13,0,.29,0,.39-.03v.62c-.19.07-.47.09-.66.09-.66,0-1.04-.27-1.04-1.15v-3.82h-.79v-.69ZM52.32,129.31c0,.35.03.81.04.99h-.74c-.03-.12-.06-.42-.06-.63-.21.45-.63.73-1.32.73-1.07,0-1.46-.84-1.46-1.61,0-1.02.69-1.79,2.15-1.79.26,0,.42,0,.58.02v-.74c0-.44-.08-.99-.84-.99-.82,0-.87.59-.9.96h-.78c.02-.8.4-1.62,1.71-1.62,1.08,0,1.6.53,1.6,1.55v3.13ZM51.55,127.66c-.14-.02-.29-.03-.55-.03-.99,0-1.4.48-1.4,1.1,0,.51.27.99.87.99.82,0,1.08-.58,1.08-1.75v-.3ZM53.65,124.72h.78c.01.14.03.36.03.73.19-.44.57-.83,1.32-.83.81,0,1.43.46,1.43,1.7v3.97h-.81v-3.82c0-.68-.22-1.14-.86-1.14-.75,0-1.07.49-1.07,1.64v3.32h-.81v-3.85c0-1.14,0-1.47-.01-1.73ZM57.84,124.72h.79v-1.49h.8v1.49h.97v.69h-.97v3.66c0,.38.08.62.5.62.13,0,.29,0,.39-.03v.62c-.19.07-.47.09-.66.09-.66,0-1.04-.27-1.04-1.15v-3.82h-.79v-.69ZM66.75,122.46v6.4c0,.54,0,1.1.01,1.43h-.78c-.01-.14-.03-.51-.03-.75-.17.48-.53.85-1.31.85-1.16,0-1.65-.99-1.65-2.95,0-1.78.66-2.82,1.83-2.82.72,0,1,.31,1.13.58v-2.74h.8ZM63.81,127.46c0,1.61.37,2.22,1.05,2.22.87,0,1.1-.74,1.1-2.25,0-1.63-.23-2.09-1.03-2.09-.66,0-1.11.58-1.11,2.12ZM68.59,127.66c0,1.09.19,2.05,1.07,2.05s.99-.83,1.02-1h.79c-.01.14-.17,1.69-1.81,1.69s-1.87-1.51-1.87-2.89c0-1.77.6-2.88,1.92-2.88,1.47,0,1.81,1.21,1.81,2.6,0,.11,0,.29-.01.43h-2.91ZM70.71,127.03c0-.96-.2-1.71-1.02-1.71-1.02,0-1.07,1.33-1.09,1.71h2.1ZM70.71,127.03h0ZM73.94,124.72h.79v-1.49h.8v1.49h.97v.69h-.97v3.66c0,.38.08.62.5.62.13,0,.29,0,.39-.03v.62c-.19.07-.47.09-.66.09-.66,0-1.04-.27-1.04-1.15v-3.82h-.79v-.69ZM77.74,127.66c0,1.09.19,2.05,1.07,2.05s.99-.83,1.02-1h.79c-.01.14-.17,1.69-1.81,1.69s-1.87-1.51-1.87-2.89c0-1.77.6-2.88,1.92-2.88,1.47,0,1.81,1.21,1.81,2.6,0,.11,0,.29-.01.43h-2.91ZM79.86,127.03c0-.96-.2-1.71-1.02-1.71-1.02,0-1.07,1.33-1.09,1.71h2.1ZM79.86,127.03h0ZM81.69,126.39c0-.99,0-1.41-.01-1.67h.77c.02.16.03.46.03.71.22-.49.61-.81,1.25-.81.58,0,.99.25,1.16.83.2-.45.62-.83,1.35-.83s1.35.34,1.35,1.62v4.05h-.8v-3.91c0-.56-.16-1.05-.79-1.05-.71,0-.95.63-.95,1.38v3.58h-.8v-3.89c0-.69-.23-1.06-.77-1.06-.67,0-.98.61-.98,1.45v3.5h-.8v-3.91ZM89.71,129.73v2.62h-.8v-6c0-.76,0-1.28-.01-1.63h.78c.01.1.03.47.03.75.2-.48.59-.84,1.33-.84,1.06,0,1.63.94,1.63,2.8,0,2.01-.7,2.97-1.79,2.97-.67,0-1-.32-1.16-.67ZM91.83,127.47c0-1.4-.32-2.13-1.06-2.13-.86,0-1.1.82-1.1,2.14s.13,2.21,1.05,2.21c.73,0,1.1-.85,1.1-2.22ZM95.14,129.74c.61,0,.9-.37.9-.88,0-.58-.3-.84-1.03-1.13-1.15-.44-1.49-.86-1.49-1.63s.46-1.47,1.6-1.47c1.25,0,1.6.85,1.61,1.59h-.79c-.01-.27-.07-.93-.85-.93-.53,0-.77.33-.77.77s.19.67.97.96c1.08.42,1.56.81,1.56,1.77,0,1.02-.64,1.62-1.75,1.62s-1.72-.69-1.75-1.71h.8c.04.6.35,1.05.99,1.05ZM102.64,129.59c-.21.48-.59.8-1.31.8-1.04,0-1.66-.86-1.66-2.89,0-1.85.7-2.88,1.8-2.88.74,0,1.05.35,1.17.7,0-.31.02-.5.03-.6h.78c-.01.4-.01.86-.01,1.65v5.98h-.79v-2.76ZM100.5,127.52c0,1.33.31,2.18,1.06,2.18.9,0,1.09-.78,1.09-2.21s-.12-2.15-1.03-2.15c-.7,0-1.11.76-1.11,2.18ZM108.27,128.77c0,.7,0,1.26.01,1.53h-.77c-.03-.16-.04-.38-.04-.74-.2.55-.67.84-1.33.84s-1.39-.27-1.39-1.67v-4.01h.81v3.82c0,.71.2,1.15.84,1.15s1.06-.38,1.06-1.58v-3.39h.81v4.05ZM110.12,127.66c0,1.09.19,2.05,1.07,2.05s.99-.83,1.02-1h.79c-.01.14-.17,1.69-1.81,1.69s-1.87-1.51-1.87-2.89c0-1.77.6-2.88,1.92-2.88,1.47,0,1.81,1.21,1.81,2.6,0,.11,0,.29-.01.43h-2.91ZM112.23,127.03c0-.96-.2-1.71-1.02-1.71-1.02,0-1.07,1.33-1.09,1.71h2.1ZM112.23,127.03h0ZM116.98,124.72v5.93c0,1.02-.13,1.78-1.21,1.78-.1,0-.22,0-.35-.03v-.71c.1.01.19.01.25.01.43,0,.5-.27.5-.88v-6.11h.8ZM116.19,123.62v-1.15h.8v1.15h-.8ZM117.9,124.98c.2-.76.38-1.68.38-2.54h.78c-.01.94-.3,2.07-.51,2.54h-.65ZM119.96,127.66c0,1.09.19,2.05,1.07,2.05s.99-.83,1.02-1h.79c-.01.14-.17,1.69-1.81,1.69s-1.87-1.51-1.87-2.89c0-1.77.6-2.88,1.92-2.88,1.47,0,1.81,1.21,1.81,2.6,0,.11,0,.29-.01.43h-2.91ZM122.08,127.03c0-.96-.2-1.71-1.02-1.71-1.02,0-1.07,1.33-1.09,1.71h2.1ZM122.08,127.03h0ZM123.89,124.72h.78c.01.14.03.36.03.73.19-.44.57-.83,1.32-.83.81,0,1.43.46,1.43,1.7v3.97h-.81v-3.82c0-.68-.22-1.14-.86-1.14-.75,0-1.07.49-1.07,1.64v3.32h-.81v-3.85c0-1.14,0-1.47-.01-1.73ZM134.06,129.31c0,.35.03.81.04.99h-.74c-.03-.12-.06-.42-.06-.63-.21.45-.63.73-1.32.73-1.07,0-1.46-.84-1.46-1.61,0-1.02.69-1.79,2.15-1.79.26,0,.42,0,.58.02v-.74c0-.44-.08-.99-.84-.99-.82,0-.87.59-.9.96h-.78c.02-.8.4-1.62,1.71-1.62,1.08,0,1.6.53,1.6,1.55v3.13ZM133.29,127.66c-.14-.02-.29-.03-.55-.03-.99,0-1.4.48-1.4,1.1,0,.51.27.99.87.99.82,0,1.08-.58,1.08-1.75v-.3ZM135.4,124.72h.8v5.58h-.8v-5.58ZM135.4,122.46h.8v1.15h-.8v-1.15ZM139.64,122.46h.8v2.99c.18-.43.57-.83,1.33-.83,1.07,0,1.63.89,1.63,2.74,0,1.72-.46,3.02-1.78,3.02-.71,0-1.03-.36-1.2-.75,0,.18-.01.44-.03.66h-.76c.01-.3.01-.85.01-1.53v-6.3ZM142.58,127.38c0-1.4-.33-2.04-1.03-2.04-.86,0-1.14.77-1.14,2.18,0,1.34.22,2.16,1.06,2.16.74,0,1.1-.72,1.1-2.3ZM144.99,127.66c0,1.09.19,2.05,1.07,2.05s.99-.83,1.02-1h.79c-.01.14-.17,1.69-1.81,1.69s-1.87-1.51-1.87-2.89c0-1.77.6-2.88,1.92-2.88,1.47,0,1.81,1.21,1.81,2.6,0,.11,0,.29-.01.43h-2.91ZM147.1,127.03c0-.96-.2-1.71-1.02-1.71-1.02,0-1.07,1.33-1.09,1.71h2.1ZM147.1,127.03h0ZM150.37,129.74c.61,0,.9-.37.9-.88,0-.58-.3-.84-1.03-1.13-1.15-.44-1.49-.86-1.49-1.63s.46-1.47,1.6-1.47c1.25,0,1.6.85,1.61,1.59h-.79c-.01-.27-.07-.93-.85-.93-.53,0-.77.33-.77.77s.19.67.97.96c1.08.42,1.56.81,1.56,1.77,0,1.02-.64,1.62-1.75,1.62s-1.72-.69-1.75-1.71h.8c.04.6.35,1.05.99,1.05ZM156.65,127.44c0,1.96-.66,2.96-1.92,2.96s-1.92-.96-1.92-2.94.76-2.83,1.95-2.83,1.89.94,1.89,2.82ZM153.63,127.46c0,1.52.38,2.24,1.1,2.24s1.09-.73,1.09-2.24c0-1.43-.35-2.13-1.09-2.13s-1.1.63-1.1,2.14ZM157.7,124.72h.8v5.58h-.8v-5.58ZM157.7,122.46h.8v1.15h-.8v-1.15ZM159.82,124.72h.78c.01.14.03.36.03.73.19-.44.57-.83,1.32-.83.81,0,1.43.46,1.43,1.7v3.97h-.81v-3.82c0-.68-.22-1.14-.86-1.14-.75,0-1.07.49-1.07,1.64v3.32h-.81v-3.85c0-1.14,0-1.47-.01-1.73Z"/>
    <path class="cls-5" d="M29.95,143.43c-.02.3-.14,1.8-1.77,1.8-1.46,0-1.85-1.29-1.85-2.91s.51-2.87,1.93-2.87c1.62,0,1.7,1.5,1.7,1.76h-.82c-.01-.23-.09-1.07-.88-1.07s-1.1.88-1.1,2.17c0,1.39.3,2.22,1.06,2.22.81,0,.9-.81.94-1.11h.8ZM30.83,143.63h.82v1.51h-.82v-1.51Z"/>
    <path class="cls-5" d="M39.29,139.39c-.02-.13-.08-.93-.88-.93-1.12,0-1.16,1.74-1.19,2.69.19-.37.6-.76,1.32-.76,1.11,0,1.68.89,1.68,2.31,0,1.34-.48,2.55-1.9,2.55-1.58,0-1.91-1.49-1.91-3.56,0-2.35.46-3.89,2.04-3.89,1.34,0,1.59,1.13,1.6,1.6h-.76ZM39.4,142.76c0-1.06-.29-1.69-1.05-1.69-.82,0-1.14.68-1.14,1.38,0,.98.21,2.12,1.11,2.12.67,0,1.08-.59,1.08-1.81ZM42.98,145.24c-1.45,0-1.91-1.28-1.91-3.82,0-2.76.71-3.63,1.94-3.63,1.32,0,1.88,1.03,1.88,3.64s-.51,3.82-1.91,3.82ZM42.99,144.55c.87,0,1.09-1.02,1.09-3.13s-.26-2.94-1.07-2.94-1.11.74-1.11,2.92.21,3.15,1.09,3.15ZM48.94,139.56v5.93c0,1.02-.13,1.78-1.21,1.78-.1,0-.22,0-.35-.03v-.71c.1.01.19.01.25.01.43,0,.5-.27.5-.88v-6.11h.8ZM48.15,138.46v-1.15h.8v1.15h-.8ZM53.84,142.28c0,1.96-.66,2.96-1.92,2.96s-1.92-.96-1.92-2.94.76-2.83,1.95-2.83,1.89.94,1.89,2.82ZM50.83,142.3c0,1.52.38,2.24,1.1,2.24s1.09-.73,1.09-2.24c0-1.43-.35-2.13-1.09-2.13s-1.1.63-1.1,2.14ZM58.4,143.61c0,.7,0,1.26.01,1.53h-.77c-.03-.16-.04-.38-.04-.74-.2.55-.67.84-1.33.84s-1.39-.27-1.39-1.67v-4.01h.81v3.82c0,.71.2,1.15.84,1.15s1.06-.38,1.06-1.58v-3.39h.81v4.05ZM59.64,139.56h.77c.01.14.03.4.03,1,.24-.67.78-1.07,1.47-1.08v.89c-.96.03-1.46.63-1.46,1.66v3.12h-.8v-3.68c0-.89,0-1.5-.01-1.9ZM64.12,144.58c.61,0,.9-.37.9-.88,0-.58-.3-.84-1.03-1.13-1.15-.44-1.49-.86-1.49-1.63s.46-1.47,1.6-1.47c1.25,0,1.6.85,1.61,1.59h-.79c-.01-.27-.07-.93-.85-.93-.53,0-.77.33-.77.77s.19.67.97.96c1.08.42,1.56.81,1.56,1.77,0,1.02-.64,1.62-1.75,1.62s-1.72-.69-1.75-1.71h.8c.04.6.35,1.05.99,1.05ZM68.93,141.23c0-.99,0-1.41-.01-1.67h.77c.02.16.03.46.03.71.22-.49.61-.81,1.25-.81.58,0,.99.25,1.16.83.2-.45.62-.83,1.35-.83s1.35.34,1.35,1.62v4.05h-.8v-3.91c0-.56-.16-1.05-.79-1.05-.71,0-.95.63-.95,1.38v3.58h-.8v-3.89c0-.69-.23-1.06-.77-1.06-.67,0-.98.61-.98,1.45v3.5h-.8v-3.91ZM79.29,144.15c0,.35.03.81.04.99h-.74c-.03-.12-.06-.42-.06-.63-.21.45-.63.73-1.32.73-1.07,0-1.46-.84-1.46-1.61,0-1.02.69-1.79,2.15-1.79.26,0,.42,0,.58.02v-.74c0-.44-.08-.99-.84-.99-.82,0-.87.59-.9.96h-.78c.02-.8.4-1.62,1.71-1.62,1.08,0,1.6.53,1.6,1.55v3.13ZM78.52,142.49c-.14-.02-.29-.03-.55-.03-.99,0-1.4.48-1.4,1.1,0,.51.27.99.87.99.82,0,1.08-.58,1.08-1.75v-.3ZM80.89,139.56c.58,1.21.88,1.76,1.02,2.07h.01c.18-.38.56-1.11,1.05-2.07h.86l-1.47,2.66,1.48,2.92h-.9c-.55-1.15-.89-1.83-1.05-2.17h-.01c-.14.3-.55,1.13-1.07,2.17h-.86l1.47-2.8-1.43-2.78h.89ZM84.52,139.56h.8v5.58h-.8v-5.58ZM84.53,137.3h.8v1.15h-.8v-1.15ZM86.66,141.23c0-.99,0-1.41-.01-1.67h.77c.02.16.03.46.03.71.22-.49.61-.81,1.25-.81.58,0,.99.25,1.16.83.2-.45.62-.83,1.35-.83s1.35.34,1.35,1.62v4.05h-.8v-3.91c0-.56-.16-1.05-.79-1.05-.71,0-.95.63-.95,1.38v3.58h-.8v-3.89c0-.69-.23-1.06-.77-1.06-.67,0-.98.61-.98,1.45v3.5h-.8v-3.91ZM97.39,143.61c0,.7,0,1.26.01,1.53h-.77c-.03-.16-.04-.38-.04-.74-.2.55-.67.84-1.33.84s-1.39-.27-1.39-1.67v-4.01h.81v3.82c0,.71.2,1.15.84,1.15s1.06-.38,1.06-1.58v-3.39h.81v4.05ZM98.65,141.23c0-.99,0-1.41-.01-1.67h.77c.02.16.03.46.03.71.22-.49.61-.81,1.25-.81.58,0,.99.25,1.16.83.2-.45.62-.83,1.35-.83s1.35.34,1.35,1.62v4.05h-.8v-3.91c0-.56-.16-1.05-.79-1.05-.71,0-.95.63-.95,1.38v3.58h-.8v-3.89c0-.69-.23-1.06-.77-1.06-.67,0-.98.61-.98,1.45v3.5h-.8v-3.91Z"/>
    <path class="cls-5" d="M30.08,152.14v6.4c0,.54,0,1.1.01,1.43h-.78c-.01-.14-.03-.51-.03-.75-.17.48-.53.85-1.31.85-1.16,0-1.65-.99-1.65-2.95,0-1.78.66-2.82,1.83-2.82.72,0,1,.31,1.13.58v-2.74h.8ZM27.15,157.14c0,1.61.37,2.22,1.05,2.22.87,0,1.1-.74,1.1-2.25,0-1.63-.23-2.09-1.03-2.09-.66,0-1.11.58-1.11,2.12ZM31.14,158.47h.82v1.51h-.82v-1.51Z"/>
    <path class="cls-5" d="M37.5,152.5v7.47h-.82v-7.47h.82ZM38.9,159.98v-7.83h.8v7.83h-.8ZM43.66,157.34c0,1.09.19,2.05,1.07,2.05s.99-.83,1.02-1h.79c-.01.14-.17,1.69-1.81,1.69s-1.87-1.51-1.87-2.89c0-1.77.6-2.88,1.92-2.88,1.47,0,1.81,1.21,1.81,2.6,0,.11,0,.29-.01.43h-2.91ZM45.78,156.7c0-.96-.2-1.71-1.02-1.71-1.02,0-1.07,1.33-1.09,1.71h2.1ZM45.78,156.7h0ZM49.05,159.42c.61,0,.9-.37.9-.88,0-.58-.3-.84-1.03-1.13-1.15-.44-1.49-.86-1.49-1.63s.46-1.47,1.6-1.47c1.25,0,1.6.85,1.61,1.59h-.79c-.01-.27-.07-.93-.85-.93-.53,0-.77.33-.77.77s.19.67.97.96c1.08.42,1.56.81,1.56,1.77,0,1.02-.64,1.62-1.75,1.62s-1.72-.69-1.75-1.71h.8c.04.6.35,1.05.99,1.05ZM51.15,154.4h.79v-1.49h.8v1.49h.97v.69h-.97v3.66c0,.38.08.62.5.62.13,0,.29,0,.39-.03v.62c-.19.07-.47.09-.66.09-.66,0-1.04-.27-1.04-1.15v-3.82h-.79v-.69ZM56.57,154.4h.8v5.58h-.8v-5.58ZM56.58,152.14h.8v1.15h-.8v-1.15ZM58.7,154.4h.78c.01.14.03.36.03.73.19-.44.57-.83,1.32-.83.81,0,1.43.46,1.43,1.7v3.97h-.81v-3.82c0-.68-.22-1.14-.86-1.14-.75,0-1.07.49-1.07,1.64v3.32h-.81v-3.85c0-1.14,0-1.47-.01-1.73ZM62.89,154.4h.79v-1.49h.8v1.49h.97v.69h-.97v3.66c0,.38.08.62.5.62.13,0,.29,0,.39-.03v.62c-.19.07-.47.09-.66.09-.66,0-1.04-.27-1.04-1.15v-3.82h-.79v-.69ZM66.69,157.34c0,1.09.19,2.05,1.07,2.05s.99-.83,1.02-1h.79c-.01.14-.17,1.69-1.81,1.69s-1.87-1.51-1.87-2.89c0-1.77.6-2.88,1.92-2.88,1.47,0,1.81,1.21,1.81,2.6,0,.11,0,.29-.01.43h-2.91ZM68.8,156.7c0-.96-.2-1.71-1.02-1.71-1.02,0-1.07,1.33-1.09,1.71h2.1ZM68.8,156.7h0ZM70.62,154.4h.77c.01.14.03.4.03,1,.24-.67.78-1.07,1.47-1.08v.89c-.96.03-1.46.63-1.46,1.66v3.12h-.8v-3.68c0-.89,0-1.5-.01-1.9ZM77.09,152.14v6.4c0,.54,0,1.1.01,1.43h-.78c-.01-.14-.03-.51-.03-.75-.17.48-.53.85-1.31.85-1.16,0-1.65-.99-1.65-2.95,0-1.78.66-2.82,1.83-2.82.72,0,1,.31,1.13.58v-2.74h.8ZM74.15,157.14c0,1.61.37,2.22,1.05,2.22.87,0,1.1-.74,1.1-2.25,0-1.63-.23-2.09-1.03-2.09-.66,0-1.11.58-1.11,2.12ZM78.4,154.4h.8v5.58h-.8v-5.58ZM78.4,152.14h.8v1.15h-.8v-1.15ZM79.95,154.4h.79v-1.49h.8v1.49h.97v.69h-.97v3.66c0,.38.08.62.5.62.13,0,.29,0,.39-.03v.62c-.19.07-.47.09-.66.09-.66,0-1.04-.27-1.04-1.15v-3.82h-.79v-.69ZM88.86,152.14v6.4c0,.54,0,1.1.01,1.43h-.78c-.01-.14-.03-.51-.03-.75-.17.48-.53.85-1.31.85-1.16,0-1.65-.99-1.65-2.95,0-1.78.66-2.82,1.83-2.82.72,0,1,.31,1.13.58v-2.74h.8ZM85.92,157.14c0,1.61.37,2.22,1.05,2.22.87,0,1.1-.74,1.1-2.25,0-1.63-.23-2.09-1.03-2.09-.66,0-1.11.58-1.11,2.12ZM89.75,154.66c.2-.76.38-1.68.38-2.54h.78c-.01.94-.3,2.07-.51,2.54h-.65ZM91.81,157.34c0,1.09.19,2.05,1.07,2.05s.99-.83,1.02-1h.79c-.01.14-.17,1.69-1.81,1.69s-1.87-1.51-1.87-2.89c0-1.77.6-2.88,1.92-2.88,1.47,0,1.81,1.21,1.81,2.6,0,.11,0,.29-.01.43h-2.91ZM93.93,156.7c0-.96-.2-1.71-1.02-1.71-1.02,0-1.07,1.33-1.09,1.71h2.1ZM93.93,156.7h0ZM95.76,156.07c0-.99,0-1.41-.01-1.67h.77c.02.16.03.46.03.71.22-.49.61-.81,1.25-.81.58,0,.99.25,1.16.83.2-.45.62-.83,1.35-.83s1.35.34,1.35,1.62v4.05h-.8v-3.91c0-.56-.16-1.05-.79-1.05-.71,0-.95.63-.95,1.38v3.58h-.8v-3.89c0-.69-.23-1.06-.77-1.06-.67,0-.98.61-.98,1.45v3.5h-.8v-3.91ZM103.78,159.4v2.62h-.8v-6c0-.76,0-1.28-.01-1.63h.78c.01.1.03.47.03.75.2-.48.59-.84,1.33-.84,1.06,0,1.63.94,1.63,2.8,0,2.01-.7,2.97-1.79,2.97-.67,0-1-.32-1.16-.67ZM105.9,157.15c0-1.4-.32-2.13-1.06-2.13-.86,0-1.1.82-1.1,2.14s.13,2.21,1.05,2.21c.73,0,1.1-.85,1.1-2.22ZM107.77,154.4h.77c.01.14.03.4.03,1,.24-.67.78-1.07,1.47-1.08v.89c-.96.03-1.46.63-1.46,1.66v3.12h-.8v-3.68c0-.89,0-1.5-.01-1.9ZM114.29,158.45c0,.7,0,1.26.01,1.53h-.77c-.03-.16-.04-.38-.04-.74-.2.55-.67.84-1.33.84s-1.39-.27-1.39-1.67v-4.01h.81v3.82c0,.71.2,1.15.84,1.15s1.06-.38,1.06-1.58v-3.39h.81v4.05ZM115.53,154.4h.78c.01.14.03.36.03.73.19-.44.57-.83,1.32-.83.81,0,1.43.46,1.43,1.7v3.97h-.81v-3.82c0-.68-.22-1.14-.86-1.14-.75,0-1.07.49-1.07,1.64v3.32h-.81v-3.85c0-1.14,0-1.47-.01-1.73ZM119.73,154.4h.79v-1.49h.8v1.49h.97v.69h-.97v3.66c0,.38.08.62.5.62.13,0,.29,0,.39-.03v.62c-.19.07-.47.09-.66.09-.66,0-1.04-.27-1.04-1.15v-3.82h-.79v-.69ZM123.53,157.34c0,1.09.19,2.05,1.07,2.05s.99-.83,1.02-1h.79c-.01.14-.17,1.69-1.81,1.69s-1.87-1.51-1.87-2.89c0-1.77.6-2.88,1.92-2.88,1.47,0,1.81,1.21,1.81,2.6,0,.11,0,.29-.01.43h-2.91ZM125.64,156.7c0-.96-.2-1.71-1.02-1.71-1.02,0-1.07,1.33-1.09,1.71h2.1ZM125.64,156.7h0ZM127.46,154.4h.77c.01.14.03.4.03,1,.24-.67.78-1.07,1.47-1.08v.89c-.96.03-1.46.63-1.46,1.66v3.12h-.8v-3.68c0-.89,0-1.5-.01-1.9ZM132.61,159.98v-7.83h.8v7.83h-.8ZM135.27,157.34c0,1.09.19,2.05,1.07,2.05s.99-.83,1.02-1h.79c-.01.14-.17,1.69-1.81,1.69s-1.87-1.51-1.87-2.89c0-1.77.6-2.88,1.92-2.88,1.47,0,1.81,1.21,1.81,2.6,0,.11,0,.29-.01.43h-2.91ZM137.39,156.7c0-.96-.2-1.71-1.02-1.71-1.02,0-1.07,1.33-1.09,1.71h2.1ZM137.39,156.7h0ZM140.66,159.42c.61,0,.9-.37.9-.88,0-.58-.3-.84-1.03-1.13-1.15-.44-1.49-.86-1.49-1.63s.46-1.47,1.6-1.47c1.25,0,1.6.85,1.61,1.59h-.79c-.01-.27-.07-.93-.85-.93-.53,0-.77.33-.77.77s.19.67.97.96c1.08.42,1.56.81,1.56,1.77,0,1.02-.64,1.62-1.75,1.62s-1.72-.69-1.75-1.71h.8c.04.6.35,1.05.99,1.05ZM145.46,159.98v-7.83h.8v7.83h-.8ZM147.6,154.4h.8v5.58h-.8v-5.58ZM147.6,152.14h.8v1.15h-.8v-1.15ZM150.03,154.4c.46,1.81,1.01,3.99,1.12,4.67h.01c.07-.62.91-3.53,1.18-4.67h.81l-1.6,5.58h-.87l-1.51-5.58h.85ZM153.84,154.4h.77c.01.14.03.4.03,1,.24-.67.78-1.07,1.47-1.08v.89c-.96.03-1.46.63-1.46,1.66v3.12h-.8v-3.68c0-.89,0-1.5-.01-1.9ZM157.35,157.34c0,1.09.19,2.05,1.07,2.05s.99-.83,1.02-1h.79c-.01.14-.17,1.69-1.81,1.69s-1.87-1.51-1.87-2.89c0-1.77.6-2.88,1.92-2.88,1.47,0,1.81,1.21,1.81,2.6,0,.11,0,.29-.01.43h-2.91ZM159.47,156.7c0-.96-.2-1.71-1.02-1.71-1.02,0-1.07,1.33-1.09,1.71h2.1ZM159.47,156.7h0ZM162.74,159.42c.61,0,.9-.37.9-.88,0-.58-.3-.84-1.03-1.13-1.15-.44-1.49-.86-1.49-1.63s.46-1.47,1.6-1.47c1.25,0,1.6.85,1.61,1.59h-.79c-.01-.27-.07-.93-.85-.93-.53,0-.77.33-.77.77s.19.67.97.96c1.08.42,1.56.81,1.56,1.77,0,1.02-.64,1.62-1.75,1.62s-1.72-.69-1.75-1.71h.8c.04.6.35,1.05.99,1.05Z"/>
    <path class="cls-5" d="M27.49,179.37v3.44h-.82v-7.47h1.95c1.25,0,1.91.71,1.91,1.93,0,1.12-.55,1.59-1,1.75.69.25.91.86.91,1.91v.3c0,.7.02,1.19.11,1.59h-.81c-.1-.34-.11-1.01-.11-1.61v-.25c0-1.06-.22-1.57-1.23-1.57h-.91ZM27.49,178.67h.96c.91,0,1.25-.51,1.25-1.38,0-.75-.35-1.26-1.17-1.26h-1.03v2.64ZM32.28,180.17c0,1.09.19,2.05,1.07,2.05s.99-.83,1.02-1h.79c-.01.14-.17,1.69-1.81,1.69s-1.87-1.51-1.87-2.89c0-1.77.6-2.88,1.92-2.88,1.47,0,1.81,1.21,1.81,2.6,0,.11,0,.29-.01.43h-2.91ZM34.4,179.54c0-.96-.2-1.71-1.02-1.71-1.02,0-1.07,1.33-1.09,1.71h2.1ZM34.92,174.86l-1.38,1.53h-.75l1.18-1.53h.95ZM34.4,179.54h0ZM37.03,182.24v2.62h-.8v-6c0-.76,0-1.28-.01-1.63h.78c.01.1.03.47.03.75.2-.48.59-.84,1.33-.84,1.06,0,1.63.94,1.63,2.8,0,2.01-.7,2.97-1.79,2.97-.67,0-1-.32-1.16-.67ZM39.16,179.98c0-1.4-.32-2.13-1.06-2.13-.86,0-1.1.82-1.1,2.14s.13,2.21,1.05,2.21c.73,0,1.1-.85,1.1-2.22ZM44.62,179.96c0,1.96-.66,2.96-1.92,2.96s-1.92-.96-1.92-2.94.76-2.83,1.95-2.83,1.89.94,1.89,2.82ZM41.6,179.98c0,1.52.38,2.24,1.1,2.24s1.09-.73,1.09-2.24c0-1.43-.35-2.13-1.09-2.13s-1.1.63-1.1,2.14ZM45.65,177.23h.78c.01.14.03.36.03.73.19-.44.57-.83,1.32-.83.81,0,1.43.46,1.43,1.7v3.97h-.81v-3.82c0-.68-.22-1.14-.86-1.14-.75,0-1.07.49-1.07,1.64v3.32h-.81v-3.85c0-1.14,0-1.47-.01-1.73ZM51.91,182.25c.61,0,.9-.37.9-.88,0-.58-.3-.84-1.03-1.13-1.15-.44-1.49-.86-1.49-1.63s.46-1.47,1.6-1.47c1.25,0,1.6.85,1.61,1.59h-.79c-.01-.27-.07-.93-.85-.93-.53,0-.77.33-.77.77s.19.67.97.96c1.08.42,1.56.81,1.56,1.77,0,1.02-.64,1.62-1.75,1.62s-1.72-.69-1.75-1.71h.8c.04.6.35,1.05.99,1.05ZM55.16,180.17c0,1.09.19,2.05,1.07,2.05s.99-.83,1.02-1h.79c-.01.14-.17,1.69-1.81,1.69s-1.87-1.51-1.87-2.89c0-1.77.6-2.88,1.92-2.88,1.47,0,1.81,1.21,1.81,2.6,0,.11,0,.29-.01.43h-2.91ZM57.28,179.54c0-.96-.2-1.71-1.02-1.71-1.02,0-1.07,1.33-1.09,1.71h2.1ZM57.28,179.54h0ZM61.26,178.9v-1.51h.78v1.51h-.78ZM61.26,181.3h.78v1.51h-.78v-1.51ZM68.75,181.83c0,.35.03.81.04.99h-.74c-.03-.12-.06-.42-.06-.63-.21.45-.63.73-1.32.73-1.07,0-1.46-.84-1.46-1.61,0-1.02.69-1.79,2.15-1.79.26,0,.42,0,.58.02v-.74c0-.44-.08-.99-.84-.99-.82,0-.87.59-.9.96h-.78c.02-.8.4-1.62,1.71-1.62,1.08,0,1.6.53,1.6,1.55v3.13ZM67.98,180.17c-.14-.02-.29-.03-.55-.03-.99,0-1.4.48-1.4,1.1,0,.51.27.99.87.99.82,0,1.08-.58,1.08-1.75v-.3ZM69.84,181.3h.82v1.51h-.82v-1.51Z"/>
    <path class="cls-5" d="M26.68,190.18h.82v6.75h2.67l-.12.72h-3.37v-7.47ZM31.42,195.01c0,1.09.19,2.05,1.07,2.05s.99-.83,1.02-1h.79c-.01.14-.17,1.69-1.81,1.69s-1.87-1.51-1.87-2.89c0-1.77.6-2.88,1.92-2.88,1.47,0,1.81,1.21,1.81,2.6,0,.11,0,.29-.01.43h-2.91ZM33.54,194.38c0-.96-.2-1.71-1.02-1.71-1.02,0-1.07,1.33-1.09,1.71h2.1ZM33.54,194.38h0ZM36.81,197.09c.61,0,.9-.37.9-.88,0-.58-.3-.84-1.03-1.13-1.15-.44-1.49-.86-1.49-1.63s.46-1.47,1.6-1.47c1.25,0,1.6.85,1.61,1.59h-.79c-.01-.27-.07-.93-.85-.93-.53,0-.77.33-.77.77s.19.67.97.96c1.08.42,1.56.81,1.56,1.77,0,1.02-.64,1.62-1.75,1.62s-1.72-.69-1.75-1.71h.8c.04.6.35,1.05.99,1.05ZM45.1,189.82v6.4c0,.54,0,1.1.01,1.43h-.78c-.01-.14-.03-.51-.03-.75-.17.48-.53.85-1.31.85-1.16,0-1.65-.99-1.65-2.95,0-1.78.66-2.82,1.83-2.82.72,0,1,.31,1.13.58v-2.74h.8ZM42.16,194.81c0,1.61.37,2.22,1.05,2.22.87,0,1.1-.74,1.1-2.25,0-1.63-.23-2.09-1.03-2.09-.66,0-1.11.58-1.11,2.12ZM49.97,194.8c0,1.96-.66,2.96-1.92,2.96s-1.92-.96-1.92-2.94.76-2.83,1.95-2.83,1.89.94,1.89,2.82ZM46.96,194.82c0,1.52.38,2.24,1.1,2.24s1.09-.73,1.09-2.24c0-1.43-.35-2.13-1.09-2.13s-1.1.63-1.1,2.14ZM54.39,195.95c-.02.3-.14,1.8-1.77,1.8-1.46,0-1.85-1.29-1.85-2.91s.51-2.87,1.93-2.87c1.62,0,1.7,1.5,1.7,1.76h-.82c-.01-.23-.09-1.07-.88-1.07s-1.1.88-1.1,2.17c0,1.39.3,2.22,1.06,2.22.81,0,.9-.81.94-1.11h.8ZM58.83,196.12c0,.7,0,1.26.01,1.53h-.77c-.03-.16-.04-.38-.04-.74-.2.55-.67.84-1.33.84s-1.39-.27-1.39-1.67v-4.01h.81v3.82c0,.71.2,1.15.84,1.15s1.06-.38,1.06-1.58v-3.39h.81v4.05ZM60.08,193.75c0-.99,0-1.41-.01-1.67h.77c.02.16.03.46.03.71.22-.49.61-.81,1.25-.81.58,0,.99.25,1.16.83.2-.45.62-.83,1.35-.83s1.35.34,1.35,1.62v4.05h-.8v-3.91c0-.56-.16-1.05-.79-1.05-.71,0-.95.63-.95,1.38v3.58h-.8v-3.89c0-.69-.23-1.06-.77-1.06-.67,0-.98.61-.98,1.45v3.5h-.8v-3.91ZM67.83,195.01c0,1.09.19,2.05,1.07,2.05s.99-.83,1.02-1h.79c-.01.14-.17,1.69-1.81,1.69s-1.87-1.51-1.87-2.89c0-1.77.6-2.88,1.92-2.88,1.47,0,1.81,1.21,1.81,2.6,0,.11,0,.29-.01.43h-2.91ZM69.95,194.38c0-.96-.2-1.71-1.02-1.71-1.02,0-1.07,1.33-1.09,1.71h2.1ZM69.95,194.38h0ZM71.76,192.07h.78c.01.14.03.36.03.73.19-.44.57-.83,1.32-.83.81,0,1.43.46,1.43,1.7v3.97h-.81v-3.82c0-.68-.22-1.14-.86-1.14-.75,0-1.07.49-1.07,1.64v3.32h-.81v-3.85c0-1.14,0-1.47-.01-1.73ZM75.96,192.07h.79v-1.49h.8v1.49h.97v.69h-.97v3.66c0,.38.08.62.5.62.13,0,.29,0,.39-.03v.62c-.19.07-.47.09-.66.09-.66,0-1.04-.27-1.04-1.15v-3.82h-.79v-.69ZM80.8,197.09c.61,0,.9-.37.9-.88,0-.58-.3-.84-1.03-1.13-1.15-.44-1.49-.86-1.49-1.63s.46-1.47,1.6-1.47c1.25,0,1.6.85,1.61,1.59h-.79c-.01-.27-.07-.93-.85-.93-.53,0-.77.33-.77.77s.19.67.97.96c1.08.42,1.56.81,1.56,1.77,0,1.02-.64,1.62-1.75,1.62s-1.72-.69-1.75-1.71h.8c.04.6.35,1.05.99,1.05ZM86.13,195.01c0,1.09.19,2.05,1.07,2.05s.99-.83,1.02-1h.79c-.01.14-.17,1.69-1.81,1.69s-1.87-1.51-1.87-2.89c0-1.77.6-2.88,1.92-2.88,1.47,0,1.81,1.21,1.81,2.6,0,.11,0,.29-.01.43h-2.91ZM88.25,194.38c0-.96-.2-1.71-1.02-1.71-1.02,0-1.07,1.33-1.09,1.71h2.1ZM88.25,194.38h0ZM90.08,193.75c0-.99,0-1.41-.01-1.67h.77c.02.16.03.46.03.71.22-.49.61-.81,1.25-.81.58,0,.99.25,1.16.83.2-.45.62-.83,1.35-.83s1.35.34,1.35,1.62v4.05h-.8v-3.91c0-.56-.16-1.05-.79-1.05-.71,0-.95.63-.95,1.38v3.58h-.8v-3.89c0-.69-.23-1.06-.77-1.06-.67,0-.98.61-.98,1.45v3.5h-.8v-3.91ZM98.1,197.08v2.62h-.8v-6c0-.76,0-1.28-.01-1.63h.78c.01.1.03.47.03.75.2-.48.59-.84,1.33-.84,1.06,0,1.63.94,1.63,2.8,0,2.01-.7,2.97-1.79,2.97-.67,0-1-.32-1.16-.67ZM100.23,194.82c0-1.4-.32-2.13-1.06-2.13-.86,0-1.1.82-1.1,2.14s.13,2.21,1.05,2.21c.73,0,1.1-.85,1.1-2.22ZM102.09,192.07h.77c.01.14.03.4.03,1,.24-.67.78-1.07,1.47-1.08v.89c-.96.03-1.46.63-1.46,1.66v3.12h-.8v-3.68c0-.89,0-1.5-.01-1.9ZM108.61,196.12c0,.7,0,1.26.01,1.53h-.77c-.03-.16-.04-.38-.04-.74-.2.55-.67.84-1.33.84s-1.39-.27-1.39-1.67v-4.01h.81v3.82c0,.71.2,1.15.84,1.15s1.06-.38,1.06-1.58v-3.39h.81v4.05ZM109.85,192.07h.78c.01.14.03.36.03.73.19-.44.57-.83,1.32-.83.81,0,1.43.46,1.43,1.7v3.97h-.81v-3.82c0-.68-.22-1.14-.86-1.14-.75,0-1.07.49-1.07,1.64v3.32h-.81v-3.85c0-1.14,0-1.47-.01-1.73ZM114.05,192.07h.79v-1.49h.8v1.49h.97v.69h-.97v3.66c0,.38.08.62.5.62.13,0,.29,0,.39-.03v.62c-.19.07-.47.09-.66.09-.66,0-1.04-.27-1.04-1.15v-3.82h-.79v-.69ZM117.85,195.01c0,1.09.19,2.05,1.07,2.05s.99-.83,1.02-1h.79c-.01.14-.17,1.69-1.81,1.69s-1.87-1.51-1.87-2.89c0-1.77.6-2.88,1.92-2.88,1.47,0,1.81,1.21,1.81,2.6,0,.11,0,.29-.01.43h-2.91ZM119.96,194.38c0-.96-.2-1.71-1.02-1.71-1.02,0-1.07,1.33-1.09,1.71h2.1ZM120.49,189.69l-1.38,1.53h-.75l1.18-1.53h.95ZM119.96,194.38h0ZM123.24,197.09c.61,0,.9-.37.9-.88,0-.58-.3-.84-1.03-1.13-1.15-.44-1.49-.86-1.49-1.63s.46-1.47,1.6-1.47c1.25,0,1.6.85,1.61,1.59h-.79c-.01-.27-.07-.93-.85-.93-.53,0-.77.33-.77.77s.19.67.97.96c1.08.42,1.56.81,1.56,1.77,0,1.02-.64,1.62-1.75,1.62s-1.72-.69-1.75-1.71h.8c.04.6.35,1.05.99,1.05ZM129.42,197.09c.61,0,.9-.37.9-.88,0-.58-.3-.84-1.03-1.13-1.15-.44-1.49-.86-1.49-1.63s.46-1.47,1.6-1.47c1.25,0,1.6.85,1.61,1.59h-.79c-.01-.27-.07-.93-.85-.93-.53,0-.77.33-.77.77s.19.67.97.96c1.08.42,1.56.81,1.56,1.77,0,1.02-.64,1.62-1.75,1.62s-1.72-.69-1.75-1.71h.8c.04.6.35,1.05.99,1.05ZM132.66,195.01c0,1.09.19,2.05,1.07,2.05s.99-.83,1.02-1h.79c-.01.14-.17,1.69-1.81,1.69s-1.87-1.51-1.87-2.89c0-1.77.6-2.88,1.92-2.88,1.47,0,1.81,1.21,1.81,2.6,0,.11,0,.29-.01.43h-2.91ZM134.78,194.38c0-.96-.2-1.71-1.02-1.71-1.02,0-1.07,1.33-1.09,1.71h2.1ZM134.78,194.38h0Z"/>
    <path class="cls-5" d="M27.4,209.08v2.62h-.8v-6c0-.76,0-1.28-.01-1.63h.78c.01.1.03.47.03.75.2-.48.59-.84,1.33-.84,1.06,0,1.63.94,1.63,2.8,0,2.01-.7,2.97-1.79,2.97-.67,0-1-.32-1.16-.67ZM29.53,206.82c0-1.4-.32-2.13-1.06-2.13-.86,0-1.1.82-1.1,2.14s.13,2.21,1.05,2.21c.73,0,1.1-.85,1.1-2.22ZM31.39,204.07h.77c.01.14.03.4.03,1,.24-.67.78-1.07,1.47-1.08v.89c-.96.03-1.46.63-1.46,1.66v3.12h-.8v-3.68c0-.89,0-1.5-.01-1.9ZM37.94,206.8c0,1.96-.66,2.96-1.92,2.96s-1.92-.96-1.92-2.94.76-2.83,1.95-2.83,1.89.94,1.89,2.82ZM34.92,206.82c0,1.52.38,2.24,1.1,2.24s1.09-.73,1.09-2.24c0-1.43-.35-2.13-1.09-2.13s-1.1.63-1.1,2.14ZM38.98,209.65v-7.83h.8v7.83h-.8ZM44.68,206.8c0,1.96-.66,2.96-1.92,2.96s-1.92-.96-1.92-2.94.76-2.83,1.95-2.83,1.89.94,1.89,2.82ZM41.67,206.82c0,1.52.38,2.24,1.1,2.24s1.09-.73,1.09-2.24c0-1.43-.35-2.13-1.09-2.13s-1.1.63-1.1,2.14ZM45.72,204.07h.78c.01.14.03.36.03.73.19-.44.57-.83,1.32-.83.81,0,1.43.46,1.43,1.7v3.97h-.81v-3.82c0-.68-.22-1.14-.86-1.14-.75,0-1.07.49-1.07,1.64v3.32h-.81v-3.85c0-1.14,0-1.47-.01-1.73ZM54.1,209.3c0,1.47-.35,2.49-1.95,2.49-1.44,0-1.75-.94-1.78-1.54h.82c.02.31.2.85.99.85.94,0,1.13-.68,1.13-1.81v-.51c-.2.57-.67.85-1.3.85-1.13,0-1.68-.95-1.68-2.71,0-2.01.74-2.95,1.8-2.95.76,0,1.08.37,1.18.73,0-.25.03-.52.04-.64h.77c-.01.29-.01.86-.01,1.61v3.61ZM51.15,206.91c0,1.35.37,2.01,1.06,2.01.86,0,1.1-.85,1.1-2.15s-.18-2.08-1.03-2.08c-.74,0-1.13.77-1.13,2.22ZM55.96,207.01c0,1.09.19,2.05,1.07,2.05s.99-.83,1.02-1h.79c-.01.14-.17,1.69-1.81,1.69s-1.87-1.51-1.87-2.89c0-1.77.6-2.88,1.92-2.88,1.47,0,1.81,1.21,1.81,2.6,0,.11,0,.29-.01.43h-2.91ZM58.08,206.38c0-.96-.2-1.71-1.02-1.71-1.02,0-1.07,1.33-1.09,1.71h2.1ZM58.08,206.38h0ZM59.89,204.07h.78c.01.14.03.36.03.73.19-.44.57-.83,1.32-.83.81,0,1.43.46,1.43,1.7v3.97h-.81v-3.82c0-.68-.22-1.14-.86-1.14-.75,0-1.07.49-1.07,1.64v3.32h-.81v-3.85c0-1.14,0-1.47-.01-1.73ZM64.09,204.07h.79v-1.49h.8v1.49h.97v.69h-.97v3.66c0,.38.08.62.5.62.13,0,.29,0,.39-.03v.62c-.19.07-.47.09-.66.09-.66,0-1.04-.27-1.04-1.15v-3.82h-.79v-.69ZM72.75,208.67c0,.35.03.81.04.99h-.74c-.03-.12-.06-.42-.06-.63-.21.45-.63.73-1.32.73-1.07,0-1.46-.84-1.46-1.61,0-1.02.69-1.79,2.15-1.79.26,0,.42,0,.58.02v-.74c0-.44-.08-.99-.84-.99-.82,0-.87.59-.9.96h-.78c.02-.8.4-1.62,1.71-1.62,1.08,0,1.6.53,1.6,1.55v3.13ZM71.98,207.01c-.14-.02-.29-.03-.55-.03-.99,0-1.4.48-1.4,1.1,0,.51.27.99.87.99.82,0,1.08-.58,1.08-1.75v-.3ZM77.54,208.12c0,.7,0,1.26.01,1.53h-.77c-.03-.16-.04-.38-.04-.74-.2.55-.67.84-1.33.84s-1.39-.27-1.39-1.67v-4.01h.81v3.82c0,.71.2,1.15.84,1.15s1.06-.38,1.06-1.58v-3.39h.81v4.05ZM78.28,204.07h.79v-1.49h.8v1.49h.97v.69h-.97v3.66c0,.38.08.62.5.62.13,0,.29,0,.39-.03v.62c-.19.07-.47.09-.66.09-.66,0-1.04-.27-1.04-1.15v-3.82h-.79v-.69ZM85.11,206.8c0,1.96-.66,2.96-1.92,2.96s-1.92-.96-1.92-2.94.76-2.83,1.95-2.83,1.89.94,1.89,2.82ZM82.09,206.82c0,1.52.38,2.24,1.1,2.24s1.09-.73,1.09-2.24c0-1.43-.35-2.13-1.09-2.13s-1.1.63-1.1,2.14ZM86.16,205.75c0-.99,0-1.41-.01-1.67h.77c.02.16.03.46.03.71.22-.49.61-.81,1.25-.81.58,0,.99.25,1.16.83.2-.45.62-.83,1.35-.83s1.35.34,1.35,1.62v4.05h-.8v-3.91c0-.56-.16-1.05-.79-1.05-.71,0-.95.63-.95,1.38v3.58h-.8v-3.89c0-.69-.23-1.06-.77-1.06-.67,0-.98.61-.98,1.45v3.5h-.8v-3.91ZM96.52,208.67c0,.35.03.81.04.99h-.74c-.03-.12-.06-.42-.06-.63-.21.45-.63.73-1.32.73-1.07,0-1.46-.84-1.46-1.61,0-1.02.69-1.79,2.15-1.79.26,0,.42,0,.58.02v-.74c0-.44-.08-.99-.84-.99-.82,0-.87.59-.9.96h-.78c.02-.8.4-1.62,1.71-1.62,1.08,0,1.6.53,1.6,1.55v3.13ZM95.75,207.01c-.14-.02-.29-.03-.55-.03-.99,0-1.4.48-1.4,1.1,0,.51.27.99.87.99.82,0,1.08-.58,1.08-1.75v-.3ZM97.17,204.07h.79v-1.49h.8v1.49h.97v.69h-.97v3.66c0,.38.08.62.5.62.13,0,.29,0,.39-.03v.62c-.19.07-.47.09-.66.09-.66,0-1.04-.27-1.04-1.15v-3.82h-.79v-.69ZM100.52,204.07h.8v5.58h-.8v-5.58ZM100.52,201.82h.8v1.15h-.8v-1.15ZM105.35,208.95c-.21.48-.59.8-1.31.8-1.04,0-1.66-.86-1.66-2.89,0-1.85.7-2.88,1.8-2.88.74,0,1.05.35,1.17.7,0-.31.02-.5.03-.6h.78c-.01.4-.01.86-.01,1.65v5.98h-.79v-2.76ZM103.2,206.87c0,1.33.31,2.18,1.06,2.18.9,0,1.09-.78,1.09-2.21s-.12-2.15-1.03-2.15c-.7,0-1.11.76-1.11,2.18ZM110.98,208.12c0,.7,0,1.26.01,1.53h-.77c-.03-.16-.04-.38-.04-.74-.2.55-.67.84-1.33.84s-1.39-.27-1.39-1.67v-4.01h.81v3.82c0,.71.2,1.15.84,1.15s1.06-.38,1.06-1.58v-3.39h.81v4.05ZM112.82,207.01c0,1.09.19,2.05,1.07,2.05s.99-.83,1.02-1h.79c-.01.14-.17,1.69-1.81,1.69s-1.87-1.51-1.87-2.89c0-1.77.6-2.88,1.92-2.88,1.47,0,1.81,1.21,1.81,2.6,0,.11,0,.29-.01.43h-2.91ZM114.94,206.38c0-.96-.2-1.71-1.02-1.71-1.02,0-1.07,1.33-1.09,1.71h2.1ZM114.94,206.38h0ZM116.77,205.75c0-.99,0-1.41-.01-1.67h.77c.02.16.03.46.03.71.22-.49.61-.81,1.25-.81.58,0,.99.25,1.16.83.2-.45.62-.83,1.35-.83s1.35.34,1.35,1.62v4.05h-.8v-3.91c0-.56-.16-1.05-.79-1.05-.71,0-.95.63-.95,1.38v3.58h-.8v-3.89c0-.69-.23-1.06-.77-1.06-.67,0-.98.61-.98,1.45v3.5h-.8v-3.91ZM124.51,207.01c0,1.09.19,2.05,1.07,2.05s.99-.83,1.02-1h.79c-.01.14-.17,1.69-1.81,1.69s-1.87-1.51-1.87-2.89c0-1.77.6-2.88,1.92-2.88,1.47,0,1.81,1.21,1.81,2.6,0,.11,0,.29-.01.43h-2.91ZM126.63,206.38c0-.96-.2-1.71-1.02-1.71-1.02,0-1.07,1.33-1.09,1.71h2.1ZM126.63,206.38h0ZM128.45,204.07h.78c.01.14.03.36.03.73.19-.44.57-.83,1.32-.83.81,0,1.43.46,1.43,1.7v3.97h-.81v-3.82c0-.68-.22-1.14-.86-1.14-.75,0-1.07.49-1.07,1.64v3.32h-.81v-3.85c0-1.14,0-1.47-.01-1.73ZM132.64,204.07h.79v-1.49h.8v1.49h.97v.69h-.97v3.66c0,.38.08.62.5.62.13,0,.29,0,.39-.03v.62c-.19.07-.47.09-.66.09-.66,0-1.04-.27-1.04-1.15v-3.82h-.79v-.69ZM141.22,203.1h-2.28c-.05.69-.17,1.89-.21,2.29.21-.29.56-.51,1.15-.51,1.17,0,1.68.94,1.68,2.25,0,1.41-.44,2.62-1.94,2.62-1.35,0-1.78-.91-1.83-1.88h.81c.04.5.19,1.2,1.04,1.2s1.07-.81,1.07-1.86c0-.94-.22-1.65-1.01-1.65-.63,0-.9.39-1.06.9l-.75-.13c.11-.83.3-2.86.37-3.94h3.06l-.1.71ZM144.78,209.65v-4.89h-.73v-.69h.73v-.77c0-.82.3-1.55,1.31-1.55.15,0,.35.03.45.06v.71c-.1-.02-.23-.05-.37-.05-.44,0-.59.28-.59.84v.75h.88v.69h-.88v4.89h-.8ZM150.63,206.8c0,1.96-.66,2.96-1.92,2.96s-1.92-.96-1.92-2.94.76-2.83,1.95-2.83,1.89.94,1.89,2.82ZM147.62,206.82c0,1.52.38,2.24,1.1,2.24s1.09-.73,1.09-2.24c0-1.43-.35-2.13-1.09-2.13s-1.1.63-1.1,2.14ZM151.68,204.07h.8v5.58h-.8v-5.58ZM151.68,201.82h.8v1.15h-.8v-1.15ZM155.18,209.09c.61,0,.9-.37.9-.88,0-.58-.3-.84-1.03-1.13-1.15-.44-1.49-.86-1.49-1.63s.46-1.47,1.6-1.47c1.25,0,1.6.85,1.61,1.59h-.79c-.01-.27-.07-.93-.85-.93-.53,0-.77.33-.77.77s.19.67.97.96c1.08.42,1.56.81,1.56,1.77,0,1.02-.64,1.62-1.75,1.62s-1.72-.69-1.75-1.71h.8c.04.6.35,1.05.99,1.05ZM157.79,208.14h.82v1.51h-.82v-1.51Z"/>
    <path class="cls-5" d="M50.24,72.42c-3.89,0-4.29-3.65-4.29-7.27,0-4.37,1.24-7.16,4.44-7.16,3.59,0,3.85,3.17,3.9,4.2h-2.16c-.04-.47-.09-2.34-1.77-2.34-1.79,0-2.16,2.3-2.16,5.33,0,2.75.28,5.39,2.08,5.39,1.62,0,1.8-1.8,1.86-2.4h2.17c-.06.74-.36,4.23-4.07,4.23ZM58.18,57.51v5.18c.38-.74,1.1-1.31,2.44-1.31,1.69,0,2.65,1.09,2.65,3.29v7.52h-2.15v-7.08c0-1.13-.25-1.87-1.38-1.87-1.21,0-1.56.95-1.56,2.5v6.45h-2.15v-14.68h2.15ZM72.8,66.78c0,3.81-1.36,5.61-3.9,5.61s-3.85-1.72-3.85-5.56,1.53-5.43,3.96-5.43,3.79,1.83,3.79,5.38ZM68.95,70.58c1.19,0,1.68-1.28,1.68-3.75s-.48-3.62-1.69-3.62-1.72,1.13-1.72,3.61.49,3.76,1.74,3.76ZM76.72,61.57v10.61h-2.14v-10.61h2.14ZM76.74,57.51v2.34h-2.14v-2.34h2.14ZM80.39,61.57c.9,1.96,1.37,2.94,1.63,3.51h.02c.31-.72.91-1.92,1.65-3.51h2.27l-2.74,5.02,2.75,5.59h-2.38c-.87-1.98-1.37-3.08-1.63-3.68h-.02c-.25.56-.92,2.04-1.68,3.68h-2.28l2.71-5.3-2.65-5.32h2.35ZM90.8,64.76c0-2.03,0-2.71-.02-3.18h2.05c.04.24.07.78.07,1.17.46-.85,1.23-1.35,2.35-1.35s1.84.51,2.17,1.49c.42-.78,1.19-1.49,2.59-1.49s2.65.72,2.65,3.15v7.64h-2.11v-7.31c0-.92-.29-1.64-1.25-1.64-1.11,0-1.48.9-1.48,2.25v6.7h-2.13v-7.27c0-1.09-.37-1.67-1.24-1.67-1.08,0-1.52.84-1.52,2.33v6.61h-2.13v-7.43ZM112.11,72.19h-2.04c-.06-.32-.08-.78-.09-1.24-.44,1-1.24,1.43-2.42,1.43-1.42,0-2.65-.66-2.65-3.18v-7.62h2.15v7.13c0,1.15.27,1.82,1.27,1.82s1.62-.57,1.62-2.46v-6.49h2.15v7.57c0,1.47,0,2.51.02,3.05ZM114.35,72.19v-14.68h2.14v14.68h-2.14ZM117.79,61.57h1.43v-2.71h2.13v2.71h1.71v1.77h-1.71v6.2c0,.65.13,1.04.9,1.04.25,0,.45,0,.65-.05v1.59c-.42.18-1.04.2-1.41.2-1.55,0-2.28-.59-2.28-2.41v-6.57h-1.43v-1.77ZM126.59,61.57v10.61h-2.14v-10.61h2.14ZM126.6,57.51v2.34h-2.14v-2.34h2.14ZM133.11,72.39c-1.16,0-1.78-.5-2.08-1.11v4.76h-2.14v-11.39c0-1.44,0-2.41-.02-3.08h2.06c.04.22.07.81.07,1.25.35-.76,1.01-1.43,2.43-1.43,1.98,0,3.1,1.72,3.1,5.32,0,4.04-1.36,5.67-3.42,5.67h0ZM134.36,66.81c0-2.58-.56-3.58-1.71-3.58-1.37,0-1.69,1.3-1.69,3.52,0,2.46.16,3.79,1.65,3.79,1.18,0,1.76-1.31,1.76-3.74ZM138.31,72.19v-14.68h2.14v14.68h-2.14ZM144.39,67.4c0,1.59.23,3.2,1.7,3.2,1.37,0,1.55-1.22,1.59-1.57h2.06c-.04.31-.29,3.36-3.68,3.36s-3.8-2.88-3.8-5.55c0-3.36,1.23-5.44,3.86-5.44,2.98,0,3.7,2.3,3.7,5.03,0,.31-.01.76-.04.97h-5.4ZM147.7,65.82c0-1.3-.21-2.65-1.59-2.65-1.58,0-1.67,1.9-1.69,2.65h3.28ZM147.7,65.82h0Z"/>
  </g>
</svg>