<?xml version="1.0" encoding="UTF-8"?>
<svg id="Calque_1" data-name="Calque 1" xmlns="http://www.w3.org/2000/svg" xmlns:xlink="http://www.w3.org/1999/xlink" viewBox="0 0 195.59 269.29">
  <defs>
    <style>
      .cls-1 {
        fill: #1d1d1b;
      }

      .cls-2 {
        fill: none;
      }

      .cls-3 {
        clip-path: url(#clippath-1);
      }

      .cls-4 {
        fill: #f39200;
      }

      .cls-5 {
        clip-path: url(#clippath);
      }
    </style>
    <clipPath id="clippath">
      <rect class="cls-2" width="195.59" height="269.29"/>
    </clipPath>
    <clipPath id="clippath-1">
      <rect class="cls-2" width="195.59" height="269.29"/>
    </clipPath>
  </defs>
  <g class="cls-5">
    <g class="cls-3">
      <path class="cls-1" d="M65.48,40.63c-3.89,0-4.29-3.65-4.29-7.27,0-4.37,1.24-7.16,4.44-7.16,3.59,0,3.85,3.17,3.9,4.2h-2.16c-.04-.47-.09-2.34-1.77-2.34-1.79,0-2.16,2.3-2.16,5.33,0,2.75.28,5.39,2.08,5.39,1.62,0,1.8-1.8,1.86-2.4h2.17c-.06.74-.36,4.23-4.07,4.23ZM73.42,25.72v5.18c.38-.74,1.1-1.31,2.44-1.31,1.69,0,2.65,1.09,2.65,3.29v7.52h-2.15v-7.08c0-1.13-.25-1.87-1.38-1.87-1.21,0-1.56.95-1.56,2.5v6.45h-2.15v-14.68h2.15ZM88.04,34.99c0,3.81-1.36,5.61-3.9,5.61s-3.85-1.72-3.85-5.56,1.53-5.43,3.96-5.43,3.79,1.83,3.79,5.38ZM84.19,38.8c1.19,0,1.68-1.28,1.68-3.75s-.48-3.62-1.69-3.62-1.72,1.13-1.72,3.61.49,3.76,1.74,3.76ZM91.96,29.79v10.61h-2.14v-10.61h2.14ZM91.98,25.72v2.34h-2.14v-2.34h2.14ZM95.63,29.79c.9,1.96,1.37,2.94,1.63,3.51h.02c.31-.72.91-1.92,1.65-3.51h2.27l-2.74,5.02,2.75,5.59h-2.38c-.87-1.98-1.37-3.08-1.63-3.68h-.02c-.25.56-.92,2.04-1.68,3.68h-2.28l2.71-5.3-2.65-5.32h2.35ZM106.04,32.97c0-2.03,0-2.71-.02-3.18h2.05c.04.24.07.78.07,1.17.46-.85,1.23-1.35,2.35-1.35s1.84.51,2.17,1.49c.42-.78,1.19-1.49,2.59-1.49s2.65.72,2.65,3.15v7.64h-2.11v-7.31c0-.92-.29-1.64-1.25-1.64-1.11,0-1.48.9-1.48,2.25v6.7h-2.13v-7.27c0-1.09-.37-1.67-1.24-1.67-1.08,0-1.52.84-1.52,2.33v6.61h-2.13v-7.43ZM127.35,40.4h-2.04c-.06-.32-.08-.78-.09-1.24-.44,1-1.24,1.43-2.42,1.43-1.42,0-2.65-.66-2.65-3.18v-7.62h2.15v7.13c0,1.15.27,1.82,1.27,1.82s1.62-.57,1.62-2.46v-6.49h2.15v7.57c0,1.47,0,2.51.02,3.05ZM129.59,40.4v-14.68h2.14v14.68h-2.14ZM133.03,29.79h1.43v-2.71h2.13v2.71h1.71v1.77h-1.71v6.2c0,.65.13,1.04.9,1.04.25,0,.45,0,.65-.05v1.59c-.42.18-1.04.2-1.41.2-1.55,0-2.28-.59-2.28-2.41v-6.57h-1.43v-1.77ZM141.82,29.79v10.61h-2.14v-10.61h2.14ZM141.84,25.72v2.34h-2.14v-2.34h2.14ZM148.34,40.6c-1.16,0-1.78-.5-2.08-1.11v4.76h-2.14v-11.39c0-1.44,0-2.41-.02-3.08h2.06c.04.22.07.81.07,1.25.35-.76,1.01-1.43,2.43-1.43,1.98,0,3.1,1.72,3.1,5.32,0,4.04-1.36,5.67-3.42,5.67h0ZM149.6,35.03c0-2.58-.56-3.58-1.71-3.58-1.37,0-1.69,1.3-1.69,3.52,0,2.46.16,3.79,1.65,3.79,1.18,0,1.76-1.31,1.76-3.74ZM153.55,40.4v-14.68h2.14v14.68h-2.14ZM159.63,35.61c0,1.59.23,3.2,1.7,3.2,1.37,0,1.55-1.22,1.59-1.57h2.06c-.04.31-.29,3.36-3.68,3.36s-3.8-2.88-3.8-5.55c0-3.36,1.23-5.44,3.86-5.44,2.98,0,3.7,2.3,3.7,5.03,0,.31-.01.76-.04.97h-5.4ZM162.94,34.03c0-1.3-.21-2.65-1.59-2.65-1.58,0-1.67,1.9-1.69,2.65h3.28ZM162.94,34.03h0Z"/>
      <path class="cls-4" d="M35.12,21.99c.13.03.27-.06.29-.2l.26-1.37c.02-.13-.06-.26-.2-.29-.13-.02-.26.06-.29.2l-.26,1.37c-.03.13.06.26.2.29"/>
      <path class="cls-4" d="M32.24,21.82c.07,0,.13-.04.17-.08.04-.05.06-.11.06-.18l-.05-.69c0-.07-.04-.13-.09-.17-.05-.04-.11-.07-.18-.06-.07,0-.13.04-.17.09-.04.05-.06.11-.06.18l.05.69c0,.07.04.13.08.17.05.04.11.07.18.06"/>
      <path class="cls-4" d="M26.81,23.66c.06-.04.09-.1.11-.16.01-.06,0-.13-.04-.19l-.38-.58c-.04-.06-.1-.09-.16-.11-.06-.01-.13,0-.19.04-.06.04-.09.1-.11.16-.01.06,0,.13.04.19l.38.58c.04.06.1.09.16.11.06.01.13,0,.19-.04"/>
      <path class="cls-4" d="M29.41,22.39c.13-.04.2-.19.16-.32l-.45-1.32c-.05-.13-.19-.2-.32-.16-.13.04-.2.18-.16.32l.45,1.32c.04.13.19.2.32.16"/>
      <path class="cls-4" d="M26.81,23.66c-.06.04-.12.05-.19.04-.06-.01-.12-.05-.16-.11l-.38-.58c-.04-.06-.05-.12-.04-.19.01-.06.05-.12.11-.16.06-.04.12-.05.19-.04.06.01.12.05.16.11l.38.58c.04.06.05.12.04.19-.01.06-.05.12-.11.16"/>
      <path class="cls-4" d="M37.86,22.89c-.06-.03-.11-.08-.13-.14-.02-.06-.02-.13.01-.19l.3-.63c.03-.06.08-.11.14-.13.06-.02.13-.02.19.01s.11.08.13.14c.02.06.02.13-.01.19l-.3.63c-.03.06-.08.11-.14.13-.06.02-.13.02-.19-.01"/>
      <path class="cls-4" d="M40.29,24.45c-.11-.09-.12-.25-.03-.35l.9-1.06c.09-.11.25-.12.35-.03.1.09.12.24.03.35l-.9,1.06c-.09.11-.25.12-.35.03"/>
      <path class="cls-4" d="M24.63,25.55c.09-.1.08-.26-.02-.35l-1.04-.93c-.1-.09-.26-.08-.35.02-.09.1-.08.26.02.35l1.04.93c.1.09.26.08.35-.02"/>
      <path class="cls-4" d="M22.03,30.65c.03-.13-.06-.27-.19-.3l-1.36-.3c-.13-.03-.27.05-.3.19-.03.13.06.27.19.3l1.36.3c.14.03.27-.06.3-.19"/>
      <path class="cls-4" d="M21.78,33.53c0-.07-.03-.13-.08-.17-.05-.04-.11-.07-.18-.07l-.69.03c-.07,0-.13.03-.17.08-.04.05-.07.11-.07.18,0,.07.03.13.08.17.05.04.11.07.18.07l.69-.03c.07,0,.13-.03.17-.08.04-.05.07-.11.07-.18"/>
      <path class="cls-4" d="M23.47,39c-.04-.06-.09-.1-.16-.11s-.13,0-.19.03l-.59.37c-.06.04-.1.09-.11.15-.01.06,0,.13.03.19.04.06.09.1.16.11.06.01.13,0,.19-.03l.59-.37c.06-.04.1-.09.11-.15.02-.06,0-.13-.03-.19"/>
      <path class="cls-4" d="M22.27,36.37c-.04-.13-.18-.2-.31-.16l-1.33.41c-.13.04-.2.18-.17.31.04.13.18.21.31.16l1.33-.41c.13-.04.21-.18.17-.31"/>
      <path class="cls-4" d="M23.47,39c.04.06.05.13.03.19-.01.06-.05.12-.11.15l-.59.37c-.06.04-.13.04-.19.03-.06-.01-.12-.05-.16-.11-.04-.06-.04-.13-.03-.19.01-.06.05-.12.11-.15l.59-.37c.06-.04.13-.05.19-.03s.12.05.16.11"/>
      <path class="cls-4" d="M23,27.93c-.03.06-.08.1-.15.12-.06.02-.13.02-.19-.01l-.62-.32c-.06-.03-.1-.08-.12-.15-.02-.06-.02-.13.02-.19.03-.06.08-.1.15-.12.06-.02.13-.02.19.01l.62.32c.06.03.1.08.12.15.02.06.02.13-.01.19"/>
      <path class="cls-4" d="M25.29,41.24c-.1-.09-.26-.09-.35.01l-.96,1.01c-.09.1-.09.26.01.35.1.1.26.09.35,0l.96-1.01c.09-.1.09-.26,0-.35"/>
      <path class="cls-4" d="M38.36,39.33s-.09.03-.14.07c-3.25,2.54-7.79,2.34-10.81-.46-1.62-1.51-2.56-3.56-2.64-5.77-.08-2.21.72-4.33,2.23-5.95,3.13-3.35,8.41-3.54,11.77-.42,3.02,2.8,3.53,7.3,1.22,10.7-.1.15-.08.35.05.47l2.81,2.61-1.36,1.45-2.82-2.61c-.09-.09-.22-.11-.33-.09M49.79,44.73l-6.12-4.38-2.9-2.69c1.08-1.71,1.55-3.74,1.33-5.76-.23-2.15-1.24-4.14-2.82-5.61-.89-.83-1.92-1.46-3.06-1.87-1.1-.4-2.25-.58-3.43-.54-1.17.04-2.31.31-3.38.78-1.11.49-2.09,1.19-2.92,2.08-.83.89-1.47,1.92-1.89,3.05-.4,1.1-.59,2.25-.55,3.42.04,1.17.3,2.3.78,3.36.49,1.1,1.2,2.08,2.09,2.91,1.59,1.47,3.65,2.33,5.82,2.41.86.03,1.72-.06,2.55-.26,1.12-.28,2.19-.77,3.14-1.46l3.58,3.33,4.29,4.98c.87.8,2.29.68,3.19-.28l.25-.27c.9-.96.92-2.38.05-3.18"/>
      <path class="cls-4" d="M36.94,35.78c-.36.59-.96,1.02-1.63,1.19-.04.01-.09.02-.13.03-.2.04-.39-.09-.42-.29-.04-.2.09-.39.29-.42.52-.1,1-.43,1.28-.89.1-.17.33-.22.5-.12.17.1.22.33.12.5M33.33,36.88c0,.17-.11.32-.27.36-.02,0-.05,0-.08.01-1.76.06-3.49-1.09-4.1-2.74-.07-.19.03-.4.21-.46.19-.07.4.03.47.21.5,1.37,1.93,2.32,3.4,2.27.2,0,.37.15.37.35M37.64,28.01c-1.3-1.21-3-1.84-4.77-1.77-1.78.06-3.42.81-4.64,2.11-1.22,1.3-1.85,2.99-1.79,4.76.06,1.77.81,3.41,2.11,4.61,1.3,1.21,3,1.84,4.77,1.77.48-.02.94-.08,1.39-.2,1.24-.31,2.36-.96,3.24-1.91,1.22-1.3,1.85-2.99,1.79-4.76-.06-1.77-.81-3.41-2.11-4.62"/>
      <path class="cls-4" d="M178.64,247.8c0,2.5-2.03,4.54-4.54,4.54H21.71c-2.5,0-4.54-2.03-4.54-4.54V21.71c0-2.5,2.03-4.54,4.54-4.54h152.39c2.5,0,4.54,2.03,4.54,4.54v226.09ZM.11,269.4h195.59V.11H.11v269.29Z"/>
    </g>
    <path class="cls-1" d="M26.64,58.55h1.59c1.64,0,2.38,1.15,2.38,3.38,0,2.42-.67,3.75-2.5,3.75h-1.47v-7.13ZM27.43,65.02h.65c1.3,0,1.72-1.03,1.72-3.06,0-1.89-.49-2.73-1.71-2.73h-.66v5.79ZM34.74,64.75c0,.33.03.77.04.94h-.7c-.03-.12-.05-.4-.05-.6-.2.43-.6.7-1.26.7-1.02,0-1.39-.8-1.39-1.54,0-.97.66-1.7,2.05-1.7.25,0,.4,0,.56.02v-.71c0-.42-.08-.94-.8-.94-.78,0-.83.56-.86.92h-.74c.02-.76.39-1.54,1.63-1.54,1.03,0,1.53.5,1.53,1.48v2.99ZM34,63.16c-.13-.02-.28-.03-.53-.03-.95,0-1.33.45-1.33,1.05,0,.49.26.94.83.94.78,0,1.03-.55,1.03-1.67v-.29ZM36.01,60.36h.74c.01.13.03.34.03.7.18-.42.54-.79,1.26-.79.77,0,1.37.44,1.37,1.62v3.79h-.77v-3.64c0-.65-.21-1.09-.82-1.09-.72,0-1.02.47-1.02,1.56v3.17h-.77v-3.68c0-1.09,0-1.4-.01-1.65ZM41.98,65.15c.58,0,.86-.35.86-.84,0-.55-.28-.8-.98-1.08-1.1-.42-1.42-.82-1.42-1.56s.44-1.41,1.52-1.41c1.19,0,1.53.81,1.54,1.52h-.75c-.01-.25-.07-.89-.81-.89-.5,0-.73.31-.73.73s.19.64.92.92c1.03.4,1.48.77,1.48,1.69,0,.97-.61,1.54-1.67,1.54s-1.64-.66-1.67-1.63h.76c.03.57.33,1,.94,1ZM49.92,64.23c0,.67,0,1.2.01,1.46h-.73c-.02-.15-.04-.37-.04-.71-.19.53-.64.8-1.26.8s-1.33-.25-1.33-1.59v-3.83h.77v3.65c0,.68.19,1.1.8,1.1s1.01-.36,1.01-1.51v-3.23h.77v3.87ZM51.11,60.36h.74c.01.13.03.34.03.7.18-.42.54-.79,1.26-.79.77,0,1.37.44,1.37,1.62v3.79h-.77v-3.64c0-.65-.21-1.09-.82-1.09-.72,0-1.02.47-1.02,1.56v3.17h-.77v-3.68c0-1.09,0-1.4-.01-1.65ZM56.28,63.17c0,1.04.18,1.95,1.02,1.95s.94-.79.97-.95h.75c-.01.14-.16,1.62-1.73,1.62s-1.79-1.44-1.79-2.76c0-1.68.58-2.75,1.83-2.75,1.4,0,1.73,1.15,1.73,2.48,0,.1,0,.28-.01.41h-2.77ZM58.3,62.56c0-.92-.19-1.63-.97-1.63-.97,0-1.02,1.27-1.04,1.63h2.01ZM58.3,62.56h0ZM62.04,60.36h.74c.01.14.02.39.02.95.23-.64.74-1.02,1.41-1.03v.85c-.92.03-1.39.6-1.39,1.58v2.97h-.77v-3.51c0-.85,0-1.43-.01-1.81ZM65.39,63.17c0,1.04.18,1.95,1.02,1.95s.94-.79.97-.95h.75c-.01.14-.16,1.62-1.73,1.62s-1.79-1.44-1.79-2.76c0-1.68.58-2.75,1.83-2.75,1.4,0,1.73,1.15,1.73,2.48,0,.1,0,.28-.01.41h-2.77ZM67.41,62.56c0-.92-.19-1.63-.97-1.63-.97,0-1.02,1.27-1.04,1.63h2.01ZM67.41,62.56h0ZM72.44,64.06c-.02.28-.14,1.72-1.69,1.72-1.39,0-1.77-1.23-1.77-2.77s.49-2.73,1.84-2.73c1.55,0,1.62,1.43,1.62,1.68h-.79c-.01-.22-.08-1.02-.84-1.02s-1.05.84-1.05,2.07c0,1.32.29,2.12,1.01,2.12.77,0,.86-.78.9-1.06h.76ZM74.13,58.21v2.8c.19-.43.6-.74,1.28-.74.78,0,1.34.49,1.34,1.63v3.78h-.77v-3.63c0-.65-.19-1.1-.84-1.1-.73,0-1,.6-1,1.53v3.2h-.77v-7.47h.77ZM78.51,63.17c0,1.04.18,1.95,1.02,1.95s.94-.79.97-.95h.75c-.01.14-.16,1.62-1.73,1.62s-1.79-1.44-1.79-2.76c0-1.68.58-2.75,1.83-2.75,1.4,0,1.73,1.15,1.73,2.48,0,.1,0,.28-.01.41h-2.77ZM80.53,62.56c0-.92-.19-1.63-.97-1.63-.97,0-1.02,1.27-1.04,1.63h2.01ZM80.53,62.56h0ZM82.26,60.36h.74c.01.14.02.39.02.95.23-.64.74-1.02,1.41-1.03v.85c-.92.03-1.39.6-1.39,1.58v2.97h-.77v-3.51c0-.85,0-1.43-.01-1.81ZM88.3,64.06c-.02.28-.14,1.72-1.69,1.72-1.39,0-1.77-1.23-1.77-2.77s.49-2.73,1.84-2.73c1.55,0,1.62,1.43,1.62,1.68h-.79c-.01-.22-.08-1.02-.84-1.02s-1.05.84-1.05,2.07c0,1.32.29,2.12,1.01,2.12.77,0,.86-.78.9-1.06h.76ZM89.99,58.21v2.8c.19-.43.6-.74,1.28-.74.78,0,1.34.49,1.34,1.63v3.78h-.77v-3.63c0-.65-.19-1.1-.84-1.1-.73,0-1,.6-1,1.53v3.2h-.77v-7.47h.77ZM94.37,63.17c0,1.04.18,1.95,1.02,1.95s.94-.79.97-.95h.75c-.01.14-.16,1.62-1.73,1.62s-1.79-1.44-1.79-2.76c0-1.68.58-2.75,1.83-2.75,1.4,0,1.73,1.15,1.73,2.48,0,.1,0,.28-.01.41h-2.77ZM96.39,62.56c0-.92-.19-1.63-.97-1.63-.97,0-1.02,1.27-1.04,1.63h2.01ZM96.39,62.56h0ZM97.53,66.88c.32-.83.53-1.77.58-2.53h.74c-.07.97-.37,1.98-.69,2.53h-.63ZM104.8,64.75c0,.33.03.77.04.94h-.7c-.03-.12-.05-.4-.05-.6-.2.43-.6.7-1.26.7-1.02,0-1.39-.8-1.39-1.54,0-.97.66-1.7,2.05-1.7.25,0,.4,0,.56.02v-.71c0-.42-.08-.94-.8-.94-.78,0-.83.56-.86.92h-.74c.02-.76.39-1.54,1.63-1.54,1.03,0,1.53.5,1.53,1.48v2.99ZM102.57,58.1l1.12,1.46h-.72l-1.32-1.46h.92ZM104.06,63.16c-.13-.02-.28-.03-.53-.03-.95,0-1.33.45-1.33,1.05,0,.49.26.94.83.94.78,0,1.03-.55,1.03-1.67v-.29ZM110.65,65.01c-.2.46-.56.77-1.25.77-1,0-1.59-.82-1.59-2.76,0-1.76.67-2.75,1.72-2.75.7,0,1,.34,1.11.67,0-.29.02-.48.03-.58h.74c-.01.38-.01.82-.01,1.58v5.7h-.75v-2.63ZM108.61,63.03c0,1.27.3,2.08,1.01,2.08.86,0,1.04-.75,1.04-2.11s-.11-2.05-.98-2.05c-.67,0-1.06.72-1.06,2.08ZM116.03,64.23c0,.67,0,1.2.01,1.46h-.73c-.02-.15-.04-.37-.04-.71-.19.53-.64.8-1.26.8s-1.33-.25-1.33-1.59v-3.83h.77v3.65c0,.68.19,1.1.8,1.1s1.01-.36,1.01-1.51v-3.23h.77v3.87ZM120.68,62.96c0,1.87-.63,2.82-1.83,2.82s-1.83-.91-1.83-2.8.72-2.7,1.86-2.7,1.8.9,1.8,2.69ZM117.8,62.98c0,1.45.36,2.14,1.05,2.14s1.04-.7,1.04-2.14c0-1.36-.34-2.03-1.04-2.03s-1.05.6-1.05,2.04ZM121.68,60.36h.77v5.32h-.77v-5.32ZM121.68,58.21h.77v1.1h-.77v-1.1ZM128.92,64.06c-.02.28-.14,1.72-1.69,1.72-1.39,0-1.77-1.23-1.77-2.77s.49-2.73,1.84-2.73c1.55,0,1.62,1.43,1.62,1.68h-.79c-.01-.22-.08-1.02-.84-1.02s-1.05.84-1.05,2.07c0,1.32.29,2.12,1.01,2.12.77,0,.86-.78.9-1.06h.76ZM130.4,63.17c0,1.04.18,1.95,1.02,1.95s.94-.79.97-.95h.75c-.01.14-.16,1.62-1.73,1.62s-1.79-1.44-1.79-2.76c0-1.68.58-2.75,1.83-2.75,1.4,0,1.73,1.15,1.73,2.48,0,.1,0,.28-.01.41h-2.77ZM132.42,62.56c0-.92-.19-1.63-.97-1.63-.97,0-1.02,1.27-1.04,1.63h2.01ZM132.42,62.56h0ZM134.16,65.69v-7.47h.77v7.47h-.77ZM139.24,64.75c0,.33.03.77.04.94h-.7c-.03-.12-.05-.4-.05-.6-.2.43-.6.7-1.26.7-1.02,0-1.39-.8-1.39-1.54,0-.97.66-1.7,2.05-1.7.25,0,.4,0,.56.02v-.71c0-.42-.08-.94-.8-.94-.78,0-.83.56-.86.92h-.74c.02-.76.39-1.54,1.63-1.54,1.03,0,1.53.5,1.53,1.48v2.99ZM138.5,63.16c-.13-.02-.28-.03-.53-.03-.95,0-1.33.45-1.33,1.05,0,.49.26.94.83.94.78,0,1.03-.55,1.03-1.67v-.29Z"/>
    <path class="cls-1" d="M27.88,76.16c.58,0,.86-.35.86-.84,0-.55-.28-.8-.98-1.08-1.1-.42-1.42-.82-1.42-1.56s.44-1.41,1.52-1.41c1.19,0,1.53.81,1.54,1.52h-.75c-.01-.25-.07-.89-.81-.89-.5,0-.73.31-.73.73s.19.64.92.92c1.03.4,1.48.77,1.48,1.69,0,.97-.61,1.54-1.67,1.54s-1.64-.66-1.67-1.63h.76c.03.57.33,1,.94,1ZM30.98,74.17c0,1.04.18,1.95,1.02,1.95s.94-.79.97-.95h.75c-.01.14-.16,1.62-1.73,1.62s-1.79-1.44-1.79-2.76c0-1.68.58-2.75,1.83-2.75,1.4,0,1.73,1.15,1.73,2.48,0,.1,0,.28-.01.41h-2.77ZM33,73.57c0-.92-.19-1.63-.97-1.63-.97,0-1.02,1.27-1.04,1.63h2.01ZM33,73.57h0ZM34.74,71.37h.74c.01.14.02.39.02.95.23-.64.74-1.02,1.41-1.03v.85c-.92.03-1.39.6-1.39,1.58v2.97h-.77v-3.51c0-.85,0-1.43-.01-1.81ZM37.34,71.37h.75v-1.42h.76v1.42h.93v.66h-.93v3.49c0,.37.08.59.48.59.13,0,.28,0,.38-.03v.59c-.18.07-.45.09-.63.09-.63,0-.99-.25-.99-1.09v-3.65h-.75v-.66ZM45.84,69.22v6.11c0,.52,0,1.05.01,1.37h-.74c-.01-.14-.03-.49-.03-.72-.16.46-.5.81-1.25.81-1.11,0-1.58-.94-1.58-2.81,0-1.7.63-2.69,1.75-2.69.69,0,.96.29,1.08.55v-2.62h.77ZM43.04,73.98c0,1.54.35,2.12,1,2.12.83,0,1.05-.71,1.05-2.15,0-1.55-.22-1.99-.99-1.99-.63,0-1.06.56-1.06,2.02ZM46.7,71.61c.19-.73.36-1.6.36-2.43h.74c-.01.9-.28,1.98-.49,2.43h-.62ZM48.66,74.17c0,1.04.18,1.95,1.02,1.95s.94-.79.97-.95h.75c-.01.14-.16,1.62-1.73,1.62s-1.79-1.44-1.79-2.76c0-1.68.58-2.75,1.83-2.75,1.4,0,1.73,1.15,1.73,2.48,0,.1,0,.28-.01.41h-2.77ZM50.68,73.57c0-.92-.19-1.63-.97-1.63-.97,0-1.02,1.27-1.04,1.63h2.01ZM50.68,73.57h0ZM52.42,71.37h.74c.01.13.03.34.03.7.18-.42.54-.79,1.26-.79.77,0,1.37.44,1.37,1.62v3.79h-.77v-3.64c0-.65-.21-1.09-.82-1.09-.72,0-1.02.47-1.02,1.56v3.17h-.77v-3.68c0-1.09,0-1.4-.01-1.65ZM60.28,75.06c-.02.28-.14,1.72-1.69,1.72-1.39,0-1.77-1.23-1.77-2.77s.49-2.73,1.84-2.73c1.55,0,1.62,1.43,1.62,1.68h-.79c-.01-.22-.08-1.02-.84-1.02s-1.05.84-1.05,2.07c0,1.32.29,2.12,1.01,2.12.77,0,.86-.78.9-1.06h.76ZM64.3,75.75c0,.33.03.77.04.94h-.7c-.03-.12-.05-.4-.05-.6-.2.43-.6.7-1.26.7-1.02,0-1.39-.8-1.39-1.54,0-.97.66-1.7,2.05-1.7.25,0,.4,0,.56.02v-.71c0-.42-.08-.94-.8-.94-.78,0-.83.56-.86.92h-.74c.02-.76.39-1.54,1.63-1.54,1.03,0,1.53.5,1.53,1.48v2.99ZM63.56,74.17c-.13-.02-.28-.03-.53-.03-.95,0-1.33.45-1.33,1.05,0,.49.26.94.83.94.78,0,1.03-.55,1.03-1.67v-.29ZM68.9,69.22v6.11c0,.52,0,1.05.01,1.37h-.74c-.01-.14-.03-.49-.03-.72-.16.46-.5.81-1.25.81-1.11,0-1.58-.94-1.58-2.81,0-1.7.63-2.69,1.75-2.69.69,0,.96.29,1.08.55v-2.62h.77ZM66.1,73.98c0,1.54.35,2.12,1,2.12.83,0,1.05-.71,1.05-2.15,0-1.55-.22-1.99-.99-1.99-.63,0-1.06.56-1.06,2.02ZM70.14,71.37h.74c.01.14.02.39.02.95.23-.64.74-1.02,1.41-1.03v.85c-.92.03-1.39.6-1.39,1.58v2.97h-.77v-3.51c0-.85,0-1.43-.01-1.81ZM73.5,74.17c0,1.04.18,1.95,1.02,1.95s.94-.79.97-.95h.75c-.01.14-.16,1.62-1.73,1.62s-1.79-1.44-1.79-2.76c0-1.68.58-2.75,1.83-2.75,1.4,0,1.73,1.15,1.73,2.48,0,.1,0,.28-.01.41h-2.77ZM75.52,73.57c0-.92-.19-1.63-.97-1.63-.97,0-1.02,1.27-1.04,1.63h2.01ZM75.52,73.57h0ZM77.25,71.37h.74c.01.14.02.39.02.95.23-.64.74-1.02,1.41-1.03v.85c-.92.03-1.39.6-1.39,1.58v2.97h-.77v-3.51c0-.85,0-1.43-.01-1.81ZM82.17,72.96c0-.95,0-1.35-.01-1.6h.74c.02.16.03.44.03.68.21-.46.59-.77,1.19-.77.56,0,.94.24,1.1.79.19-.43.6-.79,1.29-.79s1.29.32,1.29,1.55v3.86h-.76v-3.73c0-.54-.16-1-.75-1-.68,0-.91.6-.91,1.32v3.41h-.76v-3.71c0-.66-.22-1.02-.74-1.02-.64,0-.94.58-.94,1.39v3.34h-.76v-3.73ZM89.56,74.17c0,1.04.18,1.95,1.02,1.95s.94-.79.97-.95h.75c-.01.14-.16,1.62-1.73,1.62s-1.79-1.44-1.79-2.76c0-1.68.58-2.75,1.83-2.75,1.4,0,1.73,1.15,1.73,2.48,0,.1,0,.28-.01.41h-2.77ZM91.58,73.57c0-.92-.19-1.63-.97-1.63-.97,0-1.02,1.27-1.04,1.63h2.01ZM91.58,73.57h0ZM94.7,76.16c.58,0,.86-.35.86-.84,0-.55-.28-.8-.98-1.08-1.1-.42-1.42-.82-1.42-1.56s.44-1.41,1.52-1.41c1.19,0,1.53.81,1.54,1.52h-.75c-.01-.25-.07-.89-.81-.89-.5,0-.73.31-.73.73s.19.64.92.92c1.03.4,1.48.77,1.48,1.69,0,.97-.61,1.54-1.67,1.54s-1.64-.66-1.67-1.63h.76c.03.57.33,1,.94,1ZM98.63,71.37h.75v-1.42h.76v1.42h.93v.66h-.93v3.49c0,.37.08.59.48.59.13,0,.28,0,.38-.03v.59c-.18.07-.45.09-.63.09-.63,0-.99-.25-.99-1.09v-3.65h-.75v-.66ZM102.26,74.17c0,1.04.18,1.95,1.02,1.95s.94-.79.97-.95h.75c-.01.14-.16,1.62-1.73,1.62s-1.79-1.44-1.79-2.76c0-1.68.58-2.75,1.83-2.75,1.4,0,1.73,1.15,1.73,2.48,0,.1,0,.28-.01.41h-2.77ZM104.28,73.57c0-.92-.19-1.63-.97-1.63-.97,0-1.02,1.27-1.04,1.63h2.01ZM104.28,73.57h0ZM106.01,71.37h.74c.01.14.02.39.02.95.23-.64.74-1.02,1.41-1.03v.85c-.92.03-1.39.6-1.39,1.58v2.97h-.77v-3.51c0-.85,0-1.43-.01-1.81ZM108.87,72.96c0-.95,0-1.35-.01-1.6h.74c.02.16.03.44.03.68.21-.46.59-.77,1.19-.77.56,0,.94.24,1.1.79.19-.43.6-.79,1.29-.79s1.29.32,1.29,1.55v3.86h-.76v-3.73c0-.54-.16-1-.75-1-.68,0-.91.6-.91,1.32v3.41h-.76v-3.71c0-.66-.22-1.02-.74-1.02-.64,0-.94.58-.94,1.39v3.34h-.76v-3.73ZM116.26,74.17c0,1.04.18,1.95,1.02,1.95s.94-.79.97-.95h.75c-.01.14-.16,1.62-1.73,1.62s-1.79-1.44-1.79-2.76c0-1.68.58-2.75,1.83-2.75,1.4,0,1.73,1.15,1.73,2.48,0,.1,0,.28-.01.41h-2.77ZM118.28,73.57c0-.92-.19-1.63-.97-1.63-.97,0-1.02,1.27-1.04,1.63h2.01ZM118.28,73.57h0ZM121.41,76.16c.58,0,.86-.35.86-.84,0-.55-.28-.8-.98-1.08-1.1-.42-1.42-.82-1.42-1.56s.44-1.41,1.52-1.41c1.19,0,1.53.81,1.54,1.52h-.75c-.01-.25-.07-.89-.81-.89-.5,0-.73.31-.73.73s.19.64.92.92c1.03.4,1.48.77,1.48,1.69,0,.97-.61,1.54-1.67,1.54s-1.64-.66-1.67-1.63h.76c.03.57.33,1,.94,1ZM126.76,76.15v2.5h-.77v-5.73c0-.73,0-1.22-.01-1.55h.74c.01.1.03.45.03.72.19-.46.56-.8,1.27-.8,1.01,0,1.56.89,1.56,2.68,0,1.92-.67,2.83-1.71,2.83-.64,0-.96-.3-1.11-.64ZM128.79,73.99c0-1.34-.31-2.03-1.01-2.03-.83,0-1.05.79-1.05,2.04s.12,2.11,1,2.11c.7,0,1.05-.81,1.05-2.12ZM133.65,75.75c0,.33.03.77.04.94h-.7c-.03-.12-.05-.4-.05-.6-.2.43-.6.7-1.26.7-1.02,0-1.39-.8-1.39-1.54,0-.97.66-1.7,2.05-1.7.25,0,.4,0,.56.02v-.71c0-.42-.08-.94-.8-.94-.78,0-.83.56-.86.92h-.74c.02-.76.39-1.54,1.63-1.54,1.03,0,1.53.5,1.53,1.48v2.99ZM132.91,74.17c-.13-.02-.28-.03-.53-.03-.95,0-1.33.45-1.33,1.05,0,.49.26.94.83.94.78,0,1.03-.55,1.03-1.67v-.29ZM134.92,71.37h.74c.01.14.02.39.02.95.23-.64.74-1.02,1.41-1.03v.85c-.92.03-1.39.6-1.39,1.58v2.97h-.77v-3.51c0-.85,0-1.43-.01-1.81ZM143.15,69.22v6.11c0,.52,0,1.05.01,1.37h-.74c-.01-.14-.03-.49-.03-.72-.16.46-.5.81-1.25.81-1.11,0-1.58-.94-1.58-2.81,0-1.7.63-2.69,1.75-2.69.69,0,.96.29,1.08.55v-2.62h.77ZM140.35,73.98c0,1.54.35,2.12,1,2.12.83,0,1.05-.71,1.05-2.15,0-1.55-.22-1.99-.99-1.99-.63,0-1.06.56-1.06,2.02ZM144.92,74.17c0,1.04.18,1.95,1.02,1.95s.94-.79.97-.95h.75c-.01.14-.16,1.62-1.73,1.62s-1.79-1.44-1.79-2.76c0-1.68.58-2.75,1.83-2.75,1.4,0,1.73,1.15,1.73,2.48,0,.1,0,.28-.01.41h-2.77ZM146.94,73.57c0-.92-.19-1.63-.97-1.63-.97,0-1.02,1.27-1.04,1.63h2.01ZM146.94,73.57h0ZM150.06,76.16c.58,0,.86-.35.86-.84,0-.55-.28-.8-.98-1.08-1.1-.42-1.42-.82-1.42-1.56s.44-1.41,1.52-1.41c1.19,0,1.53.81,1.54,1.52h-.75c-.01-.25-.07-.89-.81-.89-.5,0-.73.31-.73.73s.19.64.92.92c1.03.4,1.48.77,1.48,1.69,0,.97-.61,1.54-1.67,1.54s-1.64-.66-1.67-1.63h.76c.03.57.33,1,.94,1Z"/>
    <path class="cls-1" d="M29.9,87.35c0,1.4-.34,2.38-1.86,2.38-1.38,0-1.67-.89-1.7-1.47h.78c.02.29.19.81.95.81.89,0,1.08-.65,1.08-1.73v-.49c-.19.54-.64.81-1.24.81-1.07,0-1.6-.91-1.6-2.58,0-1.92.71-2.81,1.72-2.81.72,0,1.03.35,1.12.7,0-.24.02-.5.04-.61h.74c-.01.28-.01.82-.01,1.54v3.45ZM27.09,85.08c0,1.29.35,1.92,1.02,1.92.83,0,1.05-.81,1.05-2.05s-.17-1.99-.98-1.99c-.71,0-1.08.73-1.08,2.12ZM34.51,86.24c0,.67,0,1.2.01,1.46h-.73c-.02-.15-.04-.37-.04-.71-.19.53-.64.8-1.26.8s-1.33-.25-1.33-1.59v-3.83h.77v3.65c0,.68.19,1.1.8,1.1s1.01-.36,1.01-1.51v-3.23h.77v3.87ZM35.77,82.37h.77v5.32h-.77v-5.32ZM35.77,80.22h.77v1.1h-.77v-1.1ZM37.82,87.69v-7.47h.77v7.47h-.77ZM39.88,87.69v-7.47h.77v7.47h-.77ZM42.43,85.18c0,1.04.18,1.95,1.02,1.95s.94-.79.97-.95h.75c-.01.14-.16,1.62-1.73,1.62s-1.79-1.44-1.79-2.76c0-1.68.58-2.75,1.83-2.75,1.4,0,1.73,1.15,1.73,2.48,0,.1,0,.28-.01.41h-2.77ZM44.45,84.57c0-.92-.19-1.63-.97-1.63-.97,0-1.02,1.27-1.04,1.63h2.01ZM44.45,84.57h0ZM46.2,83.97c0-.95,0-1.35-.01-1.6h.74c.02.16.03.44.03.68.21-.46.59-.77,1.19-.77.56,0,.94.24,1.1.79.19-.43.6-.79,1.29-.79s1.29.32,1.29,1.55v3.86h-.76v-3.73c0-.54-.16-1-.75-1-.68,0-.91.6-.91,1.32v3.41h-.76v-3.71c0-.66-.22-1.02-.74-1.02-.64,0-.94.58-.94,1.39v3.34h-.76v-3.73ZM53.59,85.18c0,1.04.18,1.95,1.02,1.95s.94-.79.97-.95h.75c-.01.14-.16,1.62-1.73,1.62s-1.79-1.44-1.79-2.76c0-1.68.58-2.75,1.83-2.75,1.4,0,1.73,1.15,1.73,2.48,0,.1,0,.28-.01.41h-2.77ZM55.61,84.57c0-.92-.19-1.63-.97-1.63-.97,0-1.02,1.27-1.04,1.63h2.01ZM55.61,84.57h0ZM56.81,82.37h.75v-1.42h.76v1.42h.93v.66h-.93v3.49c0,.37.08.59.48.59.13,0,.28,0,.38-.03v.59c-.18.07-.45.09-.63.09-.63,0-.99-.25-.99-1.09v-3.65h-.75v-.66ZM61.43,87.16c.58,0,.86-.35.86-.84,0-.55-.28-.8-.98-1.08-1.1-.42-1.42-.82-1.42-1.56s.44-1.41,1.52-1.41c1.19,0,1.53.81,1.54,1.52h-.75c-.01-.25-.07-.89-.81-.89-.5,0-.73.31-.73.73s.19.64.92.92c1.03.4,1.48.77,1.48,1.69,0,.97-.61,1.54-1.67,1.54s-1.64-.66-1.67-1.63h.76c.03.57.33,1,.94,1ZM67.96,80.18c-.71,1.06-1.34,2.43-1.34,4.42,0,1.82.49,3.23,1.34,4.54h-.74c-.65-.94-1.32-2.47-1.32-4.55s.71-3.51,1.32-4.41h.74ZM69.53,87.15v2.5h-.77v-5.73c0-.73,0-1.22-.01-1.55h.74c.01.1.03.45.03.72.19-.46.56-.8,1.27-.8,1.01,0,1.56.89,1.56,2.68,0,1.92-.67,2.83-1.71,2.83-.64,0-.96-.3-1.11-.64ZM71.57,84.99c0-1.34-.31-2.03-1.01-2.03-.83,0-1.05.79-1.05,2.04s.12,2.11,1,2.11c.7,0,1.05-.81,1.05-2.12ZM76.43,86.75c0,.33.03.77.04.94h-.7c-.03-.12-.05-.4-.05-.6-.2.43-.6.7-1.26.7-1.02,0-1.39-.8-1.39-1.54,0-.97.66-1.7,2.05-1.7.25,0,.4,0,.56.02v-.71c0-.42-.08-.94-.8-.94-.78,0-.83.56-.86.92h-.74c.02-.76.39-1.54,1.63-1.54,1.03,0,1.53.5,1.53,1.48v2.99ZM75.69,85.17c-.13-.02-.28-.03-.53-.03-.95,0-1.33.45-1.33,1.05,0,.49.26.94.83.94.78,0,1.03-.55,1.03-1.67v-.29ZM77.69,82.37h.74c.01.14.02.39.02.95.23-.64.74-1.02,1.41-1.03v.85c-.92.03-1.39.6-1.39,1.58v2.97h-.77v-3.51c0-.85,0-1.43-.01-1.81ZM83.11,85.18c0,1.04.18,1.95,1.02,1.95s.94-.79.97-.95h.75c-.01.14-.16,1.62-1.73,1.62s-1.79-1.44-1.79-2.76c0-1.68.58-2.75,1.83-2.75,1.4,0,1.73,1.15,1.73,2.48,0,.1,0,.28-.01.41h-2.77ZM85.14,84.57c0-.92-.19-1.63-.97-1.63-.97,0-1.02,1.27-1.04,1.63h2.01ZM85.14,84.57h0ZM87.13,82.37c.56,1.15.84,1.68.97,1.98h.01c.17-.36.53-1.06,1-1.98h.82l-1.4,2.54,1.41,2.78h-.86c-.52-1.1-.85-1.75-1-2.07h-.01c-.14.28-.53,1.08-1.02,2.07h-.82l1.4-2.67-1.36-2.65h.85ZM91.03,85.18c0,1.04.18,1.95,1.02,1.95s.94-.79.97-.95h.75c-.01.14-.16,1.62-1.73,1.62s-1.79-1.44-1.79-2.76c0-1.68.58-2.75,1.83-2.75,1.4,0,1.73,1.15,1.73,2.48,0,.1,0,.28-.01.41h-2.77ZM93.05,84.57c0-.92-.19-1.63-.97-1.63-.97,0-1.02,1.27-1.04,1.63h2.01ZM93.05,84.57h0ZM94.8,83.97c0-.95,0-1.35-.01-1.6h.74c.02.16.03.44.03.68.21-.46.59-.77,1.19-.77.56,0,.94.24,1.1.79.19-.43.6-.79,1.29-.79s1.29.32,1.29,1.55v3.86h-.76v-3.73c0-.54-.16-1-.75-1-.68,0-.91.6-.91,1.32v3.41h-.76v-3.71c0-.66-.22-1.02-.74-1.02-.64,0-.94.58-.94,1.39v3.34h-.76v-3.73ZM102.45,87.15v2.5h-.77v-5.73c0-.73,0-1.22-.01-1.55h.74c.01.1.03.45.03.72.19-.46.56-.8,1.27-.8,1.01,0,1.56.89,1.56,2.68,0,1.92-.67,2.83-1.71,2.83-.64,0-.96-.3-1.11-.64ZM104.48,84.99c0-1.34-.31-2.03-1.01-2.03-.83,0-1.05.79-1.05,2.04s.12,2.11,1,2.11c.7,0,1.05-.81,1.05-2.12ZM106.27,87.69v-7.47h.77v7.47h-.77ZM108.82,85.18c0,1.04.18,1.95,1.02,1.95s.94-.79.97-.95h.75c-.01.14-.16,1.62-1.73,1.62s-1.79-1.44-1.79-2.76c0-1.68.58-2.75,1.83-2.75,1.4,0,1.73,1.15,1.73,2.48,0,.1,0,.28-.01.41h-2.77ZM110.84,84.57c0-.92-.19-1.63-.97-1.63-.97,0-1.02,1.27-1.04,1.63h2.01ZM110.84,84.57h0ZM114.27,81.09v-.87h.71v.88l-.07,1.57h-.56l-.08-1.58ZM115.5,81.09v-.87h.71v.88l-.07,1.57h-.56l-.07-1.58ZM120.46,86.24c0,.67,0,1.2.01,1.46h-.73c-.02-.15-.04-.37-.04-.71-.19.53-.64.8-1.26.8s-1.33-.25-1.33-1.59v-3.83h.77v3.65c0,.68.19,1.1.8,1.1s1.01-.36,1.01-1.51v-3.23h.77v3.87ZM121.64,82.37h.74c.01.13.03.34.03.7.18-.42.54-.79,1.26-.79.77,0,1.37.44,1.37,1.62v3.79h-.77v-3.64c0-.65-.21-1.09-.82-1.09-.72,0-1.02.47-1.02,1.56v3.17h-.77v-3.68c0-1.09,0-1.4-.01-1.65ZM126.31,82.37h.77v5.32h-.77v-5.32ZM126.31,80.22h.77v1.1h-.77v-1.1ZM127.79,82.37h.75v-1.42h.76v1.42h.93v.66h-.93v3.49c0,.37.08.59.48.59.13,0,.28,0,.38-.03v.59c-.18.07-.45.09-.63.09-.63,0-.99-.25-.99-1.09v-3.65h-.75v-.66ZM131.41,85.18c0,1.04.18,1.95,1.02,1.95s.94-.79.97-.95h.75c-.01.14-.16,1.62-1.73,1.62s-1.79-1.44-1.79-2.76c0-1.68.58-2.75,1.83-2.75,1.4,0,1.73,1.15,1.73,2.48,0,.1,0,.28-.01.41h-2.77ZM133.43,84.57c0-.92-.19-1.63-.97-1.63-.97,0-1.02,1.27-1.04,1.63h2.01ZM133.93,80.1l-1.32,1.46h-.72l1.12-1.46h.91ZM133.43,84.57h0ZM140.51,80.22v6.11c0,.52,0,1.05.01,1.37h-.74c-.01-.14-.03-.49-.03-.72-.16.46-.5.81-1.25.81-1.11,0-1.58-.94-1.58-2.81,0-1.7.63-2.69,1.75-2.69.69,0,.96.29,1.08.55v-2.62h.77ZM137.71,84.98c0,1.54.35,2.12,1,2.12.83,0,1.05-.71,1.05-2.15,0-1.55-.22-1.99-.99-1.99-.63,0-1.06.56-1.06,2.02ZM142.27,85.18c0,1.04.18,1.95,1.02,1.95s.94-.79.97-.95h.75c-.01.14-.16,1.62-1.73,1.62s-1.79-1.44-1.79-2.76c0-1.68.58-2.75,1.83-2.75,1.4,0,1.73,1.15,1.73,2.48,0,.1,0,.28-.01.41h-2.77ZM144.29,84.57c0-.92-.19-1.63-.97-1.63-.97,0-1.02,1.27-1.04,1.63h2.01ZM144.29,84.57h0Z"/>
    <path class="cls-1" d="M27.88,98.16c.58,0,.86-.35.86-.84,0-.55-.28-.8-.98-1.08-1.1-.42-1.42-.82-1.42-1.56s.44-1.41,1.52-1.41c1.19,0,1.53.81,1.54,1.52h-.75c-.01-.25-.07-.89-.81-.89-.5,0-.73.31-.73.73s.19.64.92.92c1.03.4,1.48.77,1.48,1.69,0,.97-.61,1.54-1.67,1.54s-1.64-.66-1.67-1.63h.76c.03.57.33,1,.94,1ZM33.87,95.97c0,1.87-.63,2.82-1.83,2.82s-1.83-.91-1.83-2.8.72-2.7,1.86-2.7,1.8.9,1.8,2.69ZM31,95.99c0,1.45.36,2.14,1.05,2.14s1.04-.7,1.04-2.14c0-1.36-.34-2.03-1.04-2.03s-1.05.6-1.05,2.04ZM34.87,93.37h.77v5.32h-.77v-5.32ZM34.88,91.22h.77v1.1h-.77v-1.1ZM36.9,93.37h.74c.01.13.03.34.03.7.18-.42.54-.79,1.26-.79.77,0,1.37.44,1.37,1.62v3.79h-.77v-3.64c0-.65-.21-1.09-.82-1.09-.72,0-1.02.47-1.02,1.56v3.17h-.77v-3.68c0-1.09,0-1.4-.01-1.65ZM42.88,98.16c.58,0,.86-.35.86-.84,0-.55-.28-.8-.98-1.08-1.1-.42-1.42-.82-1.42-1.56s.44-1.41,1.52-1.41c1.19,0,1.53.81,1.54,1.52h-.75c-.01-.25-.07-.89-.81-.89-.5,0-.73.31-.73.73s.19.64.92.92c1.03.4,1.48.77,1.48,1.69,0,.97-.61,1.54-1.67,1.54s-1.64-.66-1.67-1.63h.76c.03.57.33,1,.94,1ZM45.08,92.1v-.87h.71v.88l-.07,1.57h-.56l-.08-1.58ZM46.3,92.1v-.87h.71v.88l-.07,1.57h-.56l-.07-1.58ZM47.61,100.14c.71-1.06,1.34-2.43,1.34-4.42,0-1.82-.49-3.23-1.34-4.54h.74c.65.94,1.32,2.47,1.32,4.55s-.71,3.51-1.32,4.41h-.74ZM51.77,96.56v-.14c0-.54.13-1.02.71-1.78.43-.58.57-.97.57-1.45,0-.59-.21-1.06-.84-1.06-.58,0-.85.48-.88,1.24h-.72c.02-.83.35-1.88,1.64-1.88,1.16,0,1.58.76,1.58,1.7,0,.75-.24,1.2-.8,1.95-.37.51-.49.91-.49,1.35v.08h-.77ZM51.76,98.7v-1.32h.78v1.32h-.78Z"/>
    <path class="cls-1" d="M29.66,111.6c0,.33.03.77.04.94h-.7c-.03-.12-.05-.4-.05-.6-.2.43-.6.7-1.26.7-1.02,0-1.39-.8-1.39-1.54,0-.97.66-1.7,2.05-1.7.25,0,.4,0,.56.02v-.71c0-.42-.08-.94-.8-.94-.78,0-.83.56-.86.92h-.74c.02-.76.39-1.54,1.63-1.54,1.03,0,1.53.5,1.53,1.48v2.99ZM28.92,110.02c-.13-.02-.28-.03-.53-.03-.95,0-1.33.45-1.33,1.05,0,.49.26.94.83.94.78,0,1.03-.55,1.03-1.67v-.29ZM30.69,111.1h.78v1.44h-.78v-1.44Z"/>
    <path class="cls-1" d="M37.83,112.54h-.78s1.72-7.13,1.72-7.13h1.02l1.77,7.13h-.83l-.53-2.26h-1.85l-.52,2.26ZM38.54,103.68l1.16,1.24h-.82l-1.36-1.24h1.01ZM40.04,109.58c-.41-1.75-.68-2.87-.78-3.43h-.02c-.1.62-.39,1.9-.74,3.43h1.54ZM44.79,110.02c0,1.04.18,1.95,1.02,1.95s.94-.79.97-.95h.75c-.01.14-.16,1.62-1.73,1.62s-1.79-1.44-1.79-2.76c0-1.68.58-2.75,1.83-2.75,1.4,0,1.73,1.15,1.73,2.48,0,.1,0,.28-.01.41h-2.77ZM46.81,109.42c0-.92-.19-1.63-.97-1.63-.97,0-1.02,1.27-1.04,1.63h2.01ZM47.31,104.95l-1.32,1.46h-.72l1.12-1.46h.91ZM46.81,109.42h0ZM48.55,112.54v-7.47h.77v7.47h-.77ZM53.63,111.6c0,.33.03.77.04.94h-.7c-.03-.12-.05-.4-.05-.6-.2.43-.6.7-1.26.7-1.02,0-1.39-.8-1.39-1.54,0-.97.66-1.7,2.05-1.7.25,0,.4,0,.56.02v-.71c0-.42-.08-.94-.8-.94-.78,0-.83.56-.86.92h-.74c.02-.76.39-1.54,1.63-1.54,1.03,0,1.53.5,1.53,1.48v2.99ZM52.89,110.02c-.13-.02-.28-.03-.53-.03-.95,0-1.33.45-1.33,1.05,0,.49.26.94.83.94.78,0,1.03-.55,1.03-1.67v-.29ZM54.9,107.21h.74c.01.14.02.39.02.95.23-.64.74-1.02,1.41-1.03v.85c-.92.03-1.39.6-1.39,1.58v2.97h-.77v-3.51c0-.85,0-1.43-.01-1.81ZM61.04,112.2c0,1.4-.34,2.38-1.86,2.38-1.38,0-1.67-.89-1.7-1.47h.78c.02.29.19.81.95.81.89,0,1.08-.65,1.08-1.73v-.49c-.19.54-.64.81-1.24.81-1.07,0-1.6-.91-1.6-2.58,0-1.92.71-2.81,1.72-2.81.72,0,1.03.35,1.12.7,0-.24.02-.5.04-.61h.74c-.01.28-.01.82-.01,1.54v3.45ZM58.22,109.92c0,1.29.35,1.92,1.02,1.92.83,0,1.05-.81,1.05-2.05s-.17-1.99-.98-1.99c-.71,0-1.08.73-1.08,2.12ZM62.31,107.21h.77v5.32h-.77v-5.32ZM62.31,105.06h.77v1.1h-.77v-1.1ZM64.34,107.21h.74c.01.14.02.39.02.95.23-.64.74-1.02,1.41-1.03v.85c-.92.03-1.39.6-1.39,1.58v2.97h-.77v-3.51c0-.85,0-1.43-.01-1.81ZM69.25,108.81c0-.95,0-1.35-.01-1.6h.74c.02.16.03.44.03.68.21-.46.59-.77,1.19-.77.56,0,.94.24,1.1.79.19-.43.6-.79,1.29-.79s1.29.32,1.29,1.55v3.86h-.76v-3.73c0-.54-.16-1-.75-1-.68,0-.91.6-.91,1.32v3.41h-.76v-3.71c0-.66-.22-1.02-.74-1.02-.64,0-.94.58-.94,1.39v3.34h-.76v-3.73ZM79.15,111.6c0,.33.03.77.04.94h-.7c-.03-.12-.05-.4-.05-.6-.2.43-.6.7-1.26.7-1.02,0-1.39-.8-1.39-1.54,0-.97.66-1.7,2.05-1.7.25,0,.4,0,.56.02v-.71c0-.42-.08-.94-.8-.94-.78,0-.83.56-.86.92h-.74c.02-.76.39-1.54,1.63-1.54,1.03,0,1.53.5,1.53,1.48v2.99ZM78.41,110.02c-.13-.02-.28-.03-.53-.03-.95,0-1.33.45-1.33,1.05,0,.49.26.94.83.94.78,0,1.03-.55,1.03-1.67v-.29ZM82.42,107.21h.74c.01.14.02.39.02.95.23-.64.74-1.02,1.41-1.03v.85c-.92.03-1.39.6-1.39,1.58v2.97h-.77v-3.51c0-.85,0-1.43-.01-1.81ZM85.77,110.02c0,1.04.18,1.95,1.02,1.95s.94-.79.97-.95h.75c-.01.14-.16,1.62-1.73,1.62s-1.79-1.44-1.79-2.76c0-1.68.58-2.75,1.83-2.75,1.4,0,1.73,1.15,1.73,2.48,0,.1,0,.28-.01.41h-2.77ZM87.79,109.42c0-.92-.19-1.63-.97-1.63-.97,0-1.02,1.27-1.04,1.63h2.01ZM87.79,109.42h0ZM92.82,110.91c-.02.28-.14,1.72-1.69,1.72-1.39,0-1.77-1.23-1.77-2.77s.49-2.73,1.84-2.73c1.55,0,1.62,1.43,1.62,1.68h-.79c-.01-.22-.08-1.02-.84-1.02s-1.05.84-1.05,2.07c0,1.32.29,2.12,1.01,2.12.77,0,.86-.78.9-1.06h.76ZM94.51,105.06v2.8c.19-.43.6-.74,1.28-.74.78,0,1.34.49,1.34,1.63v3.78h-.77v-3.63c0-.65-.19-1.1-.84-1.1-.73,0-1,.6-1,1.53v3.2h-.77v-7.47h.77ZM98.89,110.02c0,1.04.18,1.95,1.02,1.95s.94-.79.97-.95h.75c-.01.14-.16,1.62-1.73,1.62s-1.79-1.44-1.79-2.76c0-1.68.58-2.75,1.83-2.75,1.4,0,1.73,1.15,1.73,2.48,0,.1,0,.28-.01.41h-2.77ZM100.91,109.42c0-.92-.19-1.63-.97-1.63-.97,0-1.02,1.27-1.04,1.63h2.01ZM100.91,109.42h0ZM102.64,107.21h.74c.01.14.02.39.02.95.23-.64.74-1.02,1.41-1.03v.85c-.92.03-1.39.6-1.39,1.58v2.97h-.77v-3.51c0-.85,0-1.43-.01-1.81ZM108.68,110.91c-.02.28-.14,1.72-1.69,1.72-1.39,0-1.77-1.23-1.77-2.77s.49-2.73,1.84-2.73c1.55,0,1.62,1.43,1.62,1.68h-.79c-.01-.22-.08-1.02-.84-1.02s-1.05.84-1.05,2.07c0,1.32.29,2.12,1.01,2.12.77,0,.86-.78.9-1.06h.76ZM110.37,105.06v2.8c.19-.43.6-.74,1.28-.74.78,0,1.34.49,1.34,1.63v3.78h-.77v-3.63c0-.65-.19-1.1-.84-1.1-.73,0-1,.6-1,1.53v3.2h-.77v-7.47h.77ZM114.75,110.02c0,1.04.18,1.95,1.02,1.95s.94-.79.97-.95h.75c-.01.14-.16,1.62-1.73,1.62s-1.79-1.44-1.79-2.76c0-1.68.58-2.75,1.83-2.75,1.4,0,1.73,1.15,1.73,2.48,0,.1,0,.28-.01.41h-2.77ZM116.77,109.42c0-.92-.19-1.63-.97-1.63-.97,0-1.02,1.27-1.04,1.63h2.01ZM116.77,109.42h0Z"/>
    <path class="cls-1" d="M26.57,118.9h.77v2.86c.17-.41.54-.8,1.27-.8,1.02,0,1.56.85,1.56,2.62,0,1.64-.44,2.88-1.7,2.88-.68,0-.98-.34-1.15-.71,0,.18-.01.42-.03.63h-.73c.01-.28.01-.81.01-1.46v-6.01ZM29.38,123.59c0-1.33-.31-1.95-.98-1.95-.82,0-1.09.73-1.09,2.08,0,1.28.21,2.06,1.02,2.06.71,0,1.05-.69,1.05-2.19ZM30.88,124.94h.78v1.44h-.78v-1.44Z"/>
    <path class="cls-1" d="M37.83,126.38h-.78s1.72-7.13,1.72-7.13h1.02l1.77,7.13h-.83l-.53-2.26h-1.85l-.52,2.26ZM38.54,117.52l1.16,1.24h-.82l-1.36-1.24h1.01ZM40.04,123.42c-.41-1.75-.68-2.87-.78-3.43h-.02c-.1.62-.39,1.9-.74,3.43h1.54ZM44.27,121.05h.74c.01.14.02.39.02.95.23-.64.74-1.02,1.41-1.03v.85c-.92.03-1.39.6-1.39,1.58v2.97h-.77v-3.51c0-.85,0-1.43-.01-1.81ZM47.63,123.86c0,1.04.18,1.95,1.02,1.95s.94-.79.97-.95h.75c-.01.14-.16,1.62-1.73,1.62s-1.79-1.44-1.79-2.76c0-1.68.58-2.75,1.83-2.75,1.4,0,1.73,1.15,1.73,2.48,0,.1,0,.28-.01.41h-2.77ZM49.65,123.25c0-.92-.19-1.63-.97-1.63-.97,0-1.02,1.27-1.04,1.63h2.01ZM49.65,123.25h0ZM54.67,124.75c-.02.28-.14,1.72-1.69,1.72-1.39,0-1.77-1.23-1.77-2.77s.49-2.73,1.84-2.73c1.55,0,1.62,1.43,1.62,1.68h-.79c-.01-.22-.08-1.02-.84-1.02s-1.05.84-1.05,2.07c0,1.32.29,2.12,1.01,2.12.77,0,.86-.78.9-1.06h.76ZM56.36,118.9v2.8c.19-.43.6-.74,1.28-.74.78,0,1.34.49,1.34,1.63v3.78h-.77v-3.63c0-.65-.19-1.1-.84-1.1-.73,0-1,.6-1,1.53v3.2h-.77v-7.47h.77ZM60.74,123.86c0,1.04.18,1.95,1.02,1.95s.94-.79.97-.95h.75c-.01.14-.16,1.62-1.73,1.62s-1.79-1.44-1.79-2.76c0-1.68.58-2.75,1.83-2.75,1.4,0,1.73,1.15,1.73,2.48,0,.1,0,.28-.01.41h-2.77ZM62.76,123.25c0-.92-.19-1.63-.97-1.63-.97,0-1.02,1.27-1.04,1.63h2.01ZM62.76,123.25h0ZM64.49,121.05h.74c.01.14.02.39.02.95.23-.64.74-1.02,1.41-1.03v.85c-.92.03-1.39.6-1.39,1.58v2.97h-.77v-3.51c0-.85,0-1.43-.01-1.81ZM70.54,124.75c-.02.28-.14,1.72-1.69,1.72-1.39,0-1.77-1.23-1.77-2.77s.49-2.73,1.84-2.73c1.55,0,1.62,1.43,1.62,1.68h-.79c-.01-.22-.08-1.02-.84-1.02s-1.05.84-1.05,2.07c0,1.32.29,2.12,1.01,2.12.77,0,.86-.78.9-1.06h.76ZM72.22,118.9v2.8c.19-.43.6-.74,1.28-.74.78,0,1.34.49,1.34,1.63v3.78h-.77v-3.63c0-.65-.19-1.1-.84-1.1-.73,0-1,.6-1,1.53v3.2h-.77v-7.47h.77ZM76.6,123.86c0,1.04.18,1.95,1.02,1.95s.94-.79.97-.95h.75c-.01.14-.16,1.62-1.73,1.62s-1.79-1.44-1.79-2.76c0-1.68.58-2.75,1.83-2.75,1.4,0,1.73,1.15,1.73,2.48,0,.1,0,.28-.01.41h-2.77ZM78.62,123.25c0-.92-.19-1.63-.97-1.63-.97,0-1.02,1.27-1.04,1.63h2.01ZM78.62,123.25h0ZM80.36,121.05h.74c.01.14.02.39.02.95.23-.64.74-1.02,1.41-1.03v.85c-.92.03-1.39.6-1.39,1.58v2.97h-.77v-3.51c0-.85,0-1.43-.01-1.81ZM88.62,124.92c0,.67,0,1.2.01,1.46h-.73c-.02-.15-.04-.37-.04-.71-.19.53-.64.8-1.26.8s-1.33-.25-1.33-1.59v-3.83h.77v3.65c0,.68.19,1.1.8,1.1s1.01-.36,1.01-1.51v-3.23h.77v3.87ZM89.81,121.05h.74c.01.13.03.34.03.7.18-.42.54-.79,1.26-.79.77,0,1.37.44,1.37,1.62v3.79h-.77v-3.64c0-.65-.21-1.09-.82-1.09-.72,0-1.02.47-1.02,1.56v3.17h-.77v-3.68c0-1.09,0-1.4-.01-1.65ZM94.98,123.86c0,1.04.18,1.95,1.02,1.95s.94-.79.97-.95h.75c-.01.14-.16,1.62-1.73,1.62s-1.79-1.44-1.79-2.76c0-1.68.58-2.75,1.83-2.75,1.4,0,1.73,1.15,1.73,2.48,0,.1,0,.28-.01.41h-2.77ZM97,123.25c0-.92-.19-1.63-.97-1.63-.97,0-1.02,1.27-1.04,1.63h2.01ZM97,123.25h0ZM101.26,123.86c0,1.04.18,1.95,1.02,1.95s.94-.79.97-.95h.75c-.01.14-.16,1.62-1.73,1.62s-1.79-1.44-1.79-2.76c0-1.68.58-2.75,1.83-2.75,1.4,0,1.73,1.15,1.73,2.48,0,.1,0,.28-.01.41h-2.77ZM103.28,123.25c0-.92-.19-1.63-.97-1.63-.97,0-1.02,1.27-1.04,1.63h2.01ZM103.28,123.25h0ZM105.27,121.05c.56,1.15.84,1.68.97,1.98h.01c.17-.36.53-1.06,1-1.98h.82l-1.4,2.54,1.41,2.78h-.86c-.52-1.1-.85-1.75-1-2.07h-.01c-.14.28-.53,1.08-1.02,2.07h-.82l1.4-2.67-1.36-2.65h.85ZM109.52,125.83v2.5h-.77v-5.73c0-.73,0-1.22-.01-1.55h.74c.01.1.03.45.03.72.19-.46.56-.8,1.27-.8,1.01,0,1.56.89,1.56,2.68,0,1.92-.67,2.83-1.71,2.83-.64,0-.96-.3-1.11-.64ZM111.55,123.68c0-1.34-.31-2.03-1.01-2.03-.83,0-1.05.79-1.05,2.04s.12,2.11,1,2.11c.7,0,1.05-.81,1.05-2.12ZM113.33,121.05h.74c.01.14.02.39.02.95.23-.64.74-1.02,1.41-1.03v.85c-.92.03-1.39.6-1.39,1.58v2.97h-.77v-3.51c0-.85,0-1.43-.01-1.81ZM116.68,123.86c0,1.04.18,1.95,1.02,1.95s.94-.79.97-.95h.75c-.01.14-.16,1.62-1.73,1.62s-1.79-1.44-1.79-2.76c0-1.68.58-2.75,1.83-2.75,1.4,0,1.73,1.15,1.73,2.48,0,.1,0,.28-.01.41h-2.77ZM118.7,123.25c0-.92-.19-1.63-.97-1.63-.97,0-1.02,1.27-1.04,1.63h2.01ZM118.7,123.25h0ZM121.82,125.84c.58,0,.86-.35.86-.84,0-.55-.28-.8-.98-1.08-1.1-.42-1.42-.82-1.42-1.56s.44-1.41,1.52-1.41c1.19,0,1.53.81,1.54,1.52h-.75c-.01-.25-.07-.89-.81-.89-.5,0-.73.31-.73.73s.19.64.92.92c1.03.4,1.48.77,1.48,1.69,0,.97-.61,1.54-1.67,1.54s-1.64-.66-1.67-1.63h.76c.03.57.33,1,.94,1ZM125.78,125.84c.58,0,.86-.35.86-.84,0-.55-.28-.8-.98-1.08-1.1-.42-1.42-.82-1.42-1.56s.44-1.41,1.52-1.41c1.19,0,1.53.81,1.54,1.52h-.75c-.01-.25-.07-.89-.81-.89-.5,0-.73.31-.73.73s.19.64.92.92c1.03.4,1.48.77,1.48,1.69,0,.97-.61,1.54-1.67,1.54s-1.64-.66-1.67-1.63h.76c.03.57.33,1,.94,1ZM128.34,121.05h.77v5.32h-.77v-5.32ZM128.35,118.9h.77v1.1h-.77v-1.1ZM133.78,123.65c0,1.87-.63,2.82-1.83,2.82s-1.83-.91-1.83-2.8.72-2.7,1.86-2.7,1.8.9,1.8,2.69ZM130.9,123.67c0,1.45.36,2.14,1.05,2.14s1.04-.7,1.04-2.14c0-1.36-.34-2.03-1.04-2.03s-1.05.6-1.05,2.04ZM134.77,121.05h.74c.01.13.03.34.03.7.18-.42.54-.79,1.26-.79.77,0,1.37.44,1.37,1.62v3.79h-.77v-3.64c0-.65-.21-1.09-.82-1.09-.72,0-1.02.47-1.02,1.56v3.17h-.77v-3.68c0-1.09,0-1.4-.01-1.65ZM141.89,123.86c0,1.04.18,1.95,1.02,1.95s.94-.79.97-.95h.75c-.01.14-.16,1.62-1.73,1.62s-1.79-1.44-1.79-2.76c0-1.68.58-2.75,1.83-2.75,1.4,0,1.73,1.15,1.73,2.48,0,.1,0,.28-.01.41h-2.77ZM143.91,123.25c0-.92-.19-1.63-.97-1.63-.97,0-1.02,1.27-1.04,1.63h2.01ZM143.91,123.25h0ZM145.91,121.05c.56,1.15.84,1.68.97,1.98h.01c.17-.36.53-1.06,1-1.98h.82l-1.4,2.54,1.41,2.78h-.86c-.52-1.1-.85-1.75-1-2.07h-.01c-.14.28-.53,1.08-1.02,2.07h-.82l1.4-2.67-1.36-2.65h.85ZM152.52,125.44c0,.33.03.77.04.94h-.7c-.03-.12-.05-.4-.05-.6-.2.43-.6.7-1.26.7-1.02,0-1.39-.8-1.39-1.54,0-.97.66-1.7,2.05-1.7.25,0,.4,0,.56.02v-.71c0-.42-.08-.94-.8-.94-.78,0-.83.56-.86.92h-.74c.02-.76.39-1.54,1.63-1.54,1.03,0,1.53.5,1.53,1.48v2.99ZM151.78,123.85c-.13-.02-.28-.03-.53-.03-.95,0-1.33.45-1.33,1.05,0,.49.26.94.83.94.78,0,1.03-.55,1.03-1.67v-.29ZM156.99,124.75c-.02.28-.14,1.72-1.69,1.72-1.39,0-1.77-1.23-1.77-2.77s.49-2.73,1.84-2.73c1.55,0,1.62,1.43,1.62,1.68h-.79c-.01-.22-.08-1.02-.84-1.02s-1.05.84-1.05,2.07c0,1.32.29,2.12,1.01,2.12.77,0,.86-.78.9-1.06h.76ZM157.46,121.05h.75v-1.42h.76v1.42h.93v.66h-.93v3.49c0,.37.08.59.48.59.13,0,.28,0,.38-.03v.59c-.18.07-.45.09-.63.09-.63,0-.99-.25-.99-1.09v-3.65h-.75v-.66ZM161.09,123.86c0,1.04.18,1.95,1.02,1.95s.94-.79.97-.95h.75c-.01.14-.16,1.62-1.73,1.62s-1.79-1.44-1.79-2.76c0-1.68.58-2.75,1.83-2.75,1.4,0,1.73,1.15,1.73,2.48,0,.1,0,.28-.01.41h-2.77ZM163.11,123.25c0-.92-.19-1.63-.97-1.63-.97,0-1.02,1.27-1.04,1.63h2.01ZM163.11,123.25h0Z"/>
    <path class="cls-1" d="M29.76,138.59c-.02.28-.14,1.72-1.69,1.72-1.39,0-1.77-1.23-1.77-2.77s.49-2.73,1.84-2.73c1.55,0,1.62,1.43,1.62,1.68h-.79c-.01-.22-.08-1.02-.84-1.02s-1.05.84-1.05,2.07c0,1.32.29,2.12,1.01,2.12.77,0,.86-.78.9-1.06h.76ZM30.61,138.78h.78v1.44h-.78v-1.44Z"/>
    <path class="cls-1" d="M37.83,140.21h-.78s1.72-7.13,1.72-7.13h1.02l1.77,7.13h-.83l-.53-2.26h-1.85l-.52,2.26ZM38.54,131.36l1.16,1.24h-.82l-1.36-1.24h1.01ZM40.04,137.26c-.41-1.75-.68-2.87-.78-3.43h-.02c-.1.62-.39,1.9-.74,3.43h1.54ZM47.48,138.59c-.02.28-.14,1.72-1.69,1.72-1.39,0-1.77-1.23-1.77-2.77s.49-2.73,1.84-2.73c1.55,0,1.62,1.43,1.62,1.68h-.79c-.01-.22-.08-1.02-.84-1.02s-1.05.84-1.05,2.07c0,1.32.29,2.12,1.01,2.12.77,0,.86-.78.9-1.06h.76ZM49.17,132.74v2.8c.19-.43.6-.74,1.28-.74.78,0,1.34.49,1.34,1.63v3.78h-.77v-3.63c0-.65-.19-1.1-.84-1.1-.73,0-1,.6-1,1.53v3.2h-.77v-7.47h.77ZM53.55,137.7c0,1.04.18,1.95,1.02,1.95s.94-.79.97-.95h.75c-.01.14-.16,1.62-1.73,1.62s-1.79-1.44-1.79-2.76c0-1.68.58-2.75,1.83-2.75,1.4,0,1.73,1.15,1.73,2.48,0,.1,0,.28-.01.41h-2.77ZM55.57,137.09c0-.92-.19-1.63-.97-1.63-.97,0-1.02,1.27-1.04,1.63h2.01ZM55.57,137.09h0ZM57.3,134.89h.74c.01.14.02.39.02.95.23-.64.74-1.02,1.41-1.03v.85c-.92.03-1.39.6-1.39,1.58v2.97h-.77v-3.51c0-.85,0-1.43-.01-1.81ZM63.34,138.59c-.02.28-.14,1.72-1.69,1.72-1.39,0-1.77-1.23-1.77-2.77s.49-2.73,1.84-2.73c1.55,0,1.62,1.43,1.62,1.68h-.79c-.01-.22-.08-1.02-.84-1.02s-1.05.84-1.05,2.07c0,1.32.29,2.12,1.01,2.12.77,0,.86-.78.9-1.06h.76ZM65.03,132.74v2.8c.19-.43.6-.74,1.28-.74.78,0,1.34.49,1.34,1.63v3.78h-.77v-3.63c0-.65-.19-1.1-.84-1.1-.73,0-1,.6-1,1.53v3.2h-.77v-7.47h.77ZM69.41,137.7c0,1.04.18,1.95,1.02,1.95s.94-.79.97-.95h.75c-.01.14-.16,1.62-1.73,1.62s-1.79-1.44-1.79-2.76c0-1.68.58-2.75,1.83-2.75,1.4,0,1.73,1.15,1.73,2.48,0,.1,0,.28-.01.41h-2.77ZM71.43,137.09c0-.92-.19-1.63-.97-1.63-.97,0-1.02,1.27-1.04,1.63h2.01ZM71.43,137.09h0ZM73.17,134.89h.74c.01.14.02.39.02.95.23-.64.74-1.02,1.41-1.03v.85c-.92.03-1.39.6-1.39,1.58v2.97h-.77v-3.51c0-.85,0-1.43-.01-1.81ZM78.59,137.7c0,1.04.18,1.95,1.02,1.95s.94-.79.97-.95h.75c-.01.14-.16,1.62-1.73,1.62s-1.79-1.44-1.79-2.76c0-1.68.58-2.75,1.83-2.75,1.4,0,1.73,1.15,1.73,2.48,0,.1,0,.28-.01.41h-2.77ZM80.61,137.09c0-.92-.19-1.63-.97-1.63-.97,0-1.02,1.27-1.04,1.63h2.01ZM80.61,137.09h0ZM82.34,134.89h.74c.01.13.03.34.03.7.18-.42.54-.79,1.26-.79.77,0,1.37.44,1.37,1.62v3.79h-.77v-3.64c0-.65-.21-1.09-.82-1.09-.72,0-1.02.47-1.02,1.56v3.17h-.77v-3.68c0-1.09,0-1.4-.01-1.65ZM89.04,140.21v-4.66h-.69v-.66h.69v-.73c0-.79.28-1.48,1.25-1.48.15,0,.33.02.43.06v.68c-.09-.02-.22-.05-.35-.05-.42,0-.57.26-.57.8v.72h.84v.66h-.84v4.66h-.77ZM91.31,134.89h.74c.01.14.02.39.02.95.23-.64.74-1.02,1.41-1.03v.85c-.92.03-1.39.6-1.39,1.58v2.97h-.77v-3.51c0-.85,0-1.43-.01-1.81ZM97.17,139.27c0,.33.03.77.04.94h-.7c-.03-.12-.05-.4-.05-.6-.2.43-.6.7-1.26.7-1.02,0-1.39-.8-1.39-1.54,0-.97.66-1.7,2.05-1.7.25,0,.4,0,.56.02v-.71c0-.42-.08-.94-.8-.94-.78,0-.83.56-.86.92h-.74c.02-.76.39-1.54,1.63-1.54,1.03,0,1.53.5,1.53,1.48v2.99ZM96.44,137.69c-.13-.02-.28-.03-.53-.03-.95,0-1.33.45-1.33,1.05,0,.49.26.94.83.94.78,0,1.03-.55,1.03-1.67v-.29ZM98.44,134.89h.74c.01.13.03.34.03.7.18-.42.54-.79,1.26-.79.77,0,1.37.44,1.37,1.62v3.79h-.77v-3.64c0-.65-.21-1.09-.82-1.09-.72,0-1.02.47-1.02,1.56v3.17h-.77v-3.68c0-1.09,0-1.4-.01-1.65ZM106.3,138.59c-.02.27-.12,1.56-1.44,1.71l-.15.27c.37.09.82.3.82.83s-.42.84-1.02.84c-.31,0-.59-.06-.77-.17l.13-.52c.15.09.41.14.58.14.28,0,.4-.09.4-.28,0-.27-.32-.4-.79-.45v-.23l.24-.45c-1.14-.17-1.46-1.33-1.46-2.75,0-1.5.49-2.73,1.84-2.73,1.55,0,1.62,1.43,1.62,1.68h-.79c-.01-.22-.08-1.02-.84-1.02s-1.05.84-1.05,2.07c0,1.32.29,2.12,1.01,2.12.77,0,.86-.78.9-1.06h.76ZM110.32,139.27c0,.33.03.77.04.94h-.7c-.03-.12-.05-.4-.05-.6-.2.43-.6.7-1.26.7-1.02,0-1.39-.8-1.39-1.54,0-.97.66-1.7,2.05-1.7.25,0,.4,0,.56.02v-.71c0-.42-.08-.94-.8-.94-.78,0-.83.56-.86.92h-.74c.02-.76.39-1.54,1.63-1.54,1.03,0,1.53.5,1.53,1.48v2.99ZM109.58,137.69c-.13-.02-.28-.03-.53-.03-.95,0-1.33.45-1.33,1.05,0,.49.26.94.83.94.78,0,1.03-.55,1.03-1.67v-.29ZM111.6,134.89h.77v5.32h-.77v-5.32ZM111.6,132.74h.77v1.1h-.77v-1.1ZM114.94,139.68c.58,0,.86-.35.86-.84,0-.55-.28-.8-.98-1.08-1.1-.42-1.42-.82-1.42-1.56s.44-1.41,1.52-1.41c1.19,0,1.53.81,1.54,1.52h-.75c-.01-.25-.07-.89-.81-.89-.5,0-.73.31-.73.73s.19.64.92.92c1.03.4,1.48.77,1.48,1.69,0,.97-.61,1.54-1.67,1.54s-1.64-.66-1.67-1.63h.76c.03.57.33,1,.94,1Z"/>
    <path class="cls-1" d="M29.89,146.58v6.11c0,.52,0,1.05.01,1.37h-.74c-.01-.14-.03-.49-.03-.72-.16.46-.5.81-1.25.81-1.11,0-1.58-.94-1.58-2.81,0-1.7.63-2.69,1.75-2.69.69,0,.96.29,1.08.55v-2.62h.77ZM27.09,151.34c0,1.54.35,2.12,1,2.12.83,0,1.05-.71,1.05-2.15,0-1.55-.22-1.99-.99-1.99-.63,0-1.06.56-1.06,2.02ZM30.9,152.62h.78v1.44h-.78v-1.44Z"/>
    <path class="cls-1" d="M37.83,154.05h-.78s1.72-7.13,1.72-7.13h1.02l1.77,7.13h-.83l-.53-2.26h-1.85l-.52,2.26ZM38.54,145.2l1.16,1.24h-.82l-1.36-1.24h1.01ZM40.04,151.1c-.41-1.75-.68-2.87-.78-3.43h-.02c-.1.62-.39,1.9-.74,3.43h1.54ZM44.27,148.73h.74c.01.14.02.39.02.95.23-.64.74-1.02,1.41-1.03v.85c-.92.03-1.39.6-1.39,1.58v2.97h-.77v-3.51c0-.85,0-1.43-.01-1.81ZM47.15,148.73h.77v5.32h-.77v-5.32ZM47.15,146.58h.77v1.1h-.77v-1.1ZM49.69,151.54c0,1.04.18,1.95,1.02,1.95s.94-.79.97-.95h.75c-.01.14-.16,1.62-1.73,1.62s-1.79-1.44-1.79-2.76c0-1.68.58-2.75,1.83-2.75,1.4,0,1.73,1.15,1.73,2.48,0,.1,0,.28-.01.41h-2.77ZM51.71,150.93c0-.92-.19-1.63-.97-1.63-.97,0-1.02,1.27-1.04,1.63h2.01ZM51.71,150.93h0ZM53.45,148.73h.74c.01.13.03.34.03.7.18-.42.54-.79,1.26-.79.77,0,1.37.44,1.37,1.62v3.79h-.77v-3.64c0-.65-.21-1.09-.82-1.09-.72,0-1.02.47-1.02,1.56v3.17h-.77v-3.68c0-1.09,0-1.4-.01-1.65Z"/>
    <path class="cls-1" d="M27.49,177.97v3.44h-.82v-7.47h1.95c1.25,0,1.91.71,1.91,1.93,0,1.12-.55,1.59-1,1.75.69.25.91.86.91,1.91v.3c0,.7.02,1.19.11,1.59h-.81c-.1-.34-.11-1.01-.11-1.61v-.25c0-1.06-.22-1.57-1.23-1.57h-.91ZM27.49,177.27h.96c.91,0,1.25-.51,1.25-1.38,0-.75-.35-1.26-1.17-1.26h-1.03v2.64ZM32.28,178.77c0,1.09.19,2.05,1.07,2.05s.99-.83,1.02-1h.79c-.01.14-.17,1.69-1.81,1.69s-1.87-1.51-1.87-2.89c0-1.77.6-2.88,1.92-2.88,1.47,0,1.81,1.21,1.81,2.6,0,.11,0,.29-.01.43h-2.91ZM34.4,178.14c0-.96-.2-1.71-1.02-1.71-1.02,0-1.07,1.33-1.09,1.71h2.1ZM34.92,173.45l-1.38,1.53h-.75l1.18-1.53h.95ZM34.4,178.14h0ZM37.03,180.84v2.62h-.8v-6c0-.76,0-1.28-.01-1.63h.78c.01.1.03.47.03.75.2-.48.59-.84,1.33-.84,1.06,0,1.63.94,1.63,2.8,0,2.01-.7,2.97-1.79,2.97-.67,0-1-.32-1.16-.67ZM39.16,178.58c0-1.4-.32-2.13-1.06-2.13-.86,0-1.1.82-1.1,2.14s.13,2.21,1.05,2.21c.73,0,1.1-.85,1.1-2.22ZM44.62,178.55c0,1.96-.66,2.96-1.92,2.96s-1.92-.96-1.92-2.94.76-2.83,1.95-2.83,1.89.94,1.89,2.82ZM41.6,178.58c0,1.52.38,2.24,1.1,2.24s1.09-.73,1.09-2.24c0-1.43-.35-2.13-1.09-2.13s-1.1.63-1.1,2.14ZM45.65,175.83h.78c.01.14.03.36.03.73.19-.44.57-.83,1.32-.83.81,0,1.43.46,1.43,1.7v3.97h-.81v-3.82c0-.68-.22-1.14-.86-1.14-.75,0-1.07.49-1.07,1.64v3.32h-.81v-3.85c0-1.14,0-1.47-.01-1.73ZM51.91,180.85c.61,0,.9-.37.9-.88,0-.58-.3-.84-1.03-1.13-1.15-.44-1.49-.86-1.49-1.63s.46-1.47,1.6-1.47c1.25,0,1.6.85,1.61,1.59h-.79c-.01-.27-.07-.93-.85-.93-.53,0-.77.33-.77.77s.19.67.97.96c1.08.42,1.56.81,1.56,1.77,0,1.02-.64,1.62-1.75,1.62s-1.72-.69-1.75-1.71h.8c.04.6.35,1.05.99,1.05ZM55.16,178.77c0,1.09.19,2.05,1.07,2.05s.99-.83,1.02-1h.79c-.01.14-.17,1.69-1.81,1.69s-1.87-1.51-1.87-2.89c0-1.77.6-2.88,1.92-2.88,1.47,0,1.81,1.21,1.81,2.6,0,.11,0,.29-.01.43h-2.91ZM57.28,178.14c0-.96-.2-1.71-1.02-1.71-1.02,0-1.07,1.33-1.09,1.71h2.1ZM57.28,178.14h0ZM61.26,177.5v-1.51h.78v1.51h-.78ZM61.26,179.9h.78v1.51h-.78v-1.51ZM65.52,173.58h.8v2.99c.18-.43.57-.83,1.33-.83,1.07,0,1.63.89,1.63,2.74,0,1.72-.46,3.02-1.78,3.02-.71,0-1.03-.36-1.2-.75,0,.18-.01.44-.03.66h-.76c.01-.3.01-.85.01-1.53v-6.3ZM68.47,178.49c0-1.4-.33-2.04-1.03-2.04-.86,0-1.14.77-1.14,2.18,0,1.34.22,2.16,1.06,2.16.74,0,1.1-.72,1.1-2.3ZM70.03,179.9h.82v1.51h-.82v-1.51Z"/>
    <path class="cls-1" d="M26.68,190.6h.82v6.75h2.67l-.12.72h-3.37v-7.47ZM29.42,192.75c.2-.76.38-1.68.38-2.54h.78c-.01.94-.3,2.07-.51,2.54h-.65ZM34.79,196.55c0,.7,0,1.26.01,1.53h-.77c-.03-.16-.04-.38-.04-.74-.2.55-.67.84-1.33.84s-1.39-.27-1.39-1.67v-4.01h.81v3.82c0,.71.2,1.15.84,1.15s1.06-.38,1.06-1.58v-3.39h.81v4.05ZM35.53,192.5h.79v-1.49h.8v1.49h.97v.69h-.97v3.66c0,.38.08.62.5.62.13,0,.29,0,.39-.03v.62c-.19.07-.47.09-.66.09-.66,0-1.04-.27-1.04-1.15v-3.82h-.79v-.69ZM38.88,192.5h.8v5.58h-.8v-5.58ZM38.89,190.24h.8v1.15h-.8v-1.15ZM41.04,198.07v-7.83h.8v7.83h-.8ZM43.17,192.5h.8v5.58h-.8v-5.58ZM43.18,190.24h.8v1.15h-.8v-1.15ZM46.68,197.51c.61,0,.9-.37.9-.88,0-.58-.3-.84-1.03-1.13-1.15-.44-1.49-.86-1.49-1.63s.46-1.47,1.6-1.47c1.25,0,1.6.85,1.61,1.59h-.79c-.01-.27-.07-.93-.85-.93-.53,0-.77.33-.77.77s.19.67.97.96c1.08.42,1.56.81,1.56,1.77,0,1.02-.64,1.62-1.75,1.62s-1.72-.69-1.75-1.71h.8c.04.6.35,1.05.99,1.05ZM52.6,197.09c0,.35.03.81.04.99h-.74c-.03-.12-.06-.42-.06-.63-.21.45-.63.73-1.32.73-1.07,0-1.46-.84-1.46-1.61,0-1.02.69-1.79,2.15-1.79.26,0,.42,0,.58.02v-.74c0-.44-.08-.99-.84-.99-.82,0-.87.59-.9.96h-.78c.02-.8.4-1.62,1.71-1.62,1.08,0,1.6.53,1.6,1.55v3.13ZM51.82,195.43c-.14-.02-.29-.03-.55-.03-.99,0-1.4.48-1.4,1.1,0,.51.27.99.87.99.82,0,1.08-.58,1.08-1.75v-.3ZM53.24,192.5h.79v-1.49h.8v1.49h.97v.69h-.97v3.66c0,.38.08.62.5.62.13,0,.29,0,.39-.03v.62c-.19.07-.47.09-.66.09-.66,0-1.04-.27-1.04-1.15v-3.82h-.79v-.69ZM56.59,192.5h.8v5.58h-.8v-5.58ZM56.6,190.24h.8v1.15h-.8v-1.15ZM62.29,195.22c0,1.96-.66,2.96-1.92,2.96s-1.92-.96-1.92-2.94.76-2.83,1.95-2.83,1.89.94,1.89,2.82ZM59.28,195.24c0,1.52.38,2.24,1.1,2.24s1.09-.73,1.09-2.24c0-1.43-.35-2.13-1.09-2.13s-1.1.63-1.1,2.14ZM63.33,192.5h.78c.01.14.03.36.03.73.19-.44.57-.83,1.32-.83.81,0,1.43.46,1.43,1.7v3.97h-.81v-3.82c0-.68-.22-1.14-.86-1.14-.75,0-1.07.49-1.07,1.64v3.32h-.81v-3.85c0-1.14,0-1.47-.01-1.73ZM73.74,190.24v6.4c0,.54,0,1.1.01,1.43h-.78c-.01-.14-.03-.51-.03-.75-.17.48-.53.85-1.31.85-1.16,0-1.65-.99-1.65-2.95,0-1.78.66-2.82,1.83-2.82.72,0,1,.31,1.13.58v-2.74h.8ZM70.8,195.23c0,1.61.37,2.22,1.05,2.22.87,0,1.1-.74,1.1-2.25,0-1.63-.23-2.09-1.03-2.09-.66,0-1.11.58-1.11,2.12ZM75.59,195.44c0,1.09.19,2.05,1.07,2.05s.99-.83,1.02-1h.79c-.01.14-.17,1.69-1.81,1.69s-1.87-1.51-1.87-2.89c0-1.77.6-2.88,1.92-2.88,1.47,0,1.81,1.21,1.81,2.6,0,.11,0,.29-.01.43h-2.91ZM77.7,194.8c0-.96-.2-1.71-1.02-1.71-1.02,0-1.07,1.33-1.09,1.71h2.1ZM77.7,194.8h0ZM85.13,197.72c0,1.47-.35,2.49-1.95,2.49-1.44,0-1.75-.94-1.78-1.54h.82c.02.31.2.85.99.85.94,0,1.13-.68,1.13-1.81v-.51c-.2.57-.67.85-1.3.85-1.13,0-1.68-.95-1.68-2.71,0-2.01.74-2.95,1.8-2.95.76,0,1.08.37,1.18.73,0-.25.03-.52.04-.64h.77c-.01.29-.01.86-.01,1.61v3.61ZM82.18,195.34c0,1.35.37,2.01,1.06,2.01.86,0,1.1-.85,1.1-2.15s-.18-2.08-1.03-2.08c-.74,0-1.13.77-1.13,2.22ZM89.96,196.55c0,.7,0,1.26.01,1.53h-.77c-.03-.16-.04-.38-.04-.74-.2.55-.67.84-1.33.84s-1.39-.27-1.39-1.67v-4.01h.81v3.82c0,.71.2,1.15.84,1.15s1.06-.38,1.06-1.58v-3.39h.81v4.05ZM91.27,192.5h.8v5.58h-.8v-5.58ZM91.27,190.24h.8v1.15h-.8v-1.15ZM93.42,198.07v-7.83h.8v7.83h-.8ZM95.58,198.07v-7.83h.8v7.83h-.8ZM98.25,195.44c0,1.09.19,2.05,1.07,2.05s.99-.83,1.02-1h.79c-.01.14-.17,1.69-1.81,1.69s-1.87-1.51-1.87-2.89c0-1.77.6-2.88,1.92-2.88,1.47,0,1.81,1.21,1.81,2.6,0,.11,0,.29-.01.43h-2.91ZM100.36,194.8c0-.96-.2-1.71-1.02-1.71-1.02,0-1.07,1.33-1.09,1.71h2.1ZM100.36,194.8h0ZM102.19,194.17c0-.99,0-1.41-.01-1.67h.77c.02.16.03.46.03.71.22-.49.61-.81,1.25-.81.58,0,.99.25,1.16.83.2-.45.62-.83,1.35-.83s1.35.34,1.35,1.62v4.05h-.8v-3.91c0-.56-.16-1.05-.79-1.05-.71,0-.95.63-.95,1.38v3.58h-.8v-3.89c0-.69-.23-1.06-.77-1.06-.67,0-.98.61-.98,1.45v3.5h-.8v-3.91ZM109.94,195.44c0,1.09.19,2.05,1.07,2.05s.99-.83,1.02-1h.79c-.01.14-.17,1.69-1.81,1.69s-1.87-1.51-1.87-2.89c0-1.77.6-2.88,1.92-2.88,1.47,0,1.81,1.21,1.81,2.6,0,.11,0,.29-.01.43h-2.91ZM112.06,194.8c0-.96-.2-1.71-1.02-1.71-1.02,0-1.07,1.33-1.09,1.71h2.1ZM112.06,194.8h0ZM113.31,192.5h.79v-1.49h.8v1.49h.97v.69h-.97v3.66c0,.38.08.62.5.62.13,0,.29,0,.39-.03v.62c-.19.07-.47.09-.66.09-.66,0-1.04-.27-1.04-1.15v-3.82h-.79v-.69ZM118.15,197.51c.61,0,.9-.37.9-.88,0-.58-.3-.84-1.03-1.13-1.15-.44-1.49-.86-1.49-1.63s.46-1.47,1.6-1.47c1.25,0,1.6.85,1.61,1.59h-.79c-.01-.27-.07-.93-.85-.93-.53,0-.77.33-.77.77s.19.67.97.96c1.08.42,1.56.81,1.56,1.77,0,1.02-.64,1.62-1.75,1.62s-1.72-.69-1.75-1.71h.8c.04.6.35,1.05.99,1.05ZM123.49,195.44c0,1.09.19,2.05,1.07,2.05s.99-.83,1.02-1h.79c-.01.14-.17,1.69-1.81,1.69s-1.87-1.51-1.87-2.89c0-1.77.6-2.88,1.92-2.88,1.47,0,1.81,1.21,1.81,2.6,0,.11,0,.29-.01.43h-2.91ZM125.61,194.8c0-.96-.2-1.71-1.02-1.71-1.02,0-1.07,1.33-1.09,1.71h2.1ZM125.61,194.8h0ZM128.88,197.51c.61,0,.9-.37.9-.88,0-.58-.3-.84-1.03-1.13-1.15-.44-1.49-.86-1.49-1.63s.46-1.47,1.6-1.47c1.25,0,1.6.85,1.61,1.59h-.79c-.01-.27-.07-.93-.85-.93-.53,0-.77.33-.77.77s.19.67.97.96c1.08.42,1.56.81,1.56,1.77,0,1.02-.64,1.62-1.75,1.62s-1.72-.69-1.75-1.71h.8c.04.6.35,1.05.99,1.05ZM130.98,192.5h.79v-1.49h.8v1.49h.97v.69h-.97v3.66c0,.38.08.62.5.62.13,0,.29,0,.39-.03v.62c-.19.07-.47.09-.66.09-.66,0-1.04-.27-1.04-1.15v-3.82h-.79v-.69ZM139.91,196.55c0,.7,0,1.26.01,1.53h-.77c-.03-.16-.04-.38-.04-.74-.2.55-.67.84-1.33.84s-1.39-.27-1.39-1.67v-4.01h.81v3.82c0,.71.2,1.15.84,1.15s1.06-.38,1.06-1.58v-3.39h.81v4.05ZM140.65,192.5h.79v-1.49h.8v1.49h.97v.69h-.97v3.66c0,.38.08.62.5.62.13,0,.29,0,.39-.03v.62c-.19.07-.47.09-.66.09-.66,0-1.04-.27-1.04-1.15v-3.82h-.79v-.69ZM144,192.5h.8v5.58h-.8v-5.58ZM144,190.24h.8v1.15h-.8v-1.15ZM146.15,198.07v-7.83h.8v7.83h-.8ZM148.82,195.44c0,1.09.19,2.05,1.07,2.05s.99-.83,1.02-1h.79c-.01.14-.17,1.69-1.81,1.69s-1.87-1.51-1.87-2.89c0-1.77.6-2.88,1.92-2.88,1.47,0,1.81,1.21,1.81,2.6,0,.11,0,.29-.01.43h-2.91ZM150.94,194.8c0-.96-.2-1.71-1.02-1.71-1.02,0-1.07,1.33-1.09,1.71h2.1ZM150.94,194.8h0Z"/>
    <path class="cls-1" d="M26.6,209.07v-7.83h.8v7.83h-.8ZM32.3,206.22c0,1.96-.66,2.96-1.92,2.96s-1.92-.96-1.92-2.94.76-2.83,1.95-2.83,1.89.94,1.89,2.82ZM29.28,206.24c0,1.52.38,2.24,1.1,2.24s1.09-.73,1.09-2.24c0-1.43-.35-2.13-1.09-2.13s-1.1.63-1.1,2.14ZM33.33,203.5h.77c.01.14.03.4.03,1,.24-.67.78-1.07,1.47-1.08v.89c-.96.03-1.46.63-1.46,1.66v3.12h-.8v-3.68c0-.89,0-1.5-.01-1.9ZM37.81,208.51c.61,0,.9-.37.9-.88,0-.58-.3-.84-1.03-1.13-1.15-.44-1.49-.86-1.49-1.63s.46-1.47,1.6-1.47c1.25,0,1.6.85,1.61,1.59h-.79c-.01-.27-.07-.93-.85-.93-.53,0-.77.33-.77.77s.19.67.97.96c1.08.42,1.56.81,1.56,1.77,0,1.02-.64,1.62-1.75,1.62s-1.72-.69-1.75-1.71h.8c.04.6.35,1.05.99,1.05ZM43.22,208.37c-.21.48-.59.8-1.31.8-1.04,0-1.66-.86-1.66-2.89,0-1.85.7-2.88,1.8-2.88.74,0,1.05.35,1.17.7,0-.31.02-.5.03-.6h.78c-.01.4-.01.86-.01,1.65v5.98h-.79v-2.76ZM41.08,206.29c0,1.33.31,2.18,1.06,2.18.9,0,1.09-.78,1.09-2.21s-.12-2.15-1.03-2.15c-.7,0-1.11.76-1.11,2.18ZM48.85,207.55c0,.7,0,1.26.01,1.53h-.77c-.03-.16-.04-.38-.04-.74-.2.55-.67.84-1.33.84s-1.39-.27-1.39-1.67v-4.01h.81v3.82c0,.71.2,1.15.84,1.15s1.06-.38,1.06-1.58v-3.39h.81v4.05ZM50.69,206.44c0,1.09.19,2.05,1.07,2.05s.99-.83,1.02-1h.79c-.01.14-.17,1.69-1.81,1.69s-1.87-1.51-1.87-2.89c0-1.77.6-2.88,1.92-2.88,1.47,0,1.81,1.21,1.81,2.6,0,.11,0,.29-.01.43h-2.91ZM52.81,205.8c0-.96-.2-1.71-1.02-1.71-1.02,0-1.07,1.33-1.09,1.71h2.1ZM52.81,205.8h0ZM56.74,209.07v-7.83h.8v7.83h-.8ZM58.45,203.75c.2-.76.38-1.68.38-2.54h.78c-.01.94-.3,2.07-.51,2.54h-.65ZM63.55,206.22c0,1.96-.66,2.96-1.92,2.96s-1.92-.96-1.92-2.94.76-2.83,1.95-2.83,1.89.94,1.89,2.82ZM60.53,206.24c0,1.52.38,2.24,1.1,2.24s1.09-.73,1.09-2.24c0-1.43-.35-2.13-1.09-2.13s-1.1.63-1.1,2.14ZM64.58,203.5h.78c.01.14.03.36.03.73.19-.44.57-.83,1.32-.83.81,0,1.43.46,1.43,1.7v3.97h-.81v-3.82c0-.68-.22-1.14-.86-1.14-.75,0-1.07.49-1.07,1.64v3.32h-.81v-3.85c0-1.14,0-1.47-.01-1.73ZM71.81,203.5c.46,1.81,1.01,3.99,1.12,4.67h.01c.07-.62.91-3.53,1.18-4.67h.81l-1.6,5.58h-.87l-1.51-5.58h.85ZM76.19,206.44c0,1.09.19,2.05,1.07,2.05s.99-.83,1.02-1h.79c-.01.14-.17,1.69-1.81,1.69s-1.87-1.51-1.87-2.89c0-1.77.6-2.88,1.92-2.88,1.47,0,1.81,1.21,1.81,2.6,0,.11,0,.29-.01.43h-2.91ZM78.31,205.8c0-.96-.2-1.71-1.02-1.71-1.02,0-1.07,1.33-1.09,1.71h2.1ZM78.31,205.8h0ZM83.64,207.55c0,.7,0,1.26.01,1.53h-.77c-.03-.16-.04-.38-.04-.74-.2.55-.67.84-1.33.84s-1.39-.27-1.39-1.67v-4.01h.81v3.82c0,.71.2,1.15.84,1.15s1.06-.38,1.06-1.58v-3.39h.81v4.05ZM84.38,203.5h.79v-1.49h.8v1.49h.97v.69h-.97v3.66c0,.38.08.62.5.62.13,0,.29,0,.39-.03v.62c-.19.07-.47.09-.66.09-.66,0-1.04-.27-1.04-1.15v-3.82h-.79v-.69ZM89.79,203.5h.77c.01.14.03.4.03,1,.24-.67.78-1.07,1.47-1.08v.89c-.96.03-1.46.63-1.46,1.66v3.12h-.8v-3.68c0-.89,0-1.5-.01-1.9ZM93.31,206.44c0,1.09.19,2.05,1.07,2.05s.99-.83,1.02-1h.79c-.01.14-.17,1.69-1.81,1.69s-1.87-1.51-1.87-2.89c0-1.77.6-2.88,1.92-2.88,1.47,0,1.81,1.21,1.81,2.6,0,.11,0,.29-.01.43h-2.91ZM95.42,205.8c0-.96-.2-1.71-1.02-1.71-1.02,0-1.07,1.33-1.09,1.71h2.1ZM95.42,205.8h0ZM100.69,207.37c-.02.3-.14,1.8-1.77,1.8-1.46,0-1.85-1.29-1.85-2.91s.51-2.87,1.93-2.87c1.62,0,1.7,1.5,1.7,1.76h-.82c-.01-.23-.09-1.07-.88-1.07s-1.1.88-1.1,2.17c0,1.39.3,2.22,1.06,2.22.81,0,.9-.81.94-1.11h.8ZM102.46,201.24v2.93c.19-.45.63-.78,1.34-.78.82,0,1.41.51,1.41,1.71v3.97h-.81v-3.8c0-.68-.2-1.16-.88-1.16-.77,0-1.05.63-1.05,1.6v3.35h-.81v-7.83h.81ZM107.04,206.44c0,1.09.19,2.05,1.07,2.05s.99-.83,1.02-1h.79c-.01.14-.17,1.69-1.81,1.69s-1.87-1.51-1.87-2.89c0-1.77.6-2.88,1.92-2.88,1.47,0,1.81,1.21,1.81,2.6,0,.11,0,.29-.01.43h-2.91ZM109.16,205.8c0-.96-.2-1.71-1.02-1.71-1.02,0-1.07,1.33-1.09,1.71h2.1ZM109.16,205.8h0ZM110.98,203.5h.77c.01.14.03.4.03,1,.24-.67.78-1.07,1.47-1.08v.89c-.96.03-1.46.63-1.46,1.66v3.12h-.8v-3.68c0-.89,0-1.5-.01-1.9ZM117.31,207.37c-.02.3-.14,1.8-1.77,1.8-1.46,0-1.85-1.29-1.85-2.91s.51-2.87,1.93-2.87c1.62,0,1.7,1.5,1.7,1.76h-.82c-.01-.23-.09-1.07-.88-1.07s-1.1.88-1.1,2.17c0,1.39.3,2.22,1.06,2.22.81,0,.9-.81.94-1.11h.8ZM119.08,201.24v2.93c.19-.45.63-.78,1.34-.78.82,0,1.41.51,1.41,1.71v3.97h-.81v-3.8c0-.68-.2-1.16-.88-1.16-.77,0-1.05.63-1.05,1.6v3.35h-.81v-7.83h.81ZM123.67,206.44c0,1.09.19,2.05,1.07,2.05s.99-.83,1.02-1h.79c-.01.14-.17,1.69-1.81,1.69s-1.87-1.51-1.87-2.89c0-1.77.6-2.88,1.92-2.88,1.47,0,1.81,1.21,1.81,2.6,0,.11,0,.29-.01.43h-2.91ZM125.78,205.8c0-.96-.2-1.71-1.02-1.71-1.02,0-1.07,1.33-1.09,1.71h2.1ZM125.78,205.8h0ZM127.6,203.5h.77c.01.14.03.4.03,1,.24-.67.78-1.07,1.47-1.08v.89c-.96.03-1.46.63-1.46,1.66v3.12h-.8v-3.68c0-.89,0-1.5-.01-1.9ZM132.75,209.07v-7.83h.8v7.83h-.8ZM135.41,206.44c0,1.09.19,2.05,1.07,2.05s.99-.83,1.02-1h.79c-.01.14-.17,1.69-1.81,1.69s-1.87-1.51-1.87-2.89c0-1.77.6-2.88,1.92-2.88,1.47,0,1.81,1.21,1.81,2.6,0,.11,0,.29-.01.43h-2.91ZM137.53,205.8c0-.96-.2-1.71-1.02-1.71-1.02,0-1.07,1.33-1.09,1.71h2.1ZM137.53,205.8h0ZM140.8,208.51c.61,0,.9-.37.9-.88,0-.58-.3-.84-1.03-1.13-1.15-.44-1.49-.86-1.49-1.63s.46-1.47,1.6-1.47c1.25,0,1.6.85,1.61,1.59h-.79c-.01-.27-.07-.93-.85-.93-.53,0-.77.33-.77.77s.19.67.97.96c1.08.42,1.56.81,1.56,1.77,0,1.02-.64,1.62-1.75,1.62s-1.72-.69-1.75-1.71h.8c.04.6.35,1.05.99,1.05ZM145.61,205.17c0-.99,0-1.41-.01-1.67h.77c.02.16.03.46.03.71.22-.49.61-.81,1.25-.81.58,0,.99.25,1.16.83.2-.45.62-.83,1.35-.83s1.35.34,1.35,1.62v4.05h-.8v-3.91c0-.56-.16-1.05-.79-1.05-.71,0-.95.63-.95,1.38v3.58h-.8v-3.89c0-.69-.23-1.06-.77-1.06-.67,0-.98.61-.98,1.45v3.5h-.8v-3.91ZM156.38,206.22c0,1.96-.66,2.96-1.92,2.96s-1.92-.96-1.92-2.94.76-2.83,1.95-2.83,1.89.94,1.89,2.82ZM153.37,206.24c0,1.52.38,2.24,1.1,2.24s1.09-.73,1.09-2.24c0-1.43-.35-2.13-1.09-2.13s-1.1.63-1.1,2.14ZM156.76,203.5h.79v-1.49h.8v1.49h.97v.69h-.97v3.66c0,.38.08.62.5.62.13,0,.29,0,.39-.03v.62c-.19.07-.47.09-.66.09-.66,0-1.04-.27-1.04-1.15v-3.82h-.79v-.69ZM161.6,208.51c.61,0,.9-.37.9-.88,0-.58-.3-.84-1.03-1.13-1.15-.44-1.49-.86-1.49-1.63s.46-1.47,1.6-1.47c1.25,0,1.6.85,1.61,1.59h-.79c-.01-.27-.07-.93-.85-.93-.53,0-.77.33-.77.77s.19.67.97.96c1.08.42,1.56.81,1.56,1.77,0,1.02-.64,1.62-1.75,1.62s-1.72-.69-1.75-1.71h.8c.04.6.35,1.05.99,1.05Z"/>
    <path class="cls-1" d="M30.08,212.24v6.4c0,.54,0,1.1.01,1.43h-.78c-.01-.14-.03-.51-.03-.75-.17.48-.53.85-1.31.85-1.16,0-1.65-.99-1.65-2.95,0-1.78.66-2.82,1.83-2.82.72,0,1,.31,1.13.58v-2.74h.8ZM27.15,217.23c0,1.61.37,2.22,1.05,2.22.87,0,1.1-.74,1.1-2.25,0-1.63-.23-2.09-1.03-2.09-.66,0-1.11.58-1.11,2.12ZM34.58,219.09c0,.35.03.81.04.99h-.74c-.03-.12-.06-.42-.06-.63-.21.45-.63.73-1.32.73-1.07,0-1.46-.84-1.46-1.61,0-1.02.69-1.79,2.15-1.79.26,0,.42,0,.58.02v-.74c0-.44-.08-.99-.84-.99-.82,0-.87.59-.9.96h-.78c.02-.8.4-1.62,1.71-1.62,1.08,0,1.6.53,1.6,1.55v3.13ZM33.81,217.43c-.14-.02-.29-.03-.55-.03-.99,0-1.4.48-1.4,1.1,0,.51.27.99.87.99.82,0,1.08-.58,1.08-1.75v-.3ZM35.9,214.5h.78c.01.14.03.36.03.73.19-.44.57-.83,1.32-.83.81,0,1.43.46,1.43,1.7v3.97h-.81v-3.82c0-.68-.22-1.14-.86-1.14-.75,0-1.07.49-1.07,1.64v3.32h-.81v-3.85c0-1.14,0-1.47-.01-1.73ZM42.17,219.51c.61,0,.9-.37.9-.88,0-.58-.3-.84-1.03-1.13-1.15-.44-1.49-.86-1.49-1.63s.46-1.47,1.6-1.47c1.25,0,1.6.85,1.61,1.59h-.79c-.01-.27-.07-.93-.85-.93-.53,0-.77.33-.77.77s.19.67.97.96c1.08.42,1.56.81,1.56,1.77,0,1.02-.64,1.62-1.75,1.62s-1.72-.69-1.75-1.71h.8c.04.6.35,1.05.99,1.05ZM46.97,220.07v-7.83h.8v7.83h-.8ZM48.68,214.75c.2-.76.38-1.68.38-2.54h.78c-.01.94-.3,2.07-.51,2.54h-.65ZM53.78,217.22c0,1.96-.66,2.96-1.92,2.96s-1.92-.96-1.92-2.94.76-2.83,1.95-2.83,1.89.94,1.89,2.82ZM50.76,217.24c0,1.52.38,2.24,1.1,2.24s1.09-.73,1.09-2.24c0-1.43-.35-2.13-1.09-2.13s-1.1.63-1.1,2.14ZM54.81,214.5h.77c.01.14.03.4.03,1,.24-.67.78-1.07,1.47-1.08v.89c-.96.03-1.46.63-1.46,1.66v3.12h-.8v-3.68c0-.89,0-1.5-.01-1.9ZM61.28,212.24v6.4c0,.54,0,1.1.01,1.43h-.78c-.01-.14-.03-.51-.03-.75-.17.48-.53.85-1.31.85-1.16,0-1.65-.99-1.65-2.95,0-1.78.66-2.82,1.83-2.82.72,0,1,.31,1.13.58v-2.74h.8ZM58.34,217.23c0,1.61.37,2.22,1.05,2.22.87,0,1.1-.74,1.1-2.25,0-1.63-.23-2.09-1.03-2.09-.66,0-1.11.58-1.11,2.12ZM62.58,214.5h.77c.01.14.03.4.03,1,.24-.67.78-1.07,1.47-1.08v.89c-.96.03-1.46.63-1.46,1.66v3.12h-.8v-3.68c0-.89,0-1.5-.01-1.9ZM66.09,217.44c0,1.09.19,2.05,1.07,2.05s.99-.83,1.02-1h.79c-.01.14-.17,1.69-1.81,1.69s-1.87-1.51-1.87-2.89c0-1.77.6-2.88,1.92-2.88,1.47,0,1.81,1.21,1.81,2.6,0,.11,0,.29-.01.43h-2.91ZM68.21,216.8c0-.96-.2-1.71-1.02-1.71-1.02,0-1.07,1.33-1.09,1.71h2.1ZM68.21,216.8h0ZM72.14,214.5h.8v5.58h-.8v-5.58ZM72.14,212.24h.8v1.15h-.8v-1.15ZM74.26,214.5h.78c.01.14.03.36.03.73.19-.44.57-.83,1.32-.83.81,0,1.43.46,1.43,1.7v3.97h-.81v-3.82c0-.68-.22-1.14-.86-1.14-.75,0-1.07.49-1.07,1.64v3.32h-.81v-3.85c0-1.14,0-1.47-.01-1.73ZM82.63,212.24v6.4c0,.54,0,1.1.01,1.43h-.78c-.01-.14-.03-.51-.03-.75-.17.48-.53.85-1.31.85-1.16,0-1.65-.99-1.65-2.95,0-1.78.66-2.82,1.83-2.82.72,0,1,.31,1.13.58v-2.74h.8ZM79.69,217.23c0,1.61.37,2.22,1.05,2.22.87,0,1.1-.74,1.1-2.25,0-1.63-.23-2.09-1.03-2.09-.66,0-1.11.58-1.11,2.12ZM83.94,214.5h.8v5.58h-.8v-5.58ZM83.94,212.24h.8v1.15h-.8v-1.15ZM88.77,219.37c-.21.48-.59.8-1.31.8-1.04,0-1.66-.86-1.66-2.89,0-1.85.7-2.88,1.8-2.88.74,0,1.05.35,1.17.7,0-.31.02-.5.03-.6h.78c-.01.4-.01.86-.01,1.65v5.98h-.79v-2.76ZM86.63,217.29c0,1.33.31,2.18,1.06,2.18.9,0,1.09-.78,1.09-2.21s-.12-2.15-1.03-2.15c-.7,0-1.11.76-1.11,2.18ZM94.4,218.55c0,.7,0,1.26.01,1.53h-.77c-.03-.16-.04-.38-.04-.74-.2.55-.67.84-1.33.84s-1.39-.27-1.39-1.67v-4.01h.81v3.82c0,.71.2,1.15.84,1.15s1.06-.38,1.06-1.58v-3.39h.81v4.05ZM96.24,217.44c0,1.09.19,2.05,1.07,2.05s.99-.83,1.02-1h.79c-.01.14-.17,1.69-1.81,1.69s-1.87-1.51-1.87-2.89c0-1.77.6-2.88,1.92-2.88,1.47,0,1.81,1.21,1.81,2.6,0,.11,0,.29-.01.43h-2.91ZM98.36,216.8c0-.96-.2-1.71-1.02-1.71-1.02,0-1.07,1.33-1.09,1.71h2.1ZM98.88,212.12l-1.38,1.53h-.75l1.18-1.53h.95ZM98.36,216.8h0ZM100,218.57h.82v1.51h-.82v-1.51ZM106.12,212.6h1.66c1.72,0,2.5,1.2,2.5,3.54,0,2.54-.7,3.93-2.62,3.93h-1.54v-7.47ZM106.94,219.37h.68c1.37,0,1.8-1.08,1.8-3.2,0-1.98-.51-2.86-1.79-2.86h-.7v6.06ZM114.6,219.09c0,.35.03.81.04.99h-.74c-.03-.12-.06-.42-.06-.63-.21.45-.63.73-1.32.73-1.07,0-1.46-.84-1.46-1.61,0-1.02.69-1.79,2.15-1.79.26,0,.42,0,.58.02v-.74c0-.44-.08-.99-.84-.99-.82,0-.87.59-.9.96h-.78c.02-.8.4-1.62,1.71-1.62,1.08,0,1.6.53,1.6,1.55v3.13ZM113.83,217.43c-.14-.02-.29-.03-.55-.03-.99,0-1.4.48-1.4,1.1,0,.51.27.99.87.99.82,0,1.08-.58,1.08-1.75v-.3ZM115.93,214.5h.78c.01.14.03.36.03.73.19-.44.57-.83,1.32-.83.81,0,1.43.46,1.43,1.7v3.97h-.81v-3.82c0-.68-.22-1.14-.86-1.14-.75,0-1.07.49-1.07,1.64v3.32h-.81v-3.85c0-1.14,0-1.47-.01-1.73ZM122.19,219.51c.61,0,.9-.37.9-.88,0-.58-.3-.84-1.03-1.13-1.15-.44-1.49-.86-1.49-1.63s.46-1.47,1.6-1.47c1.25,0,1.6.85,1.61,1.59h-.79c-.01-.27-.07-.93-.85-.93-.53,0-.77.33-.77.77s.19.67.97.96c1.08.42,1.56.81,1.56,1.77,0,1.02-.64,1.62-1.75,1.62s-1.72-.69-1.75-1.71h.8c.04.6.35,1.05.99,1.05ZM126.98,214.5h.78c.01.14.03.36.03.73.19-.44.57-.83,1.32-.83.81,0,1.43.46,1.43,1.7v3.97h-.81v-3.82c0-.68-.22-1.14-.86-1.14-.75,0-1.07.49-1.07,1.64v3.32h-.81v-3.85c0-1.14,0-1.47-.01-1.73ZM135.43,217.22c0,1.96-.66,2.96-1.92,2.96s-1.92-.96-1.92-2.94.76-2.83,1.95-2.83,1.89.94,1.89,2.82ZM132.41,217.24c0,1.52.38,2.24,1.1,2.24s1.09-.73,1.09-2.24c0-1.43-.35-2.13-1.09-2.13s-1.1.63-1.1,2.14ZM135.81,214.5h.79v-1.49h.8v1.49h.97v.69h-.97v3.66c0,.38.08.62.5.62.13,0,.29,0,.39-.03v.62c-.19.07-.47.09-.66.09-.66,0-1.04-.27-1.04-1.15v-3.82h-.79v-.69ZM139.11,214.5h.77c.01.14.03.4.03,1,.24-.67.78-1.07,1.47-1.08v.89c-.96.03-1.46.63-1.46,1.66v3.12h-.8v-3.68c0-.89,0-1.5-.01-1.9ZM142.63,217.44c0,1.09.19,2.05,1.07,2.05s.99-.83,1.02-1h.79c-.01.14-.17,1.69-1.81,1.69s-1.87-1.51-1.87-2.89c0-1.77.6-2.88,1.92-2.88,1.47,0,1.81,1.21,1.81,2.6,0,.11,0,.29-.01.43h-2.91ZM144.75,216.8c0-.96-.2-1.71-1.02-1.71-1.02,0-1.07,1.33-1.09,1.71h2.1ZM144.75,216.8h0Z"/>
    <path class="cls-1" d="M27.13,228.44c0,1.09.19,2.05,1.07,2.05s.99-.83,1.02-1h.79c-.01.14-.17,1.69-1.81,1.69s-1.87-1.51-1.87-2.89c0-1.77.6-2.88,1.92-2.88,1.47,0,1.81,1.21,1.81,2.6,0,.11,0,.29-.01.43h-2.91ZM29.25,227.8c0-.96-.2-1.71-1.02-1.71-1.02,0-1.07,1.33-1.09,1.71h2.1ZM29.25,227.8h0ZM31.34,225.5c.58,1.21.88,1.76,1.02,2.07h.01c.18-.38.56-1.11,1.05-2.07h.86l-1.47,2.66,1.48,2.92h-.9c-.55-1.15-.89-1.83-1.05-2.17h-.01c-.14.3-.55,1.13-1.07,2.17h-.86l1.47-2.8-1.43-2.78h.89ZM35.43,228.44c0,1.09.19,2.05,1.07,2.05s.99-.83,1.02-1h.79c-.01.14-.17,1.69-1.81,1.69s-1.87-1.51-1.87-2.89c0-1.77.6-2.88,1.92-2.88,1.47,0,1.81,1.21,1.81,2.6,0,.11,0,.29-.01.43h-2.91ZM37.54,227.8c0-.96-.2-1.71-1.02-1.71-1.02,0-1.07,1.33-1.09,1.71h2.1ZM37.54,227.8h0ZM39.37,227.17c0-.99,0-1.41-.01-1.67h.77c.02.16.03.46.03.71.22-.49.61-.81,1.25-.81.58,0,.99.25,1.16.83.2-.45.62-.83,1.35-.83s1.35.34,1.35,1.62v4.05h-.8v-3.91c0-.56-.16-1.05-.79-1.05-.71,0-.95.63-.95,1.38v3.58h-.8v-3.89c0-.69-.23-1.06-.77-1.06-.67,0-.98.61-.98,1.45v3.5h-.8v-3.91ZM47.39,230.5v2.62h-.8v-6c0-.76,0-1.28-.01-1.63h.78c.01.1.03.47.03.75.2-.48.59-.84,1.33-.84,1.06,0,1.63.94,1.63,2.8,0,2.01-.7,2.97-1.79,2.97-.67,0-1-.32-1.16-.67ZM49.52,228.24c0-1.4-.32-2.13-1.06-2.13-.86,0-1.1.82-1.1,2.14s.13,2.21,1.05,2.21c.73,0,1.1-.85,1.1-2.22ZM51.39,231.07v-7.83h.8v7.83h-.8ZM54.06,228.44c0,1.09.19,2.05,1.07,2.05s.99-.83,1.02-1h.79c-.01.14-.17,1.69-1.81,1.69s-1.87-1.51-1.87-2.89c0-1.77.6-2.88,1.92-2.88,1.47,0,1.81,1.21,1.81,2.6,0,.11,0,.29-.01.43h-2.91ZM56.18,227.8c0-.96-.2-1.71-1.02-1.71-1.02,0-1.07,1.33-1.09,1.71h2.1ZM56.18,227.8h0ZM57.36,232.32c.34-.87.56-1.86.6-2.65h.78c-.07,1.02-.39,2.07-.72,2.65h-.66Z"/>
    <path class="cls-1" d="M64.84,229.55c-.15.7-.27,1.26-.3,1.53h-.75c0-.13.07-.53.11-.72-.32.54-.74.82-1.38.82-.61,0-1.34-.32-1.05-1.68l.84-3.99h.78l-.81,3.8c-.15.71-.07,1.19.57,1.19.6,0,1.1-.41,1.36-1.63l.71-3.36h.78l-.86,4.05ZM66.65,227.22c.25-1.14.32-1.55.35-1.73h.76c-.02.16-.08.48-.13.74.28-.46.69-.82,1.4-.82.78,0,1.35.51,1.08,1.81l-.82,3.85h-.78l.8-3.77c.16-.73.01-1.2-.61-1.2-.69,0-1.13.5-1.38,1.66l-.7,3.32h-.79l.82-3.85ZM71.79,225.5h.78l-1.19,5.58h-.78l1.19-5.58ZM72.28,223.24h.78l-.25,1.15h-.78l.25-1.15ZM73.3,225.5h.8l.32-1.48h.77l-.32,1.48h.93l-.14.66h-.94l-.77,3.63c-.09.41-.09.73.38.73.2,0,.36-.03.47-.05l-.13.6c-.18.07-.44.09-.66.09-.71,0-1.07-.32-.88-1.22l.82-3.78h-.8l.14-.66ZM76.52,228.4c-.07.37-.12.71-.12,1,0,.69.22,1.1.79,1.1.65,0,.91-.51,1.05-.83h.76c-.18.58-.71,1.5-1.89,1.5-1.62,0-1.6-1.66-1.32-2.99.36-1.68,1.12-2.77,2.32-2.77,1.37,0,1.66,1.16,1.31,2.58,0,0-.1.41-.1.41h-2.8ZM78.8,227.01c0-.53-.17-.94-.78-.94-.7,0-1.13.78-1.37,1.72h2.03c.06-.26.12-.55.12-.78ZM80.28,223.12l-1.72,1.53h-.75l1.47-1.53h1ZM86.97,223.24l-1.36,6.4c-.12.54-.23,1.08-.28,1.43h-.76c.01-.14.05-.37.12-.69-.29.46-.66.79-1.36.79-1.16,0-1.48-1.2-1.08-3.03.34-1.54,1.09-2.73,2.24-2.73.72,0,1.01.39,1.11.69l.61-2.86h.78ZM83.01,228.23c-.28,1.31-.21,2.28.63,2.28s1.23-.95,1.54-2.4c.29-1.38.15-2.02-.66-2.02-.7,0-1.23.81-1.52,2.14ZM87.4,225.76c.37-.67.8-1.6,1.01-2.55h.76c-.27,1.06-.76,2.07-1.1,2.55h-.68ZM92.04,229.55c-.15.7-.27,1.26-.3,1.53h-.75c0-.13.07-.53.11-.72-.32.54-.74.82-1.38.82-.61,0-1.34-.32-1.05-1.68l.84-3.99h.78l-.81,3.8c-.15.71-.07,1.19.57,1.19.6,0,1.1-.41,1.36-1.63l.71-3.36h.78l-.86,4.05ZM93.82,227.38c.19-.89.31-1.47.38-1.89h.74c-.03.19-.06.45-.18.98.39-.73.99-1.06,1.67-1.07l-.2.87c-.97,0-1.54.66-1.77,1.73l-.65,3.06h-.78l.79-3.69ZM99.51,230.71c-.31,1.47-.77,2.51-2.24,2.51s-1.6-1.01-1.54-1.61h.75c-.01.41.11.96.85.96.84,0,1.16-.72,1.38-1.73l.13-.6c-.3.53-.74.8-1.34.8-1.25,0-1.45-1.29-1.12-2.79.37-1.76,1.12-2.83,2.22-2.83.72,0,1.03.42,1.09.79.06-.25.15-.59.19-.71h.76c-.07.26-.2.86-.36,1.61l-.76,3.6ZM97.78,230.36c.83,0,1.25-.94,1.51-2.1.32-1.46.2-2.18-.63-2.18-.72,0-1.23.89-1.5,2.22-.26,1.27-.13,2.06.63,2.06ZM101.85,228.4c-.07.37-.12.71-.12,1,0,.69.22,1.1.79,1.1.65,0,.91-.51,1.05-.83h.76c-.18.58-.71,1.5-1.89,1.5-1.62,0-1.6-1.66-1.32-2.99.36-1.68,1.12-2.77,2.32-2.77,1.37,0,1.66,1.16,1.31,2.58,0,0-.1.41-.1.41h-2.8ZM104.13,227.01c0-.53-.17-.94-.78-.94-.7,0-1.13.78-1.37,1.72h2.03c.06-.26.12-.55.12-.78ZM105.97,227.22c.25-1.14.32-1.55.35-1.73h.76c-.02.16-.08.48-.13.74.28-.46.69-.82,1.4-.82.78,0,1.35.51,1.08,1.81l-.82,3.85h-.78l.8-3.77c.16-.73.01-1.2-.61-1.2-.69,0-1.13.5-1.38,1.66l-.7,3.32h-.79l.82-3.85ZM113.55,229.56c-.24.75-.75,1.61-1.94,1.61-1.49,0-1.67-1.34-1.31-3,.35-1.61,1.07-2.76,2.29-2.76s1.49.91,1.38,1.75h-.77c.07-.64-.09-1.07-.69-1.07s-1.11.59-1.45,2.18c-.27,1.3-.2,2.24.61,2.24.55,0,.89-.38,1.1-.94h.77ZM115.28,228.4c-.07.37-.12.71-.12,1,0,.69.22,1.1.79,1.1.65,0,.91-.51,1.05-.83h.76c-.18.58-.71,1.5-1.89,1.5-1.62,0-1.6-1.66-1.32-2.99.36-1.68,1.12-2.77,2.32-2.77,1.37,0,1.66,1.16,1.31,2.58,0,0-.1.41-.1.41h-2.8ZM117.56,227.01c0-.53-.17-.94-.78-.94-.7,0-1.13.78-1.37,1.72h2.03c.06-.26.12-.55.12-.78Z"/>
    <path class="cls-1" d="M121.25,225.5h.78c.01.14.03.36.03.73.19-.44.57-.83,1.32-.83.81,0,1.43.46,1.43,1.7v3.97h-.81v-3.82c0-.68-.22-1.14-.86-1.14-.75,0-1.07.49-1.07,1.64v3.32h-.81v-3.85c0-1.14,0-1.47-.01-1.73ZM126.67,228.44c0,1.09.19,2.05,1.07,2.05s.99-.83,1.02-1h.79c-.01.14-.17,1.69-1.81,1.69s-1.87-1.51-1.87-2.89c0-1.77.6-2.88,1.92-2.88,1.47,0,1.81,1.21,1.81,2.6,0,.11,0,.29-.01.43h-2.91ZM128.79,227.8c0-.96-.2-1.71-1.02-1.71-1.02,0-1.07,1.33-1.09,1.71h2.1ZM128.79,227.8h0ZM134.09,230.51c.61,0,.9-.37.9-.88,0-.58-.3-.84-1.03-1.13-1.15-.44-1.49-.86-1.49-1.63s.46-1.47,1.6-1.47c1.25,0,1.6.85,1.61,1.59h-.79c-.01-.27-.07-.93-.85-.93-.53,0-.77.33-.77.77s.19.67.97.96c1.08.42,1.56.81,1.56,1.77,0,1.02-.64,1.62-1.75,1.62s-1.72-.69-1.75-1.71h.8c.04.6.35,1.05.99,1.05ZM137.34,228.44c0,1.09.19,2.05,1.07,2.05s.99-.83,1.02-1h.79c-.01.14-.17,1.69-1.81,1.69s-1.87-1.51-1.87-2.89c0-1.77.6-2.88,1.92-2.88,1.47,0,1.81,1.21,1.81,2.6,0,.11,0,.29-.01.43h-2.91ZM139.46,227.8c0-.96-.2-1.71-1.02-1.71-1.02,0-1.07,1.33-1.09,1.71h2.1ZM139.46,227.8h0ZM141.27,225.5h.77c.01.14.03.4.03,1,.24-.67.78-1.07,1.47-1.08v.89c-.96.03-1.46.63-1.46,1.66v3.12h-.8v-3.68c0-.89,0-1.5-.01-1.9ZM147.41,230.09c0,.35.03.81.04.99h-.74c-.03-.12-.06-.42-.06-.63-.21.45-.63.73-1.32.73-1.07,0-1.46-.84-1.46-1.61,0-1.02.69-1.79,2.15-1.79.26,0,.42,0,.58.02v-.74c0-.44-.08-.99-.84-.99-.82,0-.87.59-.9.96h-.78c.02-.8.4-1.62,1.71-1.62,1.08,0,1.6.53,1.6,1.55v3.13ZM146.64,228.43c-.14-.02-.29-.03-.55-.03-.99,0-1.4.48-1.4,1.1,0,.51.27.99.87.99.82,0,1.08-.58,1.08-1.75v-.3ZM148.08,232.32c.34-.87.56-1.86.6-2.65h.78c-.07,1.02-.39,2.07-.72,2.65h-.66ZM153.26,230.5v2.62h-.8v-6c0-.76,0-1.28-.01-1.63h.78c.01.1.03.47.03.75.2-.48.59-.84,1.33-.84,1.06,0,1.63.94,1.63,2.8,0,2.01-.7,2.97-1.79,2.97-.67,0-1-.32-1.16-.67ZM155.39,228.24c0-1.4-.32-2.13-1.06-2.13-.86,0-1.1.82-1.1,2.14s.13,2.21,1.05,2.21c.73,0,1.1-.85,1.1-2.22ZM160.48,230.09c0,.35.03.81.04.99h-.74c-.03-.12-.06-.42-.06-.63-.21.45-.63.73-1.32.73-1.07,0-1.46-.84-1.46-1.61,0-1.02.69-1.79,2.15-1.79.26,0,.42,0,.58.02v-.74c0-.44-.08-.99-.84-.99-.82,0-.87.59-.9.96h-.78c.02-.8.4-1.62,1.71-1.62,1.08,0,1.6.53,1.6,1.55v3.13ZM159.71,228.43c-.14-.02-.29-.03-.55-.03-.99,0-1.4.48-1.4,1.1,0,.51.27.99.87.99.82,0,1.08-.58,1.08-1.75v-.3ZM161.81,225.5h.77c.01.14.03.4.03,1,.24-.67.78-1.07,1.47-1.08v.89c-.96.03-1.46.63-1.46,1.66v3.12h-.8v-3.68c0-.89,0-1.5-.01-1.9Z"/>
    <path class="cls-1" d="M27.13,239.44c0,1.09.19,2.05,1.07,2.05s.99-.83,1.02-1h.79c-.01.14-.17,1.69-1.81,1.69s-1.87-1.51-1.87-2.89c0-1.77.6-2.88,1.92-2.88,1.47,0,1.81,1.21,1.81,2.6,0,.11,0,.29-.01.43h-2.91ZM29.25,238.8c0-.96-.2-1.71-1.02-1.71-1.02,0-1.07,1.33-1.09,1.71h2.1ZM29.25,238.8h0ZM31.34,236.5c.58,1.21.88,1.76,1.02,2.07h.01c.18-.38.56-1.11,1.05-2.07h.86l-1.47,2.66,1.48,2.92h-.9c-.55-1.15-.89-1.83-1.05-2.17h-.01c-.14.3-.55,1.13-1.07,2.17h-.86l1.47-2.8-1.43-2.78h.89ZM35.43,239.44c0,1.09.19,2.05,1.07,2.05s.99-.83,1.02-1h.79c-.01.14-.17,1.69-1.81,1.69s-1.87-1.51-1.87-2.89c0-1.77.6-2.88,1.92-2.88,1.47,0,1.81,1.21,1.81,2.6,0,.11,0,.29-.01.43h-2.91ZM37.54,238.8c0-.96-.2-1.71-1.02-1.71-1.02,0-1.07,1.33-1.09,1.71h2.1ZM37.54,238.8h0ZM39.37,238.17c0-.99,0-1.41-.01-1.67h.77c.02.16.03.46.03.71.22-.49.61-.81,1.25-.81.58,0,.99.25,1.16.83.2-.45.62-.83,1.35-.83s1.35.34,1.35,1.62v4.05h-.8v-3.91c0-.56-.16-1.05-.79-1.05-.71,0-.95.63-.95,1.38v3.58h-.8v-3.89c0-.69-.23-1.06-.77-1.06-.67,0-.98.61-.98,1.45v3.5h-.8v-3.91ZM47.39,241.5v2.62h-.8v-6c0-.76,0-1.28-.01-1.63h.78c.01.1.03.47.03.75.2-.48.59-.84,1.33-.84,1.06,0,1.63.94,1.63,2.8,0,2.01-.7,2.97-1.79,2.97-.67,0-1-.32-1.16-.67ZM49.52,239.24c0-1.4-.32-2.13-1.06-2.13-.86,0-1.1.82-1.1,2.14s.13,2.21,1.05,2.21c.73,0,1.1-.85,1.1-2.22ZM51.39,242.07v-7.83h.8v7.83h-.8ZM54.06,239.44c0,1.09.19,2.05,1.07,2.05s.99-.83,1.02-1h.79c-.01.14-.17,1.69-1.81,1.69s-1.87-1.51-1.87-2.89c0-1.77.6-2.88,1.92-2.88,1.47,0,1.81,1.21,1.81,2.6,0,.11,0,.29-.01.43h-2.91ZM56.18,238.8c0-.96-.2-1.71-1.02-1.71-1.02,0-1.07,1.33-1.09,1.71h2.1ZM56.18,238.8h0ZM57.36,243.32c.34-.87.56-1.86.6-2.65h.78c-.07,1.02-.39,2.07-.72,2.65h-.66ZM62.55,241.5v2.62h-.8v-6c0-.76,0-1.28-.01-1.63h.78c.01.1.03.47.03.75.2-.48.59-.84,1.33-.84,1.06,0,1.63.94,1.63,2.8,0,2.01-.7,2.97-1.79,2.97-.67,0-1-.32-1.16-.67ZM64.68,239.24c0-1.4-.32-2.13-1.06-2.13-.86,0-1.1.82-1.1,2.14s.13,2.21,1.05,2.21c.73,0,1.1-.85,1.1-2.22ZM69.77,241.09c0,.35.03.81.04.99h-.74c-.03-.12-.06-.42-.06-.63-.21.45-.63.73-1.32.73-1.07,0-1.46-.84-1.46-1.61,0-1.02.69-1.79,2.15-1.79.26,0,.42,0,.58.02v-.74c0-.44-.08-.99-.84-.99-.82,0-.87.59-.9.96h-.78c.02-.8.4-1.62,1.71-1.62,1.08,0,1.6.53,1.6,1.55v3.13ZM68.99,239.43c-.14-.02-.29-.03-.55-.03-.99,0-1.4.48-1.4,1.1,0,.51.27.99.87.99.82,0,1.08-.58,1.08-1.75v-.3ZM72.42,241.51c.61,0,.9-.37.9-.88,0-.58-.3-.84-1.03-1.13-1.15-.44-1.49-.86-1.49-1.63s.46-1.47,1.6-1.47c1.25,0,1.6.85,1.61,1.59h-.79c-.01-.27-.07-.93-.85-.93-.53,0-.77.33-.77.77s.19.67.97.96c1.08.42,1.56.81,1.56,1.77,0,1.02-.64,1.62-1.75,1.62s-1.72-.69-1.75-1.71h.8c.04.6.35,1.05.99,1.05ZM78.02,241.5v2.62h-.8v-6c0-.76,0-1.28-.01-1.63h.78c.01.1.03.47.03.75.2-.48.59-.84,1.33-.84,1.06,0,1.63.94,1.63,2.8,0,2.01-.7,2.97-1.79,2.97-.67,0-1-.32-1.16-.67ZM80.15,239.24c0-1.4-.32-2.13-1.06-2.13-.86,0-1.1.82-1.1,2.14s.13,2.21,1.05,2.21c.73,0,1.1-.85,1.1-2.22ZM82.01,236.5h.77c.01.14.03.4.03,1,.24-.67.78-1.07,1.47-1.08v.89c-.96.03-1.46.63-1.46,1.66v3.12h-.8v-3.68c0-.89,0-1.5-.01-1.9ZM85.03,236.5h.8v5.58h-.8v-5.58ZM85.03,234.24h.8v1.15h-.8v-1.15ZM88.53,241.51c.61,0,.9-.37.9-.88,0-.58-.3-.84-1.03-1.13-1.15-.44-1.49-.86-1.49-1.63s.46-1.47,1.6-1.47c1.25,0,1.6.85,1.61,1.59h-.79c-.01-.27-.07-.93-.85-.93-.53,0-.77.33-.77.77s.19.67.97.96c1.08.42,1.56.81,1.56,1.77,0,1.02-.64,1.62-1.75,1.62s-1.72-.69-1.75-1.71h.8c.04.6.35,1.05.99,1.05ZM93.87,239.44c0,1.09.19,2.05,1.07,2.05s.99-.83,1.02-1h.79c-.01.14-.17,1.69-1.81,1.69s-1.87-1.51-1.87-2.89c0-1.77.6-2.88,1.92-2.88,1.47,0,1.81,1.21,1.81,2.6,0,.11,0,.29-.01.43h-2.91ZM95.98,238.8c0-.96-.2-1.71-1.02-1.71-1.02,0-1.07,1.33-1.09,1.71h2.1ZM95.98,238.8h0ZM97.8,236.5h.78c.01.14.03.36.03.73.19-.44.57-.83,1.32-.83.81,0,1.43.46,1.43,1.7v3.97h-.81v-3.82c0-.68-.22-1.14-.86-1.14-.75,0-1.07.49-1.07,1.64v3.32h-.81v-3.85c0-1.14,0-1.47-.01-1.73ZM108.08,240.37c-.02.3-.14,1.8-1.77,1.8-1.46,0-1.85-1.29-1.85-2.91s.51-2.87,1.93-2.87c1.62,0,1.7,1.5,1.7,1.76h-.82c-.01-.23-.09-1.07-.88-1.07s-1.1.88-1.1,2.17c0,1.39.3,2.22,1.06,2.22.81,0,.9-.81.94-1.11h.8ZM112.66,239.22c0,1.96-.66,2.96-1.92,2.96s-1.92-.96-1.92-2.94.76-2.83,1.95-2.83,1.89.94,1.89,2.82ZM109.64,239.24c0,1.52.38,2.24,1.1,2.24s1.09-.73,1.09-2.24c0-1.43-.35-2.13-1.09-2.13s-1.1.63-1.1,2.14ZM113.71,238.17c0-.99,0-1.41-.01-1.67h.77c.02.16.03.46.03.71.22-.49.61-.81,1.25-.81.58,0,.99.25,1.16.83.2-.45.62-.83,1.35-.83s1.35.34,1.35,1.62v4.05h-.8v-3.91c0-.56-.16-1.05-.79-1.05-.71,0-.95.63-.95,1.38v3.58h-.8v-3.89c0-.69-.23-1.06-.77-1.06-.67,0-.98.61-.98,1.45v3.5h-.8v-3.91ZM121.73,241.5v2.62h-.8v-6c0-.76,0-1.28-.01-1.63h.78c.01.1.03.47.03.75.2-.48.59-.84,1.33-.84,1.06,0,1.63.94,1.63,2.8,0,2.01-.7,2.97-1.79,2.97-.67,0-1-.32-1.16-.67ZM123.85,239.24c0-1.4-.32-2.13-1.06-2.13-.86,0-1.1.82-1.1,2.14s.13,2.21,1.05,2.21c.73,0,1.1-.85,1.1-2.22ZM125.06,236.5h.79v-1.49h.8v1.49h.97v.69h-.97v3.66c0,.38.08.62.5.62.13,0,.29,0,.39-.03v.62c-.19.07-.47.09-.66.09-.66,0-1.04-.27-1.04-1.15v-3.82h-.79v-.69ZM128.86,239.44c0,1.09.19,2.05,1.07,2.05s.99-.83,1.02-1h.79c-.01.14-.17,1.69-1.81,1.69s-1.87-1.51-1.87-2.89c0-1.77.6-2.88,1.92-2.88,1.47,0,1.81,1.21,1.81,2.6,0,.11,0,.29-.01.43h-2.91ZM130.97,238.8c0-.96-.2-1.71-1.02-1.71-1.02,0-1.07,1.33-1.09,1.71h2.1ZM130.97,238.8h0ZM132.61,240.57h.82v1.51h-.82v-1.51Z"/>
  </g>
</svg>