<?xml version="1.0" encoding="UTF-8"?>
<svg id="Calque_1" data-name="Calque 1" xmlns="http://www.w3.org/2000/svg" xmlns:xlink="http://www.w3.org/1999/xlink" viewBox="0 0 195.59 269.29">
  <defs>
    <style>
      .cls-1 {
        fill: #1d1d1b;
      }

      .cls-2 {
        fill: none;
      }

      .cls-3 {
        clip-path: url(#clippath-1);
      }

      .cls-4 {
        fill: #ffcd02;
      }

      .cls-5 {
        clip-path: url(#clippath);
      }
    </style>
    <clipPath id="clippath">
      <rect class="cls-2" width="195.59" height="269.29"/>
    </clipPath>
    <clipPath id="clippath-1">
      <rect class="cls-2" width="195.59" height="269.29"/>
    </clipPath>
  </defs>
  <g class="cls-5">
    <g class="cls-3">
      <path class="cls-1" d="M75.52,40.4l-3.47-13.99h2.34l1.37,6.17c.42,1.89.86,4.09,1.03,5.51h.04c.17-1.35.74-3.6,1.16-5.47l1.36-6.21h2.27l-3.55,13.99h-2.55ZM82.22,33.39c0-1.73,0-2.84-.02-3.6h2.05c.02.21.06.67.06,1.8.42-1.23,1.38-1.96,2.79-1.97v2.39c-1.77,0-2.73.72-2.73,2.71v5.69h-2.14v-7.01ZM94.9,38.23c0,.57.05,1.73.08,2.16h-1.95c-.05-.22-.1-.72-.1-1.06-.4.74-1.13,1.25-2.43,1.25-2.04,0-2.81-1.61-2.81-3.12,0-2.1,1.43-3.46,4.15-3.46.4,0,.69,0,.95.03v-1.24c0-.69-.11-1.52-1.29-1.52s-1.31.82-1.37,1.52h-2.04c.04-1.55.77-3.18,3.49-3.18,2.21,0,3.32,1.02,3.32,3.02v5.6ZM92.84,35.62c-.25-.04-.5-.05-.88-.05-1.56,0-2.16.73-2.16,1.71,0,.76.38,1.55,1.36,1.55,1.35,0,1.67-.99,1.67-2.79v-.42ZM99.34,29.79v10.61h-2.14v-10.61h2.14ZM99.36,25.72v2.34h-2.14v-2.34h2.14ZM101.04,40.81l4.02-14.49h1.64l-4,14.49h-1.66ZM108.55,26.41h6.94v1.91h-4.77v3.96h4.49v1.88h-4.49v6.23h-2.16v-13.99ZM123.3,38.23c0,.57.05,1.73.08,2.16h-1.95c-.05-.22-.1-.72-.1-1.06-.4.74-1.13,1.25-2.43,1.25-2.04,0-2.81-1.61-2.81-3.12,0-2.1,1.43-3.46,4.15-3.46.4,0,.69,0,.95.03v-1.24c0-.69-.11-1.52-1.29-1.52s-1.31.82-1.37,1.52h-2.04c.04-1.55.77-3.18,3.49-3.18,2.21,0,3.32,1.02,3.32,3.02v5.6ZM121.24,35.62c-.25-.04-.5-.05-.88-.05-1.56,0-2.16.73-2.16,1.71,0,.76.38,1.55,1.36,1.55,1.35,0,1.67-.99,1.67-2.79v-.42ZM132.69,40.4h-2.04c-.06-.32-.08-.78-.09-1.24-.44,1-1.24,1.43-2.42,1.43-1.42,0-2.65-.66-2.65-3.18v-7.62h2.15v7.13c0,1.15.27,1.82,1.27,1.82s1.62-.57,1.62-2.46v-6.49h2.15v7.57c0,1.47,0,2.51.02,3.05ZM136.21,29.79c.9,1.96,1.37,2.94,1.63,3.51h.02c.31-.72.91-1.92,1.65-3.51h2.27l-2.74,5.02,2.75,5.59h-2.38c-.87-1.98-1.37-3.08-1.63-3.68h-.02c-.25.56-.92,2.04-1.68,3.68h-2.28l2.71-5.3-2.65-5.32h2.35Z"/>
      <path class="cls-4" d="M178.64,247.8c0,2.5-2.03,4.54-4.54,4.54H21.71c-2.5,0-4.54-2.03-4.54-4.54V21.71c0-2.5,2.03-4.54,4.54-4.54h152.39c2.5,0,4.54,2.03,4.54,4.54v226.09ZM.11,269.4h195.59V.11H.11v269.29Z"/>
      <path class="cls-4" d="M24.21,31.15c-.44-.79-.69-1.63-.78-2.46-.09-.83,0-1.65.25-2.4l1.2,1.74,1.2,1.74s.01.02.02.03c0,0,.01.02.02.03l-.96.66-.96.66Z"/>
      <path class="cls-4" d="M30.12,21.81c.05-.03.09-.09.1-.15l.24-1.33c.02-.13-.06-.26-.2-.28-.13-.02-.26.06-.28.19l-.24,1.33c-.02.13.06.26.19.28.07.01.13,0,.18-.04"/>
      <path class="cls-4" d="M21.8,27.55c.05-.03.09-.09.1-.15.02-.13-.06-.26-.19-.28l-1.33-.24c-.13-.02-.26.06-.28.2-.02.13.06.26.19.28l1.33.24c.07.01.13,0,.18-.04"/>
      <path class="cls-4" d="M34.72,24.78l1.11-.77c.11-.08.14-.23.06-.34s-.23-.14-.34-.06l-1.11.77c-.11.08-.14.23-.06.34.08.11.23.14.34.06"/>
      <path class="cls-4" d="M21.84,33.67l1.11-.77c.11-.08.14-.23.06-.34s-.23-.14-.34-.06l-1.11.77c-.11.08-.14.23-.06.34.08.11.23.14.34.06"/>
      <path class="cls-4" d="M24.81,22.93c.11-.08.14-.23.06-.34l-.77-1.11c-.08-.11-.23-.14-.34-.06-.11.08-.14.23-.06.34l.77,1.11c.08.11.23.14.34.06"/>
      <path class="cls-4" d="M27.33,21.85c.08-.05.12-.15.1-.25l-.15-.69c-.03-.13-.16-.21-.29-.19-.13.03-.21.16-.19.29l.15.69c.03.13.16.21.29.18.03,0,.06-.02.09-.04"/>
      <path class="cls-4" d="M32.72,22.83s.05-.04.07-.07l.38-.59c.07-.11.04-.26-.07-.33-.11-.07-.26-.04-.33.07l-.38.59c-.07.11-.04.26.07.33.08.05.19.05.27,0"/>
      <path class="cls-4" d="M21.84,30.34c.08-.05.12-.15.1-.25-.03-.13-.16-.21-.29-.18l-.69.15c-.13.03-.21.16-.19.29.03.13.16.21.29.19l.69-.15s.06-.02.09-.04"/>
      <path class="cls-4" d="M22.83,24.96s.05-.04.07-.07c.07-.11.04-.26-.07-.33l-.59-.38c-.11-.07-.26-.04-.33.07-.07.11-.04.26.07.33l.59.38c.09.05.19.05.27,0"/>
      <path class="cls-4" d="M29.59,29.53c-.16.02-.27.17-.25.33l.2,1.47c.02.16.17.27.33.25.16-.02.27-.17.25-.33l-.2-1.47c-.02-.16-.17-.27-.33-.25"/>
      <path class="cls-4" d="M30.71,28.76c-.16.02-.27.17-.25.33l.2,1.47c.02.16.17.27.33.25.16-.02.27-.17.25-.33l-.2-1.47c-.02-.16-.17-.27-.33-.25"/>
      <path class="cls-4" d="M28.47,30.3c-.16.02-.27.17-.25.33l.2,1.47c.02.16.17.27.33.25.16-.02.27-.17.25-.33l-.2-1.47c-.02-.16-.17-.27-.33-.25"/>
      <path class="cls-4" d="M43.16,50.93c-1.15.78-2.71.5-3.51-.64-.81-1.15-.51-2.76.65-3.55,1.15-.78,2.71-.5,3.51.64.81,1.15.51,2.76-.65,3.55M30.98,30.81c-.16.02-.31-.09-.33-.25l-.2-1.47c-.02-.16.09-.31.25-.33.16-.02.31.09.33.25l.2,1.47c.02.16-.09.3-.25.33M29.86,31.58c-.16.02-.31-.09-.33-.25l-.2-1.47c-.02-.16.09-.31.25-.33.16-.02.31.09.33.25l.2,1.47c.02.16-.09.31-.25.33M28.75,32.35c-.16.02-.31-.09-.33-.25l-.2-1.47c-.02-.16.09-.31.25-.33.16-.02.31.09.33.25l.2,1.47c.02.16-.09.31-.25.33M44.54,46.82l-8.68-10.08c-1.69-2.22-2.45-5-2.13-7.77.13-1.18-.14-2.42-.86-3.48-1.1-1.63-2.96-2.43-4.78-2.25l2.18,3.16c.33.48.21,1.15-.27,1.48l-5.44,3.76c.77.96,1.83,1.57,2.96,1.81.85.18,1.59.7,2.06,1.43l9.27,15.88c1.07,1.61,3.25,2.03,4.84.93,1.59-1.1,1.97-3.29.84-4.87"/>
    </g>
    <path class="cls-1" d="M27.49,166.97v3.44h-.82v-7.47h1.95c1.25,0,1.91.71,1.91,1.93,0,1.12-.55,1.59-1,1.75.69.25.91.86.91,1.91v.3c0,.7.02,1.19.11,1.59h-.81c-.1-.34-.11-1.01-.11-1.61v-.25c0-1.06-.22-1.57-1.23-1.57h-.91ZM27.49,166.27h.96c.91,0,1.25-.51,1.25-1.38,0-.75-.35-1.26-1.17-1.26h-1.03v2.64ZM32.28,167.77c0,1.09.19,2.05,1.07,2.05s.99-.83,1.02-1h.79c-.01.14-.17,1.69-1.81,1.69s-1.87-1.51-1.87-2.89c0-1.77.6-2.88,1.92-2.88,1.47,0,1.81,1.21,1.81,2.6,0,.11,0,.29-.01.43h-2.91ZM34.4,167.14c0-.96-.2-1.71-1.02-1.71-1.02,0-1.07,1.33-1.09,1.71h2.1ZM34.92,162.45l-1.38,1.53h-.75l1.18-1.53h.95ZM34.4,167.14h0ZM37.03,169.84v2.62h-.8v-6c0-.76,0-1.28-.01-1.63h.78c.01.1.03.47.03.75.2-.48.59-.84,1.33-.84,1.06,0,1.63.94,1.63,2.8,0,2.01-.7,2.97-1.79,2.97-.67,0-1-.32-1.16-.67ZM39.16,167.58c0-1.4-.32-2.13-1.06-2.13-.86,0-1.1.82-1.1,2.14s.13,2.21,1.05,2.21c.73,0,1.1-.85,1.1-2.22ZM44.62,167.55c0,1.96-.66,2.96-1.92,2.96s-1.92-.96-1.92-2.94.76-2.83,1.95-2.83,1.89.94,1.89,2.82ZM41.6,167.58c0,1.52.38,2.24,1.1,2.24s1.09-.73,1.09-2.24c0-1.43-.35-2.13-1.09-2.13s-1.1.63-1.1,2.14ZM45.65,164.83h.78c.01.14.03.36.03.73.19-.44.57-.83,1.32-.83.81,0,1.43.46,1.43,1.7v3.97h-.81v-3.82c0-.68-.22-1.14-.86-1.14-.75,0-1.07.49-1.07,1.64v3.32h-.81v-3.85c0-1.14,0-1.47-.01-1.73ZM51.91,169.85c.61,0,.9-.37.9-.88,0-.58-.3-.84-1.03-1.13-1.15-.44-1.49-.86-1.49-1.63s.46-1.47,1.6-1.47c1.25,0,1.6.85,1.61,1.59h-.79c-.01-.27-.07-.93-.85-.93-.53,0-.77.33-.77.77s.19.67.97.96c1.08.42,1.56.81,1.56,1.77,0,1.02-.64,1.62-1.75,1.62s-1.72-.69-1.75-1.71h.8c.04.6.35,1.05.99,1.05ZM55.16,167.77c0,1.09.19,2.05,1.07,2.05s.99-.83,1.02-1h.79c-.01.14-.17,1.69-1.81,1.69s-1.87-1.51-1.87-2.89c0-1.77.6-2.88,1.92-2.88,1.47,0,1.81,1.21,1.81,2.6,0,.11,0,.29-.01.43h-2.91ZM57.28,167.14c0-.96-.2-1.71-1.02-1.71-1.02,0-1.07,1.33-1.09,1.71h2.1ZM57.28,167.14h0ZM61.26,166.5v-1.51h.78v1.51h-.78ZM61.26,168.9h.78v1.51h-.78v-1.51ZM65.59,162.94h3.44v.73h-2.62v2.49h2.46v.72h-2.46v3.52h-.82v-7.47ZM72.92,169.42c0,.35.03.81.04.99h-.74c-.03-.12-.06-.42-.06-.63-.21.45-.63.73-1.32.73-1.07,0-1.46-.84-1.46-1.61,0-1.02.69-1.79,2.15-1.79.26,0,.42,0,.58.02v-.74c0-.44-.08-.99-.84-.99-.82,0-.87.59-.9.96h-.78c.02-.8.4-1.62,1.71-1.62,1.08,0,1.6.53,1.6,1.55v3.13ZM72.15,167.77c-.14-.02-.29-.03-.55-.03-.99,0-1.4.48-1.4,1.1,0,.51.27.99.87.99.82,0,1.08-.58,1.08-1.75v-.3ZM77.71,168.88c0,.7,0,1.26.01,1.53h-.77c-.03-.16-.04-.38-.04-.74-.2.55-.67.84-1.33.84s-1.39-.27-1.39-1.67v-4.01h.81v3.82c0,.71.2,1.15.84,1.15s1.06-.38,1.06-1.58v-3.39h.81v4.05ZM79.29,164.83c.58,1.21.88,1.76,1.02,2.07h.01c.18-.38.56-1.11,1.05-2.07h.86l-1.47,2.66,1.48,2.92h-.9c-.55-1.15-.89-1.83-1.05-2.17h-.01c-.14.3-.55,1.13-1.07,2.17h-.86l1.47-2.8-1.43-2.78h.89Z"/>
    <path class="cls-1" d="M26.68,181.8h.82v6.75h2.67l-.12.72h-3.37v-7.47ZM31.42,186.64c0,1.09.19,2.05,1.07,2.05s.99-.83,1.02-1h.79c-.01.14-.17,1.69-1.81,1.69s-1.87-1.51-1.87-2.89c0-1.77.6-2.88,1.92-2.88,1.47,0,1.81,1.21,1.81,2.6,0,.11,0,.29-.01.43h-2.91ZM33.54,186c0-.96-.2-1.71-1.02-1.71-1.02,0-1.07,1.33-1.09,1.71h2.1ZM33.54,186h0ZM39.71,189.27h-.99l-1.85-7.47h.88l.83,3.55c.24,1.04.53,2.35.63,3.06h.02c.1-.65.45-2.01.71-3.06l.85-3.55h.85l-1.93,7.47h0ZM42.44,181.8h1.93c1.17,0,1.98.74,1.98,2.08s-.73,2.16-2.1,2.16h-.99v3.23h-.82v-7.47ZM43.26,185.35h.9c.9,0,1.36-.48,1.36-1.48,0-.83-.43-1.38-1.26-1.38h-.99v2.85ZM47.35,181.8h1.01c2.07,5.17,2.36,5.88,2.45,6.2h.01c-.05-1-.07-2.13-.07-3.34v-2.86h.77v7.47h-.97c-2.15-5.43-2.41-6.12-2.49-6.42h-.01c.06.93.06,2.16.06,3.5v2.91h-.77v-7.47ZM55.56,186.64c0,1.09.19,2.05,1.07,2.05s.99-.83,1.02-1h.79c-.01.14-.17,1.69-1.81,1.69s-1.87-1.51-1.87-2.89c0-1.77.6-2.88,1.92-2.88,1.47,0,1.81,1.21,1.81,2.6,0,.11,0,.29-.01.43h-2.91ZM57.67,186c0-.96-.2-1.71-1.02-1.71-1.02,0-1.07,1.33-1.09,1.71h2.1ZM57.67,186h0ZM60.94,188.71c.61,0,.9-.37.9-.88,0-.58-.3-.84-1.03-1.13-1.15-.44-1.49-.86-1.49-1.63s.46-1.47,1.6-1.47c1.25,0,1.6.85,1.61,1.59h-.79c-.01-.27-.07-.93-.85-.93-.53,0-.77.33-.77.77s.19.67.97.96c1.08.42,1.56.81,1.56,1.77,0,1.02-.64,1.62-1.75,1.62s-1.72-.69-1.75-1.71h.8c.04.6.35,1.05.99,1.05ZM63.04,183.7h.79v-1.49h.8v1.49h.97v.69h-.97v3.66c0,.38.08.62.5.62.13,0,.29,0,.39-.03v.62c-.19.07-.47.09-.66.09-.66,0-1.04-.27-1.04-1.15v-3.82h-.79v-.69ZM71.97,187.75c0,.7,0,1.26.01,1.53h-.77c-.03-.16-.04-.38-.04-.74-.2.55-.67.84-1.33.84s-1.39-.27-1.39-1.67v-4.01h.81v3.82c0,.71.2,1.15.84,1.15s1.06-.38,1.06-1.58v-3.39h.81v4.05ZM73.22,183.7h.78c.01.14.03.36.03.73.19-.44.57-.83,1.32-.83.81,0,1.43.46,1.43,1.7v3.97h-.81v-3.82c0-.68-.22-1.14-.86-1.14-.75,0-1.07.49-1.07,1.64v3.32h-.81v-3.85c0-1.14,0-1.47-.01-1.73ZM78.63,186.64c0,1.09.19,2.05,1.07,2.05s.99-.83,1.02-1h.79c-.01.14-.17,1.69-1.81,1.69s-1.87-1.51-1.87-2.89c0-1.77.6-2.88,1.92-2.88,1.47,0,1.81,1.21,1.81,2.6,0,.11,0,.29-.01.43h-2.91ZM80.75,186c0-.96-.2-1.71-1.02-1.71-1.02,0-1.07,1.33-1.09,1.71h2.1ZM80.75,186h0ZM87.92,188.29c0,.35.03.81.04.99h-.74c-.03-.12-.06-.42-.06-.63-.21.45-.63.73-1.32.73-1.07,0-1.46-.84-1.46-1.61,0-1.02.69-1.79,2.15-1.79.26,0,.42,0,.58.02v-.74c0-.44-.08-.99-.84-.99-.82,0-.87.59-.9.96h-.78c.02-.8.4-1.62,1.71-1.62,1.08,0,1.6.53,1.6,1.55v3.13ZM87.15,186.63c-.14-.02-.29-.03-.55-.03-.99,0-1.4.48-1.4,1.1,0,.51.27.99.87.99.82,0,1.08-.58,1.08-1.75v-.3ZM90.06,188.7v2.62h-.8v-6c0-.76,0-1.28-.01-1.63h.78c.01.1.03.47.03.75.2-.48.59-.84,1.33-.84,1.06,0,1.63.94,1.63,2.8,0,2.01-.7,2.97-1.79,2.97-.67,0-1-.32-1.16-.67ZM92.19,186.44c0-1.4-.32-2.13-1.06-2.13-.86,0-1.1.82-1.1,2.14s.13,2.21,1.05,2.21c.73,0,1.1-.85,1.1-2.22ZM94.87,188.7v2.62h-.8v-6c0-.76,0-1.28-.01-1.63h.78c.01.1.03.47.03.75.2-.48.59-.84,1.33-.84,1.06,0,1.63.94,1.63,2.8,0,2.01-.7,2.97-1.79,2.97-.67,0-1-.32-1.16-.67ZM96.99,186.44c0-1.4-.32-2.13-1.06-2.13-.86,0-1.1.82-1.1,2.14s.13,2.21,1.05,2.21c.73,0,1.1-.85,1.1-2.22ZM98.87,189.27v-7.83h.8v7.83h-.8ZM101,183.7h.8v5.58h-.8v-5.58ZM101.01,181.44h.8v1.15h-.8v-1.15ZM106.49,187.57c-.02.3-.14,1.8-1.77,1.8-1.46,0-1.85-1.29-1.85-2.91s.51-2.87,1.93-2.87c1.62,0,1.7,1.5,1.7,1.76h-.82c-.01-.23-.09-1.07-.88-1.07s-1.1.88-1.1,2.17c0,1.39.3,2.22,1.06,2.22.81,0,.9-.81.94-1.11h.8ZM110.7,188.29c0,.35.03.81.04.99h-.74c-.03-.12-.06-.42-.06-.63-.21.45-.63.73-1.32.73-1.07,0-1.46-.84-1.46-1.61,0-1.02.69-1.79,2.15-1.79.26,0,.42,0,.58.02v-.74c0-.44-.08-.99-.84-.99-.82,0-.87.59-.9.96h-.78c.02-.8.4-1.62,1.71-1.62,1.08,0,1.6.53,1.6,1.55v3.13ZM109.93,186.63c-.14-.02-.29-.03-.55-.03-.99,0-1.4.48-1.4,1.1,0,.51.27.99.87.99.82,0,1.08-.58,1.08-1.75v-.3ZM111.34,183.7h.79v-1.49h.8v1.49h.97v.69h-.97v3.66c0,.38.08.62.5.62.13,0,.29,0,.39-.03v.62c-.19.07-.47.09-.66.09-.66,0-1.04-.27-1.04-1.15v-3.82h-.79v-.69ZM114.7,183.7h.8v5.58h-.8v-5.58ZM114.7,181.44h.8v1.15h-.8v-1.15ZM120.39,186.42c0,1.96-.66,2.96-1.92,2.96s-1.92-.96-1.92-2.94.76-2.83,1.95-2.83,1.89.94,1.89,2.82ZM117.38,186.44c0,1.52.38,2.24,1.1,2.24s1.09-.73,1.09-2.24c0-1.43-.35-2.13-1.09-2.13s-1.1.63-1.1,2.14ZM121.43,183.7h.78c.01.14.03.36.03.73.19-.44.57-.83,1.32-.83.81,0,1.43.46,1.43,1.7v3.97h-.81v-3.82c0-.68-.22-1.14-.86-1.14-.75,0-1.07.49-1.07,1.64v3.32h-.81v-3.85c0-1.14,0-1.47-.01-1.73ZM131.06,188.57c-.21.48-.59.8-1.31.8-1.04,0-1.66-.86-1.66-2.89,0-1.85.7-2.88,1.8-2.88.74,0,1.05.35,1.17.7,0-.31.02-.5.03-.6h.78c-.01.4-.01.86-.01,1.65v5.98h-.79v-2.76ZM128.91,186.49c0,1.33.31,2.18,1.06,2.18.9,0,1.09-.78,1.09-2.21s-.12-2.15-1.03-2.15c-.7,0-1.11.76-1.11,2.18ZM136.68,187.75c0,.7,0,1.26.01,1.53h-.77c-.03-.16-.04-.38-.04-.74-.2.55-.67.84-1.33.84s-1.39-.27-1.39-1.67v-4.01h.81v3.82c0,.71.2,1.15.84,1.15s1.06-.38,1.06-1.58v-3.39h.81v4.05ZM137.99,183.7h.8v5.58h-.8v-5.58ZM138,181.44h.8v1.15h-.8v-1.15ZM143.03,188.7v2.62h-.8v-6c0-.76,0-1.28-.01-1.63h.78c.01.1.03.47.03.75.2-.48.59-.84,1.33-.84,1.06,0,1.63.94,1.63,2.8,0,2.01-.7,2.97-1.79,2.97-.67,0-1-.32-1.16-.67ZM145.16,186.44c0-1.4-.32-2.13-1.06-2.13-.86,0-1.1.82-1.1,2.14s.13,2.21,1.05,2.21c.73,0,1.1-.85,1.1-2.22ZM147.59,186.64c0,1.09.19,2.05,1.07,2.05s.99-.83,1.02-1h.79c-.01.14-.17,1.69-1.81,1.69s-1.87-1.51-1.87-2.89c0-1.77.6-2.88,1.92-2.88,1.47,0,1.81,1.21,1.81,2.6,0,.11,0,.29-.01.43h-2.91ZM149.71,186c0-.96-.2-1.71-1.02-1.71-1.02,0-1.07,1.33-1.09,1.71h2.1ZM149.71,186h0ZM151.52,183.7h.77c.01.14.03.4.03,1,.24-.67.78-1.07,1.47-1.08v.89c-.96.03-1.46.63-1.46,1.66v3.12h-.8v-3.68c0-.89,0-1.5-.01-1.9ZM154.52,185.37c0-.99,0-1.41-.01-1.67h.77c.02.16.03.46.03.71.22-.49.61-.81,1.25-.81.58,0,.99.25,1.16.83.2-.45.62-.83,1.35-.83s1.35.34,1.35,1.62v4.05h-.8v-3.91c0-.56-.16-1.05-.79-1.05-.71,0-.95.63-.95,1.38v3.58h-.8v-3.89c0-.69-.23-1.06-.77-1.06-.67,0-.98.61-.98,1.45v3.5h-.8v-3.91ZM162.26,186.64c0,1.09.19,2.05,1.07,2.05s.99-.83,1.02-1h.79c-.01.14-.17,1.69-1.81,1.69s-1.87-1.51-1.87-2.89c0-1.77.6-2.88,1.92-2.88,1.47,0,1.81,1.21,1.81,2.6,0,.11,0,.29-.01.43h-2.91ZM164.38,186c0-.96-.2-1.71-1.02-1.71-1.02,0-1.07,1.33-1.09,1.71h2.1ZM164.38,186h0ZM165.64,183.7h.79v-1.49h.8v1.49h.97v.69h-.97v3.66c0,.38.08.62.5.62.13,0,.29,0,.39-.03v.62c-.19.07-.47.09-.66.09-.66,0-1.04-.27-1.04-1.15v-3.82h-.79v-.69Z"/>
    <path class="cls-1" d="M30.08,194.64v6.4c0,.54,0,1.1.01,1.43h-.78c-.01-.14-.03-.51-.03-.75-.17.48-.53.85-1.31.85-1.16,0-1.65-.99-1.65-2.95,0-1.78.66-2.82,1.83-2.82.72,0,1,.31,1.13.58v-2.74h.8ZM27.15,199.63c0,1.61.37,2.22,1.05,2.22.87,0,1.1-.74,1.1-2.25,0-1.63-.23-2.09-1.03-2.09-.66,0-1.11.58-1.11,2.12ZM30.98,197.15c.2-.76.38-1.68.38-2.54h.78c-.01.94-.3,2.07-.51,2.54h-.65ZM35.91,201.49c0,.35.03.81.04.99h-.74c-.03-.12-.06-.42-.06-.63-.21.45-.63.73-1.32.73-1.07,0-1.46-.84-1.46-1.61,0-1.02.69-1.79,2.15-1.79.26,0,.42,0,.58.02v-.74c0-.44-.08-.99-.84-.99-.82,0-.87.59-.9.96h-.78c.02-.8.4-1.62,1.71-1.62,1.08,0,1.6.53,1.6,1.55v3.13ZM35.14,199.83c-.14-.02-.29-.03-.55-.03-.99,0-1.4.48-1.4,1.1,0,.51.27.99.87.99.82,0,1.08-.58,1.08-1.75v-.3ZM40.6,200.77c-.02.3-.14,1.8-1.77,1.8-1.46,0-1.85-1.29-1.85-2.91s.51-2.87,1.93-2.87c1.62,0,1.7,1.5,1.7,1.76h-.82c-.01-.23-.09-1.07-.88-1.07s-1.1.88-1.1,2.17c0,1.39.3,2.22,1.06,2.22.81,0,.9-.81.94-1.11h.8ZM44.96,200.77c-.02.3-.14,1.8-1.77,1.8-1.46,0-1.85-1.29-1.85-2.91s.51-2.87,1.93-2.87c1.62,0,1.7,1.5,1.7,1.76h-.82c-.01-.23-.09-1.07-.88-1.07s-1.1.88-1.1,2.17c0,1.39.3,2.22,1.06,2.22.81,0,.9-.81.94-1.11h.8ZM46.51,199.84c0,1.09.19,2.05,1.07,2.05s.99-.83,1.02-1h.79c-.01.14-.17,1.69-1.81,1.69s-1.87-1.51-1.87-2.89c0-1.77.6-2.88,1.92-2.88,1.47,0,1.81,1.21,1.81,2.6,0,.11,0,.29-.01.43h-2.91ZM48.63,199.2c0-.96-.2-1.71-1.02-1.71-1.02,0-1.07,1.33-1.09,1.71h2.1ZM49.15,194.52l-1.38,1.53h-.75l1.18-1.53h.95ZM48.63,199.2h0ZM54.03,194.64v6.4c0,.54,0,1.1.01,1.43h-.78c-.01-.14-.03-.51-.03-.75-.17.48-.53.85-1.31.85-1.16,0-1.65-.99-1.65-2.95,0-1.78.66-2.82,1.83-2.82.72,0,1,.31,1.13.58v-2.74h.8ZM51.09,199.63c0,1.61.37,2.22,1.05,2.22.87,0,1.1-.74,1.1-2.25,0-1.63-.23-2.09-1.03-2.09-.66,0-1.11.58-1.11,2.12ZM55.87,199.84c0,1.09.19,2.05,1.07,2.05s.99-.83,1.02-1h.79c-.01.14-.17,1.69-1.81,1.69s-1.87-1.51-1.87-2.89c0-1.77.6-2.88,1.92-2.88,1.47,0,1.81,1.21,1.81,2.6,0,.11,0,.29-.01.43h-2.91ZM57.99,199.2c0-.96-.2-1.71-1.02-1.71-1.02,0-1.07,1.33-1.09,1.71h2.1ZM57.99,199.2h0ZM59.81,196.9h.77c.01.14.03.4.03,1,.24-.67.78-1.07,1.47-1.08v.89c-.96.03-1.46.63-1.46,1.66v3.12h-.8v-3.68c0-.89,0-1.5-.01-1.9ZM68.44,194.64v6.4c0,.54,0,1.1.01,1.43h-.78c-.01-.14-.03-.51-.03-.75-.17.48-.53.85-1.31.85-1.16,0-1.65-.99-1.65-2.95,0-1.78.66-2.82,1.83-2.82.72,0,1,.31,1.13.58v-2.74h.8ZM65.5,199.63c0,1.61.37,2.22,1.05,2.22.87,0,1.1-.74,1.1-2.25,0-1.63-.23-2.09-1.03-2.09-.66,0-1.11.58-1.11,2.12ZM70.28,199.84c0,1.09.19,2.05,1.07,2.05s.99-.83,1.02-1h.79c-.01.14-.17,1.69-1.81,1.69s-1.87-1.51-1.87-2.89c0-1.77.6-2.88,1.92-2.88,1.47,0,1.81,1.21,1.81,2.6,0,.11,0,.29-.01.43h-2.91ZM72.4,199.2c0-.96-.2-1.71-1.02-1.71-1.02,0-1.07,1.33-1.09,1.71h2.1ZM72.4,199.2h0ZM75.03,201.9v2.62h-.8v-6c0-.76,0-1.28-.01-1.63h.78c.01.1.03.47.03.75.2-.48.59-.84,1.33-.84,1.06,0,1.63.94,1.63,2.8,0,2.01-.7,2.97-1.79,2.97-.67,0-1-.32-1.16-.67ZM77.16,199.64c0-1.4-.32-2.13-1.06-2.13-.86,0-1.1.82-1.1,2.14s.13,2.21,1.05,2.21c.73,0,1.1-.85,1.1-2.22ZM82.54,200.95c0,.7,0,1.26.01,1.53h-.77c-.03-.16-.04-.38-.04-.74-.2.55-.67.84-1.33.84s-1.39-.27-1.39-1.67v-4.01h.81v3.82c0,.71.2,1.15.84,1.15s1.06-.38,1.06-1.58v-3.39h.81v4.05ZM83.85,196.9h.8v5.58h-.8v-5.58ZM83.86,194.64h.8v1.15h-.8v-1.15ZM87.35,201.91c.61,0,.9-.37.9-.88,0-.58-.3-.84-1.03-1.13-1.15-.44-1.49-.86-1.49-1.63s.46-1.47,1.6-1.47c1.25,0,1.6.85,1.61,1.59h-.79c-.01-.27-.07-.93-.85-.93-.53,0-.77.33-.77.77s.19.67.97.96c1.08.42,1.56.81,1.56,1.77,0,1.02-.64,1.62-1.75,1.62s-1.72-.69-1.75-1.71h.8c.04.6.35,1.05.99,1.05ZM95.67,200.95c0,.7,0,1.26.01,1.53h-.77c-.03-.16-.04-.38-.04-.74-.2.55-.67.84-1.33.84s-1.39-.27-1.39-1.67v-4.01h.81v3.82c0,.71.2,1.15.84,1.15s1.06-.38,1.06-1.58v-3.39h.81v4.05ZM96.91,196.9h.78c.01.14.03.36.03.73.19-.44.57-.83,1.32-.83.81,0,1.43.46,1.43,1.7v3.97h-.81v-3.82c0-.68-.22-1.14-.86-1.14-.75,0-1.07.49-1.07,1.64v3.32h-.81v-3.85c0-1.14,0-1.47-.01-1.73ZM107.4,199.62c0,1.96-.66,2.96-1.92,2.96s-1.92-.96-1.92-2.94.76-2.83,1.95-2.83,1.89.94,1.89,2.82ZM104.39,199.64c0,1.52.38,2.24,1.1,2.24s1.09-.73,1.09-2.24c0-1.43-.35-2.13-1.09-2.13s-1.1.63-1.1,2.14ZM108.44,196.9h.77c.01.14.03.4.03,1,.24-.67.78-1.07,1.47-1.08v.89c-.96.03-1.46.63-1.46,1.66v3.12h-.8v-3.68c0-.89,0-1.5-.01-1.9ZM114.9,194.64v6.4c0,.54,0,1.1.01,1.43h-.78c-.01-.14-.03-.51-.03-.75-.17.48-.53.85-1.31.85-1.16,0-1.65-.99-1.65-2.95,0-1.78.66-2.82,1.83-2.82.72,0,1,.31,1.13.58v-2.74h.8ZM111.97,199.63c0,1.61.37,2.22,1.05,2.22.87,0,1.1-.74,1.1-2.25,0-1.63-.23-2.09-1.03-2.09-.66,0-1.11.58-1.11,2.12ZM116.21,196.9h.8v5.58h-.8v-5.58ZM116.22,194.64h.8v1.15h-.8v-1.15ZM118.34,196.9h.78c.01.14.03.36.03.73.19-.44.57-.83,1.32-.83.81,0,1.43.46,1.43,1.7v3.97h-.81v-3.82c0-.68-.22-1.14-.86-1.14-.75,0-1.07.49-1.07,1.64v3.32h-.81v-3.85c0-1.14,0-1.47-.01-1.73ZM126.37,201.49c0,.35.03.81.04.99h-.74c-.03-.12-.06-.42-.06-.63-.21.45-.63.73-1.32.73-1.07,0-1.46-.84-1.46-1.61,0-1.02.69-1.79,2.15-1.79.26,0,.42,0,.58.02v-.74c0-.44-.08-.99-.84-.99-.82,0-.87.59-.9.96h-.78c.02-.8.4-1.62,1.71-1.62,1.08,0,1.6.53,1.6,1.55v3.13ZM125.6,199.83c-.14-.02-.29-.03-.55-.03-.99,0-1.4.48-1.4,1.1,0,.51.27.99.87.99.82,0,1.08-.58,1.08-1.75v-.3ZM127.02,196.9h.79v-1.49h.8v1.49h.97v.69h-.97v3.66c0,.38.08.62.5.62.13,0,.29,0,.39-.03v.62c-.19.07-.47.09-.66.09-.66,0-1.04-.27-1.04-1.15v-3.82h-.79v-.69ZM130.82,199.84c0,1.09.19,2.05,1.07,2.05s.99-.83,1.02-1h.79c-.01.14-.17,1.69-1.81,1.69s-1.87-1.51-1.87-2.89c0-1.77.6-2.88,1.92-2.88,1.47,0,1.81,1.21,1.81,2.6,0,.11,0,.29-.01.43h-2.91ZM132.93,199.2c0-.96-.2-1.71-1.02-1.71-1.02,0-1.07,1.33-1.09,1.71h2.1ZM132.93,199.2h0ZM138.27,200.95c0,.7,0,1.26.01,1.53h-.77c-.03-.16-.04-.38-.04-.74-.2.55-.67.84-1.33.84s-1.39-.27-1.39-1.67v-4.01h.81v3.82c0,.71.2,1.15.84,1.15s1.06-.38,1.06-1.58v-3.39h.81v4.05ZM139.51,196.9h.77c.01.14.03.4.03,1,.24-.67.78-1.07,1.47-1.08v.89c-.96.03-1.46.63-1.46,1.66v3.12h-.8v-3.68c0-.89,0-1.5-.01-1.9Z"/>
    <path class="cls-1" d="M27.4,215.1v2.62h-.8v-6c0-.76,0-1.28-.01-1.63h.78c.01.1.03.47.03.75.2-.48.59-.84,1.33-.84,1.06,0,1.63.94,1.63,2.8,0,2.01-.7,2.97-1.79,2.97-.67,0-1-.32-1.16-.67ZM29.53,212.84c0-1.4-.32-2.13-1.06-2.13-.86,0-1.1.82-1.1,2.14s.13,2.21,1.05,2.21c.73,0,1.1-.85,1.1-2.22ZM31.96,213.04c0,1.09.19,2.05,1.07,2.05s.99-.83,1.02-1h.79c-.01.14-.17,1.69-1.81,1.69s-1.87-1.51-1.87-2.89c0-1.77.6-2.88,1.92-2.88,1.47,0,1.81,1.21,1.81,2.6,0,.11,0,.29-.01.43h-2.91ZM34.08,212.4c0-.96-.2-1.71-1.02-1.71-1.02,0-1.07,1.33-1.09,1.71h2.1ZM34.08,212.4h0ZM35.89,210.1h.77c.01.14.03.4.03,1,.24-.67.78-1.07,1.47-1.08v.89c-.96.03-1.46.63-1.46,1.66v3.12h-.8v-3.68c0-.89,0-1.5-.01-1.9ZM40.37,215.11c.61,0,.9-.37.9-.88,0-.58-.3-.84-1.03-1.13-1.15-.44-1.49-.86-1.49-1.63s.46-1.47,1.6-1.47c1.25,0,1.6.85,1.61,1.59h-.79c-.01-.27-.07-.93-.85-.93-.53,0-.77.33-.77.77s.19.67.97.96c1.08.42,1.56.81,1.56,1.77,0,1.02-.64,1.62-1.75,1.62s-1.72-.69-1.75-1.71h.8c.04.6.35,1.05.99,1.05ZM46.65,212.82c0,1.96-.66,2.96-1.92,2.96s-1.92-.96-1.92-2.94.76-2.83,1.95-2.83,1.89.94,1.89,2.82ZM43.64,212.84c0,1.52.38,2.24,1.1,2.24s1.09-.73,1.09-2.24c0-1.43-.35-2.13-1.09-2.13s-1.1.63-1.1,2.14ZM47.68,210.1h.78c.01.14.03.36.03.73.19-.44.57-.83,1.32-.83.81,0,1.43.46,1.43,1.7v3.97h-.81v-3.82c0-.68-.22-1.14-.86-1.14-.75,0-1.07.49-1.07,1.64v3.32h-.81v-3.85c0-1.14,0-1.47-.01-1.73ZM52.56,210.1h.78c.01.14.03.36.03.73.19-.44.57-.83,1.32-.83.81,0,1.43.46,1.43,1.7v3.97h-.81v-3.82c0-.68-.22-1.14-.86-1.14-.75,0-1.07.49-1.07,1.64v3.32h-.81v-3.85c0-1.14,0-1.47-.01-1.73ZM57.98,213.04c0,1.09.19,2.05,1.07,2.05s.99-.83,1.02-1h.79c-.01.14-.17,1.69-1.81,1.69s-1.87-1.51-1.87-2.89c0-1.77.6-2.88,1.92-2.88,1.47,0,1.81,1.21,1.81,2.6,0,.11,0,.29-.01.43h-2.91ZM60.09,212.4c0-.96-.2-1.71-1.02-1.71-1.02,0-1.07,1.33-1.09,1.71h2.1ZM60.09,212.4h0ZM61.92,215.67v-7.83h.8v7.83h-.8ZM69.39,214.69c0,.35.03.81.04.99h-.74c-.03-.12-.06-.42-.06-.63-.21.45-.63.73-1.32.73-1.07,0-1.46-.84-1.46-1.61,0-1.02.69-1.79,2.15-1.79.26,0,.42,0,.58.02v-.74c0-.44-.08-.99-.84-.99-.82,0-.87.59-.9.96h-.78c.02-.8.4-1.62,1.71-1.62,1.08,0,1.6.53,1.6,1.55v3.13ZM67.06,207.73l1.18,1.53h-.76l-1.39-1.53h.97ZM68.62,213.03c-.14-.02-.29-.03-.55-.03-.99,0-1.4.48-1.4,1.1,0,.51.27.99.87.99.82,0,1.08-.58,1.08-1.75v-.3ZM72.14,210.1h.79v-1.49h.8v1.49h.97v.69h-.97v3.66c0,.38.08.62.5.62.13,0,.29,0,.39-.03v.62c-.19.07-.47.09-.66.09-.66,0-1.04-.27-1.04-1.15v-3.82h-.79v-.69ZM78.97,212.82c0,1.96-.66,2.96-1.92,2.96s-1.92-.96-1.92-2.94.76-2.83,1.95-2.83,1.89.94,1.89,2.82ZM75.95,212.84c0,1.52.38,2.24,1.1,2.24s1.09-.73,1.09-2.24c0-1.43-.35-2.13-1.09-2.13s-1.1.63-1.1,2.14ZM83.52,214.15c0,.7,0,1.26.01,1.53h-.77c-.03-.16-.04-.38-.04-.74-.2.55-.67.84-1.33.84s-1.39-.27-1.39-1.67v-4.01h.81v3.82c0,.71.2,1.15.84,1.15s1.06-.38,1.06-1.58v-3.39h.81v4.05ZM84.26,210.1h.79v-1.49h.8v1.49h.97v.69h-.97v3.66c0,.38.08.62.5.62.13,0,.29,0,.39-.03v.62c-.19.07-.47.09-.66.09-.66,0-1.04-.27-1.04-1.15v-3.82h-.79v-.69ZM88.06,213.04c0,1.09.19,2.05,1.07,2.05s.99-.83,1.02-1h.79c-.01.14-.17,1.69-1.81,1.69s-1.87-1.51-1.87-2.89c0-1.77.6-2.88,1.92-2.88,1.47,0,1.81,1.21,1.81,2.6,0,.11,0,.29-.01.43h-2.91ZM90.18,212.4c0-.96-.2-1.71-1.02-1.71-1.02,0-1.07,1.33-1.09,1.71h2.1ZM90.18,212.4h0ZM93.45,215.11c.61,0,.9-.37.9-.88,0-.58-.3-.84-1.03-1.13-1.15-.44-1.49-.86-1.49-1.63s.46-1.47,1.6-1.47c1.25,0,1.6.85,1.61,1.59h-.79c-.01-.27-.07-.93-.85-.93-.53,0-.77.33-.77.77s.19.67.97.96c1.08.42,1.56.81,1.56,1.77,0,1.02-.64,1.62-1.75,1.62s-1.72-.69-1.75-1.71h.8c.04.6.35,1.05.99,1.05ZM98.25,215.67v-7.83h.8v7.83h-.8ZM100.92,213.04c0,1.09.19,2.05,1.07,2.05s.99-.83,1.02-1h.79c-.01.14-.17,1.69-1.81,1.69s-1.87-1.51-1.87-2.89c0-1.77.6-2.88,1.92-2.88,1.47,0,1.81,1.21,1.81,2.6,0,.11,0,.29-.01.43h-2.91ZM103.04,212.4c0-.96-.2-1.71-1.02-1.71-1.02,0-1.07,1.33-1.09,1.71h2.1ZM103.04,212.4h0ZM106.31,215.11c.61,0,.9-.37.9-.88,0-.58-.3-.84-1.03-1.13-1.15-.44-1.49-.86-1.49-1.63s.46-1.47,1.6-1.47c1.25,0,1.6.85,1.61,1.59h-.79c-.01-.27-.07-.93-.85-.93-.53,0-.77.33-.77.77s.19.67.97.96c1.08.42,1.56.81,1.56,1.77,0,1.02-.64,1.62-1.75,1.62s-1.72-.69-1.75-1.71h.8c.04.6.35,1.05.99,1.05ZM111.1,210.1h.77c.01.14.03.4.03,1,.24-.67.78-1.07,1.47-1.08v.89c-.96.03-1.46.63-1.46,1.66v3.12h-.8v-3.68c0-.89,0-1.5-.01-1.9ZM114.61,213.04c0,1.09.19,2.05,1.07,2.05s.99-.83,1.02-1h.79c-.01.14-.17,1.69-1.81,1.69s-1.87-1.51-1.87-2.89c0-1.77.6-2.88,1.92-2.88,1.47,0,1.81,1.21,1.81,2.6,0,.11,0,.29-.01.43h-2.91ZM116.73,212.4c0-.96-.2-1.71-1.02-1.71-1.02,0-1.07,1.33-1.09,1.71h2.1ZM116.73,212.4h0ZM120,215.11c.61,0,.9-.37.9-.88,0-.58-.3-.84-1.03-1.13-1.15-.44-1.49-.86-1.49-1.63s.46-1.47,1.6-1.47c1.25,0,1.6.85,1.61,1.59h-.79c-.01-.27-.07-.93-.85-.93-.53,0-.77.33-.77.77s.19.67.97.96c1.08.42,1.56.81,1.56,1.77,0,1.02-.64,1.62-1.75,1.62s-1.72-.69-1.75-1.71h.8c.04.6.35,1.05.99,1.05ZM124.15,215.11c.61,0,.9-.37.9-.88,0-.58-.3-.84-1.03-1.13-1.15-.44-1.49-.86-1.49-1.63s.46-1.47,1.6-1.47c1.25,0,1.6.85,1.61,1.59h-.79c-.01-.27-.07-.93-.85-.93-.53,0-.77.33-.77.77s.19.67.97.96c1.08.42,1.56.81,1.56,1.77,0,1.02-.64,1.62-1.75,1.62s-1.72-.69-1.75-1.71h.8c.04.6.35,1.05.99,1.05ZM130.43,212.82c0,1.96-.66,2.96-1.92,2.96s-1.92-.96-1.92-2.94.76-2.83,1.95-2.83,1.89.94,1.89,2.82ZM127.41,212.84c0,1.52.38,2.24,1.1,2.24s1.09-.73,1.09-2.24c0-1.43-.35-2.13-1.09-2.13s-1.1.63-1.1,2.14ZM134.98,214.15c0,.7,0,1.26.01,1.53h-.77c-.03-.16-.04-.38-.04-.74-.2.55-.67.84-1.33.84s-1.39-.27-1.39-1.67v-4.01h.81v3.82c0,.71.2,1.15.84,1.15s1.06-.38,1.06-1.58v-3.39h.81v4.05ZM136.22,210.1h.77c.01.14.03.4.03,1,.24-.67.78-1.07,1.47-1.08v.89c-.96.03-1.46.63-1.46,1.66v3.12h-.8v-3.68c0-.89,0-1.5-.01-1.9ZM142.56,213.97c-.02.3-.14,1.8-1.77,1.8-1.46,0-1.85-1.29-1.85-2.91s.51-2.87,1.93-2.87c1.62,0,1.7,1.5,1.7,1.76h-.82c-.01-.23-.09-1.07-.88-1.07s-1.1.88-1.1,2.17c0,1.39.3,2.22,1.06,2.22.81,0,.9-.81.94-1.11h.8ZM144.11,213.04c0,1.09.19,2.05,1.07,2.05s.99-.83,1.02-1h.79c-.01.14-.17,1.69-1.81,1.69s-1.87-1.51-1.87-2.89c0-1.77.6-2.88,1.92-2.88,1.47,0,1.81,1.21,1.81,2.6,0,.11,0,.29-.01.43h-2.91ZM146.22,212.4c0-.96-.2-1.71-1.02-1.71-1.02,0-1.07,1.33-1.09,1.71h2.1ZM146.22,212.4h0ZM149.49,215.11c.61,0,.9-.37.9-.88,0-.58-.3-.84-1.03-1.13-1.15-.44-1.49-.86-1.49-1.63s.46-1.47,1.6-1.47c1.25,0,1.6.85,1.61,1.59h-.79c-.01-.27-.07-.93-.85-.93-.53,0-.77.33-.77.77s.19.67.97.96c1.08.42,1.56.81,1.56,1.77,0,1.02-.64,1.62-1.75,1.62s-1.72-.69-1.75-1.71h.8c.04.6.35,1.05.99,1.05Z"/>
    <path class="cls-1" d="M27.13,226.24c0,1.09.19,2.05,1.07,2.05s.99-.83,1.02-1h.79c-.01.14-.17,1.69-1.81,1.69s-1.87-1.51-1.87-2.89c0-1.77.6-2.88,1.92-2.88,1.47,0,1.81,1.21,1.81,2.6,0,.11,0,.29-.01.43h-2.91ZM29.25,225.6c0-.96-.2-1.71-1.02-1.71-1.02,0-1.07,1.33-1.09,1.71h2.1ZM29.25,225.6h0ZM31.06,223.3h.78c.01.14.03.36.03.73.19-.44.57-.83,1.32-.83.81,0,1.43.46,1.43,1.7v3.97h-.81v-3.82c0-.68-.22-1.14-.86-1.14-.75,0-1.07.49-1.07,1.64v3.32h-.81v-3.85c0-1.14,0-1.47-.01-1.73ZM37.99,228.87v-7.83h.8v7.83h-.8ZM40.13,223.3h.8v5.58h-.8v-5.58ZM40.13,221.04h.8v1.15h-.8v-1.15ZM45.76,228.52c0,1.47-.35,2.49-1.95,2.49-1.44,0-1.75-.94-1.78-1.54h.82c.02.31.2.85.99.85.94,0,1.13-.68,1.13-1.81v-.51c-.2.57-.67.85-1.3.85-1.13,0-1.68-.95-1.68-2.71,0-2.01.74-2.95,1.8-2.95.76,0,1.08.37,1.18.73,0-.25.03-.52.04-.64h.77c-.01.29-.01.86-.01,1.61v3.61ZM42.81,226.14c0,1.35.37,2.01,1.06,2.01.86,0,1.1-.85,1.1-2.15s-.18-2.08-1.03-2.08c-.74,0-1.13.77-1.13,2.22ZM47.08,223.3h.78c.01.14.03.36.03.73.19-.44.57-.83,1.32-.83.81,0,1.43.46,1.43,1.7v3.97h-.81v-3.82c0-.68-.22-1.14-.86-1.14-.75,0-1.07.49-1.07,1.64v3.32h-.81v-3.85c0-1.14,0-1.47-.01-1.73ZM52.5,226.24c0,1.09.19,2.05,1.07,2.05s.99-.83,1.02-1h.79c-.01.14-.17,1.69-1.81,1.69s-1.87-1.51-1.87-2.89c0-1.77.6-2.88,1.92-2.88,1.47,0,1.81,1.21,1.81,2.6,0,.11,0,.29-.01.43h-2.91ZM54.61,225.6c0-.96-.2-1.71-1.02-1.71-1.02,0-1.07,1.33-1.09,1.71h2.1ZM54.61,225.6h0ZM61.78,227.89c0,.35.03.81.04.99h-.74c-.03-.12-.06-.42-.06-.63-.21.45-.63.73-1.32.73-1.07,0-1.46-.84-1.46-1.61,0-1.02.69-1.79,2.15-1.79.26,0,.42,0,.58.02v-.74c0-.44-.08-.99-.84-.99-.82,0-.87.59-.9.96h-.78c.02-.8.4-1.62,1.71-1.62,1.08,0,1.6.53,1.6,1.55v3.13ZM61.01,226.23c-.14-.02-.29-.03-.55-.03-.99,0-1.4.48-1.4,1.1,0,.51.27.99.87.99.82,0,1.08-.58,1.08-1.75v-.3ZM66.57,227.35c0,.7,0,1.26.01,1.53h-.77c-.03-.16-.04-.38-.04-.74-.2.55-.67.84-1.33.84s-1.39-.27-1.39-1.67v-4.01h.81v3.82c0,.71.2,1.15.84,1.15s1.06-.38,1.06-1.58v-3.39h.81v4.05ZM68.14,223.3c.58,1.21.88,1.76,1.02,2.07h.01c.18-.38.56-1.11,1.05-2.07h.86l-1.47,2.66,1.48,2.92h-.9c-.55-1.15-.89-1.83-1.05-2.17h-.01c-.14.3-.55,1.13-1.07,2.17h-.86l1.47-2.8-1.43-2.78h.89ZM74.39,228.17c-.21.48-.59.8-1.31.8-1.04,0-1.66-.86-1.66-2.89,0-1.85.7-2.88,1.8-2.88.74,0,1.05.35,1.17.7,0-.31.02-.5.03-.6h.78c-.01.4-.01.86-.01,1.65v5.98h-.79v-2.76ZM72.25,226.09c0,1.33.31,2.18,1.06,2.18.9,0,1.09-.78,1.09-2.21s-.12-2.15-1.03-2.15c-.7,0-1.11.76-1.11,2.18ZM80.02,227.35c0,.7,0,1.26.01,1.53h-.77c-.03-.16-.04-.38-.04-.74-.2.55-.67.84-1.33.84s-1.39-.27-1.39-1.67v-4.01h.81v3.82c0,.71.2,1.15.84,1.15s1.06-.38,1.06-1.58v-3.39h.81v4.05ZM81.87,226.24c0,1.09.19,2.05,1.07,2.05s.99-.83,1.02-1h.79c-.01.14-.17,1.69-1.81,1.69s-1.87-1.51-1.87-2.89c0-1.77.6-2.88,1.92-2.88,1.47,0,1.81,1.21,1.81,2.6,0,.11,0,.29-.01.43h-2.91ZM83.98,225.6c0-.96-.2-1.71-1.02-1.71-1.02,0-1.07,1.33-1.09,1.71h2.1ZM83.98,225.6h0ZM85.81,228.87v-7.83h.8v7.83h-.8ZM87.97,228.87v-7.83h.8v7.83h-.8ZM90.63,226.24c0,1.09.19,2.05,1.07,2.05s.99-.83,1.02-1h.79c-.01.14-.17,1.69-1.81,1.69s-1.87-1.51-1.87-2.89c0-1.77.6-2.88,1.92-2.88,1.47,0,1.81,1.21,1.81,2.6,0,.11,0,.29-.01.43h-2.91ZM92.75,225.6c0-.96-.2-1.71-1.02-1.71-1.02,0-1.07,1.33-1.09,1.71h2.1ZM92.75,225.6h0ZM96.02,228.31c.61,0,.9-.37.9-.88,0-.58-.3-.84-1.03-1.13-1.15-.44-1.49-.86-1.49-1.63s.46-1.47,1.6-1.47c1.25,0,1.6.85,1.61,1.59h-.79c-.01-.27-.07-.93-.85-.93-.53,0-.77.33-.77.77s.19.67.97.96c1.08.42,1.56.81,1.56,1.77,0,1.02-.64,1.62-1.75,1.62s-1.72-.69-1.75-1.71h.8c.04.6.35,1.05.99,1.05ZM100.82,228.87v-7.83h.8v7.83h-.8ZM106.14,227.89c0,.35.03.81.04.99h-.74c-.03-.12-.06-.42-.06-.63-.21.45-.63.73-1.32.73-1.07,0-1.46-.84-1.46-1.61,0-1.02.69-1.79,2.15-1.79.26,0,.42,0,.58.02v-.74c0-.44-.08-.99-.84-.99-.82,0-.87.59-.9.96h-.78c.02-.8.4-1.62,1.71-1.62,1.08,0,1.6.53,1.6,1.55v3.13ZM105.37,226.23c-.14-.02-.29-.03-.55-.03-.99,0-1.4.48-1.4,1.1,0,.51.27.99.87.99.82,0,1.08-.58,1.08-1.75v-.3ZM109.66,221.4h1.95c1.12,0,1.8.67,1.8,1.82,0,1-.48,1.44-.92,1.59.57.2,1.16.72,1.16,1.88,0,1.34-.81,2.19-2.11,2.19h-1.89v-7.47ZM111.32,224.52c.94,0,1.28-.42,1.28-1.22,0-.75-.39-1.21-1.18-1.21h-.96v2.43h.86ZM110.46,228.2h1c.88,0,1.36-.53,1.36-1.51s-.51-1.5-1.51-1.5h-.85v3.01ZM114.68,223.3h.8v5.58h-.8v-5.58ZM114.69,221.04h.8v1.15h-.8v-1.15ZM116.85,221.04h.8v2.99c.18-.43.57-.83,1.33-.83,1.07,0,1.63.89,1.63,2.74,0,1.72-.46,3.02-1.78,3.02-.71,0-1.03-.36-1.2-.75,0,.18-.01.44-.03.66h-.76c.01-.3.01-.85.01-1.53v-6.3ZM119.79,225.96c0-1.4-.33-2.04-1.03-2.04-.86,0-1.14.77-1.14,2.18,0,1.34.22,2.16,1.06,2.16.74,0,1.1-.72,1.1-2.3ZM121.64,228.87v-7.83h.8v7.83h-.8ZM123.77,223.3h.8v5.58h-.8v-5.58ZM123.77,221.04h.8v1.15h-.8v-1.15ZM129.47,226.02c0,1.96-.66,2.96-1.92,2.96s-1.92-.96-1.92-2.94.76-2.83,1.95-2.83,1.89.94,1.89,2.82ZM126.45,226.04c0,1.52.38,2.24,1.1,2.24s1.09-.73,1.09-2.24c0-1.43-.35-2.13-1.09-2.13s-1.1.63-1.1,2.14ZM129.84,223.3h.79v-1.49h.8v1.49h.97v.69h-.97v3.66c0,.38.08.62.5.62.13,0,.29,0,.39-.03v.62c-.19.07-.47.09-.66.09-.66,0-1.04-.27-1.04-1.15v-3.82h-.79v-.69ZM133.98,221.04v2.93c.19-.45.63-.78,1.34-.78.82,0,1.41.51,1.41,1.71v3.97h-.81v-3.8c0-.68-.2-1.16-.88-1.16-.77,0-1.05.63-1.05,1.6v3.35h-.81v-7.83h.81ZM138.57,226.24c0,1.09.19,2.05,1.07,2.05s.99-.83,1.02-1h.79c-.01.14-.17,1.69-1.81,1.69s-1.87-1.51-1.87-2.89c0-1.77.6-2.88,1.92-2.88,1.47,0,1.81,1.21,1.81,2.6,0,.11,0,.29-.01.43h-2.91ZM138.97,220.93l1.18,1.53h-.76l-1.39-1.53h.97ZM140.69,225.6c0-.96-.2-1.71-1.02-1.71-1.02,0-1.07,1.33-1.09,1.71h2.1ZM140.69,225.6h0ZM145.3,228.17c-.21.48-.59.8-1.31.8-1.04,0-1.66-.86-1.66-2.89,0-1.85.7-2.88,1.8-2.88.74,0,1.05.35,1.17.7,0-.31.02-.5.03-.6h.78c-.01.4-.01.86-.01,1.65v5.98h-.79v-2.76ZM143.15,226.09c0,1.33.31,2.18,1.06,2.18.9,0,1.09-.78,1.09-2.21s-.12-2.15-1.03-2.15c-.7,0-1.11.76-1.11,2.18ZM150.93,227.35c0,.7,0,1.26.01,1.53h-.77c-.03-.16-.04-.38-.04-.74-.2.55-.67.84-1.33.84s-1.39-.27-1.39-1.67v-4.01h.81v3.82c0,.71.2,1.15.84,1.15s1.06-.38,1.06-1.58v-3.39h.81v4.05ZM152.77,226.24c0,1.09.19,2.05,1.07,2.05s.99-.83,1.02-1h.79c-.01.14-.17,1.69-1.81,1.69s-1.87-1.51-1.87-2.89c0-1.77.6-2.88,1.92-2.88,1.47,0,1.81,1.21,1.81,2.6,0,.11,0,.29-.01.43h-2.91ZM154.89,225.6c0-.96-.2-1.71-1.02-1.71-1.02,0-1.07,1.33-1.09,1.71h2.1ZM154.89,225.6h0ZM162.06,227.89c0,.35.03.81.04.99h-.74c-.03-.12-.06-.42-.06-.63-.21.45-.63.73-1.32.73-1.07,0-1.46-.84-1.46-1.61,0-1.02.69-1.79,2.15-1.79.26,0,.42,0,.58.02v-.74c0-.44-.08-.99-.84-.99-.82,0-.87.59-.9.96h-.78c.02-.8.4-1.62,1.71-1.62,1.08,0,1.6.53,1.6,1.55v3.13ZM161.28,226.23c-.14-.02-.29-.03-.55-.03-.99,0-1.4.48-1.4,1.1,0,.51.27.99.87.99.82,0,1.08-.58,1.08-1.75v-.3Z"/>
    <path class="cls-1" d="M29.84,241.09c0,.35.03.81.04.99h-.74c-.03-.12-.06-.42-.06-.63-.21.45-.63.73-1.32.73-1.07,0-1.46-.84-1.46-1.61,0-1.02.69-1.79,2.15-1.79.26,0,.42,0,.58.02v-.74c0-.44-.08-.99-.84-.99-.82,0-.87.59-.9.96h-.78c.02-.8.4-1.62,1.71-1.62,1.08,0,1.6.53,1.6,1.55v3.13ZM29.07,239.43c-.14-.02-.29-.03-.55-.03-.99,0-1.4.48-1.4,1.1,0,.51.27.99.87.99.82,0,1.08-.58,1.08-1.75v-.3ZM34.52,240.37c-.02.3-.14,1.8-1.77,1.8-1.46,0-1.85-1.29-1.85-2.91s.51-2.87,1.93-2.87c1.62,0,1.7,1.5,1.7,1.76h-.82c-.01-.23-.09-1.07-.88-1.07s-1.1.88-1.1,2.17c0,1.39.3,2.22,1.06,2.22.81,0,.9-.81.94-1.11h.8ZM38.89,240.37c-.02.3-.14,1.8-1.77,1.8-1.46,0-1.85-1.29-1.85-2.91s.51-2.87,1.93-2.87c1.62,0,1.7,1.5,1.7,1.76h-.82c-.01-.23-.09-1.07-.88-1.07s-1.1.88-1.1,2.17c0,1.39.3,2.22,1.06,2.22.81,0,.9-.81.94-1.11h.8ZM40.44,239.44c0,1.09.19,2.05,1.07,2.05s.99-.83,1.02-1h.79c-.01.14-.17,1.69-1.81,1.69s-1.87-1.51-1.87-2.89c0-1.77.6-2.88,1.92-2.88,1.47,0,1.81,1.21,1.81,2.6,0,.11,0,.29-.01.43h-2.91ZM40.84,234.13l1.18,1.53h-.76l-1.39-1.53h.97ZM42.56,238.8c0-.96-.2-1.71-1.02-1.71-1.02,0-1.07,1.33-1.09,1.71h2.1ZM42.56,238.8h0ZM45.83,241.51c.61,0,.9-.37.9-.88,0-.58-.3-.84-1.03-1.13-1.15-.44-1.49-.86-1.49-1.63s.46-1.47,1.6-1.47c1.25,0,1.6.85,1.61,1.59h-.79c-.01-.27-.07-.93-.85-.93-.53,0-.77.33-.77.77s.19.67.97.96c1.08.42,1.56.81,1.56,1.77,0,1.02-.64,1.62-1.75,1.62s-1.72-.69-1.75-1.71h.8c.04.6.35,1.05.99,1.05ZM48.44,240.57h.82v1.51h-.82v-1.51Z"/>
    <path class="cls-1" d="M26.68,77.85h.82v6.75h2.67l-.12.72h-3.37v-7.47ZM31.42,82.69c0,1.09.19,2.05,1.07,2.05s.99-.83,1.02-1h.79c-.01.14-.17,1.69-1.81,1.69s-1.87-1.51-1.87-2.89c0-1.77.6-2.88,1.92-2.88,1.47,0,1.81,1.21,1.81,2.6,0,.11,0,.29-.01.43h-2.91ZM33.54,82.05c0-.96-.2-1.71-1.02-1.71-1.02,0-1.07,1.33-1.09,1.71h2.1ZM33.54,82.05h0ZM39.71,85.32h-.99l-1.85-7.47h.88l.83,3.55c.24,1.04.53,2.35.63,3.06h.02c.1-.65.45-2.01.71-3.06l.85-3.55h.85l-1.93,7.47h0ZM42.44,77.85h1.93c1.17,0,1.98.74,1.98,2.08s-.73,2.16-2.1,2.16h-.99v3.23h-.82v-7.47ZM43.26,81.4h.9c.9,0,1.36-.48,1.36-1.48,0-.83-.43-1.38-1.26-1.38h-.99v2.85ZM47.35,77.85h1.01c2.07,5.17,2.36,5.88,2.45,6.2h.01c-.05-1-.07-2.13-.07-3.34v-2.86h.77v7.47h-.97c-2.15-5.43-2.41-6.12-2.49-6.42h-.01c.06.93.06,2.16.06,3.5v2.91h-.77v-7.47ZM55.56,82.69c0,1.09.19,2.05,1.07,2.05s.99-.83,1.02-1h.79c-.01.14-.17,1.69-1.81,1.69s-1.87-1.51-1.87-2.89c0-1.77.6-2.88,1.92-2.88,1.47,0,1.81,1.21,1.81,2.6,0,.11,0,.29-.01.43h-2.91ZM57.67,82.05c0-.96-.2-1.71-1.02-1.71-1.02,0-1.07,1.33-1.09,1.71h2.1ZM57.67,82.05h0ZM60.94,84.76c.61,0,.9-.37.9-.88,0-.58-.3-.84-1.03-1.13-1.15-.44-1.49-.86-1.49-1.63s.46-1.47,1.6-1.47c1.25,0,1.6.85,1.61,1.59h-.79c-.01-.27-.07-.93-.85-.93-.53,0-.77.33-.77.77s.19.67.97.96c1.08.42,1.56.81,1.56,1.77,0,1.02-.64,1.62-1.75,1.62s-1.72-.69-1.75-1.71h.8c.04.6.35,1.05.99,1.05ZM63.04,79.75h.79v-1.49h.8v1.49h.97v.69h-.97v3.66c0,.38.08.62.5.62.13,0,.29,0,.39-.03v.62c-.19.07-.47.09-.66.09-.66,0-1.04-.27-1.04-1.15v-3.82h-.79v-.69ZM71.97,83.8c0,.7,0,1.26.01,1.53h-.77c-.03-.16-.04-.38-.04-.74-.2.55-.67.84-1.33.84s-1.39-.27-1.39-1.67v-4.01h.81v3.82c0,.71.2,1.15.84,1.15s1.06-.38,1.06-1.58v-3.39h.81v4.05ZM73.22,79.75h.78c.01.14.03.36.03.73.19-.44.57-.83,1.32-.83.81,0,1.43.46,1.43,1.7v3.97h-.81v-3.82c0-.68-.22-1.14-.86-1.14-.75,0-1.07.49-1.07,1.64v3.32h-.81v-3.85c0-1.14,0-1.47-.01-1.73ZM83.71,82.47c0,1.96-.66,2.96-1.92,2.96s-1.92-.96-1.92-2.94.76-2.83,1.95-2.83,1.89.94,1.89,2.82ZM80.69,82.49c0,1.52.38,2.24,1.1,2.24s1.09-.73,1.09-2.24c0-1.43-.35-2.13-1.09-2.13s-1.1.63-1.1,2.14ZM88.26,83.8c0,.7,0,1.26.01,1.53h-.77c-.03-.16-.04-.38-.04-.74-.2.55-.67.84-1.33.84s-1.39-.27-1.39-1.67v-4.01h.81v3.82c0,.71.2,1.15.84,1.15s1.06-.38,1.06-1.58v-3.39h.81v4.05ZM89,79.75h.79v-1.49h.8v1.49h.97v.69h-.97v3.66c0,.38.08.62.5.62.13,0,.29,0,.39-.03v.62c-.19.07-.47.09-.66.09-.66,0-1.04-.27-1.04-1.15v-3.82h-.79v-.69ZM92.36,79.75h.8v5.58h-.8v-5.58ZM92.36,77.49h.8v1.15h-.8v-1.15ZM94.51,85.32v-7.83h.8v7.83h-.8ZM102.23,77.49v6.4c0,.54,0,1.1.01,1.43h-.78c-.01-.14-.03-.51-.03-.75-.17.48-.53.85-1.31.85-1.16,0-1.65-.99-1.65-2.95,0-1.78.66-2.82,1.83-2.82.72,0,1,.31,1.13.58v-2.74h.8ZM99.3,82.48c0,1.61.37,2.22,1.05,2.22.87,0,1.1-.74,1.1-2.25,0-1.63-.23-2.09-1.03-2.09-.66,0-1.11.58-1.11,2.12ZM104.08,82.69c0,1.09.19,2.05,1.07,2.05s.99-.83,1.02-1h.79c-.01.14-.17,1.69-1.81,1.69s-1.87-1.51-1.87-2.89c0-1.77.6-2.88,1.92-2.88,1.47,0,1.81,1.21,1.81,2.6,0,.11,0,.29-.01.43h-2.91ZM106.19,82.05c0-.96-.2-1.71-1.02-1.71-1.02,0-1.07,1.33-1.09,1.71h2.1ZM106.19,82.05h0ZM110.11,79.75h.77c.01.14.03.4.03,1,.24-.67.78-1.07,1.47-1.08v.89c-.96.03-1.46.63-1.46,1.66v3.12h-.8v-3.68c0-.89,0-1.5-.01-1.9ZM113.62,82.69c0,1.09.19,2.05,1.07,2.05s.99-.83,1.02-1h.79c-.01.14-.17,1.69-1.81,1.69s-1.87-1.51-1.87-2.89c0-1.77.6-2.88,1.92-2.88,1.47,0,1.81,1.21,1.81,2.6,0,.11,0,.29-.01.43h-2.91ZM115.74,82.05c0-.96-.2-1.71-1.02-1.71-1.02,0-1.07,1.33-1.09,1.71h2.1ZM115.74,82.05h0ZM121.01,83.62c-.02.3-.14,1.8-1.77,1.8-1.46,0-1.85-1.29-1.85-2.91s.51-2.87,1.93-2.87c1.62,0,1.7,1.5,1.7,1.76h-.82c-.01-.23-.09-1.07-.88-1.07s-1.1.88-1.1,2.17c0,1.39.3,2.22,1.06,2.22.81,0,.9-.81.94-1.11h.8ZM122.78,77.49v2.93c.19-.45.63-.78,1.34-.78.82,0,1.41.51,1.41,1.71v3.97h-.81v-3.8c0-.68-.2-1.16-.88-1.16-.77,0-1.05.63-1.05,1.6v3.35h-.81v-7.83h.81ZM127.36,82.69c0,1.09.19,2.05,1.07,2.05s.99-.83,1.02-1h.79c-.01.14-.17,1.69-1.81,1.69s-1.87-1.51-1.87-2.89c0-1.77.6-2.88,1.92-2.88,1.47,0,1.81,1.21,1.81,2.6,0,.11,0,.29-.01.43h-2.91ZM129.48,82.05c0-.96-.2-1.71-1.02-1.71-1.02,0-1.07,1.33-1.09,1.71h2.1ZM129.48,82.05h0ZM131.3,79.75h.77c.01.14.03.4.03,1,.24-.67.78-1.07,1.47-1.08v.89c-.96.03-1.46.63-1.46,1.66v3.12h-.8v-3.68c0-.89,0-1.5-.01-1.9ZM137.63,83.62c-.02.3-.14,1.8-1.77,1.8-1.46,0-1.85-1.29-1.85-2.91s.51-2.87,1.93-2.87c1.62,0,1.7,1.5,1.7,1.76h-.82c-.01-.23-.09-1.07-.88-1.07s-1.1.88-1.1,2.17c0,1.39.3,2.22,1.06,2.22.81,0,.9-.81.94-1.11h.8ZM139.4,77.49v2.93c.19-.45.63-.78,1.34-.78.82,0,1.41.51,1.41,1.71v3.97h-.81v-3.8c0-.68-.2-1.16-.88-1.16-.77,0-1.05.63-1.05,1.6v3.35h-.81v-7.83h.81ZM143.98,82.69c0,1.09.19,2.05,1.07,2.05s.99-.83,1.02-1h.79c-.01.14-.17,1.69-1.81,1.69s-1.87-1.51-1.87-2.89c0-1.77.6-2.88,1.92-2.88,1.47,0,1.81,1.21,1.81,2.6,0,.11,0,.29-.01.43h-2.91ZM146.1,82.05c0-.96-.2-1.71-1.02-1.71-1.02,0-1.07,1.33-1.09,1.71h2.1ZM146.1,82.05h0ZM147.74,83.82h.82v1.51h-.82v-1.51Z"/>
  </g>
</svg>