<?xml version="1.0" encoding="UTF-8"?>
<svg id="Calque_1" data-name="Calque 1" xmlns="http://www.w3.org/2000/svg" xmlns:xlink="http://www.w3.org/1999/xlink" viewBox="0 0 195.59 269.29">
  <defs>
    <style>
      .cls-1, .cls-2 {
        fill: #1d1d1b;
      }

      .cls-3 {
        letter-spacing: -.05em;
      }

      .cls-4 {
        fill: #fff;
      }

      .cls-5 {
        font-size: 34.51px;
      }

      .cls-5, .cls-6 {
        font-family: Socafe, Socafe;
      }

      .cls-5, .cls-6, .cls-7 {
        fill: #ffcb04;
      }

      .cls-8 {
        letter-spacing: .06em;
      }

      .cls-9 {
        letter-spacing: .06em;
      }

      .cls-10, .cls-11 {
        fill: none;
      }

      .cls-12 {
        letter-spacing: -.05em;
      }

      .cls-13 {
        clip-path: url(#clippath-1);
      }

      .cls-14 {
        fill: #f39200;
      }

      .cls-15 {
        fill: #507cbe;
      }

      .cls-16 {
        letter-spacing: -.05em;
      }

      .cls-11 {
        stroke: #ffcb04;
        stroke-linecap: round;
        stroke-width: 3px;
      }

      .cls-17 {
        letter-spacing: -.05em;
      }

      .cls-18 {
        letter-spacing: .08em;
      }

      .cls-2 {
        font-family: ActionMan, 'Action Man';
        font-size: 7.12px;
      }

      .cls-19 {
        letter-spacing: .08em;
      }

      .cls-20 {
        letter-spacing: -.05em;
      }

      .cls-21 {
        fill: #31a852;
      }

      .cls-22 {
        clip-path: url(#clippath-2);
      }

      .cls-23 {
        letter-spacing: .06em;
      }

      .cls-24 {
        letter-spacing: .08em;
      }

      .cls-25 {
        fill: #ffcd02;
      }

      .cls-26 {
        clip-path: url(#clippath);
      }

      .cls-6 {
        font-size: 35.7px;
      }

      .cls-27 {
        letter-spacing: 0em;
      }
    </style>
    <clipPath id="clippath">
      <rect class="cls-10" width="195.59" height="269.29"/>
    </clipPath>
    <clipPath id="clippath-1">
      <rect class="cls-10" width="195.59" height="269.29"/>
    </clipPath>
    <clipPath id="clippath-2">
      <rect class="cls-10" x="16.3" y="217.56" width="179.29" height="35.74"/>
    </clipPath>
  </defs>
  <g class="cls-26">
    <g class="cls-13">
      <text class="cls-6" transform="translate(43.6 45.34) scale(1 1.12)"><tspan x="0" y="0">J</tspan></text>
      <text class="cls-5" transform="translate(65.55 45.34)"><tspan x="0" y="0">OKER</tspan></text>
      <path class="cls-7" d="M78.6,24.09c-.37,0-.77-.05-1.14-.01-.64.06-.69.28-1.2.6-.49.3-1.15.58-1.7.83-.64.3-.87.59-1.35,1.12-.59.65-1.23,1.43-1.49,2.35-.44,1.54-.21,3.36-.21,4.96,0,.75-.14,1.68-.01,2.42.15.87.87,1.42,1.43,1.9.87.76,1.37.41,2.48.55.98.12,1.82.29,2.83.3,1.23.01,2.09.07,2.57-1.28.25-.68.35-1.1.7-1.76.05-.31.16-.59.33-.86.26-.26.5-.54.69-.85.28-.81.03-2.03.03-2.88,0-.95.02-1.91,0-2.86-.02-1.22-1.15-1.77-1.79-2.78-.57-.89-1.04-1.92-2.18-2.04"/>
      <path class="cls-4" d="M72.49,35.62c-.46-.84-.74-1.73-.83-2.61-.09-.88,0-1.75.26-2.55l1.28,1.85,1.28,1.85s.01.02.02.03c0,0,.01.02.02.03l-1.02.7-1.02.7Z"/>
      <path class="cls-4" d="M78.78,25.69c.05-.04.09-.09.11-.16l.26-1.41c.03-.14-.07-.27-.21-.3-.14-.02-.27.07-.3.21l-.26,1.41c-.03.14.07.27.21.3.07.01.14,0,.19-.04"/>
      <path class="cls-4" d="M69.93,31.8c.05-.04.09-.09.11-.16.03-.14-.07-.27-.21-.3l-1.41-.26c-.14-.03-.27.07-.3.21-.03.14.07.27.21.3l1.41.26c.07.01.14,0,.19-.04"/>
      <path class="cls-4" d="M83.66,28.85l1.18-.81c.12-.08.15-.24.07-.36-.08-.12-.24-.15-.36-.07l-1.18.82c-.12.08-.15.24-.06.36.08.12.24.15.36.06"/>
      <path class="cls-4" d="M69.97,38.3l1.18-.81c.12-.08.15-.24.07-.36-.08-.12-.24-.15-.36-.07l-1.18.82c-.12.08-.15.24-.06.36.08.12.24.15.36.07"/>
      <path class="cls-4" d="M73.13,26.88c.12-.08.15-.24.06-.36l-.81-1.18c-.08-.12-.24-.15-.36-.07-.12.08-.15.24-.07.36l.82,1.18c.08.12.24.15.36.06"/>
      <path class="cls-4" d="M75.81,25.73c.08-.06.13-.16.1-.27l-.16-.73c-.03-.14-.17-.23-.31-.2-.14.03-.23.17-.2.3l.16.73c.03.14.17.23.31.2.03,0,.07-.02.09-.04"/>
      <path class="cls-4" d="M81.54,26.78s.05-.04.07-.07l.41-.63c.08-.12.04-.28-.08-.36-.12-.08-.28-.04-.35.08l-.41.63c-.08.12-.04.28.08.36.09.06.2.05.29,0"/>
      <path class="cls-4" d="M69.98,34.76c.08-.06.13-.16.1-.26-.03-.14-.17-.23-.31-.2l-.73.16c-.14.03-.23.17-.2.3.03.14.17.23.31.2l.73-.16s.07-.02.09-.04"/>
      <path class="cls-4" d="M71.02,29.04s.05-.04.07-.07c.08-.12.04-.28-.08-.35l-.63-.41c-.12-.08-.28-.04-.36.08-.08.12-.04.28.08.36l.63.41c.09.06.2.05.29,0"/>
      <path class="cls-4" d="M78.21,33.9c-.17.02-.29.18-.27.35l.21,1.57c.02.17.18.29.35.27.17-.02.29-.18.27-.35l-.21-1.57c-.02-.17-.18-.29-.35-.27"/>
      <path class="cls-4" d="M79.4,33.08c-.17.02-.29.18-.27.35l.21,1.57c.02.17.18.29.35.27.17-.02.29-.18.27-.35l-.21-1.57c-.02-.17-.18-.29-.35-.27"/>
      <path class="cls-4" d="M77.02,34.72c-.17.02-.29.18-.27.35l.21,1.57c.02.17.18.29.35.27.17-.02.29-.18.27-.35l-.21-1.57c-.02-.17-.18-.29-.35-.27"/>
      <path class="cls-4" d="M92.63,56.65c-1.22.83-2.88.53-3.73-.68-.86-1.23-.54-2.93.69-3.77,1.22-.83,2.88-.53,3.73.68.86,1.23.55,2.93-.69,3.77M79.69,35.26c-.17.02-.32-.1-.35-.27l-.21-1.57c-.02-.17.1-.32.26-.35.17-.02.32.1.35.26l.21,1.57c.02.17-.1.32-.27.35M78.5,36.08c-.17.02-.32-.1-.35-.27l-.21-1.57c-.02-.17.1-.32.27-.35.17-.02.33.1.35.27l.21,1.57c.02.17-.1.32-.27.35M77.32,36.9c-.17.02-.32-.1-.35-.26l-.21-1.57c-.02-.17.1-.32.26-.35.17-.02.32.1.35.26l.21,1.57c.02.17-.1.32-.27.35M94.1,52.28l-9.23-10.71c-1.8-2.36-2.6-5.32-2.27-8.26.14-1.26-.15-2.57-.91-3.7-1.17-1.73-3.14-2.58-5.08-2.39l2.32,3.36c.36.51.23,1.22-.29,1.58l-5.78,4c.82,1.02,1.94,1.67,3.15,1.93.9.19,1.69.74,2.19,1.52l9.85,16.87c1.14,1.71,3.46,2.16,5.15.99,1.69-1.17,2.1-3.5.89-5.17"/>
      <line class="cls-11" x1="24.8" y1="20.13" x2="33.9" y2="24.94"/>
      <line class="cls-11" x1="25" y1="20.13" x2="34.1" y2="24.94"/>
      <line class="cls-11" x1="22.48" y1="32.6" x2="31.97" y2="32.6"/>
      <line class="cls-11" x1="25" y1="45.07" x2="34.1" y2="40.25"/>
      <line class="cls-11" x1="170.44" y1="20.13" x2="161.34" y2="24.94"/>
      <line class="cls-11" x1="172.76" y1="32.6" x2="163.27" y2="32.6"/>
      <line class="cls-11" x1="170.24" y1="20.13" x2="161.14" y2="24.94"/>
      <line class="cls-11" x1="170.24" y1="45.07" x2="161.14" y2="40.25"/>
      <g class="cls-22">
        <path class="cls-21" d="M27.32,243.65c-.2-.22-.29-.51-.25-.8l1.62-.43c.16-.04.26-.21.22-.37-.04-.16-.21-.26-.37-.22l-1.37.37c0-.14-.02-.28-.06-.42-.04-.14-.09-.27-.16-.39l1.37-.37c.16-.04.26-.21.22-.37-.04-.16-.21-.26-.37-.22l-1.62.43c-.43-.55-.15-1.35.45-1.51l5.14-1.38c.61-.16,1.25.4,1.15,1.08l-1.73.46c-.16.05-.26.21-.22.38.04.16.21.26.37.22l1.47-.39c0,.14.02.28.06.42.04.14.09.27.16.39l-1.47.39c-.16.04-.26.21-.22.37.04.16.21.26.37.22l1.73-.46c.18.23.25.53.18.82-.08.35-.35.61-.64.69l-5.14,1.38c-.28.08-.65-.01-.9-.28"/>
        <path class="cls-21" d="M29.04,244.35l3.83-1.03c.06.94-.54,1.83-1.49,2.08h-.01c-.94.26-1.91-.21-2.33-1.06"/>
        <path class="cls-25" d="M31.35,225.76c.1-.05.23-.02.28.09.18.33.32.69.42,1.06.03.11-.04.23-.15.26-.11.03-.23-.04-.26-.15-.09-.34-.22-.66-.38-.97-.06-.1-.02-.23.09-.28M30.81,225.01c-.08.08-.22.08-.3,0-.61-.64-1.42-1.11-2.33-1.3-.11-.02-.19-.13-.16-.25.02-.11.14-.18.25-.16.99.22,1.87.72,2.54,1.42.08.08.08.22,0,.3M30.99,222.85c1.34.96,2.3,2.41,2.62,4.24.23,1.34-.02,2.76-.71,3.98-.21.37-.59,1.17-.76,2.36-.18,1.19-.11,2.41.22,3.63.03.11-.04.23-.15.26l-2.42.65c-.11.03-.23-.04-.26-.15l-4.19-15.63c-.03-.11.04-.23.15-.26.61-.16,1.08-.21,1.28-.23,1.38-.14,2.94.25,4.22,1.16"/>
        <path class="cls-14" d="M21.9,226.44c-.19.46.2.85.2.85.07.07.07.19,0,.26-.07.07-.19.07-.27,0-.03-.02-.57-.56-.28-1.24.29-.69,1.06-.68,1.09-.68.1,0,.18.08.18.19,0,.1-.09.18-.2.18-.02,0-.54,0-.73.45M22.84,230.89c.02.1-.05.19-.15.21-.03,0-.81.15-1.23-.44-.43-.6.02-1.22.04-1.25.06-.08.18-.1.26-.05.08.06.1.17.04.25-.01.02-.31.44-.03.83.28.4.83.3.85.3.1-.02.2.04.22.14M26.65,233.32c.09-.05.21-.02.26.06.36.62.02,1.44-.72,1.64-.27.07-.57.05-.82-.07-.09-.05-.13-.15-.08-.24.05-.09.16-.13.26-.08.3.15.68.08.92-.16.24-.24.29-.61.12-.89-.05-.09-.02-.2.07-.25M23.05,227.65c.08-.06.2-.05.27.03.61.75,1.1.19,1.99-.01.34-.08.68-.06.99.09l-1.16-4.33c-.19-.73-.97-1.15-1.72-.95-.76.2-1.21.96-1.02,1.69l.05.2c.24-.03.48-.03.72.01.14-.06.54-.27.61-.77.01-.1.11-.17.21-.16.1.01.18.1.16.2-.06.42-.28.69-.5.86.34.12.65.33.94.54.08.06.1.17.03.26-.07.08-.18.1-.27.04-.16-.11-.32-.22-.47-.31-.93-.55-2.15-.39-2.85.54-.87,1.15-.36,2.72.97,2.95.1.02.17.11.15.21-.02.1-.12.17-.22.15-.3-.05-.57-.16-.81-.32-.16.11-.45.36-.65.77-.56,1.19.31,2.52,1.63,2.66,0,0,.83.07,1.54-.49.71-.56.13-1.1,1.71-1.52.1-.03.2.03.23.13.03.1-.03.2-.14.23-.81.22-.91.42-1.02.7h0c.46-.02.86.19,1.16.54.07.08.05.19-.03.26-.08.06-.2.06-.27-.02-.43-.5-.91-.42-1.06-.38-.41.6-1.47,1.07-2.36.9-.21,1.09.68,2.1,1.85,2.03-.06-.66.2-1.33.71-1.8.08-.07.2-.07.27,0,.07.07.07.19,0,.26-.5.47-.71,1.17-.54,1.81.11.4.35.74.66.97.31.23.54.44.74.81.35.65.67,1.45.87,2.22.03.11.14.18.26.15l2.18-.58c.11-.03.18-.15.15-.26l-1.69-6.32c-.1-.32-.51-.53-.83-.63-.1-.03-.15-.13-.12-.23.03-.1.14-.15.24-.12,0,0,.01,0,.02,0,.2.06.36.14.49.22l-.68-2.54c-.23-.27-.62-.41-1.07-.31-.81.19-1.56.86-2.37-.11-.06-.08-.05-.19.03-.26"/>
        <path class="cls-15" d="M19.21,223.91c-.07.02-.16.01-.23-.03l-1.45-.84c-.14-.08-.19-.27-.11-.41.08-.14.26-.19.41-.11l1.45.84c.14.08.19.26.11.41-.04.07-.11.12-.18.14"/>
        <path class="cls-15" d="M31.31,220.66c-.07.02-.16.01-.23-.03-.14-.08-.19-.27-.11-.41l.84-1.45c.08-.14.26-.19.41-.11.14.08.19.27.11.41l-.83,1.45c-.04.07-.11.12-.18.14"/>
        <path class="cls-15" d="M18.32,230.63l-1.62.43c-.16.04-.32-.05-.37-.21-.04-.16.05-.32.21-.37l1.61-.43c.16-.04.32.05.37.21.04.16-.05.32-.21.37"/>
        <path class="cls-15" d="M37.06,225.61l-1.62.43c-.16.04-.32-.05-.37-.21-.04-.16.05-.32.21-.37l1.61-.43c.16-.04.32.05.37.21.04.16-.05.32-.21.37"/>
        <path class="cls-15" d="M24.53,219.79c-.16.04-.32-.05-.37-.21l-.43-1.61c-.04-.16.05-.32.21-.37.16-.04.32.05.37.21l.43,1.61c.04.16-.05.32-.21.37"/>
        <path class="cls-15" d="M21.49,221.31c-.11.03-.24,0-.32-.11l-.53-.69c-.1-.13-.08-.32.06-.42.13-.1.32-.08.42.06l.53.69c.1.13.08.32-.06.42-.03.02-.07.04-.1.05"/>
        <path class="cls-15" d="M18.1,227.18s-.08.01-.12,0l-.87-.11c-.16-.02-.28-.17-.26-.33.02-.16.17-.28.33-.26l.87.11c.16.02.28.17.26.33-.02.12-.11.22-.22.25"/>
        <path class="cls-15" d="M33.91,222.94c-.11.03-.24,0-.32-.11-.1-.13-.08-.32.06-.42l.69-.53c.13-.1.32-.08.42.06.1.13.08.32-.06.42l-.69.53s-.07.04-.1.05"/>
        <path class="cls-15" d="M28.04,219.55s-.08.01-.12,0c-.16-.02-.28-.17-.26-.34l.11-.87c.02-.16.17-.28.33-.26.16.02.28.17.26.34l-.11.86c-.02.12-.11.22-.22.25"/>
        <path class="cls-25" d="M36.89,221.69c.04.24.06.5.03.75-.02.17-.06.33-.12.48,1.13-.09,2.2.64,2.51,1.78.17.62.08,1.27-.24,1.83-.32.56-.84.96-1.46,1.12l-1.61.43c-.06.02-.12.01-.18.02,0,1.38-.37,2.76-1.07,4-.11.2-.38.74-.52,1.63-.14.9-.08,1.84.17,2.77.01.05.02.11.03.16.74.69,1.1,1.68.95,2.68-.01.07-.03.14-.04.21.05.05.1.11.14.16.58.74.8,1.69.58,2.61-.16.7-.58,1.29-1.13,1.72-.24,1.6-1.39,2.95-3,3.39-.23.06-.46.1-.69.12v5.74h164.35v-31.61H36.89Z"/>
      </g>
      <text class="cls-2" transform="translate(42.39 232.06)"><tspan class="cls-12" x="0" y="0">Si</tspan><tspan class="cls-9" x="4.72" y="0"> </tspan><tspan class="cls-20" x="7.79" y="0">v</tspan><tspan class="cls-12" x="10.64" y="0">o</tspan><tspan class="cls-20" x="14.21" y="0">u</tspan><tspan class="cls-17" x="17.62" y="0">s</tspan><tspan class="cls-9" x="21.05" y="0"> </tspan><tspan class="cls-17" x="24.12" y="0">a</tspan><tspan class="cls-20" x="27.48" y="0">v</tspan><tspan class="cls-17" x="30.32" y="0">e</tspan><tspan class="cls-3" x="33.74" y="0">z</tspan><tspan class="cls-8" x="37.23" y="0"> </tspan><tspan class="cls-12" x="40.31" y="0">r</tspan><tspan class="cls-3" x="44.03" y="0">é</tspan><tspan class="cls-17" x="47.47" y="0">po</tspan><tspan class="cls-3" x="53.87" y="0">ndu</tspan><tspan class="cls-8" x="63.92" y="0"> </tspan><tspan class="cls-16" x="67" y="0">correcte</tspan><tspan class="cls-20" x="94.87" y="0">m</tspan><tspan class="cls-17" x="99.12" y="0">e</tspan><tspan class="cls-3" x="102.54" y="0">n</tspan><tspan class="cls-17" x="105.91" y="0">t,</tspan><tspan class="cls-23" x="110.29" y="0"> </tspan><tspan class="cls-12" x="113.37" y="0">p</tspan><tspan class="cls-3" x="116.2" y="0">l</tspan><tspan class="cls-17" x="118.95" y="0">aceZ</tspan><tspan x="132.4" y="0"> </tspan></text>
      <text class="cls-2" transform="translate(42.39 240.35)"><tspan class="cls-20" x="0" y="0">l</tspan><tspan class="cls-17" x="2.75" y="0">a</tspan><tspan class="cls-19" x="6.11" y="0"> </tspan><tspan class="cls-17" x="9.37" y="0">c</tspan><tspan class="cls-3" x="12.7" y="0">a</tspan><tspan class="cls-12" x="16.06" y="0">rte</tspan><tspan class="cls-18" x="26.53" y="0"> </tspan><tspan class="cls-12" x="29.79" y="0">s</tspan><tspan class="cls-3" x="33.23" y="0">u</tspan><tspan class="cls-12" x="36.63" y="0">r</tspan><tspan class="cls-19" x="40.36" y="0"> </tspan><tspan class="cls-20" x="43.61" y="0">l</tspan><tspan class="cls-12" x="46.36" y="0">’o</tspan><tspan class="cls-3" x="50.98" y="0">bj</tspan><tspan class="cls-17" x="57.93" y="0">e</tspan><tspan class="cls-3" x="61.36" y="0">t</tspan><tspan class="cls-24" x="64.68" y="0"> </tspan><tspan class="cls-3" x="67.93" y="0">d</tspan><tspan class="cls-17" x="71.21" y="0">e</tspan><tspan class="cls-18" x="74.63" y="0"> </tspan><tspan class="cls-20" x="77.89" y="0">v</tspan><tspan class="cls-12" x="80.73" y="0">otre</tspan><tspan class="cls-24" x="94.79" y="0"> </tspan><tspan class="cls-17" x="98.04" y="0">choix.</tspan><tspan class="cls-24" x="114.39" y="0"> </tspan><tspan class="cls-17" x="117.64" y="0">S</tspan><tspan class="cls-3" x="121.09" y="0">i</tspan><tspan class="cls-24" x="122.36" y="0"> </tspan><tspan class="cls-16" x="125.61" y="0">ce</tspan><tspan class="cls-27" x="132.38" y="0"> </tspan></text>
      <text class="cls-2" transform="translate(42.39 248.64)"><tspan class="cls-3" x="0" y="0">n</tspan><tspan class="cls-12" x="3.37" y="0">’est</tspan><tspan class="cls-20" x="14.6" y="0"> </tspan><tspan class="cls-17" x="16.92" y="0">pas </tspan><tspan class="cls-20" x="28.86" y="0">l</tspan><tspan class="cls-17" x="31.61" y="0">e</tspan><tspan class="cls-20" x="35.03" y="0" xml:space="preserve"> ca</tspan><tspan class="cls-12" x="44.03" y="0">s,</tspan><tspan class="cls-20" x="48.51" y="0"> </tspan><tspan class="cls-12" x="50.83" y="0">sorte</tspan><tspan class="cls-20" x="68.31" y="0">z</tspan><tspan class="cls-17" x="71.8" y="0" xml:space="preserve"> cet</tspan><tspan class="cls-20" x="84.21" y="0">t</tspan><tspan class="cls-16" x="87.53" y="0">e</tspan><tspan class="cls-20" x="90.96" y="0"> </tspan><tspan class="cls-17" x="93.27" y="0">car</tspan><tspan class="cls-3" x="103.69" y="0">t</tspan><tspan class="cls-17" x="107.02" y="0">e</tspan><tspan class="cls-20" x="110.44" y="0" xml:space="preserve"> du</tspan><tspan class="cls-17" x="119.43" y="0" xml:space="preserve"> je</tspan><tspan class="cls-20" x="128.51" y="0">u</tspan><tspan class="cls-17" x="131.92" y="0">.</tspan><tspan class="cls-27" x="133.11" y="0"> </tspan></text>
    </g>
    <path class="cls-1" d="M27.49,85.03v2.86h2.77l-.11.72h-3.47v-7.47h3.43v.73h-2.62v2.43h2.49v.73h-2.49ZM31.04,83.04h.78c.01.14.03.36.03.73.19-.44.57-.83,1.32-.83.81,0,1.43.46,1.43,1.7v3.97h-.81v-3.82c0-.68-.22-1.14-.86-1.14-.75,0-1.07.49-1.07,1.64v3.32h-.81v-3.85c0-1.14,0-1.47-.01-1.73ZM37.28,83.04h.79v-1.49h.8v1.49h.97v.69h-.97v3.66c0,.38.08.62.5.62.13,0,.29,0,.39-.03v.62c-.19.07-.47.09-.66.09-.66,0-1.04-.27-1.04-1.15v-3.82h-.79v-.69ZM43.86,87.63c0,.35.03.81.04.99h-.74c-.03-.12-.06-.42-.06-.63-.21.45-.63.73-1.32.73-1.07,0-1.46-.84-1.46-1.61,0-1.02.69-1.79,2.15-1.79.26,0,.42,0,.58.02v-.74c0-.44-.08-.99-.84-.99-.82,0-.87.59-.9.96h-.78c.02-.8.4-1.62,1.71-1.62,1.08,0,1.6.53,1.6,1.55v3.13ZM43.09,85.98c-.14-.02-.29-.03-.55-.03-.99,0-1.4.48-1.4,1.1,0,.51.27.99.87.99.82,0,1.08-.58,1.08-1.75v-.3ZM45.19,83.04h.78c.01.14.03.36.03.73.19-.44.57-.83,1.32-.83.81,0,1.43.46,1.43,1.7v3.97h-.81v-3.82c0-.68-.22-1.14-.86-1.14-.75,0-1.07.49-1.07,1.64v3.32h-.81v-3.85c0-1.14,0-1.47-.01-1.73ZM49.38,83.04h.79v-1.49h.8v1.49h.97v.69h-.97v3.66c0,.38.08.62.5.62.13,0,.29,0,.39-.03v.62c-.19.07-.47.09-.66.09-.66,0-1.04-.27-1.04-1.15v-3.82h-.79v-.69ZM57.5,87.91c-.21.48-.59.8-1.31.8-1.04,0-1.66-.86-1.66-2.89,0-1.85.7-2.88,1.8-2.88.74,0,1.05.35,1.17.7,0-.31.02-.5.03-.6h.78c-.01.4-.01.86-.01,1.65v5.98h-.79v-2.76ZM55.35,85.84c0,1.33.31,2.18,1.06,2.18.9,0,1.09-.78,1.09-2.21s-.12-2.15-1.03-2.15c-.7,0-1.11.76-1.11,2.18ZM63.13,87.09c0,.7,0,1.26.01,1.53h-.77c-.03-.16-.04-.38-.04-.74-.2.55-.67.84-1.33.84s-1.39-.27-1.39-1.67v-4.01h.81v3.82c0,.71.2,1.15.84,1.15s1.06-.38,1.06-1.58v-3.39h.81v4.05ZM64.97,85.98c0,1.09.19,2.05,1.07,2.05s.99-.83,1.02-1h.79c-.01.14-.17,1.69-1.81,1.69s-1.87-1.51-1.87-2.89c0-1.77.6-2.88,1.92-2.88,1.47,0,1.81,1.21,1.81,2.6,0,.11,0,.29-.01.43h-2.91ZM67.09,85.35c0-.96-.2-1.71-1.02-1.71-1.02,0-1.07,1.33-1.09,1.71h2.1ZM67.09,85.35h0ZM71.02,84.71c0-.99,0-1.41-.01-1.67h.77c.02.16.03.46.03.71.22-.49.61-.81,1.25-.81.58,0,.99.25,1.16.83.2-.45.62-.83,1.35-.83s1.35.34,1.35,1.62v4.05h-.8v-3.91c0-.56-.16-1.05-.79-1.05-.71,0-.95.63-.95,1.38v3.58h-.8v-3.89c0-.69-.23-1.06-.77-1.06-.67,0-.98.61-.98,1.45v3.5h-.8v-3.91ZM78.77,85.98c0,1.09.19,2.05,1.07,2.05s.99-.83,1.02-1h.79c-.01.14-.17,1.69-1.81,1.69s-1.87-1.51-1.87-2.89c0-1.77.6-2.88,1.92-2.88,1.47,0,1.81,1.21,1.81,2.6,0,.11,0,.29-.01.43h-2.91ZM80.88,85.35c0-.96-.2-1.71-1.02-1.71-1.02,0-1.07,1.33-1.09,1.71h2.1ZM80.88,85.35h0ZM82.71,84.71c0-.99,0-1.41-.01-1.67h.77c.02.16.03.46.03.71.22-.49.61-.81,1.25-.81.58,0,.99.25,1.16.83.2-.45.62-.83,1.35-.83s1.35.34,1.35,1.62v4.05h-.8v-3.91c0-.56-.16-1.05-.79-1.05-.71,0-.95.63-.95,1.38v3.58h-.8v-3.89c0-.69-.23-1.06-.77-1.06-.67,0-.98.61-.98,1.45v3.5h-.8v-3.91ZM89.93,80.79h.8v2.99c.18-.43.57-.83,1.33-.83,1.07,0,1.63.89,1.63,2.74,0,1.72-.46,3.02-1.78,3.02-.71,0-1.03-.36-1.2-.75,0,.18-.01.44-.03.66h-.76c.01-.3.01-.85.01-1.53v-6.3ZM92.88,85.7c0-1.4-.33-2.04-1.03-2.04-.86,0-1.14.77-1.14,2.18,0,1.34.22,2.16,1.06,2.16.74,0,1.1-.72,1.1-2.3ZM94.71,83.04h.77c.01.14.03.4.03,1,.24-.67.78-1.07,1.47-1.08v.89c-.96.03-1.46.63-1.46,1.66v3.12h-.8v-3.68c0-.89,0-1.5-.01-1.9ZM98.22,85.98c0,1.09.19,2.05,1.07,2.05s.99-.83,1.02-1h.79c-.01.14-.17,1.69-1.81,1.69s-1.87-1.51-1.87-2.89c0-1.77.6-2.88,1.92-2.88,1.47,0,1.81,1.21,1.81,2.6,0,.11,0,.29-.01.43h-2.91ZM100.34,85.35c0-.96-.2-1.71-1.02-1.71-1.02,0-1.07,1.33-1.09,1.71h2.1ZM100.34,85.35h0ZM104.35,81.15h.82v3.16h2.42v-3.16h.82v7.47h-.82v-3.59h-2.42v3.59h-.82v-7.47ZM110.7,85.03v2.86h2.77l-.11.72h-3.47v-7.47h3.43v.73h-2.62v2.43h2.49v.73h-2.49ZM117.82,80.79v6.4c0,.54,0,1.1.01,1.43h-.78c-.01-.14-.03-.51-.03-.75-.17.48-.53.85-1.31.85-1.16,0-1.65-.99-1.65-2.95,0-1.78.66-2.82,1.83-2.82.72,0,1,.31,1.13.58v-2.74h.8ZM114.88,85.78c0,1.61.37,2.22,1.05,2.22.87,0,1.1-.74,1.1-2.25,0-1.63-.23-2.09-1.03-2.09-.66,0-1.11.58-1.11,2.12ZM118.63,86.66h.82c.06.77.43,1.38,1.25,1.38s1.18-.43,1.18-1.29c0-.79-.32-1.2-1.33-1.69-1.17-.56-1.69-1.08-1.69-2.16,0-1.03.66-1.85,1.88-1.85,1.44,0,1.83,1.03,1.85,1.91h-.81c-.04-.36-.15-1.23-1.08-1.23-.72,0-1.02.49-1.02,1.09,0,.72.32,1.05,1.26,1.5,1.31.62,1.78,1.25,1.78,2.36,0,1.18-.67,2.04-2.04,2.04-1.5,0-1.99-.98-2.05-2.07h0ZM123.14,89.87c.34-.87.56-1.86.6-2.65h.78c-.07,1.02-.39,2.07-.72,2.65h-.66ZM128.9,88.06c.61,0,.9-.37.9-.88,0-.58-.3-.84-1.03-1.13-1.15-.44-1.49-.86-1.49-1.63s.46-1.47,1.6-1.47c1.25,0,1.6.85,1.61,1.59h-.79c-.01-.27-.07-.93-.85-.93-.53,0-.77.33-.77.77s.19.67.97.96c1.08.42,1.56.81,1.56,1.77,0,1.02-.64,1.62-1.75,1.62s-1.72-.69-1.75-1.71h.8c.04.6.35,1.05.99,1.05ZM131.58,83.04h.8v5.58h-.8v-5.58ZM131.58,80.79h.8v1.15h-.8v-1.15ZM136.64,83.04v5.93c0,1.02-.13,1.78-1.21,1.78-.1,0-.22,0-.35-.03v-.71c.1.01.19.01.25.01.43,0,.5-.27.5-.88v-6.11h.8ZM135.84,81.94v-1.15h.8v1.15h-.8ZM138.51,85.98c0,1.09.19,2.05,1.07,2.05s.99-.83,1.02-1h.79c-.01.14-.17,1.69-1.81,1.69s-1.87-1.51-1.87-2.89c0-1.77.6-2.88,1.92-2.88,1.47,0,1.81,1.21,1.81,2.6,0,.11,0,.29-.01.43h-2.91ZM140.62,85.35c0-.96-.2-1.71-1.02-1.71-1.02,0-1.07,1.33-1.09,1.71h2.1ZM140.62,85.35h0Z"/>
    <path class="cls-1" d="M26.69,101.82v-4.89h-.73v-.69h.73v-.77c0-.82.3-1.55,1.31-1.55.15,0,.35.03.45.06v.71c-.1-.02-.23-.05-.37-.05-.44,0-.59.28-.59.84v.75h.88v.69h-.88v4.89h-.8ZM32.2,100.83c0,.35.03.81.04.99h-.74c-.03-.12-.06-.42-.06-.63-.21.45-.63.73-1.32.73-1.07,0-1.46-.84-1.46-1.61,0-1.02.69-1.79,2.15-1.79.26,0,.42,0,.58.02v-.74c0-.44-.08-.99-.84-.99-.82,0-.87.59-.9.96h-.78c.02-.8.4-1.62,1.71-1.62,1.08,0,1.6.53,1.6,1.55v3.13ZM31.43,99.18c-.14-.02-.29-.03-.55-.03-.99,0-1.4.48-1.4,1.1,0,.51.27.99.87.99.82,0,1.08-.58,1.08-1.75v-.3ZM33.54,96.24h.8v5.58h-.8v-5.58ZM33.54,93.99h.8v1.15h-.8v-1.15ZM37.04,101.26c.61,0,.9-.37.9-.88,0-.58-.3-.84-1.03-1.13-1.15-.44-1.49-.86-1.49-1.63s.46-1.47,1.6-1.47c1.25,0,1.6.85,1.61,1.59h-.79c-.01-.27-.07-.93-.85-.93-.53,0-.77.33-.77.77s.19.67.97.96c1.08.42,1.56.81,1.56,1.77,0,1.02-.64,1.62-1.75,1.62s-1.72-.69-1.75-1.71h.8c.04.6.35,1.05.99,1.05ZM42.14,96.24c.46,1.81,1.01,3.99,1.12,4.67h.01c.07-.62.91-3.53,1.18-4.67h.81l-1.6,5.58h-.87l-1.51-5.58h.85ZM46.52,99.18c0,1.09.19,2.05,1.07,2.05s.99-.83,1.02-1h.79c-.01.14-.17,1.69-1.81,1.69s-1.87-1.51-1.87-2.89c0-1.77.6-2.88,1.92-2.88,1.47,0,1.81,1.21,1.81,2.6,0,.11,0,.29-.01.43h-2.91ZM48.64,98.55c0-.96-.2-1.71-1.02-1.71-1.02,0-1.07,1.33-1.09,1.71h2.1ZM48.64,98.55h0ZM50.46,96.24h.78c.01.14.03.36.03.73.19-.44.57-.83,1.32-.83.81,0,1.43.46,1.43,1.7v3.97h-.81v-3.82c0-.68-.22-1.14-.86-1.14-.75,0-1.07.49-1.07,1.64v3.32h-.81v-3.85c0-1.14,0-1.47-.01-1.73ZM55.34,96.24h.8v5.58h-.8v-5.58ZM55.34,93.99h.8v1.15h-.8v-1.15ZM57.46,96.24h.77c.01.14.03.4.03,1,.24-.67.78-1.07,1.47-1.08v.89c-.96.03-1.46.63-1.46,1.66v3.12h-.8v-3.68c0-.89,0-1.5-.01-1.9ZM66.12,100.29c0,.7,0,1.26.01,1.53h-.77c-.03-.16-.04-.38-.04-.74-.2.55-.67.84-1.33.84s-1.39-.27-1.39-1.67v-4.01h.81v3.82c0,.71.2,1.15.84,1.15s1.06-.38,1.06-1.58v-3.39h.81v4.05ZM67.36,96.24h.78c.01.14.03.36.03.73.19-.44.57-.83,1.32-.83.81,0,1.43.46,1.43,1.7v3.97h-.81v-3.82c0-.68-.22-1.14-.86-1.14-.75,0-1.07.49-1.07,1.64v3.32h-.81v-3.85c0-1.14,0-1.47-.01-1.73ZM74.29,101.82v-7.83h.8v7.83h-.8ZM76.43,96.24h.8v5.58h-.8v-5.58ZM76.43,93.99h.8v1.15h-.8v-1.15ZM78.86,96.24c.46,1.81,1.01,3.99,1.12,4.67h.01c.07-.62.91-3.53,1.18-4.67h.81l-1.6,5.58h-.87l-1.51-5.58h.85ZM82.66,96.24h.77c.01.14.03.4.03,1,.24-.67.78-1.07,1.47-1.08v.89c-.96.03-1.46.63-1.46,1.66v3.12h-.8v-3.68c0-.89,0-1.5-.01-1.9ZM86.18,99.18c0,1.09.19,2.05,1.07,2.05s.99-.83,1.02-1h.79c-.01.14-.17,1.69-1.81,1.69s-1.87-1.51-1.87-2.89c0-1.77.6-2.88,1.92-2.88,1.47,0,1.81,1.21,1.81,2.6,0,.11,0,.29-.01.43h-2.91ZM88.3,98.55c0-.96-.2-1.71-1.02-1.71-1.02,0-1.07,1.33-1.09,1.71h2.1ZM88.3,98.55h0ZM95.71,93.99v6.4c0,.54,0,1.1.01,1.43h-.78c-.01-.14-.03-.51-.03-.75-.17.48-.53.85-1.31.85-1.16,0-1.65-.99-1.65-2.95,0-1.78.66-2.82,1.83-2.82.72,0,1,.31,1.13.58v-2.74h.8ZM92.77,98.98c0,1.61.37,2.22,1.05,2.22.87,0,1.1-.74,1.1-2.25,0-1.63-.23-2.09-1.03-2.09-.66,0-1.11.58-1.11,2.12ZM97.55,99.18c0,1.09.19,2.05,1.07,2.05s.99-.83,1.02-1h.79c-.01.14-.17,1.69-1.81,1.69s-1.87-1.51-1.87-2.89c0-1.77.6-2.88,1.92-2.88,1.47,0,1.81,1.21,1.81,2.6,0,.11,0,.29-.01.43h-2.91ZM99.67,98.55c0-.96-.2-1.71-1.02-1.71-1.02,0-1.07,1.33-1.09,1.71h2.1ZM99.67,98.55h0ZM102.3,101.25v2.62h-.8v-6c0-.76,0-1.28-.01-1.63h.78c.01.1.03.47.03.75.2-.48.59-.84,1.33-.84,1.06,0,1.63.94,1.63,2.8,0,2.01-.7,2.97-1.79,2.97-.67,0-1-.32-1.16-.67ZM104.43,98.99c0-1.4-.32-2.13-1.06-2.13-.86,0-1.1.82-1.1,2.14s.13,2.21,1.05,2.21c.73,0,1.1-.85,1.1-2.22ZM109.81,100.29c0,.7,0,1.26.01,1.53h-.77c-.03-.16-.04-.38-.04-.74-.2.55-.67.84-1.33.84s-1.39-.27-1.39-1.67v-4.01h.81v3.82c0,.71.2,1.15.84,1.15s1.06-.38,1.06-1.58v-3.39h.81v4.05ZM111.12,96.24h.8v5.58h-.8v-5.58ZM111.13,93.99h.8v1.15h-.8v-1.15ZM114.62,101.26c.61,0,.9-.37.9-.88,0-.58-.3-.84-1.03-1.13-1.15-.44-1.49-.86-1.49-1.63s.46-1.47,1.6-1.47c1.25,0,1.6.85,1.61,1.59h-.79c-.01-.27-.07-.93-.85-.93-.53,0-.77.33-.77.77s.19.67.97.96c1.08.42,1.56.81,1.56,1.77,0,1.02-.64,1.62-1.75,1.62s-1.72-.69-1.75-1.71h.8c.04.6.35,1.05.99,1.05ZM122.94,100.29c0,.7,0,1.26.01,1.53h-.77c-.03-.16-.04-.38-.04-.74-.2.55-.67.84-1.33.84s-1.39-.27-1.39-1.67v-4.01h.81v3.82c0,.71.2,1.15.84,1.15s1.06-.38,1.06-1.58v-3.39h.81v4.05ZM124.18,96.24h.78c.01.14.03.36.03.73.19-.44.57-.83,1.32-.83.81,0,1.43.46,1.43,1.7v3.97h-.81v-3.82c0-.68-.22-1.14-.86-1.14-.75,0-1.07.49-1.07,1.64v3.32h-.81v-3.85c0-1.14,0-1.47-.01-1.73ZM129.6,99.18c0,1.09.19,2.05,1.07,2.05s.99-.83,1.02-1h.79c-.01.14-.17,1.69-1.81,1.69s-1.87-1.51-1.87-2.89c0-1.77.6-2.88,1.92-2.88,1.47,0,1.81,1.21,1.81,2.6,0,.11,0,.29-.01.43h-2.91ZM131.71,98.55c0-.96-.2-1.71-1.02-1.71-1.02,0-1.07,1.33-1.09,1.71h2.1ZM131.71,98.55h0ZM138.88,100.83c0,.35.03.81.04.99h-.74c-.03-.12-.06-.42-.06-.63-.21.45-.63.73-1.32.73-1.07,0-1.46-.84-1.46-1.61,0-1.02.69-1.79,2.15-1.79.26,0,.42,0,.58.02v-.74c0-.44-.08-.99-.84-.99-.82,0-.87.59-.9.96h-.78c.02-.8.4-1.62,1.71-1.62,1.08,0,1.6.53,1.6,1.55v3.13ZM138.11,99.18c-.14-.02-.29-.03-.55-.03-.99,0-1.4.48-1.4,1.1,0,.51.27.99.87.99.82,0,1.08-.58,1.08-1.75v-.3ZM143.67,100.29c0,.7,0,1.26.01,1.53h-.77c-.03-.16-.04-.38-.04-.74-.2.55-.67.84-1.33.84s-1.39-.27-1.39-1.67v-4.01h.81v3.82c0,.71.2,1.15.84,1.15s1.06-.38,1.06-1.58v-3.39h.81v4.05ZM144.41,96.24h.79v-1.49h.8v1.49h.97v.69h-.97v3.66c0,.38.08.62.5.62.13,0,.29,0,.39-.03v.62c-.19.07-.47.09-.66.09-.66,0-1.04-.27-1.04-1.15v-3.82h-.79v-.69ZM147.72,96.24h.77c.01.14.03.4.03,1,.24-.67.78-1.07,1.47-1.08v.89c-.96.03-1.46.63-1.46,1.66v3.12h-.8v-3.68c0-.89,0-1.5-.01-1.9ZM151.23,99.18c0,1.09.19,2.05,1.07,2.05s.99-.83,1.02-1h.79c-.01.14-.17,1.69-1.81,1.69s-1.87-1.51-1.87-2.89c0-1.77.6-2.88,1.92-2.88,1.47,0,1.81,1.21,1.81,2.6,0,.11,0,.29-.01.43h-2.91ZM153.35,98.55c0-.96-.2-1.71-1.02-1.71-1.02,0-1.07,1.33-1.09,1.71h2.1ZM153.35,98.55h0Z"/>
    <path class="cls-1" d="M26.6,107.19h.8v2.99c.18-.43.57-.83,1.33-.83,1.07,0,1.63.89,1.63,2.74,0,1.72-.46,3.02-1.78,3.02-.71,0-1.03-.36-1.2-.75,0,.18-.01.44-.03.66h-.76c.01-.3.01-.85.01-1.53v-6.3ZM29.55,112.1c0-1.4-.33-2.04-1.03-2.04-.86,0-1.14.77-1.14,2.18,0,1.34.22,2.16,1.06,2.16.74,0,1.1-.72,1.1-2.3ZM31.39,109.44h.8v5.58h-.8v-5.58ZM31.4,107.19h.8v1.15h-.8v-1.15ZM33.56,107.19h.8v2.99c.18-.43.57-.83,1.33-.83,1.07,0,1.63.89,1.63,2.74,0,1.72-.46,3.02-1.78,3.02-.71,0-1.03-.36-1.2-.75,0,.18-.01.44-.03.66h-.76c.01-.3.01-.85.01-1.53v-6.3ZM36.5,112.1c0-1.4-.33-2.04-1.03-2.04-.86,0-1.14.77-1.14,2.18,0,1.34.22,2.16,1.06,2.16.74,0,1.1-.72,1.1-2.3ZM38.35,115.02v-7.83h.8v7.83h-.8ZM40.48,109.44h.8v5.58h-.8v-5.58ZM40.48,107.19h.8v1.15h-.8v-1.15ZM46.18,112.16c0,1.96-.66,2.96-1.92,2.96s-1.92-.96-1.92-2.94.76-2.83,1.95-2.83,1.89.94,1.89,2.82ZM43.16,112.19c0,1.52.38,2.24,1.1,2.24s1.09-.73,1.09-2.24c0-1.43-.35-2.13-1.09-2.13s-1.1.63-1.1,2.14ZM46.55,109.44h.79v-1.49h.8v1.49h.97v.69h-.97v3.66c0,.38.08.62.5.62.13,0,.29,0,.39-.03v.62c-.19.07-.47.09-.66.09-.66,0-1.04-.27-1.04-1.15v-3.82h-.79v-.69ZM50.69,107.19v2.93c.19-.45.63-.78,1.34-.78.82,0,1.41.51,1.41,1.71v3.97h-.81v-3.8c0-.68-.2-1.16-.88-1.16-.77,0-1.05.63-1.05,1.6v3.35h-.81v-7.83h.81ZM55.28,112.38c0,1.09.19,2.05,1.07,2.05s.99-.83,1.02-1h.79c-.01.14-.17,1.69-1.81,1.69s-1.87-1.51-1.87-2.89c0-1.77.6-2.88,1.92-2.88,1.47,0,1.81,1.21,1.81,2.6,0,.11,0,.29-.01.43h-2.91ZM55.68,107.07l1.18,1.53h-.76l-1.39-1.53h.97ZM57.4,111.75c0-.96-.2-1.71-1.02-1.71-1.02,0-1.07,1.33-1.09,1.71h2.1ZM57.4,111.75h0ZM62.01,114.31c-.21.48-.59.8-1.31.8-1.04,0-1.66-.86-1.66-2.89,0-1.85.7-2.88,1.8-2.88.74,0,1.05.35,1.17.7,0-.31.02-.5.03-.6h.78c-.01.4-.01.86-.01,1.65v5.98h-.79v-2.76ZM59.86,112.24c0,1.33.31,2.18,1.06,2.18.9,0,1.09-.78,1.09-2.21s-.12-2.15-1.03-2.15c-.7,0-1.11.76-1.11,2.18ZM67.64,113.49c0,.7,0,1.26.01,1.53h-.77c-.03-.16-.04-.38-.04-.74-.2.55-.67.84-1.33.84s-1.39-.27-1.39-1.67v-4.01h.81v3.82c0,.71.2,1.15.84,1.15s1.06-.38,1.06-1.58v-3.39h.81v4.05ZM69.48,112.38c0,1.09.19,2.05,1.07,2.05s.99-.83,1.02-1h.79c-.01.14-.17,1.69-1.81,1.69s-1.87-1.51-1.87-2.89c0-1.77.6-2.88,1.92-2.88,1.47,0,1.81,1.21,1.81,2.6,0,.11,0,.29-.01.43h-2.91ZM71.6,111.75c0-.96-.2-1.71-1.02-1.71-1.02,0-1.07,1.33-1.09,1.71h2.1ZM71.6,111.75h0ZM72.79,116.27c.34-.87.56-1.86.6-2.65h.78c-.07,1.02-.39,2.07-.72,2.65h-.66ZM77.98,109.44v5.93c0,1.02-.13,1.78-1.21,1.78-.1,0-.22,0-.35-.03v-.71c.1.01.19.01.25.01.43,0,.5-.27.5-.88v-6.11h.8ZM77.19,108.34v-1.15h.8v1.15h-.8ZM79.85,112.38c0,1.09.19,2.05,1.07,2.05s.99-.83,1.02-1h.79c-.01.14-.17,1.69-1.81,1.69s-1.87-1.51-1.87-2.89c0-1.77.6-2.88,1.92-2.88,1.47,0,1.81,1.21,1.81,2.6,0,.11,0,.29-.01.43h-2.91ZM81.97,111.75c0-.96-.2-1.71-1.02-1.71-1.02,0-1.07,1.33-1.09,1.71h2.1ZM81.97,111.75h0ZM85.89,109.44h.78c.01.14.03.36.03.73.19-.44.57-.83,1.32-.83.81,0,1.43.46,1.43,1.7v3.97h-.81v-3.82c0-.68-.22-1.14-.86-1.14-.75,0-1.07.49-1.07,1.64v3.32h-.81v-3.85c0-1.14,0-1.47-.01-1.73ZM91.31,112.38c0,1.09.19,2.05,1.07,2.05s.99-.83,1.02-1h.79c-.01.14-.17,1.69-1.81,1.69s-1.87-1.51-1.87-2.89c0-1.77.6-2.88,1.92-2.88,1.47,0,1.81,1.21,1.81,2.6,0,.11,0,.29-.01.43h-2.91ZM93.42,111.75c0-.96-.2-1.71-1.02-1.71-1.02,0-1.07,1.33-1.09,1.71h2.1ZM93.42,111.75h0ZM100.83,107.19v6.4c0,.54,0,1.1.01,1.43h-.78c-.01-.14-.03-.51-.03-.75-.17.48-.53.85-1.31.85-1.16,0-1.65-.99-1.65-2.95,0-1.78.66-2.82,1.83-2.82.72,0,1,.31,1.13.58v-2.74h.8ZM97.9,112.18c0,1.61.37,2.22,1.05,2.22.87,0,1.1-.74,1.1-2.25,0-1.63-.23-2.09-1.03-2.09-.66,0-1.11.58-1.11,2.12ZM105.71,112.16c0,1.96-.66,2.96-1.92,2.96s-1.92-.96-1.92-2.94.76-2.83,1.95-2.83,1.89.94,1.89,2.82ZM102.69,112.19c0,1.52.38,2.24,1.1,2.24s1.09-.73,1.09-2.24c0-1.43-.35-2.13-1.09-2.13s-1.1.63-1.1,2.14ZM106.75,109.44h.8v5.58h-.8v-5.58ZM106.76,107.19h.8v1.15h-.8v-1.15ZM110.26,114.46c.61,0,.9-.37.9-.88,0-.58-.3-.84-1.03-1.13-1.15-.44-1.49-.86-1.49-1.63s.46-1.47,1.6-1.47c1.25,0,1.6.85,1.61,1.59h-.79c-.01-.27-.07-.93-.85-.93-.53,0-.77.33-.77.77s.19.67.97.96c1.08.42,1.56.81,1.56,1.77,0,1.02-.64,1.62-1.75,1.62s-1.72-.69-1.75-1.71h.8c.04.6.35,1.05.99,1.05ZM115.05,109.44h.77c.01.14.03.4.03,1,.24-.67.78-1.07,1.47-1.08v.89c-.96.03-1.46.63-1.46,1.66v3.12h-.8v-3.68c0-.89,0-1.5-.01-1.9ZM118.06,109.44h.8v5.58h-.8v-5.58ZM118.07,107.19h.8v1.15h-.8v-1.15ZM120.73,112.38c0,1.09.19,2.05,1.07,2.05s.99-.83,1.02-1h.79c-.01.14-.17,1.69-1.81,1.69s-1.87-1.51-1.87-2.89c0-1.77.6-2.88,1.92-2.88,1.47,0,1.81,1.21,1.81,2.6,0,.11,0,.29-.01.43h-2.91ZM122.85,111.75c0-.96-.2-1.71-1.02-1.71-1.02,0-1.07,1.33-1.09,1.71h2.1ZM122.85,111.75h0ZM124.66,109.44h.78c.01.14.03.36.03.73.19-.44.57-.83,1.32-.83.81,0,1.43.46,1.43,1.7v3.97h-.81v-3.82c0-.68-.22-1.14-.86-1.14-.75,0-1.07.49-1.07,1.64v3.32h-.81v-3.85c0-1.14,0-1.47-.01-1.73ZM132.4,114.45v2.62h-.8v-6c0-.76,0-1.28-.01-1.63h.78c.01.1.03.47.03.75.2-.48.59-.84,1.33-.84,1.06,0,1.63.94,1.63,2.8,0,2.01-.7,2.97-1.79,2.97-.67,0-1-.32-1.16-.67ZM134.53,112.19c0-1.4-.32-2.13-1.06-2.13-.86,0-1.1.82-1.1,2.14s.13,2.21,1.05,2.21c.73,0,1.1-.85,1.1-2.22ZM139.62,114.03c0,.35.03.81.04.99h-.74c-.03-.12-.06-.42-.06-.63-.21.45-.63.73-1.32.73-1.07,0-1.46-.84-1.46-1.61,0-1.02.69-1.79,2.15-1.79.26,0,.42,0,.58.02v-.74c0-.44-.08-.99-.84-.99-.82,0-.87.59-.9.96h-.78c.02-.8.4-1.62,1.71-1.62,1.08,0,1.6.53,1.6,1.55v3.13ZM138.85,112.38c-.14-.02-.29-.03-.55-.03-.99,0-1.4.48-1.4,1.1,0,.51.27.99.87.99.82,0,1.08-.58,1.08-1.75v-.3ZM142.27,114.04h.01c.11-.64.61-2.55,1.14-4.6h.83l-1.63,5.86c-.45,1.63-.89,1.85-1.68,1.85-.12,0-.29-.01-.4-.04v-.72c.08.02.24.03.37.03.58,0,.75-.4.97-1.29l-1.63-5.69h.88c.6,2.33,1.06,4.01,1.14,4.6ZM145.55,112.38c0,1.09.19,2.05,1.07,2.05s.99-.83,1.02-1h.79c-.01.14-.17,1.69-1.81,1.69s-1.87-1.51-1.87-2.89c0-1.77.6-2.88,1.92-2.88,1.47,0,1.81,1.21,1.81,2.6,0,.11,0,.29-.01.43h-2.91ZM147.66,111.75c0-.96-.2-1.71-1.02-1.71-1.02,0-1.07,1.33-1.09,1.71h2.1ZM147.66,111.75h0ZM149.48,109.44h.77c.01.14.03.4.03,1,.24-.67.78-1.07,1.47-1.08v.89c-.96.03-1.46.63-1.46,1.66v3.12h-.8v-3.68c0-.89,0-1.5-.01-1.9ZM151.83,113.51h.82v1.51h-.82v-1.51Z"/>
    <path class="cls-1" d="M27.35,141.56v3.13h-.74v-6.79h1.77c1.14,0,1.74.65,1.74,1.75,0,1.01-.5,1.45-.91,1.59.63.22.82.78.82,1.73v.27c0,.63.02,1.08.1,1.45h-.74c-.09-.31-.1-.91-.1-1.46v-.23c0-.97-.2-1.43-1.11-1.43h-.82ZM27.35,140.93h.87c.83,0,1.14-.47,1.14-1.26,0-.68-.32-1.14-1.07-1.14h-.94v2.4ZM31.7,142.29c0,.99.17,1.86.97,1.86s.9-.75.92-.91h.72c-.01.13-.16,1.54-1.65,1.54s-1.7-1.37-1.7-2.63c0-1.6.55-2.62,1.74-2.62,1.33,0,1.65,1.1,1.65,2.36,0,.1,0,.27-.01.39h-2.64ZM33.63,141.72c0-.87-.18-1.55-.92-1.55-.93,0-.97,1.21-.99,1.55h1.91ZM34.1,137.46l-1.25,1.39h-.68l1.07-1.39h.87ZM33.63,141.72h0ZM36.02,144.17v2.38h-.73v-5.45c0-.69,0-1.16,0-1.48h.71c.01.09.03.43.03.68.18-.44.53-.77,1.21-.77.96,0,1.48.85,1.48,2.55,0,1.82-.63,2.7-1.63,2.7-.61,0-.91-.29-1.05-.61ZM37.95,142.12c0-1.27-.3-1.93-.96-1.93-.79,0-1,.75-1,1.94s.11,2.01.96,2.01c.66,0,1-.77,1-2.02ZM42.92,142.09c0,1.78-.6,2.69-1.74,2.69s-1.74-.87-1.74-2.67.69-2.58,1.77-2.58,1.71.86,1.71,2.56ZM40.18,142.11c0,1.38.34,2.03,1,2.03s.99-.66.99-2.04c0-1.3-.32-1.93-.99-1.93s-1,.57-1,1.94ZM43.86,139.62h.71c.01.12.03.32.03.66.17-.4.52-.75,1.2-.75.73,0,1.3.42,1.3,1.54v3.61h-.74v-3.47c0-.62-.2-1.04-.78-1.04-.68,0-.97.45-.97,1.49v3.02h-.74v-3.5c0-1.04,0-1.33,0-1.57ZM49.55,144.18c.55,0,.82-.33.82-.8,0-.52-.27-.76-.93-1.02-1.05-.4-1.35-.78-1.35-1.48s.42-1.34,1.45-1.34c1.13,0,1.46.77,1.46,1.44h-.72c-.01-.24-.07-.84-.77-.84-.48,0-.7.3-.7.7s.18.6.88.88c.98.38,1.41.74,1.41,1.6,0,.92-.58,1.47-1.59,1.47s-1.56-.63-1.59-1.55h.73c.03.54.32.95.9.95ZM52.5,142.29c0,.99.17,1.86.97,1.86s.9-.75.92-.91h.72c-.01.13-.16,1.54-1.65,1.54s-1.7-1.37-1.7-2.63c0-1.6.55-2.62,1.74-2.62,1.33,0,1.65,1.1,1.65,2.36,0,.1,0,.27-.01.39h-2.64ZM54.42,141.72c0-.87-.18-1.55-.92-1.55-.93,0-.97,1.21-.99,1.55h1.91ZM54.42,141.72h0ZM58.05,141.14v-1.37h.71v1.37h-.71ZM58.05,143.32h.71v1.38h-.71v-1.38ZM63.06,144.69l-1.68-6.79h.8l.75,3.22c.22.95.48,2.13.57,2.78h.02c.09-.59.41-1.82.64-2.78l.77-3.23h.77l-1.75,6.79h-.9ZM66.06,139.62h.7c0,.13.02.37.02.9.22-.61.7-.97,1.34-.98v.81c-.87.03-1.33.58-1.33,1.51v2.83h-.73v-3.34c0-.81,0-1.36,0-1.73ZM71.64,143.79c0,.32.03.74.04.9h-.67c-.03-.11-.05-.38-.05-.58-.19.41-.57.67-1.2.67-.97,0-1.32-.76-1.32-1.47,0-.93.63-1.62,1.96-1.62.24,0,.38,0,.53.02v-.68c0-.4-.08-.9-.76-.9-.74,0-.79.53-.82.87h-.71c.02-.72.37-1.47,1.55-1.47.98,0,1.46.48,1.46,1.41v2.84ZM70.94,142.29c-.13-.02-.27-.03-.5-.03-.9,0-1.27.43-1.27,1,0,.47.25.9.79.9.74,0,.98-.52.98-1.59v-.28ZM72.86,139.62h.73v5.07h-.73v-5.07ZM72.86,137.57h.73v1.05h-.73v-1.05Z"/>
    <path class="cls-1" d="M26.61,152.73h.74v6.13h2.42l-.11.65h-3.06v-6.79ZM30.92,157.12c0,.99.17,1.86.97,1.86s.9-.75.92-.91h.72c-.01.13-.16,1.54-1.65,1.54s-1.7-1.37-1.7-2.63c0-1.6.55-2.62,1.74-2.62,1.33,0,1.65,1.1,1.65,2.36,0,.1,0,.27-.01.39h-2.64ZM32.85,156.55c0-.87-.18-1.55-.92-1.55-.93,0-.97,1.21-.99,1.55h1.91ZM32.85,156.55h0ZM35.82,159.01c.55,0,.82-.33.82-.8,0-.52-.27-.76-.93-1.02-1.05-.4-1.35-.78-1.35-1.48s.42-1.34,1.45-1.34c1.13,0,1.46.77,1.46,1.44h-.72c-.01-.24-.07-.84-.77-.84-.48,0-.7.3-.7.7s.18.6.88.88c.98.38,1.41.74,1.41,1.6,0,.92-.58,1.47-1.59,1.47s-1.56-.63-1.59-1.55h.73c.03.54.32.95.9.95ZM40.27,159.52v-4.44h-.66v-.63h.66v-.7c0-.75.27-1.41,1.19-1.41.14,0,.32.02.41.05v.65c-.09-.02-.21-.04-.33-.04-.4,0-.54.25-.54.76v.68h.8v.63h-.8v4.44h-.73ZM42.43,154.45h.7c0,.13.02.37.02.9.22-.61.7-.97,1.34-.98v.81c-.87.03-1.33.58-1.33,1.51v2.83h-.73v-3.34c0-.81,0-1.36,0-1.73ZM48.01,158.62c0,.32.03.74.04.9h-.67c-.03-.11-.05-.38-.05-.58-.19.41-.57.67-1.2.67-.97,0-1.32-.76-1.32-1.47,0-.93.63-1.62,1.96-1.62.24,0,.38,0,.53.02v-.68c0-.4-.08-.9-.76-.9-.74,0-.79.53-.82.87h-.71c.02-.72.37-1.47,1.55-1.47.98,0,1.46.48,1.46,1.41v2.84ZM47.31,157.12c-.13-.02-.27-.03-.5-.03-.9,0-1.27.43-1.27,1,0,.47.25.9.79.9.74,0,.98-.52.98-1.59v-.28ZM49.23,154.45h.73v5.07h-.73v-5.07ZM49.23,152.4h.73v1.05h-.73v-1.05ZM52.41,159.01c.55,0,.82-.33.82-.8,0-.52-.27-.76-.93-1.02-1.05-.4-1.35-.78-1.35-1.48s.42-1.34,1.45-1.34c1.13,0,1.46.77,1.46,1.44h-.72c-.01-.24-.07-.84-.77-.84-.48,0-.7.3-.7.7s.18.6.88.88c.98.38,1.41.74,1.41,1.6,0,.92-.58,1.47-1.59,1.47s-1.56-.63-1.59-1.55h.73c.03.54.32.95.9.95ZM58.03,159.01c.55,0,.82-.33.82-.8,0-.52-.27-.76-.93-1.02-1.05-.4-1.35-.78-1.35-1.48s.42-1.34,1.45-1.34c1.13,0,1.46.77,1.46,1.44h-.72c-.01-.24-.07-.84-.77-.84-.48,0-.7.3-.7.7s.18.6.88.88c.98.38,1.41.74,1.41,1.6,0,.92-.58,1.47-1.59,1.47s-1.56-.63-1.59-1.55h.73c.03.54.32.95.9.95ZM63.74,156.92c0,1.78-.6,2.69-1.74,2.69s-1.74-.87-1.74-2.67.69-2.58,1.77-2.58,1.71.86,1.71,2.56ZM61,156.94c0,1.38.34,2.03,1,2.03s.99-.66.99-2.04c0-1.3-.32-1.93-.99-1.93s-1,.57-1,1.94ZM64.68,154.45h.71c.01.12.03.32.03.66.17-.4.52-.75,1.2-.75.73,0,1.3.42,1.3,1.54v3.61h-.74v-3.47c0-.62-.2-1.04-.78-1.04-.68,0-.97.45-.97,1.49v3.02h-.74v-3.5c0-1.04,0-1.33,0-1.57ZM68.49,154.45h.71v-1.35h.72v1.35h.88v.63h-.88v3.33c0,.35.08.57.46.57.12,0,.26,0,.36-.03v.56c-.17.07-.43.08-.6.08-.6,0-.94-.24-.94-1.04v-3.47h-.71v-.63ZM74.15,159v2.38h-.73v-5.45c0-.69,0-1.16,0-1.48h.71c.01.09.03.43.03.68.18-.44.53-.77,1.21-.77.96,0,1.48.85,1.48,2.55,0,1.82-.63,2.7-1.63,2.7-.61,0-.91-.29-1.05-.61ZM76.08,156.95c0-1.27-.3-1.93-.96-1.93-.79,0-1,.75-1,1.94s.11,2.01.96,2.01c.66,0,1-.77,1-2.02ZM77.78,154.45h.7c0,.13.02.37.02.9.22-.61.7-.97,1.34-.98v.81c-.87.03-1.33.58-1.33,1.51v2.83h-.73v-3.34c0-.81,0-1.36,0-1.73ZM80.52,154.45h.73v5.07h-.73v-5.07ZM80.52,152.4h.73v1.05h-.73v-1.05ZM83.7,159.01c.55,0,.82-.33.82-.8,0-.52-.27-.76-.93-1.02-1.05-.4-1.35-.78-1.35-1.48s.42-1.34,1.45-1.34c1.13,0,1.46.77,1.46,1.44h-.72c-.01-.24-.07-.84-.77-.84-.48,0-.7.3-.7.7s.18.6.88.88c.98.38,1.41.74,1.41,1.6,0,.92-.58,1.47-1.59,1.47s-1.56-.63-1.59-1.55h.73c.03.54.32.95.9.95ZM88.55,157.12c0,.99.17,1.86.97,1.86s.9-.75.92-.91h.72c-.01.13-.16,1.54-1.65,1.54s-1.7-1.37-1.7-2.63c0-1.6.55-2.62,1.74-2.62,1.33,0,1.65,1.1,1.65,2.36,0,.1,0,.27-.01.39h-2.64ZM90.47,156.55c0-.87-.18-1.55-.92-1.55-.93,0-.97,1.21-.99,1.55h1.91ZM90.47,156.55h0ZM92.13,154.45h.71c.01.12.03.32.03.66.17-.4.52-.75,1.2-.75.73,0,1.3.42,1.3,1.54v3.61h-.74v-3.47c0-.62-.2-1.04-.78-1.04-.68,0-.97.45-.97,1.49v3.02h-.74v-3.5c0-1.04,0-1.33,0-1.57ZM101.47,157.97c-.02.27-.13,1.64-1.61,1.64-1.33,0-1.68-1.17-1.68-2.64s.46-2.6,1.75-2.6c1.47,0,1.54,1.36,1.54,1.6h-.75c0-.21-.08-.97-.8-.97s-1,.8-1,1.97c0,1.26.28,2.01.96,2.01.73,0,.82-.74.86-1.01h.73ZM103.08,152.4v2.67c.18-.41.57-.71,1.21-.71.74,0,1.28.46,1.28,1.55v3.6h-.74v-3.45c0-.62-.18-1.05-.8-1.05-.7,0-.95.57-.95,1.46v3.05h-.74v-7.12h.74ZM109.63,158.62c0,.32.03.74.04.9h-.67c-.03-.11-.05-.38-.05-.58-.19.41-.57.67-1.2.67-.97,0-1.32-.76-1.32-1.47,0-.93.63-1.62,1.96-1.62.24,0,.38,0,.53.02v-.68c0-.4-.08-.9-.76-.9-.74,0-.79.53-.82.87h-.71c.02-.72.37-1.47,1.55-1.47.98,0,1.46.48,1.46,1.41v2.84ZM108.93,157.12c-.13-.02-.27-.03-.5-.03-.9,0-1.27.43-1.27,1,0,.47.25.9.79.9.74,0,.98-.52.98-1.59v-.28ZM110.84,154.45h.7c0,.13.02.37.02.9.22-.61.7-.97,1.34-.98v.81c-.87.03-1.33.58-1.33,1.51v2.83h-.73v-3.34c0-.81,0-1.36,0-1.73ZM116.68,159.19c0,1.33-.32,2.27-1.77,2.27-1.31,0-1.59-.85-1.62-1.4h.74c.02.28.19.77.9.77.85,0,1.03-.62,1.03-1.64v-.46c-.18.52-.61.77-1.18.77-1.02,0-1.53-.87-1.53-2.46,0-1.82.67-2.68,1.64-2.68.69,0,.98.33,1.07.66,0-.22.02-.47.04-.58h.7c0,.27-.01.78-.01,1.46v3.28ZM114,157.03c0,1.23.34,1.83.97,1.83.79,0,1-.77,1-1.95s-.16-1.89-.94-1.89c-.67,0-1.03.7-1.03,2.02ZM118.38,157.12c0,.99.17,1.86.97,1.86s.9-.75.92-.91h.72c-.01.13-.16,1.54-1.65,1.54s-1.7-1.37-1.7-2.63c0-1.6.55-2.62,1.74-2.62,1.33,0,1.65,1.1,1.65,2.36,0,.1,0,.27-.01.39h-2.64ZM120.3,156.55c0-.87-.18-1.55-.92-1.55-.93,0-.97,1.21-.99,1.55h1.91ZM120.3,156.55h0ZM124.61,159v2.38h-.73v-5.45c0-.69,0-1.16,0-1.48h.71c.01.09.03.43.03.68.18-.44.53-.77,1.21-.77.96,0,1.48.85,1.48,2.55,0,1.82-.63,2.7-1.63,2.7-.61,0-.91-.29-1.05-.61ZM126.54,156.95c0-1.27-.3-1.93-.96-1.93-.79,0-1,.75-1,1.94s.11,2.01.96,2.01c.66,0,1-.77,1-2.02ZM131.17,158.62c0,.32.03.74.04.9h-.67c-.03-.11-.05-.38-.05-.58-.19.41-.57.67-1.2.67-.97,0-1.32-.76-1.32-1.47,0-.93.63-1.62,1.96-1.62.24,0,.38,0,.53.02v-.68c0-.4-.08-.9-.76-.9-.74,0-.79.53-.82.87h-.71c.02-.72.37-1.47,1.55-1.47.98,0,1.46.48,1.46,1.41v2.84ZM130.47,157.12c-.13-.02-.27-.03-.5-.03-.9,0-1.27.43-1.27,1,0,.47.25.9.79.9.74,0,.98-.52.98-1.59v-.28ZM132.38,154.45h.7c0,.13.02.37.02.9.22-.61.7-.97,1.34-.98v.81c-.87.03-1.33.58-1.33,1.51v2.83h-.73v-3.34c0-.81,0-1.36,0-1.73ZM137.06,159.52v-7.12h.73v7.12h-.73ZM141.89,158.62c0,.32.03.74.04.9h-.67c-.03-.11-.05-.38-.05-.58-.19.41-.57.67-1.2.67-.97,0-1.32-.76-1.32-1.47,0-.93.63-1.62,1.96-1.62.24,0,.38,0,.53.02v-.68c0-.4-.08-.9-.76-.9-.74,0-.79.53-.82.87h-.71c.02-.72.37-1.47,1.55-1.47.98,0,1.46.48,1.46,1.41v2.84ZM141.19,157.12c-.13-.02-.27-.03-.5-.03-.9,0-1.27.43-1.27,1,0,.47.25.9.79.9.74,0,.98-.52.98-1.59v-.28Z"/>
    <path class="cls-1" d="M26.61,164.73h1.77c1.02,0,1.64.61,1.64,1.65,0,.91-.44,1.3-.83,1.44.51.18,1.06.66,1.06,1.7,0,1.22-.74,1.99-1.91,1.99h-1.72v-6.79ZM28.12,167.56c.85,0,1.16-.38,1.16-1.11,0-.68-.36-1.1-1.07-1.1h-.87v2.21h.78ZM27.34,170.9h.91c.8,0,1.23-.48,1.23-1.37s-.46-1.36-1.37-1.36h-.77v2.73ZM31.18,166.45h.73v5.07h-.73v-5.07ZM31.18,164.4h.73v1.05h-.73v-1.05ZM33.14,164.4h.73v2.72c.16-.39.51-.76,1.21-.76.97,0,1.48.81,1.48,2.49,0,1.57-.42,2.74-1.62,2.74-.65,0-.94-.32-1.09-.68,0,.17-.01.4-.03.6h-.69c0-.27,0-.77,0-1.39v-5.72ZM35.82,168.87c0-1.27-.3-1.86-.93-1.86-.78,0-1.04.7-1.04,1.98,0,1.22.2,1.96.97,1.96.68,0,1-.66,1-2.09ZM37.5,171.52v-7.12h.73v7.12h-.73ZM39.44,166.45h.73v5.07h-.73v-5.07ZM39.44,164.4h.73v1.05h-.73v-1.05ZM44.62,168.92c0,1.78-.6,2.69-1.74,2.69s-1.74-.87-1.74-2.67.69-2.58,1.77-2.58,1.71.86,1.71,2.56ZM41.88,168.94c0,1.38.34,2.03,1,2.03s.99-.66.99-2.04c0-1.3-.32-1.93-.99-1.93s-1,.57-1,1.94ZM44.96,166.45h.71v-1.35h.72v1.35h.88v.63h-.88v3.33c0,.35.08.57.46.57.12,0,.26,0,.36-.03v.56c-.17.07-.43.08-.6.08-.6,0-.94-.24-.94-1.04v-3.47h-.71v-.63ZM48.72,164.4v2.67c.18-.41.57-.71,1.21-.71.74,0,1.28.46,1.28,1.55v3.6h-.74v-3.45c0-.62-.18-1.05-.8-1.05-.7,0-.95.57-.95,1.46v3.05h-.74v-7.12h.74ZM52.89,169.12c0,.99.17,1.86.97,1.86s.9-.75.92-.91h.72c-.01.13-.16,1.54-1.65,1.54s-1.7-1.37-1.7-2.63c0-1.6.55-2.62,1.74-2.62,1.33,0,1.65,1.1,1.65,2.36,0,.1,0,.27-.01.39h-2.64ZM53.26,164.3l1.07,1.39h-.69l-1.26-1.39h.88ZM54.82,168.55c0-.87-.18-1.55-.92-1.55-.93,0-.97,1.21-.99,1.55h1.91ZM54.82,168.55h0ZM59.01,170.88c-.19.44-.54.73-1.19.73-.95,0-1.51-.78-1.51-2.63,0-1.68.64-2.62,1.63-2.62.67,0,.95.32,1.06.64,0-.28.02-.46.03-.55h.71c0,.36,0,.78,0,1.5v5.43h-.72v-2.5ZM57.06,168.99c0,1.21.28,1.98.96,1.98.82,0,.99-.71.99-2.01s-.11-1.95-.94-1.95c-.64,0-1.01.69-1.01,1.98ZM64.13,170.13c0,.64,0,1.14,0,1.39h-.7c-.02-.15-.03-.35-.04-.68-.18.5-.61.77-1.2.77s-1.27-.24-1.27-1.51v-3.64h.74v3.47c0,.65.18,1.04.76,1.04s.96-.34.96-1.44v-3.08h.74v3.68ZM65.8,169.12c0,.99.17,1.86.97,1.86s.9-.75.92-.91h.72c-.01.13-.16,1.54-1.65,1.54s-1.7-1.37-1.7-2.63c0-1.6.55-2.62,1.74-2.62,1.33,0,1.65,1.1,1.65,2.36,0,.1,0,.27-.01.39h-2.64ZM67.73,168.55c0-.87-.18-1.55-.92-1.55-.93,0-.97,1.21-.99,1.55h1.91ZM67.73,168.55h0ZM74.46,164.4v5.81c0,.49,0,1,0,1.3h-.71c-.01-.13-.03-.46-.03-.68-.16.44-.48.77-1.19.77-1.05,0-1.5-.9-1.5-2.68,0-1.62.6-2.56,1.66-2.56.66,0,.91.28,1.03.53v-2.49h.73ZM71.8,168.94c0,1.46.33,2.02.95,2.02.79,0,1-.67,1-2.05,0-1.48-.21-1.9-.94-1.9-.6,0-1.01.53-1.01,1.92ZM76.14,169.12c0,.99.17,1.86.97,1.86s.9-.75.92-.91h.72c-.01.13-.16,1.54-1.65,1.54s-1.7-1.37-1.7-2.63c0-1.6.55-2.62,1.74-2.62,1.33,0,1.65,1.1,1.65,2.36,0,.1,0,.27-.01.39h-2.64ZM78.07,168.55c0-.87-.18-1.55-.92-1.55-.93,0-.97,1.21-.99,1.55h1.91ZM78.07,168.55h0ZM81.64,171.52v-7.12h.73v7.12h-.73ZM86.47,170.62c0,.32.03.74.04.9h-.67c-.03-.11-.05-.38-.05-.58-.19.41-.57.67-1.2.67-.97,0-1.32-.76-1.32-1.47,0-.93.63-1.62,1.96-1.62.24,0,.38,0,.53.02v-.68c0-.4-.08-.9-.76-.9-.74,0-.79.53-.82.87h-.71c.02-.72.37-1.47,1.55-1.47.98,0,1.46.48,1.46,1.41v2.84ZM85.77,169.12c-.13-.02-.27-.03-.5-.03-.9,0-1.27.43-1.27,1,0,.47.25.9.79.9.74,0,.98-.52.98-1.59v-.28ZM89.67,164.73h.74v2.87h2.2v-2.87h.74v6.79h-.74v-3.26h-2.2v3.26h-.74v-6.79ZM95.45,168.26v2.6h2.52l-.1.66h-3.15v-6.79h3.12v.67h-2.38v2.2h2.27v.66h-2.27ZM101.91,164.4v5.81c0,.49,0,1,0,1.3h-.71c-.01-.13-.03-.46-.03-.68-.16.44-.48.77-1.19.77-1.05,0-1.5-.9-1.5-2.68,0-1.62.6-2.56,1.66-2.56.66,0,.91.28,1.03.53v-2.49h.73ZM99.25,168.94c0,1.46.33,2.02.95,2.02.79,0,1-.67,1-2.05,0-1.48-.21-1.9-.94-1.9-.6,0-1.01.53-1.01,1.92ZM103.4,169.73c.05.7.39,1.25,1.13,1.25s1.07-.39,1.07-1.17c0-.71-.29-1.09-1.21-1.54-1.06-.51-1.53-.98-1.53-1.96,0-.93.6-1.68,1.7-1.68,1.31,0,1.66.94,1.68,1.74h-.73c-.03-.33-.13-1.11-.98-1.11-.65,0-.93.45-.93.99,0,.65.29.96,1.14,1.36,1.19.57,1.62,1.13,1.62,2.14,0,1.07-.61,1.86-1.85,1.86-1.36,0-1.81-.89-1.86-1.88h.75ZM109.94,171v2.38h-.73v-5.45c0-.69,0-1.16,0-1.48h.71c.01.09.03.43.03.68.18-.44.53-.77,1.21-.77.96,0,1.48.85,1.48,2.55,0,1.82-.63,2.7-1.63,2.7-.61,0-.91-.29-1.05-.61ZM111.87,168.95c0-1.27-.3-1.93-.96-1.93-.79,0-1,.75-1,1.94s.11,2.01.96,2.01c.66,0,1-.77,1-2.02ZM116.83,168.92c0,1.78-.6,2.69-1.74,2.69s-1.74-.87-1.74-2.67.69-2.58,1.77-2.58,1.71.86,1.71,2.56ZM114.1,168.94c0,1.38.34,2.03,1,2.03s.99-.66.99-2.04c0-1.3-.32-1.93-.99-1.93s-1,.57-1,1.94ZM120.97,170.13c0,.64,0,1.14,0,1.39h-.7c-.02-.15-.03-.35-.04-.68-.18.5-.61.77-1.2.77s-1.27-.24-1.27-1.51v-3.64h.74v3.47c0,.65.18,1.04.76,1.04s.96-.34.96-1.44v-3.08h.74v3.68ZM122.11,166.45h.7c0,.13.02.37.02.9.22-.61.7-.97,1.34-.98v.81c-.87.03-1.33.58-1.33,1.51v2.83h-.73v-3.34c0-.81,0-1.36,0-1.73ZM129.73,170.62c0,.32.03.74.04.9h-.67c-.03-.11-.05-.38-.05-.58-.19.41-.57.67-1.2.67-.97,0-1.32-.76-1.32-1.47,0-.93.63-1.62,1.96-1.62.24,0,.38,0,.53.02v-.68c0-.4-.08-.9-.76-.9-.74,0-.79.53-.82.87h-.71c.02-.72.37-1.47,1.55-1.47.98,0,1.46.48,1.46,1.41v2.84ZM129.03,169.12c-.13-.02-.27-.03-.5-.03-.9,0-1.27.43-1.27,1,0,.47.25.9.79.9.74,0,.98-.52.98-1.59v-.28ZM134.08,170.13c0,.64,0,1.14,0,1.39h-.7c-.02-.15-.03-.35-.04-.68-.18.5-.61.77-1.2.77s-1.27-.24-1.27-1.51v-3.64h.74v3.47c0,.65.18,1.04.76,1.04s.96-.34.96-1.44v-3.08h.74v3.68ZM134.76,166.45h.71v-1.35h.72v1.35h.88v.63h-.88v3.33c0,.35.08.57.46.57.12,0,.26,0,.36-.03v.56c-.17.07-.43.08-.6.08-.6,0-.94-.24-.94-1.04v-3.47h-.71v-.63ZM140.74,170.62c0,.32.03.74.04.9h-.67c-.03-.11-.05-.38-.05-.58-.19.41-.57.67-1.2.67-.97,0-1.32-.76-1.32-1.47,0-.93.63-1.62,1.96-1.62.24,0,.38,0,.53.02v-.68c0-.4-.08-.9-.76-.9-.74,0-.79.53-.82.87h-.71c.02-.72.37-1.47,1.55-1.47.98,0,1.46.48,1.46,1.41v2.84ZM140.04,169.12c-.13-.02-.27-.03-.5-.03-.9,0-1.27.43-1.27,1,0,.47.25.9.79.9.74,0,.98-.52.98-1.59v-.28ZM141.95,166.45h.71c.01.12.03.32.03.66.17-.4.52-.75,1.2-.75.73,0,1.3.42,1.3,1.54v3.61h-.74v-3.47c0-.62-.2-1.04-.78-1.04-.68,0-.97.45-.97,1.49v3.02h-.74v-3.5c0-1.04,0-1.33,0-1.57ZM145.76,166.45h.71v-1.35h.72v1.35h.88v.63h-.88v3.33c0,.35.08.57.46.57.12,0,.26,0,.36-.03v.56c-.17.07-.43.08-.6.08-.6,0-.94-.24-.94-1.04v-3.47h-.71v-.63ZM153.14,170.88c-.19.44-.54.73-1.19.73-.95,0-1.51-.78-1.51-2.63,0-1.68.64-2.62,1.63-2.62.67,0,.95.32,1.06.64,0-.28.02-.46.03-.55h.71c0,.36,0,.78,0,1.5v5.43h-.72v-2.5ZM151.19,168.99c0,1.21.28,1.98.96,1.98.82,0,.99-.71.99-2.01s-.11-1.95-.94-1.95c-.64,0-1.01.69-1.01,1.98ZM158.25,170.13c0,.64,0,1.14,0,1.39h-.7c-.02-.15-.03-.35-.04-.68-.18.5-.61.77-1.2.77s-1.27-.24-1.27-1.51v-3.64h.74v3.47c0,.65.18,1.04.76,1.04s.96-.34.96-1.44v-3.08h.74v3.68ZM159.93,169.12c0,.99.17,1.86.97,1.86s.9-.75.92-.91h.72c-.01.13-.16,1.54-1.65,1.54s-1.7-1.37-1.7-2.63c0-1.6.55-2.62,1.74-2.62,1.33,0,1.65,1.1,1.65,2.36,0,.1,0,.27-.01.39h-2.64ZM161.85,168.55c0-.87-.18-1.55-.92-1.55-.93,0-.97,1.21-.99,1.55h1.91ZM161.85,168.55h0Z"/>
    <path class="cls-1" d="M26.54,183.52v-7.12h.73v7.12h-.73ZM28.96,181.12c0,.99.17,1.86.97,1.86s.9-.75.92-.91h.72c-.01.13-.16,1.54-1.65,1.54s-1.7-1.37-1.7-2.63c0-1.6.55-2.62,1.74-2.62,1.33,0,1.65,1.1,1.65,2.36,0,.1,0,.27-.01.39h-2.64ZM30.89,180.55c0-.87-.18-1.55-.92-1.55-.93,0-.97,1.21-.99,1.55h1.91ZM30.89,180.55h0ZM34.45,183.52v-7.12h.73v7.12h-.73ZM36.39,178.45h.73v5.07h-.73v-5.07ZM36.39,176.4h.73v1.05h-.73v-1.05ZM38.6,178.45c.42,1.64.92,3.62,1.02,4.25h0c.07-.56.83-3.21,1.07-4.25h.74l-1.45,5.07h-.79l-1.38-5.07h.78ZM42.06,178.45h.7c0,.13.02.37.02.9.22-.61.7-.97,1.34-.98v.81c-.87.03-1.33.58-1.33,1.51v2.83h-.73v-3.34c0-.81,0-1.36,0-1.73ZM45.25,181.12c0,.99.17,1.86.97,1.86s.9-.75.92-.91h.72c-.01.13-.16,1.54-1.65,1.54s-1.7-1.37-1.7-2.63c0-1.6.55-2.62,1.74-2.62,1.33,0,1.65,1.1,1.65,2.36,0,.1,0,.27-.01.39h-2.64ZM47.18,180.55c0-.87-.18-1.55-.92-1.55-.93,0-.97,1.21-.99,1.55h1.91ZM47.18,180.55h0ZM51.99,183.01c.55,0,.82-.33.82-.8,0-.52-.27-.76-.93-1.02-1.05-.4-1.35-.78-1.35-1.48s.42-1.34,1.45-1.34c1.13,0,1.46.77,1.46,1.44h-.72c-.01-.24-.07-.84-.77-.84-.48,0-.7.3-.7.7s.18.6.88.88c.98.38,1.41.74,1.41,1.6,0,.92-.58,1.47-1.59,1.47s-1.56-.63-1.59-1.55h.73c.03.54.32.95.9.95ZM57.7,180.92c0,1.78-.6,2.69-1.74,2.69s-1.74-.87-1.74-2.67.69-2.58,1.77-2.58,1.71.86,1.71,2.56ZM54.96,180.94c0,1.38.34,2.03,1,2.03s.99-.66.99-2.04c0-1.3-.32-1.93-.99-1.93s-1,.57-1,1.94ZM58.65,178.45h.73v5.07h-.73v-5.07ZM58.65,176.4h.73v1.05h-.73v-1.05ZM60.06,178.45h.71v-1.35h.72v1.35h.88v.63h-.88v3.33c0,.35.08.57.46.57.12,0,.26,0,.36-.03v.56c-.17.07-.43.08-.6.08-.6,0-.94-.24-.94-1.04v-3.47h-.71v-.63ZM64.97,178.45h.7c0,.13.02.37.02.9.22-.61.7-.97,1.34-.98v.81c-.87.03-1.33.58-1.33,1.51v2.83h-.73v-3.34c0-.81,0-1.36,0-1.73ZM68.16,181.12c0,.99.17,1.86.97,1.86s.9-.75.92-.91h.72c-.01.13-.16,1.54-1.65,1.54s-1.7-1.37-1.7-2.63c0-1.6.55-2.62,1.74-2.62,1.33,0,1.65,1.1,1.65,2.36,0,.1,0,.27-.01.39h-2.64ZM70.09,180.55c0-.87-.18-1.55-.92-1.55-.93,0-.97,1.21-.99,1.55h1.91ZM70.09,180.55h0ZM71.23,178.45h.71v-1.35h.72v1.35h.88v.63h-.88v3.33c0,.35.08.57.46.57.12,0,.26,0,.36-.03v.56c-.17.07-.43.08-.6.08-.6,0-.94-.24-.94-1.04v-3.47h-.71v-.63ZM74.28,178.45h.73v5.07h-.73v-5.07ZM74.28,176.4h.73v1.05h-.73v-1.05ZM76.21,178.45h.7c0,.13.02.37.02.9.22-.61.7-.97,1.34-.98v.81c-.87.03-1.33.58-1.33,1.51v2.83h-.73v-3.34c0-.81,0-1.36,0-1.73ZM79.4,181.12c0,.99.17,1.86.97,1.86s.9-.75.92-.91h.72c-.01.13-.16,1.54-1.65,1.54s-1.7-1.37-1.7-2.63c0-1.6.55-2.62,1.74-2.62,1.33,0,1.65,1.1,1.65,2.36,0,.1,0,.27-.01.39h-2.64ZM81.33,180.55c0-.87-.18-1.55-.92-1.55-.93,0-.97,1.21-.99,1.55h1.91ZM81.8,176.29l-1.25,1.39h-.68l1.07-1.39h.87ZM81.33,180.55h0ZM88.06,176.4v5.81c0,.49,0,1,0,1.3h-.71c-.01-.13-.03-.46-.03-.68-.16.44-.48.77-1.19.77-1.05,0-1.5-.9-1.5-2.68,0-1.62.6-2.56,1.66-2.56.66,0,.91.28,1.03.53v-2.49h.73ZM85.39,180.94c0,1.46.33,2.02.95,2.02.79,0,1-.67,1-2.05,0-1.48-.21-1.9-.94-1.9-.6,0-1.01.53-1.01,1.92ZM92.14,182.62c0,.32.03.74.04.9h-.67c-.03-.11-.05-.38-.05-.58-.19.41-.57.67-1.2.67-.97,0-1.32-.76-1.32-1.47,0-.93.63-1.62,1.96-1.62.24,0,.38,0,.53.02v-.68c0-.4-.08-.9-.76-.9-.74,0-.79.53-.82.87h-.71c.02-.72.37-1.47,1.55-1.47.98,0,1.46.48,1.46,1.41v2.84ZM91.44,181.12c-.13-.02-.27-.03-.5-.03-.9,0-1.27.43-1.27,1,0,.47.25.9.79.9.74,0,.98-.52.98-1.59v-.28ZM93.35,178.45h.71c.01.12.03.32.03.66.17-.4.52-.75,1.2-.75.73,0,1.3.42,1.3,1.54v3.61h-.74v-3.47c0-.62-.2-1.04-.78-1.04-.68,0-.97.45-.97,1.49v3.02h-.74v-3.5c0-1.04,0-1.33,0-1.57ZM99.04,183.01c.55,0,.82-.33.82-.8,0-.52-.27-.76-.93-1.02-1.05-.4-1.35-.78-1.35-1.48s.42-1.34,1.45-1.34c1.13,0,1.46.77,1.46,1.44h-.72c-.01-.24-.07-.84-.77-.84-.48,0-.7.3-.7.7s.18.6.88.88c.98.38,1.41.74,1.41,1.6,0,.92-.58,1.47-1.59,1.47s-1.56-.63-1.59-1.55h.73c.03.54.32.95.9.95ZM106.59,182.13c0,.64,0,1.14,0,1.39h-.7c-.02-.15-.03-.35-.04-.68-.18.5-.61.77-1.2.77s-1.27-.24-1.27-1.51v-3.64h.74v3.47c0,.65.18,1.04.76,1.04s.96-.34.96-1.44v-3.08h.74v3.68ZM107.72,178.45h.71c.01.12.03.32.03.66.17-.4.52-.75,1.2-.75.73,0,1.3.42,1.3,1.54v3.61h-.74v-3.47c0-.62-.2-1.04-.78-1.04-.68,0-.97.45-.97,1.49v3.02h-.74v-3.5c0-1.04,0-1.33,0-1.57ZM112.65,181.12c0,.99.17,1.86.97,1.86s.9-.75.92-.91h.72c-.01.13-.16,1.54-1.65,1.54s-1.7-1.37-1.7-2.63c0-1.6.55-2.62,1.74-2.62,1.33,0,1.65,1.1,1.65,2.36,0,.1,0,.27-.01.39h-2.64ZM114.57,180.55c0-.87-.18-1.55-.92-1.55-.93,0-.97,1.21-.99,1.55h1.91ZM114.57,180.55h0ZM118.14,176.4h.73v2.72c.16-.39.51-.76,1.21-.76.97,0,1.48.81,1.48,2.49,0,1.57-.42,2.74-1.62,2.74-.65,0-.94-.32-1.09-.68,0,.17-.01.4-.03.6h-.69c0-.27,0-.77,0-1.39v-5.72ZM120.81,180.87c0-1.27-.3-1.86-.93-1.86-.78,0-1.04.7-1.04,1.98,0,1.22.2,1.96.97,1.96.68,0,1-.66,1-2.09ZM122.49,178.45h.73v5.07h-.73v-5.07ZM122.5,176.4h.73v1.05h-.73v-1.05ZM124.46,176.4h.73v2.72c.16-.39.51-.76,1.21-.76.97,0,1.48.81,1.48,2.49,0,1.57-.42,2.74-1.62,2.74-.65,0-.94-.32-1.09-.68,0,.17-.01.4-.03.6h-.69c0-.27,0-.77,0-1.39v-5.72ZM127.13,180.87c0-1.27-.3-1.86-.93-1.86-.78,0-1.04.7-1.04,1.98,0,1.22.2,1.96.97,1.96.68,0,1-.66,1-2.09ZM128.81,183.52v-7.12h.73v7.12h-.73ZM130.75,178.45h.73v5.07h-.73v-5.07ZM130.76,176.4h.73v1.05h-.73v-1.05ZM135.93,180.92c0,1.78-.6,2.69-1.74,2.69s-1.74-.87-1.74-2.67.69-2.58,1.77-2.58,1.71.86,1.71,2.56ZM133.19,180.94c0,1.38.34,2.03,1,2.03s.99-.66.99-2.04c0-1.3-.32-1.93-.99-1.93s-1,.57-1,1.94ZM136.27,178.45h.71v-1.35h.72v1.35h.88v.63h-.88v3.33c0,.35.08.57.46.57.12,0,.26,0,.36-.03v.56c-.17.07-.43.08-.6.08-.6,0-.94-.24-.94-1.04v-3.47h-.71v-.63ZM140.04,176.4v2.67c.18-.41.57-.71,1.21-.71.74,0,1.28.46,1.28,1.55v3.6h-.74v-3.45c0-.62-.18-1.05-.8-1.05-.7,0-.95.57-.95,1.46v3.05h-.74v-7.12h.74ZM144.21,181.12c0,.99.17,1.86.97,1.86s.9-.75.92-.91h.72c-.01.13-.16,1.54-1.65,1.54s-1.7-1.37-1.7-2.63c0-1.6.55-2.62,1.74-2.62,1.33,0,1.65,1.1,1.65,2.36,0,.1,0,.27-.01.39h-2.64ZM144.57,176.3l1.07,1.39h-.69l-1.26-1.39h.88ZM146.13,180.55c0-.87-.18-1.55-.92-1.55-.93,0-.97,1.21-.99,1.55h1.91ZM146.13,180.55h0ZM150.32,182.88c-.19.44-.54.73-1.19.73-.95,0-1.51-.78-1.51-2.63,0-1.68.64-2.62,1.63-2.62.67,0,.95.32,1.06.64,0-.28.02-.46.03-.55h.71c0,.36,0,.78,0,1.5v5.43h-.72v-2.5ZM148.37,180.99c0,1.21.28,1.98.96,1.98.82,0,.99-.71.99-2.01s-.11-1.95-.94-1.95c-.64,0-1.01.69-1.01,1.98ZM155.44,182.13c0,.64,0,1.14,0,1.39h-.7c-.02-.15-.03-.35-.04-.68-.18.5-.61.77-1.2.77s-1.27-.24-1.27-1.51v-3.64h.74v3.47c0,.65.18,1.04.76,1.04s.96-.34.96-1.44v-3.08h.74v3.68ZM157.12,181.12c0,.99.17,1.86.97,1.86s.9-.75.92-.91h.72c-.01.13-.16,1.54-1.65,1.54s-1.7-1.37-1.7-2.63c0-1.6.55-2.62,1.74-2.62,1.33,0,1.65,1.1,1.65,2.36,0,.1,0,.27-.01.39h-2.64ZM159.04,180.55c0-.87-.18-1.55-.92-1.55-.93,0-.97,1.21-.99,1.55h1.91ZM159.04,180.55h0ZM165.77,176.4v5.81c0,.49,0,1,0,1.3h-.71c-.01-.13-.03-.46-.03-.68-.16.44-.48.77-1.19.77-1.05,0-1.5-.9-1.5-2.68,0-1.62.6-2.56,1.66-2.56.66,0,.91.28,1.03.53v-2.49h.73ZM163.1,180.94c0,1.46.33,2.02.95,2.02.79,0,1-.67,1-2.05,0-1.48-.21-1.9-.94-1.9-.6,0-1.01.53-1.01,1.92ZM167.45,181.12c0,.99.17,1.86.97,1.86s.9-.75.92-.91h.72c-.01.13-.16,1.54-1.65,1.54s-1.7-1.37-1.7-2.63c0-1.6.55-2.62,1.74-2.62,1.33,0,1.65,1.1,1.65,2.36,0,.1,0,.27-.01.39h-2.64ZM169.37,180.55c0-.87-.18-1.55-.92-1.55-.93,0-.97,1.21-.99,1.55h1.91ZM169.37,180.55h0Z"/>
    <path class="cls-1" d="M26.54,195.52v-7.12h.73v7.12h-.73ZM31.37,194.62c0,.32.03.74.04.9h-.67c-.03-.11-.05-.38-.05-.58-.19.41-.57.67-1.2.67-.97,0-1.32-.76-1.32-1.47,0-.93.63-1.62,1.96-1.62.24,0,.38,0,.53.02v-.68c0-.4-.08-.9-.76-.9-.74,0-.79.53-.82.87h-.71c.02-.72.37-1.47,1.55-1.47.98,0,1.46.48,1.46,1.41v2.84ZM30.67,193.12c-.13-.02-.27-.03-.5-.03-.9,0-1.27.43-1.27,1,0,.47.25.9.79.9.74,0,.98-.52.98-1.59v-.28ZM34.57,188.73h.74v2.87h2.2v-2.87h.74v6.79h-.74v-3.26h-2.2v3.26h-.74v-6.79ZM40.35,192.26v2.6h2.52l-.1.66h-3.15v-6.79h3.12v.67h-2.38v2.2h2.27v.66h-2.27ZM44.17,193.73c.05.7.39,1.25,1.13,1.25s1.07-.39,1.07-1.17c0-.71-.29-1.09-1.21-1.54-1.06-.51-1.53-.98-1.53-1.96,0-.93.6-1.68,1.7-1.68,1.31,0,1.66.94,1.68,1.74h-.73c-.03-.33-.13-1.11-.98-1.11-.65,0-.93.45-.93.99,0,.65.29.96,1.14,1.36,1.19.57,1.62,1.13,1.62,2.14,0,1.07-.61,1.86-1.85,1.86-1.36,0-1.81-.89-1.86-1.88h.75ZM49.89,192.6v.65h-2.04v-.65h2.04ZM51.29,193.73c.05.7.39,1.25,1.13,1.25s1.07-.39,1.07-1.17c0-.71-.29-1.09-1.21-1.54-1.06-.51-1.53-.98-1.53-1.96,0-.93.6-1.68,1.7-1.68,1.31,0,1.66.94,1.68,1.74h-.73c-.03-.33-.13-1.11-.98-1.11-.65,0-.93.45-.93.99,0,.65.29.96,1.14,1.36,1.19.57,1.62,1.13,1.62,2.14,0,1.07-.61,1.86-1.85,1.86-1.36,0-1.81-.89-1.86-1.88h.75ZM59,192.06c0,2.31-.55,3.55-2.02,3.55s-1.98-1.2-1.98-3.54.68-3.44,2.01-3.44c1.41,0,1.99,1.13,1.99,3.43ZM57,194.97c.87,0,1.23-.95,1.23-2.9s-.39-2.79-1.24-2.79-1.23.93-1.23,2.78.39,2.91,1.23,2.91ZM65.58,195.52h-.59c-.02-.19-.04-.4-.05-.73-.22.47-.56.83-1.36.83-1.47,0-1.86-1.52-1.86-3.49,0-2.34.72-3.5,2.1-3.5,1.63,0,1.73,1.44,1.75,1.85h-.74c-.02-.24-.07-1.2-1.03-1.2s-1.3,1.13-1.3,2.84.25,2.85,1.21,2.85,1.12-.77,1.12-2.19v-.33h-1.18v-.65h1.91v3.72ZM67.26,193.12c0,.99.17,1.86.97,1.86s.9-.75.92-.91h.72c-.01.13-.16,1.54-1.65,1.54s-1.7-1.37-1.7-2.63c0-1.6.55-2.62,1.74-2.62,1.33,0,1.65,1.1,1.65,2.36,0,.1,0,.27-.01.39h-2.64ZM69.18,192.55c0-.87-.18-1.55-.92-1.55-.93,0-.97,1.21-.99,1.55h1.91ZM69.18,192.55h0ZM70.84,190.45h.71c.01.12.03.32.03.66.17-.4.52-.75,1.2-.75.73,0,1.3.42,1.3,1.54v3.61h-.74v-3.47c0-.62-.2-1.04-.78-1.04-.68,0-.97.45-.97,1.49v3.02h-.74v-3.5c0-1.04,0-1.33,0-1.57ZM75.76,193.12c0,.99.17,1.86.97,1.86s.9-.75.92-.91h.72c-.01.13-.16,1.54-1.65,1.54s-1.7-1.37-1.7-2.63c0-1.6.55-2.62,1.74-2.62,1.33,0,1.65,1.1,1.65,2.36,0,.1,0,.27-.01.39h-2.64ZM76.13,188.3l1.07,1.39h-.69l-1.26-1.39h.88ZM77.68,192.55c0-.87-.18-1.55-.92-1.55-.93,0-.97,1.21-.99,1.55h1.91ZM77.68,192.55h0ZM79.65,190.45c.42,1.64.92,3.62,1.02,4.25h0c.07-.56.83-3.21,1.07-4.25h.74l-1.45,5.07h-.79l-1.38-5.07h.78ZM83.63,193.12c0,.99.17,1.86.97,1.86s.9-.75.92-.91h.72c-.01.13-.16,1.54-1.65,1.54s-1.7-1.37-1.7-2.63c0-1.6.55-2.62,1.74-2.62,1.33,0,1.65,1.1,1.65,2.36,0,.1,0,.27-.01.39h-2.64ZM85.55,192.55c0-.87-.18-1.55-.92-1.55-.93,0-.97,1.21-.99,1.55h1.91ZM85.55,192.55h0ZM87.04,194.15h.74v1.38h-.74v-1.38Z"/>
    <path class="cls-1" d="M66.52,72.19l-3.47-13.99h2.34l1.37,6.17c.42,1.89.86,4.09,1.03,5.51h.04c.17-1.35.74-3.6,1.16-5.47l1.36-6.21h2.27l-3.55,13.99h-2.55ZM73.22,65.18c0-1.73,0-2.84-.02-3.6h2.05c.02.21.06.67.06,1.8.42-1.23,1.38-1.96,2.79-1.97v2.39c-1.77,0-2.73.72-2.73,2.71v5.69h-2.14v-7.01ZM85.9,70.02c0,.57.05,1.73.08,2.16h-1.95c-.05-.22-.1-.72-.1-1.06-.4.74-1.13,1.25-2.43,1.25-2.04,0-2.81-1.61-2.81-3.12,0-2.1,1.43-3.46,4.15-3.46.4,0,.69,0,.95.03v-1.24c0-.69-.11-1.52-1.29-1.52s-1.31.82-1.37,1.52h-2.04c.04-1.55.77-3.18,3.49-3.18,2.21,0,3.32,1.02,3.32,3.02v5.6ZM83.84,67.41c-.25-.04-.5-.05-.88-.05-1.56,0-2.16.73-2.16,1.71,0,.76.38,1.55,1.36,1.55,1.35,0,1.67-.99,1.67-2.79v-.42ZM90.34,61.57v10.61h-2.14v-10.61h2.14ZM90.36,57.51v2.34h-2.14v-2.34h2.14ZM92.04,72.6l4.02-14.49h1.64l-4,14.49h-1.66ZM99.55,58.2h6.94v1.91h-4.77v3.96h4.49v1.88h-4.49v6.23h-2.16v-13.99ZM114.3,70.02c0,.57.05,1.73.08,2.16h-1.95c-.05-.22-.1-.72-.1-1.06-.4.74-1.13,1.25-2.43,1.25-2.04,0-2.81-1.61-2.81-3.12,0-2.1,1.43-3.46,4.15-3.46.4,0,.69,0,.95.03v-1.24c0-.69-.11-1.52-1.29-1.52s-1.31.82-1.37,1.52h-2.04c.04-1.55.77-3.18,3.49-3.18,2.21,0,3.32,1.02,3.32,3.02v5.6ZM112.24,67.41c-.25-.04-.5-.05-.88-.05-1.56,0-2.16.73-2.16,1.71,0,.76.38,1.55,1.36,1.55,1.35,0,1.67-.99,1.67-2.79v-.42ZM123.69,72.19h-2.04c-.06-.32-.08-.78-.09-1.24-.44,1-1.24,1.43-2.42,1.43-1.42,0-2.65-.66-2.65-3.18v-7.62h2.15v7.13c0,1.15.27,1.82,1.27,1.82s1.62-.57,1.62-2.46v-6.49h2.15v7.57c0,1.47,0,2.51.02,3.05ZM127.21,61.57c.9,1.96,1.37,2.94,1.63,3.51h.02c.31-.72.91-1.92,1.65-3.51h2.27l-2.74,5.02,2.75,5.59h-2.38c-.87-1.98-1.37-3.08-1.63-3.68h-.02c-.25.56-.92,2.04-1.68,3.68h-2.28l2.71-5.3-2.65-5.32h2.35Z"/>
  </g>
</svg>