<?xml version="1.0" encoding="UTF-8"?>
<svg id="Calque_1" data-name="Calque 1" xmlns="http://www.w3.org/2000/svg" xmlns:xlink="http://www.w3.org/1999/xlink" viewBox="0 0 195.59 269.29">
  <defs>
    <style>
      .cls-1 {
        fill: #1d1d1b;
      }

      .cls-2 {
        fill: none;
      }

      .cls-3 {
        clip-path: url(#clippath-1);
      }

      .cls-4 {
        fill: #f39200;
      }

      .cls-5 {
        clip-path: url(#clippath);
      }
    </style>
    <clipPath id="clippath">
      <rect class="cls-2" width="195.59" height="269.29"/>
    </clipPath>
    <clipPath id="clippath-1">
      <rect class="cls-2" width="195.59" height="269.29"/>
    </clipPath>
  </defs>
  <g class="cls-5">
    <g class="cls-3">
      <path class="cls-1" d="M65.48,40.63c-3.89,0-4.29-3.65-4.29-7.27,0-4.37,1.24-7.16,4.44-7.16,3.59,0,3.85,3.17,3.9,4.2h-2.16c-.04-.47-.09-2.34-1.77-2.34-1.79,0-2.16,2.3-2.16,5.33,0,2.75.28,5.39,2.08,5.39,1.62,0,1.8-1.8,1.86-2.4h2.17c-.06.74-.36,4.23-4.07,4.23ZM73.42,25.72v5.18c.38-.74,1.1-1.31,2.44-1.31,1.69,0,2.65,1.09,2.65,3.29v7.52h-2.15v-7.08c0-1.13-.25-1.87-1.38-1.87-1.21,0-1.56.95-1.56,2.5v6.45h-2.15v-14.68h2.15ZM88.04,34.99c0,3.81-1.36,5.61-3.9,5.61s-3.85-1.72-3.85-5.56,1.53-5.43,3.96-5.43,3.79,1.83,3.79,5.38ZM84.19,38.8c1.19,0,1.68-1.28,1.68-3.75s-.48-3.62-1.69-3.62-1.72,1.13-1.72,3.61.49,3.76,1.74,3.76ZM91.96,29.79v10.61h-2.14v-10.61h2.14ZM91.98,25.72v2.34h-2.14v-2.34h2.14ZM95.63,29.79c.9,1.96,1.37,2.94,1.63,3.51h.02c.31-.72.91-1.92,1.65-3.51h2.27l-2.74,5.02,2.75,5.59h-2.38c-.87-1.98-1.37-3.08-1.63-3.68h-.02c-.25.56-.92,2.04-1.68,3.68h-2.28l2.71-5.3-2.65-5.32h2.35ZM106.04,32.97c0-2.03,0-2.71-.02-3.18h2.05c.04.24.07.78.07,1.17.46-.85,1.23-1.35,2.35-1.35s1.84.51,2.17,1.49c.42-.78,1.19-1.49,2.59-1.49s2.65.72,2.65,3.15v7.64h-2.11v-7.31c0-.92-.29-1.64-1.25-1.64-1.11,0-1.48.9-1.48,2.25v6.7h-2.13v-7.27c0-1.09-.37-1.67-1.24-1.67-1.08,0-1.52.84-1.52,2.33v6.61h-2.13v-7.43ZM127.35,40.4h-2.04c-.06-.32-.08-.78-.09-1.24-.44,1-1.24,1.43-2.42,1.43-1.42,0-2.65-.66-2.65-3.18v-7.62h2.15v7.13c0,1.15.27,1.82,1.27,1.82s1.62-.57,1.62-2.46v-6.49h2.15v7.57c0,1.47,0,2.51.02,3.05ZM129.59,40.4v-14.68h2.14v14.68h-2.14ZM133.03,29.79h1.43v-2.71h2.13v2.71h1.71v1.77h-1.71v6.2c0,.65.13,1.04.9,1.04.25,0,.45,0,.65-.05v1.59c-.42.18-1.04.2-1.41.2-1.55,0-2.28-.59-2.28-2.41v-6.57h-1.43v-1.77ZM141.82,29.79v10.61h-2.14v-10.61h2.14ZM141.84,25.72v2.34h-2.14v-2.34h2.14ZM148.34,40.6c-1.16,0-1.78-.5-2.08-1.11v4.76h-2.14v-11.39c0-1.44,0-2.41-.02-3.08h2.06c.04.22.07.81.07,1.25.35-.76,1.01-1.43,2.43-1.43,1.98,0,3.1,1.72,3.1,5.32,0,4.04-1.36,5.67-3.42,5.67h0ZM149.6,35.03c0-2.58-.56-3.58-1.71-3.58-1.37,0-1.69,1.3-1.69,3.52,0,2.46.16,3.79,1.65,3.79,1.18,0,1.76-1.31,1.76-3.74ZM153.55,40.4v-14.68h2.14v14.68h-2.14ZM159.63,35.61c0,1.59.23,3.2,1.7,3.2,1.37,0,1.55-1.22,1.59-1.57h2.06c-.04.31-.29,3.36-3.68,3.36s-3.8-2.88-3.8-5.55c0-3.36,1.23-5.44,3.86-5.44,2.98,0,3.7,2.3,3.7,5.03,0,.31-.01.76-.04.97h-5.4ZM162.94,34.03c0-1.3-.21-2.65-1.59-2.65-1.58,0-1.67,1.9-1.69,2.65h3.28ZM162.94,34.03h0Z"/>
      <path class="cls-4" d="M35.12,21.99c.13.03.27-.06.29-.2l.26-1.37c.02-.13-.06-.26-.2-.29-.13-.02-.26.06-.29.2l-.26,1.37c-.03.13.06.26.2.29"/>
      <path class="cls-4" d="M32.24,21.82c.07,0,.13-.04.17-.08.04-.05.06-.11.06-.18l-.05-.69c0-.07-.04-.13-.09-.17-.05-.04-.11-.07-.18-.06-.07,0-.13.04-.17.09-.04.05-.06.11-.06.18l.05.69c0,.07.04.13.08.17.05.04.11.07.18.06"/>
      <path class="cls-4" d="M26.81,23.66c.06-.04.09-.1.11-.16.01-.06,0-.13-.04-.19l-.38-.58c-.04-.06-.1-.09-.16-.11-.06-.01-.13,0-.19.04-.06.04-.09.1-.11.16-.01.06,0,.13.04.19l.38.58c.04.06.1.09.16.11.06.01.13,0,.19-.04"/>
      <path class="cls-4" d="M29.41,22.39c.13-.04.2-.19.16-.32l-.45-1.32c-.05-.13-.19-.2-.32-.16-.13.04-.2.18-.16.32l.45,1.32c.04.13.19.2.32.16"/>
      <path class="cls-4" d="M26.81,23.66c-.06.04-.12.05-.19.04-.06-.01-.12-.05-.16-.11l-.38-.58c-.04-.06-.05-.12-.04-.19.01-.06.05-.12.11-.16.06-.04.12-.05.19-.04.06.01.12.05.16.11l.38.58c.04.06.05.12.04.19-.01.06-.05.12-.11.16"/>
      <path class="cls-4" d="M37.86,22.89c-.06-.03-.11-.08-.13-.14-.02-.06-.02-.13.01-.19l.3-.63c.03-.06.08-.11.14-.13.06-.02.13-.02.19.01s.11.08.13.14c.02.06.02.13-.01.19l-.3.63c-.03.06-.08.11-.14.13-.06.02-.13.02-.19-.01"/>
      <path class="cls-4" d="M40.29,24.45c-.11-.09-.12-.25-.03-.35l.9-1.06c.09-.11.25-.12.35-.03.1.09.12.24.03.35l-.9,1.06c-.09.11-.25.12-.35.03"/>
      <path class="cls-4" d="M24.63,25.55c.09-.1.08-.26-.02-.35l-1.04-.93c-.1-.09-.26-.08-.35.02-.09.1-.08.26.02.35l1.04.93c.1.09.26.08.35-.02"/>
      <path class="cls-4" d="M22.03,30.65c.03-.13-.06-.27-.19-.3l-1.36-.3c-.13-.03-.27.05-.3.19-.03.13.06.27.19.3l1.36.3c.14.03.27-.06.3-.19"/>
      <path class="cls-4" d="M21.78,33.53c0-.07-.03-.13-.08-.17-.05-.04-.11-.07-.18-.07l-.69.03c-.07,0-.13.03-.17.08-.04.05-.07.11-.07.18,0,.07.03.13.08.17.05.04.11.07.18.07l.69-.03c.07,0,.13-.03.17-.08.04-.05.07-.11.07-.18"/>
      <path class="cls-4" d="M23.47,39c-.04-.06-.09-.1-.16-.11s-.13,0-.19.03l-.59.37c-.06.04-.1.09-.11.15-.01.06,0,.13.03.19.04.06.09.1.16.11.06.01.13,0,.19-.03l.59-.37c.06-.04.1-.09.11-.15.02-.06,0-.13-.03-.19"/>
      <path class="cls-4" d="M22.27,36.37c-.04-.13-.18-.2-.31-.16l-1.33.41c-.13.04-.2.18-.17.31.04.13.18.21.31.16l1.33-.41c.13-.04.21-.18.17-.31"/>
      <path class="cls-4" d="M23.47,39c.04.06.05.13.03.19-.01.06-.05.12-.11.15l-.59.37c-.06.04-.13.04-.19.03-.06-.01-.12-.05-.16-.11-.04-.06-.04-.13-.03-.19.01-.06.05-.12.11-.15l.59-.37c.06-.04.13-.05.19-.03s.12.05.16.11"/>
      <path class="cls-4" d="M23,27.93c-.03.06-.08.1-.15.12-.06.02-.13.02-.19-.01l-.62-.32c-.06-.03-.1-.08-.12-.15-.02-.06-.02-.13.02-.19.03-.06.08-.1.15-.12.06-.02.13-.02.19.01l.62.32c.06.03.1.08.12.15.02.06.02.13-.01.19"/>
      <path class="cls-4" d="M25.29,41.24c-.1-.09-.26-.09-.35.01l-.96,1.01c-.09.1-.09.26.01.35.1.1.26.09.35,0l.96-1.01c.09-.1.09-.26,0-.35"/>
      <path class="cls-4" d="M38.36,39.33s-.09.03-.14.07c-3.25,2.54-7.79,2.34-10.81-.46-1.62-1.51-2.56-3.56-2.64-5.77-.08-2.21.72-4.33,2.23-5.95,3.13-3.35,8.41-3.54,11.77-.42,3.02,2.8,3.53,7.3,1.22,10.7-.1.15-.08.35.05.47l2.81,2.61-1.36,1.45-2.82-2.61c-.09-.09-.22-.11-.33-.09M49.79,44.73l-6.12-4.38-2.9-2.69c1.08-1.71,1.55-3.74,1.33-5.76-.23-2.15-1.24-4.14-2.82-5.61-.89-.83-1.92-1.46-3.06-1.87-1.1-.4-2.25-.58-3.43-.54-1.17.04-2.31.31-3.38.78-1.11.49-2.09,1.19-2.92,2.08-.83.89-1.47,1.92-1.89,3.05-.4,1.1-.59,2.25-.55,3.42.04,1.17.3,2.3.78,3.36.49,1.1,1.2,2.08,2.09,2.91,1.59,1.47,3.65,2.33,5.82,2.41.86.03,1.72-.06,2.55-.26,1.12-.28,2.19-.77,3.14-1.46l3.58,3.33,4.29,4.98c.87.8,2.29.68,3.19-.28l.25-.27c.9-.96.92-2.38.05-3.18"/>
      <path class="cls-4" d="M36.94,35.78c-.36.59-.96,1.02-1.63,1.19-.04.01-.09.02-.13.03-.2.04-.39-.09-.42-.29-.04-.2.09-.39.29-.42.52-.1,1-.43,1.28-.89.1-.17.33-.22.5-.12.17.1.22.33.12.5M33.33,36.88c0,.17-.11.32-.27.36-.02,0-.05,0-.08.01-1.76.06-3.49-1.09-4.1-2.74-.07-.19.03-.4.21-.46.19-.07.4.03.47.21.5,1.37,1.93,2.32,3.4,2.27.2,0,.37.15.37.35M37.64,28.01c-1.3-1.21-3-1.84-4.77-1.77-1.78.06-3.42.81-4.64,2.11-1.22,1.3-1.85,2.99-1.79,4.76.06,1.77.81,3.41,2.11,4.61,1.3,1.21,3,1.84,4.77,1.77.48-.02.94-.08,1.39-.2,1.24-.31,2.36-.96,3.24-1.91,1.22-1.3,1.85-2.99,1.79-4.76-.06-1.77-.81-3.41-2.11-4.62"/>
      <path class="cls-4" d="M178.64,247.8c0,2.5-2.03,4.54-4.54,4.54H21.71c-2.5,0-4.54-2.03-4.54-4.54V21.71c0-2.5,2.03-4.54,4.54-4.54h152.39c2.5,0,4.54,2.03,4.54,4.54v226.09ZM.11,269.4h195.59V.11H.11v269.29Z"/>
    </g>
    <path class="cls-1" d="M30.79,62.25c0,1.54-.22,2.64-.75,3.28l1.3.96-.49.59-1.44-1.07c-.24.11-.52.16-.84.16-1.54,0-2.18-1.32-2.18-3.9s.75-3.79,2.21-3.79c1.55,0,2.19,1.25,2.19,3.78ZM28.59,65.45c.96,0,1.35-1.04,1.35-3.19s-.43-3.07-1.36-3.07-1.35,1.02-1.35,3.06.43,3.2,1.36,3.2ZM35.39,64.53c0,.7,0,1.26.01,1.53h-.77c-.03-.16-.04-.38-.04-.74-.2.55-.67.84-1.33.84s-1.39-.27-1.39-1.67v-4.01h.81v3.82c0,.71.2,1.15.84,1.15s1.06-.38,1.06-1.58v-3.39h.81v4.05ZM37.23,63.41c0,1.09.19,2.05,1.07,2.05s.99-.83,1.02-1h.79c-.01.14-.17,1.69-1.81,1.69s-1.87-1.51-1.87-2.89c0-1.77.6-2.88,1.92-2.88,1.47,0,1.81,1.21,1.81,2.6,0,.11,0,.29-.01.43h-2.91ZM39.35,62.78c0-.96-.2-1.71-1.02-1.71-1.02,0-1.07,1.33-1.09,1.71h2.1ZM39.35,62.78h0ZM41.17,66.05v-7.83h.8v7.83h-.8ZM43.33,66.05v-7.83h.8v7.83h-.8ZM46,63.41c0,1.09.19,2.05,1.07,2.05s.99-.83,1.02-1h.79c-.01.14-.17,1.69-1.81,1.69s-1.87-1.51-1.87-2.89c0-1.77.6-2.88,1.92-2.88,1.47,0,1.81,1.21,1.81,2.6,0,.11,0,.29-.01.43h-2.91ZM48.11,62.78c0-.96-.2-1.71-1.02-1.71-1.02,0-1.07,1.33-1.09,1.71h2.1ZM48.11,62.78h0ZM55.28,65.07c0,.35.03.81.04.99h-.74c-.03-.12-.06-.42-.06-.63-.21.45-.63.73-1.32.73-1.07,0-1.46-.84-1.46-1.61,0-1.02.69-1.79,2.15-1.79.26,0,.42,0,.58.02v-.74c0-.44-.08-.99-.84-.99-.82,0-.87.59-.9.96h-.78c.02-.8.4-1.62,1.71-1.62,1.08,0,1.6.53,1.6,1.55v3.13ZM54.51,63.41c-.14-.02-.29-.03-.55-.03-.99,0-1.4.48-1.4,1.1,0,.51.27.99.87.99.82,0,1.08-.58,1.08-1.75v-.3ZM57.49,61.16v4.89h-.8v-4.89h-.73v-.69h.73v-.78c0-.82.26-1.54,1.27-1.54.15,0,.35.03.46.06l-.04.7c-.1-.03-.2-.04-.32-.04-.47,0-.56.31-.56.84v.76h1.47v-.74c0-.82.26-1.59,1.28-1.59.15,0,.34.02.45.07l-.04.69c-.1-.03-.22-.04-.32-.04-.45,0-.57.33-.57.88v.73h.88v.69h-.88v4.89h-.8v-4.89h-1.47ZM61.35,60.47h.8v5.58h-.8v-5.58ZM61.35,58.22h.8v1.15h-.8v-1.15ZM63.47,60.47h.77c.01.14.03.4.03,1,.24-.67.78-1.07,1.47-1.08v.89c-.96.03-1.46.63-1.46,1.66v3.12h-.8v-3.68c0-.89,0-1.5-.01-1.9ZM66.47,62.15c0-.99,0-1.41-.01-1.67h.77c.02.16.03.46.03.71.22-.49.61-.81,1.25-.81.58,0,.99.25,1.16.83.2-.45.62-.83,1.35-.83s1.35.34,1.35,1.62v4.05h-.8v-3.91c0-.56-.16-1.05-.79-1.05-.71,0-.95.63-.95,1.38v3.58h-.8v-3.89c0-.69-.23-1.06-.77-1.06-.67,0-.98.61-.98,1.45v3.5h-.8v-3.91ZM76.83,65.07c0,.35.03.81.04.99h-.74c-.03-.12-.06-.42-.06-.63-.21.45-.63.73-1.32.73-1.07,0-1.46-.84-1.46-1.61,0-1.02.69-1.79,2.15-1.79.26,0,.42,0,.58.02v-.74c0-.44-.08-.99-.84-.99-.82,0-.87.59-.9.96h-.78c.02-.8.4-1.62,1.71-1.62,1.08,0,1.6.53,1.6,1.55v3.13ZM76.06,63.41c-.14-.02-.29-.03-.55-.03-.99,0-1.4.48-1.4,1.1,0,.51.27.99.87.99.82,0,1.08-.58,1.08-1.75v-.3ZM77.48,60.47h.79v-1.49h.8v1.49h.97v.69h-.97v3.66c0,.38.08.62.5.62.13,0,.29,0,.39-.03v.62c-.19.07-.47.09-.66.09-.66,0-1.04-.27-1.04-1.15v-3.82h-.79v-.69ZM80.83,60.47h.8v5.58h-.8v-5.58ZM80.83,58.22h.8v1.15h-.8v-1.15ZM86.53,63.2c0,1.96-.66,2.96-1.92,2.96s-1.92-.96-1.92-2.94.76-2.83,1.95-2.83,1.89.94,1.89,2.82ZM83.51,63.22c0,1.52.38,2.24,1.1,2.24s1.09-.73,1.09-2.24c0-1.43-.35-2.13-1.09-2.13s-1.1.63-1.1,2.14ZM87.56,60.47h.78c.01.14.03.36.03.73.19-.44.57-.83,1.32-.83.81,0,1.43.46,1.43,1.7v3.97h-.81v-3.82c0-.68-.22-1.14-.86-1.14-.75,0-1.07.49-1.07,1.64v3.32h-.81v-3.85c0-1.14,0-1.47-.01-1.73ZM95.02,63.41c0,1.09.19,2.05,1.07,2.05s.99-.83,1.02-1h.79c-.01.14-.17,1.69-1.81,1.69s-1.87-1.51-1.87-2.89c0-1.77.6-2.88,1.92-2.88,1.47,0,1.81,1.21,1.81,2.6,0,.11,0,.29-.01.43h-2.91ZM97.14,62.78c0-.96-.2-1.71-1.02-1.71-1.02,0-1.07,1.33-1.09,1.71h2.1ZM97.14,62.78h0ZM100.41,65.49c.61,0,.9-.37.9-.88,0-.58-.3-.84-1.03-1.13-1.15-.44-1.49-.86-1.49-1.63s.46-1.47,1.6-1.47c1.25,0,1.6.85,1.61,1.59h-.79c-.01-.27-.07-.93-.85-.93-.53,0-.77.33-.77.77s.19.67.97.96c1.08.42,1.56.81,1.56,1.77,0,1.02-.64,1.62-1.75,1.62s-1.72-.69-1.75-1.71h.8c.04.6.35,1.05.99,1.05ZM102.51,60.47h.79v-1.49h.8v1.49h.97v.69h-.97v3.66c0,.38.08.62.5.62.13,0,.29,0,.39-.03v.62c-.19.07-.47.09-.66.09-.66,0-1.04-.27-1.04-1.15v-3.82h-.79v-.69ZM111.28,64.35c-.02.3-.14,1.8-1.77,1.8-1.46,0-1.85-1.29-1.85-2.91s.51-2.87,1.93-2.87c1.62,0,1.7,1.5,1.7,1.76h-.82c-.01-.23-.09-1.07-.88-1.07s-1.1.88-1.1,2.17c0,1.39.3,2.22,1.06,2.22.81,0,.9-.81.94-1.11h.8ZM115.86,63.2c0,1.96-.66,2.96-1.92,2.96s-1.92-.96-1.92-2.94.76-2.83,1.95-2.83,1.89.94,1.89,2.82ZM112.85,63.22c0,1.52.38,2.24,1.1,2.24s1.09-.73,1.09-2.24c0-1.43-.35-2.13-1.09-2.13s-1.1.63-1.1,2.14ZM116.9,60.47h.77c.01.14.03.4.03,1,.24-.67.78-1.07,1.47-1.08v.89c-.96.03-1.46.63-1.46,1.66v3.12h-.8v-3.68c0-.89,0-1.5-.01-1.9ZM119.88,60.47h.77c.01.14.03.4.03,1,.24-.67.78-1.07,1.47-1.08v.89c-.96.03-1.46.63-1.46,1.66v3.12h-.8v-3.68c0-.89,0-1.5-.01-1.9ZM123.39,63.41c0,1.09.19,2.05,1.07,2.05s.99-.83,1.02-1h.79c-.01.14-.17,1.69-1.81,1.69s-1.87-1.51-1.87-2.89c0-1.77.6-2.88,1.92-2.88,1.47,0,1.81,1.21,1.81,2.6,0,.11,0,.29-.01.43h-2.91ZM125.51,62.78c0-.96-.2-1.71-1.02-1.71-1.02,0-1.07,1.33-1.09,1.71h2.1ZM125.51,62.78h0ZM130.77,64.35c-.02.3-.14,1.8-1.77,1.8-1.46,0-1.85-1.29-1.85-2.91s.51-2.87,1.93-2.87c1.62,0,1.7,1.5,1.7,1.76h-.82c-.01-.23-.09-1.07-.88-1.07s-1.1.88-1.1,2.17c0,1.39.3,2.22,1.06,2.22.81,0,.9-.81.94-1.11h.8ZM131.26,60.47h.79v-1.49h.8v1.49h.97v.69h-.97v3.66c0,.38.08.62.5.62.13,0,.29,0,.39-.03v.62c-.19.07-.47.09-.66.09-.66,0-1.04-.27-1.04-1.15v-3.82h-.79v-.69ZM135.06,63.41c0,1.09.19,2.05,1.07,2.05s.99-.83,1.02-1h.79c-.01.14-.17,1.69-1.81,1.69s-1.87-1.51-1.87-2.89c0-1.77.6-2.88,1.92-2.88,1.47,0,1.81,1.21,1.81,2.6,0,.11,0,.29-.01.43h-2.91ZM137.18,62.78c0-.96-.2-1.71-1.02-1.71-1.02,0-1.07,1.33-1.09,1.71h2.1ZM137.18,62.78h0ZM142.1,63.81v-.15c0-.57.14-1.07.74-1.87.45-.61.6-1.01.6-1.52,0-.61-.23-1.11-.88-1.11-.6,0-.89.5-.92,1.3h-.76c.02-.87.36-1.97,1.72-1.97,1.22,0,1.65.79,1.65,1.78,0,.79-.25,1.26-.84,2.04-.39.53-.51.96-.51,1.41v.08h-.81ZM142.09,66.06v-1.38h.81v1.38h-.81Z"/>
    <path class="cls-1" d="M26.68,71.78h.82v6.75h2.67l-.12.72h-3.37v-7.47ZM31.42,76.61c0,1.09.19,2.05,1.07,2.05s.99-.83,1.02-1h.79c-.01.14-.17,1.69-1.81,1.69s-1.87-1.51-1.87-2.89c0-1.77.6-2.88,1.92-2.88,1.47,0,1.81,1.21,1.81,2.6,0,.11,0,.29-.01.43h-2.91ZM33.54,75.98c0-.96-.2-1.71-1.02-1.71-1.02,0-1.07,1.33-1.09,1.71h2.1ZM33.54,75.98h0ZM36.81,78.69c.61,0,.9-.37.9-.88,0-.58-.3-.84-1.03-1.13-1.15-.44-1.49-.86-1.49-1.63s.46-1.47,1.6-1.47c1.25,0,1.6.85,1.61,1.59h-.79c-.01-.27-.07-.93-.85-.93-.53,0-.77.33-.77.77s.19.67.97.96c1.08.42,1.56.81,1.56,1.77,0,1.02-.64,1.62-1.75,1.62s-1.72-.69-1.75-1.71h.8c.04.6.35,1.05.99,1.05ZM46.21,72.49h-.02c-.27,1.29-.95,4.4-1.55,6.76h-.79c-.45-2.05-1.16-5.4-1.43-6.78h-.03c.04.87.08,2.52.08,3.8v2.98h-.77v-7.47h1.22c.6,2.35,1.19,5.19,1.37,6.17h.01c.14-.81.87-3.91,1.46-6.17h1.21v7.47h-.8v-3.18c0-1.39.02-2.79.04-3.58ZM48.82,76.61c0,1.09.19,2.05,1.07,2.05s.99-.83,1.02-1h.79c-.01.14-.17,1.69-1.81,1.69s-1.87-1.51-1.87-2.89c0-1.77.6-2.88,1.92-2.88,1.47,0,1.81,1.21,1.81,2.6,0,.11,0,.29-.01.43h-2.91ZM50.94,75.98c0-.96-.2-1.71-1.02-1.71-1.02,0-1.07,1.33-1.09,1.71h2.1ZM50.94,75.98h0ZM52.41,77.29h.82c.06.77.43,1.38,1.25,1.38s1.18-.43,1.18-1.29c0-.79-.32-1.2-1.33-1.69-1.17-.56-1.69-1.08-1.69-2.16,0-1.03.66-1.85,1.88-1.85,1.44,0,1.83,1.03,1.85,1.91h-.81c-.04-.36-.15-1.23-1.08-1.23-.72,0-1.02.49-1.02,1.09,0,.72.32,1.05,1.26,1.5,1.31.62,1.78,1.25,1.78,2.36,0,1.18-.67,2.04-2.04,2.04-1.5,0-1.99-.98-2.05-2.07h0ZM57.57,71.78h.82v3.16h2.42v-3.16h.82v7.47h-.82v-3.59h-2.42v3.59h-.82v-7.47ZM64.44,73.67h.79v-1.49h.8v1.49h.97v.69h-.97v3.66c0,.38.08.62.5.62.13,0,.29,0,.39-.03v.62c-.19.07-.47.09-.66.09-.66,0-1.04-.27-1.04-1.15v-3.82h-.79v-.69ZM68.24,76.61c0,1.09.19,2.05,1.07,2.05s.99-.83,1.02-1h.79c-.01.14-.17,1.69-1.81,1.69s-1.87-1.51-1.87-2.89c0-1.77.6-2.88,1.92-2.88,1.47,0,1.81,1.21,1.81,2.6,0,.11,0,.29-.01.43h-2.91ZM70.36,75.98c0-.96-.2-1.71-1.02-1.71-1.02,0-1.07,1.33-1.09,1.71h2.1ZM70.36,75.98h0ZM72.17,73.67h.77c.01.14.03.4.03,1,.24-.67.78-1.07,1.47-1.08v.89c-.96.03-1.46.63-1.46,1.66v3.12h-.8v-3.68c0-.89,0-1.5-.01-1.9ZM75.17,75.35c0-.99,0-1.41-.01-1.67h.77c.02.16.03.46.03.71.22-.49.61-.81,1.25-.81.58,0,.99.25,1.16.83.2-.45.62-.83,1.35-.83s1.35.34,1.35,1.62v4.05h-.8v-3.91c0-.56-.16-1.05-.79-1.05-.71,0-.95.63-.95,1.38v3.58h-.8v-3.89c0-.69-.23-1.06-.77-1.06-.67,0-.98.61-.98,1.45v3.5h-.8v-3.91ZM83.76,78.69c.61,0,.9-.37.9-.88,0-.58-.3-.84-1.03-1.13-1.15-.44-1.49-.86-1.49-1.63s.46-1.47,1.6-1.47c1.25,0,1.6.85,1.61,1.59h-.79c-.01-.27-.07-.93-.85-.93-.53,0-.77.33-.77.77s.19.67.97.96c1.08.42,1.56.81,1.56,1.77,0,1.02-.64,1.62-1.75,1.62s-1.72-.69-1.75-1.71h.8c.04.6.35,1.05.99,1.05ZM89.94,78.69c.61,0,.9-.37.9-.88,0-.58-.3-.84-1.03-1.13-1.15-.44-1.49-.86-1.49-1.63s.46-1.47,1.6-1.47c1.25,0,1.6.85,1.61,1.59h-.79c-.01-.27-.07-.93-.85-.93-.53,0-.77.33-.77.77s.19.67.97.96c1.08.42,1.56.81,1.56,1.77,0,1.02-.64,1.62-1.75,1.62s-1.72-.69-1.75-1.71h.8c.04.6.35,1.05.99,1.05ZM93.19,76.61c0,1.09.19,2.05,1.07,2.05s.99-.83,1.02-1h.79c-.01.14-.17,1.69-1.81,1.69s-1.87-1.51-1.87-2.89c0-1.77.6-2.88,1.92-2.88,1.47,0,1.81,1.21,1.81,2.6,0,.11,0,.29-.01.43h-2.91ZM95.3,75.98c0-.96-.2-1.71-1.02-1.71-1.02,0-1.07,1.33-1.09,1.71h2.1ZM95.3,75.98h0ZM97.12,73.67h.77c.01.14.03.4.03,1,.24-.67.78-1.07,1.47-1.08v.89c-.96.03-1.46.63-1.46,1.66v3.12h-.8v-3.68c0-.89,0-1.5-.01-1.9ZM100.77,73.67c.46,1.81,1.01,3.99,1.12,4.67h.01c.07-.62.91-3.53,1.18-4.67h.81l-1.6,5.58h-.87l-1.51-5.58h.85ZM105.15,76.61c0,1.09.19,2.05,1.07,2.05s.99-.83,1.02-1h.79c-.01.14-.17,1.69-1.81,1.69s-1.87-1.51-1.87-2.89c0-1.77.6-2.88,1.92-2.88,1.47,0,1.81,1.21,1.81,2.6,0,.11,0,.29-.01.43h-2.91ZM107.27,75.98c0-.96-.2-1.71-1.02-1.71-1.02,0-1.07,1.33-1.09,1.71h2.1ZM107.27,75.98h0ZM109.09,73.67h.78c.01.14.03.36.03.73.19-.44.57-.83,1.32-.83.81,0,1.43.46,1.43,1.7v3.97h-.81v-3.82c0-.68-.22-1.14-.86-1.14-.75,0-1.07.49-1.07,1.64v3.32h-.81v-3.85c0-1.14,0-1.47-.01-1.73ZM113.28,73.67h.79v-1.49h.8v1.49h.97v.69h-.97v3.66c0,.38.08.62.5.62.13,0,.29,0,.39-.03v.62c-.19.07-.47.09-.66.09-.66,0-1.04-.27-1.04-1.15v-3.82h-.79v-.69ZM118.76,75.34v-1.51h.78v1.51h-.78ZM118.76,77.75h.78v1.51h-.78v-1.51Z"/>
    <path class="cls-1" d="M29.84,94.31c0,.35.03.81.04.99h-.74c-.03-.12-.06-.42-.06-.63-.21.45-.63.73-1.32.73-1.07,0-1.46-.84-1.46-1.61,0-1.02.69-1.79,2.15-1.79.26,0,.42,0,.58.02v-.74c0-.44-.08-.99-.84-.99-.82,0-.87.59-.9.96h-.78c.02-.8.4-1.62,1.71-1.62,1.08,0,1.6.53,1.6,1.55v3.13ZM29.07,92.65c-.14-.02-.29-.03-.55-.03-.99,0-1.4.48-1.4,1.1,0,.51.27.99.87.99.82,0,1.08-.58,1.08-1.75v-.3ZM30.92,93.78h.82v1.51h-.82v-1.51Z"/>
    <path class="cls-1" d="M37.86,95.29h-.82s1.8-7.47,1.8-7.47h1.06l1.86,7.47h-.87l-.55-2.37h-1.94l-.54,2.37ZM38.62,86.01l1.22,1.3h-.86l-1.42-1.3h1.06ZM40.18,92.19c-.43-1.84-.71-3-.81-3.6h-.03c-.1.65-.41,1.99-.77,3.6h1.61ZM45.43,94.72v2.62h-.8v-6c0-.76,0-1.28-.01-1.63h.78c.01.1.03.47.03.75.2-.48.59-.84,1.33-.84,1.06,0,1.63.94,1.63,2.8,0,2.01-.7,2.97-1.79,2.97-.67,0-1-.32-1.16-.67ZM47.56,92.46c0-1.4-.32-2.13-1.06-2.13-.86,0-1.1.82-1.1,2.14s.13,2.21,1.05,2.21c.73,0,1.1-.85,1.1-2.22ZM49.42,89.71h.77c.01.14.03.4.03,1,.24-.67.78-1.07,1.47-1.08v.89c-.96.03-1.46.63-1.46,1.66v3.12h-.8v-3.68c0-.89,0-1.5-.01-1.9ZM52.94,92.65c0,1.09.19,2.05,1.07,2.05s.99-.83,1.02-1h.79c-.01.14-.17,1.69-1.81,1.69s-1.87-1.51-1.87-2.89c0-1.77.6-2.88,1.92-2.88,1.47,0,1.81,1.21,1.81,2.6,0,.11,0,.29-.01.43h-2.91ZM55.05,92.02c0-.96-.2-1.71-1.02-1.71-1.02,0-1.07,1.33-1.09,1.71h2.1ZM55.58,87.34l-1.38,1.53h-.75l1.18-1.53h.95ZM55.05,92.02h0ZM60.32,93.59c-.02.3-.14,1.8-1.77,1.8-1.46,0-1.85-1.29-1.85-2.91s.51-2.87,1.93-2.87c1.62,0,1.7,1.5,1.7,1.76h-.82c-.01-.23-.09-1.07-.88-1.07s-1.1.88-1.1,2.17c0,1.39.3,2.22,1.06,2.22.81,0,.9-.81.94-1.11h.8ZM61.28,89.71h.8v5.58h-.8v-5.58ZM61.28,87.46h.8v1.15h-.8v-1.15ZM64.78,94.73c.61,0,.9-.37.9-.88,0-.58-.3-.84-1.03-1.13-1.15-.44-1.49-.86-1.49-1.63s.46-1.47,1.6-1.47c1.25,0,1.6.85,1.61,1.59h-.79c-.01-.27-.07-.93-.85-.93-.53,0-.77.33-.77.77s.19.67.97.96c1.08.42,1.56.81,1.56,1.77,0,1.02-.64,1.62-1.75,1.62s-1.72-.69-1.75-1.71h.8c.04.6.35,1.05.99,1.05ZM68.03,92.65c0,1.09.19,2.05,1.07,2.05s.99-.83,1.02-1h.79c-.01.14-.17,1.69-1.81,1.69s-1.87-1.51-1.87-2.89c0-1.77.6-2.88,1.92-2.88,1.47,0,1.81,1.21,1.81,2.6,0,.11,0,.29-.01.43h-2.91ZM70.15,92.02c0-.96-.2-1.71-1.02-1.71-1.02,0-1.07,1.33-1.09,1.71h2.1ZM70.15,92.02h0ZM71.96,89.71h.77c.01.14.03.4.03,1,.24-.67.78-1.07,1.47-1.08v.89c-.96.03-1.46.63-1.46,1.66v3.12h-.8v-3.68c0-.89,0-1.5-.01-1.9ZM77.11,91.39c0-.99,0-1.41-.01-1.67h.77c.02.16.03.46.03.71.22-.49.61-.81,1.25-.81.58,0,.99.25,1.16.83.2-.45.62-.83,1.35-.83s1.35.34,1.35,1.62v4.05h-.8v-3.91c0-.56-.16-1.05-.79-1.05-.71,0-.95.63-.95,1.38v3.58h-.8v-3.89c0-.69-.23-1.06-.77-1.06-.67,0-.98.61-.98,1.45v3.5h-.8v-3.91ZM87.48,94.31c0,.35.03.81.04.99h-.74c-.03-.12-.06-.42-.06-.63-.21.45-.63.73-1.32.73-1.07,0-1.46-.84-1.46-1.61,0-1.02.69-1.79,2.15-1.79.26,0,.42,0,.58.02v-.74c0-.44-.08-.99-.84-.99-.82,0-.87.59-.9.96h-.78c.02-.8.4-1.62,1.71-1.62,1.08,0,1.6.53,1.6,1.55v3.13ZM86.7,92.65c-.14-.02-.29-.03-.55-.03-.99,0-1.4.48-1.4,1.1,0,.51.27.99.87.99.82,0,1.08-.58,1.08-1.75v-.3ZM90.9,89.71h.77c.01.14.03.4.03,1,.24-.67.78-1.07,1.47-1.08v.89c-.96.03-1.46.63-1.46,1.66v3.12h-.8v-3.68c0-.89,0-1.5-.01-1.9ZM94.42,92.65c0,1.09.19,2.05,1.07,2.05s.99-.83,1.02-1h.79c-.01.14-.17,1.69-1.81,1.69s-1.87-1.51-1.87-2.89c0-1.77.6-2.88,1.92-2.88,1.47,0,1.81,1.21,1.81,2.6,0,.11,0,.29-.01.43h-2.91ZM96.53,92.02c0-.96-.2-1.71-1.02-1.71-1.02,0-1.07,1.33-1.09,1.71h2.1ZM96.53,92.02h0ZM101.8,93.59c-.02.3-.14,1.8-1.77,1.8-1.46,0-1.85-1.29-1.85-2.91s.51-2.87,1.93-2.87c1.62,0,1.7,1.5,1.7,1.76h-.82c-.01-.23-.09-1.07-.88-1.07s-1.1.88-1.1,2.17c0,1.39.3,2.22,1.06,2.22.81,0,.9-.81.94-1.11h.8ZM103.57,87.46v2.93c.19-.45.63-.78,1.34-.78.82,0,1.41.51,1.41,1.71v3.97h-.81v-3.8c0-.68-.2-1.16-.88-1.16-.77,0-1.05.63-1.05,1.6v3.35h-.81v-7.83h.81ZM108.16,92.65c0,1.09.19,2.05,1.07,2.05s.99-.83,1.02-1h.79c-.01.14-.17,1.69-1.81,1.69s-1.87-1.51-1.87-2.89c0-1.77.6-2.88,1.92-2.88,1.47,0,1.81,1.21,1.81,2.6,0,.11,0,.29-.01.43h-2.91ZM110.27,92.02c0-.96-.2-1.71-1.02-1.71-1.02,0-1.07,1.33-1.09,1.71h2.1ZM110.27,92.02h0ZM112.09,89.71h.77c.01.14.03.4.03,1,.24-.67.78-1.07,1.47-1.08v.89c-.96.03-1.46.63-1.46,1.66v3.12h-.8v-3.68c0-.89,0-1.5-.01-1.9ZM118.42,93.59c-.02.3-.14,1.8-1.77,1.8-1.46,0-1.85-1.29-1.85-2.91s.51-2.87,1.93-2.87c1.62,0,1.7,1.5,1.7,1.76h-.82c-.01-.23-.09-1.07-.88-1.07s-1.1.88-1.1,2.17c0,1.39.3,2.22,1.06,2.22.81,0,.9-.81.94-1.11h.8ZM120.19,87.46v2.93c.19-.45.63-.78,1.34-.78.82,0,1.41.51,1.41,1.71v3.97h-.81v-3.8c0-.68-.2-1.16-.88-1.16-.77,0-1.05.63-1.05,1.6v3.35h-.81v-7.83h.81ZM124.78,92.65c0,1.09.19,2.05,1.07,2.05s.99-.83,1.02-1h.79c-.01.14-.17,1.69-1.81,1.69s-1.87-1.51-1.87-2.89c0-1.77.6-2.88,1.92-2.88,1.47,0,1.81,1.21,1.81,2.6,0,.11,0,.29-.01.43h-2.91ZM126.89,92.02c0-.96-.2-1.71-1.02-1.71-1.02,0-1.07,1.33-1.09,1.71h2.1ZM126.89,92.02h0Z"/>
    <path class="cls-1" d="M26.6,103.5h.8v2.99c.18-.43.57-.83,1.33-.83,1.07,0,1.63.89,1.63,2.74,0,1.72-.46,3.02-1.78,3.02-.71,0-1.03-.36-1.2-.75,0,.18-.01.44-.03.66h-.76c.01-.3.01-.85.01-1.53v-6.3ZM29.55,108.41c0-1.4-.33-2.04-1.03-2.04-.86,0-1.14.77-1.14,2.18,0,1.34.22,2.16,1.06,2.16.74,0,1.1-.72,1.1-2.3ZM31.12,109.82h.82v1.51h-.82v-1.51Z"/>
    <path class="cls-1" d="M37.86,111.33h-.82s1.8-7.47,1.8-7.47h1.06l1.86,7.47h-.87l-.55-2.37h-1.94l-.54,2.37ZM38.62,102.05l1.22,1.3h-.86l-1.42-1.3h1.06ZM40.18,108.23c-.43-1.84-.71-3-.81-3.6h-.03c-.1.65-.41,1.99-.77,3.6h1.61ZM47.98,109.63c-.02.3-.14,1.8-1.77,1.8-1.46,0-1.85-1.29-1.85-2.91s.51-2.87,1.93-2.87c1.62,0,1.7,1.5,1.7,1.76h-.82c-.01-.23-.09-1.07-.88-1.07s-1.1.88-1.1,2.17c0,1.39.3,2.22,1.06,2.22.81,0,.9-.81.94-1.11h.8ZM49.53,108.69c0,1.09.19,2.05,1.07,2.05s.99-.83,1.02-1h.79c-.01.14-.17,1.69-1.81,1.69s-1.87-1.51-1.87-2.89c0-1.77.6-2.88,1.92-2.88,1.47,0,1.81,1.21,1.81,2.6,0,.11,0,.29-.01.43h-2.91ZM51.64,108.06c0-.96-.2-1.71-1.02-1.71-1.02,0-1.07,1.33-1.09,1.71h2.1ZM51.64,108.06h0ZM53.46,105.75h.77c.01.14.03.4.03,1,.24-.67.78-1.07,1.47-1.08v.89c-.96.03-1.46.63-1.46,1.66v3.12h-.8v-3.68c0-.89,0-1.5-.01-1.9ZM56.44,105.75h.78c.01.14.03.36.03.73.19-.44.57-.83,1.32-.83.81,0,1.43.46,1.43,1.7v3.97h-.81v-3.82c0-.68-.22-1.14-.86-1.14-.75,0-1.07.49-1.07,1.64v3.32h-.81v-3.85c0-1.14,0-1.47-.01-1.73ZM61.86,108.69c0,1.09.19,2.05,1.07,2.05s.99-.83,1.02-1h.79c-.01.14-.17,1.69-1.81,1.69s-1.87-1.51-1.87-2.89c0-1.77.6-2.88,1.92-2.88,1.47,0,1.81,1.21,1.81,2.6,0,.11,0,.29-.01.43h-2.91ZM63.98,108.06c0-.96-.2-1.71-1.02-1.71-1.02,0-1.07,1.33-1.09,1.71h2.1ZM63.98,108.06h0ZM65.79,105.75h.77c.01.14.03.4.03,1,.24-.67.78-1.07,1.47-1.08v.89c-.96.03-1.46.63-1.46,1.66v3.12h-.8v-3.68c0-.89,0-1.5-.01-1.9ZM70.94,111.33v-7.83h.8v7.83h-.8ZM73.61,108.69c0,1.09.19,2.05,1.07,2.05s.99-.83,1.02-1h.79c-.01.14-.17,1.69-1.81,1.69s-1.87-1.51-1.87-2.89c0-1.77.6-2.88,1.92-2.88,1.47,0,1.81,1.21,1.81,2.6,0,.11,0,.29-.01.43h-2.91ZM75.72,108.06c0-.96-.2-1.71-1.02-1.71-1.02,0-1.07,1.33-1.09,1.71h2.1ZM75.72,108.06h0ZM78.99,110.77c.61,0,.9-.37.9-.88,0-.58-.3-.84-1.03-1.13-1.15-.44-1.49-.86-1.49-1.63s.46-1.47,1.6-1.47c1.25,0,1.6.85,1.61,1.59h-.79c-.01-.27-.07-.93-.85-.93-.53,0-.77.33-.77.77s.19.67.97.96c1.08.42,1.56.81,1.56,1.77,0,1.02-.64,1.62-1.75,1.62s-1.72-.69-1.75-1.71h.8c.04.6.35,1.05.99,1.05ZM87.15,109.63c-.02.3-.14,1.8-1.77,1.8-1.46,0-1.85-1.29-1.85-2.91s.51-2.87,1.93-2.87c1.62,0,1.7,1.5,1.7,1.76h-.82c-.01-.23-.09-1.07-.88-1.07s-1.1.88-1.1,2.17c0,1.39.3,2.22,1.06,2.22.81,0,.9-.81.94-1.11h.8ZM91.73,108.47c0,1.96-.66,2.96-1.92,2.96s-1.92-.96-1.92-2.94.76-2.83,1.95-2.83,1.89.94,1.89,2.82ZM88.71,108.5c0,1.52.38,2.24,1.1,2.24s1.09-.73,1.09-2.24c0-1.43-.35-2.13-1.09-2.13s-1.1.63-1.1,2.14ZM92.76,105.75h.78c.01.14.03.36.03.73.19-.44.57-.83,1.32-.83.81,0,1.43.46,1.43,1.7v3.97h-.81v-3.82c0-.68-.22-1.14-.86-1.14-.75,0-1.07.49-1.07,1.64v3.32h-.81v-3.85c0-1.14,0-1.47-.01-1.73ZM101,109.63c-.02.3-.14,1.8-1.77,1.8-1.46,0-1.85-1.29-1.85-2.91s.51-2.87,1.93-2.87c1.62,0,1.7,1.5,1.7,1.76h-.82c-.01-.23-.09-1.07-.88-1.07s-1.1.88-1.1,2.17c0,1.39.3,2.22,1.06,2.22.81,0,.9-.81.94-1.11h.8ZM102.55,108.69c0,1.09.19,2.05,1.07,2.05s.99-.83,1.02-1h.79c-.01.14-.17,1.69-1.81,1.69s-1.87-1.51-1.87-2.89c0-1.77.6-2.88,1.92-2.88,1.47,0,1.81,1.21,1.81,2.6,0,.11,0,.29-.01.43h-2.91ZM104.66,108.06c0-.96-.2-1.71-1.02-1.71-1.02,0-1.07,1.33-1.09,1.71h2.1ZM104.66,108.06h0ZM107.3,110.76v2.62h-.8v-6c0-.76,0-1.28-.01-1.63h.78c.01.1.03.47.03.75.2-.48.59-.84,1.33-.84,1.06,0,1.63.94,1.63,2.8,0,2.01-.7,2.97-1.79,2.97-.67,0-1-.32-1.16-.67ZM109.42,108.5c0-1.4-.32-2.13-1.06-2.13-.86,0-1.1.82-1.1,2.14s.13,2.21,1.05,2.21c.73,0,1.1-.85,1.1-2.22ZM110.63,105.75h.79v-1.49h.8v1.49h.97v.69h-.97v3.66c0,.38.08.62.5.62.13,0,.29,0,.39-.03v.62c-.19.07-.47.09-.66.09-.66,0-1.04-.27-1.04-1.15v-3.82h-.79v-.69ZM115.47,110.77c.61,0,.9-.37.9-.88,0-.58-.3-.84-1.03-1.13-1.15-.44-1.49-.86-1.49-1.63s.46-1.47,1.6-1.47c1.25,0,1.6.85,1.61,1.59h-.79c-.01-.27-.07-.93-.85-.93-.53,0-.77.33-.77.77s.19.67.97.96c1.08.42,1.56.81,1.56,1.77,0,1.02-.64,1.62-1.75,1.62s-1.72-.69-1.75-1.71h.8c.04.6.35,1.05.99,1.05ZM121.08,110.76v2.62h-.8v-6c0-.76,0-1.28-.01-1.63h.78c.01.1.03.47.03.75.2-.48.59-.84,1.33-.84,1.06,0,1.63.94,1.63,2.8,0,2.01-.7,2.97-1.79,2.97-.67,0-1-.32-1.16-.67ZM123.21,108.5c0-1.4-.32-2.13-1.06-2.13-.86,0-1.1.82-1.1,2.14s.13,2.21,1.05,2.21c.73,0,1.1-.85,1.1-2.22ZM125.07,105.75h.77c.01.14.03.4.03,1,.24-.67.78-1.07,1.47-1.08v.89c-.96.03-1.46.63-1.46,1.66v3.12h-.8v-3.68c0-.89,0-1.5-.01-1.9ZM128.08,105.75h.8v5.58h-.8v-5.58ZM128.09,103.5h.8v1.15h-.8v-1.15ZM130.21,105.75h.78c.01.14.03.36.03.73.19-.44.57-.83,1.32-.83.81,0,1.43.46,1.43,1.7v3.97h-.81v-3.82c0-.68-.22-1.14-.86-1.14-.75,0-1.07.49-1.07,1.64v3.32h-.81v-3.85c0-1.14,0-1.47-.01-1.73ZM138.44,109.63c-.02.3-.14,1.8-1.77,1.8-1.46,0-1.85-1.29-1.85-2.91s.51-2.87,1.93-2.87c1.62,0,1.7,1.5,1.7,1.76h-.82c-.01-.23-.09-1.07-.88-1.07s-1.1.88-1.1,2.17c0,1.39.3,2.22,1.06,2.22.81,0,.9-.81.94-1.11h.8ZM139.4,105.75h.8v5.58h-.8v-5.58ZM139.41,103.5h.8v1.15h-.8v-1.15ZM142.34,110.76v2.62h-.8v-6c0-.76,0-1.28-.01-1.63h.78c.01.1.03.47.03.75.2-.48.59-.84,1.33-.84,1.06,0,1.63.94,1.63,2.8,0,2.01-.7,2.97-1.79,2.97-.67,0-1-.32-1.16-.67ZM144.47,108.5c0-1.4-.32-2.13-1.06-2.13-.86,0-1.1.82-1.1,2.14s.13,2.21,1.05,2.21c.73,0,1.1-.85,1.1-2.22ZM149.56,110.34c0,.35.03.81.04.99h-.74c-.03-.12-.06-.42-.06-.63-.21.45-.63.73-1.32.73-1.07,0-1.46-.84-1.46-1.61,0-1.02.69-1.79,2.15-1.79.26,0,.42,0,.58.02v-.74c0-.44-.08-.99-.84-.99-.82,0-.87.59-.9.96h-.78c.02-.8.4-1.62,1.71-1.62,1.08,0,1.6.53,1.6,1.55v3.13ZM148.79,108.69c-.14-.02-.29-.03-.55-.03-.99,0-1.4.48-1.4,1.1,0,.51.27.99.87.99.82,0,1.08-.58,1.08-1.75v-.3ZM154.35,109.8c0,.7,0,1.26.01,1.53h-.77c-.03-.16-.04-.38-.04-.74-.2.55-.67.84-1.33.84s-1.39-.27-1.39-1.67v-4.01h.81v3.82c0,.71.2,1.15.84,1.15s1.06-.38,1.06-1.58v-3.39h.81v4.05ZM155.92,105.75c.58,1.21.88,1.76,1.02,2.07h.01c.18-.38.56-1.11,1.05-2.07h.86l-1.47,2.66,1.48,2.92h-.9c-.55-1.15-.89-1.83-1.05-2.17h-.01c-.14.3-.55,1.13-1.07,2.17h-.86l1.47-2.8-1.43-2.78h.89Z"/>
    <path class="cls-1" d="M41.08,116.7v6.4c0,.54,0,1.1.01,1.43h-.78c-.01-.14-.03-.51-.03-.75-.17.48-.53.85-1.31.85-1.16,0-1.65-.99-1.65-2.95,0-1.78.66-2.82,1.83-2.82.72,0,1,.31,1.13.58v-2.74h.8ZM38.15,121.69c0,1.61.37,2.22,1.05,2.22.87,0,1.1-.74,1.1-2.25,0-1.63-.23-2.09-1.03-2.09-.66,0-1.11.58-1.11,2.12ZM45.58,123.54c0,.35.03.81.04.99h-.74c-.03-.12-.06-.42-.06-.63-.21.45-.63.73-1.32.73-1.07,0-1.46-.84-1.46-1.61,0-1.02.69-1.79,2.15-1.79.26,0,.42,0,.58.02v-.74c0-.44-.08-.99-.84-.99-.82,0-.87.59-.9.96h-.78c.02-.8.4-1.62,1.71-1.62,1.08,0,1.6.53,1.6,1.55v3.13ZM44.81,121.89c-.14-.02-.29-.03-.55-.03-.99,0-1.4.48-1.4,1.1,0,.51.27.99.87.99.82,0,1.08-.58,1.08-1.75v-.3ZM46.9,118.95h.78c.01.14.03.36.03.73.19-.44.57-.83,1.32-.83.81,0,1.43.46,1.43,1.7v3.97h-.81v-3.82c0-.68-.22-1.14-.86-1.14-.75,0-1.07.49-1.07,1.64v3.32h-.81v-3.85c0-1.14,0-1.47-.01-1.73ZM53.17,123.97c.61,0,.9-.37.9-.88,0-.58-.3-.84-1.03-1.13-1.15-.44-1.49-.86-1.49-1.63s.46-1.47,1.6-1.47c1.25,0,1.6.85,1.61,1.59h-.79c-.01-.27-.07-.93-.85-.93-.53,0-.77.33-.77.77s.19.67.97.96c1.08.42,1.56.81,1.56,1.77,0,1.02-.64,1.62-1.75,1.62s-1.72-.69-1.75-1.71h.8c.04.6.35,1.05.99,1.05ZM57.97,124.53v-7.83h.8v7.83h-.8ZM60.64,121.89c0,1.09.19,2.05,1.07,2.05s.99-.83,1.02-1h.79c-.01.14-.17,1.69-1.81,1.69s-1.87-1.51-1.87-2.89c0-1.77.6-2.88,1.92-2.88,1.47,0,1.81,1.21,1.81,2.6,0,.11,0,.29-.01.43h-2.91ZM62.75,121.26c0-.96-.2-1.71-1.02-1.71-1.02,0-1.07,1.33-1.09,1.71h2.1ZM62.75,121.26h0ZM66.03,123.97c.61,0,.9-.37.9-.88,0-.58-.3-.84-1.03-1.13-1.15-.44-1.49-.86-1.49-1.63s.46-1.47,1.6-1.47c1.25,0,1.6.85,1.61,1.59h-.79c-.01-.27-.07-.93-.85-.93-.53,0-.77.33-.77.77s.19.67.97.96c1.08.42,1.56.81,1.56,1.77,0,1.02-.64,1.62-1.75,1.62s-1.72-.69-1.75-1.71h.8c.04.6.35,1.05.99,1.05ZM74.07,123.54c0,.35.03.81.04.99h-.74c-.03-.12-.06-.42-.06-.63-.21.45-.63.73-1.32.73-1.07,0-1.46-.84-1.46-1.61,0-1.02.69-1.79,2.15-1.79.26,0,.42,0,.58.02v-.74c0-.44-.08-.99-.84-.99-.82,0-.87.59-.9.96h-.78c.02-.8.4-1.62,1.71-1.62,1.08,0,1.6.53,1.6,1.55v3.13ZM73.3,121.89c-.14-.02-.29-.03-.55-.03-.99,0-1.4.48-1.4,1.1,0,.51.27.99.87.99.82,0,1.08-.58,1.08-1.75v-.3ZM75.39,118.95h.77c.01.14.03.4.03,1,.24-.67.78-1.07,1.47-1.08v.89c-.96.03-1.46.63-1.46,1.66v3.12h-.8v-3.68c0-.89,0-1.5-.01-1.9ZM78.12,118.95h.79v-1.49h.8v1.49h.97v.69h-.97v3.66c0,.38.08.62.5.62.13,0,.29,0,.39-.03v.62c-.19.07-.47.09-.66.09-.66,0-1.04-.27-1.04-1.15v-3.82h-.79v-.69ZM81.48,118.95h.8v5.58h-.8v-5.58ZM81.48,116.7h.8v1.15h-.8v-1.15ZM86.96,122.83c-.02.3-.14,1.8-1.77,1.8-1.46,0-1.85-1.29-1.85-2.91s.51-2.87,1.93-2.87c1.62,0,1.7,1.5,1.7,1.76h-.82c-.01-.23-.09-1.07-.88-1.07s-1.1.88-1.1,2.17c0,1.39.3,2.22,1.06,2.22.81,0,.9-.81.94-1.11h.8ZM87.91,124.53v-7.83h.8v7.83h-.8ZM90.58,121.89c0,1.09.19,2.05,1.07,2.05s.99-.83,1.02-1h.79c-.01.14-.17,1.69-1.81,1.69s-1.87-1.51-1.87-2.89c0-1.77.6-2.88,1.92-2.88,1.47,0,1.81,1.21,1.81,2.6,0,.11,0,.29-.01.43h-2.91ZM92.7,121.26c0-.96-.2-1.71-1.02-1.71-1.02,0-1.07,1.33-1.09,1.71h2.1ZM92.7,121.26h0ZM95.97,123.97c.61,0,.9-.37.9-.88,0-.58-.3-.84-1.03-1.13-1.15-.44-1.49-.86-1.49-1.63s.46-1.47,1.6-1.47c1.25,0,1.6.85,1.61,1.59h-.79c-.01-.27-.07-.93-.85-.93-.53,0-.77.33-.77.77s.19.67.97.96c1.08.42,1.56.81,1.56,1.77,0,1.02-.64,1.62-1.75,1.62s-1.72-.69-1.75-1.71h.8c.04.6.35,1.05.99,1.05Z"/>
    <path class="cls-1" d="M29.95,138.86c-.02.3-.14,1.8-1.77,1.8-1.46,0-1.85-1.29-1.85-2.91s.51-2.87,1.93-2.87c1.62,0,1.7,1.5,1.7,1.76h-.82c-.01-.23-.09-1.07-.88-1.07s-1.1.88-1.1,2.17c0,1.39.3,2.22,1.06,2.22.81,0,.9-.81.94-1.11h.8ZM30.83,139.06h.82v1.51h-.82v-1.51Z"/>
    <path class="cls-1" d="M37.86,140.57h-.82s1.8-7.47,1.8-7.47h1.06l1.86,7.47h-.87l-.55-2.37h-1.94l-.54,2.37ZM38.62,131.29l1.22,1.3h-.86l-1.42-1.3h1.06ZM40.18,137.47c-.43-1.84-.71-3-.81-3.6h-.03c-.1.65-.41,1.99-.77,3.6h1.61ZM43.94,134.99h.79v-1.49h.8v1.49h.97v.69h-.97v3.66c0,.38.08.62.5.62.13,0,.29,0,.39-.03v.62c-.19.07-.47.09-.66.09-.66,0-1.04-.27-1.04-1.15v-3.82h-.79v-.69ZM47.24,134.99h.77c.01.14.03.4.03,1,.24-.67.78-1.07,1.47-1.08v.89c-.96.03-1.46.63-1.46,1.66v3.12h-.8v-3.68c0-.89,0-1.5-.01-1.9ZM53.79,137.71c0,1.96-.66,2.96-1.92,2.96s-1.92-.96-1.92-2.94.76-2.83,1.95-2.83,1.89.94,1.89,2.82ZM50.77,137.73c0,1.52.38,2.24,1.1,2.24s1.09-.73,1.09-2.24c0-1.43-.35-2.13-1.09-2.13s-1.1.63-1.1,2.14ZM58.34,139.04c0,.7,0,1.26.01,1.53h-.77c-.03-.16-.04-.38-.04-.74-.2.55-.67.84-1.33.84s-1.39-.27-1.39-1.67v-4.01h.81v3.82c0,.71.2,1.15.84,1.15s1.06-.38,1.06-1.58v-3.39h.81v4.05ZM59.95,134.99c.46,1.81,1.01,3.99,1.12,4.67h.01c.07-.62.91-3.53,1.18-4.67h.81l-1.6,5.58h-.87l-1.51-5.58h.85ZM64.33,137.93c0,1.09.19,2.05,1.07,2.05s.99-.83,1.02-1h.79c-.01.14-.17,1.69-1.81,1.69s-1.87-1.51-1.87-2.89c0-1.77.6-2.88,1.92-2.88,1.47,0,1.81,1.21,1.81,2.6,0,.11,0,.29-.01.43h-2.91ZM66.45,137.3c0-.96-.2-1.71-1.02-1.71-1.02,0-1.07,1.33-1.09,1.71h2.1ZM66.45,137.3h0ZM68.27,134.99h.77c.01.14.03.4.03,1,.24-.67.78-1.07,1.47-1.08v.89c-.96.03-1.46.63-1.46,1.66v3.12h-.8v-3.68c0-.89,0-1.5-.01-1.9ZM76.9,132.73v6.4c0,.54,0,1.1.01,1.43h-.78c-.01-.14-.03-.51-.03-.75-.17.48-.53.85-1.31.85-1.16,0-1.65-.99-1.65-2.95,0-1.78.66-2.82,1.83-2.82.72,0,1,.31,1.13.58v-2.74h.8ZM73.96,137.73c0,1.61.37,2.22,1.05,2.22.87,0,1.1-.74,1.1-2.25,0-1.63-.23-2.09-1.03-2.09-.66,0-1.11.58-1.11,2.12ZM78.74,137.93c0,1.09.19,2.05,1.07,2.05s.99-.83,1.02-1h.79c-.01.14-.17,1.69-1.81,1.69s-1.87-1.51-1.87-2.89c0-1.77.6-2.88,1.92-2.88,1.47,0,1.81,1.21,1.81,2.6,0,.11,0,.29-.01.43h-2.91ZM80.86,137.3c0-.96-.2-1.71-1.02-1.71-1.02,0-1.07,1.33-1.09,1.71h2.1ZM80.86,137.3h0ZM84.13,140.01c.61,0,.9-.37.9-.88,0-.58-.3-.84-1.03-1.13-1.15-.44-1.49-.86-1.49-1.63s.46-1.47,1.6-1.47c1.25,0,1.6.85,1.61,1.59h-.79c-.01-.27-.07-.93-.85-.93-.53,0-.77.33-.77.77s.19.67.97.96c1.08.42,1.56.81,1.56,1.77,0,1.02-.64,1.62-1.75,1.62s-1.72-.69-1.75-1.71h.8c.04.6.35,1.05.99,1.05ZM92.17,139.58c0,.35.03.81.04.99h-.74c-.03-.12-.06-.42-.06-.63-.21.45-.63.73-1.32.73-1.07,0-1.46-.84-1.46-1.61,0-1.02.69-1.79,2.15-1.79.26,0,.42,0,.58.02v-.74c0-.44-.08-.99-.84-.99-.82,0-.87.59-.9.96h-.78c.02-.8.4-1.62,1.71-1.62,1.08,0,1.6.53,1.6,1.55v3.13ZM91.4,137.92c-.14-.02-.29-.03-.55-.03-.99,0-1.4.48-1.4,1.1,0,.51.27.99.87.99.82,0,1.08-.58,1.08-1.75v-.3ZM93.5,134.99h.77c.01.14.03.4.03,1,.24-.67.78-1.07,1.47-1.08v.89c-.96.03-1.46.63-1.46,1.66v3.12h-.8v-3.68c0-.89,0-1.5-.01-1.9ZM96.23,134.99h.79v-1.49h.8v1.49h.97v.69h-.97v3.66c0,.38.08.62.5.62.13,0,.29,0,.39-.03v.62c-.19.07-.47.09-.66.09-.66,0-1.04-.27-1.04-1.15v-3.82h-.79v-.69ZM99.58,134.99h.8v5.58h-.8v-5.58ZM99.59,132.73h.8v1.15h-.8v-1.15ZM105.07,138.86c-.02.3-.14,1.8-1.77,1.8-1.46,0-1.85-1.29-1.85-2.91s.51-2.87,1.93-2.87c1.62,0,1.7,1.5,1.7,1.76h-.82c-.01-.23-.09-1.07-.88-1.07s-1.1.88-1.1,2.17c0,1.39.3,2.22,1.06,2.22.81,0,.9-.81.94-1.11h.8ZM106.02,140.57v-7.83h.8v7.83h-.8ZM108.69,137.93c0,1.09.19,2.05,1.07,2.05s.99-.83,1.02-1h.79c-.01.14-.17,1.69-1.81,1.69s-1.87-1.51-1.87-2.89c0-1.77.6-2.88,1.92-2.88,1.47,0,1.81,1.21,1.81,2.6,0,.11,0,.29-.01.43h-2.91ZM110.8,137.3c0-.96-.2-1.71-1.02-1.71-1.02,0-1.07,1.33-1.09,1.71h2.1ZM110.8,137.3h0ZM114.07,140.01c.61,0,.9-.37.9-.88,0-.58-.3-.84-1.03-1.13-1.15-.44-1.49-.86-1.49-1.63s.46-1.47,1.6-1.47c1.25,0,1.6.85,1.61,1.59h-.79c-.01-.27-.07-.93-.85-.93-.53,0-.77.33-.77.77s.19.67.97.96c1.08.42,1.56.81,1.56,1.77,0,1.02-.64,1.62-1.75,1.62s-1.72-.69-1.75-1.71h.8c.04.6.35,1.05.99,1.05ZM119.68,140v2.62h-.8v-6c0-.76,0-1.28-.01-1.63h.78c.01.1.03.47.03.75.2-.48.59-.84,1.33-.84,1.06,0,1.63.94,1.63,2.8,0,2.01-.7,2.97-1.79,2.97-.67,0-1-.32-1.16-.67ZM121.81,137.74c0-1.4-.32-2.13-1.06-2.13-.86,0-1.1.82-1.1,2.14s.13,2.21,1.05,2.21c.73,0,1.1-.85,1.1-2.22ZM123.68,140.57v-7.83h.8v7.83h-.8ZM129.33,139.04c0,.7,0,1.26.01,1.53h-.77c-.03-.16-.04-.38-.04-.74-.2.55-.67.84-1.33.84s-1.39-.27-1.39-1.67v-4.01h.81v3.82c0,.71.2,1.15.84,1.15s1.06-.38,1.06-1.58v-3.39h.81v4.05ZM132.01,140.01c.61,0,.9-.37.9-.88,0-.58-.3-.84-1.03-1.13-1.15-.44-1.49-.86-1.49-1.63s.46-1.47,1.6-1.47c1.25,0,1.6.85,1.61,1.59h-.79c-.01-.27-.07-.93-.85-.93-.53,0-.77.33-.77.77s.19.67.97.96c1.08.42,1.56.81,1.56,1.77,0,1.02-.64,1.62-1.75,1.62s-1.72-.69-1.75-1.71h.8c.04.6.35,1.05.99,1.05Z"/>
    <path class="cls-1" d="M38.4,153.2v2.62h-.8v-6c0-.76,0-1.28-.01-1.63h.78c.01.1.03.47.03.75.2-.48.59-.84,1.33-.84,1.06,0,1.63.94,1.63,2.8,0,2.01-.7,2.97-1.79,2.97-.67,0-1-.32-1.16-.67ZM40.53,150.94c0-1.4-.32-2.13-1.06-2.13-.86,0-1.1.82-1.1,2.14s.13,2.21,1.05,2.21c.73,0,1.1-.85,1.1-2.22ZM42.96,151.13c0,1.09.19,2.05,1.07,2.05s.99-.83,1.02-1h.79c-.01.14-.17,1.69-1.81,1.69s-1.87-1.51-1.87-2.89c0-1.77.6-2.88,1.92-2.88,1.47,0,1.81,1.21,1.81,2.6,0,.11,0,.29-.01.43h-2.91ZM45.08,150.5c0-.96-.2-1.71-1.02-1.71-1.02,0-1.07,1.33-1.09,1.71h2.1ZM45.08,150.5h0ZM46.89,148.19h.77c.01.14.03.4.03,1,.24-.67.78-1.07,1.47-1.08v.89c-.96.03-1.46.63-1.46,1.66v3.12h-.8v-3.68c0-.89,0-1.5-.01-1.9ZM49.62,148.19h.79v-1.49h.8v1.49h.97v.69h-.97v3.66c0,.38.08.62.5.62.13,0,.29,0,.39-.03v.62c-.19.07-.47.09-.66.09-.66,0-1.04-.27-1.04-1.15v-3.82h-.79v-.69ZM52.98,148.19h.8v5.58h-.8v-5.58ZM52.98,145.93h.8v1.15h-.8v-1.15ZM55.1,148.19h.78c.01.14.03.36.03.73.19-.44.57-.83,1.32-.83.81,0,1.43.46,1.43,1.7v3.97h-.81v-3.82c0-.68-.22-1.14-.86-1.14-.75,0-1.07.49-1.07,1.64v3.32h-.81v-3.85c0-1.14,0-1.47-.01-1.73ZM60.52,151.13c0,1.09.19,2.05,1.07,2.05s.99-.83,1.02-1h.79c-.01.14-.17,1.69-1.81,1.69s-1.87-1.51-1.87-2.89c0-1.77.6-2.88,1.92-2.88,1.47,0,1.81,1.21,1.81,2.6,0,.11,0,.29-.01.43h-2.91ZM62.63,150.5c0-.96-.2-1.71-1.02-1.71-1.02,0-1.07,1.33-1.09,1.71h2.1ZM62.63,150.5h0ZM64.45,148.19h.78c.01.14.03.36.03.73.19-.44.57-.83,1.32-.83.81,0,1.43.46,1.43,1.7v3.97h-.81v-3.82c0-.68-.22-1.14-.86-1.14-.75,0-1.07.49-1.07,1.64v3.32h-.81v-3.85c0-1.14,0-1.47-.01-1.73ZM68.64,148.19h.79v-1.49h.8v1.49h.97v.69h-.97v3.66c0,.38.08.62.5.62.13,0,.29,0,.39-.03v.62c-.19.07-.47.09-.66.09-.66,0-1.04-.27-1.04-1.15v-3.82h-.79v-.69ZM73.48,153.21c.61,0,.9-.37.9-.88,0-.58-.3-.84-1.03-1.13-1.15-.44-1.49-.86-1.49-1.63s.46-1.47,1.6-1.47c1.25,0,1.6.85,1.61,1.59h-.79c-.01-.27-.07-.93-.85-.93-.53,0-.77.33-.77.77s.19.67.97.96c1.08.42,1.56.81,1.56,1.77,0,1.02-.64,1.62-1.75,1.62s-1.72-.69-1.75-1.71h.8c.04.6.35,1.05.99,1.05Z"/>
    <path class="cls-1" d="M30.08,161.97v6.4c0,.54,0,1.1.01,1.43h-.78c-.01-.14-.03-.51-.03-.75-.17.48-.53.85-1.31.85-1.16,0-1.65-.99-1.65-2.95,0-1.78.66-2.82,1.83-2.82.72,0,1,.31,1.13.58v-2.74h.8ZM27.15,166.97c0,1.61.37,2.22,1.05,2.22.87,0,1.1-.74,1.1-2.25,0-1.63-.23-2.09-1.03-2.09-.66,0-1.11.58-1.11,2.12ZM31.14,168.3h.82v1.51h-.82v-1.51Z"/>
    <path class="cls-1" d="M37.68,162.33h.82v6.75h2.67l-.12.72h-3.37v-7.47ZM42.42,167.17c0,1.09.19,2.05,1.07,2.05s.99-.83,1.02-1h.79c-.01.14-.17,1.69-1.81,1.69s-1.87-1.51-1.87-2.89c0-1.77.6-2.88,1.92-2.88,1.47,0,1.81,1.21,1.81,2.6,0,.11,0,.29-.01.43h-2.91ZM44.54,166.53c0-.96-.2-1.71-1.02-1.71-1.02,0-1.07,1.33-1.09,1.71h2.1ZM44.54,166.53h0ZM47.81,169.25c.61,0,.9-.37.9-.88,0-.58-.3-.84-1.03-1.13-1.15-.44-1.49-.86-1.49-1.63s.46-1.47,1.6-1.47c1.25,0,1.6.85,1.61,1.59h-.79c-.01-.27-.07-.93-.85-.93-.53,0-.77.33-.77.77s.19.67.97.96c1.08.42,1.56.81,1.56,1.77,0,1.02-.64,1.62-1.75,1.62s-1.72-.69-1.75-1.71h.8c.04.6.35,1.05.99,1.05ZM51.92,164.23h.79v-1.49h.8v1.49h.97v.69h-.97v3.66c0,.38.08.62.5.62.13,0,.29,0,.39-.03v.62c-.19.07-.47.09-.66.09-.66,0-1.04-.27-1.04-1.15v-3.82h-.79v-.69ZM55.23,164.23h.77c.01.14.03.4.03,1,.24-.67.78-1.07,1.47-1.08v.89c-.96.03-1.46.63-1.46,1.66v3.12h-.8v-3.68c0-.89,0-1.5-.01-1.9ZM61.78,166.95c0,1.96-.66,2.96-1.92,2.96s-1.92-.96-1.92-2.94.76-2.83,1.95-2.83,1.89.94,1.89,2.82ZM58.76,166.97c0,1.52.38,2.24,1.1,2.24s1.09-.73,1.09-2.24c0-1.43-.35-2.13-1.09-2.13s-1.1.63-1.1,2.14ZM62.82,164.23h.8v5.58h-.8v-5.58ZM62.82,161.97h.8v1.15h-.8v-1.15ZM66.32,169.25c.61,0,.9-.37.9-.88,0-.58-.3-.84-1.03-1.13-1.15-.44-1.49-.86-1.49-1.63s.46-1.47,1.6-1.47c1.25,0,1.6.85,1.61,1.59h-.79c-.01-.27-.07-.93-.85-.93-.53,0-.77.33-.77.77s.19.67.97.96c1.08.42,1.56.81,1.56,1.77,0,1.02-.64,1.62-1.75,1.62s-1.72-.69-1.75-1.71h.8c.04.6.35,1.05.99,1.05ZM71.93,169.23v2.62h-.8v-6c0-.76,0-1.28-.01-1.63h.78c.01.1.03.47.03.75.2-.48.59-.84,1.33-.84,1.06,0,1.63.94,1.63,2.8,0,2.01-.7,2.97-1.79,2.97-.67,0-1-.32-1.16-.67ZM74.06,166.98c0-1.4-.32-2.13-1.06-2.13-.86,0-1.1.82-1.1,2.14s.13,2.21,1.05,2.21c.73,0,1.1-.85,1.1-2.22ZM75.92,164.23h.77c.01.14.03.4.03,1,.24-.67.78-1.07,1.47-1.08v.89c-.96.03-1.46.63-1.46,1.66v3.12h-.8v-3.68c0-.89,0-1.5-.01-1.9ZM82.47,166.95c0,1.96-.66,2.96-1.92,2.96s-1.92-.96-1.92-2.94.76-2.83,1.95-2.83,1.89.94,1.89,2.82ZM79.45,166.97c0,1.52.38,2.24,1.1,2.24s1.09-.73,1.09-2.24c0-1.43-.35-2.13-1.09-2.13s-1.1.63-1.1,2.14ZM84.32,169.23v2.62h-.8v-6c0-.76,0-1.28-.01-1.63h.78c.01.1.03.47.03.75.2-.48.59-.84,1.33-.84,1.06,0,1.63.94,1.63,2.8,0,2.01-.7,2.97-1.79,2.97-.67,0-1-.32-1.16-.67ZM86.44,166.98c0-1.4-.32-2.13-1.06-2.13-.86,0-1.1.82-1.1,2.14s.13,2.21,1.05,2.21c.73,0,1.1-.85,1.1-2.22ZM91.9,166.95c0,1.96-.66,2.96-1.92,2.96s-1.92-.96-1.92-2.94.76-2.83,1.95-2.83,1.89.94,1.89,2.82ZM88.89,166.97c0,1.52.38,2.24,1.1,2.24s1.09-.73,1.09-2.24c0-1.43-.35-2.13-1.09-2.13s-1.1.63-1.1,2.14ZM94.38,169.25c.61,0,.9-.37.9-.88,0-.58-.3-.84-1.03-1.13-1.15-.44-1.49-.86-1.49-1.63s.46-1.47,1.6-1.47c1.25,0,1.6.85,1.61,1.59h-.79c-.01-.27-.07-.93-.85-.93-.53,0-.77.33-.77.77s.19.67.97.96c1.08.42,1.56.81,1.56,1.77,0,1.02-.64,1.62-1.75,1.62s-1.72-.69-1.75-1.71h.8c.04.6.35,1.05.99,1.05ZM97.06,164.23h.8v5.58h-.8v-5.58ZM97.07,161.97h.8v1.15h-.8v-1.15ZM98.62,164.23h.79v-1.49h.8v1.49h.97v.69h-.97v3.66c0,.38.08.62.5.62.13,0,.29,0,.39-.03v.62c-.19.07-.47.09-.66.09-.66,0-1.04-.27-1.04-1.15v-3.82h-.79v-.69ZM101.97,164.23h.8v5.58h-.8v-5.58ZM101.97,161.97h.8v1.15h-.8v-1.15ZM107.67,166.95c0,1.96-.66,2.96-1.92,2.96s-1.92-.96-1.92-2.94.76-2.83,1.95-2.83,1.89.94,1.89,2.82ZM104.65,166.97c0,1.52.38,2.24,1.1,2.24s1.09-.73,1.09-2.24c0-1.43-.35-2.13-1.09-2.13s-1.1.63-1.1,2.14ZM108.7,164.23h.78c.01.14.03.36.03.73.19-.44.57-.83,1.32-.83.81,0,1.43.46,1.43,1.7v3.97h-.81v-3.82c0-.68-.22-1.14-.86-1.14-.75,0-1.07.49-1.07,1.64v3.32h-.81v-3.85c0-1.14,0-1.47-.01-1.73ZM114.96,169.25c.61,0,.9-.37.9-.88,0-.58-.3-.84-1.03-1.13-1.15-.44-1.49-.86-1.49-1.63s.46-1.47,1.6-1.47c1.25,0,1.6.85,1.61,1.59h-.79c-.01-.27-.07-.93-.85-.93-.53,0-.77.33-.77.77s.19.67.97.96c1.08.42,1.56.81,1.56,1.77,0,1.02-.64,1.62-1.75,1.62s-1.72-.69-1.75-1.71h.8c.04.6.35,1.05.99,1.05ZM123.12,168.1c-.02.3-.14,1.8-1.77,1.8-1.46,0-1.85-1.29-1.85-2.91s.51-2.87,1.93-2.87c1.62,0,1.7,1.5,1.7,1.76h-.82c-.01-.23-.09-1.07-.88-1.07s-1.1.88-1.1,2.17c0,1.39.3,2.22,1.06,2.22.81,0,.9-.81.94-1.11h.8ZM124.08,164.23h.8v5.58h-.8v-5.58ZM124.08,161.97h.8v1.15h-.8v-1.15ZM128.16,166.6v.72h-2.25v-.72h2.25ZM132.91,161.97v6.4c0,.54,0,1.1.01,1.43h-.78c-.01-.14-.03-.51-.03-.75-.17.48-.53.85-1.31.85-1.16,0-1.65-.99-1.65-2.95,0-1.78.66-2.82,1.83-2.82.72,0,1,.31,1.13.58v-2.74h.8ZM129.97,166.97c0,1.61.37,2.22,1.05,2.22.87,0,1.1-.74,1.1-2.25,0-1.63-.23-2.09-1.03-2.09-.66,0-1.11.58-1.11,2.12ZM134.75,167.17c0,1.09.19,2.05,1.07,2.05s.99-.83,1.02-1h.79c-.01.14-.17,1.69-1.81,1.69s-1.87-1.51-1.87-2.89c0-1.77.6-2.88,1.92-2.88,1.47,0,1.81,1.21,1.81,2.6,0,.11,0,.29-.01.43h-2.91ZM136.87,166.53c0-.96-.2-1.71-1.02-1.71-1.02,0-1.07,1.33-1.09,1.71h2.1ZM136.87,166.53h0ZM140.14,169.25c.61,0,.9-.37.9-.88,0-.58-.3-.84-1.03-1.13-1.15-.44-1.49-.86-1.49-1.63s.46-1.47,1.6-1.47c1.25,0,1.6.85,1.61,1.59h-.79c-.01-.27-.07-.93-.85-.93-.53,0-.77.33-.77.77s.19.67.97.96c1.08.42,1.56.81,1.56,1.77,0,1.02-.64,1.62-1.75,1.62s-1.72-.69-1.75-1.71h.8c.04.6.35,1.05.99,1.05ZM144.29,169.25c.61,0,.9-.37.9-.88,0-.58-.3-.84-1.03-1.13-1.15-.44-1.49-.86-1.49-1.63s.46-1.47,1.6-1.47c1.25,0,1.6.85,1.61,1.59h-.79c-.01-.27-.07-.93-.85-.93-.53,0-.77.33-.77.77s.19.67.97.96c1.08.42,1.56.81,1.56,1.77,0,1.02-.64,1.62-1.75,1.62s-1.72-.69-1.75-1.71h.8c.04.6.35,1.05.99,1.05ZM150.43,168.28c0,.7,0,1.26.01,1.53h-.77c-.03-.16-.04-.38-.04-.74-.2.55-.67.84-1.33.84s-1.39-.27-1.39-1.67v-4.01h.81v3.82c0,.71.2,1.15.84,1.15s1.06-.38,1.06-1.58v-3.39h.81v4.05ZM153.12,169.25c.61,0,.9-.37.9-.88,0-.58-.3-.84-1.03-1.13-1.15-.44-1.49-.86-1.49-1.63s.46-1.47,1.6-1.47c1.25,0,1.6.85,1.61,1.59h-.79c-.01-.27-.07-.93-.85-.93-.53,0-.77.33-.77.77s.19.67.97.96c1.08.42,1.56.81,1.56,1.77,0,1.02-.64,1.62-1.75,1.62s-1.72-.69-1.75-1.71h.8c.04.6.35,1.05.99,1.05Z"/>
    <path class="cls-1" d="M27.49,238.66v3.44h-.82v-7.47h1.95c1.25,0,1.91.71,1.91,1.93,0,1.12-.55,1.59-1,1.75.69.25.91.86.91,1.91v.3c0,.7.02,1.19.11,1.59h-.81c-.1-.34-.11-1.01-.11-1.61v-.25c0-1.06-.22-1.57-1.23-1.57h-.91ZM27.49,237.96h.96c.91,0,1.25-.51,1.25-1.38,0-.75-.35-1.26-1.17-1.26h-1.03v2.64ZM32.28,239.46c0,1.09.19,2.05,1.07,2.05s.99-.83,1.02-1h.79c-.01.14-.17,1.69-1.81,1.69s-1.87-1.51-1.87-2.89c0-1.77.6-2.88,1.92-2.88,1.47,0,1.81,1.21,1.81,2.6,0,.11,0,.29-.01.43h-2.91ZM34.4,238.83c0-.96-.2-1.71-1.02-1.71-1.02,0-1.07,1.33-1.09,1.71h2.1ZM34.92,234.14l-1.38,1.53h-.75l1.18-1.53h.95ZM34.4,238.83h0ZM37.03,241.53v2.62h-.8v-6c0-.76,0-1.28-.01-1.63h.78c.01.1.03.47.03.75.2-.48.59-.84,1.33-.84,1.06,0,1.63.94,1.63,2.8,0,2.01-.7,2.97-1.79,2.97-.67,0-1-.32-1.16-.67ZM39.16,239.27c0-1.4-.32-2.13-1.06-2.13-.86,0-1.1.82-1.1,2.14s.13,2.21,1.05,2.21c.73,0,1.1-.85,1.1-2.22ZM44.62,239.24c0,1.96-.66,2.96-1.92,2.96s-1.92-.96-1.92-2.94.76-2.83,1.95-2.83,1.89.94,1.89,2.82ZM41.6,239.26c0,1.52.38,2.24,1.1,2.24s1.09-.73,1.09-2.24c0-1.43-.35-2.13-1.09-2.13s-1.1.63-1.1,2.14ZM45.65,236.52h.78c.01.14.03.36.03.73.19-.44.57-.83,1.32-.83.81,0,1.43.46,1.43,1.7v3.97h-.81v-3.82c0-.68-.22-1.14-.86-1.14-.75,0-1.07.49-1.07,1.64v3.32h-.81v-3.85c0-1.14,0-1.47-.01-1.73ZM51.91,241.54c.61,0,.9-.37.9-.88,0-.58-.3-.84-1.03-1.13-1.15-.44-1.49-.86-1.49-1.63s.46-1.47,1.6-1.47c1.25,0,1.6.85,1.61,1.59h-.79c-.01-.27-.07-.93-.85-.93-.53,0-.77.33-.77.77s.19.67.97.96c1.08.42,1.56.81,1.56,1.77,0,1.02-.64,1.62-1.75,1.62s-1.72-.69-1.75-1.71h.8c.04.6.35,1.05.99,1.05ZM55.16,239.46c0,1.09.19,2.05,1.07,2.05s.99-.83,1.02-1h.79c-.01.14-.17,1.69-1.81,1.69s-1.87-1.51-1.87-2.89c0-1.77.6-2.88,1.92-2.88,1.47,0,1.81,1.21,1.81,2.6,0,.11,0,.29-.01.43h-2.91ZM57.28,238.83c0-.96-.2-1.71-1.02-1.71-1.02,0-1.07,1.33-1.09,1.71h2.1ZM57.28,238.83h0ZM61.26,238.19v-1.51h.78v1.51h-.78ZM61.26,240.59h.78v1.51h-.78v-1.51ZM69,234.26v6.4c0,.54,0,1.1.01,1.43h-.78c-.01-.14-.03-.51-.03-.75-.17.48-.53.85-1.31.85-1.16,0-1.65-.99-1.65-2.95,0-1.78.66-2.82,1.83-2.82.72,0,1,.31,1.13.58v-2.74h.8ZM66.06,239.26c0,1.61.37,2.22,1.05,2.22.87,0,1.1-.74,1.1-2.25,0-1.63-.23-2.09-1.03-2.09-.66,0-1.11.58-1.11,2.12ZM70.06,240.59h.82v1.51h-.82v-1.51Z"/>
  </g>
</svg>