<?xml version="1.0" encoding="UTF-8"?>
<svg id="Calque_1" data-name="Calque 1" xmlns="http://www.w3.org/2000/svg" xmlns:xlink="http://www.w3.org/1999/xlink" viewBox="0 0 195.59 269.29">
  <defs>
    <style>
      .cls-1 {
        fill: #1d1d1b;
      }

      .cls-2 {
        fill: none;
      }

      .cls-3 {
        clip-path: url(#clippath-1);
      }

      .cls-4 {
        fill: #f39200;
      }

      .cls-5 {
        clip-path: url(#clippath);
      }
    </style>
    <clipPath id="clippath">
      <rect class="cls-2" width="195.59" height="269.29"/>
    </clipPath>
    <clipPath id="clippath-1">
      <rect class="cls-2" width="195.59" height="269.29"/>
    </clipPath>
  </defs>
  <g class="cls-5">
    <g class="cls-3">
      <path class="cls-1" d="M75.52,40.4l-3.47-13.99h2.34l1.37,6.17c.42,1.89.86,4.09,1.03,5.51h.04c.17-1.35.74-3.6,1.16-5.47l1.36-6.21h2.27l-3.55,13.99h-2.55ZM82.22,33.39c0-1.73,0-2.84-.02-3.6h2.05c.02.21.06.67.06,1.8.42-1.23,1.38-1.96,2.79-1.97v2.39c-1.77,0-2.73.72-2.73,2.71v5.69h-2.14v-7.01ZM94.9,38.23c0,.57.05,1.73.08,2.16h-1.95c-.05-.22-.1-.72-.1-1.06-.4.74-1.13,1.25-2.43,1.25-2.04,0-2.81-1.61-2.81-3.12,0-2.1,1.43-3.46,4.15-3.46.4,0,.69,0,.95.03v-1.24c0-.69-.11-1.52-1.29-1.52s-1.31.82-1.37,1.52h-2.04c.04-1.55.77-3.18,3.49-3.18,2.21,0,3.32,1.02,3.32,3.02v5.6ZM92.84,35.62c-.25-.04-.5-.05-.88-.05-1.56,0-2.16.73-2.16,1.71,0,.76.38,1.55,1.36,1.55,1.35,0,1.67-.99,1.67-2.79v-.42ZM99.34,29.79v10.61h-2.14v-10.61h2.14ZM99.36,25.72v2.34h-2.14v-2.34h2.14ZM101.04,40.81l4.02-14.49h1.64l-4,14.49h-1.66ZM108.55,26.41h6.94v1.91h-4.77v3.96h4.49v1.88h-4.49v6.23h-2.16v-13.99ZM123.3,38.23c0,.57.05,1.73.08,2.16h-1.95c-.05-.22-.1-.72-.1-1.06-.4.74-1.13,1.25-2.43,1.25-2.04,0-2.81-1.61-2.81-3.12,0-2.1,1.43-3.46,4.15-3.46.4,0,.69,0,.95.03v-1.24c0-.69-.11-1.52-1.29-1.52s-1.31.82-1.37,1.52h-2.04c.04-1.55.77-3.18,3.49-3.18,2.21,0,3.32,1.02,3.32,3.02v5.6ZM121.24,35.62c-.25-.04-.5-.05-.88-.05-1.56,0-2.16.73-2.16,1.71,0,.76.38,1.55,1.36,1.55,1.35,0,1.67-.99,1.67-2.79v-.42ZM132.69,40.4h-2.04c-.06-.32-.08-.78-.09-1.24-.44,1-1.24,1.43-2.42,1.43-1.42,0-2.65-.66-2.65-3.18v-7.62h2.15v7.13c0,1.15.27,1.82,1.27,1.82s1.62-.57,1.62-2.46v-6.49h2.15v7.57c0,1.47,0,2.51.02,3.05ZM136.21,29.79c.9,1.96,1.37,2.94,1.63,3.51h.02c.31-.72.91-1.92,1.65-3.51h2.27l-2.74,5.02,2.75,5.59h-2.38c-.87-1.98-1.37-3.08-1.63-3.68h-.02c-.25.56-.92,2.04-1.68,3.68h-2.28l2.71-5.3-2.65-5.32h2.35Z"/>
      <path class="cls-4" d="M178.64,247.8c0,2.5-2.03,4.54-4.54,4.54H21.71c-2.5,0-4.54-2.03-4.54-4.54V21.71c0-2.5,2.03-4.54,4.54-4.54h152.39c2.5,0,4.54,2.03,4.54,4.54v226.09ZM.11,269.4h195.59V.11H.11v269.29Z"/>
      <path class="cls-4" d="M35.12,21.99c.13.03.27-.06.29-.2l.26-1.37c.02-.13-.06-.26-.2-.29-.13-.02-.26.06-.29.2l-.26,1.37c-.03.13.06.26.2.29"/>
      <path class="cls-4" d="M32.24,21.82c.07,0,.13-.04.17-.08.04-.05.06-.11.06-.18l-.05-.69c0-.07-.04-.13-.09-.17-.05-.04-.11-.07-.18-.06-.07,0-.13.04-.17.09-.04.05-.06.11-.06.18l.05.69c0,.07.04.13.08.17.05.04.11.07.18.06"/>
      <path class="cls-4" d="M26.81,23.66c.06-.04.09-.1.11-.16.01-.06,0-.13-.04-.19l-.38-.58c-.04-.06-.1-.09-.16-.11-.06-.01-.13,0-.19.04-.06.04-.09.1-.11.16-.01.06,0,.13.04.19l.38.58c.04.06.1.09.16.11.06.01.13,0,.19-.04"/>
      <path class="cls-4" d="M29.41,22.39c.13-.04.2-.19.16-.32l-.45-1.32c-.05-.13-.19-.2-.32-.16-.13.04-.2.18-.16.32l.45,1.32c.04.13.19.2.32.16"/>
      <path class="cls-4" d="M26.81,23.66c-.06.04-.12.05-.19.04-.06-.01-.12-.05-.16-.11l-.38-.58c-.04-.06-.05-.12-.04-.19.01-.06.05-.12.11-.16.06-.04.12-.05.19-.04.06.01.12.05.16.11l.38.58c.04.06.05.12.04.19-.01.06-.05.12-.11.16"/>
      <path class="cls-4" d="M37.86,22.89c-.06-.03-.11-.08-.13-.14-.02-.06-.02-.13.01-.19l.3-.63c.03-.06.08-.11.14-.13.06-.02.13-.02.19.01s.11.08.13.14c.02.06.02.13-.01.19l-.3.63c-.03.06-.08.11-.14.13-.06.02-.13.02-.19-.01"/>
      <path class="cls-4" d="M40.29,24.45c-.11-.09-.12-.25-.03-.35l.9-1.06c.09-.11.25-.12.35-.03.1.09.12.24.03.35l-.9,1.06c-.09.11-.25.12-.35.03"/>
      <path class="cls-4" d="M24.63,25.55c.09-.1.08-.26-.02-.35l-1.04-.93c-.1-.09-.26-.08-.35.02-.09.1-.08.26.02.35l1.04.93c.1.09.26.08.35-.02"/>
      <path class="cls-4" d="M22.03,30.65c.03-.13-.06-.27-.19-.3l-1.36-.3c-.13-.03-.27.05-.3.19-.03.13.06.27.19.3l1.36.3c.14.03.27-.06.3-.19"/>
      <path class="cls-4" d="M21.78,33.53c0-.07-.03-.13-.08-.17-.05-.04-.11-.07-.18-.07l-.69.03c-.07,0-.13.03-.17.08-.04.05-.07.11-.07.18,0,.07.03.13.08.17.05.04.11.07.18.07l.69-.03c.07,0,.13-.03.17-.08.04-.05.07-.11.07-.18"/>
      <path class="cls-4" d="M23.47,39c-.04-.06-.09-.1-.16-.11s-.13,0-.19.03l-.59.37c-.06.04-.1.09-.11.15-.01.06,0,.13.03.19.04.06.09.1.16.11.06.01.13,0,.19-.03l.59-.37c.06-.04.1-.09.11-.15.02-.06,0-.13-.03-.19"/>
      <path class="cls-4" d="M22.27,36.37c-.04-.13-.18-.2-.31-.16l-1.33.41c-.13.04-.2.18-.17.31.04.13.18.21.31.16l1.33-.41c.13-.04.21-.18.17-.31"/>
      <path class="cls-4" d="M23.47,39c.04.06.05.13.03.19-.01.06-.05.12-.11.15l-.59.37c-.06.04-.13.04-.19.03-.06-.01-.12-.05-.16-.11-.04-.06-.04-.13-.03-.19.01-.06.05-.12.11-.15l.59-.37c.06-.04.13-.05.19-.03s.12.05.16.11"/>
      <path class="cls-4" d="M23,27.93c-.03.06-.08.1-.15.12-.06.02-.13.02-.19-.01l-.62-.32c-.06-.03-.1-.08-.12-.15-.02-.06-.02-.13.02-.19.03-.06.08-.1.15-.12.06-.02.13-.02.19.01l.62.32c.06.03.1.08.12.15.02.06.02.13-.01.19"/>
      <path class="cls-4" d="M25.29,41.24c-.1-.09-.26-.09-.35.01l-.96,1.01c-.09.1-.09.26.01.35.1.1.26.09.35,0l.96-1.01c.09-.1.09-.26,0-.35"/>
      <path class="cls-4" d="M38.36,39.33s-.09.03-.14.07c-3.25,2.54-7.79,2.34-10.81-.46-1.62-1.51-2.56-3.56-2.64-5.77-.08-2.21.72-4.33,2.23-5.95,3.13-3.35,8.41-3.54,11.77-.42,3.02,2.8,3.53,7.3,1.22,10.7-.1.15-.08.35.05.47l2.81,2.61-1.36,1.45-2.82-2.61c-.09-.09-.22-.11-.33-.09M49.79,44.73l-6.12-4.38-2.9-2.69c1.08-1.71,1.55-3.74,1.33-5.76-.23-2.15-1.24-4.14-2.82-5.61-.89-.83-1.92-1.46-3.06-1.87-1.1-.4-2.25-.58-3.43-.54-1.17.04-2.31.31-3.38.78-1.11.49-2.09,1.19-2.92,2.08-.83.89-1.47,1.92-1.89,3.05-.4,1.1-.59,2.25-.55,3.42.04,1.17.3,2.3.78,3.36.49,1.1,1.2,2.08,2.09,2.91,1.59,1.47,3.65,2.33,5.82,2.41.86.03,1.72-.06,2.55-.26,1.12-.28,2.19-.77,3.14-1.46l3.58,3.33,4.29,4.98c.87.8,2.29.68,3.19-.28l.25-.27c.9-.96.92-2.38.05-3.18"/>
      <path class="cls-4" d="M36.94,35.78c-.36.59-.96,1.02-1.63,1.19-.04.01-.09.02-.13.03-.2.04-.39-.09-.42-.29-.04-.2.09-.39.29-.42.52-.1,1-.43,1.28-.89.1-.17.33-.22.5-.12.17.1.22.33.12.5M33.33,36.88c0,.17-.11.32-.27.36-.02,0-.05,0-.08.01-1.76.06-3.49-1.09-4.1-2.74-.07-.19.03-.4.21-.46.19-.07.4.03.47.21.5,1.37,1.93,2.32,3.4,2.27.2,0,.37.15.37.35M37.64,28.01c-1.3-1.21-3-1.84-4.77-1.77-1.78.06-3.42.81-4.64,2.11-1.22,1.3-1.85,2.99-1.79,4.76.06,1.77.81,3.41,2.11,4.61,1.3,1.21,3,1.84,4.77,1.77.48-.02.94-.08,1.39-.2,1.24-.31,2.36-.96,3.24-1.91,1.22-1.3,1.85-2.99,1.79-4.76-.06-1.77-.81-3.41-2.11-4.62"/>
    </g>
    <path class="cls-1" d="M26.68,58.58h1.66c1.72,0,2.5,1.2,2.5,3.54,0,2.54-.7,3.93-2.62,3.93h-1.54v-7.47ZM27.5,65.35h.68c1.37,0,1.8-1.08,1.8-3.2,0-1.98-.51-2.86-1.79-2.86h-.7v6.06ZM35.16,65.07c0,.35.03.81.04.99h-.74c-.03-.12-.06-.42-.06-.63-.21.45-.63.73-1.32.73-1.07,0-1.46-.84-1.46-1.61,0-1.02.69-1.79,2.15-1.79.26,0,.42,0,.58.02v-.74c0-.44-.08-.99-.84-.99-.82,0-.87.59-.9.96h-.78c.02-.8.4-1.62,1.71-1.62,1.08,0,1.6.53,1.6,1.55v3.13ZM34.39,63.41c-.14-.02-.29-.03-.55-.03-.99,0-1.4.48-1.4,1.1,0,.51.27.99.87.99.82,0,1.08-.58,1.08-1.75v-.3ZM36.49,60.47h.78c.01.14.03.36.03.73.19-.44.57-.83,1.32-.83.81,0,1.43.46,1.43,1.7v3.97h-.81v-3.82c0-.68-.22-1.14-.86-1.14-.75,0-1.07.49-1.07,1.64v3.32h-.81v-3.85c0-1.14,0-1.47-.01-1.73ZM42.75,65.49c.61,0,.9-.37.9-.88,0-.58-.3-.84-1.03-1.13-1.15-.44-1.49-.86-1.49-1.63s.46-1.47,1.6-1.47c1.25,0,1.6.85,1.61,1.59h-.79c-.01-.27-.07-.93-.85-.93-.53,0-.77.33-.77.77s.19.67.97.96c1.08.42,1.56.81,1.56,1.77,0,1.02-.64,1.62-1.75,1.62s-1.72-.69-1.75-1.71h.8c.04.6.35,1.05.99,1.05ZM47.55,66.05v-7.83h.8v7.83h-.8ZM52.87,65.07c0,.35.03.81.04.99h-.74c-.03-.12-.06-.42-.06-.63-.21.45-.63.73-1.32.73-1.07,0-1.46-.84-1.46-1.61,0-1.02.69-1.79,2.15-1.79.26,0,.42,0,.58.02v-.74c0-.44-.08-.99-.84-.99-.82,0-.87.59-.9.96h-.78c.02-.8.4-1.62,1.71-1.62,1.08,0,1.6.53,1.6,1.55v3.13ZM52.1,63.41c-.14-.02-.29-.03-.55-.03-.99,0-1.4.48-1.4,1.1,0,.51.27.99.87.99.82,0,1.08-.58,1.08-1.75v-.3ZM57.11,65.48v2.62h-.8v-6c0-.76,0-1.28-.01-1.63h.78c.01.1.03.47.03.75.2-.48.59-.84,1.33-.84,1.06,0,1.63.94,1.63,2.8,0,2.01-.7,2.97-1.79,2.97-.67,0-1-.32-1.16-.67ZM59.24,63.22c0-1.4-.32-2.13-1.06-2.13-.86,0-1.1.82-1.1,2.14s.13,2.21,1.05,2.21c.73,0,1.1-.85,1.1-2.22ZM61.1,60.47h.77c.01.14.03.4.03,1,.24-.67.78-1.07,1.47-1.08v.89c-.96.03-1.46.63-1.46,1.66v3.12h-.8v-3.68c0-.89,0-1.5-.01-1.9ZM67.65,63.2c0,1.96-.66,2.96-1.92,2.96s-1.92-.96-1.92-2.94.76-2.83,1.95-2.83,1.89.94,1.89,2.82ZM64.63,63.22c0,1.52.38,2.24,1.1,2.24s1.09-.73,1.09-2.24c0-1.43-.35-2.13-1.09-2.13s-1.1.63-1.1,2.14ZM68.7,58.22h.8v2.99c.18-.43.57-.83,1.33-.83,1.07,0,1.63.89,1.63,2.74,0,1.72-.46,3.02-1.78,3.02-.71,0-1.03-.36-1.2-.75,0,.18-.01.44-.03.66h-.76c.01-.3.01-.85.01-1.53v-6.3ZM71.65,63.14c0-1.4-.33-2.04-1.03-2.04-.86,0-1.14.77-1.14,2.18,0,1.34.22,2.16,1.06,2.16.74,0,1.1-.72,1.1-2.3ZM73.49,66.05v-7.83h.8v7.83h-.8ZM76.16,63.41c0,1.09.19,2.05,1.07,2.05s.99-.83,1.02-1h.79c-.01.14-.17,1.69-1.81,1.69s-1.87-1.51-1.87-2.89c0-1.77.6-2.88,1.92-2.88,1.47,0,1.81,1.21,1.81,2.6,0,.11,0,.29-.01.43h-2.91ZM78.28,62.78c0-.96-.2-1.71-1.02-1.71-1.02,0-1.07,1.33-1.09,1.71h2.1ZM78.8,58.1l-1.38,1.53h-.75l1.18-1.53h.95ZM78.28,62.78h0ZM80.11,62.15c0-.99,0-1.41-.01-1.67h.77c.02.16.03.46.03.71.22-.49.61-.81,1.25-.81.58,0,.99.25,1.16.83.2-.45.62-.83,1.35-.83s1.35.34,1.35,1.62v4.05h-.8v-3.91c0-.56-.16-1.05-.79-1.05-.71,0-.95.63-.95,1.38v3.58h-.8v-3.89c0-.69-.23-1.06-.77-1.06-.67,0-.98.61-.98,1.45v3.5h-.8v-3.91ZM90.47,65.07c0,.35.03.81.04.99h-.74c-.03-.12-.06-.42-.06-.63-.21.45-.63.73-1.32.73-1.07,0-1.46-.84-1.46-1.61,0-1.02.69-1.79,2.15-1.79.26,0,.42,0,.58.02v-.74c0-.44-.08-.99-.84-.99-.82,0-.87.59-.9.96h-.78c.02-.8.4-1.62,1.71-1.62,1.08,0,1.6.53,1.6,1.55v3.13ZM89.7,63.41c-.14-.02-.29-.03-.55-.03-.99,0-1.4.48-1.4,1.1,0,.51.27.99.87.99.82,0,1.08-.58,1.08-1.75v-.3ZM91.12,60.47h.79v-1.49h.8v1.49h.97v.69h-.97v3.66c0,.38.08.62.5.62.13,0,.29,0,.39-.03v.62c-.19.07-.47.09-.66.09-.66,0-1.04-.27-1.04-1.15v-3.82h-.79v-.69ZM94.47,60.47h.8v5.58h-.8v-5.58ZM94.47,58.22h.8v1.15h-.8v-1.15ZM99.3,65.35c-.21.48-.59.8-1.31.8-1.04,0-1.66-.86-1.66-2.89,0-1.85.7-2.88,1.8-2.88.74,0,1.05.35,1.17.7,0-.31.02-.5.03-.6h.78c-.01.4-.01.86-.01,1.65v5.98h-.79v-2.76ZM97.15,63.27c0,1.33.31,2.18,1.06,2.18.9,0,1.09-.78,1.09-2.21s-.12-2.15-1.03-2.15c-.7,0-1.11.76-1.11,2.18ZM104.93,64.53c0,.7,0,1.26.01,1.53h-.77c-.03-.16-.04-.38-.04-.74-.2.55-.67.84-1.33.84s-1.39-.27-1.39-1.67v-4.01h.81v3.82c0,.71.2,1.15.84,1.15s1.06-.38,1.06-1.58v-3.39h.81v4.05ZM106.77,63.41c0,1.09.19,2.05,1.07,2.05s.99-.83,1.02-1h.79c-.01.14-.17,1.69-1.81,1.69s-1.87-1.51-1.87-2.89c0-1.77.6-2.88,1.92-2.88,1.47,0,1.81,1.21,1.81,2.6,0,.11,0,.29-.01.43h-2.91ZM108.89,62.78c0-.96-.2-1.71-1.02-1.71-1.02,0-1.07,1.33-1.09,1.71h2.1ZM108.89,62.78h0ZM116.3,58.22v6.4c0,.54,0,1.1.01,1.43h-.78c-.01-.14-.03-.51-.03-.75-.17.48-.53.85-1.31.85-1.16,0-1.65-.99-1.65-2.95,0-1.78.66-2.82,1.83-2.82.72,0,1,.31,1.13.58v-2.74h.8ZM113.36,63.21c0,1.61.37,2.22,1.05,2.22.87,0,1.1-.74,1.1-2.25,0-1.63-.23-2.09-1.03-2.09-.66,0-1.11.58-1.11,2.12ZM118.15,63.41c0,1.09.19,2.05,1.07,2.05s.99-.83,1.02-1h.79c-.01.14-.17,1.69-1.81,1.69s-1.87-1.51-1.87-2.89c0-1.77.6-2.88,1.92-2.88,1.47,0,1.81,1.21,1.81,2.6,0,.11,0,.29-.01.43h-2.91ZM120.26,62.78c0-.96-.2-1.71-1.02-1.71-1.02,0-1.07,1.33-1.09,1.71h2.1ZM120.26,62.78h0ZM124.18,60.47h.77c.01.14.03.4.03,1,.24-.67.78-1.07,1.47-1.08v.89c-.96.03-1.46.63-1.46,1.66v3.12h-.8v-3.68c0-.89,0-1.5-.01-1.9ZM127.69,63.41c0,1.09.19,2.05,1.07,2.05s.99-.83,1.02-1h.79c-.01.14-.17,1.69-1.81,1.69s-1.87-1.51-1.87-2.89c0-1.77.6-2.88,1.92-2.88,1.47,0,1.81,1.21,1.81,2.6,0,.11,0,.29-.01.43h-2.91ZM129.81,62.78c0-.96-.2-1.71-1.02-1.71-1.02,0-1.07,1.33-1.09,1.71h2.1ZM129.81,62.78h0ZM135.08,64.35c-.02.3-.14,1.8-1.77,1.8-1.46,0-1.85-1.29-1.85-2.91s.51-2.87,1.93-2.87c1.62,0,1.7,1.5,1.7,1.76h-.82c-.01-.23-.09-1.07-.88-1.07s-1.1.88-1.1,2.17c0,1.39.3,2.22,1.06,2.22.81,0,.9-.81.94-1.11h.8ZM136.84,58.22v2.93c.19-.45.63-.78,1.34-.78.82,0,1.41.51,1.41,1.71v3.97h-.81v-3.8c0-.68-.2-1.16-.88-1.16-.77,0-1.05.63-1.05,1.6v3.35h-.81v-7.83h.81ZM141.43,63.41c0,1.09.19,2.05,1.07,2.05s.99-.83,1.02-1h.79c-.01.14-.17,1.69-1.81,1.69s-1.87-1.51-1.87-2.89c0-1.77.6-2.88,1.92-2.88,1.47,0,1.81,1.21,1.81,2.6,0,.11,0,.29-.01.43h-2.91ZM143.55,62.78c0-.96-.2-1.71-1.02-1.71-1.02,0-1.07,1.33-1.09,1.71h2.1ZM143.55,62.78h0ZM145.36,60.47h.77c.01.14.03.4.03,1,.24-.67.78-1.07,1.47-1.08v.89c-.96.03-1.46.63-1.46,1.66v3.12h-.8v-3.68c0-.89,0-1.5-.01-1.9ZM151.7,64.35c-.02.3-.14,1.8-1.77,1.8-1.46,0-1.85-1.29-1.85-2.91s.51-2.87,1.93-2.87c1.62,0,1.7,1.5,1.7,1.76h-.82c-.01-.23-.09-1.07-.88-1.07s-1.1.88-1.1,2.17c0,1.39.3,2.22,1.06,2.22.81,0,.9-.81.94-1.11h.8ZM153.47,58.22v2.93c.19-.45.63-.78,1.34-.78.82,0,1.41.51,1.41,1.71v3.97h-.81v-3.8c0-.68-.2-1.16-.88-1.16-.77,0-1.05.63-1.05,1.6v3.35h-.81v-7.83h.81ZM158.05,63.41c0,1.09.19,2.05,1.07,2.05s.99-.83,1.02-1h.79c-.01.14-.17,1.69-1.81,1.69s-1.87-1.51-1.87-2.89c0-1.77.6-2.88,1.92-2.88,1.47,0,1.81,1.21,1.81,2.6,0,.11,0,.29-.01.43h-2.91ZM160.17,62.78c0-.96-.2-1.71-1.02-1.71-1.02,0-1.07,1.33-1.09,1.71h2.1ZM160.17,62.78h0ZM164.15,62.14v-1.51h.78v1.51h-.78ZM164.15,64.55h.78v1.51h-.78v-1.51Z"/>
    <path class="cls-1" d="M27.67,71.78h.79l-1.43,6.77h2.68l-.24.7h-3.39l1.59-7.47ZM29.92,73.94c.37-.67.8-1.6,1.01-2.55h.76c-.27,1.06-.76,2.07-1.1,2.55h-.68ZM32.34,73.67h.78l-1.19,5.58h-.78l1.19-5.58ZM32.82,71.42h.78l-.25,1.15h-.78l.25-1.15ZM34.1,75.35c.21-.98.29-1.4.34-1.67h.75c0,.08-.07.51-.11.7.31-.47.72-.79,1.32-.79s.92.29.97.81c.29-.45.73-.81,1.43-.81s1.27.36.99,1.66l-.85,4.01h-.76l.84-3.93c.12-.56.07-1.05-.53-1.05-.68,0-1.07.66-1.23,1.41l-.76,3.56h-.77l.83-3.91c.15-.69.03-1.06-.5-1.06-.64,0-1.07.61-1.25,1.45l-.75,3.52h-.78l.83-3.91ZM41.19,78.6l-.57,2.7h-.78l1.28-6.02c.17-.76.26-1.26.32-1.61h.75c-.01.13-.06.43-.12.71.3-.48.69-.8,1.34-.8.97,0,1.55.91,1.07,3.06-.46,2.05-1.27,2.7-2.19,2.7-.67,0-1.03-.39-1.12-.75ZM43.71,76.59c.36-1.71.05-2.32-.58-2.32-.8,0-1.28.94-1.49,2.04-.34,1.69-.17,2.36.63,2.36.6,0,1.12-.58,1.44-2.09ZM48.48,77.98c-.07.36-.21.98-.25,1.28h-.75c.02-.15.05-.42.11-.63-.28.49-.71.73-1.34.73-1.06,0-1.34-.9-1.15-1.79.23-1.04.97-1.39,1.91-1.56.37-.07.77-.09,1.17-.12l.12-.58c.12-.56.05-1.09-.74-1.09-.56,0-.81.32-.96.92h-.75c.19-.89.68-1.54,1.8-1.54,1.06,0,1.65.56,1.4,1.75l-.56,2.64ZM48.05,76.48c-.32.03-.64.05-.93.11-.62.12-1.1.36-1.25,1.02-.11.51.02,1.07.66,1.07.75,0,1.18-.59,1.43-1.76l.09-.45ZM53.13,77.73c-.24.75-.75,1.61-1.94,1.61-1.49,0-1.67-1.34-1.31-3,.35-1.61,1.07-2.76,2.29-2.76s1.49.91,1.38,1.75h-.77c.07-.64-.09-1.07-.69-1.07s-1.11.59-1.45,2.18c-.27,1.3-.2,2.24.61,2.24.55,0,.89-.38,1.1-.94h.77ZM54.33,73.67h.8l.32-1.48h.77l-.32,1.48h.93l-.14.66h-.94l-.77,3.63c-.09.41-.09.73.38.73.2,0,.36-.03.47-.05l-.13.6c-.18.07-.44.09-.66.09-.71,0-1.07-.32-.88-1.22l.82-3.78h-.8l.14-.66ZM63.6,71.42l-1.36,6.4c-.12.54-.23,1.08-.28,1.43h-.76c.01-.14.05-.37.12-.69-.29.46-.66.79-1.36.79-1.16,0-1.48-1.2-1.08-3.03.34-1.54,1.09-2.73,2.24-2.73.72,0,1.01.39,1.11.69l.61-2.86h.78ZM59.63,76.41c-.28,1.31-.21,2.28.63,2.28s1.23-.95,1.54-2.4c.29-1.38.15-2.02-.66-2.02-.7,0-1.23.81-1.52,2.14ZM64.36,76.58c-.07.37-.12.71-.12,1,0,.69.22,1.1.79,1.1.65,0,.91-.51,1.05-.83h.76c-.18.58-.71,1.5-1.89,1.5-1.62,0-1.6-1.66-1.32-2.99.36-1.68,1.12-2.77,2.32-2.77,1.37,0,1.66,1.16,1.31,2.58,0,0-.1.41-.1.41h-2.8ZM66.64,75.19c0-.53-.17-.94-.78-.94-.7,0-1.13.78-1.37,1.72h2.03c.06-.26.12-.55.12-.78ZM69.69,79.25l1.67-7.83h.78l-1.67,7.83h-.78ZM72.59,73.94c.37-.67.8-1.6,1.01-2.55h.76c-.27,1.06-.76,2.07-1.1,2.55h-.68ZM75,73.67h.78l-1.19,5.58h-.78l1.19-5.58ZM75.49,71.42h.78l-.25,1.15h-.78l.25-1.15ZM76.75,75.4c.25-1.14.32-1.55.35-1.73h.76c-.02.16-.08.48-.13.74.28-.46.69-.82,1.4-.82.78,0,1.35.51,1.08,1.81l-.82,3.85h-.78l.8-3.77c.16-.73.01-1.2-.61-1.2-.69,0-1.13.5-1.38,1.66l-.7,3.32h-.79l.82-3.85ZM81.2,73.67h.8l.32-1.48h.77l-.32,1.48h.93l-.14.66h-.94l-.77,3.63c-.09.41-.09.73.38.73.2,0,.36-.03.47-.05l-.13.6c-.18.07-.44.09-.66.09-.71,0-1.07-.32-.88-1.22l.82-3.78h-.8l.14-.66ZM84.41,76.58c-.07.37-.12.71-.12,1,0,.69.22,1.1.79,1.1.65,0,.91-.51,1.05-.83h.76c-.18.58-.71,1.5-1.89,1.5-1.62,0-1.6-1.66-1.32-2.99.36-1.68,1.12-2.77,2.32-2.77,1.37,0,1.66,1.16,1.31,2.58,0,0-.1.41-.1.41h-2.8ZM86.7,75.19c0-.53-.17-.94-.78-.94-.7,0-1.13.78-1.37,1.72h2.03c.06-.26.12-.55.12-.78ZM87.74,79.25l1.67-7.83h.78l-1.67,7.83h-.78ZM89.84,79.25l1.67-7.83h.78l-1.67,7.83h-.78ZM93.13,73.67h.78l-1.19,5.58h-.78l1.19-5.58ZM93.62,71.42h.78l-.25,1.15h-.78l.25-1.15ZM97.56,78.89c-.31,1.47-.77,2.51-2.24,2.51s-1.6-1.01-1.54-1.61h.75c-.01.41.11.96.85.96.84,0,1.16-.72,1.38-1.73l.13-.6c-.3.53-.74.8-1.34.8-1.25,0-1.45-1.29-1.12-2.79.37-1.76,1.12-2.83,2.22-2.83.72,0,1.03.42,1.09.79.06-.25.15-.59.19-.71h.76c-.07.26-.2.86-.36,1.61l-.76,3.6ZM95.83,78.54c.83,0,1.25-.94,1.51-2.1.32-1.46.2-2.18-.63-2.18-.72,0-1.23.89-1.5,2.22-.26,1.27-.13,2.06.63,2.06ZM99.9,76.58c-.07.37-.12.71-.12,1,0,.69.22,1.1.79,1.1.65,0,.91-.51,1.05-.83h.76c-.18.58-.71,1.5-1.89,1.5-1.62,0-1.6-1.66-1.32-2.99.36-1.68,1.12-2.77,2.32-2.77,1.37,0,1.66,1.16,1.31,2.58,0,0-.1.41-.1.41h-2.8ZM102.18,75.19c0-.53-.17-.94-.78-.94-.7,0-1.13.78-1.37,1.72h2.03c.06-.26.12-.55.12-.78ZM104.02,75.4c.25-1.14.32-1.55.35-1.73h.76c-.02.16-.08.48-.13.74.28-.46.69-.82,1.4-.82.78,0,1.35.51,1.08,1.81l-.82,3.85h-.78l.8-3.77c.16-.73.01-1.2-.61-1.2-.69,0-1.13.5-1.38,1.66l-.7,3.32h-.79l.82-3.85ZM111.61,77.73c-.24.75-.75,1.61-1.94,1.61-1.49,0-1.67-1.34-1.31-3,.35-1.61,1.07-2.76,2.29-2.76s1.49.91,1.38,1.75h-.77c.07-.64-.09-1.07-.69-1.07s-1.11.59-1.45,2.18c-.27,1.3-.2,2.24.61,2.24.55,0,.89-.38,1.1-.94h.77ZM113.33,76.58c-.07.37-.12.71-.12,1,0,.69.22,1.1.79,1.1.65,0,.91-.51,1.05-.83h.76c-.18.58-.71,1.5-1.89,1.5-1.62,0-1.6-1.66-1.32-2.99.36-1.68,1.12-2.77,2.32-2.77,1.37,0,1.66,1.16,1.31,2.58,0,0-.1.41-.1.41h-2.8ZM115.61,75.19c0-.53-.17-.94-.78-.94-.7,0-1.13.78-1.37,1.72h2.03c.06-.26.12-.55.12-.78ZM122.1,77.98c-.07.36-.21.98-.25,1.28h-.75c.02-.15.05-.42.11-.63-.28.49-.71.73-1.34.73-1.06,0-1.34-.9-1.15-1.79.23-1.04.97-1.39,1.91-1.56.37-.07.77-.09,1.17-.12l.12-.58c.12-.56.05-1.09-.74-1.09-.56,0-.81.32-.96.92h-.75c.19-.89.68-1.54,1.8-1.54,1.06,0,1.65.56,1.4,1.75l-.56,2.64ZM121.67,76.48c-.32.03-.64.05-.93.11-.62.12-1.1.36-1.25,1.02-.11.51.02,1.07.66,1.07.75,0,1.18-.59,1.43-1.76l.09-.45ZM123.93,75.56c.19-.89.31-1.47.38-1.89h.74c-.03.19-.06.45-.18.98.39-.73.99-1.06,1.67-1.07l-.2.87c-.97,0-1.54.66-1.77,1.73l-.65,3.06h-.78l.79-3.69ZM127,73.67h.8l.32-1.48h.77l-.32,1.48h.93l-.14.66h-.94l-.77,3.63c-.09.41-.09.73.38.73.2,0,.36-.03.47-.05l-.13.6c-.18.07-.44.09-.66.09-.71,0-1.07-.32-.88-1.22l.82-3.78h-.8l.14-.66ZM130.41,73.67h.78l-1.19,5.58h-.78l1.19-5.58ZM130.9,71.42h.78l-.25,1.15h-.78l.25-1.15ZM131.55,79.25l1.04-4.92h-.74l.14-.66h.75l.17-.79c.18-.86.48-1.53,1.43-1.53.15,0,.44.03.53.08l-.15.66c-.1-.03-.21-.05-.37-.05-.43,0-.54.3-.66.84l-.17.79h.85l-.14.66h-.85l-1.04,4.92h-.78ZM135.13,73.67h.78l-1.19,5.58h-.78l1.19-5.58ZM135.62,71.42h.78l-.25,1.15h-.78l.25-1.15ZM139.7,77.73c-.24.75-.75,1.61-1.94,1.61-1.49,0-1.67-1.34-1.31-3,.35-1.61,1.07-2.76,2.29-2.76s1.49.91,1.38,1.75h-.77c.07-.64-.09-1.07-.69-1.07s-1.11.59-1.45,2.18c-.27,1.3-.2,2.24.61,2.24.55,0,.89-.38,1.1-.94h.77ZM141.53,73.67h.78l-1.19,5.58h-.78l1.19-5.58ZM142.02,71.42h.78l-.25,1.15h-.78l.25-1.15ZM143.58,76.58c-.07.37-.12.71-.12,1,0,.69.22,1.1.79,1.1.65,0,.91-.51,1.05-.83h.76c-.18.58-.71,1.5-1.89,1.5-1.62,0-1.6-1.66-1.32-2.99.36-1.68,1.12-2.77,2.32-2.77,1.37,0,1.66,1.16,1.31,2.58,0,0-.1.41-.1.41h-2.8ZM145.86,75.19c0-.53-.17-.94-.78-.94-.7,0-1.13.78-1.37,1.72h2.03c.06-.26.12-.55.12-.78ZM146.91,79.25l1.67-7.83h.78l-1.67,7.83h-.78ZM149.01,79.25l1.67-7.83h.78l-1.67,7.83h-.78ZM152.24,76.58c-.07.37-.12.71-.12,1,0,.69.22,1.1.79,1.1.65,0,.91-.51,1.05-.83h.76c-.18.58-.71,1.5-1.89,1.5-1.62,0-1.6-1.66-1.32-2.99.36-1.68,1.12-2.77,2.32-2.77,1.37,0,1.66,1.16,1.31,2.58,0,0-.1.41-.1.41h-2.8ZM154.52,75.19c0-.53-.17-.94-.78-.94-.7,0-1.13.78-1.37,1.72h2.03c.06-.26.12-.55.12-.78ZM158.38,77.72c-.02.57.25.99.86.99.53,0,.78-.29.86-.68.12-.56-.08-.93-.79-1.41-.94-.63-1.18-1.11-1.01-1.9.15-.71.71-1.14,1.49-1.14,1.21,0,1.52.87,1.45,1.55h-.73c.01-.45-.13-.92-.75-.92-.33,0-.63.15-.72.58-.12.51.08.8.68,1.2,1.09.72,1.3,1.3,1.12,2.12-.17.77-.77,1.23-1.68,1.23-1.19,0-1.6-.8-1.54-1.62h.74ZM165.21,77.73c-.15.7-.27,1.26-.3,1.53h-.75c0-.13.07-.53.11-.72-.32.54-.74.82-1.38.82-.61,0-1.34-.32-1.05-1.68l.84-3.99h.78l-.81,3.8c-.15.71-.07,1.19.57,1.19.6,0,1.1-.41,1.36-1.63l.71-3.36h.78l-.86,4.05ZM166.99,75.56c.19-.89.31-1.47.38-1.89h.74c-.03.19-.06.45-.18.98.39-.73.99-1.06,1.67-1.07l-.2.87c-.97,0-1.54.66-1.77,1.73l-.65,3.06h-.78l.79-3.69Z"/>
    <path class="cls-1" d="M26.01,92.45l1.67-7.83h.78l-1.67,7.83h-.78ZM29.24,89.78c-.07.37-.12.71-.12,1,0,.69.22,1.1.79,1.1.65,0,.91-.51,1.05-.83h.76c-.18.58-.71,1.5-1.89,1.5-1.62,0-1.6-1.66-1.32-2.99.36-1.68,1.12-2.77,2.32-2.77,1.37,0,1.66,1.16,1.31,2.58,0,0-.1.41-.1.41h-2.8ZM31.52,88.39c0-.53-.17-.94-.78-.94-.7,0-1.13.78-1.37,1.72h2.03c.06-.26.12-.55.12-.78ZM33.31,90.92c-.02.57.25.99.86.99.53,0,.78-.29.86-.68.12-.56-.08-.93-.79-1.41-.94-.63-1.18-1.11-1.01-1.9.15-.71.71-1.14,1.49-1.14,1.21,0,1.52.87,1.45,1.55h-.73c.01-.45-.13-.92-.75-.92-.33,0-.63.15-.72.58-.12.51.08.8.68,1.2,1.09.72,1.3,1.3,1.12,2.12-.17.77-.77,1.23-1.68,1.23-1.19,0-1.6-.8-1.54-1.62h.74ZM39.68,89.78c-.07.37-.12.71-.12,1,0,.69.22,1.1.79,1.1.65,0,.91-.51,1.05-.83h.76c-.18.58-.71,1.5-1.89,1.5-1.62,0-1.6-1.66-1.32-2.99.36-1.68,1.12-2.77,2.32-2.77,1.37,0,1.66,1.16,1.31,2.58,0,0-.1.41-.1.41h-2.8ZM41.96,88.39c0-.53-.17-.94-.78-.94-.7,0-1.13.78-1.37,1.72h2.03c.06-.26.12-.55.12-.78ZM43.44,84.5l-1.72,1.53h-.75l1.47-1.53h1ZM43.53,86.87h.8l.32-1.48h.77l-.32,1.48h.93l-.14.66h-.94l-.77,3.63c-.09.41-.09.73.38.73.2,0,.36-.03.47-.05l-.13.6c-.18.07-.44.09-.66.09-.71,0-1.07-.32-.88-1.22l.82-3.78h-.8l.14-.66ZM49.29,90.93c-.15.7-.27,1.26-.3,1.53h-.75c0-.13.07-.53.11-.72-.32.54-.74.82-1.38.82-.61,0-1.34-.32-1.05-1.68l.84-3.99h.78l-.81,3.8c-.15.71-.07,1.19.57,1.19.6,0,1.1-.41,1.36-1.63l.71-3.36h.78l-.86,4.05ZM55.41,84.62l-1.36,6.4c-.12.54-.23,1.08-.28,1.43h-.76c.01-.14.05-.37.12-.69-.29.46-.66.79-1.36.79-1.16,0-1.48-1.2-1.08-3.03.34-1.54,1.09-2.73,2.24-2.73.72,0,1.01.39,1.11.69l.61-2.86h.78ZM51.45,89.61c-.28,1.31-.21,2.28.63,2.28s1.23-.95,1.54-2.4c.29-1.38.15-2.02-.66-2.02-.7,0-1.23.81-1.52,2.14ZM56.24,86.87h.78l-1.19,5.58h-.78l1.19-5.58ZM56.72,84.62h.78l-.25,1.15h-.78l.25-1.15ZM60.6,91.18c-.07.36-.21.98-.25,1.28h-.75c.02-.15.05-.42.11-.63-.28.49-.71.73-1.34.73-1.06,0-1.34-.9-1.15-1.79.23-1.04.97-1.39,1.91-1.56.37-.07.77-.09,1.17-.12l.12-.58c.12-.56.05-1.09-.74-1.09-.56,0-.81.32-.96.92h-.75c.19-.89.68-1.54,1.8-1.54,1.06,0,1.65.56,1.4,1.75l-.56,2.64ZM60.17,89.68c-.32.03-.64.05-.93.11-.62.12-1.1.36-1.25,1.02-.11.51.02,1.07.66,1.07.75,0,1.18-.59,1.43-1.76l.09-.45ZM62.46,88.6c.25-1.14.32-1.55.35-1.73h.76c-.02.16-.08.48-.13.74.28-.46.69-.82,1.4-.82.78,0,1.35.51,1.08,1.81l-.82,3.85h-.78l.8-3.77c.16-.73.01-1.2-.61-1.2-.69,0-1.13.5-1.38,1.66l-.7,3.32h-.79l.82-3.85ZM66.91,86.87h.8l.32-1.48h.77l-.32,1.48h.93l-.14.66h-.94l-.77,3.63c-.09.41-.09.73.38.73.2,0,.36-.03.47-.05l-.13.6c-.18.07-.44.09-.66.09-.71,0-1.07-.32-.88-1.22l.82-3.78h-.8l.14-.66ZM69.91,90.92c-.02.57.25.99.86.99.53,0,.78-.29.86-.68.12-.56-.08-.93-.79-1.41-.94-.63-1.18-1.11-1.01-1.9.15-.71.71-1.14,1.49-1.14,1.21,0,1.52.87,1.45,1.55h-.73c.01-.45-.13-.92-.75-.92-.33,0-.63.15-.72.58-.12.51.08.8.68,1.2,1.09.72,1.3,1.3,1.12,2.12-.17.77-.77,1.23-1.68,1.23-1.19,0-1.6-.8-1.54-1.62h.74ZM80.28,84.62l-1.36,6.4c-.12.54-.23,1.08-.28,1.43h-.76c.01-.14.05-.37.12-.69-.29.46-.66.79-1.36.79-1.16,0-1.48-1.2-1.08-3.03.34-1.54,1.09-2.73,2.24-2.73.72,0,1.01.39,1.11.69l.61-2.86h.78ZM76.32,89.61c-.28,1.31-.21,2.28.63,2.28s1.23-.95,1.54-2.4c.29-1.38.15-2.02-.66-2.02-.7,0-1.23.81-1.52,2.14ZM81.05,89.78c-.07.37-.12.71-.12,1,0,.69.22,1.1.79,1.1.65,0,.91-.51,1.05-.83h.76c-.18.58-.71,1.5-1.89,1.5-1.62,0-1.6-1.66-1.32-2.99.36-1.68,1.12-2.77,2.32-2.77,1.37,0,1.66,1.16,1.31,2.58,0,0-.1.41-.1.41h-2.8ZM83.33,88.39c0-.53-.17-.94-.78-.94-.7,0-1.13.78-1.37,1.72h2.03c.06-.26.12-.55.12-.78ZM87.2,88.6c.25-1.14.32-1.55.35-1.73h.76c-.02.16-.08.48-.13.74.28-.46.69-.82,1.4-.82.78,0,1.35.51,1.08,1.81l-.82,3.85h-.78l.8-3.77c.16-.73.01-1.2-.61-1.2-.69,0-1.13.5-1.38,1.66l-.7,3.32h-.79l.82-3.85ZM92.34,86.87h.78l-1.19,5.58h-.78l1.19-5.58ZM92.83,84.62h.78l-.25,1.15h-.78l.25-1.15ZM94.73,86.87c.06,2.05.1,4.23.08,4.72h.01c.11-.34,1.21-2.66,2.17-4.72h.79s-2.71,5.58-2.71,5.58h-.86l-.26-5.58h.78ZM98.52,89.78c-.07.37-.12.71-.12,1,0,.69.22,1.1.79,1.1.65,0,.91-.51,1.05-.83h.76c-.18.58-.71,1.5-1.89,1.5-1.62,0-1.6-1.66-1.32-2.99.36-1.68,1.12-2.77,2.32-2.77,1.37,0,1.66,1.16,1.31,2.58,0,0-.1.41-.1.41h-2.8ZM100.81,88.39c0-.53-.17-.94-.78-.94-.7,0-1.13.78-1.37,1.72h2.03c.06-.26.12-.55.12-.78ZM105.29,91.18c-.07.36-.21.98-.25,1.28h-.75c.02-.15.05-.42.11-.63-.28.49-.71.73-1.34.73-1.06,0-1.34-.9-1.15-1.79.23-1.04.97-1.39,1.91-1.56.37-.07.77-.09,1.17-.12l.12-.58c.12-.56.05-1.09-.74-1.09-.56,0-.81.32-.96.92h-.75c.19-.89.68-1.54,1.8-1.54,1.06,0,1.65.56,1.4,1.75l-.56,2.64ZM104.86,89.68c-.32.03-.64.05-.93.11-.62.12-1.1.36-1.25,1.02-.11.51.02,1.07.66,1.07.75,0,1.18-.59,1.43-1.76l.09-.45ZM110.02,90.93c-.15.7-.27,1.26-.3,1.53h-.75c0-.13.07-.53.11-.72-.32.54-.74.82-1.38.82-.61,0-1.34-.32-1.05-1.68l.84-3.99h.78l-.81,3.8c-.15.71-.07,1.19.57,1.19.6,0,1.1-.41,1.36-1.63l.71-3.36h.78l-.86,4.05ZM116.49,91.18c-.07.36-.21.98-.25,1.28h-.75c.02-.15.05-.42.11-.63-.28.49-.71.73-1.34.73-1.06,0-1.34-.9-1.15-1.79.23-1.04.97-1.39,1.91-1.56.37-.07.77-.09,1.17-.12l.12-.58c.12-.56.05-1.09-.74-1.09-.56,0-.81.32-.96.92h-.75c.19-.89.68-1.54,1.8-1.54,1.06,0,1.65.56,1.4,1.75l-.56,2.64ZM116.06,89.68c-.32.03-.64.05-.93.11-.62.12-1.1.36-1.25,1.02-.11.51.02,1.07.66,1.07.75,0,1.18-.59,1.43-1.76l.09-.45ZM121.14,90.93c-.24.75-.75,1.61-1.94,1.61-1.49,0-1.67-1.34-1.31-3,.35-1.61,1.07-2.76,2.29-2.76s1.49.91,1.38,1.75h-.77c.07-.64-.09-1.07-.69-1.07s-1.11.59-1.45,2.18c-.27,1.3-.2,2.24.61,2.24.55,0,.89-.38,1.1-.94h.77ZM125.31,91.18c-.07.36-.21.98-.25,1.28h-.75c.02-.15.05-.42.11-.63-.28.49-.71.73-1.34.73-1.06,0-1.34-.9-1.15-1.79.23-1.04.97-1.39,1.91-1.56.37-.07.77-.09,1.17-.12l.12-.58c.12-.56.05-1.09-.74-1.09-.56,0-.81.32-.96.92h-.75c.19-.89.68-1.54,1.8-1.54,1.06,0,1.65.56,1.4,1.75l-.56,2.64ZM124.88,89.68c-.32.03-.64.05-.93.11-.62.12-1.1.36-1.25,1.02-.11.51.02,1.07.66,1.07.75,0,1.18-.59,1.43-1.76l.09-.45ZM131.45,84.62l-1.36,6.4c-.12.54-.23,1.08-.28,1.43h-.76c.01-.14.05-.37.12-.69-.29.46-.66.79-1.36.79-1.16,0-1.48-1.2-1.08-3.03.34-1.54,1.09-2.73,2.24-2.73.72,0,1.01.39,1.11.69l.61-2.86h.78ZM127.49,89.61c-.28,1.31-.21,2.28.63,2.28s1.23-.95,1.54-2.4c.29-1.38.15-2.02-.66-2.02-.7,0-1.23.81-1.52,2.14ZM132.22,89.78c-.07.37-.12.71-.12,1,0,.69.22,1.1.79,1.1.65,0,.91-.51,1.05-.83h.76c-.18.58-.71,1.5-1.89,1.5-1.62,0-1.6-1.66-1.32-2.99.36-1.68,1.12-2.77,2.32-2.77,1.37,0,1.66,1.16,1.31,2.58,0,0-.1.41-.1.41h-2.8ZM134.5,88.39c0-.53-.17-.94-.78-.94-.7,0-1.13.78-1.37,1.72h2.03c.06-.26.12-.55.12-.78ZM135.98,84.5l-1.72,1.53h-.75l1.47-1.53h1ZM136.35,88.55c.21-.98.29-1.4.34-1.67h.75c0,.08-.07.51-.11.7.31-.47.72-.79,1.32-.79s.92.29.97.81c.29-.45.73-.81,1.43-.81s1.27.36.99,1.66l-.85,4.01h-.76l.84-3.93c.12-.56.07-1.05-.53-1.05-.68,0-1.07.66-1.23,1.41l-.76,3.56h-.77l.83-3.91c.15-.69.03-1.06-.5-1.06-.64,0-1.07.61-1.25,1.45l-.75,3.52h-.78l.83-3.91ZM143.71,86.87h.78l-1.19,5.58h-.78l1.19-5.58ZM144.19,84.62h.78l-.25,1.15h-.78l.25-1.15ZM147.48,91.76c-.28.46-.69.79-1.38.79-1.06,0-1.52-.98-1.07-2.99.47-2.1,1.37-2.77,2.19-2.77.74,0,1.04.39,1.12.74.06-.25.14-.53.19-.65h.76c-.13.46-.21.88-.38,1.65l-1.27,5.98h-.76l.59-2.74ZM145.82,89.59c-.3,1.36-.27,2.28.57,2.28s1.29-1.1,1.54-2.26c.25-1.15.31-2.13-.59-2.13-.63,0-1.18.58-1.52,2.12ZM153.1,90.93c-.15.7-.27,1.26-.3,1.53h-.75c0-.13.07-.53.11-.72-.32.54-.74.82-1.38.82-.61,0-1.34-.32-1.05-1.68l.84-3.99h.78l-.81,3.8c-.15.71-.07,1.19.57,1.19.6,0,1.1-.41,1.36-1.63l.71-3.36h.78l-.86,4.05ZM155.21,89.78c-.07.37-.12.71-.12,1,0,.69.22,1.1.79,1.1.65,0,.91-.51,1.05-.83h.76c-.18.58-.71,1.5-1.89,1.5-1.62,0-1.6-1.66-1.32-2.99.36-1.68,1.12-2.77,2.32-2.77,1.37,0,1.66,1.16,1.31,2.58,0,0-.1.41-.1.41h-2.8ZM157.49,88.39c0-.53-.17-.94-.78-.94-.7,0-1.13.78-1.37,1.72h2.03c.06-.26.12-.55.12-.78ZM158.78,91.05h.78c-.25.98-.75,2.03-1.17,2.57h-.7c.48-.8.89-1.8,1.09-2.57Z"/>
    <path class="cls-1" d="M26.6,101.75c0-.99,0-1.41-.01-1.67h.77c.02.16.03.46.03.71.22-.49.61-.81,1.25-.81.58,0,.99.25,1.16.83.2-.45.62-.83,1.35-.83s1.35.34,1.35,1.62v4.05h-.8v-3.91c0-.56-.16-1.05-.79-1.05-.71,0-.95.63-.95,1.38v3.58h-.8v-3.89c0-.69-.23-1.06-.77-1.06-.67,0-.98.61-.98,1.45v3.5h-.8v-3.91ZM34.35,103.01c0,1.09.19,2.05,1.07,2.05s.99-.83,1.02-1h.79c-.01.14-.17,1.69-1.81,1.69s-1.87-1.51-1.87-2.89c0-1.77.6-2.88,1.92-2.88,1.47,0,1.81,1.21,1.81,2.6,0,.11,0,.29-.01.43h-2.91ZM36.46,102.38c0-.96-.2-1.71-1.02-1.71-1.02,0-1.07,1.33-1.09,1.71h2.1ZM36.46,102.38h0ZM39.74,105.09c.61,0,.9-.37.9-.88,0-.58-.3-.84-1.03-1.13-1.15-.44-1.49-.86-1.49-1.63s.46-1.47,1.6-1.47c1.25,0,1.6.85,1.61,1.59h-.79c-.01-.27-.07-.93-.85-.93-.53,0-.77.33-.77.77s.19.67.97.96c1.08.42,1.56.81,1.56,1.77,0,1.02-.64,1.62-1.75,1.62s-1.72-.69-1.75-1.71h.8c.04.6.35,1.05.99,1.05ZM47.89,103.95c-.02.3-.14,1.8-1.77,1.8-1.46,0-1.85-1.29-1.85-2.91s.51-2.87,1.93-2.87c1.62,0,1.7,1.5,1.7,1.76h-.82c-.01-.23-.09-1.07-.88-1.07s-1.1.88-1.1,2.17c0,1.39.3,2.22,1.06,2.22.81,0,.9-.81.94-1.11h.8ZM52.47,102.8c0,1.96-.66,2.96-1.92,2.96s-1.92-.96-1.92-2.94.76-2.83,1.95-2.83,1.89.94,1.89,2.82ZM49.45,102.82c0,1.52.38,2.24,1.1,2.24s1.09-.73,1.09-2.24c0-1.43-.35-2.13-1.09-2.13s-1.1.63-1.1,2.14ZM53.5,100.07h.78c.01.14.03.36.03.73.19-.44.57-.83,1.32-.83.81,0,1.43.46,1.43,1.7v3.97h-.81v-3.82c0-.68-.22-1.14-.86-1.14-.75,0-1.07.49-1.07,1.64v3.32h-.81v-3.85c0-1.14,0-1.47-.01-1.73ZM61.74,103.95c-.02.3-.14,1.8-1.77,1.8-1.46,0-1.85-1.29-1.85-2.91s.51-2.87,1.93-2.87c1.62,0,1.7,1.5,1.7,1.76h-.82c-.01-.23-.09-1.07-.88-1.07s-1.1.88-1.1,2.17c0,1.39.3,2.22,1.06,2.22.81,0,.9-.81.94-1.11h.8ZM63.29,103.01c0,1.09.19,2.05,1.07,2.05s.99-.83,1.02-1h.79c-.01.14-.17,1.69-1.81,1.69s-1.87-1.51-1.87-2.89c0-1.77.6-2.88,1.92-2.88,1.47,0,1.81,1.21,1.81,2.6,0,.11,0,.29-.01.43h-2.91ZM65.41,102.38c0-.96-.2-1.71-1.02-1.71-1.02,0-1.07,1.33-1.09,1.71h2.1ZM65.41,102.38h0ZM68.04,105.08v2.62h-.8v-6c0-.76,0-1.28-.01-1.63h.78c.01.1.03.47.03.75.2-.48.59-.84,1.33-.84,1.06,0,1.63.94,1.63,2.8,0,2.01-.7,2.97-1.79,2.97-.67,0-1-.32-1.16-.67ZM70.16,102.82c0-1.4-.32-2.13-1.06-2.13-.86,0-1.1.82-1.1,2.14s.13,2.21,1.05,2.21c.73,0,1.1-.85,1.1-2.22ZM71.37,100.07h.79v-1.49h.8v1.49h.97v.69h-.97v3.66c0,.38.08.62.5.62.13,0,.29,0,.39-.03v.62c-.19.07-.47.09-.66.09-.66,0-1.04-.27-1.04-1.15v-3.82h-.79v-.69ZM76.21,105.09c.61,0,.9-.37.9-.88,0-.58-.3-.84-1.03-1.13-1.15-.44-1.49-.86-1.49-1.63s.46-1.47,1.6-1.47c1.25,0,1.6.85,1.61,1.59h-.79c-.01-.27-.07-.93-.85-.93-.53,0-.77.33-.77.77s.19.67.97.96c1.08.42,1.56.81,1.56,1.77,0,1.02-.64,1.62-1.75,1.62s-1.72-.69-1.75-1.71h.8c.04.6.35,1.05.99,1.05ZM82.39,105.09c.61,0,.9-.37.9-.88,0-.58-.3-.84-1.03-1.13-1.15-.44-1.49-.86-1.49-1.63s.46-1.47,1.6-1.47c1.25,0,1.6.85,1.61,1.59h-.79c-.01-.27-.07-.93-.85-.93-.53,0-.77.33-.77.77s.19.67.97.96c1.08.42,1.56.81,1.56,1.77,0,1.02-.64,1.62-1.75,1.62s-1.72-.69-1.75-1.71h.8c.04.6.35,1.05.99,1.05ZM88.67,102.8c0,1.96-.66,2.96-1.92,2.96s-1.92-.96-1.92-2.94.76-2.83,1.95-2.83,1.89.94,1.89,2.82ZM85.66,102.82c0,1.52.38,2.24,1.1,2.24s1.09-.73,1.09-2.24c0-1.43-.35-2.13-1.09-2.13s-1.1.63-1.1,2.14ZM89.7,100.07h.78c.01.14.03.36.03.73.19-.44.57-.83,1.32-.83.81,0,1.43.46,1.43,1.7v3.97h-.81v-3.82c0-.68-.22-1.14-.86-1.14-.75,0-1.07.49-1.07,1.64v3.32h-.81v-3.85c0-1.14,0-1.47-.01-1.73ZM93.9,100.07h.79v-1.49h.8v1.49h.97v.69h-.97v3.66c0,.38.08.62.5.62.13,0,.29,0,.39-.03v.62c-.19.07-.47.09-.66.09-.66,0-1.04-.27-1.04-1.15v-3.82h-.79v-.69ZM97.49,101.74v-1.51h.78v1.51h-.78ZM97.49,104.15h.78v1.51h-.78v-1.51Z"/>
    <path class="cls-1" d="M26.6,113.27h.8v5.58h-.8v-5.58ZM26.6,111.02h.8v1.15h-.8v-1.15ZM28.72,113.27h.78c.01.14.03.36.03.73.19-.44.57-.83,1.32-.83.81,0,1.43.46,1.43,1.7v3.97h-.81v-3.82c0-.68-.22-1.14-.86-1.14-.75,0-1.07.49-1.07,1.64v3.32h-.81v-3.85c0-1.14,0-1.47-.01-1.73ZM32.91,113.27h.79v-1.49h.8v1.49h.97v.69h-.97v3.66c0,.38.08.62.5.62.13,0,.29,0,.39-.03v.62c-.19.07-.47.09-.66.09-.66,0-1.04-.27-1.04-1.15v-3.82h-.79v-.69ZM36.71,116.21c0,1.09.19,2.05,1.07,2.05s.99-.83,1.02-1h.79c-.01.14-.17,1.69-1.81,1.69s-1.87-1.51-1.87-2.89c0-1.77.6-2.88,1.92-2.88,1.47,0,1.81,1.21,1.81,2.6,0,.11,0,.29-.01.43h-2.91ZM38.83,115.58c0-.96-.2-1.71-1.02-1.71-1.02,0-1.07,1.33-1.09,1.71h2.1ZM38.83,115.58h0ZM40.66,118.85v-7.83h.8v7.83h-.8ZM42.81,118.85v-7.83h.8v7.83h-.8ZM44.95,113.27h.8v5.58h-.8v-5.58ZM44.95,111.02h.8v1.15h-.8v-1.15ZM50.58,118.5c0,1.47-.35,2.49-1.95,2.49-1.44,0-1.75-.94-1.78-1.54h.82c.02.31.2.85.99.85.94,0,1.13-.68,1.13-1.81v-.51c-.2.57-.67.85-1.3.85-1.13,0-1.68-.95-1.68-2.71,0-2.01.74-2.95,1.8-2.95.76,0,1.08.37,1.18.73,0-.25.03-.52.04-.64h.77c-.01.29-.01.86-.01,1.61v3.61ZM47.63,116.11c0,1.35.37,2.01,1.06,2.01.86,0,1.1-.85,1.1-2.15s-.18-2.08-1.03-2.08c-.74,0-1.13.77-1.13,2.22ZM52.44,116.21c0,1.09.19,2.05,1.07,2.05s.99-.83,1.02-1h.79c-.01.14-.17,1.69-1.81,1.69s-1.87-1.51-1.87-2.89c0-1.77.6-2.88,1.92-2.88,1.47,0,1.81,1.21,1.81,2.6,0,.11,0,.29-.01.43h-2.91ZM54.56,115.58c0-.96-.2-1.71-1.02-1.71-1.02,0-1.07,1.33-1.09,1.71h2.1ZM54.56,115.58h0ZM56.37,113.27h.78c.01.14.03.36.03.73.19-.44.57-.83,1.32-.83.81,0,1.43.46,1.43,1.7v3.97h-.81v-3.82c0-.68-.22-1.14-.86-1.14-.75,0-1.07.49-1.07,1.64v3.32h-.81v-3.85c0-1.14,0-1.47-.01-1.73ZM64.61,117.15c-.02.3-.14,1.8-1.77,1.8-1.46,0-1.85-1.29-1.85-2.91s.51-2.87,1.93-2.87c1.62,0,1.7,1.5,1.7,1.76h-.82c-.01-.23-.09-1.07-.88-1.07s-1.1.88-1.1,2.17c0,1.39.3,2.22,1.06,2.22.81,0,.9-.81.94-1.11h.8ZM66.16,116.21c0,1.09.19,2.05,1.07,2.05s.99-.83,1.02-1h.79c-.01.14-.17,1.69-1.81,1.69s-1.87-1.51-1.87-2.89c0-1.77.6-2.88,1.92-2.88,1.47,0,1.81,1.21,1.81,2.6,0,.11,0,.29-.01.43h-2.91ZM68.28,115.58c0-.96-.2-1.71-1.02-1.71-1.02,0-1.07,1.33-1.09,1.71h2.1ZM68.28,115.58h0ZM75.44,117.87c0,.35.03.81.04.99h-.74c-.03-.12-.06-.42-.06-.63-.21.45-.63.73-1.32.73-1.07,0-1.46-.84-1.46-1.61,0-1.02.69-1.79,2.15-1.79.26,0,.42,0,.58.02v-.74c0-.44-.08-.99-.84-.99-.82,0-.87.59-.9.96h-.78c.02-.8.4-1.62,1.71-1.62,1.08,0,1.6.53,1.6,1.55v3.13ZM74.67,116.21c-.14-.02-.29-.03-.55-.03-.99,0-1.4.48-1.4,1.1,0,.51.27.99.87.99.82,0,1.08-.58,1.08-1.75v-.3ZM76.77,113.27h.77c.01.14.03.4.03,1,.24-.67.78-1.07,1.47-1.08v.89c-.96.03-1.46.63-1.46,1.66v3.12h-.8v-3.68c0-.89,0-1.5-.01-1.9ZM79.5,113.27h.79v-1.49h.8v1.49h.97v.69h-.97v3.66c0,.38.08.62.5.62.13,0,.29,0,.39-.03v.62c-.19.07-.47.09-.66.09-.66,0-1.04-.27-1.04-1.15v-3.82h-.79v-.69ZM82.85,113.27h.8v5.58h-.8v-5.58ZM82.86,111.02h.8v1.15h-.8v-1.15ZM85.14,118.85v-4.89h-.73v-.69h.73v-.77c0-.82.3-1.55,1.31-1.55.15,0,.35.03.45.06v.71c-.1-.02-.23-.05-.37-.05-.44,0-.59.28-.59.84v.75h.88v.69h-.88v4.89h-.8ZM87.55,113.27h.8v5.58h-.8v-5.58ZM87.55,111.02h.8v1.15h-.8v-1.15ZM93.03,117.15c-.02.3-.14,1.8-1.77,1.8-1.46,0-1.85-1.29-1.85-2.91s.51-2.87,1.93-2.87c1.62,0,1.7,1.5,1.7,1.76h-.82c-.01-.23-.09-1.07-.88-1.07s-1.1.88-1.1,2.17c0,1.39.3,2.22,1.06,2.22.81,0,.9-.81.94-1.11h.8ZM93.99,113.27h.8v5.58h-.8v-5.58ZM94,111.02h.8v1.15h-.8v-1.15ZM96.66,116.21c0,1.09.19,2.05,1.07,2.05s.99-.83,1.02-1h.79c-.01.14-.17,1.69-1.81,1.69s-1.87-1.51-1.87-2.89c0-1.77.6-2.88,1.92-2.88,1.47,0,1.81,1.21,1.81,2.6,0,.11,0,.29-.01.43h-2.91ZM98.78,115.58c0-.96-.2-1.71-1.02-1.71-1.02,0-1.07,1.33-1.09,1.71h2.1ZM98.78,115.58h0ZM100.6,118.85v-7.83h.8v7.83h-.8ZM102.76,118.85v-7.83h.8v7.83h-.8ZM105.43,116.21c0,1.09.19,2.05,1.07,2.05s.99-.83,1.02-1h.79c-.01.14-.17,1.69-1.81,1.69s-1.87-1.51-1.87-2.89c0-1.77.6-2.88,1.92-2.88,1.47,0,1.81,1.21,1.81,2.6,0,.11,0,.29-.01.43h-2.91ZM107.54,115.58c0-.96-.2-1.71-1.02-1.71-1.02,0-1.07,1.33-1.09,1.71h2.1ZM107.54,115.58h0ZM111.15,119.07l2.11-7.74h.67l-2.11,7.74h-.67ZM117.57,116.21c0,1.09.19,2.05,1.07,2.05s.99-.83,1.02-1h.79c-.01.14-.17,1.69-1.81,1.69s-1.87-1.51-1.87-2.89c0-1.77.6-2.88,1.92-2.88,1.47,0,1.81,1.21,1.81,2.6,0,.11,0,.29-.01.43h-2.91ZM119.69,115.58c0-.96-.2-1.71-1.02-1.71-1.02,0-1.07,1.33-1.09,1.71h2.1ZM120.21,110.9l-1.38,1.53h-.75l1.18-1.53h.95ZM119.69,115.58h0ZM120.95,113.27h.79v-1.49h.8v1.49h.97v.69h-.97v3.66c0,.38.08.62.5.62.13,0,.29,0,.39-.03v.62c-.19.07-.47.09-.66.09-.66,0-1.04-.27-1.04-1.15v-3.82h-.79v-.69ZM127.71,117.33c0,.7,0,1.26.01,1.53h-.77c-.03-.16-.04-.38-.04-.74-.2.55-.67.84-1.33.84s-1.39-.27-1.39-1.67v-4.01h.81v3.82c0,.71.2,1.15.84,1.15s1.06-.38,1.06-1.58v-3.39h.81v4.05ZM132.5,111.02v6.4c0,.54,0,1.1.01,1.43h-.78c-.01-.14-.03-.51-.03-.75-.17.48-.53.85-1.31.85-1.16,0-1.65-.99-1.65-2.95,0-1.78.66-2.82,1.83-2.82.72,0,1,.31,1.13.58v-2.74h.8ZM129.57,116.01c0,1.61.37,2.22,1.05,2.22.87,0,1.1-.74,1.1-2.25,0-1.63-.23-2.09-1.03-2.09-.66,0-1.11.58-1.11,2.12ZM133.81,113.27h.8v5.58h-.8v-5.58ZM133.82,111.02h.8v1.15h-.8v-1.15ZM139.13,117.87c0,.35.03.81.04.99h-.74c-.03-.12-.06-.42-.06-.63-.21.45-.63.73-1.32.73-1.07,0-1.46-.84-1.46-1.61,0-1.02.69-1.79,2.15-1.79.26,0,.42,0,.58.02v-.74c0-.44-.08-.99-.84-.99-.82,0-.87.59-.9.96h-.78c.02-.8.4-1.62,1.71-1.62,1.08,0,1.6.53,1.6,1.55v3.13ZM138.36,116.21c-.14-.02-.29-.03-.55-.03-.99,0-1.4.48-1.4,1.1,0,.51.27.99.87.99.82,0,1.08-.58,1.08-1.75v-.3ZM140.46,113.27h.78c.01.14.03.36.03.73.19-.44.57-.83,1.32-.83.81,0,1.43.46,1.43,1.7v3.97h-.81v-3.82c0-.68-.22-1.14-.86-1.14-.75,0-1.07.49-1.07,1.64v3.32h-.81v-3.85c0-1.14,0-1.47-.01-1.73ZM144.65,113.27h.79v-1.49h.8v1.49h.97v.69h-.97v3.66c0,.38.08.62.5.62.13,0,.29,0,.39-.03v.62c-.19.07-.47.09-.66.09-.66,0-1.04-.27-1.04-1.15v-3.82h-.79v-.69ZM149.94,115.65v.72h-2.25v-.72h2.25ZM151.74,116.21c0,1.09.19,2.05,1.07,2.05s.99-.83,1.02-1h.79c-.01.14-.17,1.69-1.81,1.69s-1.87-1.51-1.87-2.89c0-1.77.6-2.88,1.92-2.88,1.47,0,1.81,1.21,1.81,2.6,0,.11,0,.29-.01.43h-2.91ZM153.85,115.58c0-.96-.2-1.71-1.02-1.71-1.02,0-1.07,1.33-1.09,1.71h2.1ZM153.85,115.58h0ZM157.46,119.07l2.11-7.74h.67l-2.11,7.74h-.67Z"/>
    <path class="cls-1" d="M29.84,131.07c0,.35.03.81.04.99h-.74c-.03-.12-.06-.42-.06-.63-.21.45-.63.73-1.32.73-1.07,0-1.46-.84-1.46-1.61,0-1.02.69-1.79,2.15-1.79.26,0,.42,0,.58.02v-.74c0-.44-.08-.99-.84-.99-.82,0-.87.59-.9.96h-.78c.02-.8.4-1.62,1.71-1.62,1.08,0,1.6.53,1.6,1.55v3.13ZM29.07,129.41c-.14-.02-.29-.03-.55-.03-.99,0-1.4.48-1.4,1.1,0,.51.27.99.87.99.82,0,1.08-.58,1.08-1.75v-.3ZM34.52,130.35c-.02.3-.14,1.8-1.77,1.8-1.46,0-1.85-1.29-1.85-2.91s.51-2.87,1.93-2.87c1.62,0,1.7,1.5,1.7,1.76h-.82c-.01-.23-.09-1.07-.88-1.07s-1.1.88-1.1,2.17c0,1.39.3,2.22,1.06,2.22.81,0,.9-.81.94-1.11h.8ZM38.74,131.07c0,.35.03.81.04.99h-.74c-.03-.12-.06-.42-.06-.63-.21.45-.63.73-1.32.73-1.07,0-1.46-.84-1.46-1.61,0-1.02.69-1.79,2.15-1.79.26,0,.42,0,.58.02v-.74c0-.44-.08-.99-.84-.99-.82,0-.87.59-.9.96h-.78c.02-.8.4-1.62,1.71-1.62,1.08,0,1.6.53,1.6,1.55v3.13ZM37.96,129.41c-.14-.02-.29-.03-.55-.03-.99,0-1.4.48-1.4,1.1,0,.51.27.99.87.99.82,0,1.08-.58,1.08-1.75v-.3ZM43.56,124.22v6.4c0,.54,0,1.1.01,1.43h-.78c-.01-.14-.03-.51-.03-.75-.17.48-.53.85-1.31.85-1.16,0-1.65-.99-1.65-2.95,0-1.78.66-2.82,1.83-2.82.72,0,1,.31,1.13.58v-2.74h.8ZM40.62,129.21c0,1.61.37,2.22,1.05,2.22.87,0,1.1-.74,1.1-2.25,0-1.63-.23-2.09-1.03-2.09-.66,0-1.11.58-1.11,2.12ZM45.4,129.41c0,1.09.19,2.05,1.07,2.05s.99-.83,1.02-1h.79c-.01.14-.17,1.69-1.81,1.69s-1.87-1.51-1.87-2.89c0-1.77.6-2.88,1.92-2.88,1.47,0,1.81,1.21,1.81,2.6,0,.11,0,.29-.01.43h-2.91ZM47.52,128.78c0-.96-.2-1.71-1.02-1.71-1.02,0-1.07,1.33-1.09,1.71h2.1ZM48.04,124.1l-1.38,1.53h-.75l1.18-1.53h.95ZM47.52,128.78h0ZM49.35,128.15c0-.99,0-1.41-.01-1.67h.77c.02.16.03.46.03.71.22-.49.61-.81,1.25-.81.58,0,.99.25,1.16.83.2-.45.62-.83,1.35-.83s1.35.34,1.35,1.62v4.05h-.8v-3.91c0-.56-.16-1.05-.79-1.05-.71,0-.95.63-.95,1.38v3.58h-.8v-3.89c0-.69-.23-1.06-.77-1.06-.67,0-.98.61-.98,1.45v3.5h-.8v-3.91ZM56.56,126.47h.8v5.58h-.8v-5.58ZM56.57,124.22h.8v1.15h-.8v-1.15ZM61.39,131.35c-.21.48-.59.8-1.31.8-1.04,0-1.66-.86-1.66-2.89,0-1.85.7-2.88,1.8-2.88.74,0,1.05.35,1.17.7,0-.31.02-.5.03-.6h.78c-.01.4-.01.86-.01,1.65v5.98h-.79v-2.76ZM59.25,129.27c0,1.33.31,2.18,1.06,2.18.9,0,1.09-.78,1.09-2.21s-.12-2.15-1.03-2.15c-.7,0-1.11.76-1.11,2.18ZM67.02,130.53c0,.7,0,1.26.01,1.53h-.77c-.03-.16-.04-.38-.04-.74-.2.55-.67.84-1.33.84s-1.39-.27-1.39-1.67v-4.01h.81v3.82c0,.71.2,1.15.84,1.15s1.06-.38,1.06-1.58v-3.39h.81v4.05ZM68.87,129.41c0,1.09.19,2.05,1.07,2.05s.99-.83,1.02-1h.79c-.01.14-.17,1.69-1.81,1.69s-1.87-1.51-1.87-2.89c0-1.77.6-2.88,1.92-2.88,1.47,0,1.81,1.21,1.81,2.6,0,.11,0,.29-.01.43h-2.91ZM70.98,128.78c0-.96-.2-1.71-1.02-1.71-1.02,0-1.07,1.33-1.09,1.71h2.1ZM70.98,128.78h0Z"/>
    <path class="cls-1" d="M27.49,166.97v3.44h-.82v-7.47h1.95c1.25,0,1.91.71,1.91,1.93,0,1.12-.55,1.59-1,1.75.69.25.91.86.91,1.91v.3c0,.7.02,1.19.11,1.59h-.81c-.1-.34-.11-1.01-.11-1.61v-.25c0-1.06-.22-1.57-1.23-1.57h-.91ZM27.49,166.27h.96c.91,0,1.25-.51,1.25-1.38,0-.75-.35-1.26-1.17-1.26h-1.03v2.64ZM32.28,167.77c0,1.09.19,2.05,1.07,2.05s.99-.83,1.02-1h.79c-.01.14-.17,1.69-1.81,1.69s-1.87-1.51-1.87-2.89c0-1.77.6-2.88,1.92-2.88,1.47,0,1.81,1.21,1.81,2.6,0,.11,0,.29-.01.43h-2.91ZM34.4,167.14c0-.96-.2-1.71-1.02-1.71-1.02,0-1.07,1.33-1.09,1.71h2.1ZM34.92,162.45l-1.38,1.53h-.75l1.18-1.53h.95ZM34.4,167.14h0ZM37.03,169.84v2.62h-.8v-6c0-.76,0-1.28-.01-1.63h.78c.01.1.03.47.03.75.2-.48.59-.84,1.33-.84,1.06,0,1.63.94,1.63,2.8,0,2.01-.7,2.97-1.79,2.97-.67,0-1-.32-1.16-.67ZM39.16,167.58c0-1.4-.32-2.13-1.06-2.13-.86,0-1.1.82-1.1,2.14s.13,2.21,1.05,2.21c.73,0,1.1-.85,1.1-2.22ZM44.62,167.56c0,1.96-.66,2.96-1.92,2.96s-1.92-.96-1.92-2.94.76-2.83,1.95-2.83,1.89.94,1.89,2.82ZM41.6,167.58c0,1.52.38,2.24,1.1,2.24s1.09-.73,1.09-2.24c0-1.43-.35-2.13-1.09-2.13s-1.1.63-1.1,2.14ZM45.65,164.83h.78c.01.14.03.36.03.73.19-.44.57-.83,1.32-.83.81,0,1.43.46,1.43,1.7v3.97h-.81v-3.82c0-.68-.22-1.14-.86-1.14-.75,0-1.07.49-1.07,1.64v3.32h-.81v-3.85c0-1.14,0-1.47-.01-1.73ZM51.91,169.85c.61,0,.9-.37.9-.88,0-.58-.3-.84-1.03-1.13-1.15-.44-1.49-.86-1.49-1.63s.46-1.47,1.6-1.47c1.25,0,1.6.85,1.61,1.59h-.79c-.01-.27-.07-.93-.85-.93-.53,0-.77.33-.77.77s.19.67.97.96c1.08.42,1.56.81,1.56,1.77,0,1.02-.64,1.62-1.75,1.62s-1.72-.69-1.75-1.71h.8c.04.6.35,1.05.99,1.05ZM55.16,167.77c0,1.09.19,2.05,1.07,2.05s.99-.83,1.02-1h.79c-.01.14-.17,1.69-1.81,1.69s-1.87-1.51-1.87-2.89c0-1.77.6-2.88,1.92-2.88,1.47,0,1.81,1.21,1.81,2.6,0,.11,0,.29-.01.43h-2.91ZM57.28,167.14c0-.96-.2-1.71-1.02-1.71-1.02,0-1.07,1.33-1.09,1.71h2.1ZM57.28,167.14h0ZM61.26,166.5v-1.51h.78v1.51h-.78ZM61.26,168.9h.78v1.51h-.78v-1.51ZM67.76,170.41h-.99l-1.85-7.47h.88l.83,3.55c.24,1.04.53,2.35.63,3.06h.02c.1-.65.45-2.01.71-3.06l.85-3.55h.85l-1.93,7.47h0ZM70.07,164.83h.77c.01.14.03.4.03,1,.24-.67.78-1.07,1.47-1.08v.89c-.96.03-1.46.63-1.46,1.66v3.12h-.8v-3.68c0-.89,0-1.5-.01-1.9ZM76.21,169.42c0,.35.03.81.04.99h-.74c-.03-.12-.06-.42-.06-.63-.21.45-.63.73-1.32.73-1.07,0-1.46-.84-1.46-1.61,0-1.02.69-1.79,2.15-1.79.26,0,.42,0,.58.02v-.74c0-.44-.08-.99-.84-.99-.82,0-.87.59-.9.96h-.78c.02-.8.4-1.62,1.71-1.62,1.08,0,1.6.53,1.6,1.55v3.13ZM75.44,167.77c-.14-.02-.29-.03-.55-.03-.99,0-1.4.48-1.4,1.1,0,.51.27.99.87.99.82,0,1.08-.58,1.08-1.75v-.3ZM77.55,164.83h.8v5.58h-.8v-5.58ZM77.55,162.58h.8v1.15h-.8v-1.15Z"/>
    <path class="cls-1" d="M26.68,181.8h.82v6.75h2.67l-.12.72h-3.37v-7.47ZM31.42,186.64c0,1.09.19,2.05,1.07,2.05s.99-.83,1.02-1h.79c-.01.14-.17,1.69-1.81,1.69s-1.87-1.51-1.87-2.89c0-1.77.6-2.88,1.92-2.88,1.47,0,1.81,1.21,1.81,2.6,0,.11,0,.29-.01.43h-2.91ZM33.54,186c0-.96-.2-1.71-1.02-1.71-1.02,0-1.07,1.33-1.09,1.71h2.1ZM33.54,186h0ZM36.81,188.72c.61,0,.9-.37.9-.88,0-.58-.3-.84-1.03-1.13-1.15-.44-1.49-.86-1.49-1.63s.46-1.47,1.6-1.47c1.25,0,1.6.85,1.61,1.59h-.79c-.01-.27-.07-.93-.85-.93-.53,0-.77.33-.77.77s.19.67.97.96c1.08.42,1.56.81,1.56,1.77,0,1.02-.64,1.62-1.75,1.62s-1.72-.69-1.75-1.71h.8c.04.6.35,1.05.99,1.05ZM44.96,187.57c-.02.3-.14,1.8-1.77,1.8-1.46,0-1.85-1.29-1.85-2.91s.51-2.87,1.93-2.87c1.62,0,1.7,1.5,1.7,1.76h-.82c-.01-.23-.09-1.07-.88-1.07s-1.1.88-1.1,2.17c0,1.39.3,2.22,1.06,2.22.81,0,.9-.81.94-1.11h.8ZM49.54,186.42c0,1.96-.66,2.96-1.92,2.96s-1.92-.96-1.92-2.94.76-2.83,1.95-2.83,1.89.94,1.89,2.82ZM46.53,186.44c0,1.52.38,2.24,1.1,2.24s1.09-.73,1.09-2.24c0-1.43-.35-2.13-1.09-2.13s-1.1.63-1.1,2.14ZM50.58,183.7h.78c.01.14.03.36.03.73.19-.44.57-.83,1.32-.83.81,0,1.43.46,1.43,1.7v3.97h-.81v-3.82c0-.68-.22-1.14-.86-1.14-.75,0-1.07.49-1.07,1.64v3.32h-.81v-3.85c0-1.14,0-1.47-.01-1.73ZM58.81,187.57c-.02.3-.14,1.8-1.77,1.8-1.46,0-1.85-1.29-1.85-2.91s.51-2.87,1.93-2.87c1.62,0,1.7,1.5,1.7,1.76h-.82c-.01-.23-.09-1.07-.88-1.07s-1.1.88-1.1,2.17c0,1.39.3,2.22,1.06,2.22.81,0,.9-.81.94-1.11h.8ZM60.36,186.64c0,1.09.19,2.05,1.07,2.05s.99-.83,1.02-1h.79c-.01.14-.17,1.69-1.81,1.69s-1.87-1.51-1.87-2.89c0-1.77.6-2.88,1.92-2.88,1.47,0,1.81,1.21,1.81,2.6,0,.11,0,.29-.01.43h-2.91ZM62.48,186c0-.96-.2-1.71-1.02-1.71-1.02,0-1.07,1.33-1.09,1.71h2.1ZM62.48,186h0ZM65.11,188.7v2.62h-.8v-6c0-.76,0-1.28-.01-1.63h.78c.01.1.03.47.03.75.2-.48.59-.84,1.33-.84,1.06,0,1.63.94,1.63,2.8,0,2.01-.7,2.97-1.79,2.97-.67,0-1-.32-1.16-.67ZM67.24,186.45c0-1.4-.32-2.13-1.06-2.13-.86,0-1.1.82-1.1,2.14s.13,2.21,1.05,2.21c.73,0,1.1-.85,1.1-2.22ZM68.44,183.7h.79v-1.49h.8v1.49h.97v.69h-.97v3.66c0,.38.08.62.5.62.13,0,.29,0,.39-.03v.62c-.19.07-.47.09-.66.09-.66,0-1.04-.27-1.04-1.15v-3.82h-.79v-.69ZM73.28,188.72c.61,0,.9-.37.9-.88,0-.58-.3-.84-1.03-1.13-1.15-.44-1.49-.86-1.49-1.63s.46-1.47,1.6-1.47c1.25,0,1.6.85,1.61,1.59h-.79c-.01-.27-.07-.93-.85-.93-.53,0-.77.33-.77.77s.19.67.97.96c1.08.42,1.56.81,1.56,1.77,0,1.02-.64,1.62-1.75,1.62s-1.72-.69-1.75-1.71h.8c.04.6.35,1.05.99,1.05ZM81.33,188.29c0,.35.03.81.04.99h-.74c-.03-.12-.06-.42-.06-.63-.21.45-.63.73-1.32.73-1.07,0-1.46-.84-1.46-1.61,0-1.02.69-1.79,2.15-1.79.26,0,.42,0,.58.02v-.74c0-.44-.08-.99-.84-.99-.82,0-.87.59-.9.96h-.78c.02-.8.4-1.62,1.71-1.62,1.08,0,1.6.53,1.6,1.55v3.13ZM80.56,186.63c-.14-.02-.29-.03-.55-.03-.99,0-1.4.48-1.4,1.1,0,.51.27.99.87.99.82,0,1.08-.58,1.08-1.75v-.3ZM82.67,181.44h.8v2.99c.18-.43.57-.83,1.33-.83,1.07,0,1.63.89,1.63,2.74,0,1.72-.46,3.02-1.78,3.02-.71,0-1.03-.36-1.2-.75,0,.18-.01.44-.03.66h-.76c.01-.3.01-.85.01-1.53v-6.3ZM85.61,186.36c0-1.4-.33-2.04-1.03-2.04-.86,0-1.14.77-1.14,2.18,0,1.34.22,2.16,1.06,2.16.74,0,1.1-.72,1.1-2.3ZM88.89,188.72c.61,0,.9-.37.9-.88,0-.58-.3-.84-1.03-1.13-1.15-.44-1.49-.86-1.49-1.63s.46-1.47,1.6-1.47c1.25,0,1.6.85,1.61,1.59h-.79c-.01-.27-.07-.93-.85-.93-.53,0-.77.33-.77.77s.19.67.97.96c1.08.42,1.56.81,1.56,1.77,0,1.02-.64,1.62-1.75,1.62s-1.72-.69-1.75-1.71h.8c.04.6.35,1.05.99,1.05ZM90.99,183.7h.79v-1.49h.8v1.49h.97v.69h-.97v3.66c0,.38.08.62.5.62.13,0,.29,0,.39-.03v.62c-.19.07-.47.09-.66.09-.66,0-1.04-.27-1.04-1.15v-3.82h-.79v-.69ZM94.3,183.7h.77c.01.14.03.4.03,1,.24-.67.78-1.07,1.47-1.08v.89c-.96.03-1.46.63-1.46,1.66v3.12h-.8v-3.68c0-.89,0-1.5-.01-1.9ZM100.44,188.29c0,.35.03.81.04.99h-.74c-.03-.12-.06-.42-.06-.63-.21.45-.63.73-1.32.73-1.07,0-1.46-.84-1.46-1.61,0-1.02.69-1.79,2.15-1.79.26,0,.42,0,.58.02v-.74c0-.44-.08-.99-.84-.99-.82,0-.87.59-.9.96h-.78c.02-.8.4-1.62,1.71-1.62,1.08,0,1.6.53,1.6,1.55v3.13ZM99.67,186.63c-.14-.02-.29-.03-.55-.03-.99,0-1.4.48-1.4,1.1,0,.51.27.99.87.99.82,0,1.08-.58,1.08-1.75v-.3ZM101.78,183.7h.8v5.58h-.8v-5.58ZM101.78,181.44h.8v1.15h-.8v-1.15ZM103.33,183.7h.79v-1.49h.8v1.49h.97v.69h-.97v3.66c0,.38.08.62.5.62.13,0,.29,0,.39-.03v.62c-.19.07-.47.09-.66.09-.66,0-1.04-.27-1.04-1.15v-3.82h-.79v-.69ZM108.18,188.72c.61,0,.9-.37.9-.88,0-.58-.3-.84-1.03-1.13-1.15-.44-1.49-.86-1.49-1.63s.46-1.47,1.6-1.47c1.25,0,1.6.85,1.61,1.59h-.79c-.01-.27-.07-.93-.85-.93-.53,0-.77.33-.77.77s.19.67.97.96c1.08.42,1.56.81,1.56,1.77,0,1.02-.64,1.62-1.75,1.62s-1.72-.69-1.75-1.71h.8c.04.6.35,1.05.99,1.05ZM115.02,181.41c-.74,1.11-1.4,2.55-1.4,4.63,0,1.91.52,3.39,1.4,4.76h-.78c-.68-.98-1.38-2.59-1.38-4.77s.75-3.68,1.38-4.62h.78ZM115.98,183.7h.8v5.58h-.8v-5.58ZM115.99,181.44h.8v1.15h-.8v-1.15ZM118.12,185.37c0-.99,0-1.41-.01-1.67h.77c.02.16.03.46.03.71.22-.49.61-.81,1.25-.81.58,0,.99.25,1.16.83.2-.45.62-.83,1.35-.83s1.35.34,1.35,1.62v4.05h-.8v-3.91c0-.56-.16-1.05-.79-1.05-.71,0-.95.63-.95,1.38v3.58h-.8v-3.89c0-.69-.23-1.06-.77-1.06-.67,0-.98.61-.98,1.45v3.5h-.8v-3.91ZM126.14,188.7v2.62h-.8v-6c0-.76,0-1.28-.01-1.63h.78c.01.1.03.47.03.75.2-.48.59-.84,1.33-.84,1.06,0,1.63.94,1.63,2.8,0,2.01-.7,2.97-1.79,2.97-.67,0-1-.32-1.16-.67ZM128.26,186.45c0-1.4-.32-2.13-1.06-2.13-.86,0-1.1.82-1.1,2.14s.13,2.21,1.05,2.21c.73,0,1.1-.85,1.1-2.22ZM133.36,188.29c0,.35.03.81.04.99h-.74c-.03-.12-.06-.42-.06-.63-.21.45-.63.73-1.32.73-1.07,0-1.46-.84-1.46-1.61,0-1.02.69-1.79,2.15-1.79.26,0,.42,0,.58.02v-.74c0-.44-.08-.99-.84-.99-.82,0-.87.59-.9.96h-.78c.02-.8.4-1.62,1.71-1.62,1.08,0,1.6.53,1.6,1.55v3.13ZM132.58,186.63c-.14-.02-.29-.03-.55-.03-.99,0-1.4.48-1.4,1.1,0,.51.27.99.87.99.82,0,1.08-.58,1.08-1.75v-.3ZM138.04,187.57c-.02.3-.14,1.8-1.77,1.8-1.46,0-1.85-1.29-1.85-2.91s.51-2.87,1.93-2.87c1.62,0,1.7,1.5,1.7,1.76h-.82c-.01-.23-.09-1.07-.88-1.07s-1.1.88-1.1,2.17c0,1.39.3,2.22,1.06,2.22.81,0,.9-.81.94-1.11h.8ZM138.53,183.7h.79v-1.49h.8v1.49h.97v.69h-.97v3.66c0,.38.08.62.5.62.13,0,.29,0,.39-.03v.62c-.19.07-.47.09-.66.09-.66,0-1.04-.27-1.04-1.15v-3.82h-.79v-.69ZM141.48,190.53c.34-.87.56-1.86.6-2.65h.78c-.07,1.02-.39,2.07-.72,2.65h-.66Z"/>
    <path class="cls-1" d="M27.4,201.9v2.62h-.8v-6c0-.76,0-1.28-.01-1.63h.78c.01.1.03.47.03.75.2-.48.59-.84,1.33-.84,1.06,0,1.63.94,1.63,2.8,0,2.01-.7,2.97-1.79,2.97-.67,0-1-.32-1.16-.67ZM29.53,199.65c0-1.4-.32-2.13-1.06-2.13-.86,0-1.1.82-1.1,2.14s.13,2.21,1.05,2.21c.73,0,1.1-.85,1.1-2.22ZM31.96,199.84c0,1.09.19,2.05,1.07,2.05s.99-.83,1.02-1h.79c-.01.14-.17,1.69-1.81,1.69s-1.87-1.51-1.87-2.89c0-1.77.6-2.88,1.92-2.88,1.47,0,1.81,1.21,1.81,2.6,0,.11,0,.29-.01.43h-2.91ZM34.08,199.2c0-.96-.2-1.71-1.02-1.71-1.02,0-1.07,1.33-1.09,1.71h2.1ZM34.08,199.2h0ZM35.89,196.9h.77c.01.14.03.4.03,1,.24-.67.78-1.07,1.47-1.08v.89c-.96.03-1.46.63-1.46,1.66v3.12h-.8v-3.68c0-.89,0-1.5-.01-1.9ZM40.37,201.92c.61,0,.9-.37.9-.88,0-.58-.3-.84-1.03-1.13-1.15-.44-1.49-.86-1.49-1.63s.46-1.47,1.6-1.47c1.25,0,1.6.85,1.61,1.59h-.79c-.01-.27-.07-.93-.85-.93-.53,0-.77.33-.77.77s.19.67.97.96c1.08.42,1.56.81,1.56,1.77,0,1.02-.64,1.62-1.75,1.62s-1.72-.69-1.75-1.71h.8c.04.6.35,1.05.99,1.05ZM43.81,201.9v2.62h-.8v-6c0-.76,0-1.28-.01-1.63h.78c.01.1.03.47.03.75.2-.48.59-.84,1.33-.84,1.06,0,1.63.94,1.63,2.8,0,2.01-.7,2.97-1.79,2.97-.67,0-1-.32-1.16-.67ZM45.94,199.65c0-1.4-.32-2.13-1.06-2.13-.86,0-1.1.82-1.1,2.14s.13,2.21,1.05,2.21c.73,0,1.1-.85,1.1-2.22ZM48.37,199.84c0,1.09.19,2.05,1.07,2.05s.99-.83,1.02-1h.79c-.01.14-.17,1.69-1.81,1.69s-1.87-1.51-1.87-2.89c0-1.77.6-2.88,1.92-2.88,1.47,0,1.81,1.21,1.81,2.6,0,.11,0,.29-.01.43h-2.91ZM50.49,199.2c0-.96-.2-1.71-1.02-1.71-1.02,0-1.07,1.33-1.09,1.71h2.1ZM50.49,199.2h0ZM55.75,200.77c-.02.3-.14,1.8-1.77,1.8-1.46,0-1.85-1.29-1.85-2.91s.51-2.87,1.93-2.87c1.62,0,1.7,1.5,1.7,1.76h-.82c-.01-.23-.09-1.07-.88-1.07s-1.1.88-1.1,2.17c0,1.39.3,2.22,1.06,2.22.81,0,.9-.81.94-1.11h.8ZM56.24,196.9h.79v-1.49h.8v1.49h.97v.69h-.97v3.66c0,.38.08.62.5.62.13,0,.29,0,.39-.03v.62c-.19.07-.47.09-.66.09-.66,0-1.04-.27-1.04-1.15v-3.82h-.79v-.69ZM59.6,196.9h.8v5.58h-.8v-5.58ZM59.6,194.64h.8v1.15h-.8v-1.15ZM62.03,196.9c.46,1.81,1.01,3.99,1.12,4.67h.01c.07-.62.91-3.53,1.18-4.67h.81l-1.6,5.58h-.87l-1.51-5.58h.85ZM66.41,199.84c0,1.09.19,2.05,1.07,2.05s.99-.83,1.02-1h.79c-.01.14-.17,1.69-1.81,1.69s-1.87-1.51-1.87-2.89c0-1.77.6-2.88,1.92-2.88,1.47,0,1.81,1.21,1.81,2.6,0,.11,0,.29-.01.43h-2.91ZM68.53,199.2c0-.96-.2-1.71-1.02-1.71-1.02,0-1.07,1.33-1.09,1.71h2.1ZM68.53,199.2h0ZM71.8,201.92c.61,0,.9-.37.9-.88,0-.58-.3-.84-1.03-1.13-1.15-.44-1.49-.86-1.49-1.63s.46-1.47,1.6-1.47c1.25,0,1.6.85,1.61,1.59h-.79c-.01-.27-.07-.93-.85-.93-.53,0-.77.33-.77.77s.19.67.97.96c1.08.42,1.56.81,1.56,1.77,0,1.02-.64,1.62-1.75,1.62s-1.72-.69-1.75-1.71h.8c.04.6.35,1.05.99,1.05ZM73.92,203.73c.34-.87.56-1.86.6-2.65h.78c-.07,1.02-.39,2.07-.72,2.65h-.66ZM77.61,196.9h.79v-1.49h.8v1.49h.97v.69h-.97v3.66c0,.38.08.62.5.62.13,0,.29,0,.39-.03v.62c-.19.07-.47.09-.66.09-.66,0-1.04-.27-1.04-1.15v-3.82h-.79v-.69ZM80.91,196.9h.77c.01.14.03.4.03,1,.24-.67.78-1.07,1.47-1.08v.89c-.96.03-1.46.63-1.46,1.66v3.12h-.8v-3.68c0-.89,0-1.5-.01-1.9ZM87.06,201.49c0,.35.03.81.04.99h-.74c-.03-.12-.06-.42-.06-.63-.21.45-.63.73-1.32.73-1.07,0-1.46-.84-1.46-1.61,0-1.02.69-1.79,2.15-1.79.26,0,.42,0,.58.02v-.74c0-.44-.08-.99-.84-.99-.82,0-.87.59-.9.96h-.78c.02-.8.4-1.62,1.71-1.62,1.08,0,1.6.53,1.6,1.55v3.13ZM86.29,199.83c-.14-.02-.29-.03-.55-.03-.99,0-1.4.48-1.4,1.1,0,.51.27.99.87.99.82,0,1.08-.58,1.08-1.75v-.3ZM88.39,196.9h.8v5.58h-.8v-5.58ZM88.4,194.64h.8v1.15h-.8v-1.15ZM89.95,196.9h.79v-1.49h.8v1.49h.97v.69h-.97v3.66c0,.38.08.62.5.62.13,0,.29,0,.39-.03v.62c-.19.07-.47.09-.66.09-.66,0-1.04-.27-1.04-1.15v-3.82h-.79v-.69ZM93.74,199.84c0,1.09.19,2.05,1.07,2.05s.99-.83,1.02-1h.79c-.01.14-.17,1.69-1.81,1.69s-1.87-1.51-1.87-2.89c0-1.77.6-2.88,1.92-2.88,1.47,0,1.81,1.21,1.81,2.6,0,.11,0,.29-.01.43h-2.91ZM95.86,199.2c0-.96-.2-1.71-1.02-1.71-1.02,0-1.07,1.33-1.09,1.71h2.1ZM95.86,199.2h0ZM97.69,198.57c0-.99,0-1.41-.01-1.67h.77c.02.16.03.46.03.71.22-.49.61-.81,1.25-.81.58,0,.99.25,1.16.83.2-.45.62-.83,1.35-.83s1.35.34,1.35,1.62v4.05h-.8v-3.91c0-.56-.16-1.05-.79-1.05-.71,0-.95.63-.95,1.38v3.58h-.8v-3.89c0-.69-.23-1.06-.77-1.06-.67,0-.98.61-.98,1.45v3.5h-.8v-3.91ZM105.44,199.84c0,1.09.19,2.05,1.07,2.05s.99-.83,1.02-1h.79c-.01.14-.17,1.69-1.81,1.69s-1.87-1.51-1.87-2.89c0-1.77.6-2.88,1.92-2.88,1.47,0,1.81,1.21,1.81,2.6,0,.11,0,.29-.01.43h-2.91ZM107.55,199.2c0-.96-.2-1.71-1.02-1.71-1.02,0-1.07,1.33-1.09,1.71h2.1ZM107.55,199.2h0ZM109.37,196.9h.78c.01.14.03.36.03.73.19-.44.57-.83,1.32-.83.81,0,1.43.46,1.43,1.7v3.97h-.81v-3.82c0-.68-.22-1.14-.86-1.14-.75,0-1.07.49-1.07,1.64v3.32h-.81v-3.85c0-1.14,0-1.47-.01-1.73ZM113.56,196.9h.79v-1.49h.8v1.49h.97v.69h-.97v3.66c0,.38.08.62.5.62.13,0,.29,0,.39-.03v.62c-.19.07-.47.09-.66.09-.66,0-1.04-.27-1.04-1.15v-3.82h-.79v-.69ZM116.51,203.73c.34-.87.56-1.86.6-2.65h.78c-.07,1.02-.39,2.07-.72,2.65h-.66Z"/>
    <path class="cls-1" d="M29.95,213.97c-.02.3-.14,1.8-1.77,1.8-1.46,0-1.85-1.29-1.85-2.91s.51-2.87,1.93-2.87c1.62,0,1.7,1.5,1.7,1.76h-.82c-.01-.23-.09-1.07-.88-1.07s-1.1.88-1.1,2.17c0,1.39.3,2.22,1.06,2.22.81,0,.9-.81.94-1.11h.8ZM34.53,212.82c0,1.96-.66,2.96-1.92,2.96s-1.92-.96-1.92-2.94.76-2.83,1.95-2.83,1.89.94,1.89,2.82ZM31.51,212.84c0,1.52.38,2.24,1.1,2.24s1.09-.73,1.09-2.24c0-1.43-.35-2.13-1.09-2.13s-1.1.63-1.1,2.14ZM35.56,210.1h.78c.01.14.03.36.03.73.19-.44.57-.83,1.32-.83.81,0,1.43.46,1.43,1.7v3.97h-.81v-3.82c0-.68-.22-1.14-.86-1.14-.75,0-1.07.49-1.07,1.64v3.32h-.81v-3.85c0-1.14,0-1.47-.01-1.73ZM41.83,215.12c.61,0,.9-.37.9-.88,0-.58-.3-.84-1.03-1.13-1.15-.44-1.49-.86-1.49-1.63s.46-1.47,1.6-1.47c1.25,0,1.6.85,1.61,1.59h-.79c-.01-.27-.07-.93-.85-.93-.53,0-.77.33-.77.77s.19.67.97.96c1.08.42,1.56.81,1.56,1.77,0,1.02-.64,1.62-1.75,1.62s-1.72-.69-1.75-1.71h.8c.04.6.35,1.05.99,1.05ZM45.07,213.04c0,1.09.19,2.05,1.07,2.05s.99-.83,1.02-1h.79c-.01.14-.17,1.69-1.81,1.69s-1.87-1.51-1.87-2.89c0-1.77.6-2.88,1.92-2.88,1.47,0,1.81,1.21,1.81,2.6,0,.11,0,.29-.01.43h-2.91ZM47.19,212.4c0-.96-.2-1.71-1.02-1.71-1.02,0-1.07,1.33-1.09,1.71h2.1ZM47.71,207.72l-1.38,1.53h-.75l1.18-1.53h.95ZM47.19,212.4h0ZM51.8,214.97c-.21.48-.59.8-1.31.8-1.04,0-1.66-.86-1.66-2.89,0-1.85.7-2.88,1.8-2.88.74,0,1.05.35,1.17.7,0-.31.02-.5.03-.6h.78c-.01.4-.01.86-.01,1.65v5.98h-.79v-2.76ZM49.66,212.89c0,1.33.31,2.18,1.06,2.18.9,0,1.09-.78,1.09-2.21s-.12-2.15-1.03-2.15c-.7,0-1.11.76-1.11,2.18ZM57.43,214.15c0,.7,0,1.26.01,1.53h-.77c-.03-.16-.04-.38-.04-.74-.2.55-.67.84-1.33.84s-1.39-.27-1.39-1.67v-4.01h.81v3.82c0,.71.2,1.15.84,1.15s1.06-.38,1.06-1.58v-3.39h.81v4.05ZM59.27,213.04c0,1.09.19,2.05,1.07,2.05s.99-.83,1.02-1h.79c-.01.14-.17,1.69-1.81,1.69s-1.87-1.51-1.87-2.89c0-1.77.6-2.88,1.92-2.88,1.47,0,1.81,1.21,1.81,2.6,0,.11,0,.29-.01.43h-2.91ZM61.39,212.4c0-.96-.2-1.71-1.02-1.71-1.02,0-1.07,1.33-1.09,1.71h2.1ZM61.39,212.4h0ZM63.2,210.1h.78c.01.14.03.36.03.73.19-.44.57-.83,1.32-.83.81,0,1.43.46,1.43,1.7v3.97h-.81v-3.82c0-.68-.22-1.14-.86-1.14-.75,0-1.07.49-1.07,1.64v3.32h-.81v-3.85c0-1.14,0-1.47-.01-1.73ZM71.44,213.97c-.02.3-.14,1.8-1.77,1.8-1.46,0-1.85-1.29-1.85-2.91s.51-2.87,1.93-2.87c1.62,0,1.7,1.5,1.7,1.76h-.82c-.01-.23-.09-1.07-.88-1.07s-1.1.88-1.1,2.17c0,1.39.3,2.22,1.06,2.22.81,0,.9-.81.94-1.11h.8ZM72.99,213.04c0,1.09.19,2.05,1.07,2.05s.99-.83,1.02-1h.79c-.01.14-.17,1.69-1.81,1.69s-1.87-1.51-1.87-2.89c0-1.77.6-2.88,1.92-2.88,1.47,0,1.81,1.21,1.81,2.6,0,.11,0,.29-.01.43h-2.91ZM75.11,212.4c0-.96-.2-1.71-1.02-1.71-1.02,0-1.07,1.33-1.09,1.71h2.1ZM75.11,212.4h0ZM78.38,215.12c.61,0,.9-.37.9-.88,0-.58-.3-.84-1.03-1.13-1.15-.44-1.49-.86-1.49-1.63s.46-1.47,1.6-1.47c1.25,0,1.6.85,1.61,1.59h-.79c-.01-.27-.07-.93-.85-.93-.53,0-.77.33-.77.77s.19.67.97.96c1.08.42,1.56.81,1.56,1.77,0,1.02-.64,1.62-1.75,1.62s-1.72-.69-1.75-1.71h.8c.04.6.35,1.05.99,1.05ZM80.5,216.93c.34-.87.56-1.86.6-2.65h.78c-.07,1.02-.39,2.07-.72,2.65h-.66ZM84.62,214.17h.82v1.51h-.82v-1.51ZM86.25,214.17h.82v1.51h-.82v-1.51ZM87.88,214.17h.82v1.51h-.82v-1.51ZM89.4,217.19c.74-1.11,1.4-2.55,1.4-4.63,0-1.91-.52-3.39-1.4-4.76h.78c.68.98,1.38,2.59,1.38,4.77s-.75,3.68-1.38,4.62h-.78ZM96.24,215.12c.61,0,.9-.37.9-.88,0-.58-.3-.84-1.03-1.13-1.15-.44-1.49-.86-1.49-1.63s.46-1.47,1.6-1.47c1.25,0,1.6.85,1.61,1.59h-.79c-.01-.27-.07-.93-.85-.93-.53,0-.77.33-.77.77s.19.67.97.96c1.08.42,1.56.81,1.56,1.77,0,1.02-.64,1.62-1.75,1.62s-1.72-.69-1.75-1.71h.8c.04.6.35,1.05.99,1.05ZM102.52,212.82c0,1.96-.66,2.96-1.92,2.96s-1.92-.96-1.92-2.94.76-2.83,1.95-2.83,1.89.94,1.89,2.82ZM99.5,212.84c0,1.52.38,2.24,1.1,2.24s1.09-.73,1.09-2.24c0-1.43-.35-2.13-1.09-2.13s-1.1.63-1.1,2.14ZM103.55,210.1h.78c.01.14.03.36.03.73.19-.44.57-.83,1.32-.83.81,0,1.43.46,1.43,1.7v3.97h-.81v-3.82c0-.68-.22-1.14-.86-1.14-.75,0-1.07.49-1.07,1.64v3.32h-.81v-3.85c0-1.14,0-1.47-.01-1.73ZM107.75,210.1h.79v-1.49h.8v1.49h.97v.69h-.97v3.66c0,.38.08.62.5.62.13,0,.29,0,.39-.03v.62c-.19.07-.47.09-.66.09-.66,0-1.04-.27-1.04-1.15v-3.82h-.79v-.69ZM116.41,214.69c0,.35.03.81.04.99h-.74c-.03-.12-.06-.42-.06-.63-.21.45-.63.73-1.32.73-1.07,0-1.46-.84-1.46-1.61,0-1.02.69-1.79,2.15-1.79.26,0,.42,0,.58.02v-.74c0-.44-.08-.99-.84-.99-.82,0-.87.59-.9.96h-.78c.02-.8.4-1.62,1.71-1.62,1.08,0,1.6.53,1.6,1.55v3.13ZM114.08,207.73l1.18,1.53h-.76l-1.39-1.53h.97ZM115.63,213.03c-.14-.02-.29-.03-.55-.03-.99,0-1.4.48-1.4,1.1,0,.51.27.99.87.99.82,0,1.08-.58,1.08-1.75v-.3ZM123.08,214.69c0,.35.03.81.04.99h-.74c-.03-.12-.06-.42-.06-.63-.21.45-.63.73-1.32.73-1.07,0-1.46-.84-1.46-1.61,0-1.02.69-1.79,2.15-1.79.26,0,.42,0,.58.02v-.74c0-.44-.08-.99-.84-.99-.82,0-.87.59-.9.96h-.78c.02-.8.4-1.62,1.71-1.62,1.08,0,1.6.53,1.6,1.55v3.13ZM122.31,213.03c-.14-.02-.29-.03-.55-.03-.99,0-1.4.48-1.4,1.1,0,.51.27.99.87.99.82,0,1.08-.58,1.08-1.75v-.3ZM125.24,210.1v5.93c0,1.02-.13,1.78-1.21,1.78-.1,0-.22,0-.35-.03v-.71c.1.01.19.01.25.01.43,0,.5-.27.5-.88v-6.11h.8ZM124.45,209v-1.15h.8v1.15h-.8ZM130.14,212.82c0,1.96-.66,2.96-1.92,2.96s-1.92-.96-1.92-2.94.76-2.83,1.95-2.83,1.89.94,1.89,2.82ZM127.12,212.84c0,1.52.38,2.24,1.1,2.24s1.09-.73,1.09-2.24c0-1.43-.35-2.13-1.09-2.13s-1.1.63-1.1,2.14ZM134.69,214.15c0,.7,0,1.26.01,1.53h-.77c-.03-.16-.04-.38-.04-.74-.2.55-.67.84-1.33.84s-1.39-.27-1.39-1.67v-4.01h.81v3.82c0,.71.2,1.15.84,1.15s1.06-.38,1.06-1.58v-3.39h.81v4.05ZM135.43,210.1h.79v-1.49h.8v1.49h.97v.69h-.97v3.66c0,.38.08.62.5.62.13,0,.29,0,.39-.03v.62c-.19.07-.47.09-.66.09-.66,0-1.04-.27-1.04-1.15v-3.82h-.79v-.69ZM139.23,213.04c0,1.09.19,2.05,1.07,2.05s.99-.83,1.02-1h.79c-.01.14-.17,1.69-1.81,1.69s-1.87-1.51-1.87-2.89c0-1.77.6-2.88,1.92-2.88,1.47,0,1.81,1.21,1.81,2.6,0,.11,0,.29-.01.43h-2.91ZM141.35,212.4c0-.96-.2-1.71-1.02-1.71-1.02,0-1.07,1.33-1.09,1.71h2.1ZM141.35,212.4h0ZM143.16,210.1h.77c.01.14.03.4.03,1,.24-.67.78-1.07,1.47-1.08v.89c-.96.03-1.46.63-1.46,1.66v3.12h-.8v-3.68c0-.89,0-1.5-.01-1.9ZM151.55,214.69c0,.35.03.81.04.99h-.74c-.03-.12-.06-.42-.06-.63-.21.45-.63.73-1.32.73-1.07,0-1.46-.84-1.46-1.61,0-1.02.69-1.79,2.15-1.79.26,0,.42,0,.58.02v-.74c0-.44-.08-.99-.84-.99-.82,0-.87.59-.9.96h-.78c.02-.8.4-1.62,1.71-1.62,1.08,0,1.6.53,1.6,1.55v3.13ZM149.22,207.73l1.18,1.53h-.76l-1.39-1.53h.97ZM150.78,213.03c-.14-.02-.29-.03-.55-.03-.99,0-1.4.48-1.4,1.1,0,.51.27.99.87.99.82,0,1.08-.58,1.08-1.75v-.3Z"/>
    <path class="cls-1" d="M26.9,223.3c.46,1.81,1.01,3.99,1.12,4.67h.01c.07-.62.91-3.53,1.18-4.67h.81l-1.6,5.58h-.87l-1.51-5.58h.85ZM34.31,226.02c0,1.96-.66,2.96-1.92,2.96s-1.92-.96-1.92-2.94.76-2.83,1.95-2.83,1.89.94,1.89,2.82ZM31.29,226.04c0,1.52.38,2.24,1.1,2.24s1.09-.73,1.09-2.24c0-1.43-.35-2.13-1.09-2.13s-1.1.63-1.1,2.14ZM34.69,223.3h.79v-1.49h.8v1.49h.97v.69h-.97v3.66c0,.38.08.62.5.62.13,0,.29,0,.39-.03v.62c-.19.07-.47.09-.66.09-.66,0-1.04-.27-1.04-1.15v-3.82h-.79v-.69ZM37.99,223.3h.77c.01.14.03.4.03,1,.24-.67.78-1.07,1.47-1.08v.89c-.96.03-1.46.63-1.46,1.66v3.12h-.8v-3.68c0-.89,0-1.5-.01-1.9ZM41.51,226.24c0,1.09.19,2.05,1.07,2.05s.99-.83,1.02-1h.79c-.01.14-.17,1.69-1.81,1.69s-1.87-1.51-1.87-2.89c0-1.77.6-2.88,1.92-2.88,1.47,0,1.81,1.21,1.81,2.6,0,.11,0,.29-.01.43h-2.91ZM43.63,225.6c0-.96-.2-1.71-1.02-1.71-1.02,0-1.07,1.33-1.09,1.71h2.1ZM43.63,225.6h0ZM47.54,223.3h.77c.01.14.03.4.03,1,.24-.67.78-1.07,1.47-1.08v.89c-.96.03-1.46.63-1.46,1.66v3.12h-.8v-3.68c0-.89,0-1.5-.01-1.9ZM51.06,226.24c0,1.09.19,2.05,1.07,2.05s.99-.83,1.02-1h.79c-.01.14-.17,1.69-1.81,1.69s-1.87-1.51-1.87-2.89c0-1.77.6-2.88,1.92-2.88,1.47,0,1.81,1.21,1.81,2.6,0,.11,0,.29-.01.43h-2.91ZM53.17,225.6c0-.96-.2-1.71-1.02-1.71-1.02,0-1.07,1.33-1.09,1.71h2.1ZM53.17,225.6h0ZM58.44,227.17c-.02.3-.14,1.8-1.77,1.8-1.46,0-1.85-1.29-1.85-2.91s.51-2.87,1.93-2.87c1.62,0,1.7,1.5,1.7,1.76h-.82c-.01-.23-.09-1.07-.88-1.07s-1.1.88-1.1,2.17c0,1.39.3,2.22,1.06,2.22.81,0,.9-.81.94-1.11h.8ZM60.21,221.04v2.93c.19-.45.63-.78,1.34-.78.82,0,1.41.51,1.41,1.71v3.97h-.81v-3.8c0-.68-.2-1.16-.88-1.16-.77,0-1.05.63-1.05,1.6v3.35h-.81v-7.83h.81ZM64.8,226.24c0,1.09.19,2.05,1.07,2.05s.99-.83,1.02-1h.79c-.01.14-.17,1.69-1.81,1.69s-1.87-1.51-1.87-2.89c0-1.77.6-2.88,1.92-2.88,1.47,0,1.81,1.21,1.81,2.6,0,.11,0,.29-.01.43h-2.91ZM66.91,225.6c0-.96-.2-1.71-1.02-1.71-1.02,0-1.07,1.33-1.09,1.71h2.1ZM66.91,225.6h0ZM68.73,223.3h.77c.01.14.03.4.03,1,.24-.67.78-1.07,1.47-1.08v.89c-.96.03-1.46.63-1.46,1.66v3.12h-.8v-3.68c0-.89,0-1.5-.01-1.9ZM75.06,227.17c-.02.3-.14,1.8-1.77,1.8-1.46,0-1.85-1.29-1.85-2.91s.51-2.87,1.93-2.87c1.62,0,1.7,1.5,1.7,1.76h-.82c-.01-.23-.09-1.07-.88-1.07s-1.1.88-1.1,2.17c0,1.39.3,2.22,1.06,2.22.81,0,.9-.81.94-1.11h.8ZM76.83,221.04v2.93c.19-.45.63-.78,1.34-.78.82,0,1.41.51,1.41,1.71v3.97h-.81v-3.8c0-.68-.2-1.16-.88-1.16-.77,0-1.05.63-1.05,1.6v3.35h-.81v-7.83h.81ZM81.42,226.24c0,1.09.19,2.05,1.07,2.05s.99-.83,1.02-1h.79c-.01.14-.17,1.69-1.81,1.69s-1.87-1.51-1.87-2.89c0-1.77.6-2.88,1.92-2.88,1.47,0,1.81,1.21,1.81,2.6,0,.11,0,.29-.01.43h-2.91ZM83.53,225.6c0-.96-.2-1.71-1.02-1.71-1.02,0-1.07,1.33-1.09,1.71h2.1ZM83.53,225.6h0ZM90.95,221.04v6.4c0,.54,0,1.1.01,1.43h-.78c-.01-.14-.03-.51-.03-.75-.17.48-.53.85-1.31.85-1.16,0-1.65-.99-1.65-2.95,0-1.78.66-2.82,1.83-2.82.72,0,1,.31,1.13.58v-2.74h.8ZM88.01,226.04c0,1.61.37,2.22,1.05,2.22.87,0,1.1-.74,1.1-2.25,0-1.63-.23-2.09-1.03-2.09-.66,0-1.11.58-1.11,2.12ZM95.44,227.89c0,.35.03.81.04.99h-.74c-.03-.12-.06-.42-.06-.63-.21.45-.63.73-1.32.73-1.07,0-1.46-.84-1.46-1.61,0-1.02.69-1.79,2.15-1.79.26,0,.42,0,.58.02v-.74c0-.44-.08-.99-.84-.99-.82,0-.87.59-.9.96h-.78c.02-.8.4-1.62,1.71-1.62,1.08,0,1.6.53,1.6,1.55v3.13ZM94.67,226.23c-.14-.02-.29-.03-.55-.03-.99,0-1.4.48-1.4,1.1,0,.51.27.99.87.99.82,0,1.08-.58,1.08-1.75v-.3ZM96.77,223.3h.78c.01.14.03.36.03.73.19-.44.57-.83,1.32-.83.81,0,1.43.46,1.43,1.7v3.97h-.81v-3.82c0-.68-.22-1.14-.86-1.14-.75,0-1.07.49-1.07,1.64v3.32h-.81v-3.85c0-1.14,0-1.47-.01-1.73ZM103.03,228.32c.61,0,.9-.37.9-.88,0-.58-.3-.84-1.03-1.13-1.15-.44-1.49-.86-1.49-1.63s.46-1.47,1.6-1.47c1.25,0,1.6.85,1.61,1.59h-.79c-.01-.27-.07-.93-.85-.93-.53,0-.77.33-.77.77s.19.67.97.96c1.08.42,1.56.81,1.56,1.77,0,1.02-.64,1.62-1.75,1.62s-1.72-.69-1.75-1.71h.8c.04.6.35,1.05.99,1.05ZM111.34,227.35c0,.7,0,1.26.01,1.53h-.77c-.03-.16-.04-.38-.04-.74-.2.55-.67.84-1.33.84s-1.39-.27-1.39-1.67v-4.01h.81v3.82c0,.71.2,1.15.84,1.15s1.06-.38,1.06-1.58v-3.39h.81v4.05ZM112.58,223.3h.78c.01.14.03.36.03.73.19-.44.57-.83,1.32-.83.81,0,1.43.46,1.43,1.7v3.97h-.81v-3.82c0-.68-.22-1.14-.86-1.14-.75,0-1.07.49-1.07,1.64v3.32h-.81v-3.85c0-1.14,0-1.47-.01-1.73ZM120.89,228.32c.61,0,.9-.37.9-.88,0-.58-.3-.84-1.03-1.13-1.15-.44-1.49-.86-1.49-1.63s.46-1.47,1.6-1.47c1.25,0,1.6.85,1.61,1.59h-.79c-.01-.27-.07-.93-.85-.93-.53,0-.77.33-.77.77s.19.67.97.96c1.08.42,1.56.81,1.56,1.77,0,1.02-.64,1.62-1.75,1.62s-1.72-.69-1.75-1.71h.8c.04.6.35,1.05.99,1.05ZM124.14,226.24c0,1.09.19,2.05,1.07,2.05s.99-.83,1.02-1h.79c-.01.14-.17,1.69-1.81,1.69s-1.87-1.51-1.87-2.89c0-1.77.6-2.88,1.92-2.88,1.47,0,1.81,1.21,1.81,2.6,0,.11,0,.29-.01.43h-2.91ZM126.26,225.6c0-.96-.2-1.71-1.02-1.71-1.02,0-1.07,1.33-1.09,1.71h2.1ZM126.26,225.6h0ZM131.52,227.17c-.02.3-.14,1.8-1.77,1.8-1.46,0-1.85-1.29-1.85-2.91s.51-2.87,1.93-2.87c1.62,0,1.7,1.5,1.7,1.76h-.82c-.01-.23-.09-1.07-.88-1.07s-1.1.88-1.1,2.17c0,1.39.3,2.22,1.06,2.22.81,0,.9-.81.94-1.11h.8ZM136.1,226.02c0,1.96-.66,2.96-1.92,2.96s-1.92-.96-1.92-2.94.76-2.83,1.95-2.83,1.89.94,1.89,2.82ZM133.09,226.04c0,1.52.38,2.24,1.1,2.24s1.09-.73,1.09-2.24c0-1.43-.35-2.13-1.09-2.13s-1.1.63-1.1,2.14ZM137.14,223.3h.78c.01.14.03.36.03.73.19-.44.57-.83,1.32-.83.81,0,1.43.46,1.43,1.7v3.97h-.81v-3.82c0-.68-.22-1.14-.86-1.14-.75,0-1.07.49-1.07,1.64v3.32h-.81v-3.85c0-1.14,0-1.47-.01-1.73ZM145.5,221.04v6.4c0,.54,0,1.1.01,1.43h-.78c-.01-.14-.03-.51-.03-.75-.17.48-.53.85-1.31.85-1.16,0-1.65-.99-1.65-2.95,0-1.78.66-2.82,1.83-2.82.72,0,1,.31,1.13.58v-2.74h.8ZM142.57,226.04c0,1.61.37,2.22,1.05,2.22.87,0,1.1-.74,1.1-2.25,0-1.63-.23-2.09-1.03-2.09-.66,0-1.11.58-1.11,2.12Z"/>
    <path class="cls-1" d="M25.91,236.5h.79v-1.49h.8v1.49h.97v.69h-.97v3.66c0,.38.08.62.5.62.13,0,.29,0,.39-.03v.62c-.19.07-.47.09-.66.09-.66,0-1.04-.27-1.04-1.15v-3.82h-.79v-.69ZM29.71,239.44c0,1.09.19,2.05,1.07,2.05s.99-.83,1.02-1h.79c-.01.14-.17,1.69-1.81,1.69s-1.87-1.51-1.87-2.89c0-1.77.6-2.88,1.92-2.88,1.47,0,1.81,1.21,1.81,2.6,0,.11,0,.29-.01.43h-2.91ZM31.82,238.8c0-.96-.2-1.71-1.02-1.71-1.02,0-1.07,1.33-1.09,1.71h2.1ZM31.82,238.8h0ZM33.65,238.17c0-.99,0-1.41-.01-1.67h.77c.02.16.03.46.03.71.22-.49.61-.81,1.25-.81.58,0,.99.25,1.16.83.2-.45.62-.83,1.35-.83s1.35.34,1.35,1.62v4.05h-.8v-3.91c0-.56-.16-1.05-.79-1.05-.71,0-.95.63-.95,1.38v3.58h-.8v-3.89c0-.69-.23-1.06-.77-1.06-.67,0-.98.61-.98,1.45v3.5h-.8v-3.91ZM41.67,241.5v2.62h-.8v-6c0-.76,0-1.28-.01-1.63h.78c.01.1.03.47.03.75.2-.48.59-.84,1.33-.84,1.06,0,1.63.94,1.63,2.8,0,2.01-.7,2.97-1.79,2.97-.67,0-1-.32-1.16-.67ZM43.8,239.25c0-1.4-.32-2.13-1.06-2.13-.86,0-1.1.82-1.1,2.14s.13,2.21,1.05,2.21c.73,0,1.1-.85,1.1-2.22ZM47.11,241.52c.61,0,.9-.37.9-.88,0-.58-.3-.84-1.03-1.13-1.15-.44-1.49-.86-1.49-1.63s.46-1.47,1.6-1.47c1.25,0,1.6.85,1.61,1.59h-.79c-.01-.27-.07-.93-.85-.93-.53,0-.77.33-.77.77s.19.67.97.96c1.08.42,1.56.81,1.56,1.77,0,1.02-.64,1.62-1.75,1.62s-1.72-.69-1.75-1.71h.8c.04.6.35,1.05.99,1.05ZM53.29,241.52c.61,0,.9-.37.9-.88,0-.58-.3-.84-1.03-1.13-1.15-.44-1.49-.86-1.49-1.63s.46-1.47,1.6-1.47c1.25,0,1.6.85,1.61,1.59h-.79c-.01-.27-.07-.93-.85-.93-.53,0-.77.33-.77.77s.19.67.97.96c1.08.42,1.56.81,1.56,1.77,0,1.02-.64,1.62-1.75,1.62s-1.72-.69-1.75-1.71h.8c.04.6.35,1.05.99,1.05ZM55.97,236.5h.8v5.58h-.8v-5.58ZM55.97,234.24h.8v1.15h-.8v-1.15ZM60.19,236.5h.78c.01.14.03.36.03.73.19-.44.57-.83,1.32-.83.81,0,1.43.46,1.43,1.7v3.97h-.81v-3.82c0-.68-.22-1.14-.86-1.14-.75,0-1.07.49-1.07,1.64v3.32h-.81v-3.85c0-1.14,0-1.47-.01-1.73ZM65.61,239.44c0,1.09.19,2.05,1.07,2.05s.99-.83,1.02-1h.79c-.01.14-.17,1.69-1.81,1.69s-1.87-1.51-1.87-2.89c0-1.77.6-2.88,1.92-2.88,1.47,0,1.81,1.21,1.81,2.6,0,.11,0,.29-.01.43h-2.91ZM67.73,238.8c0-.96-.2-1.71-1.02-1.71-1.02,0-1.07,1.33-1.09,1.71h2.1ZM68.25,234.12l-1.38,1.53h-.75l1.18-1.53h.95ZM67.73,238.8h0ZM72.99,240.37c-.02.3-.14,1.8-1.77,1.8-1.46,0-1.85-1.29-1.85-2.91s.51-2.87,1.93-2.87c1.62,0,1.7,1.5,1.7,1.76h-.82c-.01-.23-.09-1.07-.88-1.07s-1.1.88-1.1,2.17c0,1.39.3,2.22,1.06,2.22.81,0,.9-.81.94-1.11h.8ZM74.54,239.44c0,1.09.19,2.05,1.07,2.05s.99-.83,1.02-1h.79c-.01.14-.17,1.69-1.81,1.69s-1.87-1.51-1.87-2.89c0-1.77.6-2.88,1.92-2.88,1.47,0,1.81,1.21,1.81,2.6,0,.11,0,.29-.01.43h-2.91ZM76.66,238.8c0-.96-.2-1.71-1.02-1.71-1.02,0-1.07,1.33-1.09,1.71h2.1ZM76.66,238.8h0ZM79.93,241.52c.61,0,.9-.37.9-.88,0-.58-.3-.84-1.03-1.13-1.15-.44-1.49-.86-1.49-1.63s.46-1.47,1.6-1.47c1.25,0,1.6.85,1.61,1.59h-.79c-.01-.27-.07-.93-.85-.93-.53,0-.77.33-.77.77s.19.67.97.96c1.08.42,1.56.81,1.56,1.77,0,1.02-.64,1.62-1.75,1.62s-1.72-.69-1.75-1.71h.8c.04.6.35,1.05.99,1.05ZM84.08,241.52c.61,0,.9-.37.9-.88,0-.58-.3-.84-1.03-1.13-1.15-.44-1.49-.86-1.49-1.63s.46-1.47,1.6-1.47c1.25,0,1.6.85,1.61,1.59h-.79c-.01-.27-.07-.93-.85-.93-.53,0-.77.33-.77.77s.19.67.97.96c1.08.42,1.56.81,1.56,1.77,0,1.02-.64,1.62-1.75,1.62s-1.72-.69-1.75-1.71h.8c.04.6.35,1.05.99,1.05ZM89.99,241.09c0,.35.03.81.04.99h-.74c-.03-.12-.06-.42-.06-.63-.21.45-.63.73-1.32.73-1.07,0-1.46-.84-1.46-1.61,0-1.02.69-1.79,2.15-1.79.26,0,.42,0,.58.02v-.74c0-.44-.08-.99-.84-.99-.82,0-.87.59-.9.96h-.78c.02-.8.4-1.62,1.71-1.62,1.08,0,1.6.53,1.6,1.55v3.13ZM89.22,239.43c-.14-.02-.29-.03-.55-.03-.99,0-1.4.48-1.4,1.1,0,.51.27.99.87.99.82,0,1.08-.58,1.08-1.75v-.3ZM91.33,236.5h.8v5.58h-.8v-5.58ZM91.34,234.24h.8v1.15h-.8v-1.15ZM93.45,236.5h.77c.01.14.03.4.03,1,.24-.67.78-1.07,1.47-1.08v.89c-.96.03-1.46.63-1.46,1.66v3.12h-.8v-3.68c0-.89,0-1.5-.01-1.9ZM96.97,239.44c0,1.09.19,2.05,1.07,2.05s.99-.83,1.02-1h.79c-.01.14-.17,1.69-1.81,1.69s-1.87-1.51-1.87-2.89c0-1.77.6-2.88,1.92-2.88,1.47,0,1.81,1.21,1.81,2.6,0,.11,0,.29-.01.43h-2.91ZM99.09,238.8c0-.96-.2-1.71-1.02-1.71-1.02,0-1.07,1.33-1.09,1.71h2.1ZM99.09,238.8h0ZM100.72,240.57h.82v1.51h-.82v-1.51Z"/>
  </g>
</svg>